<?xml version="1.0" encoding="utf-8"?>
<!-- Generator: Adobe Illustrator 16.0.0, SVG Export Plug-In . SVG Version: 6.00 Build 0)  -->
<!DOCTYPE svg PUBLIC "-//W3C//DTD SVG 1.1//EN" "http://www.w3.org/Graphics/SVG/1.1/DTD/svg11.dtd">
<svg version="1.1" id="Calque_1" xmlns="http://www.w3.org/2000/svg" xmlns:xlink="http://www.w3.org/1999/xlink" x="0px" y="0px"
	 width="250px" height="250px" viewBox="0 0 250 250" enable-background="new 0 0 250 250" xml:space="preserve">
<g>
	<circle fill="#D67411" cx="153.535" cy="92.712" r="5.911"/>
	<path fill="#D67411" d="M152.239,97.575c0,0-12.398,13.988-4.425,25.562h6.254C154.068,123.137,146.746,111.306,152.239,97.575z"/>
	<path fill="#D67411" d="M151.188,96.913c0,0-16.408,5.737-14.824,19.702l5.518,2.947
		C141.882,119.562,139.875,106.438,151.188,96.913z"/>
	<path fill="#D67411" d="M150.408,95.937c0,0-14.448-2.958-20.777,9.59l3.005,5.488C132.636,111.015,135.726,97.705,150.408,95.937z
		"/>
	<path fill="#D67411" d="M149.604,92.229c0,0-9.701-7.094-19.164-0.111l-0.81,6.505C129.631,98.623,136.983,89.635,149.604,92.229z"
		/>
	<path fill="#D67411" d="M151.188,88.317c0,0-3.526-3.958-10.709-5.667l-5.027,4.22C135.452,86.87,143.713,83.356,151.188,88.317z"
		/>
	<path fill="#D67411" d="M154.82,87.51c0,0,0.85-4.473-4.106-6.356l-5.528,1.169C145.186,82.323,151.814,80.708,154.82,87.51z"/>
	<path fill="#D67411" d="M154.376,97.575c0,0-6.453,16.212,4.95,24.429l5.89-2.104C165.216,119.899,153.821,112.353,154.376,97.575z
		"/>
	<path fill="#D67411" d="M156.508,96.5c0,0-0.244,16.367,13.044,20.948l5.032-3.711C174.584,113.737,160.241,110.812,156.508,96.5z"
		/>
	<path fill="#D67411" d="M158.265,94.79c0,0,4.809,14.335,18.858,13.83l2.977-5.295C180.1,103.325,166.894,106.8,158.265,94.79z"/>
	<path fill="#D67411" d="M158.888,91.085c0,0,8.653,11.8,21.446,5.975l1.093-6.157C181.427,90.903,171.443,98.894,158.888,91.085z"
		/>
	<path fill="#D67411" d="M156.85,87.825c0,0,12.921,7.707,22.689-2.4l-1.236-6.132C178.303,79.292,171.397,90.49,156.85,87.825z"/>
	<path fill="#D67411" d="M154.469,84.964c0,0,15.207,2.667,20.755-10.244l-3.333-5.296
		C171.891,69.424,169.014,82.298,154.469,84.964z"/>
	<path fill="#D67411" d="M152.557,82.869c0,0,14.11-2.521,14.82-16.558l-4.965-3.806C162.412,62.505,165.267,75.306,152.557,82.869z
		"/>
	<path fill="#D67411" d="M148.957,81.154c0,0,12.621-7.107,7.422-20.165l-6.099-1.394C150.28,59.595,157.366,68.986,148.957,81.154z
		"/>
	<path fill="#D67411" d="M144.306,81.154c0,0,9.803-11.891,0.522-22.446l-6.214,0.737C138.614,59.444,148.138,66.87,144.306,81.154z
		"/>
	<path fill="#D67411" d="M138.699,83.037c0,0,6.414-15.136-5.106-23.19l-5.859,2.186C127.733,62.033,139.039,68.25,138.699,83.037z"
		/>
	<path fill="#D67411" d="M135.452,85.732c0,0,0.94-16.863-12.356-21.414l-5.028,3.722C118.068,68.04,131.69,71.43,135.452,85.732z"
		/>
	<path fill="#D67411" d="M132.314,90.044c0,0-3.477-16.869-17.275-19.548l-4.465,4.38C110.574,74.876,126.616,76.395,132.314,90.044
		z"/>
	<path fill="#D67411" d="M129.631,94.289c0,0-7.729-15.51-21.774-15l-3.363,5.273C104.494,84.563,120.996,82.279,129.631,94.289z"/>
	<path fill="#D67411" d="M128.896,99.624c0,0-11.883-13.727-25.447-10.044l-2.076,5.903
		C101.374,95.483,116.479,90.32,128.896,99.624z"/>
	<path fill="#D67411" d="M129.277,105.044c0,0-16.395-11.676-28.409-4.38l-0.358,6.247
		C100.51,106.911,110.742,97.575,129.277,105.044z"/>
	<path fill="#D67411" d="M131.452,110.358c0,0-20.235-8.789-29.947,1.37l1.269,6.125
		C102.774,117.852,109.825,106.416,131.452,110.358z"/>
	<path fill="#D67411" d="M133.854,114.677c0,0-22.361-4.609-29.933,7.229l2.426,5.767
		C106.347,127.674,112.113,115.035,133.854,114.677z"/>
	<path fill="#D67411" d="M136.258,117.448c0,0-22.52,1.03-28.237,13.87l3.261,5.339
		C111.282,136.657,114.199,123.808,136.258,117.448z"/>
	<path fill="#D67411" d="M140.021,120.375c0,0-23.462,6.173-25.821,20.027l4.479,4.364
		C118.679,144.767,120.581,128.308,140.021,120.375z"/>
	<path fill="#D67411" d="M144.457,122.004c0,0-22.219,10.918-22.191,24.972l5.156,3.541
		C127.422,150.517,126.361,136.261,144.457,122.004z"/>
	<path fill="#D67411" d="M147.814,123.137c0,0-19.056,16.382-16.3,30.164l5.748,2.473
		C137.263,155.773,133.36,142.618,147.814,123.137z"/>
	<path fill="#D67411" d="M152.239,123.137c0,0-15.781,21.073-10.189,33.964l6.139,1.21
		C148.188,158.311,141.455,145.48,152.239,123.137z"/>
	<path fill="#D67411" d="M156.508,123.137c0,0-12.144,23.131-4.606,34.996l6.252,0.234
		C158.153,158.367,148.957,148.064,156.508,123.137z"/>
	<path fill="#D67411" d="M161.393,122.004c0,0-7.509,25.887,1.903,36.324l6.203-0.811
		C169.499,157.518,159.256,147.512,161.393,122.004z"/>
	<path fill="#D67411" d="M165.546,120.375c0,0-1.908,26.836,8.806,35.933l6.039-1.627
		C180.391,154.681,168.105,147.987,165.546,120.375z"/>
	<path fill="#D67411" d="M169.499,118.392c0,0,3.114,28.236,15.756,34.376l5.444-3.079
		C190.699,149.689,176.647,145.699,169.499,118.392z"/>
	<path fill="#D67411" d="M172.528,115.932c0,0,8.823,27.493,22.269,31.58l4.896-3.895
		C199.692,143.617,185.649,141.505,172.528,115.932z"/>
	<path fill="#D67411" d="M175.273,112.366c0,0,14.388,25.637,28.145,28.512l4.53-4.313
		C207.948,136.564,191.98,135.172,175.273,112.366z"/>
	<path fill="#D67411" d="M177.562,109.009c0,0,19.33,23.237,33.38,23.478l3.64-5.089
		C214.582,127.398,200.445,129.604,177.562,109.009z"/>
	<path fill="#D67411" d="M179.239,105.299c0,0,23.381,20.636,37.312,18.779l2.841-5.574
		C219.392,118.503,205.635,124.195,179.239,105.299z"/>
	<path fill="#D67411" d="M180.1,101.916c0,0,26.675,16.705,40.372,13.552l2.305-5.814C222.776,109.654,208.99,115.864,180.1,101.916
		z"/>
	<path fill="#D67411" d="M181.149,97.927c0,0,29.272,13.107,42.42,8.144l1.503-6.071C225.072,100,211.737,108.633,181.149,97.927z"
		/>
	<path fill="#D67411" d="M181.427,93.83c0,0,31.112,9.449,43.432,2.683l0.633-6.223C225.491,90.29,212.423,100.618,181.427,93.83z"
		/>
	<path fill="#D67411" d="M181.149,89.253c0,0,33.018,5.63,44.381-2.645l-0.162-6.254C225.368,80.354,214.788,91.618,181.149,89.253z
		"/>
	<path fill="#D67411" d="M180.613,84.964c0,0,34.465,1.916,44.492-7.933l-1.077-6.163C224.028,70.869,213.795,84.066,180.613,84.964
		z"/>
	<path fill="#D67411" d="M179.165,80.708c0,0,34.903-2.171,44.097-12.801l-1.572-6.057
		C221.689,61.851,211.509,76.589,179.165,80.708z"/>
	<path fill="#D67411" d="M177.562,77.383c0,0,34.462-7.266,42.703-18.65l-2.092-5.897C218.174,52.836,207.948,69.424,177.562,77.383
		z"/>
	<path fill="#D67411" d="M176.152,74.416c0,0,33.544-12.136,40.36-24.429l-2.782-5.603C213.73,44.384,201.438,64.318,176.152,74.416
		z"/>
	<path fill="#D67411" d="M173.52,71.279c0,0,33.164-16.776,38.355-29.838l-3.474-5.203C208.401,36.238,200.753,55.994,173.52,71.279
		z"/>
	<path fill="#D67411" d="M171.231,68.237c0,0,31.15-20.982,34.977-34.507l-3.988-4.818C202.22,28.912,197.663,48.574,171.231,68.237
		z"/>
	<path fill="#D67411" d="M169.172,66.521c0,0,28.862-25.592,30.804-39.515l-4.61-4.227
		C195.365,22.779,193.817,41.233,169.172,66.521z"/>
	<path fill="#D67411" d="M166.742,65.111c0,0,25.525-29.965,26.392-43.994l-4.923-3.861
		C188.211,17.256,187.565,39.167,166.742,65.111z"/>
	<path fill="#D67411" d="M164.379,63.084c0,0,21.962-33.979,20.827-47.99l-5.418-3.123
		C179.788,11.971,182.278,28.912,164.379,63.084z"/>
	<path fill="#D67411" d="M161.702,61.851c0,0,16.979-37.928,13.886-51.639l-5.805-2.332C169.783,7.88,175.964,24.974,161.702,61.851
		z"/>
	<path fill="#D67411" d="M158.76,60.457c0,0,11.385-40.472,7.162-53.881l-5.98-1.838C159.941,4.737,166.861,21.749,158.76,60.457z"
		/>
	<path fill="#D67411" d="M155.67,59.595c0,0,6.078-42.595,0.213-55.369l-6.161-1.08C149.722,3.146,159.598,18.61,155.67,59.595z"/>
	<path fill="#D67411" d="M152.581,58.708c0,0,0.232-43.703-7.067-55.715l-6.246-0.36C139.268,2.633,150.486,15.571,152.581,58.708z"
		/>
	<path fill="#D67411" d="M148.232,58.053c0,0-4.635-44.591-13.322-55.64l-6.244,0.39C128.666,2.803,140.479,13.43,148.232,58.053z"
		/>
	<path fill="#D67411" d="M143.717,58.053c0,0-10.08-44.427-19.46-54.896l-6.207,0.794C118.05,3.951,131.309,16.29,143.717,58.053z"
		/>
	<path fill="#D67411" d="M138.448,58.708c0,0-9.208-34.98-24.613-53.687l-6.082,1.463C107.753,6.484,122.604,16.29,138.448,58.708z"
		/>
	<path fill="#D67411" d="M133.016,59.595c0,0-12.014-33.253-29.588-51.664l-5.888,2.113C97.54,10.044,113.449,18.693,133.016,59.595
		z"/>
	<path fill="#D67411" d="M128.045,61.028c0,0-16.656-35.928-34.331-49.309l-5.696,2.586
		C88.018,14.306,103.152,19.837,128.045,61.028z"/>
	<path fill="#D67411" d="M123.747,63.084c0,0-22.252-35.696-39.136-46.794l-5.37,3.215C79.241,19.505,94.626,24.461,123.747,63.084z
		"/>
	<path fill="#D67411" d="M119.17,65.719c0,0-18.422-27.918-43.333-43.971l-5.052,3.695C70.786,25.444,88.963,29.678,119.17,65.719z"
		/>
	<path fill="#D67411" d="M115.278,68.58c0,0-17.738-24.028-47.371-40.487l-4.71,4.119C63.197,32.212,81.756,34.254,115.278,68.58z"
		/>
	<path fill="#D67411" d="M112.077,71.44c0,0-21.512-23.913-51.436-36.299l-4.374,4.476C56.267,39.616,75.233,40.776,112.077,71.44z"
		/>
	<path fill="#D67411" d="M109.56,75.027c0,0-31.122-26.689-55.62-32.571l-3.867,4.92C50.074,47.376,70.199,46.154,109.56,75.027z"/>
	<path fill="#D67411" d="M107.043,78.674c0,0-29.58-23.265-58.535-28.33l-3.326,5.299C45.182,55.644,63.197,52.104,107.043,78.674z"
		/>
	<path fill="#D67411" d="M104.494,82.515c0,0-28.382-18.196-61.301-23.455L40.4,64.661C40.4,64.661,55.434,59.847,104.494,82.515z"
		/>
	<path fill="#D67411" d="M102.808,86.562c0,0-43.593-19.24-63.891-18.294l-2.188,5.861C36.73,74.129,50.074,69.381,102.808,86.562z"
		/>
	<path fill="#D67411" d="M101.374,90.549c0,0-36.668-13.151-65.627-13.393l-1.886,5.967C33.861,83.123,45.73,76.757,101.374,90.549z
		"/>
	<path fill="#D67411" d="M100.51,94.736c0,0-46.345-12.222-67.205-7.759l-1.115,6.156C32.19,93.133,50.784,85.344,100.51,94.736z"/>
	<path fill="#D67411" d="M100.51,99.624c0,0-43.47-8.989-68.757-2.792l-0.613,6.227C31.14,103.058,43.919,94.496,100.51,99.624z"/>
	<path fill="#D67411" d="M100.51,104.737c0,0-44.386-5.883-69.837,1.769l-0.174,6.254C30.499,112.76,42.049,103.325,100.51,104.737z
		"/>
	<path fill="#D67411" d="M100.51,109.789c0,0-43.316-2.814-69.967,6.555l0.358,6.245C30.901,122.588,48.198,111.402,100.51,109.789z
		"/>
	<path fill="#D67411" d="M101.374,114.501c0,0-43.112,0.762-70.232,11.794l0.742,6.214
		C31.884,132.51,47.227,119.611,101.374,114.501z"/>
	<path fill="#D67411" d="M102.774,117.852c0,0-42.849,5.285-70.414,18.069l1.095,6.159
		C33.455,142.08,46.491,128.074,102.774,117.852z"/>
	<path fill="#D67411" d="M102.774,122.004c0,0-45.886,8.82-68.284,23.563l1.669,6.027C36.16,151.595,49.962,136.771,102.774,122.004
		z"/>
	<path fill="#D67411" d="M104.334,125.486c0,0-39.304,9.452-66.857,29.381l2.001,5.928
		C39.478,160.795,50.377,144.31,104.334,125.486z"/>
	<path fill="#D67411" d="M106.165,128.918c0,0-39.907,13.162-65.257,35.367l2.397,5.778
		C43.306,170.063,55.765,150.137,106.165,128.918z"/>
	<path fill="#D67411" d="M108.021,132.51c0,0-45.336,20.259-62.799,40.979l2.877,5.552
		C48.099,179.041,58.438,159.443,108.021,132.51z"/>
	<path fill="#D67411" d="M109.979,135.783c0,0-41.346,22.584-60.017,46.774l3.318,5.301
		C53.281,187.858,64.059,164.372,109.979,135.783z"/>
	<path fill="#D67411" d="M111.961,138.681c0,0-39.209,26.778-56.653,51.779l3.589,5.123
		C58.897,195.583,68.633,172.627,111.961,138.681z"/>
	<path fill="#D67411" d="M114.861,142.08c0,0-42.565,32.378-53.849,56.146l3.937,4.86C64.949,203.086,76.621,174.305,114.861,142.08
		z"/>
	<path fill="#D67411" d="M118.887,145.699c0,0-44.389,41.813-51.442,59.522l4.429,4.417
		C71.875,209.639,74.499,190.39,118.887,145.699z"/>
	<path fill="#D67411" d="M123.403,149.489c0,0-40.427,39.765-48.905,62.503l4.647,4.186
		C79.146,216.178,83.935,192.066,123.403,149.489z"/>
	<path fill="#D67411" d="M128.045,151.595c0,0-38.815,43.988-45.904,66.971l4.951,3.82
		C87.091,222.386,89.384,199.747,128.045,151.595z"/>
	<path fill="#D67411" d="M131.948,153.487c0,0-36.462,49.599-41.83,70.733l5.212,3.46C95.33,227.681,97.744,203.832,131.948,153.487
		z"/>
	<path fill="#D67411" d="M135.758,155.126c0,0-32.033,46.741-37.061,74.367l5.519,2.939
		C104.216,232.433,101.894,212.198,135.758,155.126z"/>
	<path fill="#D67411" d="M140.021,157.677c0,0-32,56.753-32.346,76.062l5.742,2.479
		C113.417,236.217,112.878,211.849,140.021,157.677z"/>
	<path fill="#D67411" d="M144.457,158.367c0,0-26.088,52.095-27.391,79.537l5.92,2.021
		C122.986,239.925,119.895,216.178,144.457,158.367z"/>
	<path fill="#D67411" d="M148.729,159.2c0,0-22.756,55.228-22.248,81.462l6.016,1.724C132.496,242.386,126.91,222.386,148.729,159.2
		z"/>
	<path fill="#D67411" d="M153.793,159.2c0,0-20.479,62.593-17.803,85.128l5.865,1.346
		C141.855,245.674,136.371,220.725,153.793,159.2z"/>
</g>
<g>
</g>
<g>
</g>
<g>
</g>
<g>
</g>
<g>
</g>
<g>
</g>
</svg>
