<?xml version="1.0" encoding="utf-8"?>
<!-- Generator: Adobe Illustrator 16.0.0, SVG Export Plug-In . SVG Version: 6.00 Build 0)  -->
<!DOCTYPE svg PUBLIC "-//W3C//DTD SVG 1.1//EN" "http://www.w3.org/Graphics/SVG/1.1/DTD/svg11.dtd">
<svg version="1.1" id="Calque_1" xmlns="http://www.w3.org/2000/svg" xmlns:xlink="http://www.w3.org/1999/xlink" x="0px" y="0px"
	 width="250px" height="250px" viewBox="0 0 250 250" enable-background="new 0 0 250 250" xml:space="preserve">
<g>
	<path fill="#D67411" d="M134.305,242.75c-34.575-6.462-64.561-25.997-84.437-55.015c-19.877-29.016-27.266-64.037-20.803-98.61
		C39.755,31.934,94.985-5.899,152.177,4.792c45.849,8.569,76.184,52.846,67.611,98.699c-6.877,36.777-42.39,61.107-79.171,54.234
		c-29.52-5.521-49.049-34.026-43.532-63.547c4.436-23.714,27.342-39.392,51.049-34.968c9.237,1.727,17.25,6.948,22.561,14.7
		c5.312,7.752,7.284,17.11,5.561,26.347c-1.391,7.438-5.596,13.889-11.837,18.165s-13.776,5.87-21.212,4.476
		c-5.998-1.122-11.202-4.511-14.648-9.543c-3.448-5.035-4.729-11.108-3.609-17.106c0.907-4.845,3.644-9.045,7.71-11.833
		c4.066-2.787,8.979-3.82,13.819-2.915l-0.332,1.771c-4.37-0.821-8.799,0.117-12.47,2.629c-3.668,2.514-6.139,6.306-6.954,10.679
		c-1.035,5.522,0.146,11.119,3.321,15.755c3.174,4.635,7.968,7.756,13.49,8.791c6.964,1.303,14.021-0.186,19.864-4.191
		c5.847-4.003,9.781-10.045,11.08-17.009c3.384-18.094-8.583-35.563-26.677-38.944c-22.729-4.25-44.693,10.79-48.943,33.528
		c-5.334,28.545,13.545,56.106,42.09,61.443c35.802,6.697,70.375-16.991,77.066-52.795c8.39-44.877-21.295-88.208-66.17-96.595
		C95.637-3.948,41.345,33.24,30.836,89.456c-6.374,34.101,0.911,68.642,20.517,97.261c19.604,28.618,49.183,47.889,83.282,54.264
		L134.305,242.75z"/>
	<circle fill="#D67411" cx="149.11" cy="92.924" r="5.817"/>
	<path fill="#D67411" d="M146.506,96.899c0,0-17.563,4.892-15.048,19.15l6.183,3.304
		C137.641,119.354,134.709,105.925,146.506,96.899z"/>
	<path fill="#D67411" d="M145.286,91.348c0,0-9.51-8.058-18.872-0.008l-0.272,7.151C126.142,98.491,132.875,88.458,145.286,91.348z"
		/>
	<path fill="#D67411" d="M150.375,87.802c0,0,0.838-4.404-4.043-6.255l-5.438,1.149C140.894,82.697,147.417,81.109,150.375,87.802z"
		/>
	<path fill="#D67411" d="M150.695,97.863c0,0-8.192,16.618,4.308,24.25l6.794-2.429C161.797,119.684,149.273,112.724,150.695,97.863
		z"/>
	<path fill="#D67411" d="M153.154,94.664c0,0,9.186,12.885,22.16,6.294l1.053-6.812C176.367,94.146,165.15,103.474,153.154,94.664z"
		/>
	<path fill="#D67411" d="M151.404,87.733c0,0,15.048,2.733,19.817-10.6l-3.675-5.475C167.547,71.658,165.854,85,151.404,87.733z"/>
	<path fill="#D67411" d="M144.229,81.966c0,0,13.926-8.36,6.989-21.035l-6.879-1.118C144.34,59.814,152.436,69.603,144.229,81.966z"
		/>
	<path fill="#D67411" d="M131.857,85.647c0,0,2.637-17.866-11.718-21.409l-5.939,4.4C114.201,68.639,129.025,70.924,131.857,85.647z
		"/>
	<path fill="#D67411" d="M125.257,104.659c0,0-15.958-14.55-27.921-5.091l-0.454,7.934
		C96.881,107.501,107.114,95.483,125.257,104.659z"/>
	<path fill="#D67411" d="M136.041,120.381c0,0-25.607,3.632-26.328,18.826l5.667,5.518
		C115.38,144.725,115.22,126.549,136.041,120.381z"/>
	<path fill="#D67411" d="M153.729,122.935c0,0-15.052,22.653-5.443,34.413l7.872,0.296
		C156.158,157.644,144.478,147.403,153.729,122.935z"/>
	<path fill="#D67411" d="M169.67,113.79c0,0,4.374,31,21.565,31.873l7.928-6.305C199.163,139.358,179.77,141.201,169.67,113.79z"/>
	<path fill="#D67411" d="M175.622,101.071c0,0,25.214,19.077,40.155,12.292l3.408-8.607
		C219.186,104.756,203.633,115.877,175.622,101.071z"/>
	<path fill="#D67411" d="M175.51,83.831c0,0,34.508,5.222,43.781-7.867l-1.523-8.731C217.768,67.232,208.532,85.01,175.51,83.831z"
		/>
	<path fill="#D67411" d="M168.511,71.416c0,0,33.619-15.05,36.988-30.513l-4.786-7.164
		C200.713,33.739,195.845,57.164,168.511,71.416z"/>
	<path fill="#D67411" d="M159.686,63.703c0,0,22.463-32.961,18.096-48.625l-7.883-4.541
		C169.898,10.537,176.677,29.703,159.686,63.703z"/>
	<path fill="#D67411" d="M150.429,59.719c0,0,0.133-43.163-10.891-55.208l-9.164-0.525C130.374,3.985,146.179,17.133,150.429,59.719
		z"/>
	<path fill="#D67411" d="M134.695,58.244c0,0-11.862-32.72-37.073-47.995l-10.596,3.808
		C87.026,14.056,111.933,19.243,134.695,58.244z"/>
	<path fill="#D67411" d="M115.581,65.558c0,0-15.978-24.945-52.009-35.146l-8.38,7.329C55.192,37.741,81.014,33.143,115.581,65.558z
		"/>
	<path fill="#D67411" d="M102.722,79.108c0,0-26.511-20.788-62.834-18.09l-5.21,10.46C34.677,71.479,53.806,58.041,102.722,79.108z"
		/>
	<path fill="#D67411" d="M97.174,97.103c0,0-42.359-13.247-68.041,0.91l-1.175,11.973C27.958,109.986,41.432,92.44,97.174,97.103z"
		/>
	<path fill="#D67411" d="M98.454,113.79c0,0-42.701,2.281-68.088,24.656l2.485,13.968C32.851,152.414,43.097,124.096,98.454,113.79z
		"/>
	<path fill="#D67411" d="M103.024,129.618c0,0-45.529,18.204-59.49,44.827l4.785,9.222
		C48.319,183.667,54.554,156.78,103.024,129.618z"/>
	<path fill="#D67411" d="M113.146,143.228c0,0-44.774,40.082-47.561,61.657l7.827,7.802
		C73.412,212.687,69.496,187.264,113.146,143.228z"/>
	<path fill="#D67411" d="M130.87,153.964c0,0-37.376,42.906-34.469,74.273l11.197,5.957
		C107.598,234.194,94.671,208.624,130.87,153.964z"/>
	<path fill="#D67411" d="M149.862,158.474c0,0-26.651,60.269-17.671,83.766l11.084,2.423
		C143.275,244.662,128.67,218.196,149.862,158.474z"/>
</g>
<g>
</g>
<g>
</g>
<g>
</g>
<g>
</g>
<g>
</g>
<g>
</g>
</svg>
