<?xml version="1.0" encoding="utf-8"?>
<!-- Generator: Adobe Illustrator 16.0.0, SVG Export Plug-In . SVG Version: 6.00 Build 0)  -->
<!DOCTYPE svg PUBLIC "-//W3C//DTD SVG 1.1//EN" "http://www.w3.org/Graphics/SVG/1.1/DTD/svg11.dtd">
<svg version="1.1" id="Calque_1" xmlns="http://www.w3.org/2000/svg" xmlns:xlink="http://www.w3.org/1999/xlink" x="0px" y="0px"
	 width="330px" height="330px" viewBox="0 0 330 330" enable-background="new 0 0 330 330" xml:space="preserve">
<g>
	<circle fill="#D67411" cx="199.139" cy="126.536" r="4.989"/>
	<path fill="#D67411" d="M194.803,132.337c0,0-22.692,6.322-19.44,24.743l7.986,4.264
		C183.349,161.343,179.562,143.997,194.803,132.337z"/>
	<path fill="#D67411" d="M193.225,125.162c0,0-12.285-10.407-24.377-0.008l-0.353,9.239
		C168.495,134.393,177.192,121.429,193.225,125.162z"/>
	<path fill="#D67411" d="M199.803,120.583c0,0,1.083-5.687-5.224-8.083l-7.025,1.489
		C187.554,113.989,195.981,111.937,199.803,120.583z"/>
	<path fill="#D67411" d="M198.68,133.582c0,0-10.585,21.467,5.562,31.329l8.781-3.138
		C213.023,161.773,196.843,152.781,198.68,133.582z"/>
	<path fill="#D67411" d="M203.711,130.586c0,0,5.123,19.788,23.82,17.837l4.419-7.727
		C231.95,140.696,214.108,146.759,203.711,130.586z"/>
	<path fill="#D67411" d="M202.458,121.348c0,0,16.612,10.697,28.892-2.864l-1.685-8.349
		C229.666,110.135,221.055,125.225,202.458,121.348z"/>
	<path fill="#D67411" d="M197.333,114.996c0,0,18.812-2.541,19-20.939l-6.875-5.271C209.458,88.786,213.991,105.756,197.333,114.996
		z"/>
	<path fill="#D67411" d="M186.946,112.439c0,0,14.315-15.339,1.189-28.605l-8.944,1.06
		C179.192,84.894,192.732,94.167,186.946,112.439z"/>
	<path fill="#D67411" d="M175.878,117.801c0,0,3.407-23.084-15.138-27.66l-7.676,5.684
		C153.064,95.825,172.22,98.779,175.878,117.801z"/>
	<path fill="#D67411" d="M168.817,127.967c0,0-7.795-22.918-27.472-19.417l-5.699,8.941
		C135.646,117.491,159.088,110.727,168.817,127.967z"/>
	<path fill="#D67411" d="M167.349,142.363c0,0-20.616-18.8-36.067-6.579l-0.589,10.25
		C130.692,146.035,143.912,130.507,167.349,142.363z"/>
	<path fill="#D67411" d="M172.964,154.709c0,0-30.208-10.057-38.745,7.587l3.941,9.365
		C138.16,171.662,144.207,152.532,172.964,154.709z"/>
	<path fill="#D67411" d="M181.283,162.672c0,0-33.082,4.693-34.012,24.321l7.32,7.13
		C154.591,194.123,154.383,170.64,181.283,162.672z"/>
	<path fill="#D67411" d="M192.318,166.501c0,0-26.872,19.699-21.463,38.046l8.807,3.786
		C179.662,208.334,172.601,190.703,192.318,166.501z"/>
	<path fill="#D67411" d="M204.133,165.973c0,0-19.445,29.266-7.031,44.458l10.171,0.384
		C207.273,210.814,192.181,197.583,204.133,165.973z"/>
	<path fill="#D67411" d="M214.367,161.343c0,0-6.194,35.933,12.315,46.175l11.516-3.102
		C238.198,204.416,214.721,197.243,214.367,161.343z"/>
	<path fill="#D67411" d="M224.727,154.158c0,0,5.656,40.049,27.866,41.177l10.24-8.146
		C262.833,187.189,237.779,189.572,224.727,154.158z"/>
	<path fill="#D67411" d="M230.133,145.951c0,0,21.326,34.111,42.58,29.677l7.285-10.186
		C279.999,165.442,257.768,174.195,230.133,145.951z"/>
	<path fill="#D67411" d="M232.417,137.724c0,0,32.574,24.651,51.876,15.883l4.406-11.122
		C288.7,142.485,268.607,156.854,232.417,137.724z"/>
	<path fill="#D67411" d="M233.779,127.252c0,0,39.193,15.685,55.333,2.406l1.176-11.583
		C290.288,118.075,272.98,138.011,233.779,127.252z"/>
	<path fill="#D67411" d="M232.272,115.456c0,0,44.582,6.746,56.564-10.166l-1.971-11.279
		C286.866,94.011,274.936,116.975,232.272,115.456z"/>
	<path fill="#D67411" d="M228.418,106.839c0,0,44.877-6.27,53.564-25.804l-4.068-11.465
		C277.915,69.57,267.66,98.408,228.418,106.839z"/>
	<path fill="#D67411" d="M223.23,99.415c0,0,43.437-19.444,47.786-39.421l-6.182-9.255C264.834,50.739,258.545,80.999,223.23,99.415
		z"/>
	<path fill="#D67411" d="M217.571,93.452c0,0,38.637-30.78,37.247-52.017l-8.888-8.146C245.93,33.29,249.439,61.776,217.571,93.452z
		"/>
	<path fill="#D67411" d="M211.832,89.45c0,0,29.02-42.583,23.376-62.82l-10.181-5.868C225.026,20.762,233.779,45.525,211.832,89.45z
		"/>
	<path fill="#D67411" d="M207.591,87.034c0,0,13.744-51.691,2.554-70.536l-12.176-3.739
		C197.969,12.759,215.244,36.997,207.591,87.034z"/>
	<path fill="#D67411" d="M199.874,84.305c0,0,0.168-55.766-14.074-71.326l-11.837-0.68
		C173.963,12.299,194.381,29.285,199.874,84.305z"/>
	<path fill="#D67411" d="M190.651,82.243c0,0-14.117-56.084-31.949-68.645l-12.529,1.604
		C146.173,15.202,169.684,29.797,190.651,82.243z"/>
	<path fill="#D67411" d="M179.545,82.397c0,0-15.326-42.272-47.897-62.007l-13.688,4.918
		C117.959,25.309,150.137,32.011,179.545,82.397z"/>
	<path fill="#D67411" d="M165.898,86.16c0,0-28.913-45.023-57.677-54.767l-12.023,7.201C96.197,38.593,124.606,39.596,165.898,86.16
		z"/>
	<path fill="#D67411" d="M154.851,91.846c0,0-20.645-32.229-67.19-45.408l-10.827,9.47C76.833,55.908,110.192,49.967,154.851,91.846
		z"/>
	<path fill="#D67411" d="M145.228,100.916c0,0-38.522-35.288-75.969-34.756l-8.665,11.03
		C60.595,77.189,94.21,65.421,145.228,100.916z"/>
	<path fill="#D67411" d="M138.238,109.35c0,0-34.251-26.853-81.178-23.367L50.33,99.494C50.33,99.494,75.044,82.133,138.238,109.35z
		"/>
	<path fill="#D67411" d="M133.683,118.593c0,0-46.048-18.567-86.138-8.532l-4.805,15.22
		C42.74,125.281,61.54,105.428,133.683,118.593z"/>
	<path fill="#D67411" d="M131.068,132.599c0,0-54.722-17.113-87.901,1.176l-1.517,15.466
		C41.65,149.241,59.058,126.574,131.068,132.599z"/>
	<path fill="#D67411" d="M130.61,146.764c0,0-55.416-9.32-88.815,11.053l0.844,14.709C42.639,172.526,64.002,147.295,130.61,146.764
		z"/>
	<path fill="#D67411" d="M132.725,154.158c0,0-55.167,2.947-87.967,31.854l3.211,18.045
		C47.969,204.058,61.207,167.474,132.725,154.158z"/>
	<path fill="#D67411" d="M134.768,166.42c0,0-51.084,8.758-83.083,43.088l4.436,13.128C56.12,222.636,66.314,190.833,134.768,166.42
		z"/>
	<path fill="#D67411" d="M138.629,174.606c0,0-58.821,23.518-76.858,57.914l6.182,11.914
		C67.953,244.434,76.01,209.701,138.629,174.606z"/>
	<path fill="#D67411" d="M143.75,183.446c0,0-50.106,33.702-67.851,71.833l7.219,10.303
		C83.117,265.582,89.891,228.389,143.75,183.446z"/>
	<path fill="#D67411" d="M151.705,192.189c0,0-57.845,51.785-61.443,79.656l10.113,10.077
		C100.375,281.922,95.313,249.079,151.705,192.189z"/>
	<path fill="#D67411" d="M163.291,200.183c0,0-52.573,53.459-54.639,88.048l11.47,8.843
		C120.122,297.074,113.114,260.637,163.291,200.183z"/>
	<path fill="#D67411" d="M174.603,206.06c0,0-48.289,55.429-44.534,95.955l14.468,7.696
		C144.537,309.711,127.836,276.672,174.603,206.06z"/>
	<path fill="#D67411" d="M187.022,210.827c0,0-44.224,62.487-35.27,100.999l16.256,5.539
		C168.009,317.365,149.324,282.146,187.022,210.827z"/>
	<path fill="#D67411" d="M199.138,211.883c0,0-34.432,77.864-22.827,108.22l14.317,3.131
		C190.628,323.234,171.76,289.042,199.138,211.883z"/>
</g>
<g>
</g>
<g>
</g>
<g>
</g>
<g>
</g>
<g>
</g>
<g>
</g>
</svg>
