<?xml version="1.0" encoding="utf-8"?>
<!-- Generator: Adobe Illustrator 16.0.0, SVG Export Plug-In . SVG Version: 6.00 Build 0)  -->
<!DOCTYPE svg PUBLIC "-//W3C//DTD SVG 1.1//EN" "http://www.w3.org/Graphics/SVG/1.1/DTD/svg11.dtd">
<svg version="1.1" id="Calque_1" xmlns="http://www.w3.org/2000/svg" xmlns:xlink="http://www.w3.org/1999/xlink" x="0px" y="0px"
	 width="497.783px" height="250px" viewBox="0 0 497.783 250" enable-background="new 0 0 497.783 250" xml:space="preserve">
<g>
	<path d="M166.615,95.081v11.692h-11.843l-27.518-44.351v36.287c0,4.706,2.688,7.056,8.063,7.056v1.008h-17.135v-1.008
		c5.375,0,8.064-2.35,8.064-7.056V62.422c0-4.704-2.688-7.056-8.064-7.056v-1.008h22.871l24.554,39.289V62.476
		c0-4.739-2.688-7.109-8.063-7.109v-1.008h17.136v1.008c-5.376,0-8.064,2.352-8.064,7.056V95.081z"/>
	<path d="M203.306,107.277c-9.071,0-16.026-2.318-20.865-6.955c-4.838-4.637-7.257-11.221-7.257-19.756
		c0-8.534,2.452-15.12,7.358-19.756c4.905-4.636,11.894-6.955,20.965-6.955c3.226,0,5.998,0.437,8.316,1.31
		c2.15,0.84,4.107,1.26,5.871,1.26s2.747-0.521,2.948-1.562h1.008l0.907,14.212h-1.008c-0.269-2.52-1.395-5.242-3.377-8.165
		c-1.176-1.713-3.04-3.148-5.594-4.308s-5.577-1.74-9.072-1.74c-5.846,0-9.407,2.218-10.684,6.652
		c-1.009,3.562-1.513,9.912-1.513,19.051c0,10.685,0.504,17.135,1.513,19.353c1.881,4.233,5.375,6.35,10.482,6.35
		c1.512,0,3.083-0.604,4.712-1.814c1.63-1.209,2.444-3.125,2.444-5.745V88.63c0-4.704-2.688-7.056-8.063-7.056v-1.008h30.239v1.008
		c-5.376,0-8.063,2.352-8.063,7.056v7.761c-3.629,4.166-7.526,7.156-11.692,8.971C209.992,106.64,206.8,107.277,203.306,107.277z"/>
	<path d="M233.142,54.359h52.414v15.12h-1.008c-0.604-9.406-4.805-14.112-12.6-14.112h-14.615v23.688h4.938
		c4.704,0,7.056-2.688,7.056-8.064h1.009v17.135h-1.009c0-5.374-2.352-8.063-7.056-8.063h-4.938v25.703h15.623
		c7.795,0,11.995-4.704,12.6-14.111h1.008v15.119h-53.422v-1.008c5.174,0,7.862-2.048,8.063-6.148V62.422
		c0-4.704-2.688-7.056-8.063-7.056V54.359z"/>
	<path d="M329.377,105.765c7.776,0,11.968-4.704,12.574-14.111h1.008v15.119h-51.355v-1.008c4.968,0,7.655-1.781,8.063-5.342v-38
		c0-4.704-2.722-7.056-8.164-7.056v-1.008h32.355v1.008c-5.376,0-8.063,2.352-8.063,7.056v43.343H329.377z"/>
	<path d="M348.05,54.359h32.255v1.008c-5.376,0-8.063,2.352-8.063,7.056v36.287c0,4.706,2.688,7.056,8.063,7.056v1.008H348.05
		v-1.008c5.376,0,8.063-2.35,8.063-7.056V62.422c0-4.704-2.688-7.056-8.063-7.056V54.359z"/>
	<path d="M432.77,95.081v11.692h-11.844l-27.518-44.351v36.287c0,4.706,2.688,7.056,8.063,7.056v1.008h-17.135v-1.008
		c5.375,0,8.063-2.35,8.063-7.056V62.422c0-4.704-2.688-7.056-8.063-7.056v-1.008h22.869l24.556,39.289V62.476
		c0-4.739-2.688-7.109-8.064-7.109v-1.008h17.136v1.008c-5.376,0-8.063,2.352-8.063,7.056V95.081z"/>
	<path d="M444.361,54.359h52.414v15.12h-1.008c-0.605-9.406-4.805-14.112-12.6-14.112h-14.616v23.688h4.939
		c4.704,0,7.056-2.688,7.056-8.064h1.008v17.135h-1.008c0-5.374-2.352-8.063-7.056-8.063h-4.939v25.703h15.624
		c7.795,0,11.995-4.704,12.6-14.111h1.008v15.119h-53.422v-1.008c5.174,0,7.861-2.048,8.063-6.148V62.422
		c0-4.704-2.688-7.056-8.063-7.056V54.359z"/>
</g>
<linearGradient id="SVGID_1_" gradientUnits="userSpaceOnUse" x1="98.2993" y1="0" x2="98.2993" y2="249.4087">
	<stop  offset="0.0736" style="stop-color:#E6007E"/>
	<stop  offset="0.1096" style="stop-color:#E60E7F"/>
	<stop  offset="0.1675" style="stop-color:#E83A82"/>
	<stop  offset="0.2401" style="stop-color:#ED6784"/>
	<stop  offset="0.3247" style="stop-color:#F3977C"/>
	<stop  offset="0.418" style="stop-color:#FDC751"/>
	<stop  offset="0.4969" style="stop-color:#FFED00"/>
	<stop  offset="0.5018" style="stop-color:#FFEC00"/>
	<stop  offset="0.593" style="stop-color:#C3D76E"/>
	<stop  offset="0.6785" style="stop-color:#7BC3A4"/>
	<stop  offset="0.7557" style="stop-color:#00B3C4"/>
	<stop  offset="0.8232" style="stop-color:#00A8D6"/>
	<stop  offset="0.8783" style="stop-color:#00A1E0"/>
	<stop  offset="0.9141" style="stop-color:#009FE3"/>
</linearGradient>
<path fill="url(#SVGID_1_)" d="M165.023,123.749v1.848c8.656,0,12.985,2.206,12.985,6.616c0,1.323-0.201,3.147-0.604,5.479
	l-29.789,91.193l-29.599-91.412c-1.962-6.182-3.494-10.014-4.598-11.497c-0.081-0.121-0.183-0.207-0.269-0.317h13.507v-1.848
	c-8.871,0-14.66-4.187-17.372-12.562L77.501,13.677C74.544,4.56,70.416,0,65.12,0H29.458v1.848c8.5,0,14.229,4.189,17.186,12.565
	l1.566,4.808l-30.024,92.024c-2.711,8.379-8.44,12.566-17.186,12.566v1.848h31.284v-1.848c-8.94,0-13.411-2.162-13.411-6.491
	c0-1.482,0.341-3.276,1.03-5.379l8.282-25.088h42.059l8.186,25.132c0.739,2.281,1.109,4.129,1.109,5.544
	c0,4.189-4.005,6.283-12.012,6.283v1.848h4.175c7.869,0.53,13.011,4.697,15.422,12.504l32.895,100.251
	c2.402,7.332,6.221,10.994,11.458,10.994h11.548l6.006-18.92l29.384-92.325c2.71-8.376,8.438-12.566,17.186-12.566v-1.848H165.023z
	 M28.593,85.004l20.636-62.951l20.413,62.951H28.593z"/>
<g>
	<path d="M210.858,195.027c-9.071,0-16.06-2.318-20.966-6.955c-4.838-4.637-7.257-11.222-7.257-19.756
		c0-8.467,2.452-15.053,7.358-19.757c4.905-4.636,11.86-6.954,20.864-6.954c9.005,0,15.96,2.318,20.865,6.954
		c4.905,4.704,7.358,11.29,7.358,19.757c0,8.534-2.419,15.119-7.258,19.756C226.919,192.709,219.931,195.027,210.858,195.027z
		 M210.858,194.02c5.107,0,8.4-1.781,9.878-5.343c1.479-3.628,2.218-10.415,2.218-20.36s-0.739-16.732-2.218-20.361
		c-1.478-3.562-4.771-5.342-9.878-5.342c-5.778,0-9.307,2.217-10.583,6.652c-1.008,3.562-1.513,9.912-1.513,19.051
		s0.505,15.489,1.513,19.051C201.552,191.802,205.08,194.02,210.858,194.02z"/>
	<path d="M279.404,193.516c7.793,0,11.991-4.704,12.596-14.111h1.008v15.119h-53.926v-1.008c1.411,0,3.695-2.285,6.854-6.854
		l21.976-37.093c0.672-1.143,1.008-2.252,1.008-3.326c0-2.084-2.318-3.125-6.955-3.125h-7.257c-7.797,0-11.996,4.704-12.602,14.111
		h-1.008v-15.119h51.91v1.008c-0.571,0-1.695,0.672-3.371,2.016c-0.471,0.37-1.546,1.984-3.223,4.842l-21.976,37.093
		c-0.604,1.009-0.907,2.117-0.907,3.325c0,2.081,2.285,3.123,6.854,3.123H279.404z"/>
	<path d="M337.362,193.516c7.793,0,11.991-4.704,12.596-14.111h1.008v15.119H297.04v-1.008c1.411,0,3.695-2.285,6.854-6.854
		l21.975-37.093c0.672-1.143,1.008-2.252,1.008-3.326c0-2.084-2.318-3.125-6.954-3.125h-7.258c-7.797,0-11.996,4.704-12.602,14.111
		h-1.008v-15.119h51.91v1.008c-0.571,0-1.694,0.672-3.371,2.016c-0.471,0.37-1.546,1.984-3.223,4.842l-21.976,37.093
		c-0.604,1.009-0.906,2.117-0.906,3.325c0,2.081,2.284,3.123,6.854,3.123H337.362z"/>
	<path d="M375.864,148.308c-1.747-3.46-4.637-5.19-8.668-5.19v-1.008h19.467c2.893,0,5.146,2.482,6.762,7.452l12.07,37.1
		c1.479,4.569,4.637,6.854,9.476,6.854v1.008h-32.252v-1.008c4.368,0,6.552-1.143,6.552-3.428c0-0.772-0.201-1.78-0.604-3.023
		l-4.461-13.708h-15.39l-4.514,13.685c-0.375,1.246-0.562,2.224-0.562,2.933c0,2.362,2.438,3.542,7.314,3.542v1.008h-17.063v-1.008
		c4.771,0,7.896-2.285,9.375-6.854L375.864,148.308z M383.878,172.348l-7.4-22.408l-0.052-0.101l-7.335,22.509H383.878z"/>
</g>
<g>
	<path d="M192.663,215.765c0.104,0.079,0.165,0.17,0.18,0.269c0.012,0.098-0.015,0.202-0.08,0.308
		c-0.067,0.094-0.149,0.143-0.249,0.149c-0.101,0.007-0.195-0.017-0.287-0.068c-0.558-0.385-1.164-0.689-1.821-0.916
		c-0.655-0.226-1.354-0.34-2.097-0.34c-0.849,0-1.641,0.158-2.377,0.469c-0.734,0.312-1.381,0.753-1.938,1.323
		c-0.557,0.571-0.993,1.243-1.312,2.029c-0.317,0.779-0.477,1.644-0.477,2.584s0.159,1.801,0.477,2.584
		c0.319,0.782,0.756,1.458,1.312,2.029c0.558,0.567,1.204,1.011,1.938,1.32c0.736,0.312,1.528,0.467,2.377,0.467
		c0.743,0,1.438-0.114,2.087-0.336c0.65-0.225,1.253-0.524,1.81-0.896c0.094-0.067,0.192-0.091,0.299-0.078
		c0.105,0.011,0.191,0.064,0.259,0.158c0.065,0.094,0.092,0.191,0.08,0.299c-0.015,0.104-0.068,0.191-0.161,0.259
		c-0.315,0.226-0.717,0.443-1.201,0.655c-0.483,0.212-0.999,0.38-1.54,0.508c-0.545,0.124-1.087,0.188-1.632,0.188
		c-0.954,0-1.85-0.178-2.685-0.537c-0.835-0.356-1.57-0.856-2.207-1.502c-0.635-0.642-1.136-1.397-1.5-2.265
		c-0.365-0.87-0.548-1.821-0.548-2.853c0-1.035,0.183-1.985,0.548-2.853c0.364-0.87,0.865-1.626,1.5-2.269
		c0.637-0.642,1.372-1.145,2.207-1.502c0.835-0.356,1.73-0.534,2.685-0.534c0.809,0,1.588,0.117,2.337,0.355
		C191.394,215.009,192.065,215.341,192.663,215.765z"/>
	<path d="M195.944,228.529c-0.133,0-0.235-0.04-0.31-0.121c-0.072-0.077-0.107-0.171-0.107-0.278v-13.121
		c0-0.106,0.039-0.198,0.119-0.279c0.079-0.079,0.172-0.119,0.279-0.119h5.248c0.781,0,1.469,0.158,2.057,0.467
		c0.591,0.312,1.051,0.741,1.382,1.284s0.498,1.161,0.498,1.85c0,0.608-0.109,1.159-0.328,1.65c-0.219,0.49-0.524,0.896-0.914,1.223
		c-0.392,0.322-0.84,0.558-1.344,0.706l-0.914-0.162c0.529,0,1.035,0.139,1.513,0.41c0.477,0.272,0.866,0.669,1.172,1.193
		c0.305,0.523,0.457,1.162,0.457,1.918c0,0.648,0.03,1.143,0.091,1.479c0.059,0.339,0.138,0.588,0.237,0.749
		c0.101,0.158,0.215,0.286,0.348,0.377c0.079,0.054,0.139,0.117,0.18,0.198c0.038,0.08,0.045,0.171,0.02,0.278
		c-0.026,0.081-0.07,0.145-0.129,0.188c-0.061,0.047-0.124,0.077-0.189,0.091c-0.067,0.013-0.14,0-0.219-0.041
		c-0.185-0.104-0.368-0.265-0.548-0.477c-0.178-0.212-0.326-0.538-0.445-0.975c-0.121-0.437-0.18-1.059-0.18-1.868
		c0-0.625-0.096-1.119-0.289-1.491c-0.191-0.37-0.437-0.655-0.733-0.854c-0.3-0.202-0.617-0.333-0.955-0.4
		c-0.339-0.067-0.648-0.098-0.925-0.098h-4.832l0.18-0.241v6.064c0,0.107-0.04,0.201-0.121,0.278
		C196.162,228.489,196.063,228.529,195.944,228.529z M196.162,221.511h5.11c0.531-0.054,1.021-0.212,1.471-0.478
		c0.451-0.265,0.819-0.638,1.104-1.115c0.285-0.477,0.429-1.038,0.429-1.687c0-0.81-0.289-1.484-0.865-2.019
		c-0.576-0.537-1.356-0.807-2.337-0.807h-4.812l0.101-0.139v6.462L196.162,221.511z"/>
	<path d="M209.127,214.61h7.494c0.107,0,0.2,0.04,0.278,0.119c0.079,0.081,0.12,0.173,0.12,0.279c0,0.119-0.041,0.215-0.12,0.289
		c-0.078,0.072-0.171,0.108-0.278,0.108h-7.256l0.198-0.337v6.163l-0.24-0.279h6.404c0.105,0,0.198,0.04,0.276,0.121
		c0.081,0.077,0.121,0.171,0.121,0.278c0,0.118-0.04,0.216-0.121,0.286c-0.078,0.074-0.171,0.11-0.276,0.11h-6.362l0.198-0.218
		v6.303l-0.079-0.101h7.137c0.107,0,0.2,0.04,0.278,0.121c0.079,0.077,0.12,0.171,0.12,0.275c0,0.121-0.041,0.215-0.12,0.289
		c-0.078,0.073-0.171,0.11-0.278,0.11h-7.494c-0.107,0-0.2-0.04-0.279-0.121c-0.08-0.077-0.119-0.171-0.119-0.278v-13.121
		c0-0.106,0.039-0.198,0.119-0.279C208.927,214.65,209.02,214.61,209.127,214.61z M213.223,213.658c-0.095,0-0.156-0.029-0.19-0.081
		c-0.031-0.052-0.05-0.105-0.05-0.159c0-0.065,0.019-0.123,0.05-0.168c0.034-0.047,0.076-0.091,0.13-0.13l1.789-1.332
		c0.054-0.04,0.117-0.077,0.189-0.109c0.072-0.031,0.156-0.05,0.247-0.05c0.161,0,0.275,0.05,0.35,0.149
		c0.072,0.099,0.109,0.208,0.109,0.327s-0.022,0.215-0.069,0.289c-0.047,0.072-0.117,0.135-0.21,0.188l-1.929,0.936
		c-0.052,0.025-0.115,0.057-0.188,0.089C213.377,213.64,213.302,213.658,213.223,213.658z"/>
	<path d="M224.515,215.625l-5.031,12.646c-0.025,0.078-0.072,0.142-0.14,0.188c-0.065,0.047-0.139,0.07-0.218,0.07
		c-0.133,0-0.23-0.033-0.298-0.101c-0.065-0.063-0.105-0.145-0.119-0.238c-0.014-0.054-0.007-0.118,0.019-0.198l5.351-13.162
		c0.039-0.105,0.089-0.176,0.147-0.208c0.061-0.033,0.137-0.05,0.229-0.05c0.108,0,0.193,0.021,0.259,0.068
		c0.067,0.047,0.114,0.109,0.14,0.189l5.349,13.162c0.014,0.04,0.021,0.094,0.021,0.161c0,0.117-0.04,0.212-0.121,0.275
		c-0.079,0.067-0.178,0.101-0.297,0.101c-0.095,0-0.177-0.023-0.249-0.07s-0.122-0.11-0.149-0.188l-5.189-12.804L224.515,215.625z
		 M220.836,224.216l0.279-0.797h6.44l0.2,0.797H220.836z"/>
	<path d="M231.018,215.366c-0.107,0-0.199-0.035-0.278-0.109c-0.079-0.072-0.119-0.161-0.119-0.269c0-0.105,0.04-0.194,0.119-0.267
		c0.079-0.074,0.171-0.111,0.278-0.111h9.663c0.104,0,0.198,0.037,0.277,0.111c0.079,0.072,0.119,0.161,0.119,0.267
		c0,0.121-0.04,0.214-0.119,0.279c-0.079,0.067-0.173,0.099-0.277,0.099H231.018z M235.85,228.529c-0.121,0-0.215-0.04-0.289-0.121
		c-0.072-0.077-0.109-0.171-0.109-0.278v-13.042h0.795v13.042c0,0.107-0.04,0.201-0.119,0.278
		C236.048,228.489,235.954,228.529,235.85,228.529z"/>
	<path d="M244.599,228.113c-0.014,0.117-0.061,0.218-0.141,0.295c-0.079,0.081-0.172,0.121-0.277,0.121
		c-0.133,0-0.237-0.04-0.31-0.121c-0.072-0.077-0.109-0.178-0.109-0.295v-13.085c0-0.119,0.041-0.218,0.121-0.299
		c0.079-0.079,0.179-0.119,0.298-0.119s0.218,0.04,0.297,0.119c0.079,0.081,0.121,0.18,0.121,0.299V228.113z"/>
	<path d="M260.862,221.571c0,1.062-0.163,2.026-0.487,2.903c-0.324,0.873-0.786,1.629-1.381,2.265
		c-0.598,0.638-1.3,1.125-2.108,1.471c-0.81,0.347-1.698,0.518-2.664,0.518c-0.968,0-1.854-0.171-2.665-0.518
		c-0.81-0.346-1.512-0.833-2.108-1.471c-0.596-0.636-1.057-1.392-1.382-2.265c-0.323-0.877-0.487-1.842-0.487-2.903
		s0.164-2.029,0.487-2.903c0.325-0.877,0.786-1.629,1.382-2.269c0.597-0.635,1.299-1.125,2.108-1.47
		c0.811-0.345,1.697-0.516,2.665-0.516c0.966,0,1.854,0.171,2.664,0.516c0.809,0.345,1.511,0.835,2.108,1.47
		c0.595,0.64,1.057,1.392,1.381,2.269C260.699,219.542,260.862,220.51,260.862,221.571z M260.027,221.571
		c0-1.273-0.249-2.386-0.746-3.34c-0.497-0.957-1.179-1.699-2.048-2.229c-0.868-0.53-1.873-0.794-3.012-0.794
		c-1.128,0-2.127,0.264-3.002,0.794c-0.876,0.529-1.562,1.271-2.059,2.229c-0.497,0.954-0.745,2.066-0.745,3.34
		s0.248,2.386,0.745,3.34c0.496,0.954,1.183,1.696,2.059,2.228c0.875,0.531,1.874,0.793,3.002,0.793
		c1.139,0,2.144-0.262,3.012-0.793c0.869-0.531,1.551-1.273,2.048-2.228S260.027,222.845,260.027,221.571z"/>
	<path d="M273.905,214.61c0.119,0,0.21,0.037,0.279,0.111c0.063,0.072,0.099,0.161,0.099,0.267v13.104
		c0,0.145-0.044,0.252-0.131,0.326c-0.084,0.073-0.182,0.11-0.287,0.11c-0.054,0-0.109-0.013-0.168-0.04
		c-0.061-0.026-0.111-0.063-0.151-0.117l-9.225-12.607l0.279-0.14v12.565c0,0.094-0.037,0.175-0.111,0.238
		c-0.072,0.067-0.161,0.101-0.268,0.101c-0.119,0-0.213-0.033-0.278-0.101c-0.065-0.063-0.1-0.145-0.1-0.238v-13.182
		c0-0.146,0.039-0.247,0.121-0.308c0.079-0.061,0.158-0.091,0.237-0.091c0.054,0,0.105,0.012,0.159,0.03
		c0.053,0.021,0.1,0.058,0.138,0.109l9.187,12.526l-0.158,0.399v-12.688c0-0.105,0.04-0.194,0.119-0.267
		C273.726,214.647,273.812,214.61,273.905,214.61z"/>
	<path d="M281.898,228.728c-1.033,0.014-1.922-0.157-2.664-0.518c-0.743-0.355-1.458-0.88-2.147-1.568
		c-0.028-0.027-0.054-0.064-0.079-0.111c-0.028-0.047-0.04-0.11-0.04-0.188c0-0.108,0.046-0.209,0.138-0.31
		c0.093-0.101,0.193-0.147,0.299-0.147c0.12,0,0.232,0.061,0.338,0.178c0.531,0.608,1.151,1.075,1.859,1.391
		c0.708,0.319,1.448,0.478,2.217,0.478c0.677,0,1.279-0.107,1.811-0.326c0.529-0.222,0.945-0.53,1.252-0.934
		c0.304-0.407,0.456-0.881,0.456-1.425c-0.013-0.676-0.199-1.217-0.558-1.63c-0.355-0.409-0.817-0.749-1.381-1.015
		c-0.562-0.266-1.157-0.507-1.78-0.732c-0.489-0.188-0.973-0.38-1.452-0.578c-0.475-0.198-0.906-0.439-1.29-0.726
		c-0.385-0.285-0.688-0.645-0.915-1.075c-0.226-0.43-0.338-0.964-0.338-1.599c0-0.648,0.175-1.236,0.527-1.762
		c0.35-0.522,0.855-0.939,1.511-1.252c0.656-0.311,1.437-0.465,2.337-0.465c0.756,0,1.491,0.134,2.207,0.404
		c0.714,0.272,1.276,0.681,1.688,1.225c0.133,0.186,0.2,0.324,0.2,0.417c0,0.094-0.049,0.187-0.15,0.279
		c-0.099,0.095-0.208,0.139-0.327,0.139c-0.105,0-0.191-0.041-0.259-0.118c-0.238-0.32-0.527-0.594-0.865-0.825
		c-0.338-0.233-0.717-0.412-1.143-0.538c-0.425-0.126-0.875-0.188-1.352-0.188c-0.65,0-1.24,0.105-1.771,0.317
		c-0.528,0.211-0.954,0.514-1.271,0.905c-0.317,0.389-0.477,0.873-0.477,1.44c0,0.611,0.175,1.112,0.527,1.502
		c0.351,0.39,0.798,0.716,1.342,0.975c0.543,0.259,1.099,0.493,1.67,0.705c0.503,0.172,1.005,0.359,1.5,0.568
		c0.498,0.204,0.949,0.46,1.353,0.763c0.403,0.306,0.726,0.688,0.965,1.155c0.238,0.464,0.357,1.045,0.357,1.747
		c0,0.611-0.177,1.173-0.527,1.693c-0.352,0.515-0.844,0.931-1.48,1.25S282.785,228.715,281.898,228.728z"/>
	<path d="M300.707,228.728c-1.033,0-1.985-0.175-2.854-0.527c-0.866-0.35-1.622-0.847-2.264-1.488
		c-0.646-0.646-1.143-1.404-1.492-2.278c-0.353-0.877-0.527-1.831-0.527-2.862c0-1.035,0.175-1.989,0.527-2.862
		c0.35-0.877,0.847-1.637,1.492-2.277c0.642-0.644,1.397-1.141,2.264-1.492c0.869-0.351,1.821-0.525,2.854-0.525
		c0.728,0,1.432,0.089,2.106,0.267c0.678,0.179,1.28,0.447,1.812,0.805c0.063,0.041,0.11,0.09,0.14,0.149
		c0.024,0.06,0.038,0.123,0.038,0.188c0,0.133-0.047,0.231-0.14,0.299c-0.092,0.065-0.171,0.1-0.238,0.1
		c-0.054,0-0.099-0.009-0.138-0.03c-0.042-0.019-0.082-0.035-0.121-0.049c-0.49-0.277-1.026-0.504-1.609-0.676
		c-0.584-0.173-1.201-0.258-1.85-0.258c-1.232,0-2.323,0.273-3.272,0.824c-0.945,0.55-1.688,1.301-2.226,2.256
		c-0.538,0.957-0.807,2.049-0.807,3.282s0.269,2.328,0.807,3.289c0.537,0.961,1.28,1.714,2.226,2.258
		c0.949,0.545,2.04,0.813,3.272,0.813c0.662,0,1.315-0.101,1.957-0.306c0.644-0.205,1.212-0.474,1.702-0.807l-0.079,0.356v-4.97
		l0.277,0.259h-3.857c-0.107,0-0.2-0.04-0.278-0.121c-0.079-0.077-0.12-0.171-0.12-0.278c0-0.118,0.041-0.215,0.12-0.286
		c0.078-0.073,0.171-0.11,0.278-0.11h3.975c0.121,0,0.217,0.04,0.291,0.121c0.07,0.08,0.107,0.171,0.107,0.275v4.992
		c0,0.054-0.012,0.111-0.039,0.179c-0.026,0.067-0.073,0.127-0.139,0.182c-0.583,0.396-1.236,0.712-1.959,0.954
		C302.221,228.606,301.475,228.728,300.707,228.728z"/>
	<path d="M308.779,228.529c-0.133,0-0.235-0.04-0.309-0.121c-0.072-0.077-0.108-0.171-0.108-0.278v-13.121
		c0-0.106,0.039-0.198,0.12-0.279c0.078-0.079,0.171-0.119,0.278-0.119h5.248c0.781,0,1.469,0.158,2.057,0.467
		c0.591,0.312,1.052,0.741,1.383,1.284c0.33,0.543,0.497,1.161,0.497,1.85c0,0.608-0.109,1.159-0.328,1.65
		c-0.218,0.49-0.523,0.896-0.914,1.223c-0.391,0.322-0.84,0.558-1.344,0.706l-0.914-0.162c0.529,0,1.035,0.139,1.513,0.41
		c0.477,0.272,0.866,0.669,1.172,1.193c0.305,0.523,0.457,1.162,0.457,1.918c0,0.648,0.03,1.143,0.091,1.479
		c0.059,0.339,0.138,0.588,0.237,0.749c0.101,0.158,0.215,0.286,0.348,0.377c0.079,0.054,0.14,0.117,0.18,0.198
		c0.039,0.08,0.045,0.171,0.021,0.278c-0.027,0.081-0.071,0.145-0.13,0.188c-0.061,0.047-0.122,0.077-0.189,0.091
		c-0.067,0.013-0.14,0-0.219-0.041c-0.185-0.104-0.368-0.265-0.548-0.477c-0.178-0.212-0.325-0.538-0.446-0.975
		c-0.119-0.437-0.179-1.059-0.179-1.868c0-0.625-0.096-1.119-0.288-1.491c-0.192-0.37-0.438-0.655-0.734-0.854
		c-0.299-0.202-0.617-0.333-0.954-0.4c-0.34-0.067-0.648-0.098-0.926-0.098h-4.832l0.18-0.241v6.064c0,0.107-0.042,0.201-0.12,0.278
		C308.998,228.489,308.898,228.529,308.779,228.529z M308.998,221.511h5.11c0.53-0.054,1.021-0.212,1.47-0.478
		c0.452-0.265,0.819-0.638,1.104-1.115c0.286-0.477,0.431-1.038,0.431-1.687c0-0.81-0.291-1.484-0.867-2.019
		c-0.576-0.537-1.355-0.807-2.337-0.807h-4.812l0.101-0.139v6.462L308.998,221.511z"/>
	<path d="M326.076,215.625l-5.03,12.646c-0.026,0.078-0.073,0.142-0.139,0.188s-0.14,0.07-0.219,0.07
		c-0.133,0-0.231-0.033-0.298-0.101c-0.066-0.063-0.107-0.145-0.12-0.238c-0.012-0.054-0.006-0.118,0.02-0.198l5.35-13.162
		c0.038-0.105,0.089-0.176,0.149-0.208c0.059-0.033,0.136-0.05,0.229-0.05c0.105,0,0.191,0.021,0.259,0.068
		c0.065,0.047,0.112,0.109,0.139,0.189l5.35,13.162c0.013,0.04,0.019,0.094,0.019,0.161c0,0.117-0.041,0.212-0.12,0.275
		c-0.078,0.067-0.178,0.101-0.297,0.101c-0.094,0-0.177-0.023-0.249-0.07c-0.073-0.047-0.124-0.11-0.149-0.188l-5.189-12.804
		L326.076,215.625z M322.398,224.216l0.279-0.797h6.44l0.2,0.797H322.398z"/>
	<path d="M339.639,214.61c0.754,0,1.412,0.159,1.977,0.478c0.563,0.318,1.002,0.763,1.312,1.334c0.312,0.57,0.467,1.231,0.467,1.987
		c0,0.743-0.154,1.411-0.467,2.006c-0.311,0.599-0.749,1.069-1.312,1.415c-0.564,0.343-1.223,0.514-1.977,0.514h-4.415l0.079-0.138
		v5.924c0,0.107-0.044,0.201-0.13,0.278c-0.086,0.081-0.183,0.121-0.287,0.121c-0.133,0-0.237-0.04-0.31-0.121
		c-0.073-0.077-0.108-0.171-0.108-0.278v-13.121c0-0.106,0.038-0.198,0.119-0.279c0.08-0.079,0.173-0.119,0.278-0.119H339.639z
		 M339.639,221.551c0.607,0,1.129-0.138,1.559-0.409c0.43-0.27,0.766-0.646,1.005-1.123c0.238-0.477,0.357-1.015,0.357-1.609
		c0-0.607-0.119-1.135-0.357-1.579c-0.239-0.445-0.575-0.793-1.005-1.047c-0.43-0.25-0.951-0.377-1.559-0.377h-4.396l0.06-0.101
		v6.306l-0.079-0.061H339.639z"/>
	<path d="M346.695,214.61c0.12,0,0.219,0.04,0.298,0.119c0.079,0.081,0.119,0.18,0.119,0.299v13.085
		c-0.012,0.117-0.059,0.218-0.138,0.295c-0.081,0.081-0.175,0.121-0.279,0.121c-0.133,0-0.236-0.04-0.309-0.121
		c-0.072-0.077-0.109-0.178-0.109-0.295v-13.085c0-0.119,0.039-0.218,0.121-0.299C346.478,214.65,346.576,214.61,346.695,214.61z
		 M346.595,220.974h9.645l-0.038,0.796h-9.724L346.595,220.974z M356.201,214.61c0.117,0,0.218,0.04,0.297,0.119
		c0.079,0.081,0.119,0.18,0.119,0.299v13.085c-0.015,0.117-0.061,0.218-0.14,0.295c-0.08,0.081-0.173,0.121-0.276,0.121
		c-0.135,0-0.237-0.04-0.31-0.121c-0.074-0.077-0.11-0.178-0.11-0.295v-13.085c0-0.119,0.04-0.218,0.119-0.299
		C355.979,214.65,356.08,214.61,356.201,214.61z"/>
	<path d="M361.429,228.113c-0.014,0.117-0.061,0.218-0.14,0.295c-0.079,0.081-0.173,0.121-0.278,0.121
		c-0.133,0-0.237-0.04-0.31-0.121c-0.072-0.077-0.109-0.178-0.109-0.295v-13.085c0-0.119,0.041-0.218,0.121-0.299
		c0.079-0.079,0.179-0.119,0.298-0.119s0.218,0.04,0.297,0.119c0.079,0.081,0.121,0.18,0.121,0.299V228.113z"/>
	<path d="M377.692,221.571c0,1.062-0.163,2.026-0.487,2.903c-0.324,0.873-0.786,1.629-1.381,2.265
		c-0.598,0.638-1.3,1.125-2.108,1.471c-0.81,0.347-1.698,0.518-2.664,0.518c-0.968,0-1.854-0.171-2.665-0.518
		c-0.81-0.346-1.512-0.833-2.107-1.471c-0.595-0.636-1.058-1.392-1.383-2.265c-0.323-0.877-0.485-1.842-0.485-2.903
		s0.162-2.029,0.485-2.903c0.325-0.877,0.788-1.629,1.383-2.269c0.596-0.635,1.298-1.125,2.107-1.47
		c0.811-0.345,1.697-0.516,2.665-0.516c0.966,0,1.854,0.171,2.664,0.516c0.809,0.345,1.511,0.835,2.108,1.47
		c0.595,0.64,1.057,1.392,1.381,2.269C377.529,219.542,377.692,220.51,377.692,221.571z M376.857,221.571
		c0-1.273-0.249-2.386-0.746-3.34c-0.497-0.957-1.179-1.699-2.048-2.229c-0.868-0.53-1.873-0.794-3.012-0.794
		c-1.128,0-2.127,0.264-3.002,0.794c-0.876,0.529-1.562,1.271-2.059,2.229c-0.497,0.954-0.745,2.066-0.745,3.34
		s0.248,2.386,0.745,3.34c0.496,0.954,1.183,1.696,2.059,2.228c0.875,0.531,1.874,0.793,3.002,0.793
		c1.139,0,2.144-0.262,3.012-0.793c0.869-0.531,1.551-1.273,2.048-2.228S376.857,222.845,376.857,221.571z M378.926,229.823
		c0.105,0,0.188,0.026,0.246,0.087c0.061,0.061,0.091,0.145,0.091,0.249c0,0.198-0.108,0.394-0.327,0.588
		c-0.219,0.191-0.509,0.37-0.865,0.538c-0.357,0.164-0.741,0.292-1.143,0.386c-0.404,0.095-0.793,0.142-1.164,0.142
		c-0.783,0-1.441-0.091-1.979-0.27c-0.538-0.181-1.021-0.386-1.452-0.618c-0.43-0.231-0.872-0.437-1.322-0.614
		c-0.45-0.182-0.985-0.269-1.609-0.269c-0.24,0-0.455,0.033-0.646,0.107c-0.193,0.073-0.357,0.147-0.497,0.218
		c-0.14,0.074-0.269,0.111-0.387,0.111c-0.107,0-0.199-0.04-0.28-0.121c-0.079-0.081-0.117-0.178-0.117-0.299
		c0-0.158,0.072-0.269,0.218-0.336l3.2-1.116l1.83-0.077l-2.924,0.954l-0.02-0.157c0.584,0,1.106,0.084,1.572,0.255
		c0.464,0.175,0.91,0.377,1.341,0.608c0.43,0.231,0.892,0.434,1.383,0.608c0.488,0.171,1.053,0.259,1.689,0.259
		c0.569,0,1.04-0.081,1.411-0.242c0.371-0.158,0.664-0.296,0.875-0.417c0.187-0.107,0.342-0.229,0.468-0.366
		C378.642,229.891,378.779,229.823,378.926,229.823z"/>
	<path d="M390.794,214.61c0.119,0,0.216,0.04,0.289,0.119c0.072,0.081,0.109,0.173,0.109,0.279v8.589
		c0,0.94-0.231,1.801-0.695,2.577c-0.466,0.772-1.082,1.394-1.85,1.857c-0.77,0.464-1.623,0.695-2.565,0.695
		c-0.94,0-1.799-0.231-2.574-0.695s-1.396-1.085-1.859-1.857c-0.464-0.776-0.695-1.637-0.695-2.577v-8.589
		c0-0.106,0.035-0.198,0.107-0.279c0.074-0.079,0.178-0.119,0.31-0.119c0.12,0,0.218,0.04,0.299,0.119
		c0.079,0.081,0.119,0.173,0.119,0.279v8.589c0,0.796,0.193,1.521,0.576,2.177c0.385,0.658,0.903,1.18,1.561,1.572
		c0.655,0.39,1.376,0.585,2.157,0.585c0.796,0,1.519-0.195,2.167-0.585c0.65-0.393,1.169-0.914,1.561-1.572
		c0.392-0.655,0.588-1.381,0.588-2.177v-8.589c0-0.106,0.035-0.198,0.107-0.279C390.579,214.65,390.677,214.61,390.794,214.61z"/>
	<path d="M395.567,214.61h7.494c0.107,0,0.199,0.04,0.278,0.119c0.079,0.081,0.121,0.173,0.121,0.279
		c0,0.119-0.042,0.215-0.121,0.289c-0.079,0.072-0.171,0.108-0.278,0.108h-7.256l0.198-0.337v6.163l-0.238-0.279h6.401
		c0.108,0,0.198,0.04,0.279,0.121c0.079,0.077,0.119,0.171,0.119,0.278c0,0.118-0.04,0.216-0.119,0.286
		c-0.081,0.074-0.171,0.11-0.279,0.11h-6.361l0.198-0.218v6.303l-0.079-0.101h7.137c0.107,0,0.199,0.04,0.278,0.121
		c0.079,0.077,0.121,0.171,0.121,0.275c0,0.121-0.042,0.215-0.121,0.289c-0.079,0.073-0.171,0.11-0.278,0.11h-7.494
		c-0.106,0-0.198-0.04-0.277-0.121c-0.083-0.077-0.121-0.171-0.121-0.278v-13.121c0-0.106,0.038-0.198,0.121-0.279
		C395.369,214.65,395.461,214.61,395.567,214.61z"/>
	<path d="M410.082,228.728c-1.035,0.014-1.924-0.157-2.666-0.518c-0.743-0.355-1.457-0.88-2.147-1.568
		c-0.026-0.027-0.054-0.064-0.079-0.111c-0.026-0.047-0.04-0.11-0.04-0.188c0-0.108,0.047-0.209,0.14-0.31
		c0.092-0.101,0.191-0.147,0.297-0.147c0.119,0,0.233,0.061,0.338,0.178c0.531,0.608,1.15,1.075,1.859,1.391
		c0.709,0.319,1.448,0.478,2.218,0.478c0.676,0,1.278-0.107,1.81-0.326c0.529-0.222,0.947-0.53,1.253-0.934
		c0.304-0.407,0.457-0.881,0.457-1.425c-0.014-0.676-0.2-1.217-0.558-1.63c-0.358-0.409-0.818-0.749-1.381-1.015
		c-0.564-0.266-1.157-0.507-1.781-0.732c-0.49-0.188-0.974-0.38-1.451-0.578c-0.476-0.198-0.907-0.439-1.29-0.726
		c-0.387-0.285-0.69-0.645-0.917-1.075c-0.226-0.43-0.336-0.964-0.336-1.599c0-0.648,0.174-1.236,0.525-1.762
		c0.352-0.522,0.856-0.939,1.512-1.252c0.657-0.311,1.435-0.465,2.337-0.465c0.755,0,1.492,0.134,2.206,0.404
		c0.716,0.272,1.278,0.681,1.689,1.225c0.133,0.186,0.198,0.324,0.198,0.417c0,0.094-0.048,0.187-0.147,0.279
		c-0.099,0.095-0.21,0.139-0.329,0.139c-0.106,0-0.19-0.041-0.257-0.118c-0.239-0.32-0.527-0.594-0.865-0.825
		c-0.34-0.233-0.72-0.412-1.143-0.538c-0.427-0.126-0.875-0.188-1.353-0.188c-0.651,0-1.239,0.105-1.771,0.317
		c-0.529,0.211-0.954,0.514-1.271,0.905c-0.319,0.389-0.478,0.873-0.478,1.44c0,0.611,0.175,1.112,0.527,1.502
		c0.352,0.39,0.798,0.716,1.341,0.975c0.544,0.259,1.101,0.493,1.67,0.705c0.504,0.172,1.005,0.359,1.502,0.568
		c0.497,0.204,0.947,0.46,1.353,0.763c0.403,0.306,0.726,0.688,0.964,1.155c0.238,0.464,0.358,1.045,0.358,1.747
		c0,0.611-0.177,1.173-0.528,1.693c-0.351,0.515-0.845,0.931-1.479,1.25C411.729,228.55,410.967,228.715,410.082,228.728z"/>
</g>
<g>
</g>
<g>
</g>
<g>
</g>
<g>
</g>
<g>
</g>
<g>
</g>
</svg>
