<?xml version="1.0" encoding="utf-8"?>
<!-- Generator: Adobe Illustrator 16.0.0, SVG Export Plug-In . SVG Version: 6.00 Build 0)  -->
<!DOCTYPE svg PUBLIC "-//W3C//DTD SVG 1.1//EN" "http://www.w3.org/Graphics/SVG/1.1/DTD/svg11.dtd">
<svg version="1.1" id="Calque_1" xmlns="http://www.w3.org/2000/svg" xmlns:xlink="http://www.w3.org/1999/xlink" x="0px" y="0px"
	 width="250px" height="250px" viewBox="0 0 250 250" enable-background="new 0 0 250 250" xml:space="preserve">
<g>
	<path fill="#1E1E1C" d="M249.963,124.978c0,69.02-55.955,124.968-124.986,124.968C55.948,249.945,0,193.997,0,124.978
		C0,55.954,55.948,0,124.977,0C194.008,0,249.963,55.954,249.963,124.978z"/>
	<linearGradient id="SVGID_1_" gradientUnits="userSpaceOnUse" x1="100.3608" y1="53.8433" x2="149.011" y2="194.3882">
		<stop  offset="0.0736" style="stop-color:#E40D7E"/>
		<stop  offset="0.2967" style="stop-color:#EF9F81"/>
		<stop  offset="0.4969" style="stop-color:#FEEB17"/>
		<stop  offset="0.9141" style="stop-color:#1E9CD8"/>
	</linearGradient>
	<path fill="url(#SVGID_1_)" d="M188.733,180.296L159.05,89.149l8.613-27.123c2.251-7.883,7.303-6.731,17.295-6.731v-2.113h-34.937
		v2.113c9.896,0,16.974-0.928,16.289,4.924c-0.17,1.508-1.68,6.226-2.147,8.889l-5.806,17.911l-5.943-18.222
		c-3.373-10.412-8.089-15.615-14.135-15.615H97.527v2.113c5.135-0.249,24.601-0.705,25.954,1.854l0.897,2.179l-20.865,63.464
		L86.353,69.683c-2.241-7.067-4.503-11.262-5.769-12.953c-1.124-1.692-3.146-3.548-5.392-3.548H41.366v2.113
		c10.135,0,16.681,4.777,19.637,14.356l29.972,91.319l-8.785,26.746c-2.483,7.881-7.182,6.938-17.182,6.938v2.108h35.747v-2.108
		c-10.222,0-16.316,0.708-16.316-4.243c0-1.701,1.382-6.915,2.175-9.326l5.517-16.565l6.459,19.678
		c2.746,8.379,7.107,12.565,13.096,12.565h13.19l6.865-21.622l14.603-45.98c3.355,10.08,15.699,47.123,16.592,49.723
		c1.025,3.001,2.366,6.009,1.986,8.367c-0.89,5.288-14.753,7.404-23.893,7.404v2.108h67.566v-2.108
		C198.456,194.655,191.837,189.868,188.733,180.296z M125.277,62.701l20.05,62.277h-40.239L125.277,62.701z M125.093,189.515
		l-20.329-62.882l40.735-0.009L125.093,189.515z"/>
</g>
<g>
</g>
<g>
</g>
<g>
</g>
<g>
</g>
<g>
</g>
<g>
</g>
</svg>
