<?xml version="1.0" encoding="utf-8"?>
<!-- Generator: Adobe Illustrator 16.0.0, SVG Export Plug-In . SVG Version: 6.00 Build 0)  -->
<!DOCTYPE svg PUBLIC "-//W3C//DTD SVG 1.1//EN" "http://www.w3.org/Graphics/SVG/1.1/DTD/svg11.dtd">
<svg
		version="1.1"
		id="Calque_1"
		xmlns="http://www.w3.org/2000/svg" xmlns:xlink="http://www.w3.org/1999/xlink" x="0px" y="0px"
	 	width="20.761px"
		height="36.012px"
		viewBox="0 0 20.761 36.012"
		enable-background="new 0 0 20.761 36.012" xml:space="preserve"
		fill-opacity="0.1"
>
<g>
	<g>
		<path fill="none" stroke="#e8e8e8" stroke-linecap="round" stroke-miterlimit="10" d="M10.419-0.041
			c4.956,4.209,3.542,12.354-2.98,16.319c-0.835,0.508-1.582,1.065-2.241,1.66"/>
		<path fill="none" stroke="#e8e8e8" stroke-linecap="round" stroke-miterlimit="10" d="M10.419-0.041
			c0.815,0.676,1.792,1.245,2.929,1.674"/>
		<path fill="none" stroke="#e8e8e8" stroke-linecap="round" stroke-miterlimit="10" d="M13.401,1.633
			c7.265,2.826,7.596,11.282,2.205,16.343"/>
	</g>
	<g>
		<path fill="none" stroke="#e8e8e8" stroke-linecap="round" stroke-miterlimit="10" d="M20.753,13.848
			c-0.823,0.91-1.811,1.734-2.955,2.43c-0.835,0.508-1.582,1.065-2.241,1.66"/>
	</g>
	<g>
		<path fill="none" stroke="#e8e8e8" stroke-linecap="round" stroke-miterlimit="10" d="M0-0.061
			c4.076,3.462,3.843,9.585,0.004,13.856"/>
		<path fill="none" stroke="#e8e8e8" stroke-linecap="round" stroke-miterlimit="10" d="M0-0.061
			c0.815,0.676,1.792,1.245,2.929,1.674"/>
		<path fill="none" stroke="#e8e8e8" stroke-linecap="round" stroke-miterlimit="10" d="M2.982,1.614
			c7.265,2.826,7.596,11.282,2.205,16.343"/>
	</g>
	<g>
		<path fill="none" stroke="#e8e8e8" stroke-linecap="round" stroke-miterlimit="10" d="M10.343,35.993
			c-4.956-4.209-3.542-12.354,2.98-16.319c0.835-0.508,1.582-1.065,2.241-1.66"/>
		<path fill="none" stroke="#e8e8e8" stroke-linecap="round" stroke-miterlimit="10" d="M10.343,35.993
			c-0.815-0.676-1.792-1.245-2.929-1.674"/>
		<path fill="none" stroke="#e8e8e8" stroke-linecap="round" stroke-miterlimit="10" d="M7.361,34.319
			c-7.265-2.826-7.596-11.282-2.205-16.343"/>
	</g>
	<g>
		<path fill="none" stroke="#e8e8e8" stroke-linecap="round" stroke-miterlimit="10" d="M0.004,22.036
			c0.827-0.919,1.822-1.751,2.976-2.454c0.835-0.508,1.582-1.065,2.241-1.66"/>
	</g>
	<g>
		<path fill="none" stroke="#e8e8e8" stroke-linecap="round" stroke-miterlimit="10" d="M20.761,36.012
			c-4.027-3.419-3.848-9.438-0.142-13.701"/>
		<path fill="none" stroke="#e8e8e8" stroke-linecap="round" stroke-miterlimit="10" d="M20.761,36.012
			c-0.815-0.676-1.792-1.245-2.929-1.674"/>
		<path fill="none" stroke="#e8e8e8" stroke-linecap="round" stroke-miterlimit="10" d="M17.779,34.338
			c-7.265-2.826-7.596-11.282-2.205-16.343"/>
	</g>
</g>
<g>
</g>
<g>
</g>
<g>
</g>
<g>
</g>
<g>
</g>
<g>
</g>
</svg>
