<?xml version="1.0" standalone="no"?>
<!DOCTYPE svg PUBLIC "-//W3C//DTD SVG 20010904//EN"
 "http://www.w3.org/TR/2001/REC-SVG-20010904/DTD/svg10.dtd">
<svg version="1.0" xmlns="http://www.w3.org/2000/svg"
     width="7.5px" height="45px" viewBox="0 0 213.000000 1280.000000"
 preserveAspectRatio="xMidYMid meet" fill-opacity="0.1">
<metadata>
Created by potrace 1.16, written by Peter Selinger 2001-2019
</metadata>
<g transform="translate(0.000000,1280.000000) scale(0.100000,-0.100000)"
fill="#000000" stroke="none">
<path d="M907 12773 c-81 -85 -74 -234 14 -306 19 -16 68 -50 110 -76 258
-164 445 -464 520 -837 27 -136 37 -436 20 -582 -57 -463 -261 -880 -581
-1187 -63 -60 -154 -150 -203 -200 -327 -330 -557 -814 -642 -1352 -22 -138
-31 -470 -16 -618 64 -642 356 -1140 821 -1400 342 -192 551 -524 615 -978 19
-135 19 -397 -1 -538 -45 -324 -178 -653 -371 -914 -39 -53 -156 -179 -283
-305 -222 -219 -316 -332 -418 -502 -152 -252 -262 -535 -322 -828 -74 -363
-65 -789 24 -1130 106 -409 346 -764 656 -971 l74 -49 131 0 c130 0 131 0 158
28 76 79 76 215 -1 295 -14 15 -47 40 -72 54 -221 129 -405 368 -500 652 -120
357 -120 816 0 1218 80 270 215 528 380 727 33 39 131 140 219 224 235 224
367 396 496 646 120 231 201 472 246 737 20 116 23 169 24 394 0 230 -3 275
-23 389 -103 568 -376 979 -815 1226 -315 177 -514 486 -592 920 -22 124 -31
424 -16 560 54 495 263 947 577 1250 192 185 292 289 356 371 285 366 459 798
509 1267 15 143 7 482 -15 612 -49 288 -149 548 -297 770 -83 126 -272 315
-397 398 l-93 62 -133 0 c-131 0 -132 0 -159 -27z"/>
</g>
</svg>
