<?xml version="1.0" encoding="utf-8"?>
<!-- Generator: Adobe Illustrator 16.0.0, SVG Export Plug-In . SVG Version: 6.00 Build 0)  -->
<!DOCTYPE svg PUBLIC "-//W3C//DTD SVG 1.1//EN" "http://www.w3.org/Graphics/SVG/1.1/DTD/svg11.dtd">
<svg version="1.1" id="Calque_1" xmlns="http://www.w3.org/2000/svg" xmlns:xlink="http://www.w3.org/1999/xlink" x="0px" y="0px"
	 width="144px" height="215px" viewBox="0 0 144 215" enable-background="new 0 0 144 215" xml:space="preserve">
<path fill="#010202" d="M92.351,3.925c0,0-4.891-3.651-17.221,1.327c0.427-0.17,0.101-0.132-0.011-0.002
	c1.273,66.537,51.894,113.157,51.894,113.157S74.613,45.044,92.351,3.925"/>
<path fill="#010202" d="M78.657,88.721c-10.3-9.568-21.899-23.864-22.316-45.306c5.191,17.469,22.943,42.367,70.674,74.995
	C79.436,85.885,65.568,10.286,68.706,8.129c-1.792,0.938-3.682,2.027-5.677,3.307c0.001-0.043,0.021-0.072,0.03-0.112
	c0,0-32.58,21.84-27.131,45.684c1.069,4.712,0.321,10.405-11.021,15.852c-2.276,1.09-6.314,2.423-5.252,8.596
	c0,0,1.117,4.405,3.304,6.086c0.11,0.089,0.244,0.134,0.338,0.219c2.813,2.699-2.077,1.927-3.624,2.421
	c-2.628,0.854-2.694,6.055,1.463,10.619c0,0-6.708,6.718-2.943,12.631c0,0,0.937,1.062,4.837,0.538c0,0-3.003,21.202,13.3,20.689
	c9.594-0.315,30.505-8.2,38.162,4.163c0,0,25.938,31.843-5.515,76.178c0,0,36.277-13.432,40.047-54.547
	C109,160.453,120.562,127.678,78.657,88.721"/>
<g>
</g>
<g>
</g>
<g>
</g>
<g>
</g>
<g>
</g>
<g>
</g>
</svg>
