<svg fill="none" xmlns="http://www.w3.org/2000/svg" viewBox="0 0 33 33">
  <path
    d="M22.848 3.392a6.65 6.65 0 0 1 4.709 1.961 6.622 6.622 0 0 1 1.958 4.715v13.353c0 1.77-.7 3.447-1.958 4.716a6.602 6.602 0 0 1-4.709 1.96H9.515a6.651 6.651 0 0 1-4.708-1.96 6.622 6.622 0 0 1-1.959-4.716V10.068c0-1.769.7-3.446 1.959-4.715a6.602 6.602 0 0 1 4.708-1.961h13.333Zm0-2.67H9.515C4.382.721.182 4.926.182 10.067v13.353c0 5.141 4.2 9.348 9.333 9.348h13.333c5.134 0 9.334-4.207 9.334-9.348V10.068c0-5.14-4.2-9.347-9.334-9.347Z"
    fill="#000"
  />
  <path
    d="M25.146 10.592c-1.128 0-2.036-.86-2.036-1.931 0-1.07.908-1.932 2.036-1.932 1.12 0 2.036.862 2.036 1.932 0 1.07-.916 1.931-2.036 1.931Zm-8.822 1.288c2.995 0 5.43 2.31 5.43 5.15 0 2.842-2.435 5.151-5.43 5.151-2.994 0-5.428-2.31-5.428-5.15 0-2.841 2.434-5.15 5.428-5.15Zm0-2.575c-4.495 0-8.142 3.46-8.142 7.726 0 4.265 3.647 7.726 8.143 7.726 4.495 0 8.142-3.46 8.142-7.726s-3.647-7.726-8.142-7.726Z"
    fill="#000"
  />
</svg>
