<svg fill="none" xmlns="http://www.w3.org/2000/svg" viewBox="0 0 33 33">
  <path
    d="M29.623.721H2.916C1.457.721.182 1.773.182 3.217v26.805c0 1.453 1.275 2.747 2.734 2.747h26.698c1.467 0 2.568-1.303 2.568-2.747V3.217c.008-1.444-1.1-2.496-2.56-2.496ZM10.1 27.434H5.516V13.16h4.585v14.275ZM7.967 10.99h-.033c-1.467 0-2.418-1.094-2.418-2.463 0-1.394.976-2.462 2.476-2.462s2.417 1.06 2.45 2.462c0 1.37-.95 2.463-2.475 2.463Zm18.888 16.445h-4.584V19.63c0-1.87-.667-3.147-2.326-3.147-1.267 0-2.017.86-2.35 1.695-.125.3-.159.71-.159 1.127v8.13h-4.584V13.16h4.584v1.987c.667-.951 1.709-2.32 4.134-2.32 3.01 0 5.285 1.986 5.285 6.269v8.34Z"
    fill="#000"
  />
</svg>
