<?xml version="1.0" encoding="utf-8"?>
<!-- Generator: Adobe Illustrator 16.0.0, SVG Export Plug-In . SVG Version: 6.00 Build 0)  -->
<!DOCTYPE svg PUBLIC "-//W3C//DTD SVG 1.1//EN" "http://www.w3.org/Graphics/SVG/1.1/DTD/svg11.dtd">
<svg version="1.1" id="Calque_1" xmlns="http://www.w3.org/2000/svg" xmlns:xlink="http://www.w3.org/1999/xlink" x="0px" y="0px"
	 width="45px" height="7.5px" viewBox="0 0 45 7.5" enable-background="new 0 0 45 7.5" xml:space="preserve">
<g>
	<path d="M39.284,7.07c-2.52,0-5.005-1.053-6.521-2.811c-1.446-1.677-3.747-2.565-6.006-2.314c-1.655,0.182-2.97,0.969-3.607,2.158
		c-0.191,0.36-0.639,0.495-0.998,0.302c-0.359-0.192-0.495-0.64-0.302-0.999c0.87-1.625,2.6-2.692,4.745-2.929
		c2.743-0.297,5.528,0.778,7.287,2.818c1.372,1.593,3.858,2.498,6.171,2.258c1.719-0.179,3.028-0.936,3.688-2.133
		c0.197-0.355,0.644-0.489,1.002-0.29c0.356,0.197,0.486,0.646,0.29,1.002c-0.887,1.609-2.647,2.661-4.828,2.888
		C39.899,7.054,39.591,7.07,39.284,7.07z"/>
	<path d="M17.397,7.07c-2.52,0-5.005-1.053-6.521-2.811C9.43,2.582,7.12,1.695,4.871,1.945C3.216,2.127,1.9,2.915,1.264,4.103
		c-0.193,0.36-0.641,0.495-0.999,0.302c-0.359-0.192-0.495-0.64-0.302-0.999c0.87-1.625,2.601-2.692,4.746-2.929
		c2.735-0.297,5.526,0.778,7.285,2.818c1.374,1.593,3.852,2.502,6.171,2.258c1.719-0.179,3.028-0.936,3.689-2.133
		c0.197-0.356,0.647-0.485,1.002-0.29c0.357,0.197,0.487,0.646,0.29,1.002c-0.888,1.609-2.647,2.661-4.828,2.888
		C18.012,7.054,17.705,7.07,17.397,7.07z"/>
</g>
<g>
</g>
<g>
</g>
<g>
</g>
<g>
</g>
<g>
</g>
<g>
</g>
</svg>
