<?xml version="1.0" encoding="utf-8"?>
<!-- Generator: Adobe Illustrator 16.0.0, SVG Export Plug-In . SVG Version: 6.00 Build 0)  -->
<!DOCTYPE svg PUBLIC "-//W3C//DTD SVG 1.1//EN" "http://www.w3.org/Graphics/SVG/1.1/DTD/svg11.dtd">
<svg version="1.1" id="Calque_1" xmlns="http://www.w3.org/2000/svg" xmlns:xlink="http://www.w3.org/1999/xlink" x="0px" y="0px"
	 width="240.94px" height="155.91px" viewBox="0 0 240.94 155.91" enable-background="new 0 0 240.94 155.91" xml:space="preserve">
<rect y="-0.103" fill="#FFFFFF" width="240.94" height="156.003"/>
<g>
	<path fill="#774F9B" d="M102.03,81.195l0.529-0.751l6.134,4.335l-0.532,0.753L102.03,81.195z"/>
	<path fill="#774F9B" d="M103.358,79.317l0.539-0.765l0.854,0.603l-0.541,0.763L103.358,79.317z M105.04,80.506l0.541-0.766
		l4.451,3.147l-0.542,0.765L105.04,80.506z"/>
	<path fill="#774F9B" d="M106.624,78.221l4.483,1.379l-2.761-3.817l0.583-0.822l3.278,4.845l-0.565,0.802l-5.634-1.513
		L106.624,78.221z"/>
	<path fill="#774F9B" d="M109.4,74.297l0.504-0.714l0.772,0.543c-0.109-0.164-0.192-0.436-0.245-0.816
		c-0.054-0.383,0.023-0.72,0.233-1.018c0.012-0.016,0.027-0.035,0.055-0.067c0.027-0.032,0.072-0.085,0.139-0.16l0.791,0.56
		c-0.039,0.041-0.072,0.076-0.101,0.112c-0.03,0.035-0.06,0.075-0.093,0.122c-0.266,0.376-0.351,0.756-0.252,1.131
		c0.103,0.373,0.309,0.673,0.626,0.897l2.572,1.818l-0.531,0.751L109.4,74.297z"/>
	<path fill="#774F9B" d="M114.855,70.321c0.104-0.19,0.109-0.354,0.03-0.5c-0.046-0.081-0.128-0.165-0.253-0.254
		c-0.258-0.184-0.509-0.224-0.753-0.123c-0.244,0.099-0.486,0.317-0.726,0.658c-0.276,0.389-0.367,0.746-0.269,1.058
		c0.05,0.175,0.182,0.359,0.395,0.552l-0.494,0.701c-0.543-0.407-0.802-0.857-0.777-1.351c0.028-0.5,0.201-0.973,0.52-1.425
		c0.372-0.526,0.774-0.883,1.208-1.069c0.43-0.183,0.856-0.125,1.279,0.176l2.575,1.819c0.077,0.055,0.153,0.083,0.225,0.083
		c0.068,0.002,0.137-0.047,0.21-0.149c0.024-0.035,0.048-0.071,0.073-0.12c0.027-0.043,0.051-0.092,0.078-0.146l0.554,0.393
		c-0.048,0.142-0.09,0.244-0.125,0.311c-0.036,0.069-0.09,0.154-0.166,0.258c-0.182,0.259-0.406,0.382-0.671,0.37
		c-0.142-0.007-0.309-0.06-0.506-0.163c0.092,0.295,0.111,0.638,0.056,1.028c-0.056,0.392-0.206,0.762-0.449,1.106
		c-0.294,0.416-0.66,0.664-1.097,0.748c-0.437,0.087-0.845-0.004-1.223-0.272c-0.414-0.292-0.644-0.647-0.688-1.069
		c-0.046-0.418,0.054-0.859,0.297-1.317L114.855,70.321z M115.767,73.337c0.238-0.069,0.433-0.213,0.587-0.43
		c0.185-0.265,0.306-0.566,0.359-0.898c0.092-0.561-0.09-1.002-0.553-1.332l-0.604-0.426c-0.006,0.134-0.042,0.287-0.105,0.458
		c-0.06,0.172-0.134,0.334-0.215,0.485l-0.262,0.495c-0.156,0.296-0.246,0.542-0.263,0.734c-0.034,0.325,0.092,0.587,0.377,0.79
		C115.304,73.366,115.53,73.411,115.767,73.337z"/>
	<path fill="#774F9B" d="M113.097,65.539l0.54-0.763l0.852,0.602l-0.541,0.766L113.097,65.539z M114.778,66.729l0.542-0.763
		l4.452,3.146l-0.543,0.763L114.778,66.729z"/>
	<path fill="#774F9B" d="M119.486,66.536c0.266,0.155,0.502,0.228,0.713,0.217c0.378-0.021,0.734-0.272,1.072-0.749
		c0.201-0.284,0.314-0.577,0.348-0.876c0.032-0.303-0.076-0.544-0.331-0.722c-0.192-0.136-0.4-0.153-0.622-0.051
		c-0.14,0.064-0.366,0.233-0.674,0.503l-0.581,0.501c-0.37,0.317-0.675,0.531-0.923,0.63c-0.435,0.186-0.831,0.15-1.19-0.104
		c-0.423-0.298-0.657-0.695-0.7-1.188c-0.042-0.495,0.121-1.002,0.489-1.525c0.481-0.683,1.028-1.034,1.635-1.057
		c0.385-0.012,0.717,0.088,1.004,0.297l-0.502,0.711c-0.177-0.106-0.373-0.154-0.59-0.144c-0.319,0.039-0.636,0.275-0.942,0.712
		c-0.207,0.29-0.307,0.547-0.305,0.774c0.002,0.228,0.091,0.401,0.27,0.526c0.193,0.138,0.418,0.149,0.674,0.036
		c0.148-0.065,0.33-0.19,0.54-0.373l0.478-0.419c0.519-0.459,0.905-0.738,1.16-0.838c0.399-0.156,0.805-0.088,1.214,0.203
		c0.399,0.28,0.637,0.676,0.708,1.187c0.075,0.51-0.11,1.078-0.552,1.705c-0.476,0.674-0.963,1.043-1.464,1.109
		c-0.502,0.069-0.981-0.047-1.44-0.34L119.486,66.536z"/>
	<path fill="#774F9B" d="M121.86,57.616c0.662-0.125,1.367,0.076,2.111,0.604c0.722,0.508,1.192,1.104,1.416,1.784
		c0.225,0.68,0.078,1.386-0.441,2.12c-0.431,0.61-0.98,0.95-1.65,1.013c-0.671,0.067-1.355-0.15-2.055-0.645
		c-0.753-0.532-1.217-1.141-1.395-1.835c-0.179-0.693-0.041-1.359,0.412-1.999C120.663,58.089,121.196,57.74,121.86,57.616z
		 M124.502,60.182c-0.248-0.447-0.603-0.835-1.062-1.163c-0.418-0.292-0.803-0.467-1.157-0.518c-0.56-0.084-1.02,0.13-1.383,0.643
		c-0.321,0.454-0.378,0.909-0.176,1.363c0.206,0.453,0.555,0.855,1.051,1.206c0.476,0.335,0.944,0.511,1.405,0.531
		c0.464,0.018,0.854-0.198,1.172-0.646C124.698,61.105,124.749,60.633,124.502,60.182z"/>
	<path fill="#774F9B" d="M122.485,55.784l0.504-0.712l0.635,0.448c-0.111-0.397-0.141-0.753-0.089-1.07
		c0.053-0.317,0.182-0.621,0.387-0.91c0.448-0.635,0.974-0.908,1.572-0.815c0.33,0.046,0.721,0.232,1.17,0.55l2.869,2.027
		l-0.54,0.763l-2.817-1.99c-0.273-0.194-0.523-0.311-0.747-0.346c-0.373-0.063-0.681,0.08-0.931,0.431
		c-0.125,0.179-0.211,0.336-0.256,0.476c-0.084,0.25-0.089,0.519-0.017,0.804c0.061,0.229,0.154,0.42,0.285,0.567
		c0.131,0.148,0.343,0.326,0.635,0.531l2.341,1.657l-0.531,0.751L122.485,55.784z"/>
	<path fill="#774F9B" d="M129.4,46.295c0.178-0.075,0.431-0.121,0.758-0.142l-2.258-1.597l0.51-0.723l6.153,4.351l-0.479,0.674
		l-0.62-0.44c0.151,0.371,0.203,0.719,0.158,1.042c-0.047,0.326-0.177,0.643-0.397,0.95c-0.348,0.494-0.861,0.776-1.536,0.845
		c-0.676,0.066-1.363-0.146-2.059-0.638c-0.651-0.459-1.098-1.025-1.339-1.693c-0.245-0.67-0.15-1.311,0.286-1.926
		C128.817,46.659,129.092,46.424,129.4,46.295z M131.567,50.343c0.465,0.027,0.856-0.182,1.17-0.629
		c0.245-0.348,0.296-0.737,0.155-1.171c-0.14-0.435-0.492-0.85-1.052-1.245c-0.565-0.4-1.062-0.582-1.498-0.542
		c-0.433,0.039-0.772,0.226-1.009,0.564c-0.268,0.375-0.337,0.783-0.213,1.223c0.123,0.438,0.466,0.855,1.029,1.252
		C130.627,50.133,131.102,50.317,131.567,50.343z"/>
	<path fill="#774F9B" d="M132.965,41.225c0.356-0.191,0.708-0.281,1.055-0.268c0.33,0.01,0.664,0.097,1,0.26
		c0.238,0.1,0.583,0.31,1.032,0.631l-2.298,3.252c0.465,0.306,0.902,0.458,1.319,0.454c0.416-0.005,0.771-0.215,1.066-0.631
		c0.274-0.39,0.364-0.792,0.269-1.208c-0.061-0.236-0.171-0.451-0.329-0.646l0.521-0.74c0.15,0.136,0.288,0.33,0.411,0.582
		c0.126,0.252,0.203,0.492,0.236,0.716c0.062,0.387,0.013,0.772-0.146,1.161c-0.082,0.21-0.203,0.431-0.364,0.657
		c-0.39,0.555-0.924,0.878-1.602,0.976c-0.676,0.099-1.381-0.11-2.108-0.627c-0.718-0.506-1.163-1.111-1.339-1.814
		c-0.173-0.706-0.039-1.369,0.402-1.996C132.312,41.671,132.606,41.417,132.965,41.225z M134.908,42.197
		c-0.347-0.2-0.655-0.312-0.929-0.341c-0.508-0.052-0.93,0.161-1.267,0.639c-0.239,0.342-0.321,0.716-0.233,1.125
		c0.084,0.409,0.313,0.755,0.688,1.04L134.908,42.197z"/>
	<path fill="#774F9B" d="M135.903,36.847l0.521-0.734l0.592,0.421c-0.098-0.297-0.139-0.571-0.121-0.83
		c0.011-0.373,0.139-0.729,0.384-1.073c0.356-0.507,0.855-0.802,1.495-0.882c0.64-0.079,1.318,0.135,2.038,0.645
		c0.977,0.688,1.489,1.436,1.545,2.244c0.035,0.509-0.098,0.98-0.403,1.411c-0.238,0.339-0.513,0.57-0.822,0.694
		c-0.177,0.074-0.427,0.124-0.746,0.144l2.284,1.615l-0.533,0.752L135.903,36.847z M141.407,36.497
		c-0.126-0.439-0.483-0.869-1.068-1.279c-0.354-0.252-0.699-0.417-1.029-0.496c-0.632-0.152-1.128,0.031-1.495,0.551
		c-0.371,0.523-0.363,1.062,0.021,1.625c0.204,0.298,0.522,0.6,0.95,0.905c0.346,0.242,0.678,0.399,0.992,0.466
		c0.6,0.13,1.085-0.062,1.45-0.581C141.476,37.335,141.535,36.94,141.407,36.497z"/>
	<path fill="#774F9B" d="M142.749,30.867c0.102-0.189,0.111-0.357,0.027-0.502c-0.044-0.078-0.127-0.164-0.252-0.254
		c-0.258-0.182-0.509-0.223-0.754-0.122c-0.244,0.101-0.487,0.319-0.727,0.66c-0.274,0.389-0.364,0.743-0.269,1.057
		c0.051,0.175,0.187,0.357,0.396,0.55l-0.494,0.702c-0.544-0.407-0.802-0.856-0.775-1.353c0.026-0.495,0.2-0.97,0.521-1.423
		c0.37-0.525,0.772-0.88,1.204-1.067c0.431-0.184,0.859-0.125,1.281,0.173l2.575,1.823c0.077,0.054,0.15,0.082,0.223,0.083
		c0.07,0,0.141-0.051,0.212-0.152c0.023-0.034,0.05-0.072,0.074-0.118c0.026-0.044,0.05-0.092,0.077-0.146l0.555,0.393
		c-0.05,0.138-0.092,0.244-0.125,0.311c-0.037,0.067-0.09,0.155-0.167,0.258c-0.181,0.26-0.407,0.382-0.673,0.371
		c-0.141-0.009-0.308-0.063-0.505-0.163c0.091,0.295,0.11,0.637,0.055,1.028c-0.055,0.391-0.204,0.758-0.448,1.104
		c-0.291,0.415-0.657,0.665-1.095,0.749c-0.438,0.085-0.845-0.006-1.225-0.271c-0.413-0.294-0.644-0.65-0.688-1.07
		c-0.046-0.42,0.054-0.859,0.297-1.317L142.749,30.867z M143.658,33.883c0.239-0.069,0.434-0.214,0.588-0.431
		c0.188-0.264,0.307-0.563,0.361-0.897c0.09-0.56-0.093-1.004-0.555-1.331l-0.604-0.428c-0.006,0.134-0.043,0.287-0.103,0.458
		c-0.062,0.17-0.136,0.333-0.22,0.485l-0.261,0.495c-0.156,0.298-0.243,0.542-0.265,0.735c-0.034,0.324,0.093,0.587,0.379,0.79
		C143.196,33.913,143.423,33.954,143.658,33.883z"/>
	<path fill="#774F9B" d="M142.65,27.258l0.505-0.712l0.636,0.447c-0.113-0.396-0.141-0.752-0.089-1.07
		c0.054-0.317,0.183-0.622,0.386-0.91c0.449-0.633,0.975-0.906,1.574-0.816c0.328,0.049,0.719,0.235,1.168,0.552l2.867,2.026
		l-0.539,0.766l-2.816-1.992c-0.272-0.194-0.522-0.31-0.746-0.345c-0.374-0.063-0.682,0.079-0.931,0.429
		c-0.128,0.18-0.21,0.338-0.255,0.478c-0.084,0.25-0.092,0.516-0.017,0.801c0.058,0.229,0.153,0.42,0.283,0.568
		c0.132,0.149,0.341,0.326,0.633,0.534l2.345,1.657l-0.532,0.751L142.65,27.258z"/>
	<path fill="#774F9B" d="M144.352,21.329l0.541-0.764l0.851,0.602l-0.54,0.765L144.352,21.329z M146.035,22.518l0.539-0.762
		l4.451,3.145l-0.54,0.764L146.035,22.518z"/>
	<path fill="#774F9B" d="M149.433,17.928c0.356-0.189,0.709-0.279,1.058-0.268c0.329,0.012,0.661,0.098,0.998,0.259
		c0.238,0.102,0.582,0.312,1.031,0.632l-2.298,3.251c0.464,0.306,0.905,0.459,1.321,0.455c0.414-0.004,0.771-0.216,1.064-0.633
		c0.273-0.388,0.364-0.79,0.269-1.207c-0.059-0.237-0.169-0.453-0.327-0.646l0.522-0.741c0.149,0.136,0.285,0.332,0.412,0.583
		c0.122,0.252,0.199,0.493,0.231,0.719c0.064,0.383,0.015,0.77-0.143,1.159c-0.082,0.21-0.205,0.428-0.363,0.654
		c-0.392,0.555-0.924,0.879-1.604,0.978c-0.674,0.098-1.376-0.11-2.106-0.625c-0.719-0.508-1.166-1.114-1.341-1.818
		c-0.173-0.704-0.038-1.368,0.402-1.993C148.783,18.374,149.074,18.122,149.433,17.928z M151.379,18.902
		c-0.349-0.2-0.658-0.313-0.932-0.341c-0.506-0.051-0.929,0.161-1.266,0.637c-0.24,0.343-0.319,0.717-0.234,1.126
		c0.086,0.408,0.314,0.754,0.688,1.042L151.379,18.902z"/>
	<path fill="#774F9B" d="M150.732,15.828l0.507-0.713l0.771,0.545c-0.109-0.164-0.19-0.437-0.246-0.817
		c-0.054-0.381,0.024-0.72,0.235-1.018c0.009-0.015,0.028-0.036,0.054-0.067c0.026-0.032,0.071-0.085,0.139-0.159l0.793,0.56
		c-0.041,0.038-0.075,0.076-0.104,0.11c-0.03,0.036-0.061,0.076-0.09,0.121c-0.271,0.38-0.354,0.757-0.253,1.131
		c0.101,0.375,0.307,0.676,0.626,0.9l2.572,1.819l-0.532,0.75L150.732,15.828z"/>
	<path fill="#774F9B" d="M156.115,14.726c0.268,0.155,0.504,0.225,0.713,0.214c0.378-0.021,0.735-0.272,1.073-0.748
		c0.201-0.283,0.314-0.576,0.349-0.878c0.029-0.301-0.079-0.542-0.332-0.722c-0.192-0.136-0.401-0.151-0.621-0.05
		c-0.141,0.068-0.365,0.235-0.677,0.504l-0.578,0.499c-0.37,0.321-0.678,0.534-0.923,0.634c-0.437,0.184-0.833,0.149-1.191-0.104
		c-0.424-0.3-0.656-0.697-0.7-1.189c-0.044-0.495,0.121-1.002,0.487-1.525c0.485-0.682,1.027-1.033,1.638-1.058
		c0.384-0.011,0.719,0.089,1.003,0.299l-0.501,0.709c-0.18-0.104-0.376-0.152-0.591-0.141c-0.32,0.037-0.638,0.274-0.941,0.709
		c-0.209,0.291-0.311,0.547-0.306,0.775c0.004,0.227,0.094,0.401,0.268,0.529c0.194,0.136,0.42,0.146,0.677,0.032
		c0.149-0.062,0.327-0.188,0.537-0.37l0.478-0.423c0.521-0.457,0.909-0.736,1.164-0.837c0.397-0.155,0.804-0.088,1.214,0.202
		c0.397,0.281,0.634,0.679,0.707,1.188c0.073,0.51-0.111,1.078-0.553,1.705c-0.476,0.672-0.965,1.043-1.464,1.11
		c-0.502,0.067-0.979-0.047-1.439-0.343L156.115,14.726z"/>
	<path fill="#774F9B" d="M113.442,85.608c0.178-0.071,0.43-0.119,0.76-0.14l-2.26-1.599l0.511-0.722l6.154,4.351l-0.479,0.677
		l-0.621-0.438c0.151,0.365,0.205,0.715,0.159,1.04c-0.047,0.325-0.179,0.643-0.397,0.948c-0.351,0.497-0.862,0.778-1.539,0.846
		c-0.676,0.067-1.36-0.145-2.058-0.639c-0.651-0.459-1.097-1.023-1.341-1.692c-0.244-0.669-0.147-1.31,0.288-1.927
		C112.861,85.974,113.133,85.741,113.442,85.608z M115.61,89.658c0.465,0.024,0.854-0.185,1.17-0.629
		c0.244-0.347,0.294-0.736,0.154-1.172c-0.14-0.434-0.491-0.851-1.051-1.244c-0.564-0.4-1.064-0.582-1.496-0.542
		c-0.436,0.038-0.771,0.226-1.013,0.563c-0.263,0.377-0.333,0.783-0.21,1.223c0.124,0.438,0.467,0.854,1.029,1.254
		C114.67,89.449,115.144,89.632,115.61,89.658z"/>
	<path fill="#774F9B" d="M117.005,80.54c0.359-0.19,0.71-0.28,1.057-0.268c0.333,0.01,0.663,0.097,0.999,0.258
		c0.237,0.104,0.583,0.313,1.033,0.631l-2.298,3.253c0.465,0.307,0.905,0.459,1.321,0.455c0.414-0.006,0.771-0.216,1.065-0.633
		c0.273-0.388,0.365-0.792,0.268-1.208c-0.059-0.236-0.168-0.452-0.328-0.646l0.52-0.739c0.152,0.135,0.289,0.33,0.413,0.583
		c0.123,0.252,0.202,0.491,0.235,0.717c0.063,0.386,0.014,0.771-0.144,1.162c-0.082,0.209-0.205,0.428-0.364,0.654
		c-0.391,0.554-0.927,0.879-1.603,0.978c-0.676,0.099-1.378-0.111-2.108-0.627c-0.719-0.507-1.165-1.114-1.34-1.816
		c-0.172-0.704-0.04-1.368,0.403-1.995C116.356,80.983,116.648,80.73,117.005,80.54z M118.952,81.511
		c-0.348-0.199-0.658-0.311-0.93-0.34c-0.505-0.05-0.928,0.161-1.267,0.639c-0.241,0.344-0.322,0.717-0.235,1.126
		c0.086,0.407,0.315,0.755,0.691,1.041L118.952,81.511z"/>
	<path fill="#774F9B" d="M118.323,74.891l0.533-0.753l6.13,4.334l-0.53,0.75L118.323,74.891z"/>
	<path fill="#774F9B" d="M123.39,71.51c0.358-0.192,0.711-0.278,1.057-0.269c0.327,0.011,0.663,0.099,0.999,0.26
		c0.239,0.101,0.582,0.311,1.033,0.631l-2.3,3.251c0.466,0.308,0.905,0.459,1.321,0.457c0.414-0.005,0.769-0.218,1.063-0.633
		c0.276-0.391,0.367-0.792,0.269-1.209c-0.058-0.235-0.168-0.45-0.328-0.646l0.522-0.742c0.151,0.137,0.288,0.33,0.411,0.585
		c0.124,0.251,0.201,0.489,0.235,0.718c0.062,0.383,0.014,0.771-0.146,1.159c-0.08,0.211-0.201,0.431-0.362,0.659
		c-0.391,0.551-0.925,0.877-1.602,0.976c-0.675,0.096-1.38-0.111-2.108-0.629c-0.718-0.507-1.164-1.111-1.338-1.815
		c-0.175-0.705-0.04-1.371,0.4-1.994C122.739,71.954,123.031,71.701,123.39,71.51z M125.336,72.483
		c-0.348-0.203-0.658-0.316-0.932-0.342c-0.506-0.051-0.927,0.16-1.266,0.638c-0.241,0.343-0.318,0.717-0.234,1.124
		c0.084,0.41,0.315,0.756,0.688,1.042L125.336,72.483z M121.444,70.184l0.419,1.965l-0.41,0.578l-0.664-1.619L121.444,70.184z"/>
	<path fill="#774F9B" d="M126.612,67.071c0.196-0.072,0.439-0.116,0.732-0.133l-0.563-0.397l0.489-0.694l4.065,2.876
		c0.567,0.401,0.957,0.8,1.168,1.198c0.387,0.739,0.273,1.541-0.332,2.404c-0.343,0.48-0.737,0.808-1.183,0.984
		c-0.445,0.173-0.913,0.117-1.399-0.168l0.539-0.764c0.226,0.106,0.432,0.143,0.616,0.111c0.286-0.048,0.559-0.255,0.812-0.619
		c0.407-0.573,0.468-1.09,0.189-1.556c-0.168-0.274-0.559-0.625-1.18-1.053c0.122,0.313,0.164,0.614,0.125,0.902
		c-0.036,0.29-0.177,0.607-0.424,0.954c-0.34,0.484-0.811,0.784-1.41,0.903c-0.599,0.119-1.295-0.101-2.088-0.665
		c-0.749-0.527-1.207-1.122-1.367-1.786c-0.162-0.663-0.061-1.248,0.303-1.765C125.954,67.453,126.255,67.209,126.612,67.071z
		 M127.48,67.55c-0.426,0.036-0.764,0.232-1.012,0.583c-0.373,0.527-0.377,1.062-0.021,1.606c0.191,0.289,0.503,0.585,0.934,0.888
		c0.502,0.356,0.957,0.525,1.364,0.508c0.406-0.019,0.729-0.2,0.972-0.541c0.383-0.539,0.405-1.09,0.072-1.651
		c-0.188-0.318-0.467-0.604-0.834-0.864C128.401,67.687,127.91,67.51,127.48,67.55z"/>
	<path fill="#774F9B" d="M128.567,63.923l2.968,2.097c0.229,0.162,0.441,0.259,0.637,0.291c0.356,0.058,0.661-0.088,0.912-0.445
		c0.363-0.507,0.373-1.02,0.034-1.536c-0.179-0.278-0.487-0.569-0.922-0.879l-2.197-1.553l0.532-0.752l4.472,3.161l-0.504,0.71
		l-0.653-0.475c0.104,0.214,0.161,0.436,0.178,0.662c0.035,0.445-0.088,0.867-0.372,1.271c-0.444,0.626-0.957,0.9-1.543,0.823
		c-0.315-0.036-0.664-0.19-1.044-0.462l-3.039-2.147L128.567,63.923z"/>
	<path fill="#774F9B" d="M131.4,59.919l0.524-0.743l0.634,0.45c-0.095-0.335-0.14-0.609-0.139-0.823
		c0.006-0.37,0.121-0.711,0.344-1.025c0.25-0.358,0.54-0.581,0.87-0.675c0.188-0.051,0.412-0.058,0.68-0.019
		c-0.122-0.337-0.161-0.657-0.115-0.966c0.041-0.306,0.162-0.6,0.361-0.882c0.426-0.601,0.932-0.855,1.52-0.767
		c0.316,0.05,0.672,0.215,1.066,0.495l2.976,2.104l-0.551,0.779l-3.105-2.197c-0.297-0.209-0.556-0.28-0.773-0.209
		c-0.216,0.071-0.398,0.212-0.55,0.425c-0.207,0.296-0.29,0.62-0.244,0.973c0.05,0.353,0.305,0.691,0.767,1.019l2.599,1.838
		l-0.542,0.764l-2.917-2.062c-0.303-0.215-0.548-0.336-0.74-0.361c-0.287-0.034-0.542,0.105-0.765,0.418
		c-0.199,0.283-0.271,0.62-0.216,1.006c0.055,0.389,0.37,0.788,0.945,1.193l2.373,1.677l-0.531,0.751L131.4,59.919z"/>
	<path fill="#774F9B" d="M138.509,50.123c0.357-0.191,0.712-0.281,1.058-0.269c0.33,0.01,0.664,0.097,0.999,0.261
		c0.236,0.101,0.579,0.31,1.032,0.629l-2.3,3.253c0.468,0.307,0.904,0.458,1.319,0.456c0.417-0.006,0.772-0.217,1.067-0.632
		c0.275-0.391,0.364-0.794,0.269-1.208c-0.06-0.238-0.17-0.455-0.33-0.648l0.523-0.738c0.15,0.135,0.288,0.329,0.413,0.582
		c0.125,0.252,0.2,0.492,0.233,0.717c0.062,0.384,0.015,0.77-0.144,1.159c-0.083,0.212-0.204,0.431-0.365,0.658
		c-0.391,0.551-0.923,0.878-1.602,0.976c-0.677,0.098-1.379-0.11-2.107-0.626c-0.719-0.507-1.165-1.112-1.34-1.817
		c-0.176-0.705-0.041-1.369,0.403-1.993C137.86,50.568,138.149,50.314,138.509,50.123z M140.454,51.093
		c-0.345-0.197-0.658-0.312-0.929-0.338c-0.508-0.051-0.929,0.16-1.266,0.638c-0.243,0.342-0.319,0.717-0.235,1.125
		c0.084,0.408,0.315,0.756,0.689,1.042L140.454,51.093z"/>
	<path fill="#774F9B" d="M143.179,49.766c0.266,0.155,0.502,0.226,0.713,0.215c0.376-0.022,0.734-0.273,1.074-0.749
		c0.2-0.286,0.314-0.578,0.346-0.878c0.03-0.301-0.078-0.542-0.33-0.722c-0.192-0.136-0.399-0.151-0.625-0.05
		c-0.137,0.067-0.362,0.233-0.671,0.503l-0.581,0.5c-0.366,0.321-0.676,0.533-0.924,0.634c-0.434,0.184-0.831,0.149-1.188-0.104
		c-0.425-0.299-0.658-0.696-0.699-1.188c-0.044-0.494,0.117-1.003,0.486-1.523c0.483-0.683,1.029-1.036,1.639-1.058
		c0.383-0.011,0.717,0.087,1.004,0.297l-0.5,0.71c-0.182-0.105-0.378-0.153-0.592-0.143c-0.325,0.038-0.639,0.276-0.946,0.711
		c-0.205,0.291-0.307,0.548-0.306,0.775c0.004,0.225,0.094,0.4,0.271,0.527c0.193,0.137,0.419,0.148,0.675,0.033
		c0.148-0.064,0.328-0.189,0.539-0.371l0.477-0.421c0.521-0.457,0.907-0.737,1.16-0.838c0.402-0.154,0.806-0.088,1.219,0.203
		c0.396,0.282,0.632,0.679,0.705,1.187c0.074,0.512-0.109,1.078-0.552,1.703c-0.478,0.675-0.965,1.046-1.464,1.111
		c-0.502,0.067-0.982-0.047-1.438-0.342L143.179,49.766z"/>
</g>
<g>
	<path fill="#774F9B" d="M140.49,107.329c0.506,0.034,1.002,0.347,1.488,0.932l-0.769,0.513c-0.239-0.257-0.508-0.429-0.806-0.508
		c-0.295-0.082-0.63,0.002-0.997,0.251c-0.506,0.335-0.7,0.821-0.59,1.459c0.072,0.414,0.267,0.854,0.576,1.322
		c0.318,0.474,0.682,0.803,1.097,0.993c0.414,0.19,0.837,0.14,1.263-0.144c0.33-0.222,0.523-0.496,0.582-0.824
		c0.061-0.327,0.011-0.69-0.15-1.086l0.772-0.516c0.329,0.682,0.412,1.288,0.253,1.812c-0.16,0.525-0.514,0.973-1.061,1.334
		c-0.616,0.414-1.26,0.513-1.927,0.311c-0.667-0.205-1.226-0.646-1.677-1.322c-0.552-0.827-0.781-1.604-0.686-2.332
		c0.092-0.73,0.452-1.304,1.076-1.718C139.466,107.452,139.984,107.293,140.49,107.329z"/>
	<path fill="#774F9B" d="M142.507,105.619l2.09,3.131c0.16,0.241,0.329,0.411,0.504,0.513c0.325,0.193,0.676,0.161,1.051-0.09
		c0.537-0.355,0.737-0.847,0.604-1.471c-0.072-0.334-0.262-0.731-0.569-1.192l-1.543-2.315l0.791-0.528l3.146,4.713l-0.749,0.501
		l-0.454-0.7c0.018,0.242-0.007,0.479-0.075,0.7c-0.131,0.448-0.407,0.812-0.83,1.091c-0.662,0.443-1.259,0.516-1.798,0.226
		c-0.291-0.153-0.57-0.431-0.838-0.833l-2.139-3.204L142.507,105.619z"/>
	<path fill="#774F9B" d="M149.728,100.989c0.417-0.053,0.791-0.005,1.121,0.135c0.315,0.13,0.605,0.34,0.868,0.619
		c0.191,0.188,0.447,0.521,0.765,0.994l-3.43,2.287c0.335,0.47,0.705,0.778,1.107,0.93c0.403,0.149,0.824,0.077,1.262-0.214
		c0.412-0.274,0.647-0.631,0.711-1.067c0.028-0.253,0.003-0.5-0.078-0.746l0.778-0.52c0.095,0.185,0.156,0.424,0.181,0.715
		c0.028,0.288,0.013,0.549-0.039,0.778c-0.083,0.394-0.272,0.751-0.568,1.068c-0.159,0.174-0.356,0.339-0.598,0.499
		c-0.581,0.389-1.219,0.505-1.908,0.349c-0.69-0.157-1.293-0.621-1.806-1.39c-0.504-0.756-0.711-1.507-0.619-2.251
		c0.096-0.747,0.47-1.336,1.129-1.777C148.937,101.178,149.312,101.04,149.728,100.989z M151.247,102.65
		c-0.263-0.322-0.518-0.547-0.774-0.677c-0.468-0.235-0.954-0.188-1.456,0.147c-0.362,0.243-0.579,0.575-0.648,1.004
		c-0.067,0.424,0.024,0.843,0.282,1.257L151.247,102.65z"/>
	<path fill="#774F9B" d="M150.574,97.705l0.806-0.539l0.601,0.897l-0.807,0.54L150.574,97.705z M151.759,99.479l0.807-0.539
		l3.129,4.69l-0.806,0.539L151.759,99.479z"/>
	<path fill="#774F9B" d="M152.6,96.354l0.791-0.529l4.315,6.464l-0.792,0.532L152.6,96.354z"/>
	<path fill="#774F9B" d="M154.603,95.016l0.792-0.527l4.314,6.467l-0.793,0.527L154.603,95.016z"/>
	<path fill="#774F9B" d="M160.754,93.634c0.414-0.051,0.788-0.005,1.116,0.134c0.317,0.133,0.608,0.341,0.871,0.622
		c0.191,0.187,0.447,0.515,0.763,0.993l-3.428,2.288c0.334,0.47,0.702,0.781,1.105,0.928c0.403,0.151,0.825,0.079,1.263-0.215
		c0.411-0.271,0.648-0.629,0.71-1.065c0.03-0.251,0.003-0.501-0.078-0.749l0.779-0.519c0.096,0.186,0.153,0.425,0.182,0.716
		c0.026,0.289,0.014,0.552-0.041,0.779c-0.08,0.395-0.271,0.749-0.569,1.066c-0.157,0.174-0.355,0.34-0.595,0.501
		c-0.582,0.388-1.22,0.504-1.911,0.35c-0.688-0.157-1.29-0.622-1.803-1.39c-0.507-0.755-0.712-1.507-0.619-2.251
		c0.092-0.746,0.469-1.339,1.127-1.779C159.96,93.822,160.334,93.685,160.754,93.634z M162.271,95.296
		c-0.262-0.323-0.519-0.548-0.771-0.675c-0.471-0.238-0.957-0.188-1.461,0.146c-0.359,0.241-0.574,0.573-0.645,0.999
		c-0.07,0.427,0.023,0.848,0.28,1.263L162.271,95.296z"/>
	<path fill="#774F9B" d="M162.047,90.679l0.801-0.534l0.878,1.316l0.753-0.5l0.432,0.646l-0.752,0.502l2.054,3.076
		c0.107,0.166,0.235,0.238,0.386,0.22c0.085-0.01,0.197-0.063,0.341-0.156c0.039-0.027,0.08-0.054,0.122-0.088
		c0.042-0.031,0.092-0.069,0.144-0.115l0.421,0.63c-0.073,0.085-0.157,0.168-0.245,0.246c-0.091,0.078-0.195,0.155-0.31,0.229
		c-0.369,0.246-0.684,0.317-0.942,0.219c-0.256-0.101-0.487-0.301-0.688-0.604l-2.082-3.123l-0.639,0.426l-0.431-0.646l0.638-0.428
		L162.047,90.679z"/>
	<path fill="#774F9B" d="M164.552,89.009l0.8-0.536l0.878,1.318l0.753-0.503l0.433,0.647l-0.755,0.501l2.056,3.077
		c0.109,0.164,0.237,0.238,0.386,0.219c0.084-0.01,0.198-0.061,0.341-0.156c0.039-0.025,0.079-0.053,0.122-0.084
		c0.042-0.032,0.091-0.072,0.145-0.119l0.417,0.629c-0.07,0.088-0.152,0.17-0.242,0.247s-0.194,0.155-0.308,0.231
		c-0.371,0.245-0.685,0.319-0.944,0.217c-0.257-0.101-0.488-0.303-0.688-0.604l-2.083-3.121l-0.636,0.426l-0.435-0.649l0.639-0.424
		L164.552,89.009z"/>
	<path fill="#774F9B" d="M170.773,86.944c0.418-0.049,0.792-0.005,1.12,0.135c0.317,0.135,0.605,0.34,0.871,0.622
		c0.19,0.188,0.446,0.518,0.763,0.992l-3.43,2.287c0.334,0.473,0.703,0.782,1.107,0.932c0.401,0.149,0.824,0.08,1.264-0.216
		c0.409-0.275,0.647-0.629,0.707-1.067c0.032-0.248,0.005-0.499-0.079-0.746l0.782-0.521c0.093,0.188,0.153,0.426,0.181,0.718
		c0.027,0.289,0.012,0.549-0.039,0.78c-0.085,0.395-0.273,0.748-0.571,1.065c-0.157,0.173-0.356,0.34-0.595,0.499
		c-0.582,0.391-1.219,0.506-1.913,0.35c-0.685-0.156-1.287-0.619-1.802-1.387c-0.504-0.759-0.712-1.507-0.617-2.254
		c0.091-0.744,0.468-1.339,1.127-1.778C169.98,87.133,170.356,86.998,170.773,86.944z M172.291,88.608
		c-0.262-0.322-0.517-0.549-0.771-0.675c-0.47-0.238-0.956-0.189-1.461,0.147c-0.358,0.239-0.573,0.574-0.644,1
		c-0.068,0.426,0.025,0.845,0.279,1.259L172.291,88.608z"/>
	<path fill="#774F9B" d="M177.98,82.16c0.199-0.004,0.46,0.042,0.787,0.145l-1.592-2.382l0.762-0.507l4.331,6.486l-0.713,0.477
		l-0.438-0.657c0.011,0.415-0.067,0.769-0.231,1.065c-0.168,0.297-0.411,0.554-0.736,0.771c-0.523,0.35-1.122,0.43-1.802,0.244
		c-0.677-0.186-1.26-0.645-1.749-1.379c-0.459-0.687-0.681-1.398-0.668-2.134c0.014-0.739,0.345-1.322,0.993-1.754
		C177.284,82.295,177.636,82.17,177.98,82.16z M178.57,86.874c0.441,0.2,0.895,0.142,1.365-0.172
		c0.364-0.244,0.56-0.603,0.584-1.074c0.025-0.472-0.159-1.003-0.554-1.593c-0.398-0.595-0.812-0.954-1.246-1.08
		c-0.434-0.125-0.827-0.067-1.186,0.17c-0.396,0.264-0.616,0.633-0.658,1.101c-0.045,0.473,0.134,1.002,0.528,1.595
		C177.741,86.326,178.129,86.676,178.57,86.874z"/>
	<path fill="#774F9B" d="M183.306,78.585c0.417-0.053,0.789-0.007,1.12,0.132c0.316,0.133,0.605,0.342,0.871,0.624
		c0.191,0.186,0.445,0.516,0.764,0.989l-3.429,2.291c0.334,0.469,0.701,0.777,1.105,0.929c0.401,0.149,0.823,0.08,1.264-0.215
		c0.409-0.274,0.646-0.63,0.71-1.065c0.029-0.251,0.002-0.502-0.082-0.749L186.411,81c0.095,0.188,0.153,0.426,0.181,0.718
		c0.027,0.289,0.014,0.549-0.039,0.778c-0.083,0.396-0.273,0.75-0.57,1.071c-0.159,0.17-0.355,0.337-0.595,0.495
		c-0.584,0.391-1.221,0.506-1.91,0.35c-0.692-0.156-1.292-0.619-1.806-1.387c-0.505-0.759-0.711-1.509-0.618-2.254
		c0.093-0.746,0.468-1.338,1.128-1.778C182.516,78.772,182.89,78.635,183.306,78.585z M184.823,80.246
		c-0.259-0.322-0.516-0.547-0.772-0.674c-0.468-0.238-0.954-0.19-1.457,0.148c-0.361,0.239-0.576,0.572-0.646,0.998
		c-0.069,0.423,0.025,0.847,0.277,1.261L184.823,80.246z"/>
	<path fill="#774F9B" d="M187.233,73.696c0.006-0.394,0.273-0.77,0.801-1.119c0.048-0.034,0.101-0.068,0.156-0.099
		c0.057-0.031,0.119-0.07,0.19-0.108l0.482,0.722c-0.089,0.05-0.15,0.087-0.189,0.11c-0.038,0.023-0.072,0.046-0.105,0.068
		c-0.244,0.161-0.347,0.32-0.311,0.479c0.036,0.154,0.225,0.489,0.565,0.999l0.79-0.53l0.418,0.625l-0.792,0.528l2.714,4.07
		l-0.784,0.522l-2.715-4.069l-0.654,0.439l-0.418-0.625l0.657-0.441l-0.493-0.739C187.339,74.193,187.233,73.917,187.233,73.696z"/>
	<path fill="#774F9B" d="M190.352,73.696l0.754-0.502l0.543,0.813c-0.045-0.2-0.022-0.493,0.065-0.882
		c0.089-0.386,0.293-0.685,0.604-0.895c0.016-0.009,0.041-0.026,0.078-0.045c0.036-0.02,0.1-0.054,0.192-0.104l0.558,0.836
		c-0.054,0.023-0.098,0.044-0.141,0.069c-0.042,0.024-0.085,0.051-0.132,0.082c-0.401,0.267-0.621,0.6-0.664,0.999
		c-0.043,0.4,0.046,0.771,0.27,1.102l1.811,2.712l-0.794,0.529L190.352,73.696z"/>
	<path fill="#774F9B" d="M194.123,71.178l2.09,3.13c0.161,0.24,0.328,0.411,0.504,0.515c0.324,0.19,0.677,0.162,1.05-0.089
		c0.537-0.359,0.738-0.85,0.603-1.471c-0.069-0.337-0.259-0.733-0.566-1.192l-1.544-2.316l0.791-0.529l3.146,4.715l-0.747,0.497
		l-0.457-0.701c0.021,0.249-0.006,0.481-0.072,0.703c-0.134,0.445-0.409,0.809-0.833,1.091c-0.66,0.439-1.259,0.515-1.797,0.225
		c-0.29-0.154-0.57-0.431-0.838-0.832l-2.138-3.205L194.123,71.178z"/>
	<path fill="#774F9B" d="M197.175,66.611l0.808-0.54l0.599,0.9l-0.806,0.537L197.175,66.611z M198.36,68.385l0.804-0.537
		l3.133,4.691l-0.808,0.537L198.36,68.385z"/>
	<path fill="#774F9B" d="M199.629,65.604l0.802-0.536l0.876,1.316l0.754-0.501l0.43,0.646l-0.751,0.503l2.053,3.076
		c0.11,0.164,0.238,0.239,0.389,0.219c0.081-0.01,0.196-0.062,0.339-0.159c0.039-0.024,0.078-0.053,0.121-0.085
		c0.045-0.028,0.09-0.068,0.144-0.115l0.421,0.629c-0.072,0.086-0.154,0.17-0.245,0.248c-0.091,0.077-0.192,0.152-0.307,0.229
		c-0.371,0.247-0.684,0.32-0.943,0.219c-0.259-0.104-0.487-0.304-0.69-0.604l-2.082-3.121l-0.636,0.423l-0.432-0.647l0.638-0.426
		L199.629,65.604z"/>
	<path fill="#774F9B" d="M205.482,68.276c0.199,0.248,0.401,0.406,0.606,0.473c0.376,0.118,0.813,0.011,1.317-0.325
		c0.3-0.2,0.519-0.439,0.662-0.72c0.143-0.279,0.125-0.551-0.053-0.819c-0.136-0.202-0.331-0.296-0.584-0.282
		c-0.159,0.015-0.437,0.091-0.837,0.236l-0.745,0.267c-0.477,0.173-0.854,0.265-1.129,0.27c-0.488,0.017-0.858-0.164-1.11-0.542
		c-0.297-0.446-0.377-0.917-0.232-1.408c0.14-0.494,0.486-0.924,1.037-1.29c0.719-0.482,1.377-0.619,1.973-0.415
		c0.374,0.132,0.664,0.351,0.86,0.66l-0.75,0.499c-0.134-0.167-0.306-0.288-0.518-0.356c-0.323-0.083-0.718,0.03-1.175,0.333
		c-0.307,0.207-0.501,0.419-0.584,0.638c-0.08,0.219-0.058,0.421,0.067,0.609c0.136,0.205,0.348,0.301,0.637,0.283
		c0.17-0.006,0.391-0.062,0.66-0.159L206.202,66c0.674-0.25,1.152-0.375,1.435-0.378c0.444-0.003,0.81,0.213,1.099,0.646
		c0.28,0.421,0.362,0.891,0.243,1.411s-0.509,1.001-1.168,1.442c-0.711,0.472-1.319,0.648-1.826,0.527
		c-0.51-0.121-0.929-0.408-1.264-0.864L205.482,68.276z"/>
	<path fill="#774F9B" d="M145.296,114.97c0.418-0.051,0.79-0.005,1.12,0.135c0.316,0.133,0.608,0.339,0.869,0.621
		c0.19,0.185,0.447,0.517,0.762,0.991l-3.428,2.288c0.336,0.47,0.706,0.783,1.108,0.932c0.401,0.149,0.825,0.077,1.264-0.216
		c0.41-0.272,0.649-0.63,0.708-1.067c0.03-0.251,0.005-0.499-0.078-0.746l0.78-0.521c0.092,0.186,0.153,0.426,0.182,0.715
		c0.025,0.289,0.012,0.552-0.041,0.78c-0.082,0.395-0.271,0.751-0.57,1.069c-0.158,0.173-0.356,0.34-0.594,0.495
		c-0.584,0.394-1.22,0.507-1.913,0.35c-0.688-0.156-1.288-0.616-1.803-1.387c-0.507-0.756-0.712-1.507-0.619-2.251
		c0.094-0.747,0.47-1.339,1.129-1.779C144.506,115.156,144.879,115.02,145.296,114.97z M146.814,116.633
		c-0.259-0.325-0.52-0.549-0.772-0.677c-0.47-0.235-0.954-0.188-1.458,0.149c-0.362,0.238-0.577,0.571-0.646,0.997
		c-0.069,0.426,0.024,0.845,0.278,1.262L146.814,116.633z"/>
	<path fill="#774F9B" d="M146.591,112.017l0.803-0.537l0.877,1.318l0.755-0.502l0.43,0.646l-0.752,0.502l2.053,3.075
		c0.108,0.166,0.238,0.238,0.389,0.22c0.082-0.007,0.196-0.062,0.34-0.157c0.037-0.023,0.078-0.055,0.12-0.084
		c0.043-0.031,0.091-0.07,0.145-0.118l0.421,0.629c-0.074,0.087-0.156,0.171-0.246,0.247c-0.09,0.077-0.194,0.155-0.308,0.229
		c-0.369,0.248-0.684,0.32-0.942,0.222c-0.257-0.104-0.487-0.304-0.689-0.607l-2.084-3.122l-0.638,0.428l-0.433-0.647l0.642-0.426
		L146.591,112.017z"/>
	<path fill="#774F9B" d="M151.174,108.328l0.79-0.527l4.315,6.465l-0.792,0.527L151.174,108.328z"/>
	<path fill="#774F9B" d="M157.32,106.944c0.418-0.051,0.79-0.005,1.123,0.137c0.315,0.131,0.605,0.34,0.868,0.619
		c0.19,0.188,0.447,0.517,0.765,0.994l-3.431,2.287c0.334,0.47,0.705,0.777,1.105,0.93c0.402,0.151,0.827,0.077,1.265-0.215
		c0.412-0.274,0.647-0.628,0.709-1.068c0.032-0.248,0.004-0.497-0.077-0.746l0.778-0.519c0.095,0.186,0.155,0.424,0.18,0.716
		c0.027,0.289,0.017,0.549-0.038,0.779c-0.081,0.396-0.271,0.752-0.57,1.067c-0.158,0.175-0.355,0.34-0.594,0.498
		c-0.585,0.391-1.221,0.506-1.91,0.349c-0.691-0.156-1.292-0.621-1.805-1.389c-0.506-0.756-0.711-1.507-0.619-2.251
		c0.094-0.744,0.47-1.337,1.13-1.777C156.529,107.134,156.904,106.996,157.32,106.944z M158.84,108.607
		c-0.261-0.322-0.519-0.547-0.771-0.674c-0.47-0.238-0.958-0.188-1.458,0.146c-0.364,0.241-0.577,0.576-0.646,0.999
		c-0.07,0.427,0.023,0.848,0.279,1.263L158.84,108.607z M155.937,104.94l-0.325,2.056l-0.609,0.407l-0.045-1.81L155.937,104.94z"/>
	<path fill="#774F9B" d="M162.085,103.854c0.215,0.005,0.469,0.051,0.756,0.145l-0.396-0.595l0.728-0.486l2.862,4.288
		c0.4,0.597,0.626,1.127,0.684,1.592c0.099,0.856-0.306,1.589-1.217,2.198c-0.505,0.337-1.007,0.509-1.505,0.509
		c-0.497,0.005-0.925-0.223-1.292-0.68l0.807-0.539c0.18,0.188,0.363,0.298,0.556,0.337c0.295,0.059,0.634-0.041,1.015-0.294
		c0.605-0.405,0.857-0.884,0.76-1.436c-0.056-0.327-0.308-0.812-0.75-1.454c0.001,0.347-0.069,0.652-0.213,0.917
		c-0.142,0.266-0.397,0.521-0.763,0.765c-0.509,0.339-1.073,0.454-1.697,0.347c-0.625-0.106-1.215-0.579-1.771-1.416
		c-0.529-0.788-0.748-1.534-0.66-2.232c0.091-0.7,0.407-1.232,0.948-1.594C161.305,103.978,161.686,103.854,162.085,103.854z
		 M162.748,104.64c-0.427-0.125-0.827-0.061-1.197,0.188c-0.555,0.371-0.762,0.884-0.615,1.543c0.077,0.352,0.267,0.752,0.569,1.205
		c0.354,0.529,0.729,0.862,1.13,0.997c0.399,0.135,0.78,0.079,1.144-0.16c0.565-0.38,0.791-0.902,0.681-1.569
		c-0.064-0.378-0.226-0.759-0.484-1.146C163.583,105.114,163.177,104.762,162.748,104.64z"/>
	<path fill="#774F9B" d="M165.143,101.54l2.089,3.128c0.16,0.241,0.33,0.412,0.505,0.516c0.326,0.189,0.675,0.161,1.051-0.09
		c0.538-0.358,0.738-0.847,0.604-1.47c-0.071-0.335-0.259-0.732-0.566-1.195l-1.547-2.313l0.794-0.53l3.145,4.716l-0.748,0.498
		l-0.456-0.701c0.02,0.245-0.005,0.481-0.072,0.705c-0.134,0.444-0.409,0.808-0.833,1.091c-0.659,0.441-1.259,0.516-1.798,0.224
		c-0.289-0.153-0.568-0.431-0.838-0.833l-2.138-3.204L165.143,101.54z"/>
	<path fill="#774F9B" d="M169.363,98.722l0.785-0.521l0.447,0.667c0.032-0.356,0.091-0.641,0.171-0.846
		c0.143-0.356,0.38-0.64,0.711-0.86c0.377-0.254,0.74-0.363,1.092-0.328c0.201,0.019,0.425,0.095,0.662,0.229
		c0.009-0.368,0.092-0.693,0.248-0.973c0.156-0.28,0.382-0.521,0.679-0.719c0.633-0.423,1.219-0.48,1.754-0.177
		c0.287,0.166,0.57,0.457,0.847,0.874l2.093,3.137l-0.82,0.549l-2.186-3.276c-0.21-0.312-0.433-0.474-0.667-0.489
		c-0.239-0.015-0.466,0.056-0.693,0.207c-0.309,0.209-0.509,0.492-0.594,0.851c-0.084,0.356,0.035,0.779,0.359,1.267l1.83,2.742
		l-0.808,0.537l-2.052-3.075c-0.215-0.322-0.405-0.529-0.581-0.624c-0.268-0.14-0.566-0.101-0.895,0.118
		c-0.301,0.2-0.492,0.499-0.584,0.893c-0.092,0.396,0.067,0.896,0.474,1.505l1.668,2.5l-0.791,0.529L169.363,98.722z"/>
	<path fill="#774F9B" d="M179.873,91.898c0.416-0.051,0.79-0.008,1.119,0.134c0.317,0.133,0.606,0.34,0.869,0.621
		c0.194,0.188,0.448,0.519,0.766,0.992l-3.43,2.288c0.336,0.471,0.704,0.782,1.104,0.932c0.405,0.149,0.826,0.076,1.269-0.217
		c0.407-0.272,0.644-0.628,0.705-1.064c0.032-0.252,0.005-0.501-0.077-0.749l0.778-0.52c0.096,0.188,0.156,0.426,0.182,0.715
		c0.028,0.292,0.013,0.551-0.039,0.78c-0.085,0.396-0.272,0.753-0.571,1.069c-0.155,0.171-0.356,0.339-0.596,0.498
		c-0.582,0.39-1.22,0.505-1.909,0.349s-1.292-0.619-1.802-1.389c-0.509-0.757-0.714-1.508-0.62-2.253
		c0.093-0.745,0.469-1.337,1.128-1.778C179.081,92.087,179.456,91.951,179.873,91.898z M181.392,93.561
		c-0.263-0.322-0.519-0.545-0.771-0.674c-0.471-0.24-0.956-0.189-1.459,0.146c-0.363,0.242-0.576,0.571-0.646,1.001
		c-0.07,0.423,0.022,0.846,0.28,1.261L181.392,93.561z"/>
	<path fill="#774F9B" d="M184.516,93.29c0.202,0.247,0.405,0.404,0.608,0.472c0.374,0.116,0.812,0.01,1.316-0.325
		c0.3-0.2,0.521-0.441,0.663-0.718c0.143-0.282,0.125-0.557-0.054-0.822c-0.135-0.202-0.329-0.292-0.582-0.279
		c-0.156,0.011-0.438,0.094-0.839,0.235l-0.744,0.268c-0.476,0.175-0.853,0.263-1.126,0.269c-0.49,0.018-0.861-0.163-1.112-0.541
		c-0.297-0.445-0.377-0.915-0.236-1.411c0.145-0.493,0.488-0.923,1.039-1.288c0.72-0.481,1.378-0.619,1.973-0.417
		c0.376,0.133,0.663,0.353,0.861,0.663l-0.749,0.498c-0.132-0.167-0.307-0.285-0.519-0.356c-0.325-0.083-0.716,0.028-1.177,0.336
		c-0.304,0.202-0.499,0.418-0.58,0.636c-0.083,0.22-0.06,0.425,0.065,0.609c0.137,0.203,0.349,0.299,0.638,0.285
		c0.167-0.009,0.389-0.063,0.658-0.159l0.62-0.231c0.672-0.247,1.149-0.373,1.433-0.375c0.443-0.005,0.81,0.212,1.098,0.645
		c0.281,0.419,0.361,0.891,0.243,1.411s-0.509,1.002-1.168,1.439c-0.709,0.475-1.318,0.651-1.826,0.529
		c-0.509-0.122-0.93-0.408-1.263-0.865L184.516,93.29z"/>
</g>
<g>
	<defs>
		<rect id="SVGID_1_" y="-0.103" width="225.371" height="156.703"/>
	</defs>
	<clipPath id="SVGID_2_">
		<use xlink:href="#SVGID_1_"  overflow="visible"/>
	</clipPath>
	<g clip-path="url(#SVGID_2_)">
		<path fill="#774F9B" d="M-66.674,93.784c0,0,11.777,9.07,22.461,15.153c6.82,3.872,23.179,7.363,26.079,13.434
			c4.092,8.603-0.915,17.958-4.749,18.453c-3.831,0.508-14.284,4.563-27.171-4.97c-12.892-9.537-26.939-33.308-29.104-35.229
			c-2.578-2.305-1.935-4.567-1.935-4.567s-3.049-2.343-4.148-4.53c-0.76-1.521-1.954-4.562,1.365-2.826
			c3.321,1.729,6.478,1.498,7.845,1.772C-74.39,90.805-72.307,90.634-66.674,93.784z"/>
		<path fill="#ED8300" d="M81.877,73.976c0,0,2.806-3.947,12.608-14.628c9.396-10.241,24.861-40.266,29.522-64.818
			c2.104-11.034,1.682-14.541,1.18-16.83c-0.489-2.281-4.352,2.063-7.113,5.345c-2.775,3.294-21.307,37.535-28.907,48.875
			c-7.594,11.324-24.885,27.661-17.999,36.758c-0.118,0.226,0.131,3.761,1.956,4.665C74.949,74.248,80.943,78.071,81.877,73.976z"/>
		<path fill="#A9C812" d="M128.516,98.052c0,0,24.954-14.063,31.261-20.054c6.311-5.991,27.189-37.44,27.943-39.449
			c0,0-0.143-2.624-1.114-2.52c-0.988,0.096-28.367,33.457-31.844,36.296c-3.478,2.82-26.345,19.22-27.609,22.665
			c-1.259,3.441-0.196,3.796-1.556,8.01C125.597,103,126.014,100.938,128.516,98.052z"/>
		<path fill="#F0E400" d="M16.861-34.741c0,0-2.745,0.85-2.86,0.427c1.487,5.008,1.333,14.346,1.173,14.578
			c-4.276,6.16-9.925,42.445-9.194,56.896C6.711,51.61,21.043,56.144,23.522,59.97c2.484,3.825,3.763,6.075,3.944,6.05
			c0.331-3.016,0.138-4.959,1.452-7.134c1.305-2.167,1.749-1.458,9.196-7.75c7.45-6.299,0.452-46.221-0.82-54.914
			c-1.276-8.7-6.636-15.704-6.636-15.704c-2.048-3.147-0.453-13.269-0.453-13.269l-1.74-1.804l-5.147-1.653L16.861-34.741z"/>
		<path fill="#C3181C" d="M149.484,123.916c0.636-0.483,3.423-3.592,13.061-6.927c9.638-3.328,36.324-11.707,41.548-12.302
			c5.228-0.594,13.26-1.293,13.405-0.445c0.145,0.852,1.359,1.266,0.711,1.942c-0.642,0.668-28.27,15.681-36.913,20.099
			c-8.655,4.414-21.531,12.61-27.06,10.588c-5.535-2.019-7.296-2.098-7.296-2.098s-9.961-0.462-12.453-0.096
			c-2.488,0.368-2.769-1.306-2.769-1.306s9.8-1.95,13.447-2.648C145.195,130.781,147.697,125.286,149.484,123.916z"/>
		<path fill="#B17F4A" d="M13.749,75.017c0,0,9.874-12.479,28.388-7.248c21.037,5.929,74.877,28.897,88.597,52.559
			c13.723,23.67-5.123,58.655-45.04,65.885c-39.906,7.239-101.381-2.025-101.404-23.824C-15.744,140.592,2.023,83.03,13.749,75.017z
			"/>
		<g>
			<g>
				<path fill="#FFFFFF" d="M16.754,100.669h0.636l-0.022,5.731l2.439,0.002l-0.005,0.616l-3.071-0.015L16.754,100.669z"/>
				<path fill="#FFFFFF" d="M20.837,100.681l3.627,0.018v0.618l-2.997-0.009l-0.01,1.988l2.974,0.01v0.618l-2.974-0.012
					l-0.012,2.488l2.972,0.014l-0.006,0.624l-3.601-0.015L20.837,100.681z"/>
				<path fill="#FFFFFF" d="M24.886,105.858l0.537-0.32c0.379,0.697,0.817,1.047,1.308,1.052c0.215,0,0.416-0.05,0.606-0.145
					c0.186-0.099,0.325-0.23,0.425-0.4c0.099-0.165,0.154-0.344,0.149-0.526c0.005-0.215-0.066-0.422-0.213-0.629
					c-0.194-0.279-0.554-0.624-1.083-1.019c-0.524-0.404-0.853-0.691-0.979-0.868c-0.226-0.307-0.335-0.63-0.335-0.974
					c0-0.279,0.066-0.522,0.201-0.751c0.134-0.229,0.318-0.407,0.565-0.537c0.233-0.128,0.496-0.195,0.781-0.195
					c0.299,0,0.574,0.08,0.836,0.229c0.259,0.148,0.531,0.423,0.824,0.818l-0.521,0.386c-0.236-0.309-0.44-0.521-0.608-0.62
					c-0.172-0.105-0.349-0.153-0.553-0.153c-0.25-0.008-0.464,0.074-0.625,0.227c-0.158,0.151-0.242,0.345-0.242,0.573
					c0,0.137,0.023,0.276,0.084,0.401c0.054,0.133,0.164,0.266,0.311,0.422c0.085,0.079,0.357,0.288,0.812,0.638
					c0.553,0.409,0.928,0.771,1.131,1.086c0.195,0.317,0.305,0.631,0.3,0.951c-0.002,0.462-0.178,0.864-0.524,1.199
					c-0.354,0.335-0.779,0.503-1.284,0.503c-0.38-0.003-0.732-0.105-1.04-0.315C25.435,106.687,25.15,106.342,24.886,105.858z"/>
			</g>
			<path fill="#FFFFFF" d="M31.438,95.767l1.788,0.01l-0.052,12.077c-0.006,1.856-0.155,3.149-0.445,3.877
				c-0.292,0.723-0.775,1.303-1.453,1.73c-0.672,0.432-1.487,0.646-2.448,0.642c-0.723,0-1.431-0.146-2.13-0.429
				c-0.7-0.284-1.475-0.78-2.323-1.49l0.956-1.421c0.931,0.667,1.709,1.129,2.32,1.398c0.409,0.184,0.808,0.274,1.199,0.274
				c0.504,0,0.971-0.149,1.397-0.454c0.414-0.309,0.713-0.721,0.878-1.229c0.173-0.508,0.256-1.5,0.261-2.969L31.438,95.767z"/>
			<path fill="#FFFFFF" d="M41.229,95.81l5.673,12.295l-1.324-0.005l-1.914-4.045l-5.288-0.024l-1.934,4.028h-1.365l5.851-12.253
				L41.229,95.81z M41.065,98.413l-2.124,4.433l4.197,0.018L41.065,98.413z"/>
			<path fill="#FFFFFF" d="M48.925,95.837l2.444,0.01c1.36,0.009,2.286,0.06,2.769,0.176c0.727,0.175,1.317,0.53,1.771,1.084
				c0.453,0.553,0.679,1.225,0.679,2.029c-0.006,0.663-0.167,1.259-0.48,1.763c-0.315,0.503-0.771,0.888-1.352,1.138
				c-0.582,0.265-1.393,0.391-2.423,0.391l4.392,5.714h-1.515l-4.396-5.721l-0.691-0.003l-0.02,5.699l-1.229-0.002L48.925,95.837z
				 M50.143,97.041l-0.017,4.174l2.114,0.03c0.818,0,1.424-0.077,1.823-0.229c0.39-0.154,0.698-0.402,0.92-0.747
				c0.219-0.337,0.334-0.722,0.336-1.141c0-0.417-0.108-0.79-0.332-1.127c-0.222-0.335-0.513-0.581-0.872-0.722
				c-0.364-0.149-0.967-0.222-1.806-0.224L50.143,97.041z"/>
			<path fill="#FFFFFF" d="M59.179,108.157l0.044-12.274l2.548,0.006c1.837,0.011,3.169,0.16,3.993,0.457
				c1.188,0.423,2.118,1.152,2.784,2.181c0.666,1.03,1.001,2.258,0.995,3.687c-0.004,1.229-0.277,2.313-0.816,3.245
				c-0.526,0.929-1.221,1.621-2.077,2.059c-0.85,0.44-2.036,0.66-3.562,0.655L59.179,108.157z M60.362,106.996l1.414,0.008
				c1.7,0.008,2.873-0.097,3.534-0.299c0.925-0.303,1.651-0.837,2.182-1.611c0.537-0.784,0.799-1.737,0.808-2.864
				c0.001-1.185-0.28-2.201-0.848-3.038c-0.571-0.842-1.366-1.424-2.387-1.737c-0.771-0.234-2.034-0.357-3.802-0.364H60.4
				L60.362,106.996z"/>
			<path fill="#FFFFFF" d="M71.77,95.932l1.225,0.005l-0.052,12.276l-1.222-0.005L71.77,95.932z"/>
			<path fill="#FFFFFF" d="M75.769,108.222l0.053-12.273h0.262l8.133,9.442l0.039-9.409l1.208,0.007l-0.048,12.272h-0.278
				l-8.064-9.327l-0.04,9.297L75.769,108.222z"/>
			<path fill="#FFFFFF" d="M87.14,105.98l1.049-0.621c0.728,1.354,1.572,2.034,2.535,2.037c0.413,0,0.797-0.089,1.163-0.282
				c0.361-0.192,0.639-0.444,0.83-0.768c0.185-0.327,0.282-0.667,0.284-1.028c0-0.414-0.136-0.809-0.408-1.211
				c-0.385-0.544-1.08-1.204-2.095-1.975c-1.022-0.778-1.657-1.339-1.904-1.686c-0.43-0.583-0.646-1.206-0.642-1.878
				c0-0.529,0.131-1.023,0.383-1.463c0.26-0.44,0.619-0.782,1.091-1.03c0.464-0.259,0.97-0.377,1.515-0.377
				c0.581,0.003,1.114,0.147,1.62,0.439c0.501,0.288,1.032,0.816,1.598,1.588l-1.011,0.756c-0.461-0.618-0.847-1.025-1.175-1.218
				c-0.324-0.197-0.679-0.293-1.063-0.297c-0.491-0.001-0.901,0.147-1.212,0.438c-0.321,0.309-0.476,0.672-0.476,1.12
				c-0.002,0.258,0.053,0.52,0.163,0.772c0.107,0.248,0.309,0.525,0.603,0.818c0.162,0.16,0.69,0.571,1.578,1.235
				c1.064,0.785,1.793,1.485,2.181,2.103c0.39,0.608,0.587,1.232,0.585,1.846c-0.004,0.893-0.345,1.665-1.022,2.314
				c-0.68,0.657-1.5,0.98-2.474,0.98c-0.745-0.002-1.411-0.212-2.02-0.606C88.211,107.584,87.65,106.917,87.14,105.98z"/>
			<g>
				<path fill="#FFFFFF" d="M16.268,129.16l0.034-7.783l1.618,0.002c1.159,0.01,2.006,0.101,2.533,0.293
					c0.751,0.271,1.341,0.724,1.759,1.386c0.424,0.649,0.636,1.435,0.63,2.33c0,0.785-0.171,1.475-0.511,2.059
					c-0.338,0.595-0.779,1.028-1.323,1.31c-0.535,0.28-1.291,0.418-2.263,0.418L16.268,129.16z M17.015,128.43l0.904,0.002
					c1.075,0.007,1.823-0.058,2.239-0.192c0.59-0.19,1.045-0.528,1.382-1.021c0.341-0.491,0.508-1.098,0.512-1.815
					c0.003-0.754-0.173-1.398-0.536-1.926c-0.361-0.537-0.864-0.906-1.516-1.105c-0.486-0.147-1.287-0.231-2.404-0.231h-0.549
					L17.015,128.43z"/>
				<path fill="#FFFFFF" d="M24.375,121.407l4.46,0.016v0.763l-3.688-0.015l-0.014,2.441l3.658,0.018v0.758l-3.66-0.017
					l-0.011,3.061l3.658,0.017l-0.008,0.761l-4.43-0.015L24.375,121.407z"/>
			</g>
			<g>
				<path fill="#FFFFFF" d="M31.125,126.883l1.482-0.879c1.027,1.917,2.233,2.882,3.592,2.887c0.583,0,1.133-0.132,1.647-0.402
					c0.512-0.271,0.901-0.633,1.167-1.082c0.273-0.458,0.412-0.941,0.412-1.453c0-0.584-0.191-1.155-0.587-1.719
					c-0.535-0.772-1.528-1.702-2.963-2.8c-1.445-1.101-2.344-1.893-2.694-2.384c-0.612-0.816-0.914-1.709-0.905-2.666
					c0-0.749,0.182-1.44,0.553-2.059c0.356-0.619,0.872-1.112,1.529-1.461c0.661-0.359,1.376-0.535,2.147-0.535
					c0.814,0.003,1.582,0.207,2.292,0.621c0.714,0.405,1.459,1.156,2.258,2.247l-1.423,1.069c-0.651-0.867-1.209-1.445-1.665-1.728
					c-0.463-0.274-0.961-0.409-1.502-0.416c-0.705-0.003-1.275,0.212-1.723,0.63c-0.451,0.43-0.671,0.949-0.673,1.569
					c-0.005,0.382,0.072,0.748,0.232,1.1c0.156,0.361,0.443,0.742,0.854,1.165c0.224,0.215,0.973,0.8,2.236,1.744
					c1.502,1.112,2.525,2.109,3.083,2.976c0.557,0.869,0.833,1.741,0.826,2.617c-0.004,1.259-0.484,2.353-1.445,3.274
					c-0.962,0.928-2.127,1.385-3.496,1.38c-1.053-0.005-2.01-0.291-2.869-0.856C32.632,129.16,31.849,128.212,31.125,126.883z"/>
				<path fill="#FFFFFF" d="M52.13,112.833l8.029,17.401l-1.875-0.002l-2.711-5.726l-7.482-0.032l-2.732,5.702l-1.936-0.003
					l8.281-17.341H52.13z M51.893,116.521l-3.006,6.28l5.945,0.024L51.893,116.521z"/>
				<path fill="#FFFFFF" d="M62.676,112.874l1.734,0.008l-0.074,17.374l-1.731-0.01L62.676,112.874z"/>
				<path fill="#FFFFFF" d="M68.335,130.276l0.071-17.381l0.377,0.005l11.507,13.366l0.057-13.317l1.706,0.002l-0.067,17.38
					l-0.388-0.008l-11.418-13.197l-0.049,13.152L68.335,130.276z"/>
				<path fill="#FFFFFF" d="M84.553,114.673l0.009-1.714l9.52,0.041l-0.008,1.707l-3.87-0.015l-0.07,15.672l-1.771-0.009
					l0.067-15.673L84.553,114.673z"/>
			</g>
			<g>
				<path fill="#FFFFFF" d="M15.809,146.808l1.457-0.864c1.012,1.886,2.188,2.829,3.533,2.837c0.574,0.005,1.108-0.131,1.612-0.396
					c0.508-0.263,0.892-0.618,1.153-1.071c0.268-0.442,0.402-0.917,0.407-1.426c0-0.575-0.19-1.138-0.579-1.689
					c-0.528-0.76-1.503-1.679-2.916-2.758c-1.421-1.078-2.302-1.86-2.647-2.34c-0.602-0.809-0.904-1.683-0.897-2.617
					c0.004-0.749,0.181-1.426,0.539-2.035c0.362-0.611,0.864-1.093,1.512-1.439c0.649-0.347,1.352-0.523,2.112-0.523
					c0.804,0,1.559,0.21,2.256,0.609c0.697,0.402,1.441,1.137,2.219,2.211l-1.396,1.052c-0.644-0.854-1.19-1.418-1.643-1.69
					c-0.453-0.274-0.944-0.409-1.479-0.414c-0.692-0.002-1.252,0.212-1.694,0.621c-0.44,0.425-0.658,0.933-0.661,1.546
					c-0.003,0.367,0.072,0.732,0.228,1.079c0.154,0.352,0.433,0.728,0.843,1.142c0.227,0.217,0.957,0.789,2.201,1.722
					c1.475,1.098,2.486,2.073,3.032,2.923c0.549,0.855,0.818,1.717,0.818,2.579c-0.004,1.232-0.479,2.318-1.428,3.221
					c-0.944,0.911-2.087,1.36-3.441,1.352c-1.034,0-1.981-0.279-2.82-0.836C17.286,149.043,16.511,148.11,15.809,146.808z"/>
				<path fill="#FFFFFF" d="M29.493,132.953l9.798,0.039l-0.003,1.675l-8.092-0.035l-0.021,5.362l8.018,0.03l-0.008,1.674
					l-8.017-0.034l-0.033,6.716l8.02,0.034l-0.002,1.668l-9.729-0.035L29.493,132.953z"/>
				<path fill="#FFFFFF" d="M42.338,133.004l3.403,0.017c1.9,0.007,3.186,0.089,3.854,0.246c1.018,0.235,1.838,0.739,2.474,1.505
					c0.629,0.768,0.943,1.712,0.938,2.823c0,0.935-0.225,1.754-0.665,2.455c-0.44,0.705-1.065,1.234-1.887,1.591
					c-0.814,0.358-1.935,0.54-3.372,0.544l6.117,7.961l-2.115-0.013l-6.111-7.957l-0.971-0.005l-0.031,7.938l-1.707-0.013
					L42.338,133.004z M44.038,134.685l-0.024,5.812l2.944,0.034c1.143,0.005,1.982-0.102,2.53-0.316
					c0.55-0.214,0.981-0.561,1.288-1.032c0.31-0.477,0.464-1.007,0.464-1.6c0.003-0.572-0.144-1.088-0.454-1.561
					c-0.313-0.474-0.721-0.809-1.224-1.014c-0.5-0.199-1.341-0.308-2.512-0.312L44.038,134.685z"/>
				<path fill="#FFFFFF" d="M56.627,150.157l0.075-17.093l0.368,0.002l11.324,13.149l0.054-13.106l1.686,0.002l-0.069,17.104h-0.384
					l-11.236-12.997l-0.049,12.948L56.627,150.157z"/>
				<path fill="#FFFFFF" d="M74.05,133.134l1.712,0.005l-0.076,17.093l-1.709-0.005L74.05,133.134z"/>
				<path fill="#FFFFFF" d="M79.617,150.254l0.071-17.099h0.372l11.319,13.154l0.055-13.104l1.689,0.003l-0.07,17.1H92.67
					l-11.234-12.99l-0.057,12.938L79.617,150.254z"/>
			</g>
		</g>
	</g>
</g>
<g>
</g>
<g>
</g>
<g>
</g>
<g>
</g>
<g>
</g>
<g>
</g>
</svg>
