<?xml version="1.0" encoding="utf-8"?>
<!-- Generator: Adobe Illustrator 16.0.0, SVG Export Plug-In . SVG Version: 6.00 Build 0)  -->
<!DOCTYPE svg PUBLIC "-//W3C//DTD SVG 1.1//EN" "http://www.w3.org/Graphics/SVG/1.1/DTD/svg11.dtd">
<svg version="1.1" id="Calque_1" xmlns="http://www.w3.org/2000/svg" xmlns:xlink="http://www.w3.org/1999/xlink" x="0px" y="0px"
	 width="240.94px" height="155.91px" viewBox="0 0 240.94 155.91" enable-background="new 0 0 240.94 155.91" xml:space="preserve">
<rect fill="#FFFFFF" width="240.947" height="155.91"/>
<g>
	<path fill="#FDE700" d="M87.161,108.337c0,0,0.342-6.644,4.076-7.588c3.736-0.943,7.873,3.759,14.988,3.795
		c7.113,0.033,6.754-3.215,9.98-0.677c3.229,2.538,2.124,29.998-2.181,31.679c-4.3,1.688-3.554-2.093-11.387-0.653
		c-2.005,0.368-7.792,5.931-11.278,2.794C87.877,134.552,88.401,112.305,87.161,108.337z"/>
	<g>
		<g>
			<path d="M105.727,102.92c-5.473,3.465-11.287-1.299-17.037-0.902c-4.084,0.28-6.433,2.337-6.784,6.399
				c-0.41,4.668,1.003,9.509,2.057,14.007c0.555,2.376,0.49,4.475,0.208,6.901c-0.242,2.109-0.72,4.746,0.601,6.596
				c1.026,1.443,3.081,2.101,4.769,1.661c3.221-0.839,5.377-3.248,8.984-2.422c1.779,0.407,3.494,1.373,5.379,0.959
				c2.194-0.48,4.505-1.908,5.853-3.736c2.736-3.73,1.942-8.275,2.275-12.614c0.267-3.492,0.651-6.997,0.535-10.503
				c-0.137-4.229-1.291-9.889-6.583-6.861c-0.583,0.335,0.28,0.54,0.626,0.34c6.852-3.924,4.704,13.754,4.45,16.808
				c-0.37,4.523,0.604,9.481-2.608,13.207c-1.585,1.844-4.158,3.174-6.588,2.658c-1.13-0.236-2.205-0.711-3.333-0.971
				c-1.9-0.432-3.687-0.02-5.361,0.888c-1.976,1.07-4.07,2.405-6.345,1.199c-1.773-0.945-1.926-2.804-1.899-4.549
				c0.039-2.497,0.646-4.938,0.541-7.449c-0.074-1.809-0.851-3.778-1.246-5.543c-0.547-2.418-1.003-4.847-1.25-7.312
				c-0.229-2.27-0.278-4.853,0.863-6.903c1.757-3.156,6.732-2.152,9.52-1.466c4.438,1.087,8.818,2.595,13.002-0.053
				C106.925,102.899,106.069,102.703,105.727,102.92L105.727,102.92z"/>
			<path d="M88.463,138.063c-1.596,0-3.119-0.746-3.972-1.94c-1.277-1.789-0.974-4.265-0.731-6.248l0.069-0.589
				c0.275-2.379,0.343-4.439-0.204-6.783c-0.142-0.604-0.29-1.209-0.44-1.823c-0.974-4.031-1.984-8.195-1.627-12.292
				c0.366-4.155,2.753-6.414,7.107-6.716c2.286-0.157,4.587,0.481,6.808,1.096c1.993,0.556,3.876,1.075,5.762,1.075
				c1.566,0,2.947-0.375,4.211-1.154c-0.024-0.146,0.013-0.381,0.366-0.583c1.047-0.596,2-0.901,2.837-0.901
				c3.307,0,4.142,4.377,4.263,8.047c0.094,2.882-0.147,5.789-0.376,8.601c-0.055,0.648-0.112,1.299-0.16,1.942
				c-0.079,1.039-0.099,2.112-0.108,3.15c-0.044,3.306-0.094,6.729-2.236,9.644c-1.349,1.839-3.725,3.356-6.057,3.868
				c-0.333,0.077-0.67,0.11-1.024,0.11c-1.046,0-2.036-0.32-2.998-0.63c-0.497-0.162-1.004-0.326-1.502-0.442
				c-0.476-0.107-0.93-0.16-1.388-0.16c-1.578,0-2.903,0.643-4.304,1.322c-0.977,0.473-1.982,0.958-3.133,1.262
				C89.259,138.016,88.863,138.063,88.463,138.063z M83.35,104.966c-0.614,0.92-0.979,2.078-1.105,3.485
				c-0.345,3.98,0.652,8.087,1.613,12.063c0.149,0.617,0.299,1.228,0.442,1.831c0.567,2.442,0.503,4.573,0.219,7.022l-0.072,0.591
				c-0.242,1.966-0.517,4.188,0.606,5.763c0.789,1.1,2.349,1.769,3.81,1.631c-0.773,0.026-1.493-0.143-2.197-0.513
				c-1.881-1.003-2.111-2.928-2.084-4.862c0.018-1.125,0.15-2.245,0.281-3.333c0.155-1.338,0.32-2.723,0.264-4.091
				c-0.055-1.183-0.414-2.454-0.767-3.688c-0.171-0.611-0.346-1.215-0.472-1.801c-0.638-2.804-1.039-5.142-1.257-7.351
				C82.426,109.672,82.328,107.09,83.35,104.966z M88.546,102.944c-2.185,0-3.666,0.671-4.408,2
				c-1.123,2.016-1.025,4.644-0.82,6.705c0.218,2.18,0.612,4.486,1.24,7.266c0.128,0.568,0.297,1.161,0.466,1.765
				c0.363,1.268,0.735,2.586,0.792,3.846c0.063,1.422-0.107,2.838-0.267,4.201c-0.125,1.068-0.255,2.17-0.273,3.261
				c-0.025,1.597,0.083,3.374,1.713,4.239c0.555,0.293,1.118,0.439,1.715,0.439c1.319,0,2.62-0.717,3.878-1.405l0.424-0.232
				c1.901-1.025,3.783-1.332,5.604-0.92c0.556,0.132,1.099,0.311,1.627,0.48c0.556,0.185,1.129,0.376,1.703,0.493
				c2.069,0.44,4.584-0.608,6.254-2.544c2.343-2.726,2.377-6.08,2.411-9.626c0.013-1.118,0.023-2.276,0.111-3.389
				c0.025-0.212,0.049-0.494,0.078-0.838c0.307-3.215,1.23-12.985-1.12-15.564c-0.688-0.76-1.597-0.782-2.782-0.139
				c0.016,0.15-0.03,0.367-0.349,0.569c-1.628,1.025-3.411,1.527-5.446,1.527l0,0c-2.175,0-4.399-0.566-6.555-1.114
				c-0.422-0.107-0.845-0.215-1.266-0.319C91.94,103.316,90.194,102.944,88.546,102.944z M97.008,134.621
				c-1.101,0-2.196,0.276-3.343,0.844c1.056-0.465,2.139-0.819,3.399-0.819c0.513,0,1.016,0.055,1.542,0.178
				c0.021,0.006,0.044,0.009,0.069,0.015c-0.077-0.02-0.15-0.035-0.222-0.055C97.976,134.676,97.488,134.621,97.008,134.621z
				 M109.069,101.933c0.411,0.123,0.787,0.363,1.112,0.723c2.555,2.804,1.645,12.463,1.304,16.094
				c-0.037,0.343-0.06,0.621-0.078,0.829c-0.091,1.096-0.103,2.233-0.115,3.339c-0.028,3.519-0.065,7.154-2.579,10.071
				c-0.186,0.217-0.381,0.426-0.589,0.619c0.517-0.442,0.977-0.921,1.353-1.428c2.007-2.741,2.054-5.9,2.099-9.243
				c0.016-1.051,0.027-2.136,0.11-3.194c0.049-0.648,0.107-1.297,0.155-1.947c0.232-2.792,0.472-5.681,0.375-8.522
				C112.142,106.659,111.611,102.354,109.069,101.933z M90.534,102.397c1.052,0.145,2.061,0.37,2.903,0.576
				c0.424,0.105,0.85,0.213,1.271,0.318c0.284,0.074,0.567,0.144,0.842,0.217c-0.088-0.022-0.178-0.052-0.267-0.074
				C93.725,103.001,92.118,102.553,90.534,102.397z"/>
		</g>
		<g>
			<path d="M89.36,111.956c0.77,4.719,0.814,9.689-0.516,14.313c-0.113,0.385,0.891,0.247,0.993-0.111
				c1.343-4.662,1.289-9.708,0.513-14.468C90.29,111.32,89.293,111.562,89.36,111.956L89.36,111.956z"/>
			<path d="M89.141,126.849L89.141,126.849c-0.319,0-0.481-0.127-0.558-0.229c-0.095-0.129-0.12-0.286-0.073-0.446
				c1.195-4.138,1.365-8.905,0.507-14.161c-0.029-0.172,0.024-0.345,0.144-0.488c0.216-0.248,0.591-0.365,0.871-0.365
				c0.432,0,0.622,0.248,0.658,0.479c0.89,5.422,0.714,10.342-0.52,14.617C90.046,126.687,89.472,126.849,89.141,126.849z
				 M90.027,111.857c-0.179,0.013-0.314,0.078-0.341,0.119c0.873,5.191,0.716,9.979-0.454,14.172
				c0.138-0.024,0.262-0.078,0.287-0.113C90.702,121.914,90.878,117.137,90.027,111.857z"/>
		</g>
		<g>
			<path d="M98.096,111.19c-0.017,4.786-0.262,9.558-0.772,14.319c-0.042,0.38,0.957,0.184,0.991-0.133
				c0.517-4.805,0.757-9.623,0.773-14.456C99.087,110.634,98.096,110.815,98.096,111.19L98.096,111.19z"/>
			<path d="M97.635,126.064L97.635,126.064c-0.292,0-0.453-0.107-0.53-0.2c-0.097-0.104-0.141-0.244-0.126-0.39
				c0.497-4.6,0.752-9.405,0.771-14.292c0-0.511,0.637-0.752,1.069-0.752c0.206,0,0.37,0.061,0.48,0.171l0.101,0.101l0.032,0.221
				c-0.019,4.984-0.28,9.856-0.777,14.493C98.609,125.856,98.019,126.064,97.635,126.064z M98.74,111.138
				c-0.165,0.021-0.292,0.083-0.319,0.116c0,4.778-0.251,9.547-0.729,14.116c0.136-0.013,0.279-0.076,0.31-0.104
				C98.456,120.798,98.717,116.021,98.74,111.138z"/>
		</g>
		<g>
			<path d="M105.288,110.672c0.213,5.204-0.497,10.453-2.312,15.339c-0.138,0.367,0.863,0.246,0.996-0.107
				c1.836-4.947,2.523-10.235,2.309-15.496C106.265,110.048,105.271,110.263,105.288,110.672L105.288,110.672z"/>
			<path d="M103.257,126.579L103.257,126.579c-0.324,0-0.485-0.132-0.561-0.239c-0.086-0.131-0.106-0.291-0.046-0.447
				c1.743-4.691,2.514-9.807,2.293-15.206c-0.008-0.172,0.057-0.334,0.188-0.472c0.223-0.233,0.588-0.337,0.854-0.337
				c0.426,0,0.628,0.261,0.64,0.514c0.234,5.593-0.555,10.854-2.33,15.629C104.145,126.428,103.589,126.579,103.257,126.579z
				 M105.943,110.579c-0.167,0.016-0.292,0.084-0.318,0.119c0.229,5.354-0.524,10.472-2.231,15.175
				c0.125-0.024,0.232-0.077,0.261-0.109C105.375,121.132,106.145,116.021,105.943,110.579z"/>
		</g>
		<g>
			<path d="M103.196,102.511c0.457-1.361,0.572-3.152-0.971-3.833c-1.349-0.598-2.97,0.18-4.033,0.991
				c-0.043,0.036-0.138,0.146-0.095,0.215c0.453,0.806,0.312,1.762,0.77,2.568c0.185,0.33,1.141-0.004,0.991-0.266
				c-0.415-0.732-0.341-1.587-0.651-2.356c-0.23-0.585,1.714-0.801,2.037-0.737c1.616,0.316,1.333,2.434,0.962,3.544
				C102.091,102.972,103.085,102.84,103.196,102.511L103.196,102.511z"/>
			<path d="M102.479,103.181L102.479,103.181c-0.315,0-0.472-0.125-0.542-0.231c-0.09-0.114-0.108-0.271-0.061-0.419
				c0.262-0.783,0.43-1.931,0.046-2.594c-0.16-0.27-0.404-0.438-0.749-0.507c-0.02,0-0.057,0-0.094,0
				c-0.547,0-1.335,0.173-1.527,0.329c0.131,0.352,0.191,0.712,0.255,1.055c0.074,0.432,0.146,0.841,0.348,1.204
				c0.087,0.146,0.084,0.321-0.007,0.47c-0.164,0.28-0.62,0.447-0.959,0.447c-0.389,0-0.562-0.195-0.628-0.313
				c-0.256-0.452-0.34-0.933-0.423-1.394c-0.079-0.423-0.147-0.824-0.345-1.176c-0.145-0.261,0.031-0.535,0.19-0.654
				c0.621-0.477,1.862-1.275,3.205-1.275c0.419,0,0.819,0.078,1.177,0.238c1.409,0.625,1.845,2.218,1.159,4.261
				C103.388,103.027,102.811,103.181,102.479,103.181z M101.683,98.863c0.357,0.143,0.639,0.388,0.837,0.728
				c0.456,0.783,0.358,1.952,0.096,2.884c0.132-0.022,0.243-0.077,0.271-0.106c0.251-0.77,0.711-2.706-0.801-3.375
				C101.956,98.938,101.822,98.893,101.683,98.863z M98.483,99.884c0.192,0.4,0.263,0.818,0.336,1.218
				c0.075,0.427,0.146,0.831,0.345,1.181c0.113-0.021,0.224-0.062,0.304-0.101c-0.196-0.412-0.273-0.834-0.345-1.247
				c-0.058-0.343-0.116-0.669-0.236-0.977c-0.046-0.107-0.057-0.222-0.037-0.329C98.708,99.722,98.586,99.812,98.483,99.884z"/>
		</g>
	</g>
</g>
<g>
	<path fill="#EFA700" d="M137.128,91.137c0,0-5.474-6.518-8.108-2.118c-2.641,4.406-0.772,10.923,1.232,14.463
		c0,0,12.01,16.356,17.187,21.3c5.172,4.941,9.405,12.243,15.116,13.949c11.08,3.313-10.129-19.57-11.396-24.002
		C150.011,110.722,144.459,96.194,137.128,91.137z"/>
	<g>
		<g>
			<path d="M128.992,91.909c-0.481-0.057-1.016-0.097-1.459,0.158c-0.223,0.127-0.341,0.274-0.468,0.494
				c-0.497,0.879-1.305,1.03-2.311,1.188c-1.049,0.171-3,0.286-3.197,1.656c-0.457,3.13,1.655,6.054,3.164,8.621
				c1.962,3.345,4.213,6.529,6.666,9.533c2.217,2.714,4.771,4.658,7.607,6.684c3.246,2.327,5.565,5.499,8.094,8.537
				c2.053,2.468,4.258,4.749,6.933,6.542c2.3,1.537,5.046,3.054,7.88,3.148c0.097,0,0.469-0.047,0.5-0.177
				c0.347-1.578-0.783-3.004-1.795-4.095c-1.593-1.714-3.386-3.191-4.897-4.984c-1.929-2.278-4.214-4.208-5.979-6.632
				c-1.856-2.552-3.489-5.415-4.928-8.225c-1.468-2.868-2.78-5.77-4.398-8.566c-1.421-2.469-2.907-4.909-4.14-7.477
				c-1.416-2.953-3.153-7.164-7.072-6.88c-0.15,0.014-0.675,0.255-0.276,0.228c4.269-0.316,5.961,5.378,7.532,8.383
				c1.305,2.505,2.79,4.913,4.186,7.378c1.5,2.634,2.663,5.417,4.076,8.094c1.313,2.486,2.825,4.917,4.412,7.23
				c1.487,2.169,3.501,3.943,5.286,5.854c1.482,1.595,2.915,3.126,4.489,4.636c1.297,1.25,3.354,3.14,2.905,5.169
				c0.163-0.054,0.333-0.113,0.501-0.171c-2.778-0.096-5.424-1.643-7.698-3.115c-2.689-1.739-4.859-4.065-6.906-6.502
				c-1.975-2.345-3.77-4.9-6.055-6.956c-2.377-2.135-5.247-3.627-7.557-5.862c-2.335-2.259-4.27-5.115-6.104-7.778
				c-1.766-2.568-3.435-5.266-4.827-8.053c-0.636-1.277-1.091-2.608-1.062-4.038c0.034-1.623,1.201-1.735,2.54-1.976
				c0.871-0.158,1.642-0.358,2.443-0.749c0.686-0.329,0.369-1.194,1.408-1.07C128.623,92.15,129.131,91.926,128.992,91.909
				L128.992,91.909z"/>
			<path d="M161.705,138.745l-0.271-0.018c-2.862-0.242-5.536-1.81-7.57-3.165c-2.354-1.575-4.508-3.608-6.998-6.599
				c-0.417-0.503-0.829-1.007-1.24-1.513c-2.119-2.603-4.115-5.056-6.797-6.976c-2.741-1.958-5.391-3.954-7.665-6.734
				c-2.536-3.117-4.788-6.337-6.689-9.571c-0.186-0.314-0.39-0.642-0.584-0.971c-1.42-2.338-3.03-4.988-2.621-7.837
				c0.213-1.431,1.927-1.673,3.067-1.838c0.13-0.018,0.253-0.036,0.37-0.056c1.038-0.166,1.688-0.307,2.106-1.048
				c0.146-0.251,0.29-0.438,0.576-0.601c0.299-0.172,0.66-0.239,1.101-0.236c0.054-0.334,0.673-0.433,0.676-0.433
				c3.885-0.263,5.675,3.491,7.098,6.497l0.259,0.543c0.995,2.066,2.169,4.089,3.31,6.042c0.273,0.473,0.55,0.94,0.822,1.414
				c1.087,1.888,2.055,3.853,2.988,5.752c0.466,0.946,0.933,1.888,1.413,2.829c1.687,3.295,3.29,5.972,4.91,8.188
				c1.024,1.406,2.256,2.672,3.446,3.902c0.846,0.863,1.717,1.764,2.517,2.712c0.857,1.016,1.828,1.952,2.773,2.854
				c0.702,0.681,1.43,1.379,2.113,2.116c1.04,1.124,2.057,2.457,1.926,3.966l-0.062,0.273l-0.02,0.172
				c-0.14,0.339-0.744,0.347-0.75,0.347h-0.02C161.829,138.752,161.768,138.752,161.705,138.745L161.705,138.745z M162.147,137.941
				c0.005,0.004,0.014,0.004,0.023,0.004c0.077-0.814-0.261-1.597-0.761-2.318C161.866,136.342,162.177,137.124,162.147,137.941z
				 M128.299,92.411c-0.287,0-0.339,0.103-0.467,0.36c-0.116,0.231-0.262,0.52-0.629,0.697c-0.911,0.438-1.746,0.628-2.52,0.768
				l-0.209,0.037c-1.359,0.239-2.068,0.417-2.095,1.658c-0.019,1.214,0.303,2.453,1.03,3.907c1.258,2.522,2.829,5.146,4.809,8.025
				l0.154,0.227c1.802,2.62,3.666,5.327,5.91,7.504c1.217,1.174,2.624,2.17,3.985,3.128c1.203,0.847,2.447,1.723,3.567,2.729
				c1.662,1.498,3.083,3.271,4.457,4.991c0.537,0.666,1.071,1.339,1.623,1.991c1.938,2.308,4.114,4.685,6.84,6.449
				c2.006,1.295,4.344,2.694,6.82,3.011c0.039-1.654-1.633-3.253-2.764-4.336l-0.114-0.113c-1.523-1.457-2.884-2.904-4.504-4.646
				c-0.511-0.546-1.038-1.077-1.562-1.615c-1.313-1.329-2.67-2.701-3.749-4.271c-1.723-2.512-3.208-4.955-4.424-7.255
				c-0.61-1.154-1.181-2.344-1.736-3.495c-0.727-1.524-1.491-3.099-2.341-4.599c-0.466-0.829-0.943-1.648-1.424-2.466
				c-0.933-1.6-1.894-3.249-2.769-4.923c-0.272-0.521-0.553-1.125-0.846-1.767c-1.312-2.868-2.954-6.436-6.044-6.472v0.008
				c-0.022,0.357-0.735,0.481-0.803,0.481C128.394,92.414,128.343,92.411,128.299,92.411z M140.841,121.355
				c1.971,1.729,3.618,3.755,5.229,5.73c0.407,0.503,0.819,1.011,1.237,1.512c0.24,0.296,0.484,0.579,0.722,0.851
				c-0.185-0.212-0.369-0.432-0.549-0.646c-0.557-0.656-1.091-1.329-1.635-2.004c-1.359-1.702-2.765-3.456-4.394-4.919
				C141.252,121.699,141.05,121.526,140.841,121.355z M148.758,121.699c0.195,0.294,0.396,0.589,0.599,0.884
				c1.049,1.53,2.387,2.892,3.685,4.196c0.497,0.507,0.99,1.011,1.477,1.522c-0.503-0.544-1.018-1.071-1.519-1.585
				c-1.199-1.242-2.45-2.524-3.499-3.962C149.25,122.412,149.004,122.062,148.758,121.699z M135.43,97.225
				c0.148,0.323,0.297,0.638,0.437,0.946c0.289,0.631,0.563,1.228,0.833,1.739c0.866,1.659,1.825,3.304,2.757,4.896
				c0.479,0.827,0.958,1.646,1.427,2.474c0.858,1.519,1.619,3.104,2.359,4.634c0.55,1.146,1.114,2.329,1.722,3.476
				c0.691,1.304,1.466,2.656,2.324,4.039c-0.898-1.479-1.806-3.114-2.74-4.94c-0.488-0.942-0.953-1.89-1.417-2.834
				c-0.93-1.895-1.895-3.852-2.978-5.719c-0.267-0.474-0.54-0.941-0.815-1.415c-1.144-1.963-2.326-3.995-3.33-6.082l-0.26-0.542
				C135.646,97.677,135.537,97.45,135.43,97.225z M121.927,95.151c-0.043,0.087-0.075,0.183-0.088,0.294
				c-0.385,2.639,1.167,5.198,2.538,7.456c0.202,0.333,0.401,0.658,0.591,0.982c1.215,2.066,2.568,4.117,4.055,6.147
				c-0.375-0.539-0.747-1.082-1.118-1.616l-0.157-0.229c-1.993-2.898-3.579-5.547-4.848-8.096c-0.772-1.536-1.116-2.861-1.092-4.169
				C121.813,95.624,121.852,95.369,121.927,95.151z"/>
		</g>
		<g>
			<path d="M126.986,91.47c-0.077-2.074,1.896-3.707,3.268-4.992c1.306-1.213,2.993-2.449,3.688-4.159
				c0.041-0.103-0.527,0.017-0.604,0.117c-1.223,1.586-3.831,1.727-5.351,2.977c0.191-0.04,0.386-0.071,0.583-0.113
				c-0.662-1.775,1.731-3.538,2.865-4.511c1.469-1.27,3.098-2.391,4.401-3.844c0.068-0.072-0.23-0.042-0.24-0.042
				c-3.039,0.48-6.066,1.75-8.67,3.351c0.177-0.028,0.354-0.052,0.534-0.078c0.548-3.169,1.399-6.283,2.211-9.396
				c0.032-0.139-0.514,0.027-0.577,0.085c-2.119,2.043-5.566,3.56-6.248,6.683c0.199-0.046,0.402-0.096,0.604-0.141
				c0.509-3.168-1.529-5.816-2.786-8.551c-0.068-0.142-0.539,0.06-0.608,0.139c-0.889,1.05-0.738,2.965-0.755,4.236
				c-0.026,1.796,0.206,3.652-0.041,5.436c0.188-0.064,0.373-0.127,0.559-0.194c-2.188-0.443-3.885-1.453-6.159-1.129
				c-0.035,0.01-0.497,0.109-0.438,0.195c1.416,2.147,3.261,4.015,4.989,5.909c0.21,0.226-1.971,0.262-2.122,0.26
				c-0.454-0.015-0.926,0-1.371,0.088c-0.688,0.129-1.224,0.387-1.75,0.829c-0.049,0.038-0.035,0.067,0.02,0.078
				c1.947,0.399,5.57,0.83,6.589,2.819c0.167-0.066,0.337-0.136,0.5-0.196c-1.867,0.096-3.692-0.582-5.518,0.055
				c-0.021,0.015-0.233,0.083-0.201,0.142c0.887,1.608,2.268,1.911,3.812,2.708c1.873,0.96,4.165-0.45,5.849,0.946
				c0.121,0.101,0.648-0.139,0.577-0.198c-0.768-0.64-1.49-0.742-2.457-0.705c-0.591,0.021-1.176,0.114-1.769,0.135
				c-1.011,0.041-1.839-0.521-2.732-0.898c-1.024-0.434-1.801-0.79-2.448-1.752c-0.322-0.474,2.43-0.308,2.699-0.277
				c0.596,0.072,1.187,0.106,1.792,0.074c0.051-0.002,0.564-0.087,0.507-0.194c-0.786-1.532-3.131-2.009-4.648-2.413
				c-0.433-0.112-0.865-0.212-1.299-0.309c-1.585-0.354,1.237-0.706,1.869-0.688c0.932,0.031,1.786,0.036,2.686-0.224
				c0.046-0.013,0.342-0.097,0.266-0.185c-1.809-1.98-3.746-3.92-5.235-6.165c-0.145,0.066-0.291,0.126-0.44,0.192
				c2.164-0.309,3.877,0.713,5.924,1.126c0.118,0.025,0.539-0.037,0.564-0.192c0.212-1.538,0.049-3.138,0.036-4.682
				c-0.012-1.441-0.258-3.755,0.744-4.936c-0.201,0.044-0.406,0.088-0.602,0.137c1.254,2.732,3.293,5.382,2.788,8.546
				c-0.013,0.055,0.571,0.008,0.604-0.136c0.673-3.097,4.09-4.602,6.195-6.625c-0.19,0.031-0.383,0.054-0.575,0.085
				c-0.811,3.127-1.667,6.257-2.218,9.444c-0.014,0.102,0.499-0.056,0.538-0.083c2.086-1.278,4.343-2.211,6.7-2.85
				c0.334-0.089,0.677-0.165,1.019-0.238c0.594-0.118-0.326,0.376-0.459,0.506c-0.603,0.591-1.27,1.12-1.921,1.655
				c-1.426,1.167-5.645,3.788-4.77,6.137c0.05,0.14,0.512-0.055,0.583-0.109c1.527-1.255,4.152-1.413,5.402-3.035
				c-0.206,0.041-0.402,0.077-0.604,0.117c-0.776,1.909-2.764,3.275-4.217,4.654c-1.249,1.188-2.816,2.684-2.745,4.54
				C126.379,91.718,126.993,91.622,126.986,91.47L126.986,91.47z"/>
			<path d="M126.48,92.234c-0.37,0-0.39-0.274-0.393-0.309c-0.078-1.992,1.607-3.594,2.835-4.757
				c0.336-0.319,0.703-0.638,1.079-0.965c0.693-0.602,1.399-1.226,1.991-1.904c-0.315,0.133-0.634,0.262-0.948,0.38
				c-0.783,0.311-1.528,0.599-2.13,1.028l0.043,0.096l-0.221,0.044c-0.006,0.003-0.014,0.007-0.017,0.013
				c-0.098,0.077-0.429,0.225-0.659,0.225c-0.102,0-0.182-0.029-0.237-0.064l-0.123-0.227l-0.083-0.162
				c-0.545-2.126,2.354-4.301,4.111-5.616c0.317-0.24,0.599-0.448,0.818-0.628l0.246-0.201c0.488-0.396,0.989-0.808,1.451-1.244
				c-0.029,0.009-0.059,0.017-0.084,0.023c-2.352,0.64-4.52,1.553-6.445,2.709l-0.008,0.037l-0.068,0.008
				c-0.035,0.023-0.069,0.045-0.104,0.061c-0.083,0.056-0.447,0.163-0.627,0.163h-0.129l-0.088-0.072l-0.104-0.161l0.007-0.3
				c0.474-2.677,1.161-5.342,1.837-7.921c-0.229,0.179-0.465,0.349-0.694,0.528c-1.741,1.311-3.542,2.663-4.008,4.737v0.005
				c-0.087,0.386-0.675,0.407-0.793,0.407c-0.037,0-0.102,0-0.167-0.021L122.515,78l0.045-0.191
				c0.377-2.362-0.746-4.478-1.829-6.532c-0.134-0.247-0.267-0.497-0.398-0.746c-0.212,0.901-0.177,1.989-0.148,2.897
				c0.006,0.24,0.013,0.469,0.013,0.674c0.007,0.429,0.021,0.858,0.032,1.291c0.039,1.038,0.078,2.1-0.039,3.151l-0.044,0.235
				l-0.034,0.185c-0.134,0.242-0.521,0.312-0.734,0.312l-0.12-0.011c-0.004,0-0.009,0-0.014-0.004l-0.304-0.063l0,0
				c-0.57-0.139-1.111-0.31-1.632-0.476c-0.955-0.301-1.861-0.583-2.834-0.63c1.115,1.572,2.463,3.012,3.759,4.421
				c0.352,0.371,0.702,0.748,1.044,1.125l0.105,0.117l-0.03,0.192c-0.052,0.193-0.259,0.274-0.473,0.337
				c-0.766,0.227-1.494,0.252-2.042,0.252c-0.242,0-0.485-0.006-0.73-0.012l0,0c-0.412,0-1.087,0.079-1.574,0.172
				c0.365,0.081,0.725,0.164,1.08,0.26l0.432,0.109c1.461,0.379,3.433,0.889,4.282,2.246l0.07,0.236l0.062,0.224l-0.021,0.047
				c-0.151,0.26-0.729,0.311-0.738,0.311c-0.059,0-0.113,0.005-0.171,0.007l-0.088,0.033l-0.02-0.03
				c-0.494,0.011-0.988-0.022-1.565-0.086c-0.103-0.012-0.688-0.055-1.276-0.055c-0.557,0-0.862,0.033-1.023,0.068
				c0.556,0.734,1.215,1.049,2.197,1.466c0.212,0.089,0.427,0.188,0.635,0.291c0.625,0.303,1.213,0.584,1.88,0.584h0.095
				c0.285-0.015,0.569-0.037,0.857-0.064c0.304-0.033,0.608-0.059,0.911-0.07c0.108-0.004,0.217-0.009,0.321-0.009
				c0.724,0,1.508,0.095,2.328,0.775l0.152,0.131l-0.061,0.212c-0.092,0.256-0.579,0.392-0.763,0.392
				c-0.107,0-0.198-0.029-0.27-0.088c-0.507-0.417-1.096-0.594-1.988-0.594c-0.302,0-0.611,0.02-0.92,0.036
				c-0.323,0.021-0.645,0.037-0.971,0.037c-0.793,0-1.384-0.118-1.923-0.393c-0.325-0.174-0.642-0.313-0.95-0.453
				c-1.147-0.529-2.238-1.025-2.979-2.376l-0.062-0.113l0.042-0.146c0.05-0.127,0.162-0.208,0.379-0.283
				c0.574-0.201,1.17-0.295,1.894-0.295c0.562,0,1.134,0.062,1.681,0.117c0.261,0.021,0.528,0.05,0.797,0.076
				c-1.169-1.142-3.527-1.58-5.149-1.883c-0.267-0.048-0.524-0.097-0.754-0.144l-0.178-0.039l-0.093-0.205
				c-0.032-0.118,0.01-0.251,0.119-0.34c0.57-0.475,1.147-0.747,1.884-0.889c0.409-0.078,0.91-0.107,1.433-0.093l0,0
				c0.433,0,1.181-0.034,1.623-0.086c-0.191-0.209-0.383-0.415-0.579-0.625c-1.4-1.514-2.849-3.079-4.023-4.81l-0.179-0.197
				l-0.006-0.246l0.024-0.058c0.1-0.226,0.49-0.309,0.659-0.336c0.099-0.014,0.2-0.028,0.298-0.034l0.012-0.007l0.002,0.007
				c1.424-0.137,2.683,0.232,3.982,0.63c0.371,0.114,0.749,0.229,1.137,0.333c0.072-0.943,0.038-1.922,0.003-2.872
				c-0.019-0.632-0.04-1.271-0.034-1.895c0-0.172,0-0.352,0-0.543c-0.006-1.215-0.015-2.716,0.695-3.711l0,0l0.171-0.209
				c0.153-0.123,0.463-0.242,0.663-0.242c0.089,0,0.156,0.018,0.206,0.046l0.254,0.347l0,0c0.254,0.549,0.551,1.104,0.839,1.644
				c0.769,1.459,1.564,2.961,1.851,4.583c0.852-1.082,2.006-1.95,3.133-2.802c0.716-0.535,1.396-1.049,1.985-1.599l0.026-0.103
				l0.105-0.012c0.157-0.104,0.479-0.187,0.636-0.187c0.097,0,0.167,0.024,0.22,0.056l0.083,0.191l0.04,0.248l-0.294,1.129
				c-0.619,2.379-1.258,4.836-1.731,7.294c2.533-1.397,5.164-2.341,7.652-2.737c0,0,0.09-0.009,0.175-0.009
				c0.075,0,0.295,0,0.382,0.197l0.075,0.17l-0.135,0.162c-0.904,1.009-1.977,1.867-3.015,2.702
				c-0.477,0.383-0.953,0.764-1.414,1.162l-0.356,0.303c-1.002,0.836-2.458,2.06-2.521,3.286c0.492-0.255,1.024-0.46,1.543-0.657
				c1.107-0.432,2.158-0.832,2.804-1.645l0.04-0.106l0.093-0.017c0.184-0.118,0.48-0.168,0.609-0.172l0.274,0.182l0.097,0.254l0,0
				l-0.062,0.146c-0.604,1.364-1.778,2.409-2.917,3.415c-0.262,0.237-0.525,0.47-0.771,0.699l-0.348,0.321
				c-1.291,1.192-2.898,2.674-2.831,4.445l0.005,0.122l-0.111,0.144C126.99,92.194,126.601,92.234,126.48,92.234z M126.733,91.146
				c-0.036,0.16-0.062,0.324-0.069,0.493c0.015-0.002,0.02-0.009,0.033-0.009C126.697,91.463,126.712,91.301,126.733,91.146z
				 M128.203,84.571c-0.061,0.223-0.09,0.443-0.07,0.661c0.011-0.006,0.026-0.016,0.042-0.022l-0.004-0.007l0.008-0.007
				C128.154,84.983,128.168,84.776,128.203,84.571z M113.759,78.103c0.446,0.64,0.932,1.259,1.439,1.868
				c-0.5-0.608-0.975-1.228-1.413-1.871C113.771,78.1,113.765,78.1,113.759,78.103z M119.606,78.419c0.007,0,0.013,0,0.023,0.006
				c0.103-0.989,0.066-2.018,0.032-3.013c-0.016-0.44-0.032-0.872-0.032-1.304c-0.005-0.203-0.01-0.427-0.023-0.663
				c-0.01-0.457-0.024-0.952-0.01-1.452c-0.009,0.332-0.009,0.662-0.006,0.975c0,0.191,0,0.377-0.003,0.549
				c-0.009,0.618,0.012,1.242,0.037,1.867C119.661,76.381,119.695,77.411,119.606,78.419z M120.598,69.78
				c0.204,0.412,0.417,0.819,0.636,1.233c0.871,1.647,1.768,3.337,1.942,5.194c0.016-0.024,0.029-0.052,0.041-0.076
				c-0.155-1.758-1.027-3.416-1.878-5.015c-0.242-0.458-0.487-0.92-0.716-1.387C120.616,69.746,120.606,69.762,120.598,69.78z"/>
		</g>
	</g>
</g>
<g>
	<path fill="#95C11F" d="M197.8,103.562c-2.962,1.585-13.995-2.441-15.892,1.755c-1.896,4.191-1.94,8.958-1.275,13.968
		c0.728,5.478,2.451,11.661,7.151,15.949c4.705,4.293,7.455,3.722,11.747,2.58c4.291-1.15,9.377,0.126,13.144-4.995
		c4.019-5.46,5.744-20.019,1.735-26.354C210.407,100.129,200.945,101.879,197.8,103.562z"/>
	<g>
		<g>
			<path d="M191.539,106.027c-3.11,1.363-4.63-1.689-7.349-2.167c-1.988-0.35-4.194-0.35-6.196-0.089
				c-3.472,0.456-5.812,1.79-6.796,5.314c-1.053,3.77-0.852,8.706-0.166,12.516c0.82,4.538,3.574,8.49,7.261,11.177
				c3.374,2.457,7.579,3.534,11.709,3.436c3.419-0.088,6.974,0.31,10.077-1.45c3.399-1.929,5.587-5.187,7.305-8.602
				c1.649-3.275,2.68-6.231,2.614-9.925c-0.058-3.475-0.714-7.052-2.072-10.254c-1.038-2.437-2.54-3.757-5.053-4.467
				c-3.416-0.97-11.509-1.684-12.604,3.105c-0.049,0.205,0.788,0.078,0.84-0.143c1.018-4.469,8.221-3.425,11.448-2.512
				c3.884,1.099,5.096,5.084,5.89,8.658c0.849,3.793,1.284,8.254-0.225,11.922c-1.572,3.826-3.407,7.666-6.473,10.525
				c-2.477,2.304-5.655,3.063-8.956,2.554c-0.743-0.114-1.652,0.179-2.427,0.225c-1.619,0.085-3.247-0.127-4.825-0.471
				c-4.887-1.069-9.091-4.305-11.627-8.566c-2.446-4.104-2.486-8.821-2.393-13.446c0.035-2.106,0.274-4.232,1.142-6.167
				c1.472-3.272,5.587-3.281,8.665-3.198c1.439,0.043,2.753,0.207,4.031,0.913c0.85,0.475,1.588,1.187,2.5,1.554
				c1.467,0.588,2.768,0.3,4.18-0.311C192.55,105.926,191.753,105.934,191.539,106.027L191.539,106.027z"/>
			<path d="M189.471,136.501c-4.225,0-8.254-1.238-11.345-3.488c-3.957-2.89-6.575-6.923-7.375-11.366
				c-0.821-4.579-0.759-9.301,0.174-12.638c0.933-3.348,3.039-4.996,7.03-5.521c2.133-0.279,4.369-0.249,6.284,0.087
				c1.096,0.188,1.982,0.771,2.846,1.325c0.949,0.608,1.844,1.19,2.913,1.19c0.466,0,0.929-0.11,1.428-0.326
				c0.182-0.08,0.471-0.084,0.522-0.084c0.123,0,0.478,0,0.541,0.289c0.056,0.275-0.239,0.405-0.339,0.451
				c-1.042,0.456-1.866,0.656-2.668,0.656l0,0c-0.589,0-1.156-0.111-1.729-0.34c-0.57-0.229-1.075-0.585-1.555-0.928
				c-0.332-0.234-0.646-0.458-0.979-0.639c-1.282-0.711-2.634-0.843-3.902-0.882c-0.419-0.011-0.86-0.018-1.312-0.018
				c-2.655,0-5.867,0.344-7.08,3.042c-0.928,2.062-1.087,4.326-1.121,6.059c-0.096,4.945,0.009,9.364,2.354,13.3
				c2.582,4.326,6.752,7.4,11.449,8.429c1.778,0.39,3.285,0.542,4.746,0.462c0.275-0.013,0.565-0.064,0.877-0.114
				c0.54-0.086,1.104-0.181,1.61-0.101c3.349,0.514,6.437-0.359,8.713-2.486c3.024-2.812,4.868-6.671,6.408-10.421
				c1.218-2.967,1.289-6.925,0.209-11.756c-0.787-3.529-1.943-7.388-5.689-8.443c-0.656-0.186-2.98-0.794-5.42-0.794
				c-2.265,0-5.09,0.538-5.672,3.095c-0.087,0.386-0.705,0.471-0.914,0.471c-0.198,0-0.333-0.054-0.416-0.16l-0.089-0.105
				l0.021-0.188c0.593-2.602,3.274-4.034,7.539-4.034c1.809,0,3.838,0.267,5.425,0.715c2.605,0.738,4.167,2.126,5.235,4.631
				c1.308,3.086,2.034,6.668,2.1,10.357c0.07,4.079-1.229,7.244-2.649,10.062c-1.48,2.942-3.66,6.589-7.42,8.723
				c-2.398,1.358-5.021,1.468-7.958,1.468h-0.766c-0.492,0-0.994,0.003-1.487,0.015
				C189.829,136.499,189.651,136.501,189.471,136.501z M192.039,135.908h0.222c0.161,0,0.316,0,0.472,0
				C192.514,135.881,192.28,135.887,192.039,135.908z M172.488,106.901c-0.438,0.639-0.769,1.391-1.011,2.262
				c-0.906,3.255-0.971,7.885-0.161,12.384c0.772,4.297,3.309,8.204,7.145,11c1.116,0.812,2.36,1.49,3.693,2.022
				c-3.463-1.541-6.46-4.2-8.485-7.607c-2.425-4.064-2.539-8.562-2.437-13.599c0.038-1.795,0.202-4.126,1.167-6.278
				C172.431,107.022,172.457,106.961,172.488,106.901z M203.759,102.113c3.007,1.462,4.174,4.896,4.972,8.449
				c1.104,4.946,1.021,9.014-0.242,12.098c-1.208,2.937-2.597,5.938-4.592,8.484c1.388-1.662,2.417-3.493,3.231-5.109
				c1.387-2.751,2.657-5.842,2.585-9.792c-0.06-3.624-0.774-7.13-2.048-10.147C206.798,104.061,205.634,102.853,203.759,102.113z
				 M184.521,104.228c0.33,0.118,0.654,0.265,0.976,0.438c0.357,0.2,0.701,0.443,1.031,0.675c0.475,0.34,0.93,0.657,1.437,0.868
				c0.253,0.102,0.508,0.176,0.758,0.222c-0.695-0.241-1.328-0.652-1.95-1.05C186.072,104.921,185.345,104.455,184.521,104.228z
				 M191.501,102.923c-0.393,0.405-0.704,0.901-0.884,1.5c0.102-0.015,0.186-0.046,0.226-0.067
				C190.97,103.815,191.197,103.338,191.501,102.923z"/>
		</g>
		<g>
			<path d="M190.012,102.234c-1.353-3.205-3.897-4.973-6.997-6.326c-0.343-0.146-0.992,0.341-0.499,0.56
				c2.934,1.276,5.37,2.966,6.648,5.999C189.318,102.832,190.159,102.585,190.012,102.234L190.012,102.234z"/>
			<path d="M189.506,102.932L189.506,102.932c-0.285,0-0.513-0.134-0.604-0.356c-1.081-2.559-3.086-4.359-6.497-5.845
				c-0.312-0.138-0.382-0.382-0.343-0.569c0.09-0.427,0.711-0.668,1.068-0.516c2.517,1.097,5.603,2.825,7.146,6.477
				c0.066,0.158,0.048,0.327-0.044,0.469C190.077,102.829,189.757,102.932,189.506,102.932z M189.427,102.354
				c0.01,0,0.038,0.007,0.079,0.007c0.121,0,0.229-0.058,0.246-0.085c-1.159-2.671-3.212-4.519-6.854-6.101
				c-0.092-0.003-0.147,0.021-0.201,0.052C185.106,97.29,187.983,98.936,189.427,102.354L189.427,102.354z"/>
		</g>
	</g>
</g>
<g>
	<g>
		<path d="M61.223,25.097V14.075h0.62v10.402h4.271v0.62H61.223z"/>
		<path d="M68.621,23.829c0.583,0.533,1.277,0.799,2.08,0.799c0.864,0,1.602-0.305,2.212-0.917c0.079-0.078,0.152-0.158,0.22-0.241
			l0.654,0.234c-0.121,0.166-0.254,0.323-0.405,0.476c-0.74,0.739-1.635,1.108-2.682,1.108c-1.043,0-1.933-0.369-2.672-1.108
			c-0.739-0.74-1.108-1.633-1.108-2.681c0-1.042,0.369-1.934,1.108-2.672c0.739-0.74,1.629-1.11,2.672-1.11
			c0.896,0,1.679,0.27,2.349,0.806c0.111,0.094,0.221,0.194,0.333,0.304c0.041,0.041,0.079,0.082,0.114,0.125l-0.468,0.467
			L68.621,23.829z M72.574,19c-0.536-0.412-1.161-0.619-1.874-0.619c-0.857,0-1.592,0.303-2.204,0.913
			c-0.61,0.609-0.917,1.344-0.917,2.206c0,0.711,0.208,1.336,0.62,1.875L72.574,19z"/>
		<path d="M77.301,21.62c-0.529-0.287-0.894-0.53-1.095-0.73c-0.317-0.319-0.476-0.699-0.476-1.145c0-0.45,0.159-0.834,0.476-1.154
			c0.316-0.318,0.698-0.479,1.143-0.479c0.449,0,0.822,0.146,1.116,0.441c0.284,0.289,0.427,0.618,0.427,0.985v0.037l-0.537,0.213
			c-0.046-0.351-0.156-0.614-0.327-0.788c-0.174-0.174-0.397-0.263-0.679-0.263c-0.275,0-0.512,0.099-0.709,0.294
			c-0.198,0.195-0.296,0.433-0.296,0.713c0,0.275,0.098,0.512,0.296,0.709c0.114,0.117,0.358,0.289,0.73,0.524
			c0.587,0.322,1.005,0.605,1.254,0.855c0.39,0.393,0.584,0.866,0.584,1.412c0,0.561-0.194,1.036-0.584,1.43
			c-0.391,0.393-0.865,0.588-1.419,0.588c-0.558,0-1.03-0.196-1.418-0.588c-0.392-0.394-0.586-0.823-0.586-1.293l0.612-0.158
			c0,0.404,0.137,0.741,0.411,1.011c0.273,0.271,0.598,0.407,0.981,0.407c0.38,0,0.708-0.136,0.98-0.407
			c0.274-0.27,0.412-0.601,0.412-0.99c0-0.382-0.136-0.707-0.408-0.98C78.041,22.119,77.744,21.903,77.301,21.62z"/>
	</g>
	<g>
		<path d="M92.098,21.593c0,1.128-0.298,1.989-0.893,2.585c-0.63,0.636-1.396,0.956-2.293,0.956c-0.898,0-1.663-0.316-2.296-0.952
			c-0.629-0.636-0.945-1.332-0.945-2.089l0.658-0.256c0.148,0.804,0.462,1.407,0.946,1.805c0.4,0.342,0.852,0.513,1.357,0.513
			c0.089,0,0.184-0.008,0.28-0.023c0.614,0,1.147-0.217,1.594-0.656c0.392-0.393,0.589-1.06,0.589-1.996V7.156h1.003V21.593z"/>
		<path d="M107.079,24.977h-1.001V22.75c-0.194,0.258-0.405,0.508-0.635,0.746c-1.195,1.195-2.641,1.792-4.334,1.792
			c-1.685,0-3.125-0.597-4.32-1.792c-1.197-1.195-1.793-2.636-1.793-4.323c0-1.691,0.597-3.138,1.793-4.333
			c1.195-1.194,2.635-1.792,4.32-1.792c1.693,0,3.14,0.598,4.334,1.792c0.23,0.24,0.441,0.486,0.635,0.746v-1.547h1.001V24.977z
			 M106.078,20.167v-1.983c-0.187-0.982-0.65-1.841-1.394-2.583c-0.988-0.99-2.18-1.483-3.576-1.483
			c-1.396,0-2.588,0.493-3.576,1.483c-0.986,0.986-1.48,2.177-1.48,3.573c0,1.396,0.494,2.588,1.48,3.571
			c0.987,0.983,2.179,1.477,3.576,1.477c1.396,0,2.588-0.493,3.576-1.483C105.427,21.996,105.891,21.139,106.078,20.167z"/>
		<path d="M110.421,14.039h1.002v1.995c0.208-0.297,0.451-0.584,0.725-0.859c0.883-0.884,1.79-1.346,2.717-1.392v1.091
			c-0.63,0.03-1.285,0.382-1.959,1.059c-0.95,0.944-1.444,2.077-1.483,3.398v5.646h-1.002V14.039z"/>
		<path d="M128.834,24.977h-1.003V22.75c-0.191,0.258-0.404,0.508-0.635,0.746c-1.195,1.195-2.639,1.792-4.334,1.792
			c-1.686,0-3.125-0.597-4.32-1.792c-1.196-1.195-1.794-2.636-1.794-4.323c0-1.691,0.598-3.138,1.794-4.333
			c1.196-1.194,2.635-1.792,4.32-1.792c1.695,0,3.139,0.598,4.334,1.792c0.23,0.24,0.443,0.486,0.635,0.746V7.156h1.003V24.977z
			 M127.831,20.167v-1.983c-0.187-0.982-0.65-1.841-1.391-2.583c-0.989-0.99-2.181-1.483-3.578-1.483
			c-1.396,0-2.586,0.493-3.574,1.483c-0.988,0.986-1.482,2.177-1.482,3.573c0,1.396,0.494,2.588,1.482,3.571
			s2.178,1.477,3.574,1.477c1.397,0,2.589-0.493,3.578-1.483C127.181,21.996,127.645,21.139,127.831,20.167z"/>
		<path d="M133.606,10.454c0.197,0.194,0.295,0.426,0.295,0.7c0,0.282-0.098,0.521-0.295,0.713
			c-0.195,0.194-0.431,0.291-0.706,0.291c-0.274,0-0.511-0.097-0.707-0.291c-0.199-0.192-0.297-0.431-0.297-0.713
			c0-0.274,0.098-0.506,0.297-0.7c0.196-0.193,0.433-0.289,0.707-0.289C133.176,10.165,133.411,10.26,133.606,10.454z M133.4,14.039
			v10.938h-1.002V14.039H133.4z"/>
		<path d="M137.97,16.479v8.498h-1.004V14.039h1.004v0.702c0.913-0.907,1.974-1.359,3.184-1.359c1.293,0,2.341,0.406,3.153,1.215
			c0.81,0.809,1.225,1.83,1.246,3.062v7.318h-1v-7.228c0-0.928-0.338-1.722-1.01-2.38c-0.672-0.655-1.469-0.985-2.39-0.985
			c-0.918,0-1.715,0.324-2.384,0.969C138.406,15.717,138.139,16.092,137.97,16.479z"/>
		<path d="M151.902,19.353c-0.854-0.461-1.443-0.854-1.771-1.181c-0.513-0.513-0.77-1.129-0.77-1.849c0-0.729,0.257-1.35,0.77-1.865
			c0.514-0.516,1.128-0.775,1.849-0.775c0.728,0,1.329,0.239,1.805,0.712c0.462,0.469,0.691,0.999,0.691,1.595v0.055l-0.869,0.345
			c-0.074-0.563-0.252-0.988-0.527-1.27c-0.281-0.283-0.646-0.422-1.1-0.422c-0.445,0-0.828,0.156-1.146,0.472
			c-0.317,0.316-0.479,0.7-0.479,1.153c0,0.448,0.162,0.83,0.479,1.147c0.187,0.185,0.579,0.468,1.181,0.848
			c0.95,0.519,1.627,0.98,2.029,1.38c0.629,0.638,0.946,1.4,0.946,2.286c0,0.905-0.317,1.675-0.946,2.309
			c-0.633,0.634-1.398,0.952-2.298,0.952c-0.898,0-1.662-0.318-2.294-0.952c-0.631-0.634-0.947-1.331-0.947-2.087l0.993-0.257
			c0,0.654,0.221,1.2,0.662,1.636c0.441,0.439,0.971,0.658,1.586,0.658c0.617,0,1.146-0.219,1.588-0.658
			c0.442-0.437,0.662-0.973,0.662-1.602c0-0.618-0.219-1.145-0.657-1.584C153.103,20.162,152.623,19.813,151.902,19.353z"/>
	</g>
	<g>
		<path d="M169.513,25.097h-0.622v-1.379c-0.119,0.165-0.25,0.318-0.391,0.464c-0.74,0.739-1.634,1.108-2.681,1.108
			c-1.043,0-1.933-0.369-2.674-1.108c-0.738-0.74-1.107-1.631-1.107-2.673c0-1.048,0.369-1.941,1.107-2.68
			c0.741-0.74,1.631-1.11,2.674-1.11c1.047,0,1.94,0.37,2.681,1.11c0.141,0.146,0.271,0.301,0.391,0.462v-5.215h0.622V25.097z
			 M168.891,22.123v-1.228c-0.114-0.607-0.398-1.138-0.86-1.597c-0.609-0.612-1.348-0.917-2.211-0.917
			c-0.864,0-1.6,0.305-2.211,0.917c-0.609,0.609-0.916,1.345-0.916,2.21c0,0.863,0.307,1.6,0.916,2.208
			c0.611,0.607,1.347,0.913,2.211,0.913c0.863,0,1.602-0.305,2.211-0.917C168.492,23.253,168.776,22.721,168.891,22.123z"/>
		<path d="M172.866,23.829c0.582,0.533,1.277,0.799,2.082,0.799c0.86,0,1.599-0.305,2.209-0.917
			c0.081-0.078,0.152-0.158,0.222-0.241l0.654,0.234c-0.122,0.166-0.256,0.323-0.407,0.476c-0.74,0.739-1.633,1.108-2.678,1.108
			c-1.042,0-1.935-0.369-2.672-1.108c-0.74-0.74-1.111-1.633-1.111-2.681c0-1.042,0.371-1.934,1.111-2.672
			c0.737-0.74,1.63-1.11,2.672-1.11c0.894,0,1.677,0.27,2.347,0.806c0.11,0.094,0.223,0.194,0.331,0.304
			c0.04,0.041,0.081,0.082,0.118,0.125l-0.472,0.467L172.866,23.829z M176.819,19c-0.536-0.412-1.159-0.619-1.871-0.619
			c-0.861,0-1.597,0.303-2.206,0.913c-0.611,0.609-0.917,1.344-0.917,2.206c0,0.711,0.207,1.336,0.62,1.875L176.819,19z"/>
	</g>
	<g>
		<path d="M65.318,37.007c-1.286-0.43-2.3-1.016-3.045-1.759c-0.744-0.744-1.116-1.647-1.116-2.708c0-1.037,0.373-1.929,1.116-2.678
			c0.745-0.748,1.647-1.123,2.708-1.123c1.055,0,1.955,0.372,2.707,1.118c0.415,0.396,0.699,0.845,0.855,1.341l-0.912,0.362
			c-0.135-0.368-0.358-0.708-0.665-1.017c-0.549-0.54-1.211-0.812-1.986-0.812c-0.776,0-1.436,0.273-1.985,0.818
			c-0.548,0.547-0.821,1.208-0.821,1.99c0,0.775,0.273,1.438,0.821,1.985c0.512,0.505,1.218,0.966,2.12,1.388
			c1.445,0.465,2.658,1.191,3.642,2.177c1.046,1.038,1.569,2.295,1.569,3.767c0,1.483-0.522,2.745-1.569,3.792
			c-1.044,1.042-2.302,1.564-3.777,1.564c-1.473,0-2.733-0.526-3.778-1.579c-0.834-0.833-1.335-1.804-1.5-2.908l0.958-0.35
			c0.105,0.975,0.524,1.829,1.253,2.56c0.851,0.849,1.872,1.275,3.067,1.275c1.203,0,2.229-0.426,3.079-1.275
			c0.85-0.851,1.275-1.878,1.275-3.08c0-1.196-0.426-2.219-1.275-3.068C67.316,38.045,66.402,37.45,65.318,37.007z"/>
		<path d="M84.537,47h-1.015v-2.255c-0.196,0.262-0.408,0.513-0.643,0.755c-1.21,1.21-2.673,1.816-4.387,1.816
			c-1.705,0-3.166-0.606-4.375-1.816c-1.21-1.211-1.816-2.67-1.816-4.377c0-1.715,0.606-3.175,1.816-4.387
			c1.209-1.21,2.67-1.814,4.375-1.814c1.714,0,3.177,0.604,4.387,1.814c0.234,0.24,0.447,0.494,0.643,0.756v-1.569h1.015V47z
			 M83.521,42.126V40.12c-0.188-0.993-0.658-1.865-1.408-2.617c-1.002-1-2.208-1.5-3.622-1.5s-2.62,0.5-3.62,1.5
			c-1,1-1.5,2.208-1.5,3.62c0,1.414,0.5,2.619,1.5,3.616c1,0.995,2.206,1.493,3.62,1.493s2.62-0.498,3.622-1.502
			C82.863,43.981,83.334,43.112,83.521,42.126z"/>
		<path d="M89.371,32.292c0.198,0.197,0.298,0.433,0.298,0.71c0,0.286-0.1,0.529-0.298,0.724c-0.2,0.193-0.439,0.292-0.717,0.292
			s-0.516-0.099-0.716-0.292c-0.199-0.195-0.299-0.438-0.299-0.724c0-0.277,0.1-0.513,0.299-0.71c0.2-0.195,0.438-0.293,0.716-0.293
			S89.171,32.097,89.371,32.292z M89.161,35.923V47h-1.015V35.923H89.161z"/>
		<path d="M93.786,38.396V47H92.77V35.923h1.016v0.71c0.923-0.916,2-1.375,3.226-1.375c1.306,0,2.37,0.411,3.189,1.231
			c0.82,0.818,1.242,1.852,1.265,3.102V47h-1.015v-7.319c0-0.941-0.34-1.744-1.021-2.408c-0.681-0.667-1.486-1-2.418-1
			c-0.933,0-1.738,0.328-2.415,0.983C94.229,37.622,93.958,38.003,93.786,38.396z"/>
		<path d="M106.427,35.923V31.21h1.015v4.713h2.256v1.016h-2.256V47h-1.015V36.939h-2.254v-1.016H106.427z"/>
		<path d="M124.879,37.007c-1.285-0.43-2.301-1.016-3.046-1.759c-0.744-0.744-1.115-1.647-1.115-2.708
			c0-1.037,0.371-1.929,1.115-2.678c0.745-0.748,1.646-1.123,2.707-1.123c1.054,0,1.955,0.372,2.708,1.118
			c0.413,0.396,0.699,0.845,0.856,1.341l-0.915,0.362c-0.134-0.368-0.355-0.708-0.664-1.017c-0.549-0.54-1.21-0.812-1.985-0.812
			c-0.774,0-1.436,0.273-1.985,0.818c-0.549,0.547-0.821,1.208-0.821,1.99c0,0.775,0.272,1.438,0.821,1.985
			c0.512,0.505,1.219,0.966,2.121,1.388c1.442,0.465,2.657,1.191,3.642,2.177c1.048,1.038,1.568,2.295,1.568,3.767
			c0,1.483-0.521,2.745-1.568,3.792c-1.043,1.042-2.302,1.564-3.777,1.564c-1.474,0-2.732-0.526-3.777-1.579
			c-0.834-0.833-1.333-1.804-1.5-2.908l0.958-0.35c0.104,0.975,0.522,1.829,1.25,2.56c0.851,0.849,1.875,1.275,3.068,1.275
			c1.203,0,2.229-0.426,3.078-1.275c0.853-0.851,1.275-1.878,1.275-3.08c0-1.196-0.423-2.219-1.275-3.068
			C126.877,38.045,125.962,37.45,124.879,37.007z"/>
		<path d="M134.252,44.923c0.954,0.873,2.09,1.309,3.404,1.309c1.415,0,2.621-0.498,3.621-1.502c0.127-0.126,0.249-0.258,0.36-0.393
			l1.071,0.384c-0.194,0.27-0.417,0.529-0.665,0.778c-1.21,1.21-2.672,1.816-4.388,1.816c-1.706,0-3.165-0.606-4.374-1.816
			c-1.212-1.211-1.815-2.674-1.815-4.388c0-1.706,0.604-3.165,1.815-4.376c1.209-1.21,2.668-1.814,4.374-1.814
			c1.467,0,2.748,0.439,3.848,1.318c0.178,0.15,0.361,0.315,0.54,0.496c0.069,0.067,0.131,0.137,0.193,0.204l-0.767,0.766
			L134.252,44.923z M140.725,37.018c-0.879-0.677-1.901-1.015-3.068-1.015c-1.403,0-2.608,0.498-3.609,1.495
			c-0.999,0.996-1.499,2.2-1.499,3.614c0,1.166,0.339,2.188,1.015,3.067L140.725,37.018z"/>
		<path d="M145.416,35.923h1.017v2.019c0.209-0.3,0.453-0.589,0.732-0.869c0.896-0.893,1.813-1.362,2.751-1.41v1.106
			c-0.639,0.029-1.3,0.386-1.985,1.074c-0.963,0.953-1.461,2.102-1.498,3.437V47h-1.017V35.923z"/>
		<path d="M153.422,38.396V47h-1.014V35.923h1.014v0.71c0.929-0.916,1.999-1.375,3.227-1.375c1.309,0,2.372,0.411,3.192,1.231
			c0.82,0.818,1.24,1.852,1.265,3.102V47h-1.016v-7.319c0-0.941-0.341-1.744-1.02-2.408c-0.682-0.667-1.489-1-2.422-1
			c-0.931,0-1.734,0.328-2.413,0.983C153.865,37.622,153.596,38.003,153.422,38.396z"/>
		<path d="M165.937,32.292c0.2,0.197,0.299,0.433,0.299,0.71c0,0.286-0.099,0.529-0.299,0.724c-0.199,0.193-0.438,0.292-0.715,0.292
			c-0.28,0-0.518-0.099-0.717-0.292c-0.199-0.195-0.299-0.438-0.299-0.724c0-0.277,0.1-0.513,0.299-0.71
			c0.199-0.195,0.437-0.293,0.717-0.293C165.499,31.999,165.737,32.097,165.937,32.292z M165.729,35.923V47h-1.015V35.923H165.729z"
			/>
		<path d="M170.354,38.396V47h-1.019V35.923h1.019v0.71c0.923-0.916,1.997-1.375,3.227-1.375c1.306,0,2.366,0.411,3.188,1.231
			c0.819,0.818,1.242,1.852,1.265,3.102V47h-1.014v-7.319c0-0.941-0.341-1.744-1.021-2.408c-0.683-0.667-1.49-1-2.419-1
			c-0.936,0-1.739,0.328-2.416,0.983C170.797,37.622,170.525,38.003,170.354,38.396z"/>
	</g>
</g>
<g>
	<path fill="#9060A4" d="M63.794,82.669c0,0-7.177-2.558-9.377,2.053c-2.202,4.615-3.276,15.195-7.827,21.9
		c-4.295,6.336-10.089,7.954-13.563,9.202c-7.301,2.608-5.268,12.747-2.979,16.852c2.979,5.348,15.12,7.37,21.151,3.31
		c9.573-6.445,15.243-17.881,17.89-28.864C71.088,98.815,68.1,83.369,63.794,82.669z"/>
	<g>
		<g>
			<path d="M38.862,96.633c0.983-0.634,2.266-2.774,3.628-1.719c0.964,0.741,1.672,0.965,2.922,1.12
				c1.882,0.231,2.727-0.528,3.455-2.171c1.077-2.425,2.976,0.964,3.426,1.487c0.438,0.507,1.058,0.947,1.774,0.86
				c0.641-0.082,1.167-0.279,1.735-0.585c0.428-0.233,0.814-0.554,1.21-0.836c1.138-0.82,1.512-0.042,1.827,0.956
				c0.059,0.193,0.634-0.066,0.723-0.134c2.043-1.501,0.038-5.749-0.795-7.447c-1.454-2.977-4.52-5.356-7.91-5.487
				c-2.046-0.075-4.667,0.279-6.027,2.018c-1.046,1.34-1.994,2.943-2.746,4.461c-0.84,1.708-1.145,3.639-2.312,5.182
				c-0.045,0.059,0.615,0.04,0.75-0.137c1.46-1.936,1.792-4.479,3.087-6.526c0.591-0.935,1.106-1.919,1.743-2.822
				c1.441-2.058,4.338-2.126,6.567-1.608c2.992,0.693,5.193,3.124,6.418,5.82c0.689,1.521,2.294,5.32,0.537,6.61
				c0.24-0.043,0.485-0.088,0.724-0.132c-0.658-2.109-1.987-1.613-3.458-0.555c-0.783,0.561-1.724,1.223-2.719,0.533
				c-0.539-0.378-0.858-1.119-1.234-1.645c-0.528-0.737-1.237-0.899-2.096-0.822c-0.497,0.047-1.441,0.253-1.773,0.688
				c-0.566,0.742-0.493,1.987-1.844,2.027c-1.022,0.028-2.336-0.218-3.088-0.938c-1.81-1.726-3.788,0.935-5.101,1.788
				C37.972,96.827,38.732,96.721,38.862,96.633L38.862,96.633z"/>
			<path d="M58.668,96.051l-0.231-0.464c-0.201-0.574-0.382-0.809-0.6-0.809c-0.111,0-0.312,0.049-0.632,0.279l-0.299,0.223
				c-0.298,0.22-0.608,0.45-0.946,0.635c-0.643,0.351-1.215,0.545-1.851,0.623c-0.912,0.11-1.643-0.484-2.066-0.976
				c-0.071-0.077-0.176-0.231-0.311-0.419c-0.372-0.528-1.052-1.501-1.65-1.756c-0.138,0.013-0.353,0.046-0.596,0.107
				c-0.112,0.112-0.215,0.284-0.316,0.504c-0.618,1.394-1.496,2.647-3.798,2.363c-1.238-0.151-2.016-0.368-3.082-1.187
				c-0.19-0.15-0.378-0.219-0.572-0.219c-0.579,0-1.211,0.617-1.769,1.165c-0.314,0.311-0.613,0.599-0.905,0.791
				c-0.169,0.106-0.547,0.156-0.706,0.156l0,0c-0.317,0-0.415-0.167-0.443-0.267c-0.031-0.104-0.042-0.294,0.208-0.456
				c0.277-0.184,0.602-0.46,0.943-0.755c0.357-0.312,0.731-0.635,1.123-0.911c-0.111,0.015-0.206,0.019-0.26,0.019
				c-0.099,0-0.333,0-0.436-0.207l-0.09-0.184l0.125-0.169c0.691-0.916,1.061-1.96,1.457-3.071c0.242-0.684,0.494-1.389,0.824-2.06
				c0.59-1.193,1.554-2.949,2.781-4.519c1.393-1.775,3.908-2.15,5.774-2.15c0.179,0,0.355,0,0.527,0.008
				c3.303,0.123,6.596,2.404,8.194,5.668c0.719,1.471,2.851,5.833,0.922,7.671c-0.14,0.147-0.179,0.155-0.179,0.155
				c-0.015,0.014-0.032,0.025-0.051,0.037c-0.108,0.082-0.505,0.265-0.785,0.265C58.842,96.144,58.741,96.107,58.668,96.051
				 M50.404,92.705c0.019,0,0.041,0,0.062,0c0.87,0,1.521,0.321,1.99,0.981c0.117,0.162,0.225,0.343,0.337,0.523
				c0.245,0.398,0.493,0.815,0.817,1.04c0.229,0.157,0.461,0.236,0.706,0.236c0.566,0,1.155-0.429,1.628-0.77
				c0.936-0.67,1.619-0.971,2.209-0.971c0.452,0,0.836,0.174,1.148,0.52c0.136-0.894-0.069-2.429-1.267-5.065
				c-1.356-2.983-3.612-5.034-6.191-5.635c-0.739-0.171-1.498-0.258-2.196-0.258c-1.282,0-3.02,0.299-4.024,1.731
				c-0.38,0.541-0.727,1.127-1.06,1.694c-0.221,0.374-0.442,0.747-0.675,1.115c-0.577,0.909-0.968,1.957-1.345,2.965
				c-0.439,1.169-0.892,2.375-1.638,3.421c0.897-0.441,1.909-0.405,2.708,0.355c0.658,0.63,1.825,0.853,2.7,0.853h0.15
				c0.691-0.022,0.88-0.392,1.15-1.051c0.12-0.29,0.241-0.586,0.44-0.849c0.171-0.23,0.458-0.415,0.853-0.56
				C49.409,92.74,50.404,92.705,50.404,92.705z M51.327,93.543c0.375,0.406,0.707,0.88,0.949,1.221
				c0.115,0.167,0.207,0.294,0.27,0.367c0.08,0.094,0.174,0.196,0.282,0.291c-0.234-0.27-0.424-0.579-0.599-0.87
				c-0.103-0.167-0.204-0.332-0.31-0.484C51.749,93.829,51.555,93.659,51.327,93.543z M58.7,94.604
				c0.113,0.157,0.199,0.337,0.272,0.515c0.021-0.025,0.04-0.054,0.06-0.086C58.923,94.833,58.811,94.699,58.7,94.604z
				 M55.908,85.056c1.093,1.018,2.027,2.325,2.729,3.87c1.179,2.597,1.596,4.549,1.235,5.822c0.586-1.167,0.12-3.329-1.402-6.438
				C57.851,87.038,56.959,85.93,55.908,85.056z M42.633,88.81c-0.089,0.174-0.174,0.34-0.251,0.495
				c-0.313,0.631-0.556,1.319-0.794,1.983c-0.157,0.441-0.315,0.892-0.5,1.333c0.31-0.643,0.568-1.328,0.834-2.036
				C42.143,89.992,42.368,89.396,42.633,88.81z"/>
		</g>
		<g>
			<path d="M49.963,81.98c-0.144-0.455-0.19-0.948-0.394-1.378c-0.071,0.1-0.144,0.199-0.217,0.299
				c0.319-0.129,0.676-0.254,0.908,0.07c0.259,0.355,0.175,0.939,0.12,1.34c-0.05,0.357,0.724,0.238,0.767-0.069
				c0.072-0.551,0.135-1.272-0.281-1.702c-0.474-0.498-1.294-0.262-1.838-0.035c-0.089,0.035-0.275,0.172-0.218,0.3
				c0.204,0.435,0.248,0.921,0.393,1.377C49.305,82.504,50.062,82.29,49.963,81.98L49.963,81.98z"/>
			<path d="M50.65,82.862c-0.203,0-0.373-0.067-0.482-0.193c-0.049-0.053-0.082-0.119-0.103-0.188
				c-0.169,0.129-0.393,0.19-0.577,0.19l0,0c-0.292,0-0.523-0.15-0.598-0.39c-0.061-0.184-0.105-0.378-0.147-0.562
				c-0.015-0.066-0.027-0.125-0.044-0.187l-0.054-0.214c-0.036-0.131-0.079-0.254-0.133-0.373c-0.053-0.112-0.056-0.243-0.008-0.362
				c0.079-0.205,0.289-0.338,0.4-0.384c0.259-0.106,0.498-0.186,0.717-0.232l0.012-0.016l0.007,0.013
				c0.629-0.128,1.129-0.01,1.466,0.346c0.557,0.578,0.431,1.521,0.37,1.976C51.424,82.646,51.016,82.862,50.65,82.862z
				 M50.376,80.612c0.055,0.046,0.108,0.103,0.154,0.165c0.296,0.409,0.255,0.983,0.2,1.415c0.055-0.013,0.096-0.039,0.111-0.05
				c0.049-0.479,0.082-1.065-0.213-1.378C50.562,80.695,50.476,80.646,50.376,80.612z M49.318,81.275
				c0.025,0.096,0.047,0.196,0.067,0.293c0.036,0.15,0.069,0.293,0.11,0.437c0.051,0,0.093-0.013,0.124-0.024
				c-0.045-0.157-0.081-0.308-0.116-0.469c-0.022-0.095-0.047-0.189-0.068-0.286L49.318,81.275z"/>
		</g>
		<g>
			<path d="M58.442,96.663c-1.415,7.87-1.059,15.877-5.702,22.771c-2.4,3.562-5.702,6.725-9.612,8.547
				c-3.389,1.576-7.73,1.241-11.222,0.132c-3.467-1.102-5.343-3.942-5.564-7.485c-0.114-1.761-0.085-3.515,0.209-5.254
				c0.394-2.342,1.778-3.927,3.469-5.483c2.505-2.3,5.428-4.085,7.774-6.569c1.42-1.505,3.739-3.902,3.719-6.14
				c-0.004-0.376-0.77-0.239-0.768,0.068c0.03,2.892-3.467,5.869-5.436,7.64c-3.047,2.738-7.507,4.947-9.089,8.939
				c-1.183,2.991-1.1,7.503,0.134,10.469c1.183,2.834,4.116,4.176,6.936,4.781c3.197,0.682,6.571,0.679,9.643-0.477
				c3.783-1.42,6.931-4.475,9.401-7.57c2.571-3.23,4.165-6.844,5.007-10.865c0.941-4.474,1.056-9.079,1.867-13.573
				C59.271,96.236,58.499,96.347,58.442,96.663L58.442,96.663z"/>
			<path d="M37.519,129.873c-0.002,0-0.002,0-0.002,0c-1.385,0-2.831-0.162-4.293-0.473c-3.661-0.786-6.141-2.505-7.172-4.979
				c-1.28-3.069-1.341-7.676-0.136-10.713c1.16-2.936,3.785-4.9,6.325-6.802c1.02-0.767,1.988-1.488,2.849-2.263l0.303-0.272
				c1.888-1.689,5.05-4.519,5.024-7.115c-0.002-0.143,0.055-0.278,0.166-0.389c0.148-0.152,0.387-0.24,0.629-0.24
				c0.367,0,0.629,0.225,0.632,0.554c0.024,2.318-2.223,4.692-3.709,6.262l-0.096,0.107c-1.373,1.451-2.954,2.679-4.484,3.863
				c-1.11,0.864-2.257,1.754-3.309,2.723c-1.76,1.615-3.006,3.131-3.367,5.291c-0.262,1.547-0.327,3.244-0.207,5.178
				c0.224,3.565,2.168,6.184,5.335,7.193c1.909,0.604,3.903,0.925,5.77,0.925c1.97,0,3.725-0.349,5.211-1.042
				c3.566-1.662,6.933-4.654,9.476-8.432c3.402-5.05,4.078-10.623,4.791-16.522c0.244-2.007,0.496-4.08,0.864-6.125
				c0.102-0.575,1.022-0.711,1.312-0.361c0.095,0.11,0.132,0.258,0.104,0.411c-0.367,2.045-0.596,4.149-0.816,6.185
				c-0.267,2.432-0.538,4.951-1.051,7.397c-0.889,4.237-2.548,7.832-5.073,11.001c-3.132,3.928-6.253,6.442-9.542,7.679
				C41.359,129.55,39.496,129.873,37.519,129.873z M28.702,110.721c-0.921,0.955-1.689,2.009-2.173,3.229
				c-1.146,2.896-1.088,7.287,0.132,10.217c0.585,1.409,1.638,2.418,2.838,3.14c-2.067-1.44-3.308-3.764-3.488-6.66
				c-0.126-1.985-0.055-3.732,0.216-5.327C26.536,113.468,27.424,112.066,28.702,110.721z M58.849,96.721
				c-0.051,0.012-0.088,0.031-0.1,0.043c-0.347,1.981-0.596,4.047-0.836,6.043c-0.646,5.33-1.312,10.816-4.218,15.734
				c1.572-2.513,2.664-5.296,3.326-8.443c0.505-2.412,0.776-4.914,1.04-7.335C58.275,100.78,58.496,98.728,58.849,96.721z
				 M41.076,97.317c-0.002,0.531-0.113,1.062-0.305,1.584c0.244-0.536,0.397-1.077,0.41-1.61
				C41.135,97.293,41.099,97.306,41.076,97.317z"/>
		</g>
	</g>
</g>
<line fill="none" stroke="#000000" stroke-width="0.5" stroke-miterlimit="10" x1="0.366" y1="118.979" x2="25.381" y2="118.979"/>
<line fill="none" stroke="#000000" stroke-width="0.5" stroke-miterlimit="10" x1="64.972" y1="118.979" x2="84.222" y2="118.992"/>
<line fill="none" stroke="#000000" stroke-width="0.5" stroke-miterlimit="10" x1="118.074" y1="118.979" x2="136.814" y2="119.003"/>
<line fill="none" stroke="#000000" stroke-width="0.5" stroke-miterlimit="10" x1="153.706" y1="118.979" x2="170.334" y2="118.515"/>
<line fill="none" stroke="#000000" stroke-width="0.5" stroke-miterlimit="10" x1="216.688" y1="118.747" x2="241.312" y2="118.515"/>
<g>
	<path d="M24.263,147.667l0.326,0.114c-0.061,0.084-0.126,0.162-0.203,0.236c-0.366,0.367-0.81,0.55-1.331,0.55
		c-0.516,0-0.958-0.183-1.325-0.55c-0.367-0.366-0.551-0.812-0.551-1.33c0-0.518,0.184-0.959,0.551-1.326
		c0.368-0.367,0.81-0.55,1.325-0.55c0.521,0,0.965,0.183,1.331,0.55c0.076,0.077,0.142,0.152,0.203,0.234l-0.326,0.119
		c-0.033-0.044-0.07-0.084-0.108-0.124c-0.304-0.3-0.67-0.45-1.099-0.45c-0.424,0-0.79,0.15-1.092,0.452
		c-0.303,0.303-0.456,0.666-0.456,1.095s0.152,0.795,0.456,1.097c0.302,0.305,0.668,0.455,1.092,0.455
		c0.429,0,0.795-0.15,1.099-0.455C24.193,147.745,24.23,147.708,24.263,147.667z"/>
	<path d="M26.793,148.52c-0.419,0-0.753-0.123-1.002-0.373c-0.249-0.247-0.375-0.561-0.382-0.94v-2.097h0.307v2.071
		c0,0.283,0.104,0.527,0.311,0.727c0.206,0.205,0.459,0.306,0.764,0.306c0.281,0,0.527-0.101,0.733-0.303s0.309-0.446,0.309-0.729
		v-2.071h0.309v2.097c-0.008,0.38-0.135,0.693-0.383,0.94C27.507,148.396,27.187,148.52,26.793,148.52z"/>
	<path d="M29.804,147.843c0.288,0.265,0.633,0.396,1.032,0.396c0.429,0,0.793-0.15,1.097-0.455c0.04-0.039,0.075-0.076,0.11-0.117
		l0.323,0.114c-0.059,0.084-0.126,0.162-0.2,0.236c-0.368,0.367-0.811,0.55-1.33,0.55c-0.517,0-0.958-0.183-1.327-0.55
		c-0.367-0.366-0.551-0.812-0.551-1.33c0-0.518,0.184-0.959,0.551-1.326c0.368-0.367,0.81-0.55,1.327-0.55
		c0.444,0,0.832,0.133,1.166,0.4c0.055,0.045,0.11,0.095,0.165,0.149c0.02,0.021,0.039,0.041,0.057,0.062l-0.232,0.231
		L29.804,147.843z M31.766,145.448c-0.266-0.205-0.576-0.308-0.93-0.308c-0.427,0-0.792,0.15-1.093,0.452
		c-0.304,0.303-0.455,0.666-0.455,1.095c0,0.354,0.103,0.665,0.308,0.931L31.766,145.448z"/>
	<path d="M33.627,144.016c0.06,0.06,0.091,0.13,0.091,0.214c0,0.088-0.031,0.16-0.091,0.22c-0.06,0.059-0.133,0.089-0.217,0.089
		c-0.084,0-0.156-0.03-0.218-0.089c-0.06-0.06-0.09-0.132-0.09-0.22c0-0.084,0.03-0.154,0.09-0.214
		c0.062-0.061,0.133-0.088,0.218-0.088C33.494,143.928,33.568,143.955,33.627,144.016z M33.564,145.116v3.356h-0.307v-3.356H33.564z
		"/>
	<path d="M34.965,143.005v5.468h-0.308v-5.468H34.965z"/>
	<path d="M36.298,143.005v5.468h-0.308v-5.468H36.298z"/>
	<path d="M37.962,147.843c0.291,0.265,0.634,0.396,1.033,0.396c0.429,0,0.793-0.15,1.097-0.455c0.039-0.039,0.076-0.076,0.109-0.117
		l0.325,0.114c-0.059,0.084-0.127,0.162-0.202,0.236c-0.366,0.367-0.811,0.55-1.329,0.55c-0.517,0-0.96-0.183-1.326-0.55
		c-0.367-0.366-0.551-0.812-0.551-1.33c0-0.518,0.184-0.959,0.551-1.326c0.366-0.367,0.809-0.55,1.326-0.55
		c0.443,0,0.832,0.133,1.164,0.4c0.056,0.045,0.11,0.095,0.165,0.149c0.02,0.021,0.039,0.041,0.058,0.062l-0.232,0.231
		L37.962,147.843z M39.925,145.448c-0.267-0.205-0.577-0.308-0.93-0.308c-0.427,0-0.792,0.15-1.095,0.452
		c-0.302,0.303-0.453,0.666-0.453,1.095c0,0.354,0.103,0.665,0.307,0.931L39.925,145.448z"/>
	<path d="M41.826,145.116v-1.43h0.307v1.43h0.683v0.308h-0.683v3.049h-0.307v-3.049h-0.686v-0.308H41.826z"/>
	<path d="M44.116,145.116v-1.43h0.307v1.43h0.685v0.308h-0.685v3.049h-0.307v-3.049h-0.684v-0.308H44.116z"/>
	<path d="M46.566,147.843c0.29,0.265,0.634,0.396,1.032,0.396c0.429,0,0.794-0.15,1.098-0.455c0.04-0.039,0.075-0.076,0.108-0.117
		l0.326,0.114c-0.06,0.084-0.126,0.162-0.201,0.236c-0.368,0.367-0.811,0.55-1.331,0.55c-0.517,0-0.958-0.183-1.327-0.55
		c-0.366-0.366-0.549-0.812-0.549-1.33c0-0.518,0.184-0.959,0.549-1.326c0.368-0.367,0.81-0.55,1.327-0.55
		c0.444,0,0.833,0.133,1.167,0.4c0.054,0.045,0.108,0.095,0.164,0.149c0.02,0.021,0.04,0.041,0.057,0.062l-0.231,0.231
		L46.566,147.843z M48.528,145.448c-0.266-0.205-0.575-0.308-0.93-0.308c-0.425,0-0.792,0.15-1.094,0.452
		c-0.303,0.303-0.454,0.666-0.454,1.095c0,0.354,0.103,0.665,0.307,0.931L48.528,145.448z"/>
	<path d="M55.993,148.473h-0.307v-0.685c-0.06,0.08-0.124,0.157-0.195,0.229c-0.366,0.367-0.811,0.55-1.33,0.55
		c-0.517,0-0.958-0.183-1.327-0.55c-0.366-0.366-0.55-0.809-0.55-1.326c0-0.519,0.184-0.963,0.55-1.33
		c0.368-0.367,0.81-0.55,1.327-0.55c0.52,0,0.964,0.183,1.33,0.55c0.071,0.073,0.135,0.15,0.195,0.229v-2.586h0.307V148.473z
		 M55.686,146.995v-0.608c-0.059-0.3-0.199-0.564-0.428-0.791c-0.302-0.304-0.668-0.455-1.097-0.455
		c-0.428,0-0.793,0.151-1.097,0.455c-0.303,0.303-0.454,0.667-0.454,1.096c0,0.43,0.151,0.794,0.454,1.096
		c0.304,0.302,0.668,0.452,1.097,0.452c0.429,0,0.795-0.15,1.097-0.455C55.487,147.558,55.627,147.295,55.686,146.995z"/>
	<path d="M57.657,147.843c0.291,0.265,0.633,0.396,1.032,0.396c0.429,0,0.795-0.15,1.099-0.455c0.038-0.039,0.074-0.076,0.11-0.117
		l0.323,0.114c-0.06,0.084-0.125,0.162-0.201,0.236c-0.367,0.367-0.81,0.55-1.33,0.55c-0.517,0-0.958-0.183-1.324-0.55
		c-0.369-0.366-0.553-0.812-0.553-1.33c0-0.518,0.185-0.959,0.553-1.326c0.366-0.367,0.807-0.55,1.324-0.55
		c0.444,0,0.834,0.133,1.167,0.4c0.053,0.045,0.109,0.095,0.163,0.149c0.021,0.021,0.039,0.041,0.058,0.062l-0.232,0.231
		L57.657,147.843z M59.62,145.448c-0.267-0.205-0.577-0.308-0.931-0.308c-0.424,0-0.791,0.15-1.093,0.452
		c-0.303,0.303-0.456,0.666-0.456,1.095c0,0.354,0.104,0.665,0.308,0.931L59.62,145.448z"/>
	<path d="M63.906,145.424v3.049h-0.307v-3.049h-0.342v-0.308h0.342v-0.911c0.013-0.252,0.111-0.469,0.29-0.652
		c0.187-0.172,0.403-0.258,0.647-0.258c0.128,0,0.262,0.024,0.403,0.071l-0.095,0.272c-0.097-0.04-0.187-0.062-0.278-0.062
		c-0.162,0-0.313,0.067-0.457,0.195c-0.128,0.126-0.195,0.276-0.202,0.456v0.889h0.683v0.308H63.906z"/>
	<path d="M65.249,145.116h0.308v0.611c0.062-0.092,0.138-0.18,0.223-0.264c0.271-0.271,0.548-0.413,0.833-0.427v0.334
		c-0.193,0.01-0.394,0.118-0.602,0.326c-0.292,0.289-0.443,0.636-0.454,1.042v1.733h-0.308V145.116z"/>
	<path d="M68.75,148.52c-0.421,0-0.753-0.123-1.002-0.373c-0.248-0.247-0.375-0.561-0.382-0.94v-2.097h0.307v2.071
		c0,0.283,0.104,0.527,0.312,0.727c0.205,0.205,0.459,0.306,0.762,0.306c0.283,0,0.527-0.101,0.733-0.303s0.309-0.446,0.309-0.729
		v-2.071h0.308v2.097c-0.006,0.38-0.134,0.693-0.381,0.94C69.465,148.396,69.143,148.52,68.75,148.52z"/>
	<path d="M71.56,144.016c0.061,0.06,0.092,0.13,0.092,0.214c0,0.088-0.031,0.16-0.092,0.22c-0.06,0.059-0.131,0.089-0.217,0.089
		c-0.085,0-0.156-0.03-0.216-0.089c-0.061-0.06-0.092-0.132-0.092-0.22c0-0.084,0.031-0.154,0.092-0.214
		c0.06-0.061,0.131-0.088,0.216-0.088C71.429,143.928,71.5,143.955,71.56,144.016z M71.498,145.116v3.356H71.19v-3.356H71.498z"/>
	<path d="M73.07,145.116v-1.43h0.307v1.43h0.684v0.308h-0.684v3.049H73.07v-3.049h-0.685v-0.308H73.07z"/>
	<path d="M75.804,146.747c-0.262-0.142-0.443-0.263-0.544-0.362c-0.157-0.157-0.236-0.348-0.236-0.567
		c0-0.225,0.079-0.415,0.236-0.572c0.158-0.159,0.346-0.238,0.568-0.238c0.223,0,0.409,0.073,0.554,0.22
		c0.141,0.143,0.212,0.305,0.212,0.488v0.017l-0.268,0.104c-0.021-0.171-0.076-0.303-0.161-0.388
		c-0.086-0.088-0.199-0.132-0.337-0.132c-0.137,0-0.254,0.05-0.352,0.146c-0.099,0.099-0.146,0.216-0.146,0.355
		c0,0.136,0.047,0.253,0.146,0.352c0.058,0.056,0.178,0.144,0.363,0.26c0.292,0.158,0.498,0.301,0.621,0.423
		c0.195,0.197,0.292,0.431,0.292,0.701c0,0.278-0.098,0.515-0.292,0.71c-0.193,0.194-0.428,0.291-0.703,0.291
		c-0.277,0-0.51-0.097-0.705-0.291c-0.194-0.195-0.29-0.41-0.29-0.642l0.304-0.078c0,0.2,0.066,0.367,0.201,0.503
		c0.137,0.134,0.299,0.2,0.489,0.2c0.188,0,0.351-0.066,0.486-0.2c0.136-0.136,0.204-0.301,0.204-0.493
		c0-0.188-0.066-0.351-0.2-0.486C76.172,146.994,76.025,146.887,75.804,146.747z"/>
	<path d="M80.681,147.843c0.29,0.265,0.634,0.396,1.034,0.396c0.427,0,0.793-0.15,1.096-0.455c0.039-0.039,0.075-0.076,0.11-0.117
		l0.324,0.114c-0.06,0.084-0.126,0.162-0.2,0.236c-0.368,0.367-0.812,0.55-1.33,0.55c-0.518,0-0.96-0.183-1.327-0.55
		c-0.367-0.366-0.551-0.812-0.551-1.33c0-0.518,0.184-0.959,0.551-1.326c0.367-0.367,0.809-0.55,1.327-0.55
		c0.444,0,0.832,0.133,1.165,0.4c0.055,0.045,0.11,0.095,0.165,0.149c0.02,0.021,0.04,0.041,0.057,0.062l-0.232,0.231
		L80.681,147.843z M82.644,145.448c-0.267-0.205-0.577-0.308-0.929-0.308c-0.427,0-0.792,0.15-1.095,0.452
		c-0.302,0.303-0.454,0.666-0.454,1.095c0,0.354,0.103,0.665,0.308,0.931L82.644,145.448z"/>
	<path d="M84.544,145.116v-1.43h0.309v1.43h0.683v0.308h-0.683v3.049h-0.309v-3.049h-0.683v-0.308H84.544z"/>
	<path d="M89.083,143.005v5.468h-0.307v-5.468H89.083z"/>
	<path d="M90.749,147.843c0.289,0.265,0.633,0.396,1.031,0.396c0.429,0,0.794-0.15,1.097-0.455c0.04-0.039,0.075-0.076,0.11-0.117
		l0.326,0.114c-0.06,0.084-0.128,0.162-0.203,0.236c-0.366,0.367-0.809,0.55-1.33,0.55c-0.517,0-0.958-0.183-1.326-0.55
		c-0.367-0.366-0.55-0.812-0.55-1.33c0-0.518,0.183-0.959,0.55-1.326s0.809-0.55,1.326-0.55c0.445,0,0.834,0.133,1.165,0.4
		c0.056,0.045,0.11,0.095,0.165,0.149c0.021,0.021,0.041,0.041,0.059,0.062l-0.232,0.231L90.749,147.843z M92.709,145.448
		c-0.266-0.205-0.577-0.308-0.929-0.308c-0.426,0-0.791,0.15-1.093,0.452c-0.303,0.303-0.454,0.666-0.454,1.095
		c0,0.354,0.103,0.665,0.308,0.931L92.709,145.448z M92.509,144.074l-0.839,0.64h-0.286l0.557-0.64H92.509z"/>
	<path d="M97.741,147.805c-0.057,0.075-0.119,0.145-0.184,0.213c-0.368,0.367-0.81,0.55-1.33,0.55c-0.517,0-0.96-0.183-1.327-0.55
		c-0.366-0.366-0.549-0.809-0.549-1.326c0-0.519,0.184-0.963,0.549-1.327c0.367-0.366,0.81-0.549,1.327-0.549
		c0.52,0,0.961,0.182,1.33,0.546c0.069,0.073,0.135,0.15,0.194,0.229v-0.475h0.308v2.607c0,0.504-0.179,0.936-0.536,1.292
		c-0.367,0.367-0.81,0.55-1.327,0.55c-0.52,0-0.963-0.183-1.33-0.55c-0.076-0.076-0.144-0.154-0.202-0.236l0.324-0.116
		c0.036,0.041,0.071,0.081,0.111,0.12c0.302,0.304,0.668,0.455,1.096,0.455c0.426,0,0.79-0.151,1.094-0.455
		C97.567,148.509,97.716,148.182,97.741,147.805z M97.748,146.37c-0.06-0.293-0.2-0.553-0.424-0.774
		c-0.303-0.304-0.668-0.455-1.096-0.455c-0.428,0-0.795,0.151-1.098,0.455c-0.304,0.303-0.454,0.667-0.454,1.096
		c0,0.43,0.15,0.794,0.454,1.097c0.303,0.304,0.669,0.456,1.098,0.456c0.428,0,0.793-0.152,1.096-0.456
		c0.222-0.221,0.364-0.477,0.424-0.769V146.37z"/>
	<path d="M100.482,148.52c-0.418,0-0.753-0.123-1.001-0.373c-0.248-0.247-0.375-0.561-0.382-0.94v-2.097h0.307v2.071
		c0,0.283,0.104,0.527,0.311,0.727c0.206,0.205,0.459,0.306,0.762,0.306c0.282,0,0.527-0.101,0.734-0.303
		c0.205-0.202,0.309-0.446,0.309-0.729v-2.071h0.307v2.097c-0.005,0.38-0.135,0.693-0.382,0.94
		C101.198,148.396,100.876,148.52,100.482,148.52z"/>
	<path d="M102.855,145.116h0.307v0.077c0.192-0.185,0.42-0.274,0.688-0.274c0.275,0,0.511,0.095,0.705,0.289
		c0.052,0.053,0.097,0.108,0.136,0.171c0.039-0.061,0.086-0.117,0.141-0.171c0.194-0.194,0.429-0.289,0.705-0.289
		c0.275,0,0.511,0.095,0.704,0.289c0.185,0.188,0.281,0.411,0.291,0.673v2.592h-0.308v-2.592h0.002
		c-0.008-0.178-0.077-0.328-0.202-0.455c-0.136-0.133-0.299-0.199-0.488-0.199c-0.19,0-0.352,0.066-0.487,0.199
		c-0.136,0.137-0.204,0.303-0.204,0.504v2.543h-0.307v-2.592h0.002c-0.009-0.178-0.077-0.328-0.201-0.455
		c-0.137-0.133-0.3-0.199-0.49-0.199c-0.189,0-0.352,0.066-0.485,0.199c-0.118,0.117-0.186,0.26-0.203,0.429v2.618h-0.307V145.116z"
		/>
	<path d="M108.193,147.843c0.29,0.265,0.634,0.396,1.032,0.396c0.429,0,0.795-0.15,1.096-0.455c0.041-0.039,0.076-0.076,0.11-0.117
		l0.326,0.114c-0.06,0.084-0.127,0.162-0.202,0.236c-0.367,0.367-0.811,0.55-1.33,0.55c-0.516,0-0.958-0.183-1.327-0.55
		c-0.366-0.366-0.549-0.812-0.549-1.33c0-0.518,0.184-0.959,0.549-1.326c0.368-0.367,0.811-0.55,1.327-0.55
		c0.444,0,0.833,0.133,1.166,0.4c0.055,0.045,0.109,0.095,0.165,0.149c0.021,0.021,0.04,0.041,0.057,0.062l-0.231,0.231
		L108.193,147.843z M110.156,145.448c-0.267-0.205-0.577-0.308-0.931-0.308c-0.427,0-0.792,0.15-1.093,0.452
		c-0.302,0.303-0.454,0.666-0.454,1.095c0,0.354,0.102,0.665,0.307,0.931L110.156,145.448z"/>
	<path d="M112.5,146.747c-0.262-0.142-0.443-0.263-0.543-0.362c-0.158-0.157-0.236-0.348-0.236-0.567
		c0-0.225,0.078-0.415,0.236-0.572c0.157-0.159,0.346-0.238,0.568-0.238c0.223,0,0.407,0.073,0.554,0.22
		c0.142,0.143,0.211,0.305,0.211,0.488v0.017l-0.266,0.104c-0.024-0.171-0.077-0.303-0.163-0.388
		c-0.085-0.088-0.198-0.132-0.336-0.132c-0.137,0-0.254,0.05-0.352,0.146c-0.098,0.099-0.148,0.216-0.148,0.355
		c0,0.136,0.05,0.253,0.148,0.352c0.056,0.056,0.178,0.144,0.361,0.26c0.292,0.158,0.499,0.301,0.624,0.423
		c0.192,0.197,0.29,0.431,0.29,0.701c0,0.278-0.097,0.515-0.29,0.71c-0.195,0.194-0.429,0.291-0.705,0.291
		c-0.275,0-0.511-0.097-0.704-0.291c-0.194-0.195-0.291-0.41-0.291-0.642l0.304-0.078c0,0.2,0.069,0.367,0.205,0.503
		c0.135,0.134,0.296,0.2,0.486,0.2c0.188,0,0.351-0.066,0.487-0.2c0.136-0.136,0.204-0.301,0.204-0.493
		c0-0.188-0.068-0.351-0.201-0.486C112.869,146.994,112.721,146.887,112.5,146.747z"/>
	<path d="M117.378,147.843c0.289,0.265,0.633,0.396,1.032,0.396c0.427,0,0.794-0.15,1.098-0.455
		c0.037-0.039,0.074-0.076,0.108-0.117l0.326,0.114c-0.061,0.084-0.127,0.162-0.203,0.236c-0.365,0.367-0.81,0.55-1.329,0.55
		c-0.518,0-0.96-0.183-1.326-0.55c-0.367-0.366-0.551-0.812-0.551-1.33c0-0.518,0.184-0.959,0.551-1.326
		c0.366-0.367,0.808-0.55,1.326-0.55c0.444,0,0.833,0.133,1.165,0.4c0.055,0.045,0.109,0.095,0.164,0.149
		c0.02,0.021,0.039,0.041,0.059,0.062l-0.232,0.231L117.378,147.843z M119.341,145.448c-0.268-0.205-0.577-0.308-0.93-0.308
		c-0.427,0-0.791,0.15-1.094,0.452c-0.304,0.303-0.455,0.666-0.455,1.095c0,0.354,0.102,0.665,0.307,0.931L119.341,145.448z"/>
	<path d="M121.24,145.116v-1.43h0.308v1.43h0.684v0.308h-0.684v3.049h-0.308v-3.049h-0.683v-0.308H121.24z"/>
	<path d="M125.473,145.116h0.308v0.471c0.056-0.077,0.121-0.152,0.194-0.226c0.366-0.364,0.81-0.546,1.326-0.546
		c0.52,0,0.962,0.183,1.328,0.549c0.365,0.364,0.549,0.809,0.549,1.327c0,0.518-0.184,0.96-0.549,1.326
		c-0.366,0.367-0.809,0.55-1.328,0.55c-0.517,0-0.96-0.183-1.326-0.55c-0.073-0.072-0.139-0.147-0.194-0.226v1.963h-0.308V145.116z
		 M125.78,146.37v0.644c0.06,0.293,0.199,0.551,0.423,0.774c0.303,0.304,0.669,0.456,1.098,0.456c0.428,0,0.794-0.152,1.098-0.456
		c0.301-0.303,0.455-0.667,0.455-1.097c0-0.429-0.154-0.793-0.455-1.096c-0.304-0.304-0.67-0.455-1.098-0.455
		c-0.429,0-0.795,0.151-1.098,0.455C125.979,145.817,125.84,146.077,125.78,146.37z"/>
	<path d="M133.654,148.473h-0.308v-0.685c-0.06,0.08-0.123,0.157-0.195,0.229c-0.365,0.367-0.81,0.55-1.329,0.55
		c-0.517,0-0.959-0.183-1.325-0.55c-0.367-0.366-0.55-0.809-0.55-1.326c0-0.519,0.183-0.963,0.55-1.33
		c0.366-0.367,0.809-0.55,1.325-0.55c0.52,0,0.964,0.183,1.329,0.55c0.072,0.073,0.136,0.15,0.195,0.229v-0.475h0.308V148.473z
		 M133.347,146.995v-0.608c-0.056-0.3-0.199-0.564-0.427-0.791c-0.304-0.304-0.67-0.455-1.098-0.455
		c-0.429,0-0.794,0.151-1.096,0.455c-0.303,0.303-0.455,0.667-0.455,1.096c0,0.43,0.152,0.794,0.455,1.096
		c0.302,0.302,0.667,0.452,1.096,0.452c0.428,0,0.794-0.15,1.098-0.455C133.147,147.558,133.291,147.295,133.347,146.995z"/>
	<path d="M134.988,145.865v2.607h-0.308v-3.356h0.308v0.215c0.28-0.278,0.605-0.417,0.978-0.417c0.396,0,0.719,0.123,0.967,0.372
		c0.249,0.25,0.376,0.562,0.383,0.941v2.245h-0.307v-2.22c0-0.283-0.103-0.528-0.31-0.729s-0.451-0.302-0.733-0.302
		c-0.283,0-0.525,0.1-0.732,0.297C135.123,145.631,135.04,145.745,134.988,145.865z"/>
	<path d="M138.78,144.016c0.062,0.06,0.089,0.13,0.089,0.214c0,0.088-0.027,0.16-0.089,0.22c-0.061,0.059-0.133,0.089-0.217,0.089
		s-0.157-0.03-0.219-0.089c-0.059-0.06-0.089-0.132-0.089-0.22c0-0.084,0.03-0.154,0.089-0.214c0.062-0.061,0.135-0.088,0.219-0.088
		S138.72,143.955,138.78,144.016z M138.717,145.116v3.356h-0.307v-3.356H138.717z"/>
	<path d="M140.45,147.843c0.29,0.265,0.633,0.396,1.032,0.396c0.428,0,0.794-0.15,1.097-0.455c0.039-0.039,0.076-0.076,0.109-0.117
		l0.325,0.114c-0.06,0.084-0.128,0.162-0.202,0.236c-0.365,0.367-0.811,0.55-1.329,0.55c-0.517,0-0.96-0.183-1.326-0.55
		c-0.367-0.366-0.551-0.812-0.551-1.33c0-0.518,0.184-0.959,0.551-1.326c0.366-0.367,0.81-0.55,1.326-0.55
		c0.444,0,0.833,0.133,1.165,0.4c0.055,0.045,0.109,0.095,0.164,0.149c0.021,0.021,0.04,0.041,0.059,0.062l-0.232,0.231
		L140.45,147.843z M142.412,145.448c-0.268-0.205-0.577-0.308-0.93-0.308c-0.427,0-0.791,0.15-1.094,0.452
		c-0.304,0.303-0.455,0.666-0.455,1.095c0,0.354,0.103,0.665,0.308,0.931L142.412,145.448z"/>
	<path d="M143.834,145.116h0.307v0.611c0.063-0.092,0.14-0.18,0.223-0.264c0.271-0.271,0.55-0.413,0.834-0.427v0.334
		c-0.193,0.01-0.393,0.118-0.601,0.326c-0.294,0.289-0.443,0.636-0.456,1.042v1.733h-0.307V145.116z"/>
	<path d="M146.873,146.747c-0.262-0.142-0.443-0.263-0.545-0.362c-0.155-0.157-0.235-0.348-0.235-0.567
		c0-0.225,0.08-0.415,0.235-0.572c0.157-0.159,0.347-0.238,0.567-0.238c0.224,0,0.408,0.073,0.555,0.22
		c0.141,0.143,0.212,0.305,0.212,0.488v0.017l-0.267,0.104c-0.021-0.171-0.078-0.303-0.162-0.388
		c-0.087-0.088-0.198-0.132-0.338-0.132c-0.137,0-0.254,0.05-0.352,0.146c-0.098,0.099-0.146,0.216-0.146,0.355
		c0,0.136,0.049,0.253,0.146,0.352c0.058,0.056,0.179,0.144,0.362,0.26c0.292,0.158,0.499,0.301,0.622,0.423
		c0.193,0.197,0.291,0.431,0.291,0.701c0,0.278-0.098,0.515-0.291,0.71c-0.192,0.194-0.429,0.291-0.704,0.291
		s-0.511-0.097-0.704-0.291c-0.193-0.195-0.29-0.41-0.29-0.642l0.306-0.078c0,0.2,0.067,0.367,0.202,0.503
		c0.135,0.134,0.297,0.2,0.486,0.2s0.352-0.066,0.487-0.2c0.137-0.136,0.202-0.301,0.202-0.493c0-0.188-0.065-0.351-0.2-0.486
		C147.24,146.994,147.093,146.887,146.873,146.747z"/>
	<path d="M154.734,148.473h-0.308v-0.685c-0.06,0.08-0.123,0.157-0.195,0.229c-0.366,0.367-0.81,0.55-1.329,0.55
		c-0.517,0-0.96-0.183-1.327-0.55c-0.366-0.366-0.55-0.809-0.55-1.326c0-0.519,0.184-0.963,0.55-1.33
		c0.367-0.367,0.811-0.55,1.327-0.55c0.52,0,0.963,0.183,1.329,0.55c0.072,0.073,0.136,0.15,0.195,0.229v-2.586h0.308V148.473z
		 M154.427,146.995v-0.608c-0.058-0.3-0.2-0.564-0.428-0.791c-0.304-0.304-0.669-0.455-1.097-0.455c-0.43,0-0.795,0.151-1.098,0.455
		c-0.304,0.303-0.453,0.667-0.453,1.096c0,0.43,0.149,0.794,0.453,1.096c0.303,0.302,0.668,0.452,1.098,0.452
		c0.428,0,0.793-0.15,1.097-0.455C154.227,147.558,154.369,147.295,154.427,146.995z"/>
	<path d="M156.398,147.843c0.289,0.265,0.634,0.396,1.033,0.396c0.428,0,0.792-0.15,1.097-0.455
		c0.039-0.039,0.075-0.076,0.109-0.117l0.324,0.114c-0.059,0.084-0.126,0.162-0.201,0.236c-0.367,0.367-0.812,0.55-1.329,0.55
		c-0.519,0-0.959-0.183-1.326-0.55c-0.368-0.366-0.551-0.812-0.551-1.33c0-0.518,0.183-0.959,0.551-1.326
		c0.367-0.367,0.808-0.55,1.326-0.55c0.443,0,0.832,0.133,1.165,0.4c0.054,0.045,0.11,0.095,0.164,0.149
		c0.021,0.021,0.04,0.041,0.058,0.062l-0.232,0.231L156.398,147.843z M158.36,145.448c-0.266-0.205-0.575-0.308-0.929-0.308
		c-0.427,0-0.792,0.15-1.095,0.452c-0.304,0.303-0.453,0.666-0.453,1.095c0,0.354,0.103,0.665,0.308,0.931L158.36,145.448z"/>
	<path d="M162.51,143.005v5.468h-0.307v-5.468H162.51z"/>
	<path d="M164.175,147.843c0.29,0.265,0.633,0.396,1.032,0.396c0.428,0,0.794-0.15,1.098-0.455c0.038-0.039,0.075-0.076,0.108-0.117
		l0.326,0.114c-0.061,0.084-0.127,0.162-0.203,0.236c-0.365,0.367-0.81,0.55-1.329,0.55c-0.517,0-0.959-0.183-1.326-0.55
		c-0.367-0.366-0.55-0.812-0.55-1.33c0-0.518,0.183-0.959,0.55-1.326s0.81-0.55,1.326-0.55c0.444,0,0.833,0.133,1.166,0.4
		c0.055,0.045,0.108,0.095,0.163,0.149c0.02,0.021,0.04,0.041,0.058,0.062l-0.231,0.231L164.175,147.843z M166.137,145.448
		c-0.268-0.205-0.577-0.308-0.93-0.308c-0.427,0-0.791,0.15-1.094,0.452c-0.304,0.303-0.455,0.666-0.455,1.095
		c0,0.354,0.103,0.665,0.308,0.931L166.137,145.448z M165.936,144.074l-0.838,0.64h-0.288l0.559-0.64H165.936z"/>
	<path d="M171.168,147.805c-0.057,0.075-0.118,0.145-0.185,0.213c-0.367,0.367-0.81,0.55-1.33,0.55c-0.517,0-0.957-0.183-1.324-0.55
		c-0.367-0.366-0.552-0.809-0.552-1.326c0-0.519,0.185-0.963,0.552-1.327c0.367-0.366,0.808-0.549,1.324-0.549
		c0.521,0,0.963,0.182,1.33,0.546c0.071,0.073,0.136,0.15,0.195,0.229v-0.475h0.309v2.607c0,0.504-0.181,0.936-0.538,1.292
		c-0.367,0.367-0.81,0.55-1.326,0.55c-0.52,0-0.964-0.183-1.329-0.55c-0.075-0.076-0.143-0.154-0.201-0.236l0.324-0.116
		c0.034,0.041,0.07,0.081,0.109,0.12c0.303,0.304,0.668,0.455,1.097,0.455c0.427,0,0.79-0.151,1.094-0.455
		C170.993,148.509,171.144,148.182,171.168,147.805z M171.175,146.37c-0.06-0.293-0.201-0.553-0.423-0.774
		c-0.305-0.304-0.669-0.455-1.099-0.455c-0.427,0-0.793,0.151-1.097,0.455c-0.304,0.303-0.454,0.667-0.454,1.096
		c0,0.43,0.15,0.794,0.454,1.097c0.304,0.304,0.67,0.456,1.097,0.456c0.43,0,0.794-0.152,1.099-0.456
		c0.22-0.221,0.362-0.477,0.423-0.769V146.37z"/>
	<path d="M173.91,148.52c-0.42,0-0.754-0.123-1.001-0.373c-0.25-0.247-0.377-0.561-0.384-0.94v-2.097h0.307v2.071
		c0,0.283,0.104,0.527,0.312,0.727c0.204,0.205,0.46,0.306,0.763,0.306c0.281,0,0.527-0.101,0.733-0.303s0.309-0.446,0.309-0.729
		v-2.071h0.307v2.097c-0.007,0.38-0.133,0.693-0.383,0.94C174.625,148.396,174.303,148.52,173.91,148.52z"/>
	<path d="M176.282,145.116h0.307v0.077c0.191-0.185,0.421-0.274,0.687-0.274c0.277,0,0.512,0.095,0.705,0.289
		c0.053,0.053,0.099,0.108,0.136,0.171c0.04-0.061,0.086-0.117,0.14-0.171c0.195-0.194,0.43-0.289,0.706-0.289
		c0.274,0,0.51,0.095,0.704,0.289c0.184,0.188,0.28,0.411,0.29,0.673v2.592h-0.308v-2.592h0.004
		c-0.009-0.178-0.078-0.328-0.201-0.455c-0.138-0.133-0.301-0.199-0.489-0.199c-0.19,0-0.353,0.066-0.487,0.199
		c-0.136,0.137-0.204,0.303-0.204,0.504v2.543h-0.307v-2.592h0.003c-0.008-0.178-0.076-0.328-0.201-0.455
		c-0.138-0.133-0.301-0.199-0.49-0.199s-0.35,0.066-0.485,0.199c-0.118,0.117-0.186,0.26-0.201,0.429v2.618h-0.307V145.116z"/>
	<path d="M181.619,147.843c0.29,0.265,0.635,0.396,1.034,0.396c0.428,0,0.794-0.15,1.097-0.455c0.039-0.039,0.075-0.076,0.109-0.117
		l0.324,0.114c-0.059,0.084-0.127,0.162-0.201,0.236c-0.367,0.367-0.811,0.55-1.329,0.55c-0.518,0-0.96-0.183-1.327-0.55
		c-0.366-0.366-0.551-0.812-0.551-1.33c0-0.518,0.185-0.959,0.551-1.326c0.367-0.367,0.81-0.55,1.327-0.55
		c0.444,0,0.832,0.133,1.166,0.4c0.055,0.045,0.109,0.095,0.163,0.149c0.021,0.021,0.04,0.041,0.059,0.062l-0.233,0.231
		L181.619,147.843z M183.583,145.448c-0.268-0.205-0.577-0.308-0.93-0.308c-0.427,0-0.791,0.15-1.094,0.452
		c-0.304,0.303-0.455,0.666-0.455,1.095c0,0.354,0.103,0.665,0.308,0.931L183.583,145.448z"/>
	<path d="M185.928,146.747c-0.263-0.142-0.444-0.263-0.544-0.362c-0.157-0.157-0.235-0.348-0.235-0.567
		c0-0.225,0.078-0.415,0.235-0.572c0.157-0.159,0.346-0.238,0.566-0.238c0.224,0,0.409,0.073,0.555,0.22
		c0.142,0.143,0.213,0.305,0.213,0.488v0.017l-0.268,0.104c-0.022-0.171-0.076-0.303-0.163-0.388
		c-0.084-0.088-0.197-0.132-0.337-0.132c-0.135,0-0.253,0.05-0.351,0.146c-0.098,0.099-0.146,0.216-0.146,0.355
		c0,0.136,0.049,0.253,0.146,0.352c0.057,0.056,0.178,0.144,0.362,0.26c0.292,0.158,0.499,0.301,0.62,0.423
		c0.195,0.197,0.292,0.431,0.292,0.701c0,0.278-0.097,0.515-0.292,0.71c-0.192,0.194-0.428,0.291-0.702,0.291
		c-0.275,0-0.511-0.097-0.705-0.291c-0.193-0.195-0.29-0.41-0.29-0.642l0.304-0.078c0,0.2,0.068,0.367,0.205,0.503
		c0.134,0.134,0.296,0.2,0.486,0.2c0.188,0,0.352-0.066,0.485-0.2c0.137-0.136,0.205-0.301,0.205-0.493
		c0-0.188-0.068-0.351-0.202-0.486C186.296,146.994,186.148,146.887,185.928,146.747z"/>
	<path d="M193.789,148.473h-0.309v-0.685c-0.059,0.08-0.123,0.157-0.195,0.229c-0.365,0.367-0.81,0.55-1.329,0.55
		c-0.517,0-0.958-0.183-1.325-0.55c-0.367-0.366-0.552-0.809-0.552-1.326c0-0.519,0.185-0.963,0.552-1.33s0.809-0.55,1.325-0.55
		c0.52,0,0.964,0.183,1.329,0.55c0.072,0.073,0.137,0.15,0.195,0.229v-0.475h0.309V148.473z M193.48,146.995v-0.608
		c-0.057-0.3-0.199-0.564-0.427-0.791c-0.303-0.304-0.668-0.455-1.098-0.455c-0.428,0-0.794,0.151-1.098,0.455
		c-0.301,0.303-0.453,0.667-0.453,1.096c0,0.43,0.152,0.794,0.453,1.096c0.304,0.302,0.67,0.452,1.098,0.452
		c0.43,0,0.795-0.15,1.098-0.455C193.281,147.558,193.424,147.295,193.48,146.995z M191.753,144.074l0.557,0.64h-0.287l-0.838-0.64
		H191.753z"/>
	<path d="M197.541,143.005v5.468h-0.308v-5.468H197.541z"/>
	<path d="M199.007,144.016c0.06,0.06,0.092,0.13,0.092,0.214c0,0.088-0.032,0.16-0.092,0.22c-0.06,0.059-0.132,0.089-0.217,0.089
		c-0.086,0-0.158-0.03-0.216-0.089c-0.062-0.06-0.092-0.132-0.092-0.22c0-0.084,0.029-0.154,0.092-0.214
		c0.058-0.061,0.13-0.088,0.216-0.088C198.875,143.928,198.947,143.955,199.007,144.016z M198.943,145.116v3.356h-0.308v-3.356
		H198.943z"/>
	<path d="M201.342,147.912l1.294-2.796h0.354l-1.647,3.45l-1.645-3.45h0.354L201.342,147.912z"/>
	<path d="M203.674,145.116h0.309v0.611c0.062-0.092,0.137-0.18,0.222-0.264c0.271-0.271,0.55-0.413,0.834-0.427v0.334
		c-0.194,0.01-0.395,0.118-0.602,0.326c-0.292,0.289-0.443,0.636-0.454,1.042v1.733h-0.309V145.116z"/>
	<path d="M206.347,147.843c0.29,0.265,0.634,0.396,1.032,0.396c0.428,0,0.794-0.15,1.098-0.455c0.038-0.039,0.074-0.076,0.109-0.117
		l0.325,0.114c-0.059,0.084-0.127,0.162-0.202,0.236c-0.367,0.367-0.811,0.55-1.33,0.55c-0.517,0-0.959-0.183-1.326-0.55
		c-0.366-0.366-0.55-0.812-0.55-1.33c0-0.518,0.184-0.959,0.55-1.326c0.367-0.367,0.81-0.55,1.326-0.55
		c0.444,0,0.832,0.133,1.167,0.4c0.054,0.045,0.107,0.095,0.163,0.149c0.021,0.021,0.039,0.041,0.058,0.062l-0.231,0.231
		L206.347,147.843z M208.31,145.448c-0.267-0.205-0.578-0.308-0.931-0.308c-0.427,0-0.79,0.15-1.094,0.452
		c-0.304,0.303-0.455,0.666-0.455,1.095c0,0.354,0.102,0.665,0.308,0.931L208.31,145.448z"/>
	<path d="M209.73,145.116h0.307v0.611c0.065-0.092,0.14-0.18,0.224-0.264c0.271-0.271,0.549-0.413,0.833-0.427v0.334
		c-0.193,0.01-0.395,0.118-0.601,0.326c-0.292,0.289-0.443,0.636-0.456,1.042v1.733h-0.307V145.116z"/>
</g>
<g>
</g>
<g>
</g>
<g>
</g>
<g>
</g>
<g>
</g>
<g>
</g>
</svg>
