<?xml version="1.0" encoding="utf-8"?>
<!-- Generator: Adobe Illustrator 16.0.0, SVG Export Plug-In . SVG Version: 6.00 Build 0)  -->
<!DOCTYPE svg PUBLIC "-//W3C//DTD SVG 1.1//EN" "http://www.w3.org/Graphics/SVG/1.1/DTD/svg11.dtd">
<svg version="1.1" id="Calque_1" xmlns="http://www.w3.org/2000/svg" xmlns:xlink="http://www.w3.org/1999/xlink" x="0px" y="0px"
	 width="250px" height="250px" viewBox="0 0 250 250" enable-background="new 0 0 250 250" xml:space="preserve">
<g>
	<g>
		<path fill="#FDE700" d="M79.516,156.521c0,0,0.387-7.553,4.63-8.622c4.248-1.071,8.95,4.272,17.032,4.312
			c8.082,0.038,7.669-3.652,11.341-0.769c3.666,2.884,2.412,34.082-2.48,35.992c-4.886,1.915-4.041-2.378-12.938-0.743
			c-2.278,0.42-8.849,6.74-12.812,3.176C80.33,186.306,80.925,161.029,79.516,156.521z"/>
		<g>
			<g>
				<path d="M100.612,150.366c-6.217,3.936-12.822-1.478-19.358-1.027c-4.642,0.323-7.306,2.657-7.709,7.275
					c-0.464,5.303,1.14,10.804,2.339,15.91c0.632,2.698,0.558,5.086,0.238,7.844c-0.275,2.394-0.819,5.392,0.678,7.495
					c1.17,1.639,3.503,2.384,5.42,1.885c3.665-0.955,6.109-3.689,10.211-2.751c2.023,0.462,3.968,1.564,6.11,1.092
					c2.491-0.551,5.121-2.168,6.649-4.248c3.11-4.239,2.207-9.403,2.586-14.333c0.303-3.968,0.737-7.946,0.606-11.935
					c-0.153-4.799-1.466-11.236-7.479-7.792c-0.66,0.378,0.319,0.612,0.714,0.386c7.785-4.457,5.343,15.629,5.056,19.097
					c-0.424,5.138,0.686,10.773-2.961,15.01c-1.802,2.087-4.729,3.603-7.488,3.019c-1.283-0.271-2.505-0.811-3.787-1.104
					c-2.156-0.491-4.187-0.022-6.092,1.008c-2.244,1.213-4.625,2.732-7.205,1.362c-2.019-1.074-2.189-3.185-2.16-5.172
					c0.043-2.834,0.734-5.611,0.613-8.458c-0.085-2.06-0.963-4.298-1.416-6.302c-0.621-2.743-1.136-5.509-1.42-8.305
					c-0.259-2.581-0.314-5.513,0.983-7.844c1.992-3.589,7.643-2.445,10.815-1.667c5.042,1.236,10.016,2.947,14.769-0.062
					C101.974,150.342,101.004,150.117,100.612,150.366L100.612,150.366z"/>
				<path d="M80.995,190.296c-1.813,0-3.543-0.847-4.512-2.204c-1.452-2.033-1.107-4.845-0.83-7.101l0.08-0.669
					c0.313-2.7,0.39-5.043-0.232-7.708c-0.16-0.685-0.329-1.376-0.498-2.072c-1.109-4.579-2.255-9.31-1.848-13.962
					c0.413-4.724,3.127-7.291,8.071-7.633c2.596-0.177,5.212,0.544,7.737,1.246c2.264,0.63,4.406,1.221,6.543,1.221
					c1.78,0,3.35-0.43,4.789-1.311c-0.028-0.167,0.012-0.433,0.414-0.662c1.187-0.68,2.275-1.023,3.225-1.023
					c3.758,0,4.707,4.971,4.844,9.14c0.108,3.273-0.167,6.582-0.43,9.776c-0.06,0.734-0.125,1.472-0.177,2.203
					c-0.089,1.183-0.111,2.401-0.125,3.58c-0.052,3.758-0.107,7.643-2.537,10.957c-1.536,2.086-4.239,3.815-6.885,4.397
					c-0.38,0.086-0.76,0.123-1.162,0.123c-1.188,0-2.317-0.362-3.412-0.717c-0.559-0.181-1.138-0.369-1.703-0.498
					c-0.54-0.125-1.059-0.184-1.578-0.184c-1.793,0-3.298,0.728-4.89,1.5c-1.109,0.536-2.253,1.091-3.558,1.433
					C81.897,190.238,81.451,190.296,80.995,190.296z M75.187,152.691c-0.698,1.044-1.112,2.359-1.251,3.96
					c-0.396,4.52,0.734,9.189,1.83,13.706c0.167,0.7,0.338,1.394,0.501,2.079c0.647,2.774,0.567,5.195,0.249,7.977l-0.083,0.676
					c-0.275,2.232-0.586,4.758,0.688,6.545c0.895,1.254,2.67,2.01,4.328,1.855c-0.878,0.027-1.695-0.161-2.495-0.588
					c-2.137-1.134-2.4-3.323-2.367-5.521c0.021-1.278,0.171-2.553,0.316-3.785c0.18-1.521,0.364-3.093,0.299-4.649
					c-0.059-1.34-0.468-2.789-0.867-4.188c-0.196-0.697-0.395-1.384-0.541-2.045c-0.721-3.188-1.176-5.843-1.429-8.353
					C74.135,158.035,74.027,155.104,75.187,152.691z M81.091,150.394c-2.484,0-4.169,0.764-5.006,2.273
					c-1.274,2.29-1.168,5.272-0.934,7.614c0.247,2.478,0.695,5.102,1.408,8.256c0.146,0.651,0.337,1.322,0.531,2.005
					c0.411,1.443,0.833,2.938,0.898,4.372c0.067,1.613-0.123,3.219-0.303,4.772c-0.146,1.216-0.293,2.47-0.313,3.706
					c-0.028,1.814,0.096,3.832,1.95,4.816c0.627,0.332,1.266,0.496,1.946,0.496c1.501,0,2.978-0.811,4.407-1.59l0.483-0.266
					c2.161-1.171,4.297-1.518,6.365-1.042c0.633,0.143,1.251,0.345,1.85,0.541c0.631,0.208,1.283,0.423,1.937,0.56
					c2.349,0.501,5.208-0.689,7.101-2.892c2.666-3.097,2.703-6.907,2.743-10.938c0.013-1.269,0.025-2.581,0.128-3.848
					c0.021-0.241,0.05-0.563,0.085-0.952c0.349-3.649,1.398-14.753-1.275-17.687c-0.778-0.858-1.809-0.889-3.158-0.153
					c0.016,0.169-0.038,0.417-0.399,0.645c-1.849,1.17-3.87,1.737-6.184,1.737c-0.004,0-0.004,0-0.004,0
					c-2.466,0-4.997-0.646-7.445-1.267c-0.479-0.121-0.958-0.246-1.438-0.363C84.947,150.819,82.963,150.394,81.091,150.394z
					 M90.704,186.382c-1.251,0-2.497,0.316-3.796,0.964c1.2-0.53,2.428-0.935,3.86-0.935c0.583,0,1.153,0.065,1.752,0.203
					c0.025,0.006,0.053,0.012,0.076,0.018c-0.083-0.021-0.165-0.039-0.247-0.06C91.806,186.447,91.252,186.382,90.704,186.382z
					 M104.409,149.24c0.469,0.142,0.892,0.417,1.266,0.823c2.899,3.188,1.865,14.16,1.478,18.287
					c-0.038,0.387-0.067,0.706-0.089,0.943c-0.1,1.239-0.109,2.538-0.125,3.793c-0.037,3.995-0.077,8.13-2.93,11.442
					c-0.212,0.247-0.438,0.481-0.669,0.706c0.588-0.502,1.108-1.048,1.534-1.625c2.283-3.112,2.334-6.703,2.386-10.506
					c0.014-1.19,0.034-2.423,0.125-3.626c0.059-0.737,0.12-1.474,0.179-2.21c0.261-3.175,0.535-6.455,0.427-9.683
					C107.898,154.613,107.294,149.723,104.409,149.24z M83.354,149.774c1.194,0.162,2.335,0.417,3.294,0.655
					c0.483,0.117,0.966,0.238,1.446,0.363c0.32,0.081,0.642,0.161,0.958,0.24c-0.104-0.027-0.204-0.056-0.305-0.083
					C86.973,150.459,85.149,149.95,83.354,149.774z"/>
			</g>
			<g>
				<path d="M82.013,160.634c0.876,5.359,0.93,11.01-0.584,16.261c-0.128,0.443,1.013,0.283,1.13-0.128
					c1.528-5.293,1.466-11.029,0.583-16.436C83.074,159.911,81.94,160.186,82.013,160.634L82.013,160.634z"/>
				<path d="M81.766,177.551L81.766,177.551c-0.359,0-0.544-0.143-0.633-0.26c-0.107-0.145-0.139-0.32-0.082-0.505
					c1.356-4.705,1.551-10.117,0.574-16.089c-0.034-0.195,0.028-0.393,0.166-0.555c0.241-0.284,0.669-0.411,0.987-0.411
					c0.489,0,0.706,0.276,0.75,0.54c1.008,6.163,0.811,11.751-0.594,16.604C82.794,177.37,82.145,177.551,81.766,177.551z
					 M82.773,160.523c-0.201,0.011-0.354,0.086-0.387,0.129c0.991,5.901,0.817,11.344-0.514,16.104
					c0.156-0.024,0.295-0.088,0.323-0.126C83.539,171.95,83.74,166.519,82.773,160.523z"/>
			</g>
			<g>
				<path d="M91.939,159.759c-0.022,5.441-0.297,10.863-0.876,16.272c-0.046,0.433,1.091,0.212,1.127-0.147
					c0.586-5.462,0.856-10.936,0.875-16.427C93.069,159.13,91.939,159.336,91.939,159.759L91.939,159.759z"/>
				<path d="M91.417,176.662L91.417,176.662c-0.329,0-0.512-0.124-0.605-0.228c-0.104-0.119-0.156-0.277-0.14-0.443
					c0.562-5.226,0.854-10.688,0.875-16.235c0.002-0.583,0.729-0.854,1.216-0.854c0.238,0,0.423,0.064,0.547,0.188l0.113,0.118
					l0.038,0.248c-0.024,5.663-0.318,11.202-0.879,16.468C92.527,176.428,91.852,176.662,91.417,176.662z M92.672,159.702
					c-0.185,0.025-0.328,0.093-0.362,0.132c0,5.431-0.287,10.848-0.833,16.039c0.161-0.015,0.318-0.085,0.357-0.12
					C92.352,170.677,92.645,165.25,92.672,159.702z"/>
			</g>
			<g>
				<path d="M100.113,159.173c0.243,5.913-0.564,11.877-2.632,17.429c-0.155,0.418,0.985,0.279,1.133-0.124
					c2.091-5.62,2.869-11.629,2.626-17.605C101.222,158.467,100.094,158.708,100.113,159.173L100.113,159.173z"/>
				<path d="M97.806,177.249L97.806,177.249c-0.371,0-0.55-0.149-0.635-0.271c-0.101-0.149-0.124-0.334-0.055-0.514
					c1.981-5.329,2.856-11.138,2.604-17.274c-0.007-0.194,0.067-0.381,0.214-0.536c0.254-0.264,0.668-0.383,0.968-0.383
					c0.489,0,0.718,0.294,0.73,0.585c0.262,6.354-0.629,12.329-2.651,17.756C98.813,177.078,98.186,177.249,97.806,177.249z
					 M100.854,159.066c-0.188,0.019-0.331,0.098-0.359,0.14c0.259,6.084-0.595,11.897-2.535,17.241
					c0.145-0.03,0.266-0.091,0.297-0.126C100.211,171.062,101.087,165.25,100.854,159.066z"/>
			</g>
			<g>
				<path d="M97.737,149.902c0.52-1.547,0.651-3.581-1.103-4.357c-1.534-0.677-3.378,0.204-4.583,1.129
					c-0.051,0.039-0.156,0.163-0.111,0.241c0.517,0.915,0.358,2.004,0.875,2.919c0.212,0.375,1.298-0.005,1.127-0.302
					c-0.472-0.833-0.388-1.8-0.74-2.675c-0.267-0.669,1.948-0.913,2.314-0.84c1.838,0.359,1.517,2.767,1.092,4.028
					C96.479,150.426,97.61,150.275,97.737,149.902L97.737,149.902z"/>
				<path d="M96.924,150.661L96.924,150.661c-0.362,0-0.535-0.14-0.621-0.26c-0.097-0.135-0.122-0.311-0.066-0.481
					c0.296-0.885,0.489-2.188,0.05-2.941c-0.181-0.311-0.458-0.499-0.847-0.575c-0.025-0.004-0.062-0.004-0.108-0.004
					c-0.621,0-1.516,0.199-1.737,0.374c0.151,0.401,0.221,0.808,0.288,1.197c0.087,0.494,0.17,0.958,0.4,1.366
					c0.097,0.169,0.092,0.366-0.007,0.538c-0.187,0.318-0.703,0.509-1.095,0.509c-0.439,0-0.634-0.225-0.71-0.357
					c-0.292-0.514-0.386-1.059-0.481-1.581c-0.087-0.484-0.166-0.94-0.393-1.339c-0.167-0.295,0.035-0.607,0.214-0.742
					c0.706-0.541,2.118-1.45,3.645-1.45c0.479,0,0.926,0.091,1.336,0.273c1.604,0.707,2.096,2.517,1.315,4.839
					C97.957,150.49,97.301,150.661,96.924,150.661z M96.015,145.756c0.409,0.164,0.727,0.441,0.951,0.828
					c0.52,0.888,0.41,2.218,0.112,3.275c0.147-0.026,0.276-0.085,0.306-0.119c0.286-0.874,0.811-3.075-0.909-3.836
					C96.328,145.84,96.176,145.792,96.015,145.756z M92.381,146.918c0.215,0.453,0.301,0.928,0.381,1.385
					c0.087,0.481,0.171,0.938,0.394,1.338c0.128-0.024,0.254-0.071,0.343-0.113c-0.221-0.467-0.307-0.949-0.386-1.418
					c-0.07-0.392-0.134-0.761-0.271-1.107c-0.051-0.124-0.062-0.253-0.044-0.375C92.638,146.733,92.497,146.833,92.381,146.918z"/>
			</g>
		</g>
	</g>
	<g>
		<path fill="#EFA700" d="M154.597,153.908c0,0-5.407-6.44-8.013-2.092c-2.608,4.352-0.764,10.793,1.219,14.292
			c0,0,11.869,16.169,16.985,21.053c5.113,4.887,9.299,12.101,14.94,13.786c10.956,3.272-10.012-19.339-11.262-23.722
			C167.334,173.261,161.844,158.902,154.597,153.908z"/>
		<g>
			<g>
				<path d="M146.554,154.673c-0.474-0.056-1.004-0.097-1.438,0.153c-0.224,0.126-0.338,0.271-0.464,0.494
					c-0.489,0.863-1.288,1.014-2.285,1.173c-1.036,0.168-2.964,0.28-3.161,1.634c-0.451,3.093,1.636,5.981,3.13,8.522
					c1.941,3.305,4.167,6.45,6.588,9.419c2.192,2.686,4.718,4.604,7.522,6.606c3.208,2.298,5.498,5.436,7.993,8.438
					c2.031,2.442,4.21,4.697,6.857,6.468c2.274,1.519,4.989,3.013,7.785,3.106c0.092,0.007,0.469-0.046,0.496-0.169
					c0.344-1.562-0.773-2.968-1.775-4.049c-1.571-1.695-3.347-3.154-4.84-4.926c-1.905-2.253-4.162-4.158-5.908-6.554
					c-1.84-2.523-3.451-5.353-4.872-8.132c-1.454-2.833-2.751-5.7-4.346-8.47c-1.404-2.437-2.872-4.845-4.092-7.385
					c-1.4-2.917-3.117-7.079-6.994-6.799c-0.144,0.012-0.665,0.251-0.266,0.222c4.214-0.309,5.886,5.319,7.438,8.287
					c1.293,2.477,2.759,4.859,4.138,7.291c1.48,2.604,2.632,5.357,4.03,8.003c1.295,2.454,2.791,4.856,4.359,7.146
					c1.472,2.145,3.462,3.896,5.225,5.784c1.466,1.576,2.885,3.091,4.438,4.585c1.283,1.232,3.314,3.104,2.87,5.11
					c0.165-0.059,0.328-0.114,0.494-0.172c-2.742-0.093-5.361-1.626-7.61-3.08c-2.657-1.718-4.798-4.021-6.824-6.427
					c-1.946-2.316-3.722-4.841-5.979-6.87c-2.352-2.114-5.19-3.59-7.473-5.801c-2.303-2.231-4.219-5.049-6.029-7.684
					c-1.747-2.537-3.4-5.203-4.776-7.962c-0.627-1.259-1.072-2.575-1.048-3.99c0.031-1.603,1.186-1.717,2.514-1.955
					c0.859-0.155,1.618-0.352,2.413-0.735c0.68-0.328,0.362-1.184,1.39-1.06C146.193,154.911,146.695,154.689,146.554,154.673
					L146.554,154.673z"/>
				<path d="M178.886,200.962l-0.26-0.019c-2.833-0.24-5.474-1.784-7.487-3.128c-2.324-1.553-4.456-3.568-6.916-6.52
					c-0.41-0.496-0.819-0.996-1.226-1.498c-2.094-2.569-4.067-4.995-6.718-6.891c-2.711-1.938-5.329-3.909-7.573-6.657
					c-2.509-3.079-4.734-6.263-6.616-9.459c-0.183-0.314-0.38-0.635-0.577-0.962c-1.404-2.312-2.995-4.932-2.586-7.743
					c0.205-1.417,1.905-1.657,3.028-1.817c0.134-0.019,0.254-0.038,0.368-0.055c1.021-0.167,1.667-0.304,2.082-1.036
					c0.143-0.248,0.288-0.435,0.568-0.595c0.292-0.169,0.655-0.236,1.084-0.233c0.061-0.326,0.666-0.426,0.672-0.426
					c3.839-0.265,5.608,3.448,7.016,6.42l0.256,0.538c0.981,2.044,2.146,4.041,3.271,5.972c0.27,0.465,0.541,0.931,0.811,1.395
					c1.076,1.865,2.032,3.808,2.956,5.688c0.463,0.931,0.921,1.865,1.397,2.793c1.666,3.259,3.252,5.907,4.849,8.094
					c1.016,1.392,2.232,2.644,3.409,3.855c0.833,0.857,1.693,1.744,2.484,2.683c0.851,1.004,1.812,1.931,2.743,2.824
					c0.694,0.67,1.417,1.363,2.09,2.09c1.028,1.108,2.035,2.429,1.902,3.918l-0.062,0.273l-0.017,0.168
					c-0.139,0.334-0.737,0.339-0.742,0.339h-0.019C179.011,200.97,178.948,200.969,178.886,200.962L178.886,200.962z
					 M179.327,200.171c0.005,0.001,0.014,0.001,0.021,0.001c0.079-0.803-0.258-1.577-0.753-2.292
					C179.05,198.588,179.356,199.361,179.327,200.171z M145.869,155.168c-0.28,0-0.332,0.103-0.46,0.355
					c-0.115,0.227-0.257,0.514-0.62,0.689c-0.901,0.433-1.729,0.621-2.489,0.758l-0.21,0.034c-1.342,0.237-2.043,0.416-2.068,1.646
					c-0.021,1.194,0.302,2.423,1.02,3.86c1.242,2.491,2.797,5.083,4.752,7.928l0.154,0.225c1.781,2.591,3.622,5.269,5.842,7.418
					c1.2,1.163,2.592,2.142,3.939,3.092c1.188,0.838,2.417,1.702,3.524,2.698c1.643,1.478,3.047,3.231,4.404,4.93
					c0.53,0.661,1.061,1.324,1.604,1.969c1.919,2.28,4.068,4.633,6.759,6.375c1.985,1.283,4.294,2.662,6.739,2.974
					c0.039-1.631-1.61-3.216-2.725-4.281l-0.115-0.111c-1.505-1.443-2.848-2.875-4.451-4.593c-0.503-0.539-1.025-1.069-1.545-1.597
					c-1.298-1.312-2.64-2.672-3.704-4.224c-1.705-2.48-3.176-4.896-4.378-7.172c-0.603-1.14-1.164-2.315-1.712-3.451
					c-0.722-1.509-1.473-3.064-2.312-4.549c-0.464-0.817-0.937-1.624-1.409-2.435c-0.919-1.581-1.873-3.213-2.736-4.864
					c-0.27-0.519-0.544-1.115-0.836-1.746c-1.3-2.834-2.917-6.36-5.974-6.401v0.011c-0.02,0.355-0.729,0.476-0.791,0.476
					C145.968,155.17,145.915,155.168,145.869,155.168z M158.271,183.772c1.942,1.711,3.572,3.716,5.161,5.671
					c0.408,0.493,0.813,0.994,1.228,1.489c0.241,0.291,0.479,0.575,0.712,0.843c-0.183-0.213-0.364-0.426-0.544-0.64
					c-0.547-0.648-1.078-1.316-1.61-1.98c-1.346-1.68-2.736-3.417-4.345-4.863C158.679,184.115,158.476,183.94,158.271,183.772z
					 M166.09,184.115c0.194,0.291,0.393,0.585,0.596,0.878c1.036,1.51,2.359,2.851,3.64,4.143c0.494,0.5,0.982,0.999,1.457,1.504
					c-0.494-0.534-0.999-1.057-1.497-1.568c-1.19-1.225-2.421-2.49-3.46-3.915C166.583,184.822,166.336,184.475,166.09,184.115z
					 M152.919,159.925c0.148,0.316,0.293,0.628,0.433,0.935c0.288,0.624,0.557,1.214,0.824,1.722
					c0.856,1.639,1.802,3.265,2.722,4.837c0.474,0.815,0.95,1.628,1.411,2.445c0.85,1.496,1.604,3.066,2.332,4.582
					c0.543,1.129,1.104,2.303,1.701,3.431c0.681,1.292,1.45,2.626,2.301,3.995c-0.891-1.459-1.788-3.08-2.712-4.882
					c-0.477-0.934-0.94-1.87-1.397-2.805c-0.924-1.869-1.877-3.805-2.942-5.65c-0.266-0.468-0.54-0.932-0.807-1.396
					c-1.133-1.94-2.304-3.949-3.293-6.013l-0.256-0.537C153.132,160.371,153.027,160.146,152.919,159.925z M139.571,157.872
					c-0.04,0.09-0.068,0.188-0.085,0.295c-0.38,2.609,1.158,5.138,2.509,7.367c0.199,0.331,0.396,0.654,0.584,0.971
					c1.199,2.041,2.541,4.075,4.008,6.077c-0.372-0.533-0.74-1.068-1.106-1.6l-0.155-0.223c-1.969-2.865-3.535-5.485-4.79-7.997
					c-0.763-1.521-1.105-2.831-1.077-4.125C139.462,158.345,139.503,158.089,139.571,157.872z"/>
			</g>
			<g>
				<path d="M144.576,154.236c-0.078-2.051,1.871-3.66,3.229-4.93c1.288-1.203,2.955-2.428,3.642-4.112
					c0.041-0.104-0.518,0.015-0.595,0.112c-1.208,1.569-3.789,1.708-5.289,2.942c0.192-0.037,0.383-0.072,0.576-0.109
					c-0.657-1.756,1.713-3.499,2.829-4.461c1.457-1.255,3.067-2.361,4.352-3.799c0.068-0.071-0.226-0.041-0.235-0.041
					c-3.002,0.477-5.996,1.73-8.571,3.314c0.178-0.027,0.354-0.056,0.531-0.08c0.542-3.135,1.384-6.209,2.182-9.287
					c0.036-0.135-0.506,0.025-0.568,0.086c-2.093,2.015-5.503,3.519-6.177,6.603c0.2-0.046,0.397-0.09,0.599-0.137
					c0.504-3.129-1.51-5.752-2.756-8.451c-0.065-0.143-0.53,0.057-0.601,0.137c-0.876,1.038-0.729,2.929-0.745,4.185
					c-0.022,1.773,0.205,3.609-0.04,5.372c0.185-0.063,0.367-0.128,0.551-0.188c-2.157-0.44-3.835-1.436-6.084-1.115
					c-0.038,0.007-0.49,0.108-0.436,0.191c1.401,2.122,3.222,3.966,4.935,5.84c0.202,0.22-1.951,0.259-2.097,0.256
					c-0.451-0.015-0.919,0-1.359,0.085c-0.675,0.128-1.207,0.382-1.729,0.821c-0.046,0.035-0.032,0.067,0.021,0.079
					c1.928,0.392,5.507,0.816,6.511,2.784c0.169-0.065,0.334-0.131,0.501-0.194c-1.848,0.095-3.656-0.572-5.456,0.057
					c-0.025,0.011-0.234,0.081-0.201,0.138c0.874,1.59,2.239,1.892,3.767,2.677c1.857,0.951,4.115-0.444,5.782,0.935
					c0.12,0.101,0.643-0.138,0.571-0.196c-0.76-0.631-1.474-0.729-2.428-0.694c-0.585,0.021-1.164,0.109-1.749,0.132
					c-1,0.041-1.818-0.513-2.702-0.891c-1.011-0.426-1.778-0.775-2.417-1.727c-0.319-0.469,2.398-0.31,2.665-0.275
					c0.594,0.069,1.174,0.104,1.771,0.073c0.052-0.004,0.557-0.087,0.501-0.194c-0.775-1.515-3.092-1.985-4.592-2.385
					c-0.426-0.113-0.856-0.207-1.283-0.306c-1.566-0.346,1.225-0.698,1.849-0.677c0.916,0.027,1.764,0.032,2.652-0.223
					c0.045-0.012,0.342-0.095,0.264-0.179c-1.787-1.962-3.706-3.876-5.172-6.096c-0.146,0.062-0.289,0.125-0.438,0.19
					c2.139-0.304,3.831,0.702,5.855,1.114c0.119,0.023,0.531-0.041,0.553-0.191c0.211-1.518,0.055-3.104,0.041-4.628
					c-0.013-1.425-0.254-3.711,0.733-4.881c-0.197,0.044-0.397,0.09-0.598,0.136c1.246,2.699,3.262,5.321,2.755,8.452
					c-0.007,0.054,0.568,0.004,0.601-0.137c0.667-3.061,4.045-4.546,6.127-6.549c-0.189,0.028-0.381,0.058-0.568,0.084
					c-0.802,3.094-1.648,6.186-2.194,9.336c-0.013,0.097,0.493-0.059,0.529-0.083c2.063-1.266,4.292-2.184,6.623-2.816
					c0.334-0.091,0.67-0.166,1.009-0.234c0.587-0.119-0.323,0.371-0.457,0.501c-0.592,0.583-1.248,1.105-1.896,1.633
					c-1.409,1.155-5.578,3.746-4.713,6.068c0.05,0.134,0.506-0.057,0.573-0.11c1.513-1.243,4.104-1.398,5.34-2.998
					c-0.2,0.038-0.396,0.075-0.595,0.112c-0.768,1.889-2.731,3.239-4.167,4.603c-1.235,1.172-2.786,2.651-2.714,4.487
					C143.976,154.48,144.584,154.389,144.576,154.236L144.576,154.236z"/>
				<path d="M144.076,154.993c-0.365,0-0.385-0.271-0.389-0.304c-0.076-1.971,1.588-3.553,2.8-4.702
					c0.334-0.316,0.697-0.631,1.063-0.954c0.687-0.599,1.388-1.212,1.971-1.884c-0.307,0.135-0.624,0.26-0.935,0.379
					c-0.776,0.302-1.512,0.588-2.102,1.015l0.034,0.094l-0.213,0.042c-0.008,0.006-0.014,0.01-0.02,0.014
					c-0.093,0.078-0.427,0.224-0.648,0.224c-0.102,0-0.177-0.028-0.234-0.064l-0.125-0.224l-0.077-0.16
					c-0.541-2.1,2.328-4.251,4.063-5.553c0.312-0.234,0.592-0.442,0.806-0.617l0.248-0.204c0.479-0.391,0.978-0.796,1.431-1.227
					c-0.027,0.01-0.056,0.017-0.083,0.023c-2.325,0.633-4.468,1.532-6.373,2.678l-0.006,0.036l-0.068,0.011
					c-0.036,0.02-0.067,0.041-0.1,0.061c-0.084,0.053-0.443,0.156-0.619,0.156h-0.128l-0.093-0.073l-0.096-0.159l0.004-0.294
					c0.469-2.642,1.149-5.279,1.814-7.831c-0.226,0.176-0.457,0.349-0.688,0.524c-1.721,1.295-3.501,2.632-3.96,4.679v0.005
					c-0.081,0.386-0.668,0.403-0.785,0.403c-0.035,0-0.096,0-0.161-0.021l-0.254-0.14l0.042-0.191
					c0.373-2.331-0.735-4.429-1.806-6.456c-0.133-0.245-0.263-0.492-0.392-0.737c-0.209,0.893-0.176,1.965-0.15,2.863
					c0.009,0.236,0.015,0.462,0.017,0.67c0.003,0.419,0.017,0.844,0.036,1.272c0.031,1.022,0.07,2.079-0.044,3.113l-0.046,0.23
					l-0.031,0.184c-0.136,0.239-0.518,0.309-0.729,0.309l-0.117-0.012c-0.004,0-0.006,0-0.01,0l-0.305-0.068l0,0
					c-0.56-0.131-1.095-0.3-1.613-0.465c-0.941-0.296-1.835-0.578-2.799-0.624c1.105,1.552,2.433,2.979,3.718,4.366
					c0.344,0.371,0.689,0.742,1.027,1.116l0.106,0.115l-0.03,0.188c-0.058,0.194-0.256,0.276-0.468,0.337
					c-0.757,0.22-1.475,0.248-2.019,0.248c-0.236,0-0.478-0.009-0.726-0.016l0,0c-0.399,0-1.072,0.08-1.549,0.172
					c0.355,0.08,0.715,0.164,1.066,0.256l0.423,0.11c1.446,0.374,3.397,0.878,4.236,2.22l0.067,0.233l0.062,0.221l-0.023,0.05
					c-0.147,0.255-0.721,0.302-0.728,0.302c-0.059,0.003-0.113,0.007-0.168,0.007l-0.089,0.035l-0.015-0.03
					c-0.49,0.009-0.98-0.02-1.55-0.087c-0.103-0.013-0.679-0.05-1.263-0.05c-0.552,0-0.852,0.033-1.012,0.067
					c0.552,0.722,1.202,1.035,2.17,1.446c0.216,0.09,0.421,0.188,0.629,0.29c0.619,0.297,1.201,0.577,1.857,0.577l0.092-0.002
					c0.284-0.01,0.567-0.037,0.851-0.064c0.298-0.029,0.6-0.058,0.898-0.067c0.11-0.004,0.215-0.008,0.319-0.008
					c0.713,0,1.487,0.092,2.301,0.766l0.154,0.126l-0.062,0.209c-0.092,0.253-0.576,0.391-0.754,0.391
					c-0.106,0-0.198-0.031-0.27-0.09c-0.497-0.41-1.085-0.585-1.96-0.585c-0.301,0-0.604,0.019-0.91,0.035
					c-0.321,0.021-0.641,0.039-0.96,0.039c-0.785,0-1.369-0.12-1.901-0.394c-0.322-0.167-0.636-0.308-0.94-0.446
					c-1.133-0.52-2.21-1.011-2.946-2.344l-0.063-0.114l0.046-0.146c0.05-0.124,0.162-0.208,0.376-0.28
					c0.564-0.199,1.156-0.292,1.871-0.292c0.554,0,1.117,0.062,1.659,0.114c0.261,0.027,0.522,0.054,0.79,0.077
					c-1.156-1.127-3.487-1.561-5.09-1.859c-0.269-0.05-0.519-0.098-0.748-0.144l-0.179-0.036l-0.09-0.202
					c-0.032-0.121,0.013-0.247,0.117-0.334c0.565-0.473,1.135-0.745,1.86-0.882c0.41-0.082,0.9-0.106,1.42-0.092h0.002
					c0.426,0,1.166-0.034,1.604-0.084c-0.192-0.208-0.379-0.414-0.575-0.62c-1.383-1.496-2.817-3.042-3.976-4.754l-0.179-0.193
					l-0.004-0.241l0.021-0.061c0.1-0.223,0.488-0.306,0.654-0.331c0.096-0.014,0.196-0.024,0.293-0.035l0.01-0.004l0.003,0.004
					c1.411-0.132,2.654,0.23,3.938,0.625c0.366,0.112,0.739,0.228,1.122,0.331c0.072-0.935,0.039-1.901,0.005-2.84
					c-0.023-0.627-0.042-1.253-0.036-1.873c0.003-0.169,0-0.349,0-0.535c-0.005-1.203-0.013-2.685,0.689-3.669l0,0l0.171-0.204
					c0.149-0.127,0.459-0.242,0.654-0.242c0.086,0,0.152,0.018,0.202,0.044l0.249,0.345l0,0c0.256,0.543,0.548,1.092,0.832,1.627
					c0.762,1.44,1.547,2.926,1.833,4.529c0.835-1.069,1.979-1.93,3.091-2.769c0.709-0.531,1.38-1.038,1.964-1.585l0.024-0.1
					l0.102-0.015c0.154-0.1,0.478-0.181,0.635-0.181c0.096,0,0.163,0.024,0.217,0.053l0.077,0.188l0.044,0.249l-0.292,1.112
					c-0.611,2.353-1.244,4.783-1.71,7.211c2.499-1.383,5.1-2.313,7.563-2.704c0,0,0.085-0.011,0.17-0.011
					c0.073,0,0.292,0,0.378,0.195l0.074,0.167l-0.133,0.161c-0.895,0.998-1.954,1.847-2.978,2.67
					c-0.471,0.378-0.941,0.757-1.397,1.149l-0.354,0.297c-0.987,0.829-2.428,2.038-2.491,3.246c0.486-0.248,1.013-0.451,1.526-0.646
					c1.097-0.425,2.132-0.822,2.771-1.624l0.042-0.104l0.084-0.017c0.187-0.119,0.482-0.165,0.605-0.17l0.275,0.179l0.095,0.251l0,0
					l-0.061,0.142c-0.6,1.351-1.761,2.382-2.882,3.377c-0.263,0.232-0.522,0.465-0.768,0.692l-0.342,0.316
					c-1.278,1.177-2.868,2.641-2.797,4.393l0.004,0.121l-0.111,0.142C144.577,154.952,144.196,154.993,144.076,154.993z
					 M144.323,153.915c-0.035,0.161-0.057,0.321-0.067,0.488c0.011-0.004,0.021-0.007,0.036-0.011
					C144.292,154.232,144.302,154.073,144.323,153.915z M145.777,147.42c-0.064,0.221-0.089,0.437-0.071,0.653
					c0.015-0.007,0.028-0.018,0.041-0.024v-0.007l0.009-0.008C145.73,147.825,145.739,147.62,145.777,147.42z M131.5,141.026
					c0.441,0.632,0.924,1.245,1.426,1.844c-0.493-0.597-0.966-1.212-1.4-1.848C131.515,141.022,131.506,141.022,131.5,141.026z
					 M137.283,141.339c0.007,0.002,0.013,0.003,0.018,0.003c0.104-0.977,0.067-1.991,0.032-2.978
					c-0.015-0.433-0.03-0.86-0.032-1.285c-0.004-0.204-0.009-0.425-0.018-0.657c-0.015-0.45-0.024-0.938-0.015-1.435
					c-0.006,0.329-0.006,0.654-0.005,0.962c0,0.191,0,0.375-0.001,0.545c-0.008,0.61,0.014,1.227,0.034,1.845
					C137.333,139.327,137.369,140.342,137.283,141.339z M138.261,132.8c0.202,0.405,0.414,0.809,0.629,1.214
					c0.86,1.63,1.745,3.3,1.917,5.136c0.017-0.025,0.029-0.05,0.045-0.073c-0.154-1.739-1.021-3.374-1.858-4.96
					c-0.238-0.447-0.48-0.907-0.708-1.367C138.278,132.767,138.268,132.784,138.261,132.8z"/>
			</g>
		</g>
	</g>
	<g>
		<path fill="#95C11F" d="M226.132,151.697c-3.214,1.722-15.199-2.653-17.256,1.901c-2.059,4.554-2.106,9.732-1.387,15.173
			c0.791,5.948,2.662,12.662,7.769,17.32c5.106,4.661,8.098,4.041,12.757,2.796c4.662-1.244,10.182,0.143,14.273-5.42
			c4.362-5.928,6.239-21.739,1.889-28.62C239.828,147.967,229.551,149.866,226.132,151.697z"/>
		<g>
			<g>
				<path d="M219.337,154.371c-3.381,1.482-5.028-1.834-7.982-2.353c-2.161-0.382-4.555-0.379-6.729-0.096
					c-3.769,0.493-6.311,1.943-7.378,5.771c-1.143,4.094-0.924,9.457-0.18,13.59c0.887,4.933,3.881,9.223,7.885,12.142
					c3.664,2.671,8.228,3.837,12.714,3.728c3.709-0.092,7.574,0.338,10.942-1.574c3.691-2.094,6.065-5.63,7.937-9.34
					c1.792-3.562,2.908-6.767,2.838-10.779c-0.063-3.771-0.776-7.657-2.252-11.134c-1.126-2.646-2.759-4.081-5.484-4.853
					c-3.716-1.05-12.503-1.828-13.69,3.373c-0.054,0.226,0.856,0.083,0.909-0.156c1.111-4.854,8.933-3.722,12.435-2.729
					c4.222,1.196,5.533,5.526,6.398,9.403c0.923,4.124,1.393,8.964-0.245,12.951c-1.707,4.154-3.699,8.323-7.033,11.43
					c-2.685,2.502-6.137,3.325-9.721,2.774c-0.814-0.125-1.798,0.193-2.637,0.239c-1.76,0.099-3.524-0.133-5.24-0.508
					c-5.31-1.162-9.875-4.674-12.629-9.305c-2.655-4.455-2.701-9.578-2.6-14.6c0.043-2.289,0.296-4.598,1.241-6.7
					c1.6-3.552,6.067-3.564,9.41-3.47c1.562,0.045,2.989,0.224,4.379,0.99c0.925,0.515,1.722,1.289,2.717,1.686
					c1.593,0.642,3.006,0.329,4.534-0.339C220.437,154.266,219.566,154.271,219.337,154.371L219.337,154.371z"/>
				<path d="M217.087,187.471c-4.588,0-8.963-1.348-12.322-3.793c-4.292-3.136-7.137-7.518-8.002-12.34
					c-0.896-4.974-0.827-10.105,0.188-13.725c1.011-3.636,3.297-5.428,7.636-6c2.313-0.301,4.745-0.269,6.819,0.096
					c1.189,0.21,2.155,0.836,3.095,1.439c1.026,0.663,1.999,1.29,3.165,1.29c0.502,0,1.008-0.114,1.55-0.352
					c0.195-0.085,0.506-0.091,0.565-0.091c0.13,0,0.518,0,0.584,0.312c0.062,0.302-0.259,0.444-0.364,0.49
					c-1.135,0.497-2.026,0.717-2.896,0.717l0,0c-0.642,0-1.257-0.121-1.88-0.372c-0.622-0.249-1.166-0.634-1.691-1.006
					c-0.36-0.256-0.698-0.497-1.062-0.694c-1.391-0.773-2.858-0.915-4.237-0.955c-0.455-0.013-0.935-0.021-1.425-0.021
					c-2.885,0-6.369,0.374-7.692,3.306c-1.003,2.24-1.176,4.695-1.212,6.578c-0.109,5.37,0.007,10.169,2.556,14.44
					c2.8,4.702,7.33,8.04,12.432,9.157c1.931,0.425,3.566,0.589,5.153,0.502c0.298-0.014,0.614-0.067,0.952-0.123
					c0.587-0.097,1.2-0.196,1.748-0.111c3.64,0.557,6.994-0.394,9.465-2.697c3.284-3.06,5.281-7.246,6.957-11.319
					c1.324-3.223,1.401-7.521,0.228-12.767c-0.856-3.835-2.111-8.021-6.178-9.173c-0.711-0.201-3.238-0.856-5.887-0.856
					c-2.463,0-5.526,0.584-6.16,3.355c-0.094,0.419-0.765,0.511-0.991,0.511c-0.216,0-0.362-0.055-0.454-0.169l-0.094-0.12
					l0.021-0.202c0.645-2.823,3.554-4.378,8.187-4.378c1.965,0,4.169,0.289,5.893,0.776c2.829,0.799,4.528,2.307,5.684,5.028
					c1.419,3.352,2.209,7.24,2.277,11.25c0.079,4.428-1.333,7.867-2.872,10.924c-1.605,3.195-3.977,7.156-8.058,9.472
					c-2.604,1.477-5.455,1.596-8.645,1.596h-0.829c-0.537,0-1.077,0.003-1.614,0.016
					C217.48,187.467,217.284,187.471,217.087,187.471z M219.879,186.824h0.239c0.172,0,0.342,0,0.514,0
					C220.394,186.791,220.146,186.802,219.879,186.824z M198.646,155.322c-0.474,0.691-0.834,1.505-1.099,2.455
					c-0.984,3.535-1.052,8.565-0.172,13.454c0.837,4.663,3.592,8.905,7.761,11.941c1.209,0.884,2.56,1.617,4.006,2.193
					c-3.76-1.671-7.013-4.553-9.216-8.26c-2.629-4.414-2.755-9.297-2.645-14.767c0.04-1.947,0.221-4.479,1.273-6.82
					C198.583,155.452,198.614,155.388,198.646,155.322z M232.605,150.122c3.267,1.587,4.536,5.319,5.398,9.176
					c1.198,5.373,1.111,9.791-0.263,13.135c-1.312,3.19-2.82,6.452-4.987,9.219c1.511-1.806,2.628-3.796,3.511-5.551
					c1.505-2.988,2.884-6.344,2.808-10.635c-0.069-3.933-0.839-7.742-2.227-11.016C235.904,152.239,234.64,150.928,232.605,150.122z
					 M211.718,152.42c0.356,0.125,0.706,0.284,1.057,0.477c0.39,0.217,0.761,0.479,1.12,0.731c0.519,0.368,1.009,0.715,1.56,0.939
					c0.276,0.109,0.547,0.191,0.823,0.245c-0.756-0.263-1.445-0.708-2.117-1.141C213.396,153.176,212.607,152.667,211.718,152.42z
					 M219.292,151c-0.427,0.442-0.761,0.979-0.955,1.629c0.108-0.015,0.198-0.046,0.244-0.07
					C218.721,151.973,218.96,151.451,219.292,151z"/>
			</g>
			<g>
				<path d="M217.677,150.256c-1.47-3.481-4.231-5.404-7.601-6.87c-0.372-0.162-1.073,0.371-0.536,0.604
					c3.181,1.384,5.827,3.222,7.215,6.515C216.924,150.902,217.837,150.632,217.677,150.256L217.677,150.256z"/>
				<path d="M217.129,151.013L217.129,151.013c-0.313,0-0.559-0.146-0.659-0.387c-1.175-2.78-3.349-4.738-7.056-6.352
					c-0.336-0.146-0.411-0.413-0.371-0.611c0.096-0.468,0.774-0.732,1.158-0.563c2.733,1.19,6.088,3.068,7.762,7.035
					c0.07,0.167,0.054,0.355-0.048,0.506C217.746,150.897,217.397,151.013,217.129,151.013z M217.043,150.384
					c0.008,0,0.037,0.008,0.086,0.008c0.131,0,0.246-0.062,0.268-0.094c-1.261-2.899-3.487-4.905-7.444-6.628
					c-0.103,0-0.164,0.024-0.224,0.061c2.621,1.155,5.745,2.939,7.312,6.653C217.041,150.384,217.041,150.384,217.043,150.384z"/>
			</g>
		</g>
	</g>
	<g>
		<g>
			<path d="M8.713,80.927v-22.45h1.261v21.188h8.7v1.262H8.713z"/>
			<path d="M23.782,78.347c1.187,1.084,2.6,1.627,4.238,1.627c1.757,0,3.261-0.623,4.505-1.866c0.158-0.16,0.307-0.323,0.447-0.492
				l1.333,0.478c-0.242,0.336-0.519,0.659-0.828,0.968c-1.506,1.506-3.325,2.259-5.458,2.259c-2.124,0-3.94-0.752-5.443-2.259
				c-1.509-1.506-2.261-3.325-2.261-5.458c0-2.125,0.752-3.939,2.261-5.445c1.503-1.505,3.319-2.259,5.443-2.259
				c1.823,0,3.419,0.548,4.785,1.642c0.224,0.188,0.448,0.394,0.672,0.617c0.085,0.084,0.163,0.168,0.238,0.253l-0.953,0.954
				L23.782,78.347z M31.835,68.512c-1.095-0.844-2.365-1.265-3.815-1.265c-1.75,0-3.247,0.622-4.49,1.86
				c-1.245,1.241-1.866,2.739-1.866,4.498c0,1.448,0.421,2.72,1.262,3.815L31.835,68.512z"/>
			<path d="M41.461,73.842c-1.076-0.579-1.82-1.075-2.23-1.486c-0.646-0.647-0.969-1.424-0.969-2.331
				c0-0.916,0.323-1.699,0.969-2.351c0.645-0.65,1.421-0.974,2.33-0.974c0.915,0,1.672,0.299,2.272,0.897
				c0.58,0.589,0.869,1.259,0.869,2.007v0.071l-1.093,0.436c-0.092-0.713-0.316-1.245-0.668-1.599
				c-0.35-0.356-0.81-0.534-1.38-0.534c-0.563,0-1.043,0.198-1.445,0.595c-0.404,0.397-0.604,0.882-0.604,1.453
				c0,0.561,0.201,1.043,0.604,1.445c0.234,0.235,0.729,0.589,1.485,1.067c1.198,0.655,2.049,1.233,2.555,1.739
				c0.792,0.804,1.193,1.763,1.193,2.876c0,1.14-0.4,2.111-1.193,2.913c-0.796,0.8-1.761,1.198-2.891,1.198
				c-1.131,0-2.095-0.398-2.891-1.198c-0.796-0.802-1.193-1.678-1.193-2.632l1.25-0.322c0,0.821,0.277,1.51,0.835,2.061
				c0.554,0.553,1.22,0.829,1.999,0.829c0.777,0,1.441-0.276,1.999-0.829c0.556-0.551,0.835-1.225,0.835-2.02
				c0-0.777-0.277-1.44-0.828-1.992C42.974,74.862,42.37,74.421,41.461,73.842z"/>
		</g>
		<g>
			<path d="M71.603,73.788c0,2.3-0.608,4.054-1.816,5.266c-1.287,1.299-2.845,1.95-4.676,1.95c-1.828,0-3.387-0.646-4.673-1.939
				c-1.285-1.293-1.926-2.712-1.926-4.255l1.336-0.523c0.302,1.635,0.945,2.861,1.928,3.677c0.817,0.695,1.741,1.044,2.771,1.044
				c0.181,0,0.369-0.017,0.564-0.044c1.256,0,2.339-0.448,3.245-1.341c0.802-0.802,1.203-2.154,1.203-4.06V44.381h2.043V73.788z"/>
			<path d="M102.12,80.686h-2.04v-4.537c-0.395,0.529-0.827,1.035-1.294,1.52c-2.437,2.436-5.376,3.652-8.826,3.652
				c-3.435,0-6.367-1.217-8.805-3.652c-2.435-2.435-3.652-5.371-3.652-8.803c0-3.451,1.217-6.393,3.652-8.828
				c2.438-2.434,5.37-3.652,8.805-3.652c3.45,0,6.39,1.219,8.826,3.652c0.467,0.484,0.899,0.991,1.294,1.519v-3.153h2.04V80.686z
				 M100.08,70.884v-4.039c-0.38-1.997-1.325-3.75-2.836-5.264c-2.015-2.011-4.442-3.019-7.284-3.019
				c-2.845,0-5.272,1.008-7.282,3.019c-2.014,2.011-3.021,4.439-3.021,7.284c0,2.842,1.007,5.267,3.021,7.271
				c2.01,2.004,4.438,3.006,7.282,3.006c2.841,0,5.269-1.005,7.284-3.018C98.754,74.614,99.7,72.865,100.08,70.884z"/>
			<path d="M108.926,58.404h2.044v4.063c0.422-0.606,0.915-1.189,1.472-1.748c1.8-1.8,3.647-2.746,5.54-2.837v2.225
				c-1.287,0.06-2.62,0.779-3.995,2.155c-1.938,1.921-2.94,4.229-3.017,6.92v11.504h-2.044V58.404z"/>
			<path d="M146.436,80.686h-2.046v-4.537c-0.391,0.529-0.824,1.035-1.292,1.52c-2.436,2.436-5.378,3.652-8.825,3.652
				c-3.435,0-6.369-1.217-8.802-3.652c-2.439-2.435-3.655-5.371-3.655-8.803c0-3.451,1.216-6.393,3.655-8.828
				c2.433-2.434,5.368-3.652,8.802-3.652c3.447,0,6.39,1.219,8.825,3.652c0.468,0.484,0.901,0.991,1.292,1.519V44.381h2.046V80.686z
				 M144.39,70.884v-4.039c-0.378-1.997-1.324-3.75-2.835-5.264c-2.011-2.011-4.442-3.019-7.282-3.019
				c-2.847,0-5.274,1.008-7.284,3.019c-2.013,2.011-3.017,4.439-3.017,7.284c0,2.842,1.004,5.267,3.017,7.271
				c2.01,2.004,4.438,3.006,7.284,3.006c2.84,0,5.271-1.005,7.282-3.018C143.065,74.614,144.012,72.865,144.39,70.884z"/>
			<path d="M156.155,51.099c0.401,0.393,0.6,0.87,0.6,1.427c0,0.578-0.198,1.062-0.6,1.453c-0.4,0.395-0.882,0.592-1.441,0.592
				c-0.556,0-1.038-0.197-1.439-0.592c-0.402-0.391-0.601-0.875-0.601-1.453c0-0.557,0.198-1.034,0.601-1.427
				c0.401-0.395,0.884-0.591,1.439-0.591C155.273,50.508,155.755,50.704,156.155,51.099z M155.737,58.404v22.282h-2.042V58.404
				H155.737z"/>
			<path d="M165.04,63.375v17.311h-2.043V58.404h2.043v1.431c1.859-1.846,4.023-2.769,6.486-2.769c2.633,0,4.772,0.823,6.422,2.472
				c1.652,1.649,2.499,3.729,2.541,6.241v14.906h-2.042V65.96c0-1.892-0.684-3.506-2.053-4.844c-1.37-1.339-2.992-2.009-4.868-2.009
				c-1.873,0-3.494,0.658-4.855,1.975C165.932,61.824,165.387,62.587,165.04,63.375z"/>
			<path d="M193.424,69.227c-1.74-0.938-2.941-1.739-3.605-2.404c-1.048-1.043-1.567-2.299-1.567-3.768
				c0-1.481,0.52-2.748,1.567-3.799c1.042-1.053,2.297-1.578,3.764-1.578c1.482,0,2.707,0.485,3.675,1.451
				c0.938,0.955,1.407,2.035,1.407,3.246v0.113l-1.769,0.703c-0.151-1.15-0.513-2.013-1.077-2.587
				c-0.569-0.574-1.312-0.861-2.236-0.861c-0.907,0-1.688,0.32-2.336,0.963c-0.647,0.644-0.978,1.427-0.978,2.348
				c0,0.909,0.33,1.688,0.978,2.337c0.376,0.378,1.18,0.954,2.403,1.725c1.938,1.059,3.314,1.996,4.131,2.814
				c1.285,1.3,1.929,2.852,1.929,4.649c0,1.847-0.644,3.416-1.929,4.708c-1.286,1.293-2.848,1.94-4.674,1.94
				c-1.831,0-3.39-0.646-4.674-1.94c-1.286-1.293-1.93-2.71-1.93-4.252l2.02-0.523c0,1.333,0.45,2.444,1.35,3.336
				c0.898,0.893,1.978,1.338,3.234,1.338s2.335-0.445,3.23-1.338c0.902-0.892,1.35-1.982,1.35-3.269
				c0-1.252-0.447-2.327-1.335-3.221C195.866,70.875,194.891,70.164,193.424,69.227z"/>
		</g>
		<g>
			<path d="M229.291,80.927h-1.263v-2.806c-0.246,0.328-0.51,0.64-0.798,0.941c-1.508,1.506-3.328,2.259-5.461,2.259
				c-2.122,0-3.938-0.752-5.445-2.259c-1.502-1.506-2.257-3.321-2.257-5.445c0-2.132,0.755-3.952,2.257-5.458
				c1.508-1.505,3.323-2.259,5.445-2.259c2.133,0,3.953,0.754,5.461,2.259c0.288,0.3,0.552,0.614,0.798,0.94V58.477h1.263V80.927z
				 M228.028,74.867v-2.498c-0.234-1.236-0.818-2.321-1.755-3.256c-1.241-1.243-2.742-1.866-4.504-1.866
				c-1.757,0-3.26,0.624-4.503,1.866c-1.243,1.245-1.866,2.745-1.866,4.504c0,1.761,0.623,3.257,1.866,4.498
				c1.243,1.239,2.746,1.859,4.503,1.859c1.762,0,3.263-0.623,4.504-1.866C227.21,77.173,227.794,76.091,228.028,74.867z"/>
			<path d="M236.126,78.347c1.188,1.084,2.6,1.627,4.235,1.627c1.759,0,3.262-0.623,4.507-1.866c0.156-0.16,0.308-0.323,0.447-0.492
				l1.334,0.478c-0.246,0.336-0.522,0.659-0.828,0.968c-1.507,1.506-3.329,2.259-5.46,2.259c-2.12,0-3.938-0.752-5.442-2.259
				c-1.507-1.506-2.26-3.325-2.26-5.458c0-2.125,0.753-3.939,2.26-5.445c1.505-1.505,3.322-2.259,5.442-2.259
				c1.826,0,3.422,0.548,4.787,1.642c0.223,0.188,0.448,0.394,0.673,0.617c0.084,0.084,0.165,0.168,0.238,0.253l-0.956,0.954
				L236.126,78.347z M244.177,68.512c-1.092-0.844-2.364-1.265-3.815-1.265c-1.745,0-3.245,0.622-4.488,1.86
				c-1.243,1.241-1.865,2.739-1.865,4.498c0,1.448,0.419,2.72,1.263,3.815L244.177,68.512z"/>
		</g>
		<g>
			<path d="M17.056,105.188c-2.618-0.874-4.686-2.069-6.204-3.583c-1.514-1.518-2.273-3.354-2.273-5.515
				c0-2.113,0.759-3.933,2.273-5.456c1.518-1.527,3.356-2.286,5.515-2.286c2.144,0,3.98,0.757,5.513,2.273
				c0.844,0.811,1.425,1.722,1.745,2.733l-1.859,0.735c-0.277-0.75-0.729-1.438-1.356-2.067c-1.118-1.101-2.464-1.654-4.043-1.654
				c-1.58,0-2.924,0.556-4.044,1.665c-1.118,1.111-1.676,2.463-1.676,4.056c0,1.579,0.558,2.925,1.676,4.043
				c1.041,1.026,2.48,1.968,4.318,2.825c2.943,0.949,5.413,2.428,7.419,4.434c2.131,2.114,3.195,4.671,3.195,7.673
				c0,3.018-1.064,5.591-3.195,7.72c-2.125,2.129-4.693,3.192-7.693,3.192c-3.003,0-5.567-1.071-7.696-3.215
				c-1.701-1.699-2.719-3.676-3.055-5.928l1.953-0.712c0.211,1.991,1.064,3.729,2.548,5.216c1.732,1.731,3.812,2.596,6.25,2.596
				c2.449,0,4.539-0.865,6.271-2.596c1.731-1.732,2.596-3.822,2.596-6.273c0-2.435-0.865-4.518-2.596-6.248
				C21.123,107.302,19.261,106.093,17.056,105.188z"/>
			<path d="M56.202,125.542h-2.068v-4.595c-0.395,0.537-0.832,1.049-1.308,1.54c-2.467,2.466-5.445,3.7-8.937,3.7
				c-3.476,0-6.447-1.234-8.913-3.7c-2.467-2.466-3.698-5.438-3.698-8.914c0-3.492,1.231-6.47,3.698-8.935
				c2.466-2.469,5.437-3.702,8.913-3.702c3.492,0,6.47,1.233,8.937,3.702c0.477,0.487,0.914,1.002,1.308,1.536v-3.192h2.068V125.542
				z M54.133,115.618v-4.089c-0.38-2.022-1.34-3.798-2.87-5.33c-2.038-2.039-4.496-3.057-7.375-3.057
				c-2.877,0-5.338,1.018-7.375,3.057c-2.038,2.037-3.055,4.495-3.055,7.374s1.017,5.334,3.055,7.363
				c2.037,2.029,4.498,3.043,7.375,3.043c2.879,0,5.336-1.018,7.375-3.056C52.793,119.393,53.753,117.625,54.133,115.618z"/>
			<path d="M66.046,95.584c0.405,0.399,0.608,0.881,0.608,1.448c0,0.582-0.203,1.072-0.608,1.471
				c-0.405,0.395-0.893,0.597-1.457,0.597c-0.567,0-1.054-0.202-1.461-0.597c-0.405-0.399-0.608-0.89-0.608-1.471
				c0-0.567,0.203-1.049,0.608-1.448c0.407-0.398,0.894-0.597,1.461-0.597C65.153,94.988,65.641,95.186,66.046,95.584z
				 M65.622,102.982v22.56h-2.068v-22.56H65.622z"/>
			<path d="M75.041,108.015v17.527h-2.068v-22.56h2.068v1.445c1.882-1.866,4.074-2.8,6.568-2.8c2.666,0,4.832,0.835,6.504,2.504
				c1.667,1.669,2.523,3.775,2.569,6.318v15.092h-2.067v-14.909c0-1.915-0.691-3.552-2.081-4.904
				c-1.382-1.358-3.024-2.035-4.926-2.035c-1.899,0-3.535,0.667-4.916,2C75.944,106.443,75.392,107.217,75.041,108.015z"/>
			<path d="M100.791,102.982V93.38h2.07v9.602h4.596v2.068h-4.596v20.492h-2.07V105.05h-4.592v-2.068H100.791z"/>
			<path d="M138.378,105.188c-2.619-0.874-4.688-2.069-6.205-3.583c-1.515-1.518-2.275-3.354-2.275-5.515
				c0-2.113,0.761-3.933,2.275-5.456c1.518-1.527,3.356-2.286,5.514-2.286c2.148,0,3.982,0.757,5.516,2.273
				c0.844,0.811,1.424,1.722,1.743,2.733l-1.86,0.735c-0.275-0.75-0.725-1.438-1.354-2.067c-1.117-1.101-2.467-1.654-4.045-1.654
				c-1.577,0-2.923,0.556-4.042,1.665c-1.12,1.111-1.679,2.463-1.679,4.056c0,1.579,0.559,2.925,1.679,4.043
				c1.041,1.026,2.479,1.968,4.319,2.825c2.94,0.949,5.413,2.428,7.419,4.434c2.132,2.114,3.194,4.671,3.194,7.673
				c0,3.018-1.062,5.591-3.194,7.72c-2.126,2.129-4.693,3.192-7.696,3.192c-3.001,0-5.567-1.071-7.697-3.215
				c-1.697-1.699-2.714-3.676-3.053-5.928l1.952-0.712c0.213,1.991,1.066,3.729,2.549,5.216c1.731,1.731,3.815,2.596,6.249,2.596
				c2.451,0,4.541-0.865,6.272-2.596c1.73-1.732,2.595-3.822,2.595-6.273c0-2.435-0.864-4.518-2.595-6.248
				C142.444,107.302,140.583,106.093,138.378,105.188z"/>
			<path d="M157.469,121.315c1.946,1.775,4.255,2.664,6.936,2.664c2.88,0,5.336-1.018,7.378-3.056
				c0.259-0.259,0.505-0.528,0.731-0.803l2.185,0.779c-0.397,0.552-0.852,1.081-1.354,1.586c-2.469,2.466-5.448,3.7-8.939,3.7
				c-3.477,0-6.446-1.234-8.912-3.7c-2.465-2.466-3.698-5.445-3.698-8.937c0-3.476,1.233-6.447,3.698-8.911
				c2.466-2.469,5.436-3.702,8.912-3.702c2.986,0,5.6,0.898,7.836,2.688c0.367,0.307,0.736,0.642,1.104,1.013
				c0.139,0.136,0.265,0.275,0.39,0.412l-1.563,1.562L157.469,121.315z M170.653,105.209c-1.793-1.377-3.874-2.066-6.249-2.066
				c-2.861,0-5.312,1.016-7.35,3.044c-2.036,2.029-3.058,4.484-3.058,7.363c0,2.375,0.689,4.457,2.068,6.25L170.653,105.209z"/>
			<path d="M180.213,102.982h2.065v4.113c0.43-0.614,0.927-1.205,1.495-1.77c1.822-1.821,3.689-2.78,5.604-2.873v2.253
				c-1.303,0.061-2.648,0.789-4.044,2.182c-1.96,1.945-2.979,4.281-3.055,7.006v11.648h-2.065V102.982z"/>
			<path d="M196.52,108.015v17.527h-2.066v-22.56h2.066v1.445c1.888-1.866,4.075-2.8,6.572-2.8c2.667,0,4.831,0.835,6.5,2.504
				c1.672,1.669,2.528,3.775,2.577,6.318v15.092h-2.071v-14.909c0-1.915-0.693-3.552-2.074-4.904
				c-1.39-1.358-3.032-2.035-4.932-2.035c-1.898,0-3.537,0.667-4.917,2C197.424,106.443,196.874,107.217,196.52,108.015z"/>
			<path d="M222.011,95.584c0.405,0.399,0.608,0.881,0.608,1.448c0,0.582-0.203,1.072-0.608,1.471
				c-0.406,0.395-0.892,0.597-1.46,0.597c-0.567,0-1.049-0.202-1.457-0.597c-0.405-0.399-0.608-0.89-0.608-1.471
				c0-0.567,0.203-1.049,0.608-1.448c0.408-0.398,0.89-0.597,1.457-0.597C221.119,94.988,221.604,95.186,222.011,95.584z
				 M221.586,102.982v22.56h-2.066v-22.56H221.586z"/>
			<path d="M231.008,108.015v17.527h-2.073v-22.56h2.073v1.445c1.879-1.866,4.067-2.8,6.568-2.8c2.663,0,4.826,0.835,6.496,2.504
				c1.671,1.669,2.532,3.775,2.577,6.318v15.092h-2.067v-14.909c0-1.915-0.691-3.552-2.078-4.904
				c-1.391-1.358-3.028-2.035-4.928-2.035c-1.901,0-3.54,0.667-4.921,2C231.909,106.443,231.354,107.217,231.008,108.015z"/>
		</g>
	</g>
	<g>
		<path fill="#9060A4" d="M48.93,136.736c0,0-7.815-2.788-10.212,2.235c-2.397,5.025-3.57,16.545-8.523,23.852
			c-4.678,6.897-10.987,8.664-14.772,10.019c-7.952,2.847-5.736,13.883-3.243,18.356c3.243,5.819,16.464,8.024,23.036,3.604
			c10.425-7.02,16.599-19.474,19.481-31.442C56.873,154.317,53.62,137.499,48.93,136.736z"/>
		<g>
			<g>
				<path d="M21.781,151.947c1.068-0.697,2.463-3.021,3.951-1.878c1.048,0.807,1.818,1.058,3.179,1.223
					c2.051,0.253,2.971-0.576,3.764-2.363c1.175-2.644,3.242,1.05,3.731,1.615c0.48,0.555,1.152,1.035,1.934,0.938
					c0.696-0.087,1.272-0.301,1.887-0.639c0.465-0.252,0.888-0.599,1.318-0.907c1.241-0.893,1.647-0.046,1.989,1.041
					c0.065,0.209,0.69-0.073,0.787-0.146c2.225-1.634,0.041-6.258-0.863-8.11c-1.585-3.241-4.924-5.836-8.615-5.974
					c-2.229-0.084-5.085,0.306-6.564,2.196c-1.141,1.459-2.169,3.206-2.988,4.858c-0.917,1.856-1.251,3.963-2.518,5.642
					c-0.05,0.064,0.667,0.045,0.815-0.149c1.592-2.105,1.949-4.879,3.362-7.107c0.644-1.019,1.205-2.088,1.896-3.076
					c1.569-2.235,4.725-2.31,7.152-1.749c3.259,0.756,5.656,3.405,6.989,6.339c0.753,1.658,2.497,5.797,0.586,7.201
					c0.263-0.049,0.528-0.095,0.787-0.145c-0.716-2.298-2.163-1.76-3.767-0.607c-0.849,0.614-1.873,1.335-2.957,0.582
					c-0.588-0.408-0.936-1.216-1.347-1.79c-0.572-0.808-1.346-0.981-2.278-0.896c-0.543,0.052-1.575,0.273-1.933,0.751
					c-0.619,0.81-0.537,2.167-2.01,2.208c-1.113,0.033-2.54-0.236-3.364-1.021c-1.969-1.879-4.124,1.018-5.555,1.949
					C20.807,152.153,21.637,152.038,21.781,151.947L21.781,151.947z"/>
				<path d="M43.348,151.308l-0.252-0.501c-0.218-0.626-0.416-0.886-0.655-0.886c-0.118,0-0.334,0.054-0.687,0.309l-0.325,0.239
					c-0.326,0.242-0.664,0.491-1.029,0.691c-0.702,0.385-1.324,0.592-2.019,0.682c-0.991,0.119-1.788-0.526-2.25-1.063
					c-0.076-0.088-0.191-0.252-0.335-0.453c-0.405-0.581-1.15-1.637-1.8-1.916c-0.149,0.016-0.382,0.05-0.648,0.119
					c-0.123,0.121-0.236,0.307-0.343,0.548c-0.676,1.516-1.63,2.879-4.137,2.573c-1.351-0.165-2.197-0.401-3.355-1.294
					c-0.209-0.16-0.412-0.238-0.625-0.238c-0.629,0-1.318,0.676-1.926,1.271c-0.343,0.335-0.668,0.654-0.986,0.857
					c-0.179,0.121-0.595,0.175-0.768,0.175l0,0c-0.346,0-0.451-0.188-0.483-0.294c-0.034-0.111-0.046-0.319,0.229-0.499
					c0.3-0.194,0.654-0.499,1.025-0.82c0.39-0.332,0.798-0.686,1.224-0.99c-0.121,0.017-0.228,0.021-0.284,0.021
					c-0.108,0-0.362,0-0.473-0.225l-0.101-0.198l0.139-0.188c0.75-0.993,1.157-2.134,1.585-3.346
					c0.264-0.743,0.538-1.511,0.897-2.239c0.643-1.301,1.692-3.211,3.03-4.921c1.514-1.937,4.256-2.346,6.287-2.346
					c0.197,0,0.386,0.004,0.574,0.011c3.598,0.138,7.182,2.618,8.924,6.176c0.782,1.599,3.104,6.348,1.004,8.353
					c-0.153,0.159-0.193,0.167-0.193,0.167c-0.018,0.014-0.038,0.027-0.057,0.042c-0.118,0.088-0.551,0.289-0.855,0.289
					C43.537,151.412,43.427,151.37,43.348,151.308 M34.348,147.666c0.021,0,0.044,0,0.067,0c0.949,0,1.656,0.349,2.167,1.068
					c0.126,0.175,0.246,0.371,0.37,0.572c0.263,0.434,0.535,0.885,0.889,1.128c0.249,0.173,0.5,0.263,0.768,0.263
					c0.615,0,1.256-0.468,1.773-0.84c1.02-0.73,1.761-1.059,2.408-1.059c0.489,0,0.906,0.189,1.246,0.569
					c0.149-0.975-0.074-2.652-1.379-5.517c-1.477-3.252-3.935-5.487-6.742-6.138c-0.804-0.188-1.631-0.286-2.392-0.286
					c-1.397,0-3.287,0.328-4.384,1.889c-0.414,0.59-0.789,1.229-1.151,1.845c-0.242,0.408-0.482,0.817-0.736,1.219
					c-0.627,0.992-1.054,2.125-1.466,3.226c-0.476,1.272-0.97,2.585-1.78,3.727c0.976-0.48,2.075-0.44,2.946,0.389
					c0.716,0.685,1.989,0.926,2.94,0.926l0.166-0.002c0.751-0.022,0.956-0.428,1.251-1.146c0.13-0.313,0.263-0.637,0.48-0.921
					c0.185-0.249,0.498-0.451,0.928-0.611C33.264,147.702,34.348,147.666,34.348,147.666z M35.35,148.578
					c0.413,0.444,0.771,0.957,1.036,1.331c0.126,0.18,0.226,0.32,0.293,0.399c0.089,0.104,0.19,0.213,0.307,0.317
					c-0.253-0.293-0.46-0.634-0.652-0.946c-0.11-0.185-0.224-0.365-0.337-0.529C35.812,148.892,35.603,148.703,35.35,148.578z
					 M43.384,149.733c0.121,0.171,0.215,0.366,0.294,0.562c0.024-0.032,0.046-0.062,0.067-0.096
					C43.627,149.986,43.503,149.837,43.384,149.733z M40.34,139.338c1.192,1.104,2.208,2.53,2.975,4.214
					c1.285,2.825,1.736,4.952,1.344,6.339c0.64-1.273,0.131-3.622-1.527-7.014C42.456,141.496,41.484,140.288,40.34,139.338z
					 M25.884,143.423c-0.098,0.19-0.188,0.368-0.272,0.539c-0.341,0.691-0.608,1.439-0.864,2.164c-0.17,0.48-0.345,0.967-0.547,1.45
					c0.339-0.7,0.62-1.45,0.912-2.224C25.353,144.712,25.596,144.062,25.884,143.423z"/>
			</g>
			<g>
				<path d="M33.868,135.982c-0.156-0.493-0.207-1.026-0.43-1.499c-0.076,0.109-0.156,0.22-0.234,0.328
					c0.345-0.144,0.736-0.275,0.99,0.077c0.279,0.383,0.188,1.022,0.13,1.459c-0.054,0.389,0.789,0.259,0.835-0.081
					c0.078-0.592,0.147-1.38-0.306-1.852c-0.519-0.54-1.411-0.282-2.001-0.037c-0.099,0.041-0.302,0.192-0.238,0.329
					c0.219,0.469,0.271,1.004,0.427,1.496C33.152,136.553,33.979,136.324,33.868,135.982L33.868,135.982z"/>
				<path d="M34.618,136.945c-0.223,0-0.409-0.074-0.526-0.209c-0.053-0.061-0.092-0.13-0.112-0.205
					c-0.183,0.141-0.432,0.207-0.629,0.207l0,0c-0.32,0-0.57-0.162-0.654-0.425c-0.062-0.201-0.111-0.409-0.158-0.615
					c-0.016-0.069-0.032-0.135-0.046-0.201l-0.061-0.23c-0.04-0.144-0.085-0.279-0.146-0.409c-0.057-0.122-0.061-0.263-0.011-0.393
					c0.089-0.226,0.316-0.371,0.437-0.421c0.283-0.117,0.542-0.201,0.779-0.25l0.014-0.019l0.009,0.015
					c0.684-0.139,1.228-0.011,1.597,0.375c0.606,0.633,0.47,1.658,0.401,2.151C35.46,136.711,35.016,136.945,34.618,136.945z
					 M34.316,134.496c0.062,0.051,0.119,0.111,0.169,0.179c0.325,0.446,0.279,1.069,0.219,1.539
					c0.059-0.013,0.106-0.037,0.119-0.052c0.055-0.522,0.092-1.162-0.229-1.498C34.517,134.586,34.426,134.531,34.316,134.496z
					 M33.165,135.219c0.028,0.106,0.053,0.213,0.078,0.32c0.036,0.159,0.071,0.319,0.118,0.474c0.053-0.003,0.099-0.016,0.131-0.026
					c-0.047-0.169-0.085-0.337-0.125-0.508c-0.025-0.105-0.05-0.21-0.075-0.313L33.165,135.219z"/>
			</g>
			<g>
				<path d="M43.102,151.978c-1.541,8.573-1.153,17.288-6.209,24.798c-2.614,3.878-6.209,7.325-10.47,9.309
					c-3.689,1.717-8.419,1.351-12.22,0.144c-3.777-1.199-5.82-4.292-6.06-8.153c-0.123-1.917-0.091-3.827,0.229-5.722
					c0.426-2.55,1.937-4.275,3.778-5.968c2.73-2.508,5.91-4.45,8.468-7.157c1.546-1.636,4.071-4.252,4.048-6.687
					c-0.005-0.409-0.837-0.261-0.835,0.076c0.03,3.146-3.777,6.391-5.919,8.318c-3.319,2.981-8.178,5.388-9.898,9.734
					c-1.29,3.259-1.199,8.174,0.146,11.401c1.289,3.085,4.481,4.549,7.555,5.207c3.481,0.744,7.155,0.741,10.5-0.516
					c4.121-1.548,7.549-4.873,10.241-8.249c2.799-3.517,4.533-7.452,5.452-11.831c1.022-4.873,1.149-9.888,2.031-14.781
					C44.006,151.514,43.162,151.635,43.102,151.978L43.102,151.978z"/>
				<path d="M20.313,188.145L20.313,188.145c-1.509-0.003-3.081-0.176-4.675-0.515c-3.989-0.855-6.688-2.728-7.812-5.422
					c-1.395-3.345-1.458-8.356-0.149-11.669c1.263-3.196,4.125-5.336,6.89-7.406c1.112-0.834,2.164-1.621,3.104-2.468l0.327-0.29
					c2.056-1.843,5.5-4.927,5.472-7.752c-0.002-0.157,0.062-0.308,0.181-0.425c0.16-0.163,0.423-0.264,0.686-0.264
					c0.401,0,0.686,0.247,0.689,0.605c0.023,2.524-2.422,5.11-4.041,6.823l-0.106,0.11c-1.493,1.583-3.213,2.92-4.88,4.213
					c-1.21,0.938-2.46,1.91-3.605,2.961c-1.914,1.761-3.271,3.412-3.668,5.767c-0.283,1.682-0.357,3.527-0.226,5.638
					c0.246,3.882,2.364,6.734,5.812,7.833c2.079,0.659,4.254,1.01,6.283,1.01c2.146,0,4.059-0.383,5.676-1.137
					c3.886-1.81,7.553-5.068,10.323-9.185c3.703-5.498,4.437-11.568,5.216-17.993c0.265-2.187,0.54-4.443,0.938-6.668
					c0.113-0.629,1.116-0.775,1.432-0.398c0.104,0.123,0.142,0.283,0.112,0.451c-0.4,2.226-0.648,4.518-0.887,6.735
					c-0.29,2.65-0.586,5.394-1.146,8.057c-0.969,4.613-2.774,8.529-5.524,11.979c-3.408,4.28-6.81,7.015-10.393,8.364
					C24.496,187.792,22.469,188.145,20.313,188.145z M10.712,167.284c-1.004,1.044-1.839,2.192-2.365,3.521
					c-1.248,3.151-1.187,7.936,0.146,11.124c0.637,1.533,1.781,2.633,3.09,3.419c-2.253-1.566-3.602-4.099-3.801-7.251
					c-0.137-2.166-0.061-4.065,0.234-5.805C8.354,170.275,9.322,168.755,10.712,167.284z M43.546,152.038
					c-0.057,0.017-0.096,0.038-0.11,0.048c-0.376,2.157-0.647,4.407-0.911,6.58c-0.702,5.802-1.427,11.784-4.594,17.136
					c1.711-2.735,2.904-5.768,3.624-9.194c0.549-2.628,0.846-5.353,1.132-7.983C42.92,156.46,43.162,154.224,43.546,152.038z
					 M24.188,152.687c-0.002,0.582-0.122,1.161-0.332,1.729c0.265-0.589,0.434-1.178,0.448-1.756
					C24.253,152.666,24.215,152.676,24.188,152.687z"/>
			</g>
		</g>
	</g>
</g>
<g>
</g>
<g>
</g>
<g>
</g>
<g>
</g>
<g>
</g>
<g>
</g>
</svg>
