<?xml version="1.0" encoding="utf-8"?>
<!-- Generator: Adobe Illustrator 16.0.0, SVG Export Plug-In . SVG Version: 6.00 Build 0)  -->
<!DOCTYPE svg PUBLIC "-//W3C//DTD SVG 1.1//EN" "http://www.w3.org/Graphics/SVG/1.1/DTD/svg11.dtd">
<svg version="1.1" id="Calque_1" xmlns="http://www.w3.org/2000/svg" xmlns:xlink="http://www.w3.org/1999/xlink" x="0px" y="0px"
	 width="250px" height="250px" viewBox="0 0 250 250" enable-background="new 0 0 250 250" xml:space="preserve">
<g>
	<path fill="#DEA26C" d="M244.648,197.84c0,7.672-5.777,13.896-12.896,13.896H18.239c-7.121,0-12.894-6.224-12.894-13.896V44.222
		c0-7.674,5.773-13.895,12.894-13.895h213.514c7.118,0,12.896,6.22,12.896,13.895V197.84z"/>
	<g>
		<path fill="#FFFFFF" d="M72.612,74.345c0,0,12.066-8.712,19.44-12.064c7.372-3.35,22.789-11.06,44.91,0
			c22.118,11.06,20.441,17.092,23.122,19.103c2.682,2.01,9.383-3.015,9.718-4.693c0.338-1.675-5.695-8.378-10.386-11.728
			c-4.693-3.353-22.122-14.41-36.531-14.41c-14.412,0-31.502,5.361-41.556,12.064c-10.055,6.701-11.396,10.724-11.396,10.724
			S69.823,76.311,72.612,74.345z"/>
		<path fill="#FFFFFF" d="M50.996,74.682c0.879,1.315,0.673,4.287,0,7.171c-0.669,2.883-0.203,4.894,0.569,6.234
			c0.775,1.34,6.638,2.848,7.142,4.188c0.502,1.342-0.335,4.357-2.346,4.526c-2.011,0.167-9.383-1.509-10.556-3.351
			c-1.175-1.844-1.175-16.421,0-18.769C46.977,72.335,49.323,72.168,50.996,74.682z"/>
		<path fill="#FFFFFF" d="M65.744,84.065c1.861,0.204,6.868,1.34,7.875,2.18c1.006,0.835,1.171,3.013,0,3.685
			c-1.173,0.671-6.368-1.171-7.207-1.004c-0.836,0.166-2.011,1.338-0.669,1.84c1.338,0.505,6.03,2.011,6.03,3.184
			c0,2.179-2.269,1.042-3.85,1.175c-2.011,0.167-3.857-1.175-4.024-0.502c-0.167,0.669,2.346,1.842,4.024,3.015
			c1.673,1.173,4.22,2.779,3.35,3.929c-1.342,1.766-5.051,0.12-7.383-0.578c-5.044-1.508-4.35-2.513-3.343-6.703
			C61.554,90.097,62.643,83.729,65.744,84.065z"/>
		<path fill="#FFFFFF" d="M88.868,91.439c-0.167,1.34-0.669,2.939-2.515,2.515c-1.842-0.426-3.519-1.643-5.192-1.576
			c-1.677,0.065-0.838,1.073,0,1.744c0.836,0.669,5.026,2.848,6.03,4.522c1.007,1.677,1.846,4.861-0.502,6.201
			c-2.348,1.342-4.524,2.85-7.205,1.677c-2.68-1.173-5.065-3.855-5.047-5.867c0.02-2.011,1.194-2.092,2.198-1.467
			c1.006,0.628,2.011,3.027,3.352,3.17c1.34,0.141,5.363,0.141,3.855-1.87c-1.509-2.011-4.19-1.989-5.532-3.674
			c-1.34-1.689-2.009-6.212,0.169-7.888c2.178-1.675,4.431-3.441,8.21-1.006C89.291,89.597,88.868,91.439,88.868,91.439z"/>
		<path fill="#FFFFFF" d="M103.112,87.585c0,0-7.04-1.175-9.051,0c-2.009,1.173-3.182,4.357,0,4.861
			c3.184,0.502,6.034,0.759,6.034,0.759s-0.502,5.775-0.836,8.456c-0.338,2.682-0.84,7.876-2.35,9.05
			c-1.507,1.171-4.857,1.342-6.199,0c-1.34-1.34-3.684-2.346-5.026-0.838c-1.342,1.508-0.866,6.969,3.209,8.547
			c4.333,1.675,11.203,0.837,12.877-1.509c1.677-2.344,3.184-7.038,3.352-12.902c0.167-5.867,0.671-10.803,0.671-10.803
			s5.361,0.927,6.369,0c1.004-0.928,3.013-4.112,0-4.614C109.144,88.089,103.112,87.585,103.112,87.585z"/>
		<path fill="#FFFFFF" d="M124.896,104.006c-0.169-1.675-0.837-11.058-0.837-12.231c0-1.173-0.507-4.838-3.355-4.711
			c-3.351,0.146-4.186,2.365-4.186,2.365l-3.772,9.383c-1.088,2.683-5.109,13.91-6.786,16.256c-1.675,2.344-1.173,4.859,0,5.361
			s3.855-1.675,4.692-3.519c0.836-1.842,3.1-8.21,3.1-8.21l6.953-0.334c0,0-0.166,9.383,0,10.932
			c0.169,1.55,0.671,3.478,2.767,3.647c2.094,0.167,2.765-3.184,2.765-5.195C126.236,115.739,125.063,105.681,124.896,104.006z
			 M114.841,103.18c0,0.157,2.515-7.874,4.188-9.975c0,0,1.509,7.64,1.844,9.975C120.874,103.337,117.522,102.689,114.841,103.18z"
			/>
		<path fill="#FFFFFF" d="M143.83,113.057c-1.173-2.179-4.188-8.045-4.021-8.054c8.545-4.03,7.539-9.541,6.199-12.892
			c-1.341-3.351-7.038-4.86-10.22-5.051c-3.187-0.19-4.528,1.53-4.528,1.53c-3.518-3.184-2.606,15.081-2.772,19.774
			c-0.169,4.692-1.081,13.069,0.932,13.536c2.01,0.461,4.188-1.305,5.026-3.651c0.837-2.344-0.336-13.238-0.167-13.247
			c1.339,1.669,5.026,14.085,7.037,15.76c2.012,1.675,4.188,1.342,5.581,0C148.289,119.422,145.003,115.235,143.83,113.057z
			 M133.775,98.142v-5.695c0,0,2.772-0.594,5.53,0c2.76,0.592,2.948,4.524,1.368,5.695
			C139.098,99.316,133.775,98.142,133.775,98.142z"/>
		<path fill="#FFFFFF" d="M164.106,96.13c-2.85-5.195-7.372-9.433-14.579-9.408l-1.173,29.684c0,0,7.374,1.844,11.395-2.01
			C163.771,110.54,166.954,101.324,164.106,96.13z M154.052,110.875V94.118c1.173,0,5.195,1.342,5.53,8.379
			C159.916,109.535,154.052,110.875,154.052,110.875z"/>
		<path fill="#FFFFFF" d="M172.149,86.723c0,0-1.51-2.993-3.352-0.983c-1.844,2.011-2.513,23.124-2.513,25.974
			c0,2.848,3.1,4.691,4.524,1.842C172.234,110.708,172.82,95.079,172.149,86.723z"/>
		<path fill="#FFFFFF" d="M186.729,80.544c0,0,1.844,0.122,1.677,4.501c-0.17,4.38,0.357,22.31,0.009,24.489
			c-0.348,2.179-3.125,3.922-4.535,3.017c-2.346-1.509-3.687-12.904-4.692-17.259c0,3.183-0.669,10.89-1.338,14.075
			c-0.673,3.184-0.84,5.863-2.685,5.613c-1.842-0.25-3.802,0.921-2.738-5.78c1.062-6.701,1.567-20.997,2.573-24.154
			c1.004-3.16,3.795-2.658,5.331-0.646c1.537,2.011,3.549,11.328,4.22,13.373C184.55,95.628,182.371,80.377,186.729,80.544z"/>
		<path fill="#FFFFFF" d="M209.625,85.046c0,0,0.19-5.169-4.299-8.017c-4.123-2.619-8.544-3.184-11.059,0
			c-2.199,2.786-3.854,9.047-1.004,12.733c2.848,3.688,7.223,7.08,8.209,9.05c1.844,3.687,1.509,8.88-2.681,8.043
			c-4.189-0.84-1.006-5.07-4.691-5.07c-1.894,0-2.175,6.509-1.006,8.587c1.601,2.85,8.378,5.361,11.896,1.507
			c3.521-3.854,4.634-8.7,1.511-14.108c-2.368-4.104-5.974-7.783-7.71-9.852c-1.006-1.197-3.832-4.815,0.504-6.067
			c4.524-1.309,3.519,4.894,6.201,5.898C208.178,88.758,209.437,87.233,209.625,85.046z"/>
		<path fill="#FFFFFF" d="M59.837,104.508c-4.501-4.989-9.845-3.214-13.363-2.723c0,0,0.669,14.373,1.507,17.511
			c0.838,3.142,2.279,3.661,3.906,3.652c1.624-0.01,10.169-0.424,11.342-3.652C64.405,116.072,63.786,108.892,59.837,104.508z
			 M51.887,118.416l-1.895-12.231c2.681-1.182,7.374,0.333,8.855,7.707C60.33,121.266,51.887,118.416,51.887,118.416z"/>
		<path fill="#FFFFFF" d="M80.323,108.531c0,0-3.392-1.421-5.886-1.588c-2.492-0.169-5.907-1.006-7.3,0
			c-1.393,1.005-1.383,4.771-1.383,7.286c0,2.513-0.192,10.055,0.15,10.725s3.024,0.838,5.033,1.004
			c2.011,0.169,5.363,0.169,7.708-0.504c2.346-0.669,2.515-3.303-0.336-3.477c-2.848-0.178-7.874,0.63-8.377-0.71
			c-0.502-1.34-1.342-2.682,0-2.682c1.342,0,6.703,0.838,8.21,0c1.509-0.838,0.503-3.67-0.669-3.604s-5.262-0.276-7.541-0.752
			c-1.744-0.363-1.173-3.855,1.342-3.855c2.512,0,4.692,0.634,6.534,0.671C79.652,111.081,83.317,110.089,80.323,108.531z"/>
		<path fill="#FFFFFF" d="M106.965,129.31c0,0-1.601-4.61-4.359-7.334c-3.221-3.189-7.707-2.219-10.724-0.71
			c-3.015,1.508-4.357,5.698-5.193,8.044c-0.836,2.347,0.696,7.799,6.367,10.723c2.987,1.539,7.875,2.346,8.043,5.699
			c0.204,4.1-4.524,5.025-7.874,4.356c-3.354-0.673-6.872-3.184-8.214-4.86c-1.339-1.677-5.523-0.5-3.346,2.011
			c2.177,2.512,6.197,7.203,13.571,7.203c7.37,0,9.885-4.019,10.556-6.868c0.667-2.846-1.342-7.372-5.197-9.049
			c-3.852-1.677-10.387-5.695-8.545-9.718c1.844-4.023,7.133-3.593,8.378-1.846c0.731,1.024,1.71,3.001,2.515,4.356
			C103.92,132.963,107.635,133.833,106.965,129.31z"/>
		<path fill="#FFFFFF" d="M132.27,151.261c-0.169-2.346-5.104-22.497-6.705-25.209c-2.513-4.265-7.54-2.945-9.047,0
			c-1.509,2.941-6.646,19.781-7.769,23.198c-1.703,5.191,1.231,6.368,3.242,5.191c2.011-1.169,3.519-8.545,3.568-8.376
			c1.724,0.5,9,0,9,0c0.671,2.346,2.153,11.053,4.355,11.06C132.282,157.136,132.436,153.606,132.27,151.261z M116.518,141.205
			c0,0,2.825-7.207,3.758-10.391c-0.074,0,1.936,5.533,3.108,10.391H116.518z"/>
		<path fill="#FFFFFF" d="M138.466,126.052c0,0-3.35-0.93-3.685,2.924c-0.335,3.854-1.508,23.793,0,26.139s3.015,1.342,3.685-0.673
			c0.671-2.008,1.588-22.398,1.677-24.797C140.244,126.961,138.466,126.052,138.466,126.052z"/>
		<path fill="#FFFFFF" d="M159.934,123.959c0,0,0.819,0.824,0.819,4.681c0,3.85,1.175,9.38,1.175,13.402
			c0,5.526,0,13.909-3.519,11.729c-3.521-2.181-10.055-20.278-10.055-20.278c-0.671,0.67-1.231,8.215-1.118,12.568
			c0.112,4.36,0.781,8.383-1.562,8.379c-2.346,0-3.352-1.173-3.352-4.86c0-3.685,0.168-18.937,1.173-20.778
			c1.006-1.842,2.681-4.861,4.859-3.688c2.179,1.176,6.368,12.205,7.707,14.414c0.336-2.317-1.339-13.868-0.335-15.417
			C156.732,122.563,159.082,121.986,159.934,123.959z"/>
		<path fill="#FFFFFF" d="M181.196,128.803c0,0,3.521,0,8.547-1.342c5.182-1.381,8.547-4.512,3.855-5.485
			c-6.074-1.265-19.104,0.817-22.288,0.974c-3.186,0.154-12.395,2.838-6.114,5.854c0.083,0.169,5.443,0.335,9.132,0
			c-0.169-0.169,1.006,17.26,1.173,19.774c0.167,2.512,6.032,3.853,5.864,0C181.196,144.72,180.525,130.983,181.196,128.803z"/>
		<path fill="#FFFFFF" d="M197.283,131.148c-2.352,0.081-5.37,2.181-5.534,3.35c-0.162,1.173,1.464,3.125,4.086,2.652
			c2.622-0.472,6.809-1.603,7.481-2.966C203.987,132.825,202.144,130.979,197.283,131.148z"/>
		<path fill="#FFFFFF" d="M79.992,152.6c0,0-0.176-1.35-1.346-3.691c-1.342-2.681-5.065-5.861-10.056-4.688
			c-3.297,0.775-5.192,2.97-4.019,5.086c1.173,2.117,7.692,8.32,7.532,10.331c-0.16,2.012-0.329,4.522-2.841,4.691
			c-2.515,0.166-4.727-3.353-5.047-5.698c-0.317-2.347-2.159-8.38-3.667-6.534c-1.507,1.842,0,11.561,4.188,14.579
			c4.188,3.015,7.335,2.346,9.7,1.507c2.367-0.838,4.209-4.691,3.538-6.703c-0.671-2.011-4.859-7.375-6.701-9.721
			c-1.846-2.346,1.261-3.854,2.307-2.177c1.044,1.673,1.546,3.356,3.558,4.188C79.15,154.604,79.992,152.6,79.992,152.6z"/>
		<path fill="#FFFFFF" d="M99.759,159.972c0,0-11.058-0.504-14.075,0c-3.015,0.5-3.591,1.004-4.225,2.846
			c-0.636,1.842-2.646,9.718-2.646,11.061c0,1.342-0.993,3.853,1.178,5.191c2.173,1.342,12.714,4.191,15.579,3.688
			c2.864-0.503,3.35-3.015,0.333-4.022c-3.015-1.004-7.705-1.169-9.551-2.346c-1.842-1.173-2.846-3.181-1.338-3.35
			c1.507-0.165,4.855-0.281,6.703-0.165c5.361,0.331,7.705-2.85,3.685-3.188c-4.021-0.331-6.534-0.588-8.042-0.796
			c-1.507-0.208-1.507-3.223-1.007-4.396c0.503-1.177,5.667-0.504,7.694-0.335c2.025,0.166,5.294-0.503,5.334-0.503
			S103.612,161.813,99.759,159.972z"/>
		<path fill="#FFFFFF" d="M123.385,172.535c3.689-1.842,7.208-7.206,4.358-11.395c-1.942-2.853-7.467-3.733-10.906-4.016
			c-3.207-0.264-8.868,1.67-10.709,4.016l-0.167,0.673c0,0-2.848,17.091-2.682,19.939c0.169,2.85,1.667,6.7,3.769,5.53
			c2.098-1.173,1.622-12.92,3.104-12.627c2.848,0.56,5.697,6.04,6.701,8.161c1.005,2.12,2.842,7.478,4.861,7.481
			c3.686,0.003,4.021-3.52,2.511-5.53c-1.485-1.979-4.433-8.352-5.32-10.62C119.11,174.353,120.149,174.156,123.385,172.535z
			 M110.315,169.686c-0.5-0.5,1.007-7.615,1.007-7.615s5.195-0.091,8.954,0.074c3.756,0.169,2.775,6.745-0.576,7.541
			C117.879,170.119,112.161,169.686,110.315,169.686z"/>
		<path fill="#FFFFFF" d="M140.147,159.746c-1.636-1.571-5.863,0.388-6.116,2.233c-0.256,1.842-1.843,25.804-1.719,27.646
			c0.123,1.842,5.097,3.353,5.375,0c0.276-3.35,0.278-18.683,0.949-20.736c0.836-0.711,2.51,4.227,3.686,6.699
			c1.173,2.474,5.528,13.036,7.205,14.71c1.679,1.673,5.092,2.346,5.43,0c0.335-2.35,0.268-24.135-0.068-26.981
			c-0.333-2.85-0.837-5.36-2.764-5.195c-1.927,0.169-2.933,6.287-2.933,10.768s0,6.826,0,6.826S143.569,163.036,140.147,159.746z"/>
		<path fill="#FFFFFF" d="M163.055,159.746c0,0-3.471,0.557-3.306,3.906c0.167,3.354-0.178,15.417-0.005,18.267
			c0.172,2.846,2.017,5.695,4.027,4.019c2.012-1.676,2.681-12.232,2.344-16.086C165.783,165.998,166.526,160.866,163.055,159.746z"
			/>
		<path fill="#FFFFFF" d="M172.426,156.471c-1.474-0.159-3.183,2.655-3.067,6.847c0.108,4.188-0.51,17.594,3.067,17.594
			c2.573,0,1.9-14.578,1.733-16.421c0.169,1.008,5.2,10.476,7.877,10.476c4.021,0,4.857-4.61,4.857-9.303
			c0-4.695,1.508-12.901-2.01-13.236c-3.519-0.335-3.688,12.229-3.688,14.91c0,0.842-4.86-7.891-6.032-9.222
			C173.993,156.784,174.212,156.664,172.426,156.471z"/>
		<path fill="#FFFFFF" d="M81.459,141.212c-1.393-2.589-1.633-7.249-4.782-10.437c-2.24-2.269-10.905-3.643-16.699-0.881
			c-5.798,2.766-10.447,7.503-12.96,6.707c-0.125,1.338,2.39-0.867,4.651,0.549s8.309,5.688,14.033,5.438
			c5.442-0.239,10.095-2.515,10.976-3.392c1.257,0.877,2.511,6.079,4.461,7.186c1.95,1.109,2.978-1.769,2.978-1.769
			S82.943,143.97,81.459,141.212z M71.147,139.32c-3.142,0.754-7.539,1.896-10.429,0.765c-2.892-1.131-5.601-2.589-8.924-4.029
			c0,0,2.638-0.754,4.272-1.762c1.634-1.004,4.922-2.42,7.694-3.142c3.376-0.881,7.432-0.627,9.82,0.377
			c2.386,1.004,3.096,2.011,3.096,3.392C76.677,138.062,74.289,138.566,71.147,139.32z"/>
		<path fill="#FFFFFF" d="M76.276,133.428c0,0-2.741,0.616-4.498,0.616c-1.761,0-4.005-0.605-6.213-0.616
			c-2.208-0.015-8.241,3.723-13.198,2.878c1.634,1.007,6.243,0.627,7.612,0.25c1.367-0.377,4.357-1.381,6.067-1.008
			c1.71,0.381,5.229,1.342,6.36,1.177c1.13-0.169,5.026-0.546,5.026-0.546L76.276,133.428z"/>
	</g>
</g>
<g>
</g>
<g>
</g>
<g>
</g>
<g>
</g>
<g>
</g>
<g>
</g>
</svg>
