<?xml version="1.0" encoding="utf-8"?>
<!-- Generator: Adobe Illustrator 16.0.0, SVG Export Plug-In . SVG Version: 6.00 Build 0)  -->
<!DOCTYPE svg PUBLIC "-//W3C//DTD SVG 1.1//EN" "http://www.w3.org/Graphics/SVG/1.1/DTD/svg11.dtd">
<svg version="1.1" id="Calque_1" xmlns="http://www.w3.org/2000/svg" xmlns:xlink="http://www.w3.org/1999/xlink" x="0px" y="0px"
	 width="250px" height="250px" viewBox="0 0 250 250" enable-background="new 0 0 250 250" xml:space="preserve">
<g>
	<path fill="#764F9A" d="M19.903,131.021c0,0,9.344,7.198,17.821,12.024c5.413,3.072,18.394,5.844,20.694,10.661
		c3.247,6.822-0.725,14.247-3.769,14.645c-3.042,0.398-11.333,3.616-21.558-3.946c-10.231-7.567-21.378-26.429-23.095-27.955
		c-2.045-1.829-1.536-3.624-1.536-3.624s-2.423-1.857-3.292-3.595c-0.603-1.207-1.553-3.621,1.083-2.242
		c2.636,1.372,5.14,1.188,6.225,1.405C13.779,128.658,15.432,128.521,19.903,131.021z"/>
	<path fill="#ED8200" d="M137.775,115.302c0,0,2.23-3.131,10.011-11.605c7.454-8.125,19.724-31.953,23.424-51.433
		c1.668-8.757,1.333-11.539,0.938-13.355c-0.391-1.81-3.454,1.638-5.647,4.243c-2.2,2.611-16.903,29.783-22.94,38.781
		c-6.024,8.987-19.743,21.949-14.279,29.166c-0.094,0.18,0.104,2.987,1.553,3.705C132.28,115.518,137.038,118.553,137.775,115.302z"
		/>
	<path fill="#A7C712" d="M174.783,134.407c0,0,19.805-11.159,24.807-15.914c5.007-4.751,21.58-29.706,22.174-31.303
		c0,0-0.11-2.079-0.888-1.997c-0.78,0.075-22.504,26.548-25.262,28.799c-2.762,2.238-20.91,15.252-21.909,17.985
		c-1.001,2.732-0.158,3.014-1.236,6.357C172.469,138.336,172.799,136.7,174.783,134.407z"/>
	<path fill="#F0E300" d="M86.186,29.037c0,0-2.178,0.674-2.27,0.337c1.183,3.974,1.059,11.386,0.936,11.568
		c-3.397,4.889-7.879,33.682-7.302,45.147c0.582,11.466,11.955,15.064,13.924,18.1c1.971,3.038,2.984,4.821,3.129,4.802
		c0.261-2.393,0.109-3.936,1.152-5.659c1.035-1.721,1.385-1.158,7.295-6.152c5.911-5,0.359-36.676-0.651-43.574
		c-1.01-6.903-5.264-12.46-5.264-12.46c-1.625-2.498-0.358-10.529-0.358-10.529l-1.383-1.432l-4.084-1.313L86.186,29.037z"/>
	<path fill="#C3171B" d="M191.423,154.93c0.504-0.384,2.72-2.847,10.367-5.496c7.646-2.639,28.824-9.288,32.969-9.762
		c4.146-0.47,10.519-1.023,10.636-0.352c0.114,0.677,1.078,1.005,0.563,1.542c-0.508,0.528-22.433,12.444-29.29,15.95
		c-6.869,3.499-17.085,10.003-21.472,8.398c-4.394-1.601-5.791-1.663-5.791-1.663s-7.903-0.366-9.879-0.076
		c-1.979,0.291-2.197-1.036-2.197-1.036s7.775-1.549,10.67-2.104C188.019,160.377,190.006,156.02,191.423,154.93z"/>
	<path fill="#B17F49" d="M83.718,116.129c0,0,7.834-9.903,22.527-5.752c16.694,4.707,59.412,22.931,70.3,41.708
		c10.892,18.781-4.067,46.541-35.734,52.282c-31.667,5.741-80.451-1.609-80.47-18.908C60.315,168.163,74.412,122.489,83.718,116.129
		z"/>
	<g>
		<g>
			<path fill="#FFFFFF" d="M77.87,143.375h0.646l-0.024,5.817l2.475,0.002l-0.001,0.621l-3.118-0.012L77.87,143.375z"/>
			<path fill="#FFFFFF" d="M82.011,143.39l3.683,0.017v0.627l-3.037-0.009l-0.016,2.015l3.02,0.014v0.627l-3.02-0.013l-0.01,2.525
				l3.014,0.012l-0.003,0.632l-3.655-0.015L82.011,143.39z"/>
			<path fill="#FFFFFF" d="M86.122,148.64l0.542-0.326c0.387,0.709,0.825,1.065,1.328,1.068c0.219,0,0.421-0.05,0.613-0.145
				c0.19-0.103,0.335-0.238,0.432-0.409c0.098-0.166,0.155-0.348,0.154-0.534c0.001-0.216-0.069-0.427-0.216-0.636
				c-0.2-0.284-0.563-0.632-1.102-1.032c-0.53-0.409-0.862-0.701-0.992-0.883c-0.228-0.309-0.34-0.638-0.34-0.989
				c0-0.28,0.069-0.528,0.204-0.759c0.136-0.232,0.323-0.412,0.572-0.544c0.24-0.131,0.504-0.2,0.794-0.2
				c0.302,0,0.583,0.083,0.848,0.235c0.261,0.149,0.537,0.428,0.832,0.828l-0.526,0.391c-0.239-0.314-0.446-0.524-0.615-0.629
				c-0.176-0.104-0.354-0.155-0.558-0.155c-0.257-0.005-0.475,0.076-0.637,0.231c-0.163,0.152-0.244,0.349-0.244,0.58
				c0,0.139,0.024,0.28,0.081,0.408c0.055,0.135,0.169,0.27,0.316,0.428c0.086,0.08,0.366,0.294,0.828,0.645
				c0.556,0.416,0.939,0.782,1.145,1.107c0.2,0.321,0.309,0.636,0.304,0.962c-0.003,0.468-0.179,0.874-0.534,1.214
				c-0.359,0.34-0.789,0.512-1.299,0.512c-0.387-0.004-0.742-0.107-1.055-0.318C86.678,149.479,86.388,149.13,86.122,148.64z"/>
		</g>
		<path fill="#FFFFFF" d="M92.768,138.401l1.812,0.014l-0.054,12.249c-0.003,1.884-0.155,3.196-0.451,3.931
			c-0.295,0.735-0.784,1.323-1.474,1.758c-0.68,0.439-1.508,0.656-2.483,0.649c-0.732,0-1.449-0.148-2.163-0.432
			c-0.706-0.29-1.494-0.793-2.354-1.513l0.969-1.44c0.946,0.677,1.734,1.144,2.354,1.418c0.413,0.185,0.818,0.278,1.217,0.278
			c0.512,0,0.985-0.148,1.42-0.462c0.415-0.312,0.72-0.733,0.884-1.245c0.178-0.517,0.263-1.521,0.268-3.012L92.768,138.401z"/>
		<path fill="#FFFFFF" d="M102.697,138.446l5.757,12.473l-1.346-0.007l-1.939-4.1l-5.364-0.027l-1.96,4.086h-1.385l5.935-12.429
			L102.697,138.446z M102.533,141.085l-2.155,4.499l4.259,0.018L102.533,141.085z"/>
		<path fill="#FFFFFF" d="M110.502,138.476l2.48,0.009c1.38,0.01,2.321,0.061,2.809,0.18c0.739,0.176,1.34,0.538,1.799,1.098
			c0.459,0.56,0.688,1.244,0.688,2.06c-0.003,0.675-0.169,1.277-0.489,1.787c-0.318,0.51-0.779,0.9-1.37,1.155
			c-0.59,0.27-1.411,0.396-2.459,0.396l4.459,5.796h-1.542l-4.456-5.803l-0.701-0.002l-0.022,5.782l-1.246-0.007L110.502,138.476z
			 M111.743,139.696l-0.018,4.235l2.145,0.027c0.829,0,1.442-0.076,1.848-0.231c0.394-0.153,0.705-0.407,0.933-0.756
			c0.221-0.343,0.339-0.732,0.344-1.157c0-0.424-0.112-0.802-0.337-1.144c-0.226-0.339-0.521-0.591-0.886-0.732
			c-0.37-0.154-0.981-0.225-1.833-0.229L111.743,139.696z"/>
		<path fill="#FFFFFF" d="M120.908,150.971l0.043-12.45l2.587,0.007c1.86,0.009,3.212,0.162,4.047,0.465
			c1.205,0.428,2.151,1.165,2.823,2.21c0.678,1.045,1.018,2.294,1.013,3.739c-0.006,1.247-0.282,2.348-0.829,3.291
			c-0.536,0.944-1.24,1.646-2.107,2.089c-0.858,0.449-2.063,0.671-3.615,0.664L120.908,150.971z M122.107,149.795l1.432,0.009
			c1.729,0.007,2.917-0.097,3.587-0.304c0.938-0.306,1.676-0.851,2.218-1.638c0.541-0.791,0.807-1.76,0.815-2.901
			c0.002-1.202-0.285-2.231-0.86-3.083c-0.578-0.854-1.387-1.444-2.423-1.764c-0.777-0.238-2.061-0.362-3.855-0.366l-0.875-0.005
			L122.107,149.795z"/>
		<path fill="#FFFFFF" d="M133.681,138.568l1.242,0.009l-0.052,12.451l-1.242-0.006L133.681,138.568z"/>
		<path fill="#FFFFFF" d="M137.736,151.037l0.052-12.451h0.268l8.249,9.582l0.038-9.546l1.229,0.009l-0.049,12.447h-0.285
			l-8.18-9.463l-0.038,9.432L137.736,151.037z"/>
		<path fill="#FFFFFF" d="M149.271,148.764l1.065-0.628c0.737,1.371,1.593,2.062,2.572,2.065c0.418,0,0.807-0.09,1.178-0.285
			c0.364-0.193,0.649-0.454,0.838-0.779c0.193-0.331,0.29-0.677,0.293-1.043c0-0.42-0.14-0.822-0.412-1.229
			c-0.395-0.551-1.101-1.22-2.128-2.002c-1.04-0.789-1.686-1.359-1.933-1.712c-0.436-0.587-0.656-1.221-0.651-1.904
			c0-0.536,0.133-1.035,0.391-1.484c0.266-0.443,0.628-0.794,1.104-1.043c0.472-0.263,0.986-0.383,1.54-0.383
			c0.588,0.003,1.126,0.148,1.643,0.443c0.51,0.294,1.045,0.827,1.618,1.615l-1.027,0.763c-0.465-0.627-0.856-1.036-1.191-1.232
			c-0.326-0.2-0.688-0.299-1.076-0.303c-0.497-0.003-0.915,0.148-1.229,0.447c-0.323,0.312-0.483,0.681-0.483,1.133
			c0,0.263,0.053,0.527,0.165,0.784c0.109,0.253,0.312,0.532,0.611,0.833c0.164,0.159,0.7,0.577,1.602,1.25
			c1.081,0.797,1.818,1.508,2.212,2.132c0.397,0.621,0.593,1.254,0.593,1.875c-0.005,0.903-0.351,1.686-1.036,2.35
			c-0.688,0.663-1.521,0.992-2.512,0.991c-0.753-0.004-1.432-0.215-2.048-0.615C150.356,150.391,149.79,149.717,149.271,148.764z"/>
		<g>
			<path fill="#FFFFFF" d="M77.377,172.279l0.035-7.9l1.637,0.007c1.182,0.009,2.038,0.101,2.572,0.295
				c0.765,0.275,1.361,0.736,1.788,1.408c0.43,0.658,0.644,1.452,0.639,2.362c0,0.797-0.176,1.496-0.518,2.089
				c-0.344,0.604-0.79,1.043-1.342,1.329c-0.544,0.28-1.312,0.422-2.295,0.42L77.377,172.279z M78.136,171.534l0.914,0.006
				c1.093,0.005,1.854-0.061,2.275-0.195c0.603-0.19,1.062-0.537,1.404-1.036c0.346-0.5,0.515-1.116,0.518-1.842
				c0.004-0.765-0.178-1.418-0.545-1.955c-0.363-0.546-0.874-0.919-1.536-1.119c-0.494-0.15-1.307-0.234-2.44-0.234l-0.56-0.002
				L78.136,171.534z"/>
			<path fill="#FFFFFF" d="M85.602,164.415l4.525,0.014v0.774l-3.739-0.015l-0.016,2.478l3.711,0.016v0.77l-3.717-0.016
				l-0.008,3.104l3.709,0.014l-0.007,0.773l-4.492-0.016L85.602,164.415z"/>
		</g>
		<g>
			<path fill="#FFFFFF" d="M92.447,169.968l1.508-0.891c1.042,1.946,2.263,2.924,3.645,2.927c0.589,0,1.146-0.133,1.668-0.409
				c0.52-0.272,0.917-0.641,1.183-1.097c0.278-0.466,0.417-0.955,0.417-1.477c0-0.589-0.193-1.169-0.592-1.739
				c-0.544-0.784-1.551-1.73-3.005-2.841c-1.468-1.116-2.38-1.921-2.734-2.422c-0.624-0.827-0.929-1.732-0.921-2.699
				c0-0.76,0.185-1.465,0.563-2.09c0.363-0.629,0.881-1.126,1.549-1.482c0.67-0.364,1.396-0.542,2.182-0.542
				c0.822,0.004,1.603,0.211,2.321,0.632c0.725,0.408,1.483,1.171,2.29,2.275l-1.438,1.086c-0.665-0.881-1.228-1.465-1.691-1.751
				c-0.47-0.28-0.978-0.418-1.527-0.422c-0.712-0.003-1.294,0.214-1.748,0.639c-0.456,0.434-0.679,0.963-0.684,1.593
				c-0.001,0.384,0.078,0.757,0.237,1.112c0.161,0.368,0.451,0.757,0.869,1.184c0.228,0.221,0.986,0.812,2.266,1.77
				c1.527,1.13,2.563,2.139,3.129,3.02c0.565,0.881,0.843,1.765,0.838,2.654c-0.005,1.276-0.491,2.386-1.465,3.321
				c-0.976,0.938-2.159,1.402-3.547,1.399c-1.069-0.004-2.042-0.296-2.909-0.871C93.979,172.279,93.183,171.313,92.447,169.968z"/>
			<path fill="#FFFFFF" d="M113.756,155.716l8.145,17.653l-1.9-0.002l-2.75-5.809l-7.592-0.031l-2.771,5.784l-1.965-0.007
				l8.401-17.589H113.756z M113.516,159.458l-3.048,6.37l6.028,0.024L113.516,159.458z"/>
			<path fill="#FFFFFF" d="M124.454,155.757l1.759,0.011l-0.071,17.625l-1.758-0.01L124.454,155.757z"/>
			<path fill="#FFFFFF" d="M130.195,173.41l0.072-17.631l0.384,0.005l11.67,13.559l0.061-13.508l1.73,0.003l-0.072,17.628
				l-0.392-0.008l-11.581-13.389l-0.05,13.341H130.195z"/>
			<path fill="#FFFFFF" d="M146.648,157.583l0.008-1.739l9.655,0.043l-0.007,1.727l-3.926-0.014l-0.071,15.9l-1.794-0.009
				l0.065-15.898L146.648,157.583z"/>
		</g>
		<g>
			<path fill="#FFFFFF" d="M76.911,190.181l1.479-0.879c1.028,1.915,2.223,2.874,3.584,2.876c0.582,0.008,1.127-0.13,1.639-0.397
				c0.511-0.267,0.902-0.629,1.166-1.085c0.271-0.452,0.409-0.937,0.413-1.449c0-0.584-0.191-1.151-0.585-1.711
				c-0.534-0.771-1.527-1.705-2.962-2.797c-1.438-1.093-2.333-1.891-2.682-2.376c-0.611-0.821-0.917-1.709-0.91-2.658
				c0.003-0.757,0.185-1.442,0.547-2.059c0.364-0.622,0.875-1.114,1.534-1.465c0.66-0.351,1.371-0.53,2.144-0.527
				c0.815,0,1.58,0.211,2.287,0.615c0.707,0.413,1.461,1.155,2.249,2.243l-1.415,1.067c-0.651-0.866-1.206-1.438-1.663-1.715
				c-0.461-0.278-0.958-0.416-1.502-0.42c-0.701-0.003-1.27,0.215-1.72,0.629c-0.446,0.431-0.665,0.945-0.668,1.568
				c-0.005,0.373,0.072,0.743,0.228,1.095c0.161,0.357,0.44,0.739,0.856,1.156c0.228,0.223,0.974,0.805,2.233,1.746
				c1.499,1.113,2.525,2.105,3.078,2.969c0.556,0.868,0.827,1.739,0.827,2.613c-0.005,1.254-0.487,2.354-1.449,3.271
				c-0.954,0.919-2.114,1.382-3.491,1.372c-1.047-0.002-2.007-0.287-2.86-0.85C78.414,192.445,77.625,191.502,76.911,190.181z"/>
			<path fill="#FFFFFF" d="M90.794,176.127l9.941,0.041l-0.003,1.696l-8.212-0.032l-0.018,5.437l8.133,0.031l-0.01,1.696
				l-8.131-0.033l-0.031,6.812l8.133,0.035l-0.004,1.692l-9.869-0.038L90.794,176.127z"/>
			<path fill="#FFFFFF" d="M103.822,176.177l3.454,0.018c1.928,0.009,3.231,0.088,3.911,0.247c1.031,0.243,1.865,0.751,2.508,1.528
				c0.641,0.782,0.958,1.734,0.95,2.863c0,0.95-0.226,1.777-0.672,2.491c-0.447,0.717-1.081,1.252-1.912,1.614
				c-0.827,0.364-1.963,0.546-3.421,0.552l6.204,8.075l-2.142-0.01l-6.206-8.074l-0.981-0.006l-0.036,8.053l-1.729-0.011
				L103.822,176.177z M105.547,177.88l-0.021,5.896l2.984,0.034c1.159,0.008,2.012-0.1,2.567-0.321
				c0.56-0.212,0.997-0.566,1.309-1.045c0.314-0.481,0.472-1.022,0.472-1.621c0-0.58-0.149-1.105-0.463-1.584
				c-0.318-0.479-0.729-0.824-1.244-1.026c-0.504-0.205-1.359-0.312-2.549-0.315L105.547,177.88z"/>
			<path fill="#FFFFFF" d="M118.319,193.576l0.076-17.341l0.375,0.006l11.486,13.339l0.057-13.298l1.708,0.005l-0.068,17.348h-0.391
				l-11.399-13.182l-0.048,13.134L118.319,193.576z"/>
			<path fill="#FFFFFF" d="M135.995,176.309l1.732,0.007l-0.071,17.34l-1.735-0.007L135.995,176.309z"/>
			<path fill="#FFFFFF" d="M141.643,193.673l0.069-17.342h0.376l11.484,13.344l0.055-13.292l1.716,0.001l-0.073,17.346h-0.387
				l-11.397-13.176l-0.055,13.126L141.643,193.673z"/>
		</g>
	</g>
</g>
</svg>
