<?xml version="1.0" encoding="utf-8"?>
<!-- Generator: Adobe Illustrator 16.0.0, SVG Export Plug-In . SVG Version: 6.00 Build 0)  -->
<!DOCTYPE svg PUBLIC "-//W3C//DTD SVG 1.1//EN" "http://www.w3.org/Graphics/SVG/1.1/DTD/svg11.dtd">
<svg version="1.1" id="Calque_1" xmlns="http://www.w3.org/2000/svg" xmlns:xlink="http://www.w3.org/1999/xlink" x="0px" y="0px"
	 width="144px" height="215px" viewBox="0 0 144 215" enable-background="new 0 0 144 215" xml:space="preserve">
<rect fill="#DEA36C" width="143.809" height="215"/>
<g>
	<path fill="#FFFFFF" d="M30.282,70.275c0,0,9.348-6.75,15.062-9.347c5.712-2.594,17.657-8.569,34.795,0
		c17.136,8.569,15.837,13.243,17.913,14.8c2.079,1.558,7.271-2.336,7.53-3.635c0.261-1.299-4.413-6.491-8.048-9.086
		c-3.636-2.598-17.139-11.165-28.302-11.165c-11.167,0-24.406,4.153-32.196,9.347c-7.79,5.192-8.829,8.309-8.829,8.309
		S28.122,71.799,30.282,70.275z"/>
	<path fill="#FFFFFF" d="M13.536,70.537c0.681,1.019,0.521,3.322,0,5.557c-0.519,2.232-0.158,3.791,0.44,4.828
		c0.601,1.039,5.143,2.208,5.534,3.246c0.388,1.04-0.259,3.375-1.817,3.507c-1.559,0.128-7.271-1.17-8.179-2.597
		c-0.91-1.429-0.91-12.722,0-14.542C10.422,68.719,12.24,68.59,13.536,70.537z"/>
	<path fill="#FFFFFF" d="M24.962,77.807c1.442,0.158,5.32,1.038,6.101,1.688c0.78,0.648,0.908,2.334,0,2.856
		c-0.909,0.52-4.934-0.907-5.583-0.779c-0.647,0.129-1.559,1.038-0.518,1.426c1.036,0.392,4.672,1.56,4.672,2.468
		c0,1.688-1.759,0.806-2.984,0.911c-1.558,0.128-2.987-0.911-3.118-0.389c-0.128,0.517,1.818,1.426,3.118,2.336
		c1.296,0.908,3.269,2.152,2.596,3.043c-1.039,1.367-3.913,0.092-5.72-0.449c-3.909-1.168-3.371-1.946-2.591-5.193
		C21.716,82.48,22.559,77.546,24.962,77.807z"/>
	<path fill="#FFFFFF" d="M42.878,83.52c-0.13,1.038-0.519,2.278-1.949,1.949c-1.427-0.332-2.727-1.273-4.023-1.222
		c-1.298,0.051-0.649,0.832,0,1.353c0.648,0.517,3.895,2.206,4.672,3.503c0.781,1.298,1.431,3.765-0.389,4.804
		c-1.819,1.041-3.505,2.208-5.582,1.3c-2.075-0.91-3.925-2.988-3.911-4.546c0.016-1.558,0.925-1.621,1.703-1.137
		c0.78,0.487,1.56,2.347,2.597,2.457c1.039,0.109,4.155,0.109,2.986-1.449c-1.169-1.557-3.245-1.54-4.285-2.846
		c-1.038-1.308-1.557-4.813,0.13-6.112c1.688-1.297,3.433-2.666,6.361-0.778C43.206,82.093,42.878,83.52,42.878,83.52z"/>
	<path fill="#FFFFFF" d="M53.913,80.533c0,0-5.454-0.909-7.013,0c-1.556,0.91-2.464,3.375,0,3.767
		c2.468,0.389,4.677,0.588,4.677,0.588s-0.391,4.474-0.648,6.551c-0.262,2.078-0.651,6.102-1.821,7.012
		c-1.167,0.908-3.764,1.039-4.802,0c-1.04-1.038-2.856-1.818-3.896-0.649c-1.039,1.167-0.67,5.4,2.487,6.621
		c3.357,1.298,8.68,0.649,9.976-1.168c1.301-1.817,2.469-5.453,2.598-9.996c0.13-4.546,0.52-8.37,0.52-8.37s4.153,0.717,4.935,0
		c0.777-0.72,2.333-3.187,0-3.575C58.587,80.924,53.913,80.533,53.913,80.533z"/>
	<path fill="#FFFFFF" d="M70.792,93.256c-0.132-1.298-0.65-8.568-0.65-9.478c0-0.908-0.393-3.747-2.599-3.649
		c-2.596,0.113-3.244,1.832-3.244,1.832l-2.922,7.27c-0.842,2.079-3.959,10.777-5.257,12.594c-1.298,1.816-0.909,3.765,0,4.155
		c0.908,0.388,2.986-1.298,3.636-2.729c0.647-1.427,2.401-6.36,2.401-6.36l5.387-0.258c0,0-0.129,7.268,0,8.469
		c0.132,1.201,0.52,2.695,2.145,2.826c1.622,0.128,2.14-2.467,2.14-4.025C71.829,102.347,70.919,94.553,70.792,93.256z M63,92.617
		c0,0.121,1.948-6.102,3.244-7.729c0,0,1.169,5.92,1.429,7.729C67.676,92.737,65.077,92.236,63,92.617z"/>
	<path fill="#FFFFFF" d="M85.46,100.268c-0.908-1.687-3.245-6.232-3.115-6.24c6.619-3.122,5.84-7.391,4.802-9.988
		c-1.038-2.596-5.451-3.765-7.918-3.913c-2.467-0.147-3.508,1.187-3.508,1.187c-2.726-2.467-2.019,11.683-2.147,15.319
		c-0.131,3.635-0.838,10.125,0.723,10.487c1.558,0.357,3.244-1.01,3.894-2.829c0.648-1.817-0.26-10.256-0.13-10.264
		c1.038,1.294,3.895,10.913,5.453,12.211c1.559,1.298,3.243,1.039,4.323,0C88.916,105.199,86.369,101.955,85.46,100.268z
		 M77.671,88.712V84.3c0,0,2.147-0.46,4.283,0c2.138,0.459,2.283,3.506,1.059,4.412C81.794,89.622,77.671,88.712,77.671,88.712z"/>
	<path fill="#FFFFFF" d="M101.168,87.154c-2.208-4.024-5.711-7.309-11.294-7.29l-0.91,22.999c0,0,5.716,1.427,8.829-1.558
		C100.909,98.319,103.376,91.178,101.168,87.154z M93.379,98.579V85.595c0.909,0,4.025,1.041,4.284,6.492
		C97.921,97.539,93.379,98.579,93.379,98.579z"/>
	<path fill="#FFFFFF" d="M107.398,79.866c0,0-1.168-2.318-2.596-0.762s-1.946,17.916-1.946,20.124c0,2.207,2.403,3.633,3.506,1.428
		C107.466,98.448,107.919,86.34,107.398,79.866z"/>
	<path fill="#FFFFFF" d="M118.695,75.079c0,0,1.43,0.094,1.301,3.487c-0.132,3.393,0.276,17.284,0.007,18.973
		c-0.271,1.688-2.421,3.038-3.516,2.337c-1.816-1.17-2.854-9.998-3.634-13.373c0,2.468-0.518,8.438-1.036,10.906
		c-0.522,2.467-0.651,4.542-2.082,4.349c-1.427-0.194-2.943,0.713-2.121-4.479c0.823-5.191,1.214-16.267,1.995-18.713
		c0.777-2.449,2.939-2.06,4.129-0.5c1.191,1.557,2.749,8.776,3.27,10.361C117.008,86.765,115.32,74.948,118.695,75.079z"/>
	<path fill="#FFFFFF" d="M136.436,78.566c0,0,0.146-4.005-3.332-6.211c-3.193-2.029-6.618-2.467-8.566,0
		c-1.704,2.158-2.986,7.009-0.777,9.865c2.205,2.856,5.595,5.485,6.359,7.011c1.429,2.856,1.168,6.879-2.079,6.23
		c-3.244-0.649-0.778-3.927-3.634-3.927c-1.467,0-1.685,5.042-0.778,6.652c1.24,2.209,6.491,4.154,9.216,1.167
		c2.728-2.985,3.591-6.739,1.171-10.93c-1.835-3.179-4.629-6.03-5.975-7.633c-0.778-0.928-2.967-3.73,0.392-4.7
		c3.505-1.015,2.727,3.79,4.805,4.569C135.313,81.442,136.289,80.26,136.436,78.566z"/>
	<path fill="#FFFFFF" d="M20.385,93.645c-3.487-3.865-7.627-2.49-10.353-2.11c0,0,0.518,11.136,1.167,13.567
		c0.649,2.434,1.765,2.835,3.026,2.83c1.259-0.009,7.879-0.33,8.787-2.83C23.924,102.605,23.445,97.041,20.385,93.645z
		 M14.226,104.419l-1.468-9.476c2.076-0.916,5.713,0.258,6.861,5.972C20.768,106.628,14.226,104.419,14.226,104.419z"/>
	<path fill="#FFFFFF" d="M36.257,96.762c0,0-2.626-1.102-4.561-1.231c-1.93-0.13-4.576-0.779-5.655,0
		c-1.08,0.78-1.072,3.697-1.072,5.645c0,1.948-0.148,7.791,0.117,8.309c0.265,0.52,2.342,0.65,3.899,0.779
		c1.559,0.13,4.155,0.13,5.97-0.391c1.819-0.518,1.95-2.559-0.259-2.694c-2.206-0.138-6.1,0.488-6.489-0.55
		c-0.39-1.038-1.041-2.078,0-2.078c1.039,0,5.192,0.649,6.361,0c1.167-0.649,0.388-2.843-0.52-2.792
		c-0.907,0.052-4.076-0.213-5.841-0.583c-1.352-0.28-0.909-2.985,1.039-2.985c1.947,0,3.634,0.49,5.062,0.519
		C35.738,98.737,38.576,97.969,36.257,96.762z"/>
	<path fill="#FFFFFF" d="M56.898,112.861c0,0-1.241-3.571-3.377-5.682c-2.496-2.472-5.97-1.72-8.307-0.551
		c-2.336,1.168-3.376,4.415-4.024,6.233c-0.647,1.817,0.539,6.042,4.934,8.307c2.312,1.193,6.101,1.817,6.23,4.415
		c0.157,3.177-3.505,3.895-6.101,3.375c-2.598-0.52-5.324-2.467-6.364-3.764c-1.037-1.301-4.279-0.388-2.592,1.556
		c1.686,1.947,4.801,5.58,10.515,5.58c5.709,0,7.658-3.113,8.178-5.318c0.516-2.205-1.039-5.713-4.026-7.013
		c-2.984-1.297-8.048-4.411-6.621-7.529c1.429-3.114,5.527-2.783,6.491-1.428c0.566,0.792,1.326,2.324,1.949,3.371
		C54.54,115.69,57.417,116.365,56.898,112.861z"/>
	<path fill="#FFFFFF" d="M76.503,129.867c-0.13-1.817-3.954-17.431-5.194-19.531c-1.947-3.304-5.841-2.28-7.01,0
		c-1.168,2.278-5.148,15.326-6.019,17.973c-1.32,4.021,0.954,4.934,2.512,4.021c1.558-0.906,2.727-6.619,2.765-6.49
		c1.334,0.389,6.972,0,6.972,0c0.521,1.818,1.669,8.566,3.375,8.569C76.513,134.419,76.632,131.683,76.503,129.867z M64.299,122.076
		c0,0,2.189-5.584,2.912-8.051c-0.057,0,1.5,4.287,2.408,8.051H64.299z"/>
	<path fill="#FFFFFF" d="M81.304,110.336c0,0-2.597-0.721-2.855,2.267c-0.259,2.985-1.167,18.433,0,20.25
		c1.17,1.818,2.337,1.04,2.855-0.522c0.52-1.555,1.23-17.352,1.3-19.211C82.682,111.042,81.304,110.336,81.304,110.336z"/>
	<path fill="#FFFFFF" d="M97.937,108.715c0,0,0.634,0.639,0.634,3.627c0,2.983,0.91,7.266,0.91,10.382c0,4.281,0,10.776-2.727,9.088
		c-2.726-1.689-7.79-15.71-7.79-15.71c-0.519,0.519-0.953,6.363-0.865,9.736c0.086,3.379,0.605,6.494-1.211,6.492
		c-1.816,0-2.596-0.908-2.596-3.766c0-2.855,0.13-14.672,0.908-16.097c0.779-1.427,2.077-3.769,3.764-2.86
		c1.689,0.914,4.935,9.458,5.972,11.17c0.261-1.795-1.037-10.745-0.26-11.945C95.457,107.632,97.276,107.187,97.937,108.715z"/>
	<path fill="#FFFFFF" d="M114.408,112.469c0,0,2.729,0,6.623-1.041c4.015-1.068,6.621-3.496,2.986-4.249
		c-4.707-0.981-14.801,0.632-17.268,0.754c-2.468,0.119-9.604,2.2-4.736,4.536c0.063,0.129,4.217,0.259,7.075,0
		c-0.131-0.132,0.779,13.371,0.907,15.32c0.131,1.945,4.675,2.985,4.545,0C114.408,124.799,113.889,114.155,114.408,112.469z"/>
	<path fill="#FFFFFF" d="M126.873,114.285c-1.822,0.062-4.16,1.688-4.288,2.595c-0.125,0.908,1.135,2.423,3.166,2.056
		c2.031-0.366,5.275-1.243,5.797-2.3C132.066,115.584,130.64,114.153,126.873,114.285z"/>
	<path fill="#FFFFFF" d="M36.001,130.903c0,0-0.137-1.046-1.042-2.858c-1.041-2.076-3.925-4.542-7.792-3.633
		c-2.554,0.601-4.022,2.302-3.114,3.94c0.91,1.64,5.96,6.446,5.836,8.006c-0.124,1.558-0.255,3.503-2.201,3.633
		c-1.948,0.131-3.662-2.597-3.911-4.415c-0.245-1.818-1.672-6.492-2.841-5.062c-1.167,1.428,0,8.959,3.245,11.296
		c3.244,2.336,5.683,1.817,7.515,1.168c1.833-0.649,3.26-3.636,2.742-5.192c-0.52-1.56-3.764-5.714-5.191-7.532
		c-1.431-1.817,0.976-2.987,1.787-1.688c0.809,1.297,1.197,2.6,2.757,3.246C35.349,132.457,36.001,130.903,36.001,130.903z"/>
	<path fill="#FFFFFF" d="M51.315,136.616c0,0-8.567-0.391-10.906,0c-2.335,0.388-2.782,0.778-3.272,2.205
		c-0.492,1.427-2.05,7.528-2.05,8.569c0,1.04-0.769,2.986,0.914,4.021c1.683,1.039,9.85,3.247,12.069,2.856
		c2.218-0.39,2.595-2.336,0.257-3.114c-2.335-0.777-5.968-0.908-7.399-1.818c-1.427-0.909-2.204-2.465-1.037-2.595
		c1.169-0.128,3.762-0.219,5.194-0.128c4.154,0.255,5.97-2.208,2.855-2.471c-3.115-0.257-5.062-0.455-6.231-0.616
		c-1.167-0.16-1.167-2.496-0.78-3.404c0.389-0.914,4.391-0.391,5.96-0.261c1.569,0.129,4.102-0.39,4.133-0.39
		C51.053,139.472,54.299,138.042,51.315,136.616z"/>
	<path fill="#FFFFFF" d="M69.619,146.349c2.858-1.427,5.585-5.583,3.378-8.827c-1.507-2.212-5.787-2.893-8.45-3.112
		c-2.484-0.205-6.872,1.295-8.297,3.112l-0.13,0.521c0,0-2.206,13.243-2.078,15.448c0.132,2.206,1.292,5.19,2.921,4.284
		c1.625-0.908,1.256-10.01,2.404-9.784c2.206,0.436,4.415,4.682,5.192,6.324c0.778,1.644,2.201,5.794,3.766,5.796
		c2.856,0.002,3.114-2.726,1.945-4.284c-1.151-1.534-3.434-6.472-4.122-8.229C66.306,147.759,67.112,147.604,69.619,146.349z
		 M59.493,144.143c-0.387-0.39,0.782-5.902,0.782-5.902s4.024-0.068,6.936,0.059c2.911,0.132,2.151,5.228-0.446,5.844
		C65.354,144.478,60.924,144.143,59.493,144.143z"/>
	<path fill="#FFFFFF" d="M82.605,136.439c-1.267-1.215-4.542,0.302-4.737,1.731c-0.197,1.427-1.428,19.992-1.332,21.419
		c0.096,1.428,3.949,2.598,4.165,0c0.212-2.595,0.214-14.476,0.735-16.065c0.646-0.551,1.943,3.275,2.855,5.188
		c0.908,1.92,4.281,10.102,5.582,11.398s3.945,1.817,4.206,0c0.26-1.82,0.208-18.7-0.052-20.904
		c-0.257-2.207-0.648-4.152-2.143-4.024c-1.491,0.132-2.272,4.872-2.272,8.344c0,3.471,0,5.288,0,5.288
		S85.257,138.99,82.605,136.439z"/>
	<path fill="#FFFFFF" d="M100.355,136.439c0,0-2.691,0.433-2.562,3.028c0.128,2.598-0.139,11.943-0.003,14.151
		c0.131,2.206,1.561,4.411,3.119,3.114c1.559-1.298,2.077-9.478,1.815-12.462C102.468,141.284,103.044,137.308,100.355,136.439z"/>
	<path fill="#FFFFFF" d="M107.614,133.902c-1.142-0.121-2.465,2.059-2.376,5.306c0.085,3.244-0.394,13.632,2.376,13.632
		c1.994,0,1.472-11.295,1.344-12.724c0.131,0.782,4.028,8.116,6.103,8.116c3.114,0,3.762-3.571,3.762-7.206
		c0-3.638,1.167-9.994-1.557-10.255c-2.727-0.26-2.857,9.475-2.857,11.552c0,0.651-3.766-6.114-4.674-7.145
		C108.828,134.146,108.998,134.053,107.614,133.902z"/>
	<path fill="#FFFFFF" d="M37.137,122.082c-1.079-2.007-1.266-5.618-3.705-8.087c-1.736-1.758-8.449-2.822-12.938-0.682
		c-4.493,2.142-8.093,5.812-10.041,5.196c-0.096,1.037,1.852-0.672,3.603,0.426c1.752,1.097,6.438,4.405,10.873,4.211
		c4.217-0.184,7.821-1.946,8.503-2.627c0.975,0.681,1.947,4.708,3.457,5.568c1.511,0.858,2.307-1.371,2.307-1.371
		S38.288,124.219,37.137,122.082z M29.147,120.616c-2.433,0.584-5.841,1.468-8.079,0.591c-2.241-0.874-4.34-2.005-6.915-3.121
		c0,0,2.044-0.584,3.31-1.365c1.266-0.776,3.813-1.873,5.96-2.433c2.617-0.682,5.758-0.485,7.609,0.292
		c1.847,0.777,2.398,1.559,2.398,2.628C33.432,119.642,31.583,120.032,29.147,120.616z"/>
	<path fill="#FFFFFF" d="M33.123,116.051c0,0-2.124,0.479-3.486,0.479c-1.363,0-3.102-0.47-4.813-0.479
		c-1.71-0.012-6.385,2.885-10.224,2.229c1.265,0.779,4.836,0.486,5.896,0.195s3.376-1.071,4.701-0.782
		c1.325,0.295,4.052,1.04,4.928,0.912c0.876-0.13,3.893-0.421,3.893-0.421L33.123,116.051z"/>
</g>
<g>
</g>
<g>
</g>
<g>
</g>
<g>
</g>
<g>
</g>
<g>
</g>
</svg>
