<?xml version="1.0" encoding="utf-8"?>
<!-- Generator: Adobe Illustrator 16.0.0, SVG Export Plug-In . SVG Version: 6.00 Build 0)  -->
<!DOCTYPE svg PUBLIC "-//W3C//DTD SVG 1.1//EN" "http://www.w3.org/Graphics/SVG/1.1/DTD/svg11.dtd">
<svg version="1.1" id="Calque_1" xmlns="http://www.w3.org/2000/svg" xmlns:xlink="http://www.w3.org/1999/xlink" x="0px" y="0px"
	 width="240.939px" height="155.91px" viewBox="0 0 240.939 155.91" enable-background="new 0 0 240.939 155.91"
	 xml:space="preserve">
<g>
	<rect x="46.612" y="10.357" fill="none" width="153.91" height="30.666"/>
	<path fill="#1D3E7F" d="M65.724,18.467c0,2.145-1.712,3.089-4.608,3.089h-4.515v-0.272h1.345V10.64h-1.345v-0.288h3.891
		c2.513,0,4.192,0.672,4.192,2.689c0,1.553-0.977,2.241-2.562,2.481C64.411,15.714,65.724,16.595,65.724,18.467z M59.689,15.426
		h1.104c2.145,0,2.145-1.825,2.145-2.385c0-0.544,0.018-2.401-2.129-2.401h-1.12V15.426z M63.883,18.467
		c0-0.992-0.096-2.769-2.625-2.769H59.69v5.586h1.537C63.755,21.285,63.883,19.476,63.883,18.467z"/>
	<path fill="#1D3E7F" d="M70.266,21.269v0.288H66.36v-0.288h1.137V10.64H66.36v-0.288h2.77v10.917H70.266z"/>
	<path fill="#1D3E7F" d="M78.924,21.269v0.288h-2.77v-1.041c-0.336,0.592-0.991,1.201-2.225,1.201c-1.505,0-3.186-0.769-3.186-2.689
		c0-1.937,1.681-2.705,3.186-2.705c1.232,0,1.889,0.608,2.225,1.2v-0.08c0-1.697-0.111-3.153-1.855-3.153
		c-1.041,0-1.857,0.561-2.306,1.793h-0.288l0.688-1.921h1.009c0.208-0.064,0.641-0.16,0.992-0.16c2.226,0,3.441,0.705,3.395,3.042
		v4.226L78.924,21.269L78.924,21.269z M76.155,18.516c0-0.608-0.527-1.905-2.049-1.905c-1.297,0-1.825,1.216-1.825,2.417
		c0,1.184,0.528,2.401,1.825,2.401c1.521,0,2.049-1.297,2.049-1.905V18.516z"/>
	<path fill="#1D3E7F" d="M88.588,21.269v0.288h-3.922v-0.288h1.137v-4.882c0-0.896-0.062-2.097-1.232-2.097
		c-1.695,0-2.225,2.049-2.225,2.978v4.001h1.136v0.288h-3.921v-0.288h1.136V14.45h-1.136v-0.288h2.785v1.665
		c0.336-0.992,1.072-1.825,2.528-1.825c1.231,0,2.577,0.608,2.577,2.817v4.45H88.588z"/>
	<path fill="#1D3E7F" d="M98.188,21.269v0.288h-2.769V20.18c-0.384,0.768-1.152,1.537-2.434,1.537c-2.226,0-3.922-1.809-3.922-3.857
		c0-2.048,1.696-3.858,3.922-3.858c1.28,0,2.05,0.752,2.434,1.537V10.64h-1.137v-0.288h2.77v10.917H98.188z M95.419,16.659
		c0-0.913-0.736-2.369-2.434-2.369c-1.904,0-2.24,2.305-2.24,3.57c0,1.248,0.336,3.569,2.24,3.569c1.696,0,2.434-1.457,2.434-2.385
		V16.659z"/>
	<path fill="#1D3E7F" d="M102.905,21.269v0.288h-3.921v-0.288h1.137V14.45h-1.137v-0.288h2.785v7.107H102.905z M99.992,11.985
		c0-0.544,0.416-0.96,0.943-0.96c0.545,0,0.961,0.416,0.961,0.96c0,0.528-0.416,0.944-0.961,0.944
		C100.408,12.929,99.992,12.513,99.992,11.985z"/>
	<path fill="#1D3E7F" d="M112.571,21.269v0.288h-3.922v-0.288h1.138v-4.882c0-0.896-0.064-2.097-1.232-2.097
		c-1.696,0-2.225,2.049-2.225,2.978v4.001h1.136v0.288h-3.921v-0.288h1.136V14.45h-1.136v-0.288h2.785v1.665
		c0.336-0.992,1.071-1.825,2.527-1.825c1.232,0,2.577,0.608,2.577,2.817v4.45H112.571z"/>
	<path fill="#1D3E7F" d="M119.979,19.732h0.288c-0.191,0.448-1.185,1.985-3.297,1.985c-2.226,0-3.922-1.809-3.922-3.857
		c0-2.048,1.696-3.858,3.922-3.858c2.112,0,3.585,1.633,3.585,3.554h-5.826c0,0.112,0,0.208,0,0.304
		c0,1.248,0.336,3.569,2.241,3.569C118.955,21.429,119.835,20.084,119.979,19.732z M114.745,17.267h4.13
		c-0.097-1.281-0.48-2.978-1.904-2.978C115.321,14.29,114.857,15.986,114.745,17.267z"/>
	<path fill="#1D3E7F" d="M134.155,18.467c0,2.145-1.712,3.089-4.608,3.089h-4.514v-0.272h1.345V10.64h-1.345v-0.288h3.89
		c2.513,0,4.193,0.672,4.193,2.689c0,1.553-0.978,2.241-2.562,2.481C132.843,15.714,134.155,16.595,134.155,18.467z M128.121,15.426
		h1.104c2.146,0,2.146-1.825,2.146-2.385c0-0.544,0.017-2.401-2.129-2.401h-1.12V15.426L128.121,15.426z M132.314,18.467
		c0-0.992-0.096-2.769-2.625-2.769h-1.567v5.586h1.537C132.187,21.285,132.314,19.476,132.314,18.467z"/>
	<path fill="#1D3E7F" d="M141.723,19.732h0.288c-0.192,0.448-1.185,1.985-3.297,1.985c-2.227,0-3.922-1.809-3.922-3.857
		c0-2.048,1.695-3.858,3.922-3.858c2.112,0,3.585,1.633,3.585,3.554h-5.826c0,0.112,0,0.208,0,0.304
		c0,1.248,0.336,3.569,2.241,3.569C140.698,21.429,141.578,20.084,141.723,19.732z M136.488,17.267h4.131
		c-0.097-1.281-0.48-2.978-1.904-2.978C137.064,14.29,136.601,15.986,136.488,17.267z"/>
	<path fill="#1D3E7F" d="M149.818,16.083h-0.288c-0.465-1.232-0.863-1.809-1.904-1.809c-1.408,0-1.921,2.193-1.921,3.409v3.585
		h1.137v0.288h-3.905v-0.288h1.136v-6.835h-1.136v-0.272h2.593v2.353c0.225-1.329,0.864-2.513,2.209-2.513
		c0.288,0,0.513,0.048,0.801,0.16h0.705L149.818,16.083z"/>
	<path fill="#1D3E7F" d="M155.577,19.316c-0.098,0.608-0.386,2.401-1.985,2.401c-1.216,0-2.32-0.705-2.32-2.801v-4.482h-1.137
		v-0.272h1.137v-1.969h1.632v1.969h2.321v0.272h-2.321v4.082c0,1.264-0.176,2.913,0.961,2.913c1.058,0,1.426-1.489,1.488-2.113
		H155.577z"/>
	<path fill="#1D3E7F" d="M162.938,16.083h-0.288c-0.465-1.232-0.863-1.809-1.904-1.809c-1.408,0-1.921,2.193-1.921,3.409v3.585
		h1.137v0.288h-3.905v-0.288h1.136v-6.835h-1.136v-0.272h2.593v2.353c0.225-1.329,0.864-2.513,2.209-2.513
		c0.288,0,0.513,0.048,0.801,0.16h0.704L162.938,16.083z"/>
	<path fill="#1D3E7F" d="M171.273,21.269v0.288h-2.769v-1.041c-0.336,0.592-0.992,1.201-2.226,1.201
		c-1.505,0-3.186-0.769-3.186-2.689c0-1.937,1.681-2.705,3.186-2.705c1.232,0,1.89,0.608,2.226,1.2v-0.08
		c0-1.697-0.112-3.153-1.856-3.153c-1.041,0-1.856,0.561-2.306,1.793h-0.288l0.688-1.921h1.009c0.208-0.064,0.64-0.16,0.992-0.16
		c2.225,0,3.44,0.705,3.394,3.042v4.226L171.273,21.269L171.273,21.269z M168.505,18.516c0-0.608-0.528-1.905-2.049-1.905
		c-1.297,0-1.825,1.216-1.825,2.417c0,1.184,0.528,2.401,1.825,2.401c1.521,0,2.049-1.297,2.049-1.905V18.516z"/>
	<path fill="#1D3E7F" d="M180.938,21.269v0.288h-3.922v-0.288h1.137v-4.882c0-0.896-0.062-2.097-1.231-2.097
		c-1.696,0-2.226,2.049-2.226,2.978v4.001h1.137v0.288h-3.921v-0.288h1.136V14.45h-1.136v-0.288h2.784v1.665
		c0.337-0.992,1.072-1.825,2.528-1.825c1.232,0,2.577,0.608,2.577,2.817v4.45H180.938z"/>
	<path fill="#1D3E7F" d="M190.538,21.269v0.288h-2.77V20.18c-0.384,0.768-1.151,1.537-2.433,1.537c-2.227,0-3.922-1.809-3.922-3.857
		c0-2.048,1.695-3.858,3.922-3.858c1.28,0,2.049,0.752,2.433,1.537V10.64h-1.137v-0.288h2.77v10.917H190.538z M187.77,16.659
		c0-0.913-0.735-2.369-2.433-2.369c-1.905,0-2.241,2.305-2.241,3.57c0,1.248,0.336,3.569,2.241,3.569
		c1.696,0,2.433-1.457,2.433-2.385V16.659z"/>
</g>
<g>
	<rect x="45.146" y="37.773" fill="none" width="155.246" height="30.667"/>
	<path fill="#1D3E7F" d="M64.459,42.93c0,1.408-1.166,2.651-2.695,2.651c-0.891,0-1.419-0.528-1.672-1.056v0.946h-1.903v-0.198
		h0.781v-7.305h-0.781V37.77h1.903v3.564c0.253-0.539,0.781-1.056,1.672-1.056C63.293,40.279,64.459,41.522,64.459,42.93z
		 M63.304,42.93c0-0.869-0.229-2.453-1.54-2.453c-1.166,0-1.672,1.001-1.672,1.628v1.64c0,0.638,0.506,1.639,1.672,1.639
		C63.073,45.384,63.304,43.789,63.304,42.93z"/>
	<path fill="#1D3E7F" d="M67.474,45.273v0.198h-2.685v-0.198h0.78v-7.305h-0.78V37.77h1.902v7.503H67.474z"/>
	<path fill="#1D3E7F" d="M69.398,44.889c0,0.385-0.308,0.693-0.692,0.693c-0.374,0-0.683-0.308-0.683-0.693
		c0-0.385,0.309-0.693,0.683-0.693C69.091,44.195,69.398,44.503,69.398,44.889z"/>
	<path fill="#1D3E7F" d="M76.329,42.93c0,1.408-1.166,2.651-2.695,2.651c-0.891,0-1.419-0.528-1.672-1.056v0.946h-1.903v-0.198
		h0.781v-7.305h-0.781V37.77h1.903v3.564c0.253-0.539,0.781-1.056,1.672-1.056C75.163,40.279,76.329,41.522,76.329,42.93z
		 M75.174,42.93c0-0.869-0.23-2.453-1.54-2.453c-1.166,0-1.672,1.001-1.672,1.628v1.64c0,0.638,0.506,1.639,1.672,1.639
		C74.943,45.384,75.174,43.789,75.174,42.93z"/>
	<path fill="#1D3E7F" d="M81.642,44.217h0.198c-0.132,0.308-0.814,1.364-2.268,1.364c-1.528,0-2.694-1.243-2.694-2.651
		c0-1.408,1.166-2.651,2.694-2.651c1.452,0,2.466,1.122,2.466,2.442h-4.005c0,0.077,0,0.143,0,0.209c0,0.858,0.23,2.454,1.539,2.454
		C80.938,45.384,81.543,44.459,81.642,44.217z M78.044,42.523h2.839c-0.066-0.88-0.33-2.046-1.311-2.046
		C78.44,40.477,78.121,41.643,78.044,42.523z"/>
	<path fill="#1D3E7F" d="M87.208,41.709H87.01c-0.318-0.847-0.594-1.243-1.309-1.243c-0.97,0-1.32,1.507-1.32,2.343v2.464h0.781
		v0.198h-2.686v-0.198h0.781v-4.697h-0.781v-0.187h1.782v1.617c0.154-0.913,0.594-1.728,1.519-1.728c0.197,0,0.353,0.033,0.551,0.11
		h0.483L87.208,41.709z"/>
	<path fill="#1D3E7F" d="M91.168,43.932c-0.066,0.418-0.265,1.65-1.364,1.65c-0.836,0-1.595-0.484-1.595-1.925v-3.08h-0.781V40.39
		h0.781v-1.354h1.122v1.354h1.595v0.187h-1.595v2.805c0,0.869-0.121,2.002,0.66,2.002c0.726,0,0.979-1.023,1.021-1.452H91.168z"/>
	<path fill="#1D3E7F" d="M96.229,41.709H96.03c-0.317-0.847-0.594-1.243-1.309-1.243c-0.969,0-1.32,1.507-1.32,2.343v2.464h0.781
		v0.198h-2.685v-0.198h0.78v-4.697h-0.78v-0.187h1.781v1.617c0.154-0.913,0.595-1.728,1.52-1.728c0.197,0,0.352,0.033,0.55,0.11
		h0.484L96.229,41.709z"/>
	<path fill="#1D3E7F" d="M101.96,45.273v0.198h-1.903v-0.715c-0.229,0.407-0.682,0.825-1.529,0.825
		c-1.033,0-2.188-0.528-2.188-1.848c0-1.331,1.155-1.859,2.188-1.859c0.849,0,1.3,0.418,1.529,0.825v-0.055
		c0-1.166-0.077-2.167-1.276-2.167c-0.715,0-1.275,0.385-1.584,1.232h-0.197l0.474-1.32h0.692c0.144-0.044,0.439-0.11,0.683-0.11
		c1.529,0,2.365,0.484,2.332,2.09v2.904H101.96z M100.057,43.381c0-0.418-0.363-1.309-1.408-1.309c-0.891,0-1.254,0.836-1.254,1.661
		c0,0.814,0.363,1.65,1.254,1.65c1.045,0,1.408-0.891,1.408-1.309V43.381z"/>
	<path fill="#1D3E7F" d="M108.604,45.273v0.198h-2.694v-0.198h0.78v-3.355c0-0.616-0.044-1.441-0.848-1.441
		c-1.166,0-1.529,1.408-1.529,2.046v2.75h0.781v0.198h-2.695v-0.198h0.781v-4.687h-0.781v-0.198h1.914v1.144
		c0.231-0.682,0.737-1.254,1.738-1.254c0.848,0,1.771,0.418,1.771,1.937v3.058H108.604z"/>
	<path fill="#1D3E7F" d="M115.203,45.273v0.198H113.3v-0.946c-0.265,0.528-0.792,1.056-1.673,1.056
		c-1.529,0-2.695-1.243-2.695-2.651c0-1.408,1.166-2.651,2.695-2.651c0.881,0,1.408,0.517,1.673,1.056v-3.366h-0.781v-0.198h1.903
		v7.503L115.203,45.273L115.203,45.273z M113.3,42.105c0-0.627-0.506-1.628-1.673-1.628c-1.31,0-1.54,1.584-1.54,2.453
		c0,0.858,0.23,2.454,1.54,2.454c1.167,0,1.673-1.001,1.673-1.639V42.105z"/>
	<path fill="#1D3E7F" d="M121.264,43.041c0,1.496-1.353,2.541-2.959,2.541c-0.319,0-0.518-0.044-0.858-0.11h-0.868l-0.825-2.365
		h0.188c0.551,1.518,1.298,2.277,2.365,2.277c1.311,0,1.881-1.354,1.881-2.289c0-2.783-2.397-2.695-3.63-1.507l-0.132-0.099
		l0.45-3.719h2.815c0.693,0,0.893,0,1.09-0.473h0.197l-0.396,1.441h-3.631l-0.286,2.508
		C118.161,40.004,121.264,40.477,121.264,43.041z"/>
	<path fill="#1D3E7F" d="M127.215,43.041c0,1.496-1.354,2.541-2.959,2.541c-0.319,0-0.519-0.044-0.858-0.11h-0.869l-0.824-2.365
		h0.188c0.55,1.518,1.298,2.277,2.365,2.277c1.31,0,1.881-1.354,1.881-2.289c0-2.783-2.398-2.695-3.63-1.507l-0.132-0.099
		l0.45-3.719h2.815c0.693,0,0.893,0,1.09-0.473h0.197l-0.396,1.441h-3.632l-0.285,2.508
		C124.112,40.004,127.215,40.477,127.215,43.041z"/>
	<path fill="#1D3E7F" d="M136.434,42.501c0,0.781-0.242,1.485-0.726,2.123c-0.484,0.638-1.179,0.957-1.782,0.957
		c-0.342,0-1.199-0.11-1.067-1.276c-0.165,0.462-0.594,1.276-1.44,1.276c-0.418,0-0.771-0.143-1.067-0.429
		c-0.286-0.275-0.429-0.66-0.429-1.155c0-0.638,0.242-1.232,0.737-1.771c0.506-0.539,1.045-0.814,1.649-0.814
		c0.571,0,0.936,0.308,1.089,0.924l0.242-0.715h0.813c-0.595,1.837-0.892,2.828-0.892,3.081c0,0.539,0.407,0.594,0.594,0.594
		c0.396,0,0.957-0.275,1.364-0.814c0.418-0.539,0.627-1.188,0.627-1.958c0-0.946-0.361-1.738-1.078-2.245
		c-0.726-0.506-1.507-0.759-2.364-0.759c-1.111,0-2.376,0.396-3.245,1.177c-0.88,0.781-1.388,1.805-1.388,2.938
		c0,1.056,0.519,1.903,1.267,2.563c0.748,0.66,1.87,0.99,2.938,0.99c1.276,0,2.486-0.55,3.025-0.935l0.143,0.198
		c-0.583,0.407-1.76,0.99-3.189,0.99c-1.221,0-2.332-0.363-3.201-1.1c-0.858-0.737-1.287-1.639-1.287-2.695
		c0-1.199,0.473-2.222,1.408-3.081c0.946-0.847,2.102-1.276,3.477-1.276c1.057,0,1.958,0.297,2.686,0.902
		C136.071,40.785,136.434,41.555,136.434,42.501z M133.21,42.457c0-0.242-0.144-0.737-0.715-0.737c-0.418,0-0.804,0.308-1.166,0.913
		c-0.353,0.616-0.528,1.199-0.528,1.771c0,0.275,0.077,0.495,0.221,0.66s0.341,0.242,0.571,0.242c0.495,0,0.881-0.385,1.178-1.155
		C133.057,43.381,133.21,42.82,133.21,42.457z"/>
	<path fill="#1D3E7F" d="M140.943,40.675c0.671,0.429,1.111,1.167,1.111,2.002c0,1.32-1.101,2.398-2.486,2.398
		c-0.45,0-0.868-0.11-1.242-0.319c-0.484,0.066-0.748,0.264-0.748,0.484c0,0.506,0.88,0.374,1.825,0.374
		c0.957,0,2.597-0.143,2.597,1.452c0,0.77-0.583,1.419-0.583,1.419l-1.243-0.429l0.1-0.176c0.913,0.231,1.485-0.055,1.485-0.539
		c0-0.825-1.397-0.704-2.354-0.704c-0.716,0-2.232,0.11-2.232-1.078c0-0.506,0.483-0.792,0.957-0.924
		c-0.627-0.44-1.034-1.155-1.034-1.958c0-1.32,1.101-2.398,2.476-2.398c0.451,0,0.869,0.11,1.231,0.308
		c0.198-0.605,0.825-1.056,1.529-1.056v0.748C141.846,40.279,141.175,40.268,140.943,40.675z M140.933,42.677
		c0-0.671-0.177-2.2-1.364-2.2c-1.178,0-1.354,1.529-1.354,2.2c0,0.671,0.176,2.2,1.354,2.2
		C140.756,44.877,140.933,43.348,140.933,42.677z"/>
	<path fill="#1D3E7F" d="M152.341,45.273v0.198h-2.695v-0.198h0.781v-3.355c0-0.616-0.044-1.441-0.848-1.441
		c-1.166,0-1.463,1.419-1.463,2.057v2.739h0.703v0.198h-2.541v-0.198h0.704v-3.355c0-0.616-0.044-1.441-0.848-1.441
		c-1.155,0-1.452,1.397-1.463,2.046v2.75h0.781v0.198h-2.686v-0.198h0.781v-4.687h-0.781v-0.198h1.903v1.089
		c0.229-0.66,0.704-1.199,1.672-1.199c0.737,0,1.519,0.308,1.717,1.364c0.198-0.726,0.671-1.364,1.728-1.364
		c0.848,0,1.761,0.418,1.761,1.937v3.058H152.341z"/>
	<path fill="#1D3E7F" d="M158.291,45.273v0.198h-1.903v-0.715c-0.229,0.407-0.682,0.825-1.529,0.825
		c-1.033,0-2.188-0.528-2.188-1.848c0-1.331,1.155-1.859,2.188-1.859c0.849,0,1.3,0.418,1.529,0.825v-0.055
		c0-1.166-0.077-2.167-1.276-2.167c-0.715,0-1.275,0.385-1.584,1.232h-0.197l0.474-1.32h0.692c0.144-0.044,0.439-0.11,0.683-0.11
		c1.529,0,2.365,0.484,2.332,2.09v2.904H158.291z M156.388,43.381c0-0.418-0.363-1.309-1.408-1.309
		c-0.891,0-1.254,0.836-1.254,1.661c0,0.814,0.363,1.65,1.254,1.65c1.045,0,1.408-0.891,1.408-1.309V43.381z"/>
	<path fill="#1D3E7F" d="M161.426,45.273v0.198h-2.695v-0.198h0.781v-4.687h-0.781v-0.198h1.914v4.884L161.426,45.273
		L161.426,45.273z M159.424,38.893c0-0.374,0.286-0.66,0.647-0.66c0.374,0,0.66,0.286,0.66,0.66c0,0.363-0.286,0.649-0.66,0.649
		C159.71,39.542,159.424,39.256,159.424,38.893z"/>
	<path fill="#1D3E7F" d="M164.55,45.273v0.198h-2.685v-0.198h0.78v-7.305h-0.78V37.77h1.902v7.503H164.55z"/>
	<path fill="#1D3E7F" d="M166.475,44.889c0,0.385-0.308,0.693-0.692,0.693c-0.374,0-0.683-0.308-0.683-0.693
		c0-0.385,0.309-0.693,0.683-0.693C166.167,44.195,166.475,44.503,166.475,44.889z"/>
	<path fill="#1D3E7F" d="M171.623,43.932l-0.551,1.54h-0.736c-0.188,0.066-0.407,0.11-0.616,0.11c-1.54,0-2.695-1.243-2.695-2.651
		c0-1.408,1.155-2.651,2.686-2.651c0.209,0,0.429,0.021,0.627,0.11h0.683l0.474,1.32h-0.188c-0.319-0.847-0.881-1.232-1.596-1.232
		c-1.31,0-1.529,1.584-1.529,2.453c0,0.858,0.221,2.454,1.54,2.454c0.704,0,1.354-0.44,1.717-1.452L171.623,43.932L171.623,43.932z"
		/>
	<path fill="#1D3E7F" d="M177.453,42.93c0,1.408-1.166,2.651-2.695,2.651s-2.695-1.243-2.695-2.651c0-1.408,1.166-2.651,2.695-2.651
		S177.453,41.522,177.453,42.93z M176.299,42.93c0-0.869-0.231-2.453-1.541-2.453c-1.309,0-1.54,1.584-1.54,2.453
		c0,0.858,0.231,2.454,1.54,2.454S176.299,43.789,176.299,42.93z"/>
	<path fill="#1D3E7F" d="M187.464,45.273v0.198h-2.695v-0.198h0.781v-3.355c0-0.616-0.044-1.441-0.848-1.441
		c-1.166,0-1.464,1.419-1.464,2.057v2.739h0.704v0.198h-2.541v-0.198h0.704v-3.355c0-0.616-0.044-1.441-0.848-1.441
		c-1.155,0-1.452,1.397-1.463,2.046v2.75h0.781v0.198h-2.686v-0.198h0.781v-4.687h-0.781v-0.198h1.903v1.089
		c0.229-0.66,0.704-1.199,1.672-1.199c0.737,0,1.519,0.308,1.717,1.364c0.198-0.726,0.671-1.364,1.728-1.364
		c0.848,0,1.761,0.418,1.761,1.937v3.058H187.464z"/>
</g>
<g>
	<rect x="45.147" y="54.812" fill="none" width="156.58" height="30.667"/>
	<path fill="#1D3E7F" d="M90.36,59.358c0,2.639-1.353,4.68-3.342,4.68s-3.367-2.041-3.367-4.68s1.378-4.68,3.367-4.68
		C88.995,54.678,90.36,56.719,90.36,59.358z M89.086,59.358c0-1.222-0.325-4.446-2.067-4.446c-1.755,0-2.08,3.224-2.08,4.446
		s0.325,4.433,2.08,4.433C88.761,63.791,89.086,60.58,89.086,59.358z"/>
	<path fill="#1D3E7F" d="M97.328,61.048c0,1.755-1.287,2.99-2.978,2.99c-1.534,0-3.212-0.988-3.212-3.835
		c0-4.069,1.847-5.525,3.303-5.525c0.194,0,0.533,0.013,0.846,0.13h0.857l0.846,2.379h-0.234c-0.56-1.508-1.222-2.275-2.235-2.275
		c-1.548,0-1.911,2.119-2.105,4.914c0,0,0.598-1.69,2.027-1.69C96.041,58.136,97.328,59.228,97.328,61.048z M96.041,61.048
		c0-1.56-0.533-2.678-1.6-2.678c-0.896,0-1.938,1.027-1.938,2.678c0,1.521,0.663,2.717,1.847,2.756
		C95.495,63.804,96.041,62.53,96.041,61.048z"/>
	<path fill="#1D3E7F" d="M99.732,63.219c0,0.455-0.362,0.819-0.817,0.819c-0.442,0-0.808-0.364-0.808-0.819
		c0-0.455,0.364-0.819,0.808-0.819C99.369,62.4,99.732,62.764,99.732,63.219z"/>
	<path fill="#1D3E7F" d="M106.883,61.542c0,1.95-2.196,2.496-3.275,2.496c-1.301,0-3.095-0.546-3.095-2.236
		c0-1.508,1.521-2.015,2.133-2.236c-1.079-0.689-1.78-1.43-1.78-2.574c0-1.807,1.857-2.314,2.898-2.314
		c1.145,0,2.678,0.494,2.678,1.911c0,1.183-1.001,1.794-2.027,2.067C105.544,59.202,106.883,59.943,106.883,61.542z M105.7,62.01
		c0-1.248-1.47-1.716-2.796-2.327c-0.884,0.442-1.339,1.365-1.339,2.249c0,1.053,0.896,1.859,2.041,1.859
		C104.413,63.791,105.7,63.349,105.7,62.01z M104.192,58.552c0.247-0.13,1.248-0.52,1.248-2.028c0-1.3-0.896-1.612-1.677-1.612
		c-0.638,0-1.781,0.26-1.781,1.508C101.982,57.824,103.686,58.318,104.192,58.552z"/>
	<path fill="#1D3E7F" d="M113.824,61.113l-0.924,2.795h-5.368v-0.234c2.77-2.392,4.367-4.499,4.367-6.773
		c0-1.222-0.455-1.989-1.456-1.989c-1.261,0-1.91,0.767-2.47,2.262h-0.234l0.832-2.366h1.118c0.338-0.091,0.585-0.13,0.846-0.13
		c1.769,0,2.757,0.832,2.757,2.405c0,1.742-1.755,3.432-4.396,5.668h1.69c1.56,0,2.379,0.026,3.003-1.638H113.824z"/>
	<path fill="#1D3E7F" d="M116.099,63.219c0,0.455-0.363,0.819-0.818,0.819c-0.441,0-0.807-0.364-0.807-0.819
		c0-0.455,0.364-0.819,0.807-0.819C115.735,62.4,116.099,62.764,116.099,63.219z"/>
	<path fill="#1D3E7F" d="M123.041,61.113l-0.923,2.795h-5.369v-0.234c2.77-2.392,4.368-4.499,4.368-6.773
		c0-1.222-0.455-1.989-1.456-1.989c-1.262,0-1.911,0.767-2.471,2.262h-0.233l0.832-2.366h1.118c0.338-0.091,0.585-0.13,0.845-0.13
		c1.769,0,2.757,0.832,2.757,2.405c0,1.742-1.755,3.432-4.396,5.668h1.69c1.56,0,2.379,0.026,3.003-1.638H123.041z"/>
	<path fill="#1D3E7F" d="M130.399,59.358c0,2.639-1.353,4.68-3.342,4.68s-3.367-2.041-3.367-4.68s1.378-4.68,3.367-4.68
		C129.034,54.678,130.399,56.719,130.399,59.358z M129.125,59.358c0-1.222-0.325-4.446-2.067-4.446c-1.755,0-2.08,3.224-2.08,4.446
		s0.325,4.433,2.08,4.433C128.8,63.791,129.125,60.58,129.125,59.358z"/>
	<path fill="#1D3E7F" d="M132.804,63.219c0,0.455-0.363,0.819-0.818,0.819c-0.441,0-0.807-0.364-0.807-0.819
		c0-0.455,0.364-0.819,0.807-0.819C132.44,62.4,132.804,62.764,132.804,63.219z"/>
	<path fill="#1D3E7F" d="M139.955,61.542c0,1.95-2.197,2.496-3.276,2.496c-1.3,0-3.095-0.546-3.095-2.236
		c0-1.508,1.521-2.015,2.133-2.236c-1.079-0.689-1.781-1.43-1.781-2.574c0-1.807,1.859-2.314,2.898-2.314
		c1.145,0,2.679,0.494,2.679,1.911c0,1.183-1.001,1.794-2.028,2.067C138.615,59.202,139.955,59.943,139.955,61.542z M138.771,62.01
		c0-1.248-1.469-1.716-2.795-2.327c-0.884,0.442-1.339,1.365-1.339,2.249c0,1.053,0.896,1.859,2.041,1.859
		C137.484,63.791,138.771,63.349,138.771,62.01z M137.264,58.552c0.247-0.13,1.248-0.52,1.248-2.028c0-1.3-0.896-1.612-1.678-1.612
		c-0.638,0-1.78,0.26-1.78,1.508C135.054,57.824,136.757,58.318,137.264,58.552z"/>
	<path fill="#1D3E7F" d="M146.922,58.5c0,4.082-1.846,5.538-3.302,5.538c-0.208,0-0.533-0.026-0.847-0.13h-0.856l-0.846-2.379h0.233
		c0.561,1.495,1.222,2.275,2.224,2.275c1.561,0,1.925-2.132,2.105-4.927c0,0-0.585,1.703-2.015,1.703
		c-1.601,0-2.888-1.092-2.888-2.912c0-1.755,1.287-2.99,2.979-2.99C145.245,54.678,146.922,55.653,146.922,58.5z M145.557,57.668
		c0-1.534-0.663-2.73-1.846-2.756c-1.146,0-1.69,1.261-1.69,2.756c0,1.56,0.533,2.678,1.601,2.678
		C144.517,60.346,145.557,59.306,145.557,57.668z"/>
	<path fill="#1D3E7F" d="M149.326,63.219c0,0.455-0.363,0.819-0.818,0.819c-0.442,0-0.807-0.364-0.807-0.819
		c0-0.455,0.363-0.819,0.807-0.819C148.963,62.4,149.326,62.764,149.326,63.219z"/>
	<path fill="#1D3E7F" d="M156.295,58.5c0,4.082-1.846,5.538-3.302,5.538c-0.208,0-0.533-0.026-0.847-0.13h-0.856l-0.846-2.379h0.233
		c0.56,1.495,1.222,2.275,2.224,2.275c1.561,0,1.925-2.132,2.105-4.927c0,0-0.585,1.703-2.015,1.703
		c-1.601,0-2.888-1.092-2.888-2.912c0-1.755,1.287-2.99,2.979-2.99C154.618,54.678,156.295,55.653,156.295,58.5z M154.93,57.668
		c0-1.534-0.663-2.73-1.846-2.756c-1.146,0-1.69,1.261-1.69,2.756c0,1.56,0.533,2.678,1.601,2.678
		C153.89,60.346,154.93,59.306,154.93,57.668z"/>
	<path fill="#1D3E7F" d="M161.768,61.451v2.223h1.092v0.234h-3.51v-0.234h1.092v-2.223h-3.757V61.23c0,0,2.275-2.795,4.069-6.422
		h1.014v6.422h1.586v0.221H161.768z M160.441,55.913c-1.43,2.769-3.432,5.317-3.432,5.317h3.432V55.913z"/>
</g>
<line fill="none" stroke="#1D3E7F" stroke-miterlimit="10" x1="57.409" y1="28.617" x2="189.409" y2="28.617"/>
<g>
	<g>
		<defs>
			<path id="SVGID_1_" d="M182,145.775c3.651,0.248,6.854,0.053,10.346-1.221c2.034,1.715,11.355,0.575,16.138-3.131
				c-6.115,2.001-9.588,1.85-12.399,1.549c3.49-0.635,11.847-0.531,19.914-7.461c7.229-6.189,10.019-15.06,13.489-22.185
				c-7.394,9.559-14.477,11.405-20.471,15.226c-6.836,4.361-16.032,9.514-17.389,14.812
				C189.451,144.463,186.557,145.438,182,145.775z"/>
		</defs>
		<clipPath id="SVGID_2_">
			<use xlink:href="#SVGID_1_"  overflow="visible"/>
		</clipPath>
		<g clip-path="url(#SVGID_2_)">
			<rect x="176.555" y="144.043" fill="#3062AC" width="53.918" height="3.616"/>
			<rect x="176.555" y="140.427" fill="#1D3E7F" width="53.918" height="3.616"/>
			<rect x="176.555" y="136.811" fill="#2C2C61" width="53.918" height="3.616"/>
			<rect x="176.555" y="133.323" fill="#3E2251" width="53.918" height="3.616"/>
			<rect x="176.555" y="129.818" fill="#60111D" width="53.918" height="3.615"/>
			<rect x="176.555" y="126.202" fill="#8E1913" width="53.918" height="3.616"/>
			<rect x="176.555" y="122.586" fill="#BF1A18" width="53.918" height="3.616"/>
			<rect x="176.555" y="119.1" fill="#D64915" width="53.918" height="3.615"/>
			<rect x="176.555" y="115.482" fill="#EE7236" width="53.918" height="3.615"/>
			<rect x="176.555" y="111.995" fill="#F39A1A" width="53.918" height="3.616"/>
		</g>
	</g>
</g>
</svg>
