<?xml version="1.0" encoding="utf-8"?>
<!-- Generator: Adobe Illustrator 16.0.0, SVG Export Plug-In . SVG Version: 6.00 Build 0)  -->
<!DOCTYPE svg PUBLIC "-//W3C//DTD SVG 1.1//EN" "http://www.w3.org/Graphics/SVG/1.1/DTD/svg11.dtd">
<svg version="1.1" id="Calque_1" xmlns="http://www.w3.org/2000/svg" xmlns:xlink="http://www.w3.org/1999/xlink" x="0px" y="0px"
	 width="240.939px" height="155.91px" viewBox="0 0 240.939 155.91" enable-background="new 0 0 240.939 155.91"
	 xml:space="preserve">
<g>
	<g>
		<path fill="#3062AC" d="M121.468,118.279c10.22,0,19.721-3.071,27.64-8.334H93.828
			C101.747,115.208,111.246,118.279,121.468,118.279z"/>
		<path fill="#1D3E7F" d="M93.828,109.945h55.278c4.376-2.908,8.266-6.491,11.524-10.594H82.304
			C85.563,103.454,89.45,107.037,93.828,109.945z"/>
		<path fill="#2C2C61" d="M82.304,99.352h78.328c2.481-3.125,4.6-6.551,6.284-10.219H76.019
			C77.704,92.801,79.82,96.227,82.304,99.352z"/>
		<path fill="#3E2251" d="M76.019,89.133h90.897c1.496-3.25,2.655-6.689,3.429-10.271H72.591
			C73.363,82.443,74.522,85.883,76.019,89.133z"/>
		<path fill="#60111D" d="M72.591,78.861h97.754c0.736-3.417,1.135-6.958,1.135-10.593H71.456
			C71.456,71.904,71.854,75.445,72.591,78.861z"/>
		<path fill="#8E1913" d="M71.456,68.268h100.022c0-3.636-0.397-7.178-1.135-10.594H72.591
			C71.854,61.09,71.456,64.632,71.456,68.268z"/>
		<path fill="#BF1A18" d="M72.591,57.674h97.754c-0.77-3.563-1.92-6.982-3.403-10.218H75.994
			C74.511,50.692,73.359,54.111,72.591,57.674z"/>
		<path fill="#D64915" d="M75.994,47.456h90.946c-1.748-3.813-3.957-7.369-6.562-10.594H82.557
			C79.95,40.087,77.741,43.643,75.994,47.456z"/>
		<path fill="#EE7236" d="M82.557,36.862h77.821c-3.188-3.944-6.958-7.396-11.188-10.218H93.743
			C89.515,29.466,85.744,32.917,82.557,36.862z"/>
		<path fill="#F39A1A" d="M121.468,18.256c-10.257,0-19.789,3.092-27.725,8.388h55.447
			C141.256,21.348,131.724,18.256,121.468,18.256z"/>
	</g>
	<g>
		<g>
			<path fill="#FFFFFF" d="M114.483,56.37l-1.127,3.787h-8.523v-0.299h1.479V48.145h-1.479v-0.316h4.88v0.316h-1.479v11.713h1.919
				c2.043,0,3.188-1.233,4.033-3.488H114.483z"/>
			<path fill="#FFFFFF" d="M125.423,59.857v0.299h-4.755v-0.299h1.479l-1.303-3.909h-3.681l-1.27,3.909h1.479v0.299h-3.064v-0.299
				h1.25l3.945-12.205h0.599l4.068,12.205H125.423z M120.738,55.647l-1.778-5.283l-1.709,5.283H120.738z"/>
			<path fill="#FFFFFF" d="M136.168,56.758c0,2.359-1.885,3.398-5.072,3.398h-4.967v-0.299h1.479V48.145h-1.479v-0.316h4.279
				c2.766,0,4.613,0.74,4.613,2.958c0,1.708-1.074,2.465-2.816,2.73C134.723,53.729,136.168,54.698,136.168,56.758z M129.528,53.412
				h1.215c2.36,0,2.36-2.008,2.36-2.625c0-0.599,0.019-2.643-2.343-2.643h-1.232V53.412z M134.142,56.758
				c0-1.092-0.104-3.047-2.888-3.047h-1.727v6.146h1.69C134.001,59.857,134.142,57.868,134.142,56.758z"/>
			<path fill="#FFFFFF" d="M146.525,56.37l-1.128,3.787h-8.522v-0.299h1.479V48.145h-1.479v-0.316h8.049l1.145,3.223h-0.316
				c-0.847-2.254-2.097-2.907-4.14-2.907h-1.338v5.479h1.074c1.813,0,1.972-0.616,2.062-2.184h0.315v4.666h-0.315
				c-0.09-1.55-0.247-2.166-2.062-2.166h-1.074v5.918h1.919c2.044,0,3.17-1.233,4.017-3.488H146.525z"/>
			<path fill="#FFFFFF" d="M156.707,56.37l-1.127,3.787h-8.524v-0.299h1.479V48.145h-1.479v-0.316h4.878v0.316h-1.479v11.713h1.919
				c2.043,0,3.188-1.233,4.033-3.488H156.707z"/>
		</g>
		<g>
			<g>
				<g>
					<g>
						<g>
							<path fill="#FFFFFF" d="M156.453,81.871c-0.912,2.227-2.586,4.152-4.869,5.018c-1.563,0.59-3.534,0.123-4.404-1.219
								c0.054-0.137,0.104-0.277,0.145-0.418c-0.102,0.337,2.011,0.387,2.211,0.355c0.732-0.104,1.28-0.639,1.688-1.213
								c0.703-0.988,1.06-4.389-0.007-5.23c-0.713-0.562-2.128,0.969-2.547,1.367c-0.964,0.914-1.646,1.938-1.891,3.264
								c-0.072,0.4-0.117,0.826-0.124,1.25c-0.92,1.398-3.023,3.197-4.225,1.451c-0.159-0.23-0.288-1.318-0.351-0.918
								c0.052-0.537,0.167-1.068,0.284-1.594c0.174-0.76,0.412-1.506,0.681-2.238c2.36-0.785,3.968-3.646,4.046-5.992
								c0.004-0.083-0.001-0.542-0.003-0.956c0-0.221,0-0.441,0-0.663c0-0.024,0-0.042,0.001-0.042
								c-1.921,0.188-3.166,3.75-3.759,5.202c-0.104,0.253-0.2,0.506-0.292,0.762c-0.756,0.238-1.583,0.258-2.348,0.088
								c-0.363-0.084-0.665-0.289-0.938-0.528c-0.13-0.136-0.235-0.284-0.314-0.453c-0.104-0.181-0.131-1.063-0.182-0.968
								c-0.002-0.128,0.001-0.246,0.006-0.343c-0.008,0.131-0.015,0.263-0.021,0.395c-0.008,0.033-0.014,0.078-0.021,0.146
								c-0.121,1.048-2.267,9.614-3.731,8.825c-0.542-0.243-0.693-0.784-0.69-1.377c0.745-2.346,1.128-5.274,1.368-5.942
								c0.089-0.244,0.045-0.539,0-0.834c0-0.285,0-0.57,0-0.854c-0.798,2.083-1.284,4.399-1.403,6.629
								c-0.327,0.821-0.792,1.538-1.509,2.042c-0.517,0.359-1.185,0.238-1.697-0.037c-0.292-0.156-0.456-0.479-0.59-0.762
								c-0.066-0.171-0.117-0.348-0.15-0.531c-0.001-0.012-0.004-0.018-0.007-0.027c0.213-0.586,0.377-1.181,0.526-1.688
								c0.425-1.446,0.659-2.944,1.109-4.385c0.071-0.229,0.039-0.497,0-0.769c0-0.306,0-0.616,0-0.923
								c-0.758,1.916-1.413,3.925-1.641,5.983c-0.214,0.546-0.462,1.076-0.773,1.588c-0.97,1.599-3.757,2.667-4.227,0.21
								c-0.007-0.062-0.011-0.111-0.017-0.151c0.021-0.225,0.047-0.449,0.074-0.671c0.068-0.539,0.175-1.073,0.283-1.604
								c0.281-1.364,0.734-2.621,1.021-3.983c0.041-0.065,0.09-0.315,0.11-0.394c0.488-1.719,2.039-6.189,2.485-7.928
								c0.501-0.126,0.802-0.165,1.334-0.219c2.073-0.212,4.175-0.397,6.242-0.274c1.989,0.118,3.984,0.004,5.957-0.278
								c2.863-0.411,5.797-1.19,8.26-2.744c1.313-0.827,4.771-3.134,5-4.425c-0.528,1.96-6.747,4.584-8.215,5.118
								c-2.479,0.899-5.18,1.325-7.802,1.485c-3.223,0.197-7.213-0.127-10.63,0.52c0.264-1.188,0.746-4.403,0.765-5.397
								c0.006-0.277-0.134-0.504-0.164-0.792c0-0.281-0.063-0.558-0.063-0.837c-0.088,0.398-0.367,2.527-0.448,2.925
								c-0.25,1.185-0.628,3.074-0.86,4.263c-1.425,0.331-3.109,1.105-4.093,2.76c-0.175,0.507,0.175,0.739,0.021,1.339
								c0.858-1.633,2.446-2.779,3.849-3.203c-0.135,0.679-1.233,3.867-1.453,4.624c-0.458,1.575-0.876,3.221-1.438,4.796
								c-0.709,1.991-1.143,4.437-2.519,6.103c-1.005,1.217-2.615-0.161-3.206-1.379c0.66-1.819,1.244-3.658,2.009-5.438
								c0.097-0.239,0.049-0.539,0-0.837c0-0.284,0-0.569,0-0.853c-0.789,1.943-1.849,3.85-2.152,5.925
								c-0.265,0.677-0.552,1.341-0.883,1.981c-1.078,2.095-2.646,0.564-3.186-1.112c-0.027-0.084-0.049-0.145-0.066-0.188
								c0.013-0.032,0.026-0.09,0.039-0.19c0.065-0.564,0.193-1.119,0.323-1.668c0.101-0.423,0.223-0.836,0.354-1.248
								c2.186-0.931,3.44-3.594,3.876-5.828c0.018-0.094,0.008-0.613,0-1.05c0-0.215,0-0.428,0-0.641
								c-1.928,0.168-3.026,3.48-3.578,4.946c-0.102,0.273-0.194,0.547-0.28,0.82c-0.986,0.389-2.359,0.674-2.966-0.103
								c-0.061-0.44-0.149-0.868-0.276-1.27c-0.002,0.012-0.002,0.021-0.002,0.031c-0.059,0.871-0.194,1.984,0.174,2.703
								c-0.085,0.598-0.272,1.18-0.48,1.743c-0.469,1.278-1.287,2.423-2.324,3.296c-1.887,1.585-5.169,0.982-5.899-1.393
								c0.357-1.563,1.394-2.812,2.721-3.75c0.492-0.349,2.136-1.392,2.762-0.899c-0.14,0.508,0.169,1.158,0.008,1.651
								c0.125-0.383,0.188-0.76,0.223-1.139c0.004,0.035,0.014,0.065,0.016,0.106c0-0.093,0-0.183,0-0.271
								c0.027-0.445,0.018-0.896,0.004-1.359c0-0.008-0.002-0.012-0.002-0.021c0-0.004,0-0.007,0-0.011c0,0.002,0,0.003-0.001,0.004
								c-0.062-1.424-1.761-0.506-2.476-0.096c-2.165,1.24-3.146,3.117-3.354,5.369c-0.015-0.088-0.025-0.178-0.034-0.271
								c0.001,0.261,0.001,0.524,0.001,0.787c-0.011,0.286-0.014,0.575-0.003,0.872c0.068,1.861,1.886,2.99,3.604,3.051
								c1.786,0.061,3.219-1.504,4.085-2.876c0.781-1.231,1.246-2.897,1.325-4.541c0.242,0.289,0.617,0.472,1.191,0.474
								c0.434,0,0.84-0.063,1.222-0.176c-0.178,0.936-0.271,1.883-0.292,2.854c-0.052-0.086-0.036,0.068-0.002,0.109
								c-0.002,0.106-0.006,0.215-0.006,0.321c0.003,1.181,0.768,4.521,2.494,3.654c0.853-0.431,1.292-1.896,1.612-2.849
								c0,0,0,0.002,0,0.004c0,0.104,0,0.209,0,0.315c0.002-0.051,0.008-0.1,0.011-0.149c0.042,0.472,0.168,0.879,0.541,1.382
								c0.721,0.969,1.815,1.897,2.875,0.892c1.035-0.984,1.423-2.861,1.854-4.161c0.239-0.711,0.487-1.421,0.731-2.131
								c-0.215,1.267-0.359,2.532-0.356,3.858c0.003,0.83-0.013,1.705,0.449,2.434c0.662,1.045,2.311,0.188,3.026-0.304
								c0.661-0.451,1.108-1.211,1.442-2.025c0.005,0.038,0.013,0.065,0.021,0.075c0.015,0.987,0.193,1.988,0.884,2.532
								c1.438,1.136,2.425-0.308,3.121-2.327c-0.039,1.085,0.043,2.355,0.812,2.701c1.456,0.783,3.57-7.555,3.765-9.25
								c0.115,1.228,0.618,2.205,2.311,2.294c0.316,0.017,0.625-0.007,0.923-0.062c-0.301,1.231-0.466,2.489-0.462,3.789
								c0.005,2.002,0.736,4.154,3.064,2.688c0.726-0.457,1.313-1.152,1.733-1.923c0.199,0.746,0.595,1.408,1.281,1.844
								c3.421,2.165,7.183-1.872,8.352-4.727C156.652,83.074,156.258,82.35,156.453,81.871z M149.16,81.766
								c1.165-1.061,2.109-1.231,2.465-0.09c-0.268,0.951-0.766,1.721-1.758,2.148c-0.562,0.242-1.212,0.154-1.784,0.031
								c-0.199-0.058-0.393-0.131-0.58-0.215C147.936,82.953,148.517,82.35,149.16,81.766z M146.775,75.847
								c-0.496,1.549-1.539,3.049-2.895,3.83C144.461,78.331,145.441,76.255,146.775,75.847z M120.105,75.855
								c-0.515,1.412-1.337,2.756-2.562,3.543C118.027,78.241,118.864,76.366,120.105,75.855z"/>
						</g>
					</g>
				</g>
				<g>
					<g>
						<g>
							<path fill="#FFFFFF" d="M123.118,78.358c0.138-0.366,0.306-0.715,0.485-1.056c0.002-0.009-0.001-0.011,0.002-0.021
								c0.126-0.692-0.146-0.852-0.085-1.379c-0.193,0.338-0.376,0.696-0.528,1.102C122.899,77.253,123.212,78.113,123.118,78.358z"
								/>
						</g>
					</g>
				</g>
			</g>
			<g>
				<g>
					<g>
						<path fill="#FFFFFF" d="M89.494,61.681c1.413,0.185,2.729-0.325,2.743-1.907c0.014-1.213,0.12-2.353-1.27-2.77
							c-1.915-0.577-4.039,0.243-5.193,1.811c-0.83,1.125-0.691,3.027-0.385,4.323c0.4,1.682,1.773,2.834,3.223,3.632
							c1.513,0.832,3.205,1.496,4.856,1.979c1.872,0.549,3.968,0.739,5.71-0.284c1.483-0.871,2.176-2.499,2.204-4.162
							c0.032-1.899,0.062-4.137-2.193-4.67c-2.475-0.583-4.863,0.724-6.353,2.611c-1.422,1.799-1.896,3.854-1.874,6.093
							c0.012,1.086,0.215,2.069,0.938,2.914c0.877,1.027,2.312,1.364,3.59,1.512c-0.074-0.009,0.104-1.284,0-1.325
							c-2.03-0.743-4.171-0.839-6.167,0.061c-1.882,0.849-3.202,2.575-3.92,4.463c-1.275,3.362-0.58,7.534,2.117,9.955
							c2.766,2.483,6.966,3.548,10.61,3.122c1.83-0.216,3.311-0.998,4.57-2.342c1.041-1.115,1.208-2.455,1.101-3.909
							c-0.117-1.565-1.315-2.657-2.549-3.474c-1.37-0.907-3.122-1.101-4.726-0.979c-1.704,0.128-3.312,0.962-4.348,2.331
							c-0.561,0.743-0.591,1.991-0.395,2.878c-0.094-0.418,0.093-0.9,0-1.322c-0.019-0.115-0.034-0.234-0.052-0.351
							c-0.001,0.433-0.002,0.864-0.002,1.299c0.105-1.338,1.415-2.291,2.495-2.883c1.228-0.672,2.732-0.738,4.094-0.613
							c2.31,0.214,5.287,1.859,5.479,4.433c-0.002-0.107-0.004-0.217-0.006-0.325c-0.004-0.911-0.171,0.12-0.278,0.378
							c-0.155,0.369-0.396,0.697-0.643,1.01c-0.559,0.712-1.321,1.332-2.112,1.771c-1.163,0.645-2.564,0.826-3.873,0.863
							c-3.179,0.09-6.517-0.951-9.021-2.918c-1.41-1.104-2.399-2.594-2.817-4.337c-0.371-1.552,0.219-3.308,1.091-4.821
							c1.927-3.342,5.895-4.231,9.347-2.966c0-0.44,0-0.882,0-1.325c-2.084-0.239-4.021-1.124-4.451-3.359
							c-0.148-0.773,0.3-1.767,0.592-2.465c0.396-0.947,0.979-1.812,1.651-2.582c1.29-1.474,3.033-2.174,4.98-2.174
							c0.85,0,1.732,0.212,2.341,0.833c0.272,0.279,0.434,0.655,0.562,1.015c0.068,0.195,0.106,0.403,0.146,0.606
							c0.034,0.204,0.058,0.411,0.064,0.621c-0.004-0.497-0.021-0.565-0.05-0.207c-0.22,1.835-1.432,3.286-3.174,3.891
							c-1.891,0.656-4.067,0.064-5.877-0.576c-1.533-0.543-3.13-1.199-4.497-2.091c-0.661-0.433-1.236-0.978-1.697-1.621
							c-0.241-0.336-0.415-0.712-0.562-1.097c-0.079-0.206-0.13-0.421-0.181-0.633c-0.032-0.151-0.06-0.304-0.077-0.458
							c-0.003,0.201,0.019,0.165,0.066-0.106c0.637-2.411,3.874-3.396,6.006-2.583c0.371,0.142,0.62,0.414,0.774,0.77
							c0.17,0.394-0.038,0.737,0.1-0.307c-0.024,0.181-0.093,0.352-0.167,0.517c-0.438,0.969-1.638,1.047-2.547,0.928
							C89.541,60.363,89.428,61.672,89.494,61.681L89.494,61.681z"/>
					</g>
				</g>
				<path fill="#FFFFFF" d="M94.631,57.337c0.697,0.046,1.312,0.009,1.979-0.234c0.391,0.328,2.175,0.11,3.092-0.6
					c-1.172,0.382-1.835,0.354-2.376,0.296c0.669-0.122,2.269-0.102,3.813-1.43c1.384-1.186,1.922-2.884,2.583-4.25
					c-1.413,1.831-2.771,2.186-3.918,2.917c-1.312,0.835-3.074,1.822-3.332,2.838C96.057,57.084,95.5,57.271,94.631,57.337z"/>
			</g>
		</g>
	</g>
</g>
<g>
	<circle fill="none" cx="121.469" cy="68.268" r="66.379"/>
	<path fill="#1D3E7F" d="M70.792,107.59l-2.244,0.756l-2.942-4.178l0.146-0.104l0.511,0.726l5.739-4.042l-0.511-0.727l0.155-0.109
		l1.685,2.393l-0.155,0.108l-0.51-0.726l-5.74,4.043l0.663,0.939c0.705,1.001,1.704,1.139,3.102,0.773L70.792,107.59z"/>
	<path fill="#1D3E7F" d="M75.643,106.242c-0.5,0.404-1.157,0.599-1.913,0.438l0.034-0.177c0.565,0.111,0.932,0.045,1.357-0.149
		c0,0-0.247-0.004-0.413-0.209c-0.227-0.277-0.189-0.701,0.098-0.935c0.278-0.226,0.693-0.183,0.926,0.104
		S75.92,106.016,75.643,106.242z"/>
	<path fill="#1D3E7F" d="M76.1,113.355c-0.996,0.912-2.63,0.893-3.621-0.188c-0.988-1.081-0.866-2.711,0.129-3.622
		c0.996-0.913,2.629-0.895,3.62,0.188C77.219,110.812,77.096,112.443,76.1,113.355z M75.353,112.539
		c0.614-0.564,1.584-1.753,0.737-2.68c-0.848-0.924-2.118-0.062-2.732,0.5c-0.605,0.557-1.585,1.754-0.736,2.679
		C73.468,113.964,74.746,113.095,75.353,112.539z"/>
	<path fill="#1D3E7F" d="M80.583,115.919l-0.14-0.129c0.326-0.804,0.392-1.261-0.11-1.728c-0.683-0.631-1.91,0.201-2.455,0.789
		l-1.604,1.732l0.55,0.508l-0.129,0.141l-1.888-1.748l0.129-0.139l0.55,0.508l3.059-3.304l-0.549-0.509l0.122-0.132l1.253,1.159
		l-1.053,1.139c0.703-0.542,1.542-0.827,2.192-0.227c0.138,0.129,0.225,0.252,0.314,0.436l0.34,0.314L80.583,115.919z"/>
	<path fill="#1D3E7F" d="M82.284,120c-0.3,0.271-1.188,1.077-2.011,0.417c-0.626-0.501-0.903-1.317-0.041-2.397l1.848-2.307
		l-0.585-0.468l0.11-0.142l0.585,0.469l0.812-1.014l0.84,0.674l-0.811,1.013l1.194,0.957l-0.112,0.14l-1.193-0.957l-1.683,2.102
		c-0.521,0.65-1.291,1.428-0.705,1.896c0.544,0.436,1.346-0.181,1.637-0.475L82.284,120z"/>
	<path fill="#1D3E7F" d="M86.907,124.756l-0.105,0.157l-2.134-1.438l0.105-0.158l0.621,0.418l1.799-2.666
		c0.331-0.489,0.739-1.17,0.093-1.605c-0.918-0.619-1.962,0.307-2.313,0.807l-1.475,2.188l0.621,0.419l-0.106,0.157l-2.133-1.439
		l0.106-0.158l0.62,0.42l3.917-5.807l-0.621-0.42l0.107-0.156l1.512,1.021l-2.018,2.991c0.558-0.412,1.267-0.596,2.062-0.06
		c0.675,0.454,1.176,1.276,0.361,2.483l-1.64,2.431L86.907,124.756z"/>
	<path fill="#1D3E7F" d="M93.075,125.573c-0.646,1.187-2.2,1.696-3.487,0.995c-1.288-0.702-1.699-2.285-1.053-3.471
		c0.646-1.187,2.199-1.697,3.487-0.996C93.31,122.805,93.722,124.387,93.075,125.573z M92.102,125.043
		c0.399-0.732,0.933-2.172-0.17-2.773s-2.024,0.627-2.424,1.359c-0.396,0.723-0.933,2.172,0.17,2.773
		C90.781,127.003,91.708,125.766,92.102,125.043z"/>
	<path fill="#1D3E7F" d="M98.078,125.414c0.428,0.632,0.535,1.447,0.219,2.184c-0.501,1.162-1.878,1.693-3.098,1.168
		c-0.396-0.172-0.725-0.428-0.975-0.752c-0.45-0.125-0.758-0.053-0.842,0.143c-0.191,0.445,0.634,0.662,1.466,1.021
		c0.842,0.362,2.339,0.858,1.734,2.262c-0.292,0.679-1.051,1.028-1.051,1.028l-0.933-0.849l0.154-0.118
		c0.717,0.55,1.328,0.515,1.512,0.089c0.313-0.727-0.962-1.148-1.805-1.513c-0.629-0.271-2.008-0.75-1.558-1.796
		c0.192-0.445,0.728-0.514,1.193-0.45c-0.385-0.625-0.472-1.409-0.167-2.115c0.501-1.161,1.878-1.694,3.088-1.173
		c0.397,0.171,0.724,0.428,0.969,0.738c0.403-0.457,1.126-0.616,1.746-0.35l-0.282,0.658
		C99.022,125.407,98.436,125.143,98.078,125.414z M97.309,127.172c0.254-0.592,0.68-2.004-0.367-2.454
		c-1.036-0.446-1.771,0.833-2.024,1.423c-0.254,0.592-0.681,2.004,0.355,2.45C96.319,129.041,97.055,127.764,97.309,127.172z"/>
	<path fill="#1D3E7F" d="M103.677,128.455l-0.179-0.061c-0.031-0.867-0.161-1.312-0.812-1.53c-0.88-0.296-1.66,0.968-1.916,1.728
		l-0.752,2.24l0.71,0.238l-0.062,0.181l-2.44-0.819l0.061-0.181l0.711,0.238l1.434-4.271l-0.71-0.237l0.058-0.17l1.62,0.543
		l-0.494,1.472c0.419-0.784,1.067-1.39,1.907-1.107c0.182,0.062,0.311,0.138,0.468,0.269l0.439,0.147L103.677,128.455z"/>
	<path fill="#1D3E7F" d="M108.225,133.126l-0.046,0.185l-1.771-0.439l0.165-0.665c-0.309,0.325-0.824,0.61-1.614,0.415
		c-0.963-0.238-1.916-0.997-1.611-2.227c0.307-1.239,1.504-1.465,2.467-1.227c0.79,0.195,1.112,0.689,1.233,1.121l0.013-0.051
		c0.27-1.086,0.429-2.035-0.688-2.312c-0.667-0.165-1.277,0.063-1.761,0.781l-0.185-0.046l0.745-1.12l0.646,0.16
		c0.144-0.008,0.435,0,0.66,0.056c1.423,0.353,2.09,0.997,1.689,2.483l-0.67,2.705L108.225,133.126z M106.89,130.925
		c0.096-0.39-0.036-1.303-1.01-1.545c-0.829-0.205-1.36,0.489-1.551,1.257c-0.188,0.76-0.043,1.621,0.788,1.828
		c0.972,0.24,1.517-0.505,1.612-0.895L106.89,130.925z"/>
	<path fill="#1D3E7F" d="M115.215,131.939c-0.198,1.334-1.479,2.35-2.927,2.135c-0.835-0.124-1.262-0.698-1.437-1.235l-0.473,3.188
		l0.739,0.111l-0.028,0.187l-2.543-0.376l0.027-0.188l0.739,0.109l1.027-6.935l-0.74-0.108l0.026-0.177l1.804,0.267l-0.134,0.896
		c0.327-0.473,0.898-0.889,1.732-0.766C114.481,129.264,115.412,130.605,115.215,131.939z M114.12,131.777
		c0.122-0.823,0.125-2.357-1.115-2.541c-1.105-0.163-1.723,0.703-1.812,1.309l-0.229,1.555c-0.09,0.604,0.25,1.623,1.354,1.786
		C113.557,134.07,114,132.591,114.12,131.777z"/>
	<path fill="#1D3E7F" d="M121.588,134.497l-0.01,0.188l-2.569-0.115l0.009-0.189l0.747,0.033l0.146-3.213
		c0.025-0.59,0.021-1.381-0.761-1.416c-1.105-0.051-1.514,1.281-1.553,1.893l-0.118,2.633l0.748,0.034l-0.008,0.189l-2.57-0.116
		l0.009-0.189l0.747,0.033l0.317-6.992l-0.748-0.035l0.008-0.188l1.823,0.082l-0.164,3.603c0.261-0.643,0.771-1.168,1.729-1.125
		c0.812,0.037,1.667,0.479,1.602,1.932l-0.133,2.928L121.588,134.497z"/>
	<path fill="#1D3E7F" d="M126.727,133.234l0.188-0.008c-0.111,0.301-0.716,1.344-2.107,1.409c-1.463,0.071-2.638-1.065-2.703-2.415
		c-0.063-1.349,0.994-2.593,2.459-2.662c1.394-0.066,2.412,0.961,2.474,2.227l-3.834,0.184c0.002,0.074,0.006,0.137,0.009,0.2
		c0.04,0.822,0.335,2.339,1.587,2.278C126.105,134.385,126.642,133.473,126.727,133.234z M123.202,131.777l2.718-0.131
		c-0.104-0.84-0.41-1.943-1.349-1.897C123.487,129.801,123.234,130.932,123.202,131.777z"/>
	<path fill="#1D3E7F" d="M134.021,132.109c0.137,0.812-0.525,1.521-1.63,1.707c-0.198,0.033-0.49,0.018-0.684,0.007l-0.688,0.114
		l-0.742-1.373l0.179-0.029c0.503,0.898,1.187,1.214,1.862,1.101c0.76-0.127,1.041-0.612,0.963-1.081
		c-0.079-0.479-0.586-0.693-1.479-0.929c-1.195-0.303-1.504-0.669-1.607-1.294c-0.125-0.749,0.454-1.38,1.308-1.523
		c0.25-0.041,0.424-0.026,0.61,0.006l0.655-0.108l0.646,1.175l-0.179,0.03c-0.436-0.752-0.985-1.045-1.662-0.933
		c-0.719,0.121-0.785,0.679-0.752,0.887c0.068,0.404,0.355,0.583,1.107,0.734C133.455,130.9,133.902,131.402,134.021,132.109z"/>
	<path fill="#1D3E7F" d="M137.365,132.496l0.04,0.186l-2.517,0.571l-0.043-0.185l0.729-0.166l-0.992-4.379l-0.73,0.166l-0.042-0.187
		l1.788-0.405l1.036,4.563L137.365,132.496z M134.141,126.959c-0.078-0.35,0.128-0.677,0.467-0.754
		c0.351-0.079,0.679,0.127,0.759,0.477c0.075,0.34-0.132,0.668-0.48,0.746C134.547,127.506,134.219,127.299,134.141,126.959z"/>
	<path fill="#1D3E7F" d="M146.959,129.48l0.059,0.181l-2.447,0.825l-0.062-0.18l0.71-0.238l-1.027-3.049
		c-0.188-0.562-0.481-1.297-1.212-1.052c-1.06,0.357-0.896,1.738-0.7,2.317l0.841,2.488l0.641-0.215l0.061,0.18l-2.31,0.777
		l-0.062-0.18l0.641-0.215l-1.027-3.049c-0.188-0.562-0.481-1.297-1.213-1.051c-1.049,0.354-0.89,1.715-0.701,2.309l0.844,2.499
		l0.71-0.239l0.061,0.18l-2.438,0.822l-0.062-0.18l0.71-0.239l-1.437-4.259l-0.71,0.238l-0.062-0.18l1.729-0.582l0.334,0.988
		c0.008-0.671,0.271-1.306,1.151-1.602c0.67-0.227,1.474-0.187,1.978,0.713c-0.042-0.721,0.191-1.444,1.151-1.77
		c0.771-0.259,1.728-0.158,2.192,1.221l0.938,2.779L146.959,129.48z"/>
	<path fill="#1D3E7F" d="M152.141,124.415c0.59,1.214,0.104,2.774-1.213,3.414c-0.76,0.368-1.437,0.134-1.885-0.211l1.409,2.901
		l0.673-0.326l0.083,0.171l-2.313,1.122l-0.084-0.17l0.674-0.326l-3.061-6.309l-0.674,0.327l-0.078-0.161l1.641-0.797l0.396,0.815
		c0.002-0.574,0.24-1.241,0.999-1.609C150.027,122.617,151.552,123.201,152.141,124.415z M151.145,124.898
		c-0.361-0.75-1.225-2.02-2.354-1.471c-1.006,0.487-1.027,1.553-0.761,2.104l0.687,1.414c0.268,0.55,1.121,1.201,2.127,0.713
		C151.973,127.109,151.504,125.639,151.145,124.898z"/>
	<path fill="#1D3E7F" d="M155.887,124.775l0.096,0.164l-2.225,1.293l-0.096-0.164l0.646-0.377l-3.518-6.053l-0.648,0.377
		l-0.096-0.164l1.577-0.918l3.614,6.219L155.887,124.775z"/>
	<path fill="#1D3E7F" d="M159.667,121.085l0.157-0.106c0.061,0.315,0.083,1.521-1.072,2.297c-1.217,0.818-2.81,0.453-3.562-0.666
		c-0.752-1.119-0.489-2.731,0.728-3.549c1.153-0.777,2.56-0.428,3.266,0.623l-3.186,2.143c0.041,0.062,0.077,0.113,0.112,0.166
		c0.459,0.683,1.496,1.826,2.537,1.127C159.73,122.389,159.718,121.33,159.667,121.085z M155.898,121.662l2.258-1.52
		c-0.521-0.664-1.356-1.451-2.135-0.927C155.119,119.822,155.49,120.921,155.898,121.662z"/>
	<path fill="#1D3E7F" d="M168.305,115.244l0.125,0.145l-1.955,1.688l-0.125-0.145l0.566-0.488l-2.103-2.435
		c-0.387-0.446-0.934-1.018-1.518-0.515c-0.844,0.73-0.172,1.945,0.229,2.408l1.717,1.986l0.511-0.44l0.123,0.144l-1.844,1.592
		l-0.123-0.144l0.511-0.44l-2.104-2.435c-0.385-0.444-0.934-1.017-1.516-0.515c-0.839,0.725-0.179,1.924,0.22,2.4l1.724,1.995
		l0.566-0.489l0.123,0.144l-1.947,1.683l-0.123-0.144l0.566-0.489l-2.936-3.398l-0.566,0.488l-0.125-0.144l1.381-1.192l0.682,0.79
		c-0.245-0.623-0.239-1.312,0.464-1.917c0.532-0.462,1.293-0.729,2.099-0.086c-0.312-0.65-0.368-1.409,0.397-2.07
		c0.614-0.531,1.538-0.801,2.489,0.301l1.916,2.219L168.305,115.244z"/>
	<path fill="#1D3E7F" d="M171.158,110.482l0.127-0.142c0.134,0.293,0.442,1.457-0.492,2.487c-0.984,1.085-2.617,1.111-3.617,0.204
		c-1-0.906-1.131-2.535-0.146-3.62c0.937-1.03,2.385-1.026,3.32-0.176l-2.58,2.842c0.056,0.05,0.103,0.093,0.148,0.135
		c0.608,0.553,1.89,1.417,2.731,0.487C171.532,111.732,171.266,110.709,171.158,110.482z M167.639,111.943l1.827-2.014
		c-0.666-0.521-1.663-1.085-2.294-0.39C166.441,110.345,167.062,111.322,167.639,111.943z"/>
	<path fill="#1D3E7F" d="M176.275,105.494l0.152,0.113l-1.551,2.068l-0.15-0.113l0.448-0.601l-2.575-1.928
		c-0.474-0.354-1.133-0.794-1.594-0.179c-0.67,0.896,0.201,1.982,0.691,2.351l2.111,1.58l0.448-0.601l0.153,0.114l-1.551,2.069
		l-0.149-0.114l0.447-0.6l-3.599-2.692l-0.449,0.6l-0.151-0.113l1.1-1.471l0.879,0.657c-0.39-0.567-0.539-1.286,0.036-2.055
		c0.487-0.649,1.339-1.119,2.505-0.247l2.349,1.758L176.275,105.494z"/>
	<path fill="#1D3E7F" d="M177.375,101.285c0.305,0.267,1.203,1.055,0.643,1.947c-0.426,0.679-1.205,1.048-2.375,0.313l-2.498-1.569
		l-0.397,0.635l-0.15-0.096l0.396-0.635l-1.099-0.688l0.571-0.911l1.099,0.688l0.812-1.294l0.151,0.095l-0.812,1.295l2.276,1.43
		c0.704,0.441,1.562,1.117,1.961,0.482c0.371-0.588-0.332-1.314-0.656-1.568L177.375,101.285z"/>
</g>
</svg>
