<?xml version="1.0" encoding="utf-8"?>
<!-- Generator: Adobe Illustrator 16.0.0, SVG Export Plug-In . SVG Version: 6.00 Build 0)  -->
<!DOCTYPE svg PUBLIC "-//W3C//DTD SVG 1.1//EN" "http://www.w3.org/Graphics/SVG/1.1/DTD/svg11.dtd">
<svg version="1.1" id="Calque_1" xmlns="http://www.w3.org/2000/svg" xmlns:xlink="http://www.w3.org/1999/xlink" x="0px" y="0px"
	 width="250px" height="250px" viewBox="0 0 250 250" enable-background="new 0 0 250 250" xml:space="preserve">
<g>
	<g>
		<path fill="#3062AC" d="M125.139,246.374c24.851,0,47.95-7.47,67.207-20.266H57.934
			C77.188,238.904,100.287,246.374,125.139,246.374z"/>
		<path fill="#1D3E7F" d="M57.934,226.108h134.412c10.64-7.07,20.093-15.783,28.02-25.758H29.913
			C37.84,210.325,47.291,219.038,57.934,226.108z"/>
		<path fill="#2C2C61" d="M29.913,200.351h190.453c6.037-7.597,11.185-15.927,15.281-24.845H14.631
			C18.731,184.424,23.874,192.754,29.913,200.351z"/>
		<path fill="#3E2251" d="M14.631,175.506h221.016c3.637-7.904,6.458-16.266,8.337-24.976H6.296
			C8.174,159.24,10.995,167.602,14.631,175.506z"/>
		<path fill="#60111D" d="M6.296,150.53h237.688c1.789-8.308,2.759-16.918,2.759-25.759H3.537
			C3.537,133.612,4.504,142.223,6.296,150.53z"/>
		<path fill="#8E1913" d="M3.537,124.771h243.205c0-8.841-0.97-17.453-2.759-25.759H6.296C4.504,107.319,3.537,115.93,3.537,124.771
			z"/>
		<path fill="#BF1A18" d="M6.296,99.012h237.688c-1.87-8.663-4.67-16.975-8.276-24.843H14.571
			C10.964,82.037,8.166,90.35,6.296,99.012z"/>
		<path fill="#D64915" d="M14.571,74.169h221.136c-4.25-9.273-9.622-17.918-15.958-25.76H30.529
			C24.192,56.251,18.82,64.896,14.571,74.169z"/>
		<path fill="#EE7236" d="M30.529,48.409h189.22c-7.751-9.591-16.917-17.983-27.2-24.844H57.729
			C47.447,30.426,38.278,38.818,30.529,48.409z"/>
		<path fill="#F39A1A" d="M125.139,3.169c-24.938,0-48.116,7.519-67.41,20.396h134.82C173.256,10.688,150.077,3.169,125.139,3.169z"
			/>
	</g>
	<g>
		<g>
			<path fill="#FFFFFF" d="M108.158,95.843l-2.74,9.207H84.692v-0.729h3.597V75.843h-3.597v-0.768h11.863v0.768h-3.597v28.479h4.667
				c4.966,0,7.75-2.999,9.807-8.479H108.158z"/>
			<path fill="#FFFFFF" d="M134.756,104.321v0.729h-11.562v-0.729h3.595l-3.168-9.503h-8.948l-3.083,9.503h3.597v0.729h-7.451
				v-0.729h3.04l9.592-29.675h1.456l9.893,29.675H134.756z M123.365,94.084l-4.326-12.845l-4.153,12.845H123.365z"/>
			<path fill="#FFFFFF" d="M160.882,96.786c0,5.735-4.582,8.264-12.333,8.264h-12.076v-0.729h3.599V75.843h-3.599v-0.768h10.405
				c6.725,0,11.22,1.798,11.22,7.193c0,4.153-2.613,5.994-6.852,6.637C157.37,89.42,160.882,91.776,160.882,96.786z M144.738,88.648
				h2.953c5.739,0,5.739-4.883,5.739-6.38c0-1.458,0.042-6.425-5.696-6.425h-2.996V88.648z M155.956,96.786
				c0-2.656-0.256-7.409-7.022-7.409h-4.195v14.945h4.11C155.614,104.321,155.956,99.484,155.956,96.786z"/>
			<path fill="#FFFFFF" d="M186.065,95.843l-2.74,9.207h-20.727v-0.729h3.598V75.843h-3.598v-0.768h19.57l2.783,7.835h-0.771
				c-2.057-5.479-5.096-7.067-10.062-7.067h-3.255v13.319h2.612c4.41,0,4.794-1.497,5.01-5.309h0.771v11.346h-0.771
				c-0.216-3.768-0.6-5.267-5.01-5.267h-2.612v14.389h4.667c4.969,0,7.708-2.999,9.764-8.479H186.065z"/>
			<path fill="#FFFFFF" d="M210.823,95.843l-2.741,9.207h-20.725v-0.729h3.596V75.843h-3.596v-0.768h11.859v0.768h-3.597v28.479
				h4.668c4.968,0,7.751-2.999,9.807-8.479H210.823z"/>
		</g>
		<g>
			<g>
				<g>
					<g>
						<g>
							<path fill="#FFFFFF" d="M210.205,157.846c-2.218,5.416-6.286,10.1-11.839,12.198c-3.801,1.437-8.593,0.301-10.71-2.958
								c0.133-0.336,0.249-0.677,0.351-1.017c-0.245,0.817,4.889,0.937,5.376,0.865c1.782-0.252,3.115-1.553,4.105-2.949
								c1.708-2.406,2.573-10.67-0.017-12.719c-1.734-1.366-5.174,2.354-6.194,3.32c-2.343,2.228-4.002,4.712-4.593,7.937
								c-0.178,0.979-0.288,2.011-0.302,3.043c-2.239,3.398-7.354,7.771-10.271,3.524c-0.388-0.561-0.703-3.203-0.854-2.23
								c0.128-1.305,0.404-2.599,0.695-3.873c0.419-1.847,0.999-3.661,1.651-5.443c5.741-1.91,9.646-8.864,9.837-14.57
								c0.01-0.202-0.001-1.317-0.007-2.323c0-0.537,0-1.074,0-1.614c0-0.057,0-0.101,0.003-0.101
								c-4.673,0.457-7.7,9.119-9.14,12.648c-0.252,0.614-0.486,1.23-0.71,1.852c-1.837,0.577-3.85,0.627-5.706,0.21
								c-0.888-0.2-1.618-0.697-2.285-1.282c-0.315-0.328-0.571-0.692-0.764-1.102c-0.255-0.438-0.319-2.586-0.442-2.354
								c-0.004-0.312,0.002-0.6,0.015-0.836c-0.019,0.317-0.034,0.638-0.05,0.958c-0.019,0.082-0.036,0.19-0.056,0.356
								c-0.293,2.548-5.511,23.378-9.071,21.458c-1.319-0.591-1.689-1.908-1.68-3.348c1.81-5.702,2.739-12.825,3.325-14.448
								c0.215-0.594,0.108-1.312,0-2.028c0-0.695,0-1.389,0-2.079c-1.94,5.064-3.122,10.698-3.415,16.117
								c-0.792,1.997-1.922,3.739-3.668,4.963c-1.252,0.876-2.876,0.583-4.126-0.088c-0.708-0.381-1.108-1.163-1.433-1.851
								c-0.162-0.417-0.287-0.849-0.366-1.292c-0.004-0.028-0.009-0.044-0.017-0.069c0.519-1.425,0.917-2.869,1.278-4.104
								c1.033-3.521,1.604-7.163,2.701-10.665c0.174-0.553,0.095-1.207,0-1.864c0-0.745,0-1.499,0-2.245
								c-1.843,4.659-3.437,9.544-3.989,14.546c-0.521,1.326-1.125,2.62-1.88,3.861c-2.358,3.888-9.135,6.484-10.278,0.513
								c-0.015-0.151-0.026-0.272-0.04-0.372c0.051-0.544,0.115-1.089,0.184-1.631c0.167-1.309,0.422-2.608,0.688-3.901
								c0.683-3.317,1.783-6.372,2.479-9.686c0.099-0.162,0.219-0.768,0.271-0.953c1.187-4.183,4.958-15.051,6.041-19.281
								c1.221-0.307,1.951-0.4,3.245-0.531c5.042-0.516,10.151-0.964,15.178-0.668c4.836,0.287,9.69,0.011,14.485-0.674
								c6.963-1,14.094-2.895,20.081-6.672c3.195-2.012,11.603-7.622,12.159-10.761c-1.286,4.766-16.406,11.146-19.975,12.444
								c-6.029,2.187-12.594,3.222-18.97,3.612c-7.834,0.479-17.535-0.31-25.843,1.259c0.638-2.887,1.812-10.706,1.856-13.121
								c0.013-0.674-0.327-1.227-0.401-1.929c0-0.682-0.152-1.355-0.152-2.034c-0.214,0.968-0.896,6.145-1.093,7.111
								c-0.608,2.879-1.526,7.476-2.091,10.364c-3.464,0.805-7.561,2.688-9.953,6.711c-0.425,1.231,0.425,1.796,0.052,3.256
								c2.087-3.971,5.947-6.758,9.354-7.788c-0.324,1.651-2.999,9.402-3.532,11.243c-1.113,3.828-2.131,7.827-3.497,11.66
								c-1.726,4.841-2.778,10.789-6.125,14.836c-2.443,2.958-6.359-0.39-7.795-3.353c1.604-4.422,3.024-8.896,4.883-13.223
								c0.235-0.583,0.12-1.311,0-2.036c0-0.692,0-1.384,0-2.074c-1.916,4.726-4.492,9.36-5.231,14.408
								c-0.643,1.646-1.342,3.259-2.146,4.819c-2.622,5.092-6.435,1.372-7.747-2.706c-0.068-0.203-0.12-0.351-0.163-0.46
								c0.033-0.077,0.066-0.215,0.095-0.466c0.16-1.37,0.471-2.72,0.788-4.055c0.243-1.024,0.542-2.034,0.863-3.035
								c5.312-2.261,8.367-8.737,9.424-14.167c0.042-0.229,0.018-1.488,0-2.554c0-0.522,0-1.04,0-1.558
								c-4.688,0.408-7.362,8.463-8.7,12.026c-0.247,0.665-0.474,1.331-0.684,1.993c-2.399,0.947-5.737,1.639-7.211-0.245
								c-0.144-1.074-0.363-2.113-0.674-3.088c-0.003,0.027-0.003,0.051-0.004,0.075c-0.138,2.118-0.471,4.825,0.425,6.572
								c-0.207,1.453-0.667,2.866-1.17,4.237c-1.139,3.111-3.131,5.893-5.652,8.015c-4.585,3.854-12.567,2.388-14.343-3.384
								c0.869-3.804,3.384-6.843,6.613-9.121c1.198-0.846,5.191-3.381,6.713-2.186c-0.338,1.234,0.41,2.817,0.02,4.014
								c0.303-0.929,0.46-1.845,0.541-2.769c0.01,0.089,0.031,0.164,0.035,0.264c0-0.224,0-0.44,0-0.661
								c0.069-1.08,0.042-2.174,0.01-3.305c0-0.017-0.005-0.03-0.005-0.047c0-0.01,0-0.018,0-0.026c0,0.004-0.001,0.007-0.003,0.009
								c-0.152-3.462-4.279-1.229-6.017-0.232c-5.264,3.017-7.648,7.579-8.152,13.058c-0.036-0.215-0.065-0.434-0.084-0.659
								c0.001,0.637,0.001,1.277,0.001,1.916c-0.027,0.695-0.032,1.397-0.007,2.119c0.165,4.528,4.584,7.271,8.767,7.417
								c4.343,0.146,7.824-3.656,9.934-6.992c1.897-2.996,3.029-7.048,3.22-11.042c0.591,0.704,1.501,1.146,2.897,1.149
								c1.053,0,2.042-0.151,2.972-0.428c-0.432,2.275-0.665,4.581-0.71,6.94c-0.127-0.21-0.09,0.168-0.004,0.27
								c-0.006,0.26-0.016,0.518-0.016,0.782c0.007,2.867,1.868,10.994,6.064,8.885c2.072-1.044,3.14-4.607,3.92-6.927
								c0,0.002,0,0.006,0,0.009c0,0.257,0,0.513,0.001,0.77c0.004-0.122,0.018-0.242,0.024-0.365
								c0.102,1.146,0.411,2.138,1.317,3.361c1.752,2.354,4.417,4.613,6.99,2.166c2.517-2.395,3.46-6.957,4.513-10.116
								c0.579-1.731,1.184-3.457,1.778-5.184c-0.523,3.076-0.873,6.158-0.866,9.384c0.007,2.021-0.031,4.147,1.091,5.916
								c1.61,2.541,5.616,0.453,7.358-0.737c1.607-1.097,2.697-2.944,3.51-4.925c0.013,0.092,0.028,0.158,0.05,0.181
								c0.036,2.402,0.473,4.835,2.148,6.157c3.496,2.763,5.898-0.745,7.59-5.656c-0.096,2.639,0.104,5.73,1.974,6.567
								c3.539,1.907,8.679-18.369,9.151-22.491c0.279,2.983,1.503,5.361,5.616,5.576c0.77,0.041,1.521-0.016,2.245-0.146
								c-0.732,2.996-1.132,6.054-1.123,9.214c0.013,4.868,1.789,10.102,7.45,6.536c1.765-1.113,3.195-2.803,4.217-4.675
								c0.486,1.813,1.444,3.422,3.115,4.479c8.318,5.267,17.463-4.549,20.305-11.491
								C210.69,160.773,209.73,159.008,210.205,157.846z M192.473,157.589c2.833-2.577,5.131-2.994,5.995-0.216
								c-0.651,2.312-1.861,4.181-4.277,5.225c-1.361,0.591-2.942,0.373-4.337,0.073c-0.483-0.136-0.952-0.315-1.41-0.52
								C189.496,160.479,190.909,159.011,192.473,157.589z M186.675,143.2c-1.208,3.767-3.742,7.415-7.038,9.312
								C181.047,149.239,183.431,144.192,186.675,143.2z M121.827,143.222c-1.251,3.431-3.252,6.701-6.231,8.612
								C116.775,149.02,118.808,144.462,121.827,143.222z"/>
						</g>
					</g>
				</g>
				<g>
					<g>
						<g>
							<path fill="#FFFFFF" d="M129.153,149.306c0.335-0.892,0.742-1.737,1.181-2.567c0.005-0.022,0-0.027,0.005-0.051
								c0.308-1.684-0.357-2.073-0.204-3.354c-0.474,0.822-0.916,1.693-1.287,2.679C128.622,146.617,129.381,148.71,129.153,149.306
								z"/>
						</g>
					</g>
				</g>
			</g>
			<g>
				<g>
					<g>
						<path fill="#FFFFFF" d="M47.396,108.755c3.437,0.45,6.635-0.792,6.674-4.636c0.03-2.949,0.292-5.72-3.086-6.735
							c-4.657-1.402-9.822,0.592-12.628,4.402c-2.019,2.736-1.684,7.361-0.936,10.512c0.973,4.088,4.313,6.891,7.835,8.831
							c3.676,2.021,7.795,3.637,11.809,4.813c4.552,1.334,9.649,1.796,13.885-0.692c3.606-2.118,5.29-6.077,5.359-10.121
							c0.078-4.617,0.15-10.059-5.335-11.355c-6.015-1.414-11.826,1.763-15.445,6.35c-3.457,4.375-4.611,9.371-4.556,14.813
							c0.026,2.643,0.521,5.031,2.279,7.086c2.132,2.497,5.618,3.316,8.727,3.677c-0.183-0.021,0.254-3.121,0-3.221
							c-4.938-1.806-10.14-2.041-14.996,0.149c-4.574,2.062-7.786,6.26-9.531,10.851c-3.103,8.177-1.412,18.318,5.149,24.206
							c6.724,6.039,16.937,8.625,25.801,7.589c4.449-0.522,8.048-2.423,11.111-5.692c2.531-2.712,2.938-5.971,2.676-9.505
							c-0.284-3.806-3.199-6.462-6.196-8.445c-3.331-2.206-7.592-2.674-11.489-2.378c-4.144,0.312-8.057,2.339-10.57,5.667
							c-1.364,1.807-1.438,4.842-0.961,6.998c-0.225-1.016,0.226-2.189,0-3.215c-0.042-0.284-0.083-0.571-0.123-0.851
							c-0.003,1.049-0.004,2.104-0.005,3.156c0.257-3.253,3.442-5.57,6.067-7.009c2.982-1.635,6.645-1.797,9.953-1.491
							c5.616,0.52,12.857,4.521,13.324,10.778c-0.004-0.265-0.009-0.53-0.013-0.794c-0.011-2.216-0.416,0.291-0.678,0.919
							c-0.377,0.899-0.967,1.696-1.562,2.454c-1.357,1.732-3.215,3.238-5.137,4.307c-2.828,1.566-6.235,2.01-9.417,2.101
							c-7.729,0.22-15.844-2.315-21.934-7.095c-3.428-2.687-5.834-6.307-6.848-10.544c-0.904-3.774,0.528-8.045,2.65-11.724
							c4.687-8.126,14.331-10.287,22.728-7.212c0-1.07,0-2.144,0-3.221c-5.069-0.58-9.779-2.733-10.826-8.169
							c-0.361-1.879,0.729-4.296,1.439-5.993c0.962-2.302,2.379-4.405,4.016-6.277c3.139-3.585,7.376-5.288,12.112-5.288
							c2.064,0,4.211,0.517,5.691,2.026c0.664,0.678,1.052,1.591,1.366,2.467c0.168,0.475,0.262,0.981,0.357,1.476
							c0.085,0.496,0.137,0.999,0.158,1.508c-0.009-1.208-0.051-1.375-0.123-0.503c-0.529,4.463-3.476,7.989-7.712,9.459
							c-4.597,1.597-9.893,0.159-14.289-1.4c-3.733-1.32-7.611-2.915-10.935-5.084c-1.611-1.054-3.01-2.378-4.13-3.941
							c-0.586-0.817-1.009-1.731-1.368-2.667c-0.192-0.502-0.316-1.024-0.438-1.541c-0.08-0.369-0.142-0.737-0.189-1.112
							c-0.007,0.49,0.047,0.402,0.163-0.26c1.548-5.86,9.418-8.255,14.603-6.28c0.903,0.346,1.508,1.008,1.885,1.87
							c0.414,0.959-0.094,1.793,0.24-0.748c-0.058,0.441-0.224,0.855-0.407,1.26c-1.065,2.355-3.979,2.546-6.193,2.256
							C47.511,105.551,47.235,108.734,47.396,108.755L47.396,108.755z"/>
					</g>
				</g>
				<path fill="#FFFFFF" d="M59.886,98.193c1.696,0.112,3.189,0.021,4.815-0.571c0.948,0.798,5.287,0.269,7.516-1.457
					c-2.849,0.931-4.463,0.86-5.778,0.721c1.627-0.298,5.517-0.25,9.274-3.477c3.365-2.885,4.674-7.013,6.281-10.333
					c-3.435,4.451-6.74,5.315-9.526,7.091c-3.19,2.031-7.475,4.432-8.103,6.901C63.354,97.58,62,98.03,59.886,98.193z"/>
			</g>
		</g>
	</g>
</g>
<g>
</g>
<g>
</g>
<g>
</g>
<g>
</g>
<g>
</g>
<g>
</g>
</svg>
