<?xml version="1.0" encoding="utf-8"?>
<!-- Generator: Adobe Illustrator 16.0.0, SVG Export Plug-In . SVG Version: 6.00 Build 0)  -->
<!DOCTYPE svg PUBLIC "-//W3C//DTD SVG 1.1//EN" "http://www.w3.org/Graphics/SVG/1.1/DTD/svg11.dtd">
<svg version="1.1" id="Calque_1" xmlns="http://www.w3.org/2000/svg" xmlns:xlink="http://www.w3.org/1999/xlink" x="0px" y="0px"
	 width="250px" height="250px" viewBox="0 0 250 250" enable-background="new 0 0 250 250" xml:space="preserve">
<g>
	<path d="M1.869,207.428v-32.802h3.255v29.547h11.934v3.255H1.869z"/>
	<path d="M41.249,207.428h-3.254v-2.424c-2.139,1.984-4.801,2.978-7.987,2.978c-3.17,0-5.878-1.123-8.125-3.37
		s-3.37-4.955-3.37-8.125c0-3.187,1.123-5.898,3.37-8.137c2.247-2.239,4.956-3.359,8.125-3.359c3.186,0,5.848,0.985,7.987,2.955
		v-1.224h3.254V207.428z M37.995,198.147v-3.323c-0.292-1.539-1.031-2.908-2.216-4.109c-1.6-1.6-3.524-2.4-5.771-2.4
		s-4.167,0.801-5.759,2.4c-1.593,1.601-2.39,3.524-2.39,5.771c0,2.246,0.793,4.163,2.378,5.747c1.585,1.585,3.509,2.378,5.771,2.378
		c2.247,0,4.17-0.801,5.771-2.4C36.964,201.025,37.703,199.672,37.995,198.147z"/>
	<path d="M45.589,174.626h3.255v13.272c2.139-1.938,4.793-2.908,7.963-2.908c3.17,0,5.878,1.12,8.125,3.359
		c2.247,2.238,3.37,4.95,3.37,8.137c0,3.17-1.124,5.878-3.37,8.125c-2.247,2.247-4.955,3.37-8.125,3.37
		c-3.17,0-5.825-0.978-7.963-2.932v2.378h-3.255V174.626z M48.844,194.731v3.531c0.277,1.478,1.008,2.793,2.192,3.948
		c1.601,1.6,3.524,2.4,5.771,2.4c2.247,0,4.167-0.793,5.759-2.378c1.593-1.584,2.389-3.501,2.389-5.747
		c0-2.247-0.796-4.171-2.389-5.771c-1.593-1.6-3.512-2.4-5.759-2.4c-2.247,0-4.17,0.801-5.771,2.4
		C49.852,191.9,49.121,193.238,48.844,194.731z"/>
	<path d="M74.513,196.231c0.031,2.416,0.839,4.418,2.424,6.002c1.585,1.585,3.508,2.378,5.771,2.378c2.246,0,4.17-0.801,5.771-2.4
		c0.277-0.277,0.646-0.7,1.108-1.27l3.232,1.131c-0.569,0.954-1.231,1.792-1.985,2.516c-2.231,2.263-4.94,3.394-8.125,3.394
		c-3.17,0-5.879-1.123-8.126-3.37c-2.247-2.247-3.37-4.955-3.37-8.125c0-3.187,1.124-5.898,3.37-8.137
		c2.247-2.239,4.956-3.359,8.126-3.359c3.185,0,5.901,1.124,8.148,3.37c1.985,2.001,2.978,4.625,2.978,7.871H74.513z
		 M75.228,192.954h14.866c-0.185-0.585-0.723-1.331-1.616-2.239c-1.6-1.6-3.524-2.4-5.771-2.4c-2.263,0-4.186,0.801-5.771,2.4
		C75.982,191.685,75.413,192.431,75.228,192.954z"/>
	<path d="M100.458,174.626v32.802h-3.254v-32.802H100.458z"/>
	<path d="M134.46,174.626v3.231h-13.896v11.542h13.896v3.255h-13.896v11.519h13.896v3.255h-17.15v-32.802H134.46z"/>
	<path d="M156.412,201.172l3.278,1.224c-0.755,1.016-1.354,1.747-1.801,2.192c-2.247,2.263-4.963,3.394-8.148,3.394
		c-3.17,0-5.878-1.123-8.125-3.37s-3.37-4.963-3.37-8.148c0-3.17,1.123-5.875,3.37-8.113c2.247-2.239,4.955-3.359,8.125-3.359
		c3.186,0,5.894,1.124,8.125,3.37c0.463,0.446,1.069,1.177,1.824,2.193l-3.278,1.199c-0.4-0.491-0.707-0.846-0.923-1.062
		c-1.585-1.584-3.501-2.377-5.748-2.377s-4.163,0.797-5.748,2.389c-1.584,1.594-2.377,3.513-2.377,5.76
		c0,2.263,0.793,4.187,2.377,5.771c1.585,1.585,3.501,2.378,5.748,2.378s4.17-0.801,5.771-2.4
		C155.713,202.011,156.012,201.664,156.412,201.172z"/>
	<path d="M171.855,189.537c-1.493,0.293-2.678,0.886-3.555,1.778c-1.539,1.523-2.331,3.34-2.378,5.447v10.665h-3.255v-20.706h3.255
		v2.193c1.154-1.154,2.539-1.986,4.154-2.494L171.855,189.537z"/>
	<path d="M177.949,180.639c0.492,0.485,0.738,1.066,0.738,1.743c0,0.708-0.246,1.305-0.738,1.789
		c-0.492,0.485-1.077,0.727-1.755,0.727c-0.692,0-1.285-0.241-1.776-0.727c-0.492-0.484-0.739-1.081-0.739-1.789
		c0-0.677,0.247-1.258,0.739-1.743c0.491-0.484,1.084-0.727,1.776-0.727C176.872,179.912,177.457,180.154,177.949,180.639z
		 M177.788,186.722v20.706h-3.232v-20.706H177.788z"/>
	<path d="M185.175,186.722v-8.194h3.231v8.194h3.924v3.255h-3.924v17.451h-3.231v-17.451h-3.925v-3.255H185.175z"/>
	<path d="M203.757,207.705c-2.616,0-4.706-0.781-6.268-2.344c-1.562-1.562-2.366-3.535-2.412-5.921v-12.741h3.255v12.58
		c0,1.415,0.515,2.632,1.547,3.646c1.03,1.032,2.315,1.547,3.854,1.547c1.415,0,2.64-0.508,3.67-1.523
		c1.032-1.016,1.547-2.239,1.547-3.67v-12.58h3.255v12.741c-0.046,2.386-0.854,4.355-2.424,5.909
		C208.228,206.92,206.219,207.705,203.757,207.705z"/>
	<path d="M225.178,189.537c-1.493,0.293-2.678,0.886-3.555,1.778c-1.539,1.523-2.331,3.34-2.378,5.447v10.665h-3.254v-20.706h3.254
		v2.193c1.154-1.154,2.54-1.986,4.155-2.494L225.178,189.537z"/>
	<path d="M229.679,196.231c0.031,2.416,0.84,4.418,2.424,6.002c1.586,1.585,3.509,2.378,5.771,2.378c2.247,0,4.17-0.801,5.771-2.4
		c0.276-0.277,0.646-0.7,1.108-1.27l3.23,1.131c-0.568,0.954-1.23,1.792-1.984,2.516c-2.231,2.263-4.939,3.394-8.125,3.394
		c-3.171,0-5.879-1.123-8.125-3.37c-2.247-2.247-3.371-4.955-3.371-8.125c0-3.187,1.124-5.898,3.371-8.137
		c2.246-2.239,4.954-3.359,8.125-3.359c3.186,0,5.901,1.124,8.148,3.37c1.984,2.001,2.978,4.625,2.978,7.871H229.679z
		 M230.395,192.954h14.866c-0.186-0.585-0.724-1.331-1.616-2.239c-1.601-1.6-3.523-2.4-5.771-2.4c-2.263,0-4.186,0.801-5.771,2.4
		C231.148,191.685,230.579,192.431,230.395,192.954z"/>
</g>
<path fill="none" stroke="#000000" stroke-miterlimit="10" d="M81.493,144.72"/>
<path d="M112.829,160.843c0,0-1.394-0.359-4.007-1.033c-0.327-0.086-0.672-0.176-1.036-0.271c-0.358-0.126-0.733-0.259-1.128-0.397
	c-0.789-0.282-1.65-0.592-2.581-0.925c-0.948-0.302-1.909-0.751-2.936-1.224c-1.022-0.483-2.143-0.937-3.27-1.527
	c-4.53-2.317-9.758-5.782-14.864-10.784c-5.067-4.99-10.148-11.501-13.581-19.686c-0.423-1.021-0.851-2.056-1.284-3.1
	c-0.372-1.065-0.701-2.157-1.057-3.254c-0.176-0.55-0.352-1.103-0.529-1.656c-0.181-0.553-0.275-1.131-0.417-1.701
	c-0.262-1.146-0.526-2.302-0.793-3.466c-0.229-1.173-0.354-2.375-0.537-3.577c-0.175-1.204-0.36-2.417-0.387-3.654
	c-0.066-1.235-0.133-2.479-0.201-3.731c-0.023-1.335,0.012-2.471,0.037-3.747c0.215-5.181,1.086-10.326,2.636-15.479
	c1.59-5.116,3.815-10.173,6.756-14.907c5.891-9.458,14.596-17.601,25.008-22.889c5.189-2.672,10.805-4.575,16.577-5.745
	c2.899-0.521,5.824-0.944,8.772-1.081c0.735-0.065,1.474-0.062,2.211-0.078c0.751-0.005,1.442-0.044,2.243-0.02
	c1.441,0.055,2.855,0.065,4.365,0.222c5.929,0.446,11.696,1.79,17.207,3.824c2.738,1.055,5.41,2.265,7.975,3.654
	c2.541,1.428,5.03,2.943,7.34,4.689c9.32,6.88,16.506,16.2,20.761,26.331c2.124,5.067,3.552,10.319,4.307,15.543
	c0.333,2.617,0.596,5.219,0.604,7.797c0.001,0.662,0.053,1.246,0.006,1.967c-0.035,0.629-0.07,1.256-0.106,1.882
	c-0.069,1.25-0.14,2.494-0.209,3.728c-1.132,10.078-4.517,19.093-9.096,26.53c-4.556,7.465-10.36,13.173-16.009,17.388
	c-5.675,4.249-11.358,6.795-16.087,8.544c-1.2,0.401-2.336,0.78-3.404,1.137c-1.066,0.362-2.118,0.524-3.068,0.771
	c-0.956,0.221-1.842,0.426-2.651,0.614c-0.807,0.209-1.569,0.24-2.236,0.353c-2.682,0.36-4.113,0.554-4.113,0.554l-0.036-0.392
	c0,0,1.416-0.216,4.075-0.621c0.66-0.122,1.414-0.165,2.211-0.387c0.802-0.2,1.675-0.419,2.62-0.655
	c0.937-0.261,1.973-0.438,3.024-0.815c1.052-0.371,2.169-0.766,3.351-1.182c4.647-1.812,10.215-4.422,15.729-8.7
	c5.489-4.245,11.089-9.948,15.419-17.326c0.517-0.933,1.039-1.876,1.565-2.829c0.262-0.479,0.538-0.949,0.788-1.438
	c0.222-0.504,0.444-1.008,0.667-1.516c0.446-1.017,0.897-2.039,1.353-3.072c0.442-1.039,0.739-2.143,1.122-3.225
	c1.562-4.329,2.341-9.047,2.923-13.822c0.049-1.234,0.098-2.479,0.147-3.73c0.024-0.626,0.048-1.254,0.072-1.884
	c0.031-0.538-0.027-1.22-0.035-1.825c-0.041-2.499-0.329-5.014-0.683-7.541c-0.794-5.042-2.239-10.091-4.347-14.947
	c-4.227-9.709-11.254-18.57-20.26-25.042c-2.232-1.644-4.632-3.06-7.077-4.395c-2.469-1.296-5.031-2.417-7.654-3.39
	c-5.262-1.87-10.825-3.083-16.384-3.428c-1.355-0.126-2.822-0.116-4.256-0.146c-0.638-0.012-1.384,0.038-2.069,0.054
	c-0.7,0.025-1.4,0.033-2.097,0.108c-2.795,0.173-5.559,0.623-8.291,1.157c-5.441,1.197-10.708,3.077-15.554,5.675
	c-9.703,5.162-17.801,12.855-23.236,21.763c-2.783,4.414-4.896,9.135-6.419,13.918c-1.466,4.785-2.333,9.721-2.674,14.413
	c-0.331,4.883,0.061,9.498,0.698,13.991c0.227,1.108,0.451,2.207,0.674,3.296c0.122,0.542,0.195,1.094,0.356,1.622
	c0.156,0.527,0.311,1.054,0.465,1.577c0.314,1.047,0.6,2.093,0.928,3.112c0.387,1,0.771,1.991,1.152,2.972
	c0.189,0.49,0.378,0.979,0.566,1.465c0.226,0.468,0.451,0.935,0.674,1.397c0.447,0.929,0.89,1.847,1.327,2.755
	c0.443,0.906,0.989,1.743,1.469,2.603c0.511,0.842,0.947,1.72,1.502,2.505c2.141,3.195,4.379,6.106,6.767,8.588
	c1.207,1.227,2.319,2.479,3.57,3.498c1.227,1.042,2.334,2.146,3.57,2.991c1.21,0.874,2.309,1.813,3.465,2.551
	c1.16,0.738,2.267,1.44,3.316,2.108c1.067,0.64,2.135,1.144,3.111,1.675c0.981,0.523,1.901,1.019,2.802,1.362
	c0.891,0.378,1.715,0.729,2.47,1.049c0.378,0.163,0.739,0.318,1.082,0.465c0.356,0.121,0.694,0.236,1.014,0.344
	c2.558,0.861,3.923,1.319,3.923,1.319L112.829,160.843z"/>
<path fill="#010202" d="M113.396,149.693c0,0,0.624-16.678-8.729-21.799c2.382,0.089,6.97,5.032,6.97,5.032
	s-6.614-14.562,0.889-23.827c-1.705,5.416,0.956,5.162,0.956,5.162s-1.311-7.473,6.726-19.189c-0.266,4.761,2.414,6.364,2.414,6.364
	s2.599-12.805,7.474-15.54c-2.562,4.677-0.098,7.332-0.098,7.332s5.457-6.943,4.226-11.419c1.73,3.422,0.547,6.647,0.547,6.647
	s6.341-6.479,3.665-12.942c2.301,3.585,1.369,5.972,1.369,5.972s2.69-3.434,0.533-14.296c2.508,3.806,2.116,7.237,2.116,7.237
	s5.122-9.353,0.978-26.209c6.972,5.032,8.909,17.034,8.819,19.417c0,0,2.471-2.292,2.561-4.676
	c2.293,2.472,2.165,15.369-0.396,20.044c3.103-0.237,4.754-9.012,4.754-9.012s0.833,13.198-4.142,18.668c0,0,3.509-1.725,6.07-6.4
	c-3.533,14.182-9.851,24.816-19.648,31.609c7.235-2.116,11.856-7.51,14.414-12.187c-0.086,2.383-8.297,16.391-18.458,21.049
	c1.626,1.254,7.678-2.1,10.15-4.392c-0.088,2.381-14.831,18.532-24.451,20.561c1.893,1.396,6.345,0.501,9.384-0.447
	c-2.472,2.295-9.386,2.832-11.767,2.743c0,0,2.292,2.472,2.204,4.854C122.927,150.051,118.339,145.107,113.396,149.693z"/>
<polygon fill="#010202" points="113.836,146.094 112.22,154.257 110.738,155.776 113.271,161.031 116.317,155.969 114.911,154.596 
	115.896,147.14 "/>
<path fill="#FFFFFF" d="M114.42,148.692c0.941-6.143,7.164-16.143,10.752-23.305c4.749-9.48,10.025-18.598,15.023-25.99
	c10.164-15.038,8.829-30.556,8.829-30.556c-1.104,7.818-2.465,18.238-10.684,30.486c-4.101,6.11-9.909,15.621-14.666,25.165
	C119.374,133.12,114.604,143.523,114.42,148.692z"/>
<g>
</g>
<g>
</g>
<g>
</g>
<g>
</g>
<g>
</g>
<g>
</g>
</svg>
