<?xml version="1.0" encoding="utf-8"?>
<!-- Generator: Adobe Illustrator 16.0.0, SVG Export Plug-In . SVG Version: 6.00 Build 0)  -->
<!DOCTYPE svg PUBLIC "-//W3C//DTD SVG 1.1//EN" "http://www.w3.org/Graphics/SVG/1.1/DTD/svg11.dtd">
<svg version="1.1" id="Calque_1" xmlns="http://www.w3.org/2000/svg" xmlns:xlink="http://www.w3.org/1999/xlink" x="0px" y="0px"
	 width="250px" height="250px" viewBox="0 0 250 250" enable-background="new 0 0 250 250" xml:space="preserve">
<g>
	<path d="M17.058,204.842v2.177c0,0.345-0.267,0.65-0.649,0.65l-13.677,0.114c-0.344,0-0.649-0.268-0.649-0.649l-0.115-5.922
		v-13.601l0.115-5.921c0-0.345,0.306-0.65,0.649-0.65h2.292c0.344,0,0.649,0.306,0.649,0.65l0.115,5.921v13.601l-0.077,2.903
		l10.697,0.115C16.791,204.23,17.058,204.498,17.058,204.842z"/>
	<path d="M38.107,207.019c0,0.42-0.344,0.765-0.803,0.765H35.28c-0.382,0-0.726-0.345-0.764-0.765l-0.038-1.681
		c0-0.114-0.115-0.152-0.191-0.076c-1.032,1.414-3.477,2.521-5.463,2.521c-5.234,0-9.437-4.202-9.437-9.436
		c0-5.197,4.203-9.438,9.437-9.438c5.043,0,9.131,3.974,9.36,8.979C38.451,202.894,38.107,207.019,38.107,207.019z M34.363,199.072
		c0.497-3.668-2.598-6.762-6.304-6.304c-2.483,0.344-4.508,2.331-4.813,4.852c-0.458,3.669,2.636,6.763,6.304,6.305
		C32.033,203.618,34.057,201.595,34.363,199.072z"/>
	<path d="M42.268,180.925c0-0.42,0.382-0.763,0.802-0.763h2.025c0.42,0,0.764,0.343,0.764,0.763l0.038,10.392
		c0,0.115,0.152,0.154,0.229,0.077c1.07-1.413,3.477-2.483,5.463-2.483c5.196,0,9.398,4.24,9.398,9.438
		c0,5.233-4.203,9.436-9.398,9.436c-5.081,0-9.169-3.974-9.398-8.979C41.924,193.839,42.268,180.925,42.268,180.925z M46.012,197.62
		c-0.458,3.669,2.598,6.763,6.304,6.305c2.483-0.307,4.508-2.33,4.814-4.853c0.458-3.668-2.598-6.762-6.304-6.304
		C48.342,193.112,46.317,195.1,46.012,197.62z"/>
	<path d="M82.952,197.735c-0.038,1.069-1.184,1.91-2.254,1.91h-11.69c-0.229,0-0.382,0.191-0.344,0.421
		c0.726,2.94,3.171,4.049,5.807,4.049c1.49,0,3.286-0.725,4.508-1.833c0.268-0.268,0.726-0.268,0.993,0l1.528,1.489
		c0.306,0.268,0.306,0.765,0,1.031c-2.254,2.216-4.699,2.98-7.105,2.98c-5.922,0-10.316-4.89-9.513-10.926
		c0.688-5.272,5.349-8.405,10.621-7.87c4.279,0.458,7.488,4.584,7.488,7.87C82.99,196.857,82.99,197.238,82.952,197.735z
		 M68.969,196.36c-0.076,0.229,0.077,0.497,0.344,0.497h9.818c0.268,0,0.42-0.268,0.344-0.497c-0.573-1.949-1.948-4.164-5.004-4.164
		C71.605,192.196,69.504,194.221,68.969,196.36z"/>
	<path d="M91.239,179.741l0.115,6.113v15.129l-0.115,6.15c0,0.344-0.306,0.649-0.649,0.649h-2.254c-0.344,0-0.649-0.306-0.649-0.649
		l-0.115-6.15v-15.129l0.115-6.113c0-0.382,0.306-0.649,0.649-0.649h2.254C90.934,179.092,91.239,179.359,91.239,179.741z"/>
	<path d="M132.344,181.804v2.179c0,0.344-0.268,0.611-0.649,0.611l-12.493,0.114l0.039,2.903v5.655l8.672,0.075
		c0.344,0.038,0.649,0.306,0.649,0.649v2.178c0,0.344-0.306,0.611-0.649,0.611l-8.672,0.115v4.316l-0.039,2.903l12.493,0.115
		c0.382,0,0.649,0.268,0.649,0.611v2.177c0,0.345-0.268,0.65-0.649,0.65l-15.511,0.114c-0.344,0-0.649-0.268-0.649-0.649
		l-0.115-5.922v-13.601l0.115-5.921c0-0.345,0.306-0.65,0.649-0.65l15.511,0.114C132.038,181.154,132.344,181.422,132.344,181.804z"
		/>
	<path d="M151.367,203.733c0.306,0.268,0.306,0.727,0.037,0.993c-1.757,1.91-4.394,3.095-7.372,3.057
		c-5.196-0.038-9.398-4.202-9.398-9.397c0-5.235,3.667-9.476,9.474-9.476c2.942,0,5.808,1.413,7.297,3.094
		c0.23,0.307,0.191,0.727-0.075,0.995l-1.567,1.451c-0.268,0.267-0.687,0.267-0.955,0.039c-1.375-1.262-2.75-1.911-4.736-1.911
		c-3.478,0-5.616,2.33-5.616,5.808c0,3.438,1.91,5.729,5.653,5.729c1.949,0,3.515-0.764,4.814-1.871
		c0.267-0.229,0.688-0.191,0.917,0.038L151.367,203.733z"/>
	<path d="M166.951,192.501l-1.414,1.3c-0.267,0.19-0.611,0.152-0.841-0.039c-2.482-1.795-5.348-0.305-5.348,2.445l-0.039,10.774
		c0,0.457-0.343,0.802-0.802,0.802h-1.911c-0.457,0-0.802-0.345-0.802-0.802l0.191-12.837c0-1.987-0.344-3.019-0.458-3.896
		c-0.076-0.345,0.229-0.688,0.611-0.688l2.444-0.42c0.269,0,0.536,0.19,0.649,0.459c0.115,0.343,0.115,0.42,0.115,0.42
		c2.521-1.185,5.577-0.649,7.64,1.489C167.257,191.813,167.257,192.234,166.951,192.501z"/>
	<path d="M175.431,184.86c0,1.3-1.107,2.369-2.407,2.369c-1.337,0-2.407-1.069-2.407-2.369c0-1.337,1.07-2.406,2.407-2.406
		C174.323,182.454,175.431,183.523,175.431,184.86z M174.131,188.91h-2.215c-0.383,0-0.688,0.306-0.688,0.688l-0.115,6.112v5.272
		l0.115,6.15c0,0.344,0.306,0.649,0.688,0.649h2.215c0.382,0,0.65-0.306,0.65-0.649l0.153-6.15v-5.272l-0.153-6.112
		C174.781,189.216,174.513,188.91,174.131,188.91z"/>
	<path d="M191.551,189.903v2.254c0,0.382-0.306,0.649-0.649,0.688l-3.782,0.114v8.023l-0.152,6.15c0,0.344-0.306,0.649-0.651,0.649
		h-2.215c-0.382,0-0.688-0.306-0.688-0.649l-0.114-6.15v-8.023l-3.782-0.114c-0.383-0.039-0.65-0.307-0.65-0.649v-2.293
		c0-0.382,0.268-0.649,0.65-0.688l3.782-0.114v-3.247l0.114-6.113c0-0.382,0.306-0.649,0.688-0.649h2.215
		c0.346,0,0.651,0.268,0.651,0.649l0.152,6.113v3.247l3.782,0.114C191.245,189.254,191.551,189.521,191.551,189.903z"/>
	<path d="M195.521,189.599c0-0.383,0.306-0.688,0.688-0.688h2.102c0.383,0,0.688,0.306,0.688,0.688l0.152,10.162
		c0,5.959,8.52,5.959,8.52,0l0.115-10.162c0-0.383,0.306-0.688,0.688-0.688h2.139c0.383,0,0.688,0.306,0.688,0.688l0.114,10.62
		l-0.037,6.533c0,0.382-0.308,0.687-0.688,0.687h-2.292c-0.344,0-0.649-0.267-0.688-0.648v-0.955
		c-0.917,1.261-2.33,1.948-4.316,1.948c-5.464,0-8.023-3.974-8.023-8.022L195.521,189.599z"/>
	<path d="M227.151,192.501l-1.414,1.3c-0.267,0.19-0.611,0.152-0.84-0.039c-2.483-1.795-5.349-0.305-5.349,2.445l-0.037,10.774
		c0,0.457-0.345,0.802-0.803,0.802h-1.911c-0.459,0-0.802-0.345-0.802-0.802l0.19-12.837c0-1.987-0.344-3.019-0.459-3.896
		c-0.075-0.345,0.23-0.688,0.611-0.688l2.445-0.42c0.268,0,0.535,0.19,0.649,0.459c0.115,0.343,0.115,0.42,0.115,0.42
		c2.521-1.185,5.577-0.649,7.641,1.489C227.457,191.813,227.457,192.234,227.151,192.501z"/>
	<path d="M247.436,197.735c-0.038,1.069-1.185,1.91-2.253,1.91h-11.691c-0.229,0-0.382,0.191-0.344,0.421
		c0.727,2.94,3.172,4.049,5.808,4.049c1.489,0,3.285-0.725,4.508-1.833c0.267-0.268,0.726-0.268,0.993,0l1.528,1.489
		c0.306,0.268,0.306,0.765,0,1.031c-2.255,2.216-4.699,2.98-7.105,2.98c-5.922,0-10.315-4.89-9.514-10.926
		c0.688-5.272,5.35-8.405,10.621-7.87c4.279,0.458,7.487,4.584,7.487,7.87C247.474,196.857,247.474,197.238,247.436,197.735z
		 M233.453,196.36c-0.076,0.229,0.076,0.497,0.344,0.497h9.819c0.267,0,0.42-0.268,0.344-0.497
		c-0.573-1.949-1.948-4.164-5.005-4.164C236.09,192.196,233.988,194.221,233.453,196.36z"/>
</g>
<g>
	<path fill="#3062AC" d="M128.241,166.862c13.373,0,25.803-4.02,36.163-10.905H92.079
		C102.439,162.843,114.869,166.862,128.241,166.862z"/>
	<path fill="#1D3E7F" d="M92.079,155.957h72.326c5.727-3.804,10.812-8.491,15.077-13.859H77
		C81.267,147.466,86.353,152.153,92.079,155.957z"/>
	<path fill="#2C2F76" d="M77,142.098h102.481c3.25-4.088,6.019-8.57,8.224-13.368H68.777C70.984,133.527,73.751,138.01,77,142.098z"
		/>
	<path fill="#3E2251" d="M68.777,128.729h118.928c1.956-4.254,3.474-8.753,4.485-13.44H64.293
		C65.304,119.977,66.821,124.475,68.777,128.729z"/>
	<path fill="#60111D" d="M64.293,115.29H192.19c0.964-4.469,1.485-9.103,1.485-13.86H62.808
		C62.808,106.187,63.328,110.82,64.293,115.29z"/>
	<path fill="#8E1913" d="M62.808,101.429h130.868c0-4.758-0.521-9.392-1.485-13.862H64.293
		C63.328,92.037,62.808,96.671,62.808,101.429z"/>
	<path fill="#BF1A18" d="M64.293,87.567H192.19c-1.007-4.66-2.512-9.133-4.452-13.368H68.745
		C66.805,78.434,65.298,82.907,64.293,87.567z"/>
	<path fill="#D64915" d="M68.745,74.199h118.993c-2.287-4.988-5.178-9.641-8.587-13.86H77.332
		C73.922,64.558,71.032,69.211,68.745,74.199z"/>
	<path fill="#EE7236" d="M77.332,60.339h101.82c-4.171-5.16-9.104-9.676-14.637-13.369H91.969
		C86.436,50.663,81.502,55.179,77.332,60.339z"/>
	<path fill="#F39A1A" d="M128.241,35.995c-13.419,0-25.89,4.046-36.272,10.975h72.546C154.131,40.042,141.661,35.995,128.241,35.995
		z"/>
</g>
<path fill="#FFFFFF" d="M57.138,127.699c2.496-7.508,9.291-11.976,17.034-12.54c6.946-0.506,13.381,2.756,19.612,5.351
	c10.702,4.459,24.337,10.153,35.399,3.608c1.012-0.599,0.948-1.284-0.328-1.226c-8.716,0.393-14.75-3.557-21.11-8.974
	c-1.134,0.5-2.269,1-3.403,1.499c4.589,1.831,9.659,2.341,14.511,3.062c4.513,0.671,8.796,1.444,13.38,1.326
	c5.475-0.139,16.669-1.159,18.504-7.743c0.249-0.894-1.778-0.483-2.113-0.397c-5.772,1.481-10.011,0.727-13.848-4.001
	c-1.134,0.5-2.269,0.999-3.403,1.498c5.522,1.657,11.416,0.767,16.929-0.471c4.907-1.103,10.302-2.724,14.613-5.391
	c10.308-6.374,13.362-18.867,19.097-28.768c0.557-0.959-2.814-0.169-3.067-0.037c-7.475,3.896-15.354,5.166-23.506,6.781
	c-2.935,0.581-7.252,1.556-9.818-0.477c-1.255-0.995,2.104-1.521,2.738-1.693c0.934-0.254,1.863-0.549,2.718-1.007
	c0.35-0.188,1.325-0.914,0.437-1.158c-11.772-3.23-25.61,3.183-33.064,12.291c1.232-0.134,2.464-0.269,3.696-0.404
	c1.286-3.879,2.48-7.807,6.173-10.052c0.693-0.421,0.432-0.921-0.269-1.004c-5.511-0.655-11.15,1.024-16.305,2.797
	c-6.376,2.193-12.48,5.258-18.245,8.735c-4.742,2.861-8.84,6.259-12.325,10.571c-2.549,3.156-6.857,10.72-0.183,11.424
	c5.516,0.582,11.81-2.347,16.542-4.829c3.258-1.708,6.046-3.919,9.541-5.212c4.264-1.577,8.939-2.052,13.447-2.267
	c7.355-0.35,14.537,1.291,21.832-0.218c7.948-1.643,14.923-5.97,20.744-11.511c0.938-0.894-2.816-0.512-3.546,0.182
	c-5.715,5.439-12.585,9.608-20.584,10.294c-3.132,0.269-6.276-0.277-9.4-0.453c-3.151-0.177-6.315-0.13-9.464,0.066
	c-5.654,0.354-11.473,1.412-16.679,3.708c-5.506,2.429-10.005,6.162-15.9,7.873c-1.594,0.462-4.848,1.46-6.02-0.312
	c-1.488-2.251,1.448-6.502,2.669-8.211c2.768-3.877,6.398-6.968,10.343-9.578c4.79-3.169,10.01-5.762,15.322-7.926
	c4.834-1.97,10.428-4.026,15.734-3.395c-0.09-0.334-0.179-0.669-0.27-1.004c-4.089,2.485-5.564,6.6-7.004,10.946
	c-0.375,1.135,3.257,0.132,3.696-0.404c6.072-7.418,16.619-13.166,26.357-10.494c0.145-0.386,0.29-0.772,0.436-1.159
	c-2.227,1.193-6.046,0.838-7.414,3.391c-1.455,2.719,7.177,2.889,8.074,2.844c4.803-0.239,9.668-1.574,14.392-2.401
	c6.1-1.067,11.915-3.181,17.394-6.036c-1.022-0.012-2.045-0.025-3.067-0.037c-4.827,8.336-7.548,18.076-14.517,25.023
	c-3.29,3.279-7.851,4.84-12.201,6.156c-5.354,1.618-11.431,2.854-16.913,1.208c-0.622-0.187-4.24,0.465-3.402,1.499
	c4.829,5.951,10.96,5.814,17.872,4.041c-0.704-0.133-1.409-0.265-2.113-0.397c-1.683,6.035-12.526,5.597-17.336,5.285
	c-3.438-0.224-6.871-1.035-10.276-1.539c-3.973-0.587-8.023-1.136-11.775-2.633c-0.667-0.266-4.288,0.745-3.403,1.498
	c7.013,5.974,13.634,9.771,23.123,9.344c-0.109-0.409-0.22-0.817-0.329-1.226c-6.436,3.808-14.692,1.137-21.231-1.119
	c-6.572-2.266-12.806-5.413-19.396-7.621c-11.968-4.007-28.708,0.807-32.976,13.647C52.978,129.269,56.781,128.772,57.138,127.699
	L57.138,127.699z"/>
<g>
</g>
<g>
</g>
<g>
</g>
<g>
</g>
<g>
</g>
<g>
</g>
</svg>
