<?xml version="1.0" encoding="utf-8"?>
<!-- Generator: Adobe Illustrator 16.0.0, SVG Export Plug-In . SVG Version: 6.00 Build 0)  -->
<!DOCTYPE svg PUBLIC "-//W3C//DTD SVG 1.1//EN" "http://www.w3.org/Graphics/SVG/1.1/DTD/svg11.dtd">
<svg version="1.1" id="Calque_1" xmlns="http://www.w3.org/2000/svg" xmlns:xlink="http://www.w3.org/1999/xlink" x="0px" y="0px"
	 width="250px" height="250px" viewBox="0 0 250 250" enable-background="new 0 0 250 250" xml:space="preserve">
<g>
	<path d="M96.472,169.59c4.917,0,7.716-5.188,8.211-9.746H105c-0.271,2.346-1.218,6.812-4.963,9.069
		c-1.263,0.767-3.113,1.081-5.052,1.081c-10.514,0-13.13-7.488-13.13-11.73c0-6.495,5.91-12.542,13.761-12.542
		c2.573,0,4.152,0.631,6.092,2.301c1.263,1.084,2.617,2.888,2.617,4.782c0,1.805-0.994,5.234-4.918,5.234
		c-2.888,0-5.144-1.941-5.144-4.873c0-2.752,1.941-4.603,5.054-4.603c0.947,0,1.715,0.181,2.12,0.406
		c-0.497-1.624-2.841-2.842-5.278-2.842c-3.836,0-4.784,4.421-4.784,12.542C91.374,163.363,91.51,169.59,96.472,169.59z"/>
	<path d="M121.423,147.481c-1.308,1.488-1.49,3.338-1.49,6.226v11.325c0,3.338,0.272,4.423,3.79,4.423v0.27h-16.738v-0.27
		c3.52,0,3.835-1.085,3.835-4.423v-14.438c0-3.338-0.316-4.286-3.835-4.286v-0.314h12.542v4.691c0.632-2.527,2.03-4.963,5.37-4.963
		c3.159,0,4.647,2.527,4.647,5.233c0,2.888-1.941,4.737-4.332,4.737c-2.211,0-4.197-1.533-4.197-4.241
		c0-2.437,1.715-4.15,4.241-4.15c0.994,0,1.941,0.315,2.708,0.948c-0.18-1.985-2.165-2.212-2.888-2.212
		C123.544,146.037,122.191,146.579,121.423,147.481z"/>
	<path d="M147.999,169.725h-16.738v-0.27c3.519,0,3.834-1.085,3.834-4.423v-14.438c0-3.338-0.315-4.286-3.834-4.286v-0.314h12.947
		v19.039c0,3.338,0.271,4.423,3.791,4.423V169.725z M139.246,135.524c2.707,0,4.962,1.985,4.962,4.378
		c0,2.391-2.255,4.375-4.962,4.375c-2.708,0-4.919-1.984-4.919-4.375C134.327,137.51,136.538,135.524,139.246,135.524z"/>
	<path d="M152.014,162.731v-16.424h-2.345v-0.314c2.978-0.137,5.324-1.174,7.354-2.572c1.445-0.993,3.519-2.753,3.836-6.046h0.271
		v8.618h4.105v0.314h-4.105v17.687c0,3.879,0.18,4.241,1.037,4.241c0.359,0,1.129-0.136,1.805-1.804
		c0.406-0.994,0.768-3.293,0.768-5.46h0.314c0,1.398-0.179,2.843-0.45,4.195c-0.36,1.805-1.039,4.784-6.228,4.784
		C153.008,169.951,152.014,167.738,152.014,162.731z"/>
	<path d="M181.523,168.01c0.405,0,0.811-0.137,1.036-0.316c1.895-1.218,2.076-4.017,2.076-8.616v-8.483
		c0-2.933-0.498-4.241-2.979-4.286v-0.314h12.092v19.039c0,3.338,0.316,4.423,3.835,4.423v0.27h-13.039v-4.467
		c-1.174,3.112-3.158,4.736-6.587,4.736c-1.579,0-3.52-0.45-4.92-1.442c-2.164-1.534-2.344-3.34-2.344-7.354v-10.604
		c0-3.338-0.316-4.286-3.836-4.286v-0.314h12.948v16.917C179.807,166.16,179.898,168.01,181.523,168.01z"/>
	<path d="M213.196,147.481c-1.31,1.488-1.49,3.338-1.49,6.226v11.325c0,3.338,0.271,4.423,3.792,4.423v0.27h-16.74v-0.27
		c3.52,0,3.835-1.085,3.835-4.423v-14.438c0-3.338-0.315-4.286-3.835-4.286v-0.314h12.544v4.691c0.63-2.527,2.03-4.963,5.367-4.963
		c3.158,0,4.649,2.527,4.649,5.233c0,2.888-1.941,4.737-4.333,4.737c-2.211,0-4.195-1.533-4.195-4.241c0-2.437,1.713-4.15,4.24-4.15
		c0.994,0,1.94,0.315,2.706,0.948c-0.18-1.985-2.164-2.212-2.885-2.212C215.316,146.037,213.961,146.579,213.196,147.481z"/>
	<path d="M233.185,157.632v2.753c0,5.729,1.036,9.159,5.188,9.159c4.827,0,7.578-5.143,8.076-9.7h0.315
		c-0.271,2.346-1.218,6.812-4.964,9.069c-1.261,0.767-3.158,1.081-5.098,1.081c-10.105,0-12.632-7.038-12.632-11.504
		c0-3.25,1.218-6.678,4.376-9.746c2.255-2.165,5.234-3.022,7.896-3.022c5.864,0,8.437,3.43,9.745,6.812
		c0.588,1.625,0.632,3.158,0.632,5.098H233.185z M233.185,156.008v1.31h5.278c0.089-1.76,0.135-4.107,0.135-5.776
		c0-2.39-0.046-4.195-1.353-5.322c-0.182-0.182-0.543-0.226-0.994-0.226C233.681,145.993,233.185,149.106,233.185,156.008z"/>
</g>
<g>
	<path d="M120.177,128.14c0,1.206,0,3.313,1.206,3.313c1.054,0,3.614-2.184,3.84-10.166h0.526c0,1.809-0.45,8.96-3.915,10.768
		c-1.732,0.979-3.991,1.431-6.099,1.431c-1.506,0-2.861-0.225-3.991-0.678c-4.216-1.657-5.498-3.389-6.701-7.832
		c-1.582,4.971-3.842,7.004-5.949,7.832c-1.129,0.453-2.486,0.527-4.143,0.527c-6.4,0-12.951-1.808-12.951-10.015
		c0-1.205,0.228-2.41,0.528-3.464c1.658-5.347,5.045-5.873,10.24-6.777l1.807-0.302c10.015-1.657,10.469-6.852,10.469-11.295
		c0-7.304-2.562-7.907-5.422-7.907c-1.581,0-6.249,0.227-7.755,3.917c0.451-0.227,1.052-0.301,1.656-0.301
		c2.711,0,6.326,2.033,6.326,6.249c0,4.518-3.915,7.38-7.606,7.38c-3.69,0-7.304-2.937-7.304-7.531
		c0-6.25,7.831-10.391,17.245-10.391c4.594,0,9.489,0.979,12.802,3.313c4.967,3.464,5.194,7.981,5.194,12.274V128.14z
		 M96.908,118.276c-0.226,1.506-0.3,2.785-0.3,3.99c0,1.733,0.15,3.313,0.3,5.121c0.075,1.505,0.227,4.365,2.11,4.365
		c0.527,0,1.13-0.149,1.506-0.525c4.293-2.786,4.443-9.487,4.443-15.211v-9.713c-0.303,1.806-1.506,3.087-2.259,3.614
		C97.813,113.532,97.438,114.059,96.908,118.276z"/>
	<path d="M171.836,111.423c0,16.792-11.221,21.988-18.75,21.988c-7.455,0-9.413-7.53-14.084-7.53c-3.462,0-4.44,3.238-4.44,7.079
		h-0.526V82.959c0-5.573-0.453-7.229-6.327-7.229v-0.452h21.538v23.645c0.525-0.903,0.826-1.505,1.959-2.86
		c1.806-2.184,4.364-3.163,7.604-3.163C168.146,92.899,171.836,103.215,171.836,111.423z M150.449,97.868
		c-1.127,2.11-1.203,5.347-1.203,8.585v17.771c0,6.627,0.751,8.735,3.914,8.735c2.335,0,3.843-1.432,3.843-8.735v-17.997
		c0-5.723-0.152-8.434-2.412-10.015c-0.378-0.226-0.902-0.452-1.354-0.452C152.18,95.76,150.901,97.04,150.449,97.868z"/>
	<path d="M192.548,112.778v4.594c0,9.562,1.729,15.285,8.656,15.285c8.058,0,12.653-8.583,13.479-16.189h0.526
		c-0.45,3.915-2.031,11.371-8.284,15.135c-2.106,1.281-5.269,1.808-8.507,1.808c-16.868,0-21.084-11.747-21.084-19.202
		c0-5.421,2.032-11.145,7.304-16.266c3.764-3.614,8.734-5.044,13.178-5.044c9.789,0,14.083,5.724,16.267,11.37
		c0.978,2.711,1.053,5.271,1.053,8.509H192.548z M192.548,110.068v2.184h8.807c0.15-2.938,0.225-6.853,0.225-9.639
		c0-3.99-0.074-7.002-2.258-8.885c-0.3-0.302-0.902-0.377-1.656-0.377C193.373,93.351,192.548,98.547,192.548,110.068z"/>
	<path d="M246.388,132.96H218.45v-0.452c5.873,0,6.402-1.808,6.402-7.38V82.959c0-5.573-0.529-7.229-6.402-7.229v-0.452h21.609
		v49.699c0,5.573,0.453,7.531,6.328,7.531V132.96z"/>
</g>
<g>
	<path fill="#1D3E7F" d="M3.832,213.915H3.204v0.616h74.458v-6.971H66.074c-2.31,1.834-4.953,3.293-7.916,4.604
		c-2.502,1.133-7.612,1.646-12.617,1.646c-4.054,0-5.414-0.538-5.804-6.251h-24.41C14.608,212.173,12.131,213.915,3.832,213.915z"/>
	<path fill="#2C2F76" d="M58.054,184.082c0.313,0.821,1.044,4.628,1.044,7.92h0.73v-9.159h-2.297
		C57.708,183.246,57.886,183.65,58.054,184.082z"/>
	<path fill="#2C2F76" d="M15.612,201.981c0,2.203-0.045,4.049-0.285,5.579h24.41c-0.102-1.487-0.141-3.306-0.141-5.579v-19.139
		H15.612V201.981z"/>
	<path fill="#2C2F76" d="M77.661,182.843h-0.905c-1.185,13.094-4.863,20.1-10.682,24.718h11.587V182.843z"/>
	<path fill="#3E2251" d="M15.612,182.843h23.985v-10.799c9.422,0,14.503,2.987,17.935,10.799h2.297v-24.848h-1.415
		c-0.137,0.683-0.267,1.222-0.36,1.498c-3.438,8.643-8.549,11.831-18.458,11.831v-13.329H15.612V182.843z"/>
	<path fill="#3E2251" d="M73.281,164.843h0.625v-6.848h-1.381C73.042,160.312,73.281,162.617,73.281,164.843z"/>
	<path fill="#3E2251" d="M77.661,178.834h-0.628c-0.068,1.397-0.162,2.731-0.277,4.009h0.905V178.834z"/>
	<path fill="#60111D" d="M55.076,132.366c-0.179,0.083-0.355,0.166-0.537,0.249c-1.381,0.66-3.259,1.104-5.396,1.364h-7.546
		c-0.787-0.256-1.325-0.742-1.696-1.613H13.057c-0.913,0.768-2.164,1.296-3.9,1.613H3.204v0.384v0.234v0.384h6.036
		c5.898,1.062,6.373,4.448,6.373,11.549v11.465h23.985v-23.014h8.537c4.553,0.54,8.004,1.775,11.799,4.451
		c7.279,5.118,11.104,11.881,12.593,18.562h1.381v-24.016h-0.028v-1.613H55.076z"/>
	<path fill="#60111D" d="M59.829,151.468h-0.73c0,2.389-0.36,4.908-0.684,6.527h1.415V151.468z"/>
	<path fill="#8E1913" d="M39.106,122.431v-15.694H15.444v15.694c0,4.982-0.239,8.13-2.387,9.935h26.844
		C39.213,130.756,39.106,127.811,39.106,122.431z"/>
	<path fill="#8E1913" d="M73.878,106.737h-1.344c-2.022,15.384-8.147,21.337-17.458,25.629h18.802V106.737z"/>
	<rect x="15.444" y="82.021" fill="#BF1A18" width="23.662" height="24.717"/>
	<path fill="#BF1A18" d="M73.878,99.283h-0.719c-0.117,2.707-0.327,5.183-0.625,7.454h1.344V99.283z"/>
	<path fill="#D64915" d="M39.106,66.98c0-5.647,0.265-8.939,3.284-10.587H12.091c3.048,1.648,3.354,4.94,3.354,10.587v15.041h23.662
		V66.98z"/>
	<path fill="#EE7236" d="M50.629,55.047h0.722v-0.618H3.204v0.618h0.618c3.944,0,6.542,0.412,8.269,1.346H42.39
		C44.1,55.458,46.685,55.047,50.629,55.047z"/>
</g>
<g>
</g>
<g>
</g>
<g>
</g>
<g>
</g>
<g>
</g>
<g>
</g>
</svg>
