<?xml version="1.0" encoding="utf-8"?>
<!-- Generator: Adobe Illustrator 16.0.0, SVG Export Plug-In . SVG Version: 6.00 Build 0)  -->
<!DOCTYPE svg PUBLIC "-//W3C//DTD SVG 1.1//EN" "http://www.w3.org/Graphics/SVG/1.1/DTD/svg11.dtd">
<svg version="1.1" id="Calque_1" xmlns="http://www.w3.org/2000/svg" xmlns:xlink="http://www.w3.org/1999/xlink" x="0px" y="0px"
	 width="250px" height="250px" viewBox="0 0 250 250" enable-background="new 0 0 250 250" xml:space="preserve">
<g>
	<path d="M19.98,209.699l-0.899,4.944H2.041c0,0,0-0.204,0-0.287c0.653-0.367,0.94-0.98,0.94-2.41v-23.17
		c0-1.472-0.287-2.044-0.94-2.412c0-0.081,0-0.326,0-0.326h5.067c0,0,0,0.245,0,0.326c-0.613,0.368-0.899,0.94-0.899,2.412v25.58
		h3.719c4.536,0,7.887-2.328,9.808-4.821L19.98,209.699z"/>
	<path d="M40.659,214.644h-4.127v-5.721c-1.062,3.595-3.31,5.966-7.233,5.966c-3.351,0-6.62-1.594-7.151-4.536
		c-0.695-4.169,1.798-6.62,4.944-7.929c-1.062-2.369,0.205-7.437,5.681-7.437c3.392,0,6.988,1.798,6.988,6.825v10.134
		c0,1.43,0.286,2.043,0.899,2.41C40.659,214.439,40.659,214.644,40.659,214.644z M36.532,208.188v-6.294
		c-0.204-0.081-1.185-0.367-2.452-0.367c-4.454,0-10.502,2.206-8.745,9.398c0.531,2.206,2.901,3.555,4.944,3.432
		C33.835,214.153,35.715,211.129,36.532,208.188z M27.501,202.262c2.207-0.817,4.659-1.104,6.579-1.104
		c0.939,0,1.757,0.163,2.452,0.368v-0.287c0-3.105-1.226-5.843-4.127-5.843C28.727,195.396,26.275,198.951,27.501,202.262z"/>
	<path d="M63.791,203.038c0.286,10.134-9.113,11.851-13.69,11.851c-2.125,0-3.719-0.899-4.536-0.859
		c-0.572,0.042-0.776,0.573-0.858,0.859c-0.082,0-0.245,0-0.245,0v-26.562c0-1.43-0.123-1.838-0.94-1.962c0-0.081,0-0.326,0-0.326
		l3.882-0.858h0.286v21.004c0.736-4.739,2.82-11.196,8.541-11.196C59.581,194.987,63.667,197.848,63.791,203.038z M60.644,202.466
		c-0.204-3.556-2.738-7.438-6.211-6.743c-4.618,0.899-6.743,9.44-6.743,12.873v5.68c0.204,0.081,1.144,0.408,2.452,0.368
		C54.064,214.603,61.216,212.886,60.644,202.466z"/>
	<path d="M86.595,208.146c-0.245,2.901-2.82,6.743-8.623,6.743c-5.639,0-11.074-2.779-11.238-9.521
		c-0.204-7.07,6.211-10.135,10.707-10.38c3.474-0.163,8.254,1.512,8.827,6.457c-0.368,0-2.901,0-2.901,0h-0.899
		C84.796,202.057,86.921,204.428,86.595,208.146z M80.792,201.444H70.208c-0.532,2.165-0.409,4.576,0.286,6.538
		c1.512,4.291,4.577,6.171,8.745,6.007c3.514-0.163,6.579-2.575,6.988-5.762C86.717,203.978,83.897,201.444,80.792,201.444z
		 M70.29,201.117h13.036c-0.532-3.556-3.719-6.415-7.724-5.639C72.823,196.009,71.025,198.338,70.29,201.117z"/>
	<path d="M94.524,214.356c0,0.083,0,0.287,0,0.287h-5.026c0,0,0-0.204,0-0.287c0.613-0.367,0.898-0.98,0.898-2.41v-23.62
		c0-1.43-0.122-1.838-0.898-1.962c0-0.081,0-0.326,0-0.326l3.841-0.858h0.286v26.767C93.625,213.376,93.912,213.989,94.524,214.356z
		"/>
	<path d="M124.276,209.699l-0.9,4.944h-16.59c0,0,0-0.204,0-0.287c0.613-0.367,0.898-0.98,0.898-2.41v-23.17
		c0-1.431-0.286-2.044-0.898-2.412c0-0.081,0-0.326,0-0.326h15.284l0.857,4.536l-0.204,0.163c-1.88-2.125-4.413-4.373-8.949-4.373
		h-2.86v12.056l10.297-0.899v2.085l-10.297-0.858v15.609h3.31c4.495,0,7.887-2.328,9.807-4.821L124.276,209.699z"/>
	<path d="M139.602,214.153c4.046-0.409,6.252-4.005,6.905-5.149l0.246,0.122c-1.267,2.288-3.678,5.477-8.541,5.763
		c-5.64,0.286-11.278-2.779-11.441-9.521c-0.205-7.07,6.211-10.38,10.706-10.38c2.329,0,5.599,1.062,7.724,2.166l-0.613,3.392
		h-0.245c-0.98-2.451-4.863-5.967-8.704-5.066c-5.026,1.144-6.865,7.6-5.148,12.504
		C132.001,212.273,135.475,214.562,139.602,214.153z"/>
	<path d="M164.122,197.398l-2.493,3.514l-0.286-0.162c-0.081-2.33-1.226-5.354-3.433-5.027c-4.005,0.613-4.535,11.156-4.535,14.63
		v1.594c0,1.43,0.285,2.043,0.898,2.41c0,0.083,0,0.287,0,0.287h-5.066c0,0,0-0.204,0-0.287c0.652-0.367,0.939-0.98,0.939-2.41
		v-13.812c0-1.43-0.122-1.839-0.939-1.961c0-0.083,0-0.286,0-0.286l3.841-0.899h0.327v10.952c0.408-4.945,1.553-10.952,5.884-10.952
		C161.466,194.987,162.732,195.764,164.122,197.398z"/>
	<path d="M170.417,214.356c0,0.083,0,0.287,0,0.287h-5.067c0,0,0-0.204,0-0.287c0.613-0.367,0.898-0.98,0.898-2.41v-13.812
		c0-1.43-0.122-1.839-0.898-1.961c0-0.083,0-0.286,0-0.286l3.841-0.899h0.286v16.959
		C169.477,213.376,169.764,213.989,170.417,214.356z M165.84,189.757c0-1.062,0.858-1.921,1.92-1.921
		c1.062,0,1.922,0.858,1.922,1.921c0,1.062-0.859,1.921-1.922,1.921C166.698,191.678,165.84,190.818,165.84,189.757z"/>
	<path d="M187.948,207.492c-0.777,3.841-2.493,7.396-6.784,7.396c-3.637,0-5.885-2.371-5.885-7.192v-12.383h-2.411v-0.326
		c3.474,0,3.76-3.637,3.76-5.599h3.229c0,3.147-3.105,5.476-5.558,5.599h9.031v0.326h-4.822v12.996c0,3.555,0.981,6.293,4.454,5.844
		c2.697-0.368,4.046-3.597,4.781-6.742L187.948,207.492z"/>
	<path d="M207.81,214.644h-4.168v-9.931c-0.531,4.618-1.922,10.176-7.233,10.176c-3.76,0-6.742-2.371-6.742-7.192v-9.562
		c0-1.43-0.122-1.839-0.898-1.961c0-0.083,0-0.286,0-0.286l3.841-0.899h0.286v13.322c0,3.555,1.838,6.497,5.353,5.844
		c4.576-0.899,5.395-9.44,5.395-12.873v-3.146c0-1.43-0.123-1.839-0.899-1.961c0-0.083,0-0.286,0-0.286l3.841-0.899h0.286v16.959
		c0,1.43,0.287,2.043,0.94,2.41C207.81,214.439,207.81,214.644,207.81,214.644z"/>
	<path d="M225.588,197.398l-2.493,3.514l-0.286-0.162c-0.081-2.33-1.226-5.354-3.433-5.027c-4.005,0.613-4.535,11.156-4.535,14.63
		v1.594c0,1.43,0.285,2.043,0.898,2.41c0,0.083,0,0.287,0,0.287h-5.066c0,0,0-0.204,0-0.287c0.652-0.367,0.938-0.98,0.938-2.41
		v-13.812c0-1.43-0.122-1.839-0.938-1.961c0-0.083,0-0.286,0-0.286l3.841-0.899h0.327v10.952c0.408-4.945,1.553-10.952,5.884-10.952
		C222.932,194.987,224.198,195.764,225.588,197.398z"/>
	<path d="M246.308,208.146c-0.245,2.901-2.819,6.743-8.622,6.743c-5.64,0-11.074-2.779-11.238-9.521
		c-0.204-7.07,6.212-10.135,10.707-10.38c3.474-0.163,8.255,1.512,8.826,6.457c-0.368,0-2.901,0-2.901,0h-0.898
		C244.51,202.057,246.635,204.428,246.308,208.146z M240.505,201.444h-10.584c-0.531,2.165-0.409,4.576,0.286,6.538
		c1.512,4.291,4.576,6.171,8.745,6.007c3.515-0.163,6.579-2.575,6.987-5.762C246.431,203.978,243.611,201.444,240.505,201.444z
		 M230.003,201.117h13.036c-0.531-3.556-3.719-6.415-7.724-5.639C232.536,196.009,230.738,198.338,230.003,201.117z"/>
</g>
<g opacity="0.8">
	<path fill="#EC650A" d="M127.49,168.556c0,0,27.973-88.803-21.245-143.471C83.194,87.644,127.49,168.556,127.49,168.556z"/>
	<path fill="#EC650A" d="M127.836,172.08l-1.564-2.857c-0.111-0.204-11.24-20.683-19.381-48.554
		c-7.534-25.791-13.987-63.393-1.949-96.064l0.796-2.16l1.54,1.71c25.732,28.582,30.211,66.461,29.436,93.205
		c-0.836,28.894-7.826,51.389-7.897,51.612L127.836,172.08z M106.764,27.779c-18.4,54.057,12.771,121.836,20.35,137.009
		c1.932-7.249,6.195-25.521,6.825-47.581C134.672,91.542,130.496,55.444,106.764,27.779z"/>
</g>
<g opacity="0.8">
	<path fill="#EC650A" d="M127.49,168.556c0,0,49.449-78.91,15.645-144.243C105.021,79.014,127.49,168.556,127.49,168.556z"/>
	<path fill="#EC650A" d="M126.937,172.056l-0.794-3.162c-0.057-0.226-5.664-22.868-6.511-51.906
		c-0.785-26.873,2.458-64.901,22.363-93.47l1.316-1.889l1.059,2.044c17.672,34.158,12.447,71.956,4.953,97.649
		c-8.096,27.758-20.529,47.772-20.654,47.97L126.937,172.056z M142.955,27.051c-31.464,47.652-18.389,121.155-14.881,137.762
		c3.697-6.53,12.428-23.142,18.602-44.338C153.859,95.815,158.926,59.816,142.955,27.051z"/>
</g>
<g opacity="0.8">
	<path fill="#098969" d="M127.49,168.556c0,0,64.666-55.107,48.475-126.864C125.262,84.984,127.49,168.556,127.49,168.556z"/>
	<path fill="#098969" d="M126.18,171.498l-0.078-2.905c-0.005-0.211-0.494-21.365,5.256-47.532
		c5.32-24.208,17.221-57.812,43.705-80.425l1.752-1.495l0.506,2.246c8.467,37.526-5.301,70.406-18.342,91.38
		c-14.092,22.668-30.424,36.708-30.586,36.847L126.18,171.498z M175.102,44.292c-42.464,38.006-45.978,105.827-46.217,121.115
		c4.944-4.658,17.02-16.854,27.779-34.179C169.139,111.141,182.299,79.916,175.102,44.292z"/>
</g>
<path opacity="0.8" fill="#243163" stroke="#243163" stroke-width="3" stroke-miterlimit="10" d="M127.49,168.556
	c0,0,66.92-26.076,66.889-99.637C135.404,100.015,127.49,168.556,127.49,168.556z"/>
<g opacity="0.8">
	<path fill="#098969" d="M127.49,168.556c0,0,8.352-84.552-53.087-125.005C67.913,109.904,127.49,168.556,127.49,168.556z"/>
	<path fill="#098969" d="M128.588,171.584l-2.072-2.038c-0.149-0.148-15.177-15.046-29.186-37.884
		c-12.961-21.128-27.699-53.587-24.309-88.247l0.224-2.291l1.922,1.266c32.13,21.156,45.021,54.389,50.178,78.543
		c5.572,26.104,3.549,47.546,3.527,47.759L128.588,171.584z M75.585,46.022c-4.222,56.83,40.292,108.12,50.726,119.298
		c0.33-6.784,0.568-23.947-3.7-43.889C117.662,98.309,105.48,66.689,75.585,46.022z"/>
</g>
<g opacity="0.8">
	<path fill="#243163" d="M127.49,168.556c0,0-1.262-69.621-70.636-94.081C66.54,140.438,127.49,168.556,127.49,168.556z"/>
	<path fill="#243163" d="M128.92,170.744l-2.012-0.927c-0.63-0.292-15.627-7.298-32.049-22.548
		c-15.171-14.089-34.318-38.118-39.379-72.593l-0.334-2.277l2.17,0.766c36.306,12.8,53.833,38.043,62.144,56.964
		c8.996,20.481,9.408,37.68,9.419,38.401L128.92,170.744z M58.592,76.585c9.387,55.999,56.748,84.008,67.369,89.638
		c-0.437-5.399-2.187-19.405-9.089-35.076C108.946,113.15,92.424,89.265,58.592,76.585z"/>
</g>
<path d="M126.564,169.944c-41.447,0-75.167-33.72-75.167-75.166c0-41.447,33.72-75.167,75.167-75.167
	c41.447,0,75.168,33.72,75.168,75.167C201.732,136.225,168.012,169.944,126.564,169.944z M126.564,22.39
	c-39.915,0-72.388,32.473-72.388,72.389c0,39.915,32.473,72.388,72.388,72.388c39.916,0,72.391-32.473,72.391-72.388
	C198.955,54.863,166.48,22.39,126.564,22.39z"/>
<g>
</g>
<g>
</g>
<g>
</g>
<g>
</g>
<g>
</g>
<g>
</g>
</svg>
