<?xml version="1.0" encoding="utf-8"?>
<!-- Generator: Adobe Illustrator 16.0.0, SVG Export Plug-In . SVG Version: 6.00 Build 0)  -->
<!DOCTYPE svg PUBLIC "-//W3C//DTD SVG 1.1//EN" "http://www.w3.org/Graphics/SVG/1.1/DTD/svg11.dtd">
<svg version="1.1" id="Calque_1" xmlns="http://www.w3.org/2000/svg" xmlns:xlink="http://www.w3.org/1999/xlink" x="0px" y="0px"
	 width="144px" height="215px" viewBox="0 0 144 215" enable-background="new 0 0 144 215" xml:space="preserve">
<g>
	<g>
		<path fill="#3062AB" d="M72.082,176.119c13.992,0,26.999-4.205,37.841-11.41h-75.68C45.083,171.914,58.088,176.119,72.082,176.119
			z"/>
		<path fill="#1D3E80" d="M34.243,164.709h75.68c5.99-3.982,11.314-8.888,15.776-14.504H18.464
			C22.928,155.821,28.25,160.727,34.243,164.709z"/>
		<path fill="#2C2D61" d="M18.464,150.205h107.235c3.399-4.277,6.297-8.968,8.605-13.989H9.861
			C12.168,141.237,15.065,145.928,18.464,150.205z"/>
		<path fill="#3E2251" d="M9.861,136.216h124.444c2.048-4.45,3.636-9.157,4.692-14.062H5.167
			C6.225,127.059,7.812,131.766,9.861,136.216z"/>
		<path fill="#60111D" d="M5.167,122.154h133.83c1.008-4.678,1.554-9.525,1.554-14.504H3.614
			C3.614,112.629,4.158,117.477,5.167,122.154z"/>
		<path fill="#8D1913" d="M3.614,107.65h136.937c0-4.978-0.546-9.827-1.554-14.504H5.167C4.158,97.824,3.614,102.673,3.614,107.65z"
			/>
		<path fill="#BF1918" d="M5.167,93.146h133.83c-1.053-4.877-2.629-9.559-4.658-13.989H9.827C7.796,83.588,6.22,88.269,5.167,93.146
			z"/>
		<path fill="#D54915" d="M9.827,79.158h124.512c-2.394-5.22-5.418-10.088-8.986-14.504H18.812
			C15.243,69.069,12.219,73.938,9.827,79.158z"/>
		<path fill="#ED7236" d="M18.812,64.654h106.541c-4.362-5.4-9.524-10.125-15.313-13.988H34.127
			C28.337,54.528,23.175,59.254,18.812,64.654z"/>
		<path fill="#F29A19" d="M72.082,39.182c-14.042,0-27.091,4.234-37.955,11.484h75.912C99.174,43.416,86.123,39.182,72.082,39.182z"
			/>
	</g>
	<g>
		<g>
			<path fill="#FFFFFF" d="M62.521,91.361l-1.543,5.184h-11.67v-0.41h2.026V80.101h-2.026v-0.433h6.681v0.433h-2.025v16.035h2.626
				c2.796,0,4.364-1.688,5.522-4.774H62.521z"/>
			<path fill="#FFFFFF" d="M77.497,96.136v0.41h-6.51v-0.41h2.024l-1.784-5.351h-5.038l-1.737,5.351h2.025v0.41h-4.195v-0.41h1.711
				l5.401-16.709h0.82l5.571,16.709H77.497z M71.083,90.372l-2.435-7.232l-2.34,7.232H71.083z"/>
			<path fill="#FFFFFF" d="M92.208,91.892c0,3.23-2.581,4.653-6.945,4.653h-6.799v-0.41h2.025V80.101h-2.025v-0.433h5.858
				c3.786,0,6.316,1.013,6.316,4.05c0,2.338-1.47,3.375-3.856,3.737C90.23,87.746,92.208,89.072,92.208,91.892z M83.117,87.312
				h1.662c3.233,0,3.233-2.75,3.233-3.593c0-0.819,0.023-3.618-3.208-3.618h-1.688V87.312z M89.434,91.892
				c0-1.494-0.146-4.171-3.954-4.171h-2.362v8.415h2.314C89.241,96.136,89.434,93.412,89.434,91.892z"/>
			<path fill="#FFFFFF" d="M106.388,91.361l-1.546,5.184H93.175v-0.41h2.023V80.101h-2.023v-0.433h11.019l1.567,4.412h-0.435
				c-1.156-3.085-2.868-3.979-5.667-3.979h-1.831v7.5h1.47c2.483,0,2.701-0.844,2.822-2.989h0.435v6.387h-0.435
				c-0.121-2.121-0.339-2.965-2.822-2.965h-1.47v8.102h2.626c2.8,0,4.342-1.688,5.499-4.774H106.388z"/>
			<path fill="#FFFFFF" d="M120.326,91.361l-1.542,5.184h-11.671v-0.41h2.026V80.101h-2.026v-0.433h6.679v0.433h-2.025v16.035h2.628
				c2.797,0,4.366-1.688,5.521-4.774H120.326z"/>
		</g>
		<g>
			<g>
				<g>
					<g>
						<g>
							<path fill="#FFFFFF" d="M119.979,126.274c-1.247,3.047-3.537,5.685-6.666,6.868c-2.14,0.809-4.839,0.169-6.028-1.668
								c0.072-0.187,0.139-0.379,0.194-0.572c-0.137,0.461,2.756,0.528,3.027,0.488c1.006-0.143,1.756-0.876,2.313-1.66
								c0.961-1.355,1.449-6.008-0.011-7.163c-0.977-0.768-2.911,1.327-3.486,1.872c-1.319,1.253-2.255,2.653-2.586,4.467
								c-0.102,0.552-0.163,1.133-0.171,1.714c-1.259,1.914-4.141,4.377-5.783,1.986c-0.219-0.317-0.396-1.806-0.479-1.258
								c0.067-0.734,0.227-1.463,0.39-2.183c0.235-1.037,0.562-2.059,0.93-3.063c3.233-1.074,5.432-4.99,5.538-8.203
								c0.006-0.115,0-0.74-0.003-1.309c0-0.303,0-0.603,0-0.908c0-0.031,0-0.059,0-0.059c-2.63,0.259-4.333,5.137-5.145,7.123
								c-0.142,0.347-0.275,0.692-0.401,1.044c-1.032,0.325-2.165,0.353-3.211,0.117c-0.499-0.113-0.911-0.394-1.286-0.723
								c-0.179-0.185-0.323-0.389-0.431-0.621c-0.145-0.244-0.179-1.454-0.249-1.325c-0.001-0.176,0-0.336,0.009-0.47
								c-0.01,0.18-0.021,0.359-0.029,0.54c-0.012,0.047-0.019,0.107-0.03,0.2c-0.165,1.436-3.104,13.164-5.109,12.083
								c-0.741-0.333-0.95-1.076-0.946-1.886c1.02-3.211,1.545-7.222,1.874-8.135c0.121-0.334,0.062-0.739,0-1.142
								c0-0.393,0-0.783,0-1.171c-1.093,2.852-1.759,6.021-1.923,9.074c-0.446,1.124-1.082,2.106-2.064,2.797
								c-0.705,0.49-1.619,0.324-2.324-0.052c-0.4-0.214-0.624-0.654-0.806-1.043c-0.091-0.234-0.163-0.477-0.206-0.728
								c-0.003-0.017-0.005-0.024-0.012-0.037c0.292-0.804,0.517-1.616,0.722-2.312c0.581-1.982,0.903-4.032,1.52-6.003
								c0.1-0.313,0.054-0.681,0-1.052c0-0.419,0-0.843,0-1.264c-1.037,2.622-1.935,5.375-2.246,8.191
								c-0.291,0.747-0.633,1.475-1.06,2.174c-1.325,2.187-5.141,3.65-5.785,0.286c-0.01-0.085-0.016-0.152-0.023-0.208
								c0.028-0.306,0.065-0.613,0.104-0.917c0.093-0.738,0.236-1.471,0.387-2.197c0.385-1.868,1.005-3.589,1.395-5.453
								c0.058-0.091,0.124-0.433,0.153-0.538c0.669-2.355,2.793-8.476,3.401-10.854c0.687-0.175,1.099-0.228,1.829-0.299
								c2.837-0.292,5.714-0.545,8.546-0.379c2.722,0.162,5.454,0.007,8.155-0.379c3.921-0.562,7.935-1.628,11.308-3.756
								c1.797-1.132,6.531-4.291,6.846-6.058c-0.725,2.683-9.238,6.275-11.247,7.007c-3.395,1.231-7.092,1.813-10.681,2.032
								c-4.41,0.27-9.873-0.174-14.552,0.712c0.359-1.628,1.021-6.029,1.045-7.391c0.007-0.379-0.184-0.691-0.225-1.085
								c0-0.385-0.088-0.765-0.088-1.146c-0.117,0.546-0.504,3.46-0.613,4.004c-0.344,1.623-0.862,4.209-1.179,5.836
								c-1.949,0.453-4.257,1.514-5.604,3.778c-0.239,0.694,0.24,1.011,0.028,1.833c1.176-2.235,3.351-3.806,5.269-4.384
								c-0.184,0.929-1.688,5.293-1.99,6.329c-0.626,2.155-1.199,4.408-1.969,6.565c-0.971,2.726-1.563,6.074-3.449,8.353
								c-1.374,1.667-3.58-0.221-4.388-1.887c0.902-2.49,1.703-5.008,2.75-7.446c0.133-0.326,0.067-0.737,0-1.146
								c0-0.389,0-0.777,0-1.166c-1.08,2.659-2.53,5.27-2.946,8.112c-0.362,0.927-0.755,1.835-1.208,2.713
								c-1.476,2.867-3.624,0.772-4.362-1.521c-0.038-0.116-0.066-0.2-0.091-0.26c0.018-0.046,0.036-0.124,0.053-0.264
								c0.09-0.771,0.265-1.53,0.444-2.283c0.137-0.577,0.305-1.144,0.486-1.708c2.991-1.272,4.71-4.919,5.306-7.976
								c0.023-0.13,0.01-0.84,0-1.439c0-0.294,0-0.586,0-0.876c-2.64,0.229-4.144,4.764-4.898,6.771
								c-0.139,0.375-0.267,0.749-0.385,1.122c-1.352,0.532-3.229,0.922-4.061-0.139c-0.082-0.604-0.205-1.189-0.378-1.739
								c-0.003,0.017-0.003,0.03-0.003,0.044c-0.079,1.192-0.265,2.717,0.238,3.7c-0.117,0.818-0.375,1.613-0.659,2.387
								c-0.642,1.749-1.762,3.316-3.183,4.512c-2.582,2.171-7.075,1.346-8.076-1.906c0.489-2.14,1.906-3.85,3.725-5.134
								c0.674-0.476,2.924-1.904,3.78-1.23c-0.191,0.694,0.23,1.585,0.011,2.26c0.171-0.524,0.259-1.04,0.305-1.558
								c0.005,0.049,0.017,0.091,0.02,0.146c0-0.125,0-0.248,0-0.371c0.039-0.609,0.024-1.226,0.006-1.861
								c0-0.009-0.003-0.015-0.003-0.026c0-0.006,0-0.009,0-0.015c0,0.003,0,0.004,0,0.004c-0.087-1.948-2.411-0.691-3.39-0.13
								c-2.963,1.699-4.306,4.269-4.591,7.353c-0.019-0.121-0.035-0.244-0.046-0.37c0,0.356,0.001,0.717,0.001,1.077
								c-0.015,0.391-0.018,0.787-0.004,1.193c0.093,2.55,2.582,4.095,4.936,4.177c2.446,0.084,4.406-2.059,5.593-3.938
								c1.069-1.688,1.706-3.968,1.813-6.217c0.333,0.396,0.846,0.646,1.631,0.647c0.593,0,1.149-0.087,1.673-0.24
								c-0.244,1.28-0.374,2.578-0.4,3.907c-0.071-0.118-0.051,0.094-0.003,0.151c-0.003,0.146-0.009,0.293-0.009,0.44
								c0.004,1.613,1.053,6.189,3.416,5.002c1.167-0.588,1.768-2.594,2.207-3.899c0,0,0,0.004,0,0.006c0,0.145,0,0.286,0,0.433
								c0.003-0.069,0.011-0.136,0.015-0.206c0.057,0.646,0.23,1.204,0.741,1.891c0.987,1.327,2.486,2.599,3.935,1.221
								c1.418-1.348,1.95-3.916,2.541-5.695c0.327-0.975,0.668-1.945,1.003-2.917c-0.295,1.732-0.493,3.466-0.49,5.282
								c0.006,1.137-0.016,2.335,0.614,3.33c0.908,1.432,3.164,0.257,4.146-0.415c0.904-0.618,1.518-1.658,1.977-2.772
								c0.005,0.052,0.015,0.09,0.026,0.103c0.021,1.352,0.268,2.722,1.21,3.467c1.968,1.556,3.319-0.421,4.275-3.187
								c-0.057,1.486,0.058,3.227,1.108,3.698c1.995,1.073,4.889-10.342,5.153-12.663c0.158,1.681,0.847,3.019,3.163,3.141
								c0.433,0.022,0.855-0.01,1.264-0.083c-0.411,1.687-0.638,3.407-0.633,5.188c0.009,2.74,1.009,5.688,4.196,3.679
								c0.993-0.625,1.799-1.577,2.373-2.63c0.272,1.021,0.812,1.926,1.755,2.521c4.683,2.967,9.831-2.562,11.432-6.468
								C120.252,127.921,119.714,126.928,119.979,126.274z M109.995,126.128c1.594-1.449,2.889-1.686,3.375-0.121
								c-0.366,1.301-1.049,2.354-2.408,2.941c-0.767,0.333-1.655,0.211-2.441,0.042c-0.273-0.078-0.537-0.18-0.795-0.294
								C108.319,127.755,109.113,126.929,109.995,126.128z M106.731,118.026c-0.682,2.121-2.108,4.175-3.963,5.243
								C103.562,121.428,104.902,118.587,106.731,118.026z M70.218,118.039c-0.705,1.933-1.831,3.772-3.509,4.85
								C67.373,121.303,68.518,118.736,70.218,118.039z"/>
						</g>
					</g>
				</g>
				<g>
					<g>
						<g>
							<path fill="#FFFFFF" d="M74.341,121.464c0.19-0.5,0.419-0.979,0.666-1.444c0.004-0.012,0-0.015,0.004-0.029
								c0.173-0.948-0.202-1.168-0.115-1.888c-0.268,0.462-0.516,0.952-0.726,1.508C74.042,119.952,74.47,121.129,74.341,121.464z"
								/>
						</g>
					</g>
				</g>
			</g>
			<g>
				<g>
					<g>
						<path fill="#FFFFFF" d="M28.309,98.633c1.935,0.252,3.736-0.445,3.758-2.611c0.017-1.661,0.165-3.22-1.739-3.792
							c-2.622-0.79-5.53,0.333-7.109,2.479c-1.138,1.54-0.949,4.145-0.527,5.918c0.547,2.303,2.428,3.881,4.411,4.973
							c2.069,1.14,4.388,2.048,6.649,2.709c2.562,0.752,5.432,1.014,7.817-0.389c2.031-1.192,2.979-3.421,3.018-5.698
							c0.044-2.6,0.085-5.664-3.003-6.393c-3.387-0.798-6.659,0.991-8.696,3.574c-1.947,2.463-2.597,5.277-2.566,8.341
							c0.016,1.488,0.293,2.833,1.284,3.989c1.201,1.407,3.164,1.867,4.913,2.07c-0.102-0.012,0.143-1.758,0-1.813
							c-2.78-1.017-5.708-1.148-8.442,0.084c-2.576,1.162-4.384,3.526-5.366,6.109c-1.748,4.604-0.795,10.314,2.898,13.629
							c3.786,3.399,9.537,4.856,14.527,4.275c2.505-0.296,4.532-1.367,6.256-3.206c1.425-1.526,1.654-3.362,1.506-5.353
							c-0.159-2.143-1.8-3.638-3.488-4.755c-1.876-1.241-4.274-1.506-6.468-1.339c-2.334,0.176-4.536,1.316-5.952,3.19
							c-0.769,1.02-0.81,2.728-0.541,3.941c-0.127-0.572,0.127-1.233,0-1.812c-0.024-0.158-0.048-0.321-0.07-0.479
							c-0.001,0.591-0.002,1.183-0.002,1.778c0.145-1.833,1.937-3.137,3.416-3.946c1.679-0.922,3.741-1.013,5.604-0.842
							c3.161,0.293,7.239,2.547,7.501,6.068c-0.002-0.147-0.004-0.297-0.007-0.445c-0.005-1.247-0.233,0.164-0.381,0.518
							c-0.212,0.505-0.544,0.954-0.878,1.382c-0.764,0.975-1.811,1.823-2.893,2.424c-1.593,0.883-3.511,1.132-5.303,1.183
							c-4.352,0.123-8.921-1.303-12.35-3.995c-1.93-1.511-3.286-3.55-3.856-5.936c-0.508-2.125,0.299-4.528,1.493-6.601
							c2.638-4.576,8.068-5.792,12.796-4.062c0-0.603,0-1.207,0-1.813c-2.854-0.326-5.505-1.538-6.095-4.599
							c-0.203-1.059,0.412-2.419,0.811-3.375c0.542-1.296,1.339-2.48,2.261-3.535c1.767-2.017,4.153-2.977,6.819-2.977
							c1.163,0,2.372,0.291,3.205,1.14c0.373,0.382,0.593,0.896,0.769,1.39c0.096,0.267,0.147,0.551,0.202,0.831
							c0.047,0.279,0.078,0.563,0.088,0.85c-0.005-0.68-0.029-0.774-0.069-0.284c-0.299,2.513-1.958,4.499-4.343,5.326
							c-2.588,0.899-5.57,0.089-8.045-0.789c-2.102-0.743-4.286-1.641-6.158-2.863c-0.906-0.593-1.694-1.338-2.325-2.219
							c-0.33-0.46-0.569-0.975-0.771-1.501c-0.108-0.283-0.177-0.577-0.247-0.867c-0.045-0.208-0.08-0.416-0.106-0.626
							c-0.003,0.275,0.026,0.226,0.092-0.146c0.871-3.3,5.302-4.649,8.222-3.537c0.508,0.195,0.849,0.567,1.062,1.054
							c0.233,0.54-0.052,1.01,0.135-0.42c-0.033,0.248-0.126,0.481-0.229,0.708c-0.6,1.327-2.24,1.434-3.487,1.271
							C28.374,96.828,28.218,98.62,28.309,98.633L28.309,98.633z"/>
					</g>
				</g>
				<path fill="#FFFFFF" d="M35.341,92.685c0.955,0.064,1.795,0.013,2.711-0.32c0.535,0.449,2.977,0.15,4.233-0.821
					c-1.604,0.523-2.514,0.485-3.254,0.406c0.917-0.167,3.106-0.14,5.222-1.958c1.895-1.624,2.632-3.948,3.537-5.818
					c-1.934,2.506-3.795,2.992-5.364,3.993c-1.797,1.144-4.209,2.495-4.562,3.886C37.294,92.339,36.532,92.595,35.341,92.685z"/>
			</g>
		</g>
	</g>
</g>
</svg>
