<?xml version="1.0" encoding="utf-8"?>
<!-- Generator: Adobe Illustrator 16.0.0, SVG Export Plug-In . SVG Version: 6.00 Build 0)  -->
<!DOCTYPE svg PUBLIC "-//W3C//DTD SVG 1.1//EN" "http://www.w3.org/Graphics/SVG/1.1/DTD/svg11.dtd">
<svg version="1.1" id="Calque_1" xmlns="http://www.w3.org/2000/svg" xmlns:xlink="http://www.w3.org/1999/xlink" x="0px" y="0px"
	 width="155.91px" height="240.94px" viewBox="0 0 155.91 240.94" enable-background="new 0 0 155.91 240.94" xml:space="preserve">
<linearGradient id="SVGID_1_" gradientUnits="userSpaceOnUse" x1="78.8047" y1="258.4873" x2="77.8046" y2="34.4864">
	<stop  offset="0.0452" style="stop-color:#16233B"/>
	<stop  offset="0.399" style="stop-color:#0C4958"/>
	<stop  offset="0.6846" style="stop-color:#1AB2AB"/>
	<stop  offset="0.9893" style="stop-color:#FFFFFF"/>
</linearGradient>
<rect y="0" fill="url(#SVGID_1_)" width="156.376" height="240.939"/>
<g>
	<g>
		<path fill="#16233B" d="M32.214,21.468l-1.313-0.492v-0.245h3.12v0.245l-1.314,0.492V32.47h-0.493l-7.634-8.948v7.963l1.314,0.492
			v0.246h-3.12v-0.246l1.312-0.492V21.304l-1.149-0.328v-0.245h1.725c0.328,0,0.613,0.035,0.854,0.106
			c0.24,0.072,0.45,0.164,0.632,0.277c0.181,0.116,0.335,0.243,0.467,0.378c0.132,0.138,0.247,0.267,0.346,0.387l5.252,6.156V21.468
			z"/>
		<path fill="#16233B" d="M39.438,23.768c0.68,0,1.287,0.098,1.824,0.295c0.535,0.197,0.993,0.485,1.371,0.863
			c0.377,0.378,0.664,0.834,0.861,1.37c0.197,0.535,0.297,1.145,0.297,1.822c0,0.68-0.1,1.286-0.297,1.821
			c-0.197,0.538-0.484,0.994-0.861,1.372c-0.378,0.376-0.836,0.665-1.371,0.861c-0.537,0.198-1.145,0.297-1.824,0.297
			c-0.678,0-1.284-0.099-1.822-0.297c-0.535-0.196-0.994-0.485-1.372-0.861c-0.378-0.378-0.664-0.834-0.862-1.372
			c-0.197-0.535-0.295-1.142-0.295-1.821c0-0.678,0.098-1.287,0.295-1.822c0.198-0.536,0.484-0.992,0.862-1.37
			c0.377-0.378,0.837-0.666,1.372-0.863C38.154,23.866,38.76,23.768,39.438,23.768z M39.438,32.141c0.188,0,0.374-0.061,0.561-0.182
			c0.184-0.119,0.352-0.329,0.499-0.63c0.149-0.302,0.269-0.713,0.362-1.232C40.951,29.577,41,28.918,41,28.119
			c0-0.799-0.049-1.457-0.141-1.979c-0.094-0.518-0.213-0.93-0.362-1.229c-0.147-0.302-0.315-0.513-0.499-0.633
			c-0.187-0.12-0.373-0.181-0.561-0.181c-0.185,0-0.371,0.061-0.557,0.181c-0.188,0.12-0.353,0.331-0.5,0.633
			c-0.149,0.3-0.269,0.712-0.362,1.229c-0.094,0.522-0.139,1.181-0.139,1.979c0,0.8,0.045,1.458,0.139,1.979
			c0.093,0.52,0.212,0.931,0.362,1.232c0.147,0.301,0.312,0.511,0.5,0.63C39.066,32.081,39.252,32.141,39.438,32.141z"/>
		<path fill="#16233B" d="M56.104,26.476c0-0.393-0.032-0.724-0.098-0.992c-0.066-0.268-0.15-0.486-0.256-0.658
			c-0.104-0.17-0.218-0.293-0.344-0.369c-0.127-0.076-0.249-0.115-0.369-0.115c-0.209,0-0.393,0.068-0.551,0.207
			c-0.159,0.137-0.299,0.286-0.418,0.45c-0.133,0.198-0.246,0.416-0.346,0.657v6.076l0.986,0.245v0.246h-4.598v-0.246l0.984-0.245
			v-5.256c0-0.393-0.031-0.724-0.098-0.992c-0.066-0.268-0.152-0.486-0.256-0.658c-0.104-0.17-0.217-0.293-0.344-0.369
			s-0.25-0.115-0.369-0.115c-0.209,0-0.391,0.068-0.551,0.207c-0.158,0.137-0.298,0.286-0.418,0.45
			c-0.132,0.198-0.247,0.416-0.346,0.657v6.076l0.985,0.245v0.246h-4.597v-0.246l0.984-0.245v-7.227l-0.984-0.245v-0.247h1.478
			c0.384,0,0.698,0.066,0.944,0.197s0.439,0.273,0.582,0.428c0.164,0.186,0.285,0.388,0.362,0.608
			c0.142-0.274,0.315-0.521,0.523-0.741c0.188-0.185,0.415-0.355,0.69-0.509s0.607-0.229,1.002-0.229c0.656,0,1.223,0.145,1.7,0.436
			c0.476,0.289,0.839,0.665,1.091,1.124c0.143-0.284,0.318-0.542,0.525-0.772c0.186-0.195,0.417-0.378,0.689-0.542
			c0.274-0.162,0.607-0.245,1.001-0.245c0.448,0,0.86,0.071,1.232,0.214c0.371,0.142,0.691,0.335,0.96,0.581
			c0.27,0.247,0.478,0.534,0.623,0.863c0.148,0.327,0.225,0.678,0.225,1.05v5.256l0.983,0.245v0.246h-2.134
			c-0.984,0-1.479-0.491-1.479-1.479V26.476z"/>
		<path fill="#16233B" d="M64.559,23.768c0.658,0,1.241,0.087,1.75,0.263s0.938,0.417,1.288,0.73
			c0.351,0.311,0.616,0.685,0.798,1.116c0.181,0.433,0.27,0.906,0.27,1.422v4.433l0.986,0.245v0.246h-1.479
			c-0.395,0-0.713-0.062-0.953-0.188c-0.241-0.126-0.432-0.267-0.574-0.418c-0.164-0.188-0.285-0.394-0.361-0.626
			c-0.141,0.286-0.322,0.531-0.541,0.741c-0.188,0.186-0.434,0.355-0.74,0.509c-0.305,0.153-0.674,0.229-1.1,0.229
			c-0.514,0-0.961-0.058-1.338-0.172c-0.378-0.115-0.692-0.274-0.944-0.478c-0.252-0.202-0.439-0.437-0.566-0.705
			c-0.126-0.27-0.188-0.557-0.188-0.862c0-0.252,0.025-0.485,0.082-0.697c0.055-0.214,0.119-0.402,0.198-0.566
			c0.087-0.198,0.185-0.378,0.295-0.542c0.459-0.108,0.946-0.21,1.461-0.297c0.437-0.077,0.93-0.15,1.478-0.222
			c0.547-0.07,1.1-0.117,1.658-0.14v-0.49c0-0.637-0.041-1.162-0.122-1.578c-0.083-0.416-0.2-0.745-0.354-0.983
			c-0.151-0.241-0.342-0.409-0.566-0.501c-0.224-0.095-0.479-0.141-0.763-0.141c-0.12,0-0.231,0.008-0.329,0.023
			c-0.099,0.018-0.186,0.037-0.263,0.058c-0.089,0.033-0.163,0.062-0.229,0.083v2.463c-0.077,0.022-0.148,0.038-0.214,0.049
			c-0.065,0.012-0.134,0.021-0.206,0.024c-0.07,0.007-0.15,0.01-0.236,0.01c-0.373,0-0.671-0.113-0.896-0.338
			c-0.225-0.224-0.336-0.522-0.336-0.895c0-0.23,0.059-0.452,0.174-0.664c0.113-0.216,0.295-0.405,0.541-0.575
			s0.561-0.307,0.943-0.411C63.562,23.82,64.023,23.768,64.559,23.768z M63.902,28.365c-0.064,0.142-0.119,0.308-0.164,0.492
			c-0.043,0.153-0.082,0.334-0.114,0.543c-0.032,0.207-0.052,0.437-0.052,0.689c0,0.654,0.104,1.122,0.305,1.396
			c0.203,0.273,0.43,0.411,0.682,0.411s0.469-0.068,0.648-0.208c0.182-0.135,0.333-0.285,0.453-0.449
			c0.143-0.197,0.268-0.416,0.377-0.657v-2.381c-0.252,0-0.504,0.009-0.756,0.024c-0.25,0.017-0.482,0.035-0.688,0.058
			C64.351,28.317,64.123,28.343,63.902,28.365z"/>
		<path fill="#16233B" d="M77.285,20.731c0.982,0,1.477,0.49,1.477,1.478v9.523l0.984,0.245v0.246h-1.479
			c-0.393,0-0.71-0.062-0.951-0.188c-0.24-0.126-0.432-0.267-0.574-0.418c-0.164-0.188-0.285-0.394-0.361-0.626
			c-0.142,0.286-0.322,0.531-0.54,0.741c-0.188,0.186-0.435,0.355-0.741,0.509c-0.306,0.153-0.673,0.229-1.1,0.229
			c-0.471,0-0.91-0.094-1.321-0.279c-0.412-0.187-0.767-0.459-1.066-0.822c-0.303-0.359-0.54-0.812-0.716-1.353
			c-0.176-0.543-0.263-1.175-0.263-1.897s0.087-1.354,0.263-1.896s0.422-0.993,0.739-1.354c0.317-0.363,0.698-0.636,1.14-0.821
			c0.445-0.186,0.936-0.279,1.472-0.279c0.284,0,0.544,0.032,0.78,0.098c0.234,0.066,0.434,0.143,0.6,0.23
			c0.195,0.099,0.365,0.207,0.509,0.329v-3.204l-0.986-0.245v-0.245H77.285z M76.136,24.917c-0.12-0.121-0.247-0.231-0.379-0.329
			c-0.12-0.087-0.251-0.163-0.396-0.229c-0.141-0.067-0.295-0.1-0.459-0.1c-0.208,0-0.4,0.053-0.582,0.157
			c-0.18,0.103-0.337,0.295-0.469,0.573c-0.131,0.279-0.235,0.67-0.312,1.175c-0.075,0.503-0.115,1.154-0.115,1.953
			c0,0.777,0.04,1.412,0.115,1.904c0.076,0.493,0.172,0.88,0.288,1.156c0.115,0.281,0.246,0.47,0.393,0.567
			c0.148,0.1,0.293,0.149,0.436,0.149c0.252,0,0.469-0.068,0.649-0.208c0.18-0.135,0.331-0.285,0.451-0.449
			c0.142-0.197,0.268-0.416,0.379-0.657V24.917z"/>
		<path fill="#16233B" d="M85.246,32.47c-1.4,0-2.49-0.387-3.268-1.158c-0.776-0.771-1.164-1.836-1.164-3.193
			c0-0.678,0.098-1.287,0.295-1.822c0.196-0.536,0.471-0.992,0.82-1.37c0.352-0.378,0.775-0.666,1.273-0.863
			c0.497-0.197,1.041-0.295,1.633-0.295c0.614,0,1.164,0.087,1.651,0.263s0.899,0.41,1.239,0.707c0.34,0.295,0.6,0.641,0.78,1.041
			c0.18,0.4,0.271,0.825,0.271,1.273c0,0.153-0.008,0.286-0.023,0.401c-0.019,0.115-0.038,0.217-0.059,0.305
			c-0.033,0.109-0.06,0.203-0.082,0.277c-0.482,0.1-0.99,0.182-1.527,0.247c-0.461,0.066-0.989,0.123-1.592,0.173
			c-0.604,0.05-1.232,0.073-1.89,0.073c0,0.679,0.05,1.245,0.147,1.7c0.1,0.453,0.236,0.815,0.412,1.083
			c0.175,0.268,0.384,0.459,0.623,0.574c0.24,0.115,0.504,0.174,0.789,0.174c0.326,0,0.637-0.061,0.927-0.182
			c0.292-0.12,0.542-0.282,0.755-0.485c0.213-0.202,0.258-0.173,0.385-0.432c0.125-0.257,0.649-0.391,0.502-0.085
			c-0.146,0.309-0.357,0.578-0.632,0.812c-0.274,0.236-0.602,0.426-0.985,0.568C86.144,32.398,85.717,32.47,85.246,32.47z
			 M83.604,28.119c0.371,0,0.7-0.008,0.985-0.025c0.284-0.016,0.525-0.035,0.723-0.058c0.23-0.021,0.428-0.048,0.59-0.081
			c0.022-0.108,0.05-0.23,0.084-0.362c0.021-0.119,0.041-0.254,0.058-0.401s0.024-0.304,0.024-0.468
			c0-0.493-0.039-0.906-0.116-1.239c-0.076-0.333-0.172-0.604-0.287-0.813c-0.114-0.207-0.247-0.355-0.394-0.441
			c-0.148-0.09-0.293-0.133-0.436-0.133c-0.142,0-0.287,0.053-0.436,0.156c-0.146,0.104-0.279,0.302-0.393,0.591
			c-0.115,0.289-0.212,0.698-0.287,1.223C83.643,26.592,83.604,27.277,83.604,28.119z"/>
	</g>
	<g>
		<path fill="#16233B" d="M96.232,33.902c-0.145,0.424-0.392,0.797-0.735,1.118c-0.347,0.319-0.759,0.57-1.233,0.751
			c-0.475,0.183-0.97,0.312-1.48,0.395c-0.512,0.084-1.049,0.125-1.605,0.125c-0.248,0-0.486-0.004-0.714-0.016
			c-0.517-0.031-1.026-0.104-1.526-0.218c-0.502-0.113-0.98-0.264-1.436-0.456s-0.838-0.442-1.146-0.752
			c-0.312-0.312-0.503-0.656-0.575-1.039c-0.135-0.734,0.197-1.482,0.992-2.249c0.796-0.766,2.049-1.535,3.754-2.311
			c0.144-0.072,0.281-0.063,0.41,0.023c0.129,0.089,0.186,0.213,0.172,0.372c-0.016,0.162-0.098,0.271-0.243,0.335
			c-0.784,0.36-1.465,0.718-2.038,1.068c-0.572,0.351-1.003,0.653-1.286,0.908c-0.284,0.253-0.508,0.501-0.668,0.743
			c-0.159,0.244-0.253,0.435-0.279,0.574s-0.028,0.266-0.008,0.38c0.084,0.453,0.497,0.853,1.242,1.194
			c0.745,0.341,1.642,0.542,2.698,0.604c0.711,0.053,1.405,0.027,2.076-0.078c0.671-0.102,1.279-0.301,1.822-0.595
			c0.541-0.295,0.887-0.672,1.031-1.125c0.093-0.28,0.145-0.562,0.156-0.847c0.01-0.283-0.032-0.574-0.125-0.874
			c-0.094-0.301-0.191-0.579-0.295-0.839c-0.103-0.257-0.271-0.551-0.504-0.874c-0.232-0.327-0.434-0.603-0.604-0.83
			c-0.171-0.229-0.419-0.518-0.745-0.868c-0.325-0.352-0.581-0.626-0.768-0.821c-0.186-0.197-0.464-0.477-0.838-0.838
			c-0.34-0.362-0.602-0.634-0.781-0.816c-0.183-0.18-0.43-0.443-0.744-0.789c-0.316-0.347-0.556-0.623-0.721-0.83
			c-0.166-0.207-0.365-0.475-0.598-0.807c-0.232-0.331-0.404-0.612-0.512-0.845c-0.109-0.233-0.217-0.506-0.326-0.822
			c-0.108-0.314-0.168-0.602-0.178-0.859c-0.011-0.258,0.014-0.537,0.069-0.838c0.057-0.3,0.152-0.589,0.287-0.868
			c0.382-0.765,1.034-1.284,1.953-1.558c0.919-0.275,2.052-0.287,3.396-0.04c1.239,0.237,2.487,0.651,3.736,1.241
			c1.252,0.59,2.313,1.289,3.188,2.101c0.873,0.812,1.34,1.59,1.402,2.333c0.094,1.035-0.563,1.82-1.969,2.357
			c-1.572,0.436-3.163,0.533-4.776,0.295c-0.104-0.02-0.189-0.075-0.256-0.163c-0.067-0.088-0.092-0.186-0.078-0.295
			c0.016-0.108,0.068-0.195,0.156-0.264c0.088-0.066,0.184-0.094,0.287-0.085c1.479,0.218,2.936,0.135,4.372-0.248
			c1.023-0.392,1.509-0.899,1.457-1.52c-0.052-0.568-0.463-1.196-1.23-1.884c-0.771-0.688-1.744-1.315-2.925-1.885
			c-1.178-0.567-2.352-0.96-3.52-1.178c-0.393-0.072-0.781-0.122-1.162-0.146c-0.385-0.027-0.799-0.016-1.249,0.031
			c-0.45,0.046-0.858,0.175-1.226,0.386c-0.367,0.214-0.643,0.505-0.83,0.877c-0.113,0.228-0.188,0.463-0.224,0.706
			c-0.036,0.242-0.05,0.472-0.038,0.689c0.01,0.217,0.069,0.461,0.177,0.729c0.108,0.269,0.213,0.504,0.31,0.704
			c0.1,0.202,0.256,0.447,0.475,0.738c0.217,0.289,0.398,0.526,0.551,0.712c0.148,0.187,0.37,0.439,0.666,0.76
			c0.296,0.321,0.525,0.566,0.69,0.737c0.165,0.17,0.419,0.426,0.758,0.767c0.353,0.352,0.616,0.621,0.794,0.807
			c0.174,0.186,0.422,0.45,0.742,0.791c0.321,0.341,0.564,0.619,0.729,0.83c0.167,0.211,0.371,0.482,0.613,0.813
			c0.244,0.33,0.425,0.617,0.543,0.861c0.117,0.243,0.246,0.521,0.379,0.836c0.137,0.317,0.218,0.611,0.249,0.884
			c0.031,0.275,0.04,0.566,0.022,0.877C96.38,33.297,96.324,33.602,96.232,33.902z"/>
		<path fill="#16233B" d="M110.94,31.934c0.107,0.009,0.197,0.06,0.27,0.146c0.072,0.088,0.104,0.188,0.094,0.302
			c-0.01,0.114-0.063,0.207-0.155,0.279c-0.155,0.125-0.347,0.269-0.573,0.436c-0.229,0.165-0.667,0.44-1.318,0.829
			c-0.651,0.387-1.301,0.727-1.945,1.016c-0.646,0.289-1.425,0.553-2.335,0.791c-0.909,0.237-1.776,0.355-2.603,0.355
			c-1.057,0.011-2.068-0.18-3.041-0.573c-0.311-0.124-0.571-0.271-0.783-0.441c-0.212-0.172-0.367-0.336-0.473-0.496
			c-0.104-0.16-0.179-0.332-0.225-0.513s-0.068-0.339-0.062-0.473c0.005-0.135,0.022-0.269,0.054-0.403
			c0.114-0.485,0.383-0.967,0.807-1.442c0.425-0.476,0.896-0.847,1.418-1.115s0.991-0.394,1.404-0.374c0.278,0,0.52,0.1,0.722,0.297
			c0.202,0.195,0.311,0.438,0.333,0.728c0.051,0.496-0.229,0.945-0.838,1.35c-0.879,0.548-1.84,0.791-2.883,0.728
			c-0.054-0.009-0.1,0-0.141,0.032c-0.042,0.031-0.058,0.071-0.047,0.124c-0.072,0.526,0.269,0.94,1.023,1.239
			c0.672,0.281,1.395,0.443,2.172,0.489c0.774,0.048,1.497,0.008,2.171-0.115c0.671-0.125,1.357-0.316,2.062-0.576
			c0.702-0.257,1.305-0.518,1.807-0.781c0.5-0.265,0.986-0.543,1.458-0.838c0.47-0.294,0.79-0.504,0.96-0.627
			c0.17-0.125,0.293-0.218,0.365-0.279C110.729,31.954,110.831,31.921,110.94,31.934z M99.163,32.414
			c-0.134,0.187-0.078,0.269,0.17,0.248c0.435-0.03,0.986-0.218,1.66-0.558c0.104-0.062,0.191-0.114,0.263-0.154
			c0.321-0.218,0.472-0.413,0.45-0.589c-0.011-0.115-0.037-0.189-0.078-0.226c-0.041-0.037-0.108-0.06-0.201-0.071
			c-0.33-0.02-0.715,0.1-1.156,0.358C99.831,31.68,99.464,32.011,99.163,32.414z"/>
		<path fill="#16233B" d="M123.88,32.104c0.113,0,0.212,0.035,0.295,0.107c0.081,0.072,0.125,0.167,0.131,0.279
			c0.005,0.113-0.034,0.213-0.117,0.296c-0.062,0.071-0.148,0.165-0.264,0.279c-0.113,0.113-0.324,0.3-0.636,0.559
			c-0.31,0.258-0.626,0.501-0.945,0.729c-0.319,0.226-0.711,0.457-1.17,0.688c-0.46,0.233-0.913,0.413-1.357,0.543
			c-0.443,0.13-0.929,0.189-1.45,0.18c-0.521-0.012-1.016-0.109-1.48-0.296c-0.806-0.401-1.432-0.997-1.876-1.782
			c0-0.011-0.024-0.052-0.069-0.123c-0.047-0.074-0.088-0.133-0.125-0.179c-0.035-0.047-0.082-0.103-0.138-0.164
			c-0.058-0.062-0.12-0.108-0.188-0.139c-0.068-0.033-0.136-0.042-0.21-0.033c-0.826,0.022-1.994,0.916-3.504,2.685
			c-0.134,0.155-0.295,0.187-0.489,0.092c-0.19-0.092-0.26-0.242-0.208-0.45l0.774-3.41c0.021-0.103,0.08-0.187,0.179-0.248
			c0.098-0.063,0.201-0.08,0.311-0.054c0.109,0.025,0.191,0.086,0.249,0.186c0.056,0.099,0.073,0.198,0.053,0.304l-0.355,1.534
			c-0.011,0.051,0.009,0.089,0.062,0.116c0.051,0.025,0.098,0.018,0.139-0.023c1.148-1.086,2.115-1.604,2.901-1.552
			c0.329,0.021,0.61,0.155,0.835,0.404c0.176,0.187,0.332,0.387,0.466,0.604c0.352,0.642,0.849,1.132,1.489,1.473
			c0.32,0.136,0.656,0.213,1.008,0.233c0.351,0.021,0.684,0.002,1-0.055c0.315-0.057,0.637-0.149,0.969-0.279
			c0.33-0.129,0.633-0.271,0.908-0.427c0.273-0.154,0.547-0.325,0.822-0.51c0.272-0.188,0.503-0.358,0.689-0.514
			c0.186-0.155,0.365-0.309,0.541-0.465c0.178-0.154,0.293-0.264,0.351-0.326c0.057-0.061,0.101-0.109,0.132-0.14
			C123.672,32.145,123.765,32.104,123.88,32.104z"/>
		<path fill="#16233B" d="M134.268,31.653c0.114,0,0.208,0.041,0.287,0.118c0.077,0.077,0.116,0.172,0.116,0.287
			c0,0.113-0.036,0.211-0.108,0.294c-0.899,0.898-2.067,1.68-3.504,2.341c-1.437,0.662-2.78,0.993-4.032,0.993
			c-0.269,0-0.527-0.016-0.774-0.046c-0.519-0.043-0.994-0.201-1.427-0.474c-0.434-0.274-0.781-0.634-1.039-1.078
			c-0.053-0.093-0.064-0.191-0.039-0.294c0.027-0.104,0.085-0.186,0.178-0.248c0.094-0.062,0.194-0.08,0.303-0.056
			c0.108,0.027,0.193,0.086,0.256,0.181c0.342,0.454,0.787,0.741,1.341,0.859c0.554,0.119,1.078,0.039,1.573-0.241
			c0.219-0.124,0.351-0.306,0.396-0.55c0.046-0.243-0.018-0.458-0.193-0.643c-0.176-0.187-0.371-0.348-0.59-0.481
			c-0.434-0.259-0.796-0.589-1.084-0.993c-0.042-0.072-0.104-0.114-0.188-0.123c-0.083-0.011-0.15,0.009-0.201,0.062l-1.178,1.116
			c-0.115,0.104-0.249,0.135-0.404,0.095c-0.154-0.042-0.25-0.141-0.287-0.297c-0.035-0.154,0.008-0.288,0.133-0.402l2.371-2.232
			c0.27-0.321,0.574-0.604,0.916-0.854c0.082-0.062,0.18-0.088,0.287-0.077c0.108,0.012,0.197,0.058,0.271,0.14
			c0.072,0.082,0.104,0.178,0.093,0.286c-0.011,0.109-0.052,0.201-0.124,0.271l-0.854,0.791c-0.132,0.156-0.204,0.336-0.215,0.543
			c0,0.166,0.08,0.324,0.24,0.472c0.159,0.152,0.39,0.329,0.688,0.537c0.32,0.186,0.596,0.423,0.822,0.712
			c0.177,0.249,0.276,0.524,0.303,0.829c0.026,0.307-0.033,0.594-0.178,0.862c-0.043,0.082-0.035,0.16,0.023,0.231
			c0.057,0.073,0.131,0.1,0.224,0.077c2.028-0.485,3.8-1.446,5.318-2.884C134.061,31.697,134.153,31.653,134.268,31.653z"/>
	</g>
</g>
<g>
	<path fill-rule="evenodd" clip-rule="evenodd" fill="#FFFFFF" d="M74.191,110.767c0.136-0.407,0.274-0.815,0.408-1.224
		c0.148-0.454,0.285-0.914,0.445-1.363c0.051-0.139,0.143-0.277,0.254-0.373c0.23-0.198,0.486-0.369,0.776-0.584
		c0.034,0.126,0.095,0.235,0.088,0.341c-0.026,0.384-0.021,0.783-0.126,1.147c-0.302,1.036-0.635,2.066-0.989,3.085
		c-0.506,1.46-1.045,2.907-1.562,4.361c-0.086,0.241-0.136,0.495-0.223,0.817c0.934-0.555,1.731-1.126,2.379-1.893
		c0.301-0.355,0.419-0.752,0.46-1.225c0.062-0.704,0.259-1.395,0.362-2.096c0.22-1.495,1.123-2.576,2.123-3.607
		c0.703-0.725,1.501-1.323,2.32-1.909c0.725-0.52,1.396-1.128,2.016-1.771c0.377-0.391,0.639-0.907,0.902-1.393
		c0.773-1.431,1.732-2.709,3.008-3.727c1.142-0.911,2-2.057,2.782-3.269c0.284-0.44,0.547-0.896,0.833-1.337
		c0.229-0.353,0.426-0.716,0.523-1.128c0.019-0.073,0.035-0.165,0.086-0.21c0.084-0.072,0.205-0.168,0.295-0.154
		c0.16,0.022,0.203,0.17,0.156,0.325c-0.074,0.252-0.18,0.499-0.217,0.757c-0.076,0.519-0.134,1.042-0.165,1.564
		c-0.032,0.521-0.163,1.013-0.429,1.453c-0.869,1.435-1.338,3.021-1.727,4.628c-0.358,1.482-0.922,2.881-1.569,4.25
		c-0.072,0.153-0.159,0.302-0.257,0.439c-0.993,1.379-1.967,2.773-2.992,4.128c-0.85,1.12-1.922,2.002-3.152,2.691
		c-0.253,0.144-0.489,0.325-0.707,0.519c-0.737,0.656-1.617,0.882-2.572,0.868c-0.399-0.006-0.799-0.065-1.209-0.102
		c-0.015,0.008-0.05,0.018-0.064,0.04c-0.58,0.924-1.387,1.608-2.293,2.191c-0.992,0.639-0.982,0.643-1.3,1.771
		c-0.176,0.625-0.384,1.239-0.576,1.859c-0.044,0.144-0.087,0.289-0.138,0.464c0.411-0.325,0.795-0.619,1.168-0.925
		c0.076-0.063,0.135-0.169,0.164-0.266c0.279-0.95,0.861-1.689,1.578-2.352c0.951-0.878,2.099-1.176,3.351-1.261
		c0.836-0.056,1.737,1.05,1.53,1.865c-0.163,0.646-0.467,1.173-0.949,1.606c-1.264,1.139-2.791,1.474-4.436,1.355
		c-0.349-0.023-0.684-0.243-1.099-0.4c-0.079,0.05-0.257,0.125-0.382,0.252c-0.467,0.472-0.923,0.955-1.367,1.449
		c-0.096,0.107-0.145,0.27-0.18,0.416c-0.309,1.275-0.606,2.555-0.912,3.83c-0.135,0.555-0.283,1.107-0.422,1.662
		c-0.019,0.068-0.021,0.141-0.025,0.17c0.523-0.516,1.058-1.045,1.627-1.607c-0.017-0.049-0.042-0.15-0.086-0.244
		c-0.227-0.494-0.208-0.971,0.141-1.395c0.995-1.203,2.113-2.258,3.604-2.828c0.649-0.248,1.306-0.479,1.964-0.699
		c0.307-0.105,0.621-0.189,0.938-0.254c1.566-0.32,3.092-0.779,4.512-1.511c1.18-0.609,2.273-1.343,3.267-2.259
		c1.053-0.972,1.79-2.162,2.61-3.298c0.248-0.345,0.373-0.776,0.561-1.166c0.127-0.264,0.262-0.525,0.4-0.783
		c0.07-0.13,0.18-0.229,0.34-0.157c0.188,0.085,0.158,0.246,0.096,0.397c-0.109,0.256-0.241,0.502-0.34,0.761
		c-0.308,0.808-0.648,1.606-0.896,2.432c-0.708,2.352-2.012,4.339-3.717,6.065c-0.535,0.541-1.2,0.977-1.861,1.369
		c-1.123,0.664-2.131,1.479-3.136,2.297c-0.886,0.725-1.868,1.248-2.968,1.566c-0.742,0.213-1.479,0.449-2.206,0.699
		c-0.393,0.137-0.784,0.205-1.183,0.104c-0.493-0.123-0.982-0.268-1.461-0.438c-0.23-0.082-0.414-0.104-0.587,0.084
		c-0.576,0.621-1.171,1.219-1.644,1.939c-0.539,0.824-0.678,1.744-0.797,2.67c-0.081,0.627-0.08,1.262-0.119,1.955
		c0.351-0.182,0.666-0.348,0.986-0.516c0-0.107,0.01-0.199-0.001-0.287c-0.142-1.201,0.283-2.178,1.161-2.98
		c0.629-0.574,1.363-0.957,2.195-1.141c0.58-0.127,1.164-0.182,1.714,0.184c0.858-0.654,1.805-1.15,2.854-1.391
		c0.735-0.168,1.493-0.232,2.241-0.344c0.504-0.076,1.01-0.141,1.512-0.229c1.641-0.293,3.034-1.133,4.358-2.072
		c1.069-0.756,2.053-1.635,3.083-2.447c0.496-0.393,1.012-0.76,1.521-1.137c0.062-0.045,0.133-0.096,0.204-0.105
		c0.099-0.014,0.233-0.029,0.294,0.023c0.061,0.057,0.072,0.191,0.067,0.291c-0.005,0.088-0.054,0.178-0.099,0.258
		c-0.717,1.279-1.399,2.58-2.169,3.83c-0.546,0.885-1.345,1.574-2.149,2.227c-0.598,0.484-1.248,0.908-1.887,1.344
		c-0.71,0.48-1.502,0.787-2.318,1.037c-0.251,0.076-0.5,0.16-0.752,0.232c-1.465,0.408-2.625,1.283-3.626,2.387
		c-0.605,0.67-1.327,1.084-2.22,1.234c-0.562,0.094-1.117,0.24-1.67,0.381c-0.545,0.139-1.008,0.41-1.459,0.764
		c-0.434,0.338-0.875,0.662-1.289,1.033c-0.699,0.625-1.262,1.348-1.709,2.172c-0.266,0.488-0.584,0.947-0.856,1.432
		c-0.261,0.463-0.069,0.836,0.438,0.947c0.814,0.18,1.623,0.379,2.393,0.717c0.493,0.215,1.003,0.395,1.529,0.6
		c0.332-0.309,0.732-0.281,1.16-0.213c0.777,0.125,1.56,0.227,2.342,0.312c0.952,0.102,1.803,0.459,2.533,1.055
		c1.015,0.832,1.986,1.717,2.984,2.568c0.822,0.701,1.672,1.369,2.477,2.088c0.752,0.67,1.359,1.475,1.926,2.307
		c0.034,0.051,0.084,0.117,0.075,0.166c-0.019,0.109-0.044,0.242-0.117,0.309c-0.042,0.037-0.202-0.01-0.276-0.062
		c-0.084-0.061-0.141-0.164-0.191-0.258c-0.232-0.43-0.613-0.682-1.052-0.838c-0.479-0.172-0.964-0.332-1.459-0.445
		c-0.229-0.053-0.495-0.018-0.729,0.039c-0.394,0.096-0.528,0.531-0.259,0.83c0.332,0.367,0.678,0.725,1.053,1.045
		c0.191,0.164,0.457,0.248,0.696,0.352c0.079,0.033,0.185,0.027,0.271,0.012c0.215-0.043,0.52-0.336,0.503-0.496
		c-0.023-0.232-0.218-0.338-0.402-0.402c-0.184-0.064-0.394-0.047-0.582-0.102c-0.1-0.029-0.18-0.129-0.27-0.197
		c0.07-0.09,0.122-0.221,0.214-0.264c0.273-0.125,0.552-0.045,0.805,0.078c0.366,0.178,0.741,0.377,0.743,0.855
		c0.003,0.502-0.348,0.768-0.747,0.975c-0.231,0.119-0.479,0.086-0.724,0.02c-0.576-0.16-0.996-0.545-1.396-0.959
		c-0.128-0.133-0.239-0.287-0.382-0.404c-0.334-0.27-0.431-0.611-0.396-1.027c0.031-0.367,0.201-0.609,0.533-0.74
		c0.429-0.172,0.867-0.215,1.316-0.088c0.323,0.094,0.648,0.178,1.061,0.289c-0.359-0.529-0.784-0.867-1.205-1.191
		c-0.6-0.463-1.195-0.922-1.756-1.436c-0.992-0.906-2.009-1.787-3.047-2.641c-0.693-0.57-1.516-0.869-2.421-0.955
		c-0.69-0.066-1.378-0.18-2.067-0.271c-0.121-0.016-0.245-0.031-0.367-0.049c-0.277-0.037-0.481,0.047-0.588,0.326
		c-0.231,0.613-0.738,0.84-1.336,0.922c-0.966,0.135-1.912,0.096-2.807-0.35c-0.054-0.025-0.115-0.035-0.214-0.064
		c-0.031,0.564,0.073,1.09,0.151,1.617c0.061,0.396,0.26,0.682,0.539,0.98c0.865,0.926,1.982,1.35,3.137,1.707
		c0.574,0.178,1.171,0.281,1.758,0.414c0.346,0.08,0.661,0.07,0.947-0.201c0.196-0.189,0.283-0.162,0.444,0.068
		c0.362,0.52,0.722,1.039,1.067,1.57c0.35,0.535,0.755,1.01,1.301,1.363c0.388,0.25,0.756,0.531,1.125,0.811
		c0.242,0.184,0.274,0.404,0.105,0.693c-0.289,0.492-0.617,0.963-0.875,1.473c-0.555,1.094-0.896,2.266-1.203,3.449
		c-0.291,1.119-0.616,2.232-0.936,3.344c-0.141,0.486-0.191,0.965-0.047,1.459c0.117,0.406,0.025,0.486-0.4,0.396
		c-0.027-0.008-0.06,0.008-0.121,0.018c-0.464,0.588-0.967,1.174-1.416,1.801c-0.794,1.107-1.838,1.932-3.014,2.561
		c-1.309,0.697-2.689,1.244-4.178,1.465c-0.196,0.029-0.387,0.102-0.583,0.145c-0.136,0.029-0.279,0.074-0.409,0.053
		c-0.096-0.018-0.234-0.123-0.246-0.205c-0.012-0.078,0.1-0.213,0.191-0.256c0.162-0.072,0.348-0.096,0.577-0.152
		c-0.14-0.34-0.232-0.652-0.391-0.93c-0.749-1.314-1.181-2.754-1.572-4.197c-0.36-1.328-0.464-2.707-0.409-4.09
		c0.027-0.711,0.03-1.422,0.04-2.135c0.003-0.199-0.011-0.4-0.019-0.602c-0.047-1.213-0.525-2.209-1.496-2.955
		c-0.036-0.027-0.072-0.057-0.111-0.082c-0.151-0.107-0.283-0.244-0.132-0.416c0.136-0.156,0.323-0.088,0.458,0.027
		c0.648,0.557,1.28,1.127,1.525,1.994c0.025,0.088,0.059,0.174,0.088,0.26c0.006,0.014,0.023,0.02,0.063,0.055
		c0.067-0.068,0.143-0.133,0.206-0.207c1.066-1.242,1.914-2.621,2.478-4.158c0.282-0.766,0.515-1.555,0.691-2.352
		c0.075-0.342-0.024-0.734-0.09-1.096c-0.104-0.576-0.247-1.146-0.377-1.719c-0.009-0.041-0.044-0.076-0.103-0.178
		c-0.252,0.488-0.663,0.756-1.072,1.027c-0.907,0.602-1.922,0.814-2.992,0.83c-0.062,0.002-0.133,0.014-0.184-0.012
		c-0.535-0.256-0.833,0.047-1.164,0.42c-0.828,0.938-1.68,1.855-2.553,2.752c-0.463,0.473-0.989,0.885-1.484,1.326
		c-0.066,0.059-0.118,0.135-0.191,0.219c0.312,0.258,0.627,0.48,0.898,0.75c0.736,0.729,1.049,1.615,0.924,2.65
		c-0.036,0.297-0.145,0.541-0.451,0.641c-0.301,0.1-0.559-0.012-0.758-0.223c-0.242-0.256-0.498-0.52-0.666-0.824
		c-0.23-0.416-0.39-0.873-0.566-1.316c-0.043-0.109-0.059-0.244-0.043-0.363c0.033-0.281,0.316-0.406,0.555-0.262
		c0.221,0.135,0.389,0.59,0.255,0.816c-0.085,0.145-0.079,0.246-0.025,0.381c0.183,0.453,0.458,0.84,0.808,1.174
		c0.07,0.068,0.18,0.096,0.27,0.141c0.44-0.818-0.123-2.469-1.631-3.137c-0.113,0.127-0.235,0.262-0.358,0.396
		c-0.116,0.125-0.259,0.193-0.405,0.068c-0.152-0.127-0.109-0.275,0.015-0.402c0.552-0.561,1.072-1.16,1.669-1.668
		c0.732-0.625,1.433-1.271,2.066-1.994c0.55-0.627,1.113-1.242,1.66-1.873c0.211-0.242,0.464-0.348,0.779-0.318
		c1.025-1.818,2.705-2.955,4.244-4.242c-0.05-1.637-0.418-3.277-0.195-4.986c-0.309-0.092-0.578-0.172-0.842-0.25
		c-0.032,0.072-0.055,0.1-0.055,0.125c0.048,1.15-0.637,2.137-1.734,2.516c-0.522,0.18-1.059,0.229-1.602,0.174
		c-0.443-0.047-0.896-0.084-1.324-0.201c-1.089-0.297-1.885-1.447-1.809-2.57c0.037-0.562,0.346-0.98,0.779-1.314
		c0.574-0.441,1.242-0.631,1.951-0.623c0.617,0.008,1.234,0.064,1.846,0.139c0.568,0.072,1.088,0.309,1.426,0.783
		c0.336,0.475,0.835,0.514,1.367,0.674c0.065-0.504,0.128-0.959,0.182-1.414c0.017-0.152-0.021-0.318,0.02-0.463
		c0.105-0.371-0.041-0.623-0.324-0.836c-0.258-0.195-0.504-0.408-0.768-0.598c-0.549-0.398-1.138-0.746-1.559-1.354
		c-0.439,0.318-0.895,0.473-1.4,0.494c-0.697,0.031-1.348-0.098-1.958-0.447c-0.88-0.504-1.654-1.127-2.33-1.889
		c-0.451-0.506-0.96-0.961-1.443-1.439c-0.165-0.162-0.345-0.312-0.489-0.492c-1.26-1.561-2.34-3.219-2.952-5.156
		c-0.148-0.473-0.478-0.896-0.766-1.312c-0.476-0.686-1.035-1.316-1.464-2.028c-0.355-0.588-0.602-1.249-0.84-1.897
		c-0.175-0.478-0.26-0.985-0.383-1.48c-0.088-0.35-0.231-0.656-0.502-0.919c-0.195-0.188-0.331-0.441-0.471-0.68
		c-0.074-0.126-0.066-0.282,0.084-0.364c0.156-0.085,0.254,0.021,0.349,0.135c1.084,1.313,2.272,2.526,3.577,3.619
		c0.254,0.213,0.578,0.35,0.886,0.488c0.9,0.406,1.822,0.767,2.647,1.326c1.706,1.156,3.094,2.578,4.001,4.466
		c0.459,0.955,1.068,1.842,1.64,2.74c0.422,0.666,0.898,1.293,1.338,1.945c0.354,0.525,0.514,1.133,0.557,1.748
		c0.025,0.367,0.166,0.643,0.371,0.906c0.141,0.182,0.301,0.357,0.482,0.498c0.596,0.459,1.205,0.9,1.863,1.389
		c0.031-0.281,0.064-0.504,0.08-0.729c0.055-0.816,0.119-1.631,0.316-2.432c0.271-1.096,0.258-1.1-0.465-1.99
		c-0.068-0.082-0.137-0.164-0.223-0.268c-0.072,0.031-0.141,0.057-0.205,0.09c-0.404,0.205-0.802,0.178-1.201-0.018
		c-0.422-0.205-0.805-0.467-1.107-0.826c-0.979-1.164-1.67-2.473-2.027-3.959c-0.227-0.939,0.479-1.611,1.168-1.756
		c0.645-0.137,1.265-0.035,1.854,0.232c0.573,0.26,1.056,0.637,1.389,1.186c0.402,0.666,0.728,1.361,0.892,2.125
		c0.192,0.896,0.027,1.748-0.343,2.621c0.189,0.23,0.39,0.475,0.659,0.803c0.089-0.324,0.158-0.553,0.212-0.783
		c0.333-1.428,0.656-2.859,0.998-4.287c0.056-0.229,0.051-0.416-0.09-0.607c-0.599-0.818-1.002-1.736-1.357-2.677
		c-0.027-0.069-0.071-0.134-0.117-0.216c-0.081,0.032-0.178,0.039-0.213,0.089c-0.373,0.527-0.901,0.47-1.428,0.377
		c-0.348-0.062-0.689-0.163-1.031-0.259c-0.626-0.179-1.132-0.558-1.602-0.989c-1-0.918-1.808-1.989-2.471-3.168
		c-0.689-1.224-1.355-2.462-2.031-3.693c-0.504-0.915-0.668-1.913-0.75-2.94c-0.077-0.967-0.078-1.948-0.35-2.893
		c-0.115-0.399-0.238-0.801-0.402-1.182c-0.287-0.666-0.643-1.304-0.908-1.977c-0.418-1.062-0.786-2.145-1.17-3.22
		c-0.035-0.099-0.057-0.224-0.025-0.317c0.046-0.139,0.119-0.322,0.229-0.367c0.101-0.042,0.288,0.048,0.398,0.131
		c0.145,0.109,0.268,0.258,0.373,0.408c0.996,1.416,1.979,2.84,2.98,4.252c0.803,1.131,1.548,2.313,2.579,3.262
		c0.567,0.521,1.179,0.994,1.783,1.476c0.946,0.756,1.823,1.568,2.47,2.612c0.233,0.376,0.549,0.709,0.869,1.019
		c0.309,0.297,0.545,0.618,0.682,1.026c0.342,1.028,0.658,2.06,0.766,3.145c0.082,0.811,0.021,1.604-0.249,2.378
		c-0.048,0.137-0.072,0.308-0.036,0.444c0.253,0.948,0.704,1.809,1.189,2.657c0.034,0.059,0.1,0.102,0.164,0.164
		c0.211-0.633,0.412-1.227,0.606-1.822c0.336-1.027,0.687-2.05,0.993-3.085c0.162-0.546,0.201-1.13,0.375-1.67
		c0.391-1.221,0.811-2.433,1.264-3.631c0.193-0.514,0.22-1.021,0.141-1.541c-0.099-0.656-0.219-1.309-0.348-1.961
		c-0.02-0.101-0.113-0.215-0.205-0.27c-0.844-0.518-1.48-1.249-2.09-2.008c-0.094-0.118-0.156-0.266-0.217-0.408
		c-0.516-1.206-1.059-2.402-1.533-3.625c-0.509-1.309-1.017-2.622-1.184-4.036c-0.057-0.479-0.071-0.95,0.044-1.425
		c0.42-1.733,0.673-3.484,0.608-5.277c-0.042-1.174-0.031-2.347-0.242-3.51c-0.094-0.515-0.12-1.042-0.169-1.565
		c-0.011-0.12-0.011-0.253,0.026-0.366c0.031-0.089,0.131-0.223,0.191-0.219c0.098,0.008,0.23,0.092,0.273,0.18
		c0.251,0.513,0.481,1.035,0.715,1.556c0.603,1.348,1.398,2.58,2.297,3.744c0.607,0.788,1.126,1.623,1.527,2.534
		c0.099,0.225,0.23,0.438,0.357,0.648c1.152,1.902,1.699,4.002,1.949,6.183c0.145,1.255,0.013,2.494-0.461,3.689
		c-0.394,0.989-0.729,2.002-1.115,2.995c-0.197,0.51-0.361,1.01-0.225,1.566c0.096,0.398,0.168,0.804,0.251,1.206
		C74.111,110.77,74.15,110.769,74.191,110.767z M67.92,168.199c0.174-0.027,0.33-0.029,0.473-0.076
		c0.79-0.262,1.579-0.527,2.363-0.807c0.93-0.328,1.721-0.891,2.503-1.473c0.251-0.188,0.325-0.389,0.243-0.674
		c-0.191-0.666-0.371-1.336-0.571-1.998c-0.157-0.516-0.347-1.021-0.507-1.535c-0.238-0.768-0.391-1.568-0.709-2.299
		c-0.719-1.654-1.104-3.4-1.537-5.135c-0.078-0.312-0.127-0.635-0.184-0.955c-0.139-0.789-0.279-1.578-0.41-2.369
		c-0.101-0.602-0.188-1.205-0.28-1.809c-0.104,0.061-0.152,0.121-0.167,0.191c-0.212,0.969-0.52,1.91-0.973,2.789
		c-0.402,0.781-0.841,1.547-1.316,2.285c-0.342,0.529-0.779,0.996-1.159,1.502c-0.083,0.111-0.14,0.27-0.144,0.408
		c-0.018,0.879,0.01,1.76-0.031,2.639c-0.066,1.432,0.049,2.854,0.416,4.227c0.379,1.41,0.812,2.816,1.549,4.104
		C67.652,167.518,67.768,167.855,67.92,168.199z M74.875,164.094c0.111-0.133,0.159-0.189,0.207-0.246
		c0.411-0.479,0.827-0.953,1.227-1.441c0.064-0.08,0.065-0.219,0.08-0.334c0.044-0.35,0.037-0.713,0.127-1.049
		c0.357-1.357,0.738-2.711,1.123-4.061c0.345-1.203,0.701-2.402,1.381-3.475c0.203-0.32,0.385-0.656,0.586-1
		c-0.317-0.25-0.59-0.51-0.903-0.699c-0.752-0.449-1.298-1.078-1.735-1.824c-0.231-0.396-0.51-0.762-0.77-1.145
		c-0.367,0.186-0.699,0.232-1.039,0.174c-1.177-0.197-2.334-0.473-3.417-0.984c-0.511-0.242-0.999-0.531-1.54-0.822
		c0.055,0.328,0.086,0.646,0.164,0.955c0.368,1.469,0.673,2.945,0.919,4.439c0.271,1.646,0.704,3.262,1.266,4.836
		c0.509,1.422,1.099,2.818,1.622,4.238c0.223,0.605,0.371,1.24,0.551,1.861C74.77,163.678,74.809,163.842,74.875,164.094z
		 M68.133,119.748c0.051,0,0.1,0,0.15,0.001c0.085-0.192,0.211-0.376,0.246-0.577c0.079-0.455,0.159-0.917,0.155-1.375
		c-0.011-1.301-0.392-2.526-0.846-3.73c-0.068-0.181-0.191-0.358-0.336-0.486c-0.503-0.446-0.909-0.962-1.265-1.53
		c-0.179-0.286-0.39-0.56-0.622-0.806c-0.628-0.663-1.32-1.251-2.061-1.79c-0.992-0.721-1.873-1.564-2.582-2.576
		c-1.135-1.618-2.269-3.238-3.403-4.857c-0.115-0.165-0.236-0.325-0.359-0.484c-0.121-0.157-0.247-0.311-0.371-0.467
		c0.303,1.41,0.908,2.676,1.483,3.953c0.253,0.562,0.49,1.133,0.685,1.716c0.297,0.889,0.289,1.827,0.367,2.75
		c0.088,1.018,0.154,2.038,0.657,2.962c0.717,1.315,1.42,2.639,2.17,3.935c0.371,0.639,0.804,1.249,1.266,1.826
		c0.374,0.469,0.825,0.877,1.257,1.296c0.684,0.663,1.595,0.772,2.463,0.966c0.359,0.079,0.656-0.099,0.84-0.516
		c-0.281-0.367-0.568-0.747-0.861-1.121c-0.199-0.256-0.426-0.492-0.609-0.758c-1.094-1.591-2.157-3.204-3.439-4.656
		c-0.047-0.053-0.076-0.123-0.119-0.197c0.258-0.023,0.27-0.034,0.4,0.127c0.498,0.61,1.01,1.212,1.474,1.847
		C65.973,116.705,67.049,118.23,68.133,119.748z M73.464,107.704c0.038-0.002,0.075-0.005,0.114-0.007
		c0.033-0.048,0.077-0.094,0.097-0.147c0.427-1.174,0.87-2.344,1.266-3.529c0.13-0.389,0.159-0.817,0.19-1.23
		c0.078-1.01-0.047-2.001-0.259-2.989c-0.333-1.55-0.802-3.043-1.632-4.408c-0.183-0.303-0.318-0.634-0.496-0.94
		c-0.373-0.64-0.711-1.307-1.148-1.899c-0.938-1.27-1.834-2.561-2.502-3.998c-0.023-0.052-0.066-0.095-0.146-0.202
		c0,0.145-0.011,0.216,0.002,0.283c0.176,0.897,0.211,1.806,0.248,2.718c0.086,2.1-0.107,4.164-0.618,6.202
		c-0.077,0.307-0.085,0.646-0.054,0.961c0.178,1.777,0.854,3.405,1.531,5.032c0.351,0.841,0.708,1.678,1.076,2.511
		c0.117,0.266,0.232,0.554,0.426,0.761c0.494,0.528,1.033,1.017,1.556,1.518c0.026,0.026,0.083,0.02,0.139,0.03
		c0.115-0.393-0.065-0.734-0.141-1.089c-0.081-0.377-0.175-0.751-0.251-1.13c-0.073-0.363-0.137-0.729-0.195-1.095
		c-0.059-0.366-0.109-0.733-0.157-1.101c-0.05-0.383-0.089-0.768-0.138-1.149c-0.047-0.368-0.092-0.737-0.152-1.102
		c-0.064-0.381-0.162-0.756-0.217-1.138c-0.051-0.341-0.285-0.663-0.107-1.038c0.09,0.091,0.156,0.188,0.182,0.295
		c0.131,0.557,0.281,1.109,0.367,1.674c0.178,1.159,0.297,2.329,0.482,3.486C73.072,105.894,73.281,106.797,73.464,107.704z
		 M82.217,107.542c0.164,0.161,0.054,0.279-0.009,0.394c-0.214,0.39-0.543,0.672-0.905,0.913c-0.533,0.354-0.916,0.823-1.158,1.408
		c-0.377,0.906-0.861,1.748-1.531,2.469c-0.409,0.439-0.85,0.852-1.273,1.278c-0.08,0.08-0.149,0.171-0.275,0.318
		c1.057,0.117,1.975,0.035,2.79-0.6c0.399-0.311,0.834-0.579,1.252-0.868c0.254-0.175,0.511-0.347,0.76-0.528
		c1.103-0.802,1.958-1.835,2.744-2.933c0.666-0.929,1.325-1.863,1.976-2.803c0.184-0.266,0.352-0.546,0.488-0.839
		c0.605-1.305,1.105-2.643,1.447-4.048c0.391-1.604,0.88-3.185,1.745-4.62c0.269-0.443,0.418-0.94,0.296-1.49
		c-0.182,0.213-0.321,0.445-0.466,0.674c-0.822,1.299-1.737,2.514-2.948,3.488c-0.42,0.337-0.809,0.72-1.172,1.118
		c-0.723,0.79-1.305,1.679-1.81,2.626c-0.259,0.486-0.545,0.984-0.923,1.379c-0.736,0.769-1.529,1.484-2.432,2.068
		c-0.361,0.233-0.73,0.475-1.042,0.768c-0.765,0.72-1.521,1.454-2.11,2.331c-0.188,0.277-0.371,0.58-0.461,0.897
		c-0.197,0.696-0.34,1.41-0.489,2.119c-0.058,0.271-0.083,0.549-0.106,0.826c-0.008,0.092,0.041,0.188,0.068,0.299
		c0.08-0.039,0.127-0.051,0.16-0.079c1.324-1.12,2.462-2.382,3.109-4.028c0.23-0.587,0.633-1.055,1.161-1.41
		c0.374-0.252,0.716-0.538,0.932-0.949C82.071,107.651,82.153,107.602,82.217,107.542z M51.879,116.854
		c-0.036,0.027-0.072,0.056-0.107,0.082c0.188,0.981,0.465,1.94,1.016,2.785c0.455,0.697,0.998,1.337,1.47,2.025
		c0.313,0.455,0.65,0.92,0.836,1.432c0.422,1.17,0.899,2.301,1.618,3.32c0.524,0.744,1.01,1.518,1.688,2.145
		c0.521,0.482,1.034,0.979,1.51,1.504c0.618,0.684,1.322,1.248,2.109,1.721c0.645,0.389,1.334,0.467,2.055,0.387
		c0.17-0.02,0.332-0.109,0.501-0.166c-0.374-0.393-0.696-0.766-1.054-1.102c-0.812-0.764-1.562-1.58-2.269-2.443
		c-0.525-0.645-1.131-1.223-1.703-1.83c-0.212-0.223-0.435-0.438-0.643-0.668c-0.049-0.053-0.056-0.145-0.111-0.299
		c0.159,0.072,0.253,0.088,0.31,0.145c0.571,0.562,1.159,1.113,1.699,1.705c0.749,0.822,1.448,1.689,2.194,2.514
		c0.435,0.48,0.916,0.918,1.382,1.371c0.117,0.113,0.258,0.205,0.451,0.357c-0.029-0.559-0.072-1.023-0.235-1.471
		c-0.084-0.23-0.149-0.49-0.3-0.67c-0.716-0.861-1.256-1.836-1.842-2.781c-0.405-0.656-0.854-1.297-1.18-1.992
		c-0.811-1.736-2.089-3.041-3.626-4.128c-0.839-0.595-1.784-0.979-2.718-1.39c-0.31-0.137-0.648-0.253-0.9-0.465
		c-0.648-0.546-1.26-1.14-1.878-1.722C52.043,117.116,51.969,116.977,51.879,116.854z M72.396,135.334
		c0.087-0.143,0.167-0.287,0.261-0.424c0.209-0.305,0.417-0.611,0.639-0.906c0.204-0.273,0.449-0.514,0.636-0.795
		c0.914-1.381,2.226-2.246,3.712-2.889c0.068-0.029,0.166,0.014,0.251,0.021c0.007,0.037,0.014,0.076,0.021,0.113
		c-0.282,0.148-0.572,0.285-0.846,0.449c-0.556,0.33-1.156,0.613-1.638,1.031c-0.519,0.451-0.923,1.033-1.376,1.559
		c-0.19,0.223-0.365,0.459-0.564,0.674c-0.283,0.307-0.489,0.654-0.648,1.045c0.672-0.566,1.504-0.695,2.295-0.92
		c0.295-0.082,0.604-0.129,0.908-0.176c0.814-0.121,1.467-0.504,2.021-1.115c1.031-1.139,2.233-2.039,3.736-2.475
		c0.266-0.078,0.529-0.166,0.797-0.246c0.802-0.242,1.579-0.545,2.274-1.02c0.638-0.436,1.286-0.861,1.882-1.35
		c0.729-0.598,1.443-1.232,1.957-2.029c0.578-0.895,1.078-1.838,1.607-2.764c0.046-0.078,0.061-0.174,0.121-0.357
		c-0.247,0.18-0.412,0.291-0.567,0.418c-0.802,0.654-1.61,1.301-2.399,1.971c-1.226,1.039-2.634,1.775-4.069,2.467
		c-0.124,0.061-0.262,0.096-0.396,0.133c-1.029,0.293-2.08,0.461-3.145,0.539c-1.582,0.119-3.031,0.6-4.277,1.594
		c-0.518,0.412-1.006,0.867-1.456,1.352c-0.694,0.748-1.342,1.533-1.736,2.498C72.181,134.258,72.161,134.768,72.396,135.334z
		 M72.3,126.961c0.275,0.127,0.461,0.23,0.66,0.295c0.278,0.09,0.569,0.145,0.851,0.223c0.34,0.094,0.663,0.059,0.998-0.051
		c0.805-0.27,1.617-0.512,2.428-0.762c0.895-0.277,1.709-0.711,2.449-1.281c0.525-0.404,1.024-0.846,1.556-1.242
		c0.505-0.381,1.015-0.764,1.561-1.08c1.273-0.738,2.396-1.635,3.243-2.85c0.193-0.279,0.394-0.556,0.599-0.825
		c0.701-0.92,1.159-1.965,1.571-3.033c0.035-0.089,0.047-0.187,0.069-0.281c-0.145,0.119-0.241,0.257-0.344,0.392
		c-0.771,1.016-1.675,1.909-2.7,2.654c-1.873,1.364-3.981,2.219-6.232,2.741c-0.705,0.166-1.405,0.357-2.095,0.578
		c-0.587,0.186-1.167,0.406-1.73,0.658c-0.845,0.375-1.521,0.994-2.179,1.629c-0.266,0.256-0.512,0.535-0.74,0.826
		c-0.264,0.336-0.243,0.693-0.06,1.027c0.733-0.461,1.449-0.885,2.138-1.348c0.52-0.35,1.08-0.588,1.665-0.793
		c0.581-0.207,1.148-0.451,1.722-0.678c0.078-0.029,0.157-0.053,0.251-0.084c0.068,0.252-0.095,0.305-0.229,0.361
		c-0.411,0.176-0.814,0.383-1.243,0.502c-1.321,0.367-2.427,1.135-3.549,1.869C72.744,126.547,72.564,126.736,72.3,126.961z
		 M68.066,126.459c-0.021-1.006-0.408-1.879-0.923-2.697c-0.547-0.869-1.374-1.264-2.392-1.248
		c-0.826,0.012-1.258,0.549-1.062,1.342c0.318,1.279,0.938,2.414,1.746,3.443c0.299,0.381,0.683,0.672,1.131,0.869
		c0.203,0.09,0.42,0.154,0.622,0.023c0.286-0.186,0.571-0.391,0.668-0.738C67.948,127.127,67.998,126.791,68.066,126.459z
		 M63.403,135.852c-0.302,0.02-0.563,0.027-0.824,0.053c-0.458,0.043-0.866,0.221-1.229,0.494c-0.332,0.252-0.58,0.572-0.574,1.008
		c0.016,0.906,0.509,1.641,1.287,1.916c0.914,0.324,1.871,0.41,2.814,0.082c0.512-0.178,0.909-0.533,1.174-1
		c0.566-1.004-0.104-2.238-1.305-2.414C64.289,135.924,63.826,135.895,63.403,135.852z M75.044,120.712
		c1.519-0.082,2.216-0.305,3.408-1.167c0.53-0.383,0.912-0.876,0.977-1.558c0.056-0.589-0.503-1.2-1.093-1.177
		c-1.963,0.078-3.323,1.079-4.218,2.778c-0.07,0.135-0.108,0.289-0.141,0.438c-0.062,0.293-0.021,0.396,0.266,0.498
		C74.5,120.617,74.776,120.652,75.044,120.712z M70.352,134.174c-0.33,0.193-0.62,0.367-0.914,0.533
		c-0.195,0.109-0.251,0.273-0.285,0.488c-0.17,1.086-0.203,2.18-0.211,3.273c-0.002,0.363,0.034,0.725,0.053,1.086
		c0.031,0.008,0.063,0.014,0.096,0.021c0.414-0.66,0.78-1.354,1.253-1.967c0.485-0.631,1.073-1.182,1.583-1.732
		c-0.1-0.389-0.189-0.74-0.281-1.1C71.129,134.807,70.697,134.646,70.352,134.174z M74.762,129.842
		c-0.008-0.041-0.017-0.082-0.025-0.123c-0.256,0-0.518-0.033-0.768,0.006c-0.859,0.133-1.623,0.486-2.268,1.078
		c-0.838,0.771-1.19,1.707-0.938,2.84c0.122,0.553,0.373,0.695,0.951,0.525C72.217,132.377,73.52,131.129,74.762,129.842z
		 M67.914,143.049c-1.375,1.238-2.875,2.189-3.762,3.768c0.062,0.039,0.087,0.068,0.112,0.068c1.2-0.014,2.291-0.357,3.188-1.168
		c0.277-0.25,0.443-0.623,0.654-0.945c0.029-0.045,0.033-0.121,0.025-0.178C68.068,144.121,68,143.65,67.914,143.049z
		 M69.234,141.762c0.039,0.377,0.055,0.715,0.117,1.043c0.025,0.133,0.123,0.291,0.236,0.361c1.018,0.635,2.117,0.67,3.245,0.385
		c0.2-0.051,0.395-0.166,0.442-0.443C71.989,142.518,70.685,142.037,69.234,141.762z"/>
	<path fill-rule="evenodd" clip-rule="evenodd" fill="#FFFFFF" d="M79.25,201.902c0.115-0.023,0.186-0.037,0.256-0.053
		c0.79-0.178,1.486,0.197,1.761,0.961c0.271,0.758,0.157,1.498-0.16,2.209c-0.144,0.322-0.335,0.627-0.537,0.918
		c-0.12,0.174-0.139,0.314-0.079,0.512c0.146,0.486,0.244,0.986,0.396,1.469c0.119,0.383,0.283,0.748,0.445,1.113
		c0.037,0.086,0.144,0.145,0.24,0.234c0.102-0.115,0.182-0.203,0.26-0.291c0.265-0.303,0.457-0.354,0.814-0.184
		c0.75,0.355,1.111,0.979,1.101,1.785c-0.012,0.777-0.283,1.486-0.791,2.084c-0.518,0.607-1.235,0.582-1.737-0.045
		c-0.558-0.693-0.635-1.479-0.323-2.271c0.179-0.453,0.146-0.812-0.087-1.211c-0.285-0.484-0.432-1.018-0.514-1.576
		c-0.042-0.293-0.156-0.578-0.25-0.912c-0.179,0.186-0.303,0.316-0.469,0.488c0.117,0.305,0.215,0.666,0.386,0.986
		c0.436,0.822,0.491,1.688,0.337,2.57c-0.182,1.049-0.312,2.109-0.607,3.137c-0.139,0.486-0.173,1.004-0.227,1.51
		c-0.096,0.877-0.189,1.752-0.246,2.629c-0.072,1.127-0.142,2.254-0.148,3.381c-0.014,1.977-0.076,3.955,0.225,5.92
		c0.068,0.439,0.025,0.896,0.062,1.342c0.082,0.953,0.185,1.906,0.273,2.857c0.012,0.123,0.018,0.252-0.014,0.367
		c-0.021,0.074-0.115,0.178-0.176,0.178c-0.088,0-0.199-0.066-0.256-0.139c-0.051-0.062-0.046-0.174-0.055-0.266
		c-0.068-0.705-0.133-1.412-0.2-2.119c-0.021-0.217-0.05-0.43-0.067-0.645c-0.092-1.125-0.193-2.246-0.266-3.371
		c-0.039-0.617-0.029-1.236-0.032-1.854c-0.005-0.883,0.005-1.762,0.001-2.643c-0.009-2.34,0.244-4.66,0.568-6.971
		c0.088-0.625,0.285-1.232,0.408-1.852c0.111-0.561,0.192-1.127,0.279-1.691c0.105-0.688,0.062-1.352-0.261-1.988
		c-0.151-0.299-0.264-0.621-0.421-0.998c-0.234,0.199-0.455,0.381-0.664,0.572c-0.557,0.512-1.104,1.035-1.664,1.545
		c-0.561,0.508-1.119,1.02-1.702,1.504c-0.63,0.521-1.278,1.021-1.933,1.512c-0.275,0.207-0.466,0.432-0.476,0.795
		c-0.005,0.164-0.068,0.33-0.116,0.494c-0.229,0.801-0.229,1.615-0.137,2.436c0.021,0.195,0.103,0.285,0.301,0.342
		c0.924,0.264,1.484,1.268,1.213,2.188c-0.1,0.338-0.263,0.656-0.418,0.975c-0.242,0.502-0.645,0.805-1.21,0.787
		c-0.577-0.02-0.972-0.359-1.239-0.85c-0.176-0.322-0.23-0.666-0.164-1.033c0.13-0.717,0.396-1.357,0.934-1.873
		c0.072-0.07,0.119-0.217,0.104-0.316c-0.116-0.834-0.129-1.662,0.062-2.488c0.033-0.146,0.005-0.305,0.005-0.502
		c-0.115,0.066-0.226,0.111-0.315,0.184c-1.088,0.857-2.293,1.504-3.537,2.104c-1.281,0.615-2.55,1.26-3.906,1.695
		c-0.955,0.307-1.91,0.631-2.919,0.715c-0.229,0.02-0.324,0.135-0.391,0.324c-0.257,0.727-0.519,1.451-0.767,2.15
		c0.609,0.959,0.412,2.514-0.387,3.279c-0.594,0.568-1.503,0.445-1.945-0.285c-0.229-0.377-0.332-0.787-0.195-1.24
		c0.311-1.027,0.983-1.65,2.052-1.906c0.241-0.705,0.488-1.43,0.757-2.217c-0.2,0.021-0.362,0.029-0.521,0.057
		c-1.129,0.188-2.258,0.416-3.398-0.047c-0.028,0.111-0.053,0.166-0.055,0.223c-0.02,1.391,0.01,2.777,0.132,4.166
		c0.144,1.646,0.198,3.301,0.042,4.953c-0.035,0.369-0.131,0.73-0.199,1.094c-0.146,0.789-0.286,1.58-0.445,2.367
		c-0.057,0.285-0.154,0.566-0.244,0.844c-0.051,0.156-0.146,0.297-0.338,0.232c-0.188-0.066-0.176-0.23-0.137-0.391
		c0.129-0.541,0.27-1.078,0.385-1.621c0.144-0.68,0.275-1.361,0.395-2.047c0.061-0.348,0.102-0.703,0.119-1.057
		c0.066-1.346,0.039-2.688-0.058-4.029c-0.061-0.832-0.122-1.664-0.147-2.498c-0.022-0.725,0.004-1.451,0.008-2.176
		c0-0.076-0.007-0.152-0.012-0.26c-0.59-0.316-1.186-0.648-1.564-1.301c-0.094,0.172-0.156,0.291-0.223,0.406
		c-0.52,0.91-1.666,1.441-2.688,1.248c-0.517-0.098-0.758-0.396-0.79-0.932c-0.037-0.59,0.163-1.051,0.645-1.404
		c0.463-0.34,0.938-0.648,1.506-0.793c0.484-0.121,0.943-0.145,1.379,0.283c0.254-0.99,0.921-1.594,1.723-2.102
		c-0.085-0.803-0.133-1.598-0.277-2.391c-0.166-0.908-0.229-1.84-0.27-2.766c-0.078-1.758-0.117-3.52-0.153-5.281
		c-0.021-1.004-0.004-2.008-0.004-3.012c0-1.02-0.214-2.004-0.602-2.934c-0.517-1.244-0.78-2.531-0.886-3.865
		c-0.102-1.262-0.193-2.527-0.529-3.76c-0.145-0.533-0.22-1.088-0.336-1.631c-0.16-0.748-0.176-1.502-0.145-2.26
		c0.063-1.5,0.123-2.996,0.171-4.494c0.048-1.504,0.413-2.924,1.019-4.299c0.258-0.588,0.396-1.23,0.558-1.857
		c0.123-0.479,0.198-0.969,0.296-1.453c0.012-0.061,0.024-0.121,0.041-0.18c0.043-0.146,0.121-0.266,0.292-0.236
		c0.2,0.033,0.227,0.191,0.194,0.357c-0.097,0.5-0.218,0.996-0.296,1.5c-0.151,0.971-0.526,1.865-0.899,2.766
		c-0.502,1.213-0.688,2.494-0.727,3.803c-0.043,1.514-0.098,3.027-0.164,4.539c-0.03,0.688,0.088,1.354,0.219,2.021
		c0.204,1.045,0.445,2.084,0.613,3.135c0.129,0.809,0.179,1.629,0.242,2.445c0.084,1.088,0.341,2.131,0.754,3.141
		c0.405,0.994,0.668,2.025,0.684,3.104c0.018,1.16,0,2.318,0.021,3.477c0.034,1.699,0.077,3.398,0.141,5.098
		c0.041,1.111,0.21,2.209,0.384,3.309c0.146,0.924,0.222,1.865,0.181,2.814c-0.035,0.779,0.076,1.566,0.125,2.396
		c0.534,0.283,1.135,0.408,1.758,0.34c1.029-0.115,2.056-0.248,3.078-0.408c1.195-0.189,2.355-0.531,3.46-1.016
		c1.413-0.619,2.81-1.283,4.178-1.998c0.733-0.385,1.399-0.904,2.075-1.393c0.814-0.586,1.623-1.184,2.402-1.816
		c0.671-0.543,1.302-1.139,1.944-1.719c0.918-0.828,1.827-1.662,2.747-2.486c0.156-0.141,0.228-0.271,0.166-0.482
		c-0.112-0.383-0.207-0.771-0.303-1.16c-0.094-0.377-0.121-0.752-0.049-1.145c0.291-1.564,0.951-2.961,1.873-4.246
		c0.841-1.172,1.487-2.455,2.094-3.76c0.254-0.545,0.542-1.072,0.808-1.613c0.108-0.221,0.19-0.455,0.296-0.678
		c0.314-0.654,0.633-1.305,0.956-1.955c0.039-0.08,0.103-0.162,0.179-0.207c0.606-0.367,1.064-0.896,1.501-1.432
		c0.946-1.164,1.961-2.266,2.983-3.361c0.631-0.678,1.221-1.393,1.912-2.016c0.414-0.373,0.763-0.811,0.994-1.324
		c0.119-0.262,0.326-0.396,0.568-0.512c1.061-0.506,2.133-0.973,3.277-1.271c0.458-0.119,0.892-0.348,1.325-0.547
		c0.729-0.338,1.45-0.689,2.174-1.037c1.146-0.551,2.344-0.971,3.593-1.203c0.729-0.135,1.463-0.236,2.165-0.486
		c0.185-0.066,0.367-0.145,0.541-0.236c0.139-0.072,0.268-0.109,0.371,0.029c0.102,0.137,0.047,0.283-0.074,0.367
		c-0.161,0.109-0.34,0.209-0.523,0.275c-0.846,0.307-1.736,0.424-2.614,0.598c-1.419,0.279-2.732,0.859-4.028,1.49
		c-1.264,0.613-2.531,1.209-3.896,1.594c-0.734,0.209-1.422,0.594-2.121,0.918c-0.13,0.061-0.253,0.193-0.317,0.324
		c-0.273,0.549-0.668,1.01-1.115,1.41c-0.729,0.654-1.31,1.441-2.001,2.123c-1.301,1.283-2.379,2.762-3.639,4.08
		c-0.106,0.111-0.199,0.242-0.321,0.332c-0.735,0.541-1.036,1.359-1.39,2.145c-0.17,0.381-0.355,0.752-0.535,1.127
		c-0.232,0.488-0.466,0.975-0.695,1.465c-0.668,1.43-1.427,2.805-2.345,4.096C79.749,200.754,79.426,201.264,79.25,201.902z
		 M82.387,209.236c-0.197,0.166-0.344,0.277-0.477,0.404c-0.461,0.439-0.667,0.988-0.671,1.619
		c-0.003,0.439,0.156,0.818,0.458,1.129c0.268,0.275,0.565,0.287,0.806,0.014c0.521-0.592,0.799-1.283,0.713-2.082
		C83.158,209.787,82.863,209.414,82.387,209.236z M73.52,218.498c-0.002-0.521-0.187-0.85-0.48-1.119
		c-0.354-0.326-0.746-0.303-1.035,0.078c-0.332,0.436-0.534,0.932-0.582,1.482c-0.038,0.441,0.162,0.777,0.5,1.029
		c0.307,0.23,0.733,0.209,0.966-0.076C73.238,219.459,73.494,218.969,73.52,218.498z M52.139,218.066
		c0.437-0.035,0.912-0.258,1.326-0.629c0.396-0.352,0.504-0.785,0.4-1.295c-0.035-0.18-0.131-0.277-0.297-0.301
		c-0.119-0.018-0.246-0.012-0.366,0.01c-0.677,0.119-1.226,0.48-1.718,0.936c-0.085,0.08-0.162,0.201-0.182,0.312
		C51.16,217.867,51.279,218.049,52.139,218.066z M60.117,221.832c-0.031-0.121-0.055-0.291-0.117-0.445
		c-0.096-0.23-0.242-0.289-0.484-0.229c-0.65,0.164-1.327,0.967-1.385,1.646c-0.036,0.416,0.23,0.867,0.594,1.004
		c0.363,0.139,0.672,0.002,0.961-0.434C59.986,222.922,60.035,222.398,60.117,221.832z M78.988,205.879
		c0.531-0.537,0.934-1.043,1.1-1.688c0.07-0.275,0.06-0.58,0.038-0.867c-0.013-0.176-0.149-0.338-0.358-0.252
		c-0.431,0.184-0.805,0.457-1.105,0.818c-0.061,0.07-0.081,0.205-0.072,0.307C78.643,204.748,78.789,205.279,78.988,205.879z
		 M56.086,216.742c0-0.283,0.011-0.525-0.004-0.77c-0.015-0.248-0.055-0.496-0.088-0.781
		C55.283,215.789,55.329,216.361,56.086,216.742z"/>
	<path fill-rule="evenodd" clip-rule="evenodd" fill="#FFFFFF" d="M89.541,180.938c-0.317,0.299-0.605,0.555-0.873,0.832
		c-0.267,0.271-0.303,0.486-0.156,0.699s0.453,0.281,0.75,0.15c0.184-0.082,0.364-0.172,0.533-0.279
		c1.021-0.656,1.955-1.404,2.641-2.432c0.222-0.332,0.504-0.625,0.75-0.941c0.465-0.598,0.904-1.215,1.391-1.795
		c0.744-0.887,1.509-1.758,2.288-2.615c0.664-0.73,1.371-1.424,2.039-2.152c0.49-0.535,0.932-1.115,1.428-1.645
		c0.76-0.812,1.558-1.588,2.322-2.396c0.38-0.402,0.718-0.844,1.082-1.262c0.166-0.191,0.35-0.365,0.584-0.607
		c-0.33-0.535-0.66-1.143-1.064-1.699c-0.307-0.428-0.674-0.432-1.089-0.125c-0.376,0.277-0.437,0.693-0.124,1.041
		c0.285,0.314,0.588,0.629,1.092,0.555c-0.002-0.236-0.165-0.303-0.314-0.377c-0.135-0.068-0.249-0.16-0.184-0.322
		c0.07-0.178,0.227-0.197,0.389-0.133c0.1,0.037,0.201,0.084,0.284,0.15c0.312,0.238,0.449,0.627,0.325,0.891
		c-0.127,0.273-0.413,0.375-0.846,0.303c-0.607-0.104-1.328-0.766-1.431-1.312c-0.097-0.52,0.134-0.988,0.629-1.283
		c0.544-0.322,1.036-0.314,1.454,0.072c0.252,0.236,0.456,0.523,0.73,0.844c0-0.201,0.012-0.348-0.002-0.492
		c-0.178-1.859-0.328-3.723-0.553-5.578c-0.096-0.791-0.332-1.568-0.542-2.342c-0.32-1.182-0.6-2.367-0.657-3.594
		c-0.014-0.271-0.119-0.484-0.283-0.709c-0.242-0.334-0.404-0.725-0.614-1.084c-0.437-0.746-0.859-1.5-1.327-2.225
		c-0.453-0.703-0.921-1.391-1.196-2.189c-0.075-0.217-0.188-0.424-0.306-0.623c-0.17-0.291-0.305-0.318-0.605-0.15
		c-0.055,0.029-0.103,0.068-0.156,0.1c-0.374,0.221-0.729,0.205-1.072-0.074c-0.572-0.465-1.04-1.012-1.349-1.686
		c-0.106-0.236-0.216-0.469-0.34-0.736c-0.293,0.301-0.37,0.529-0.23,0.928c0.445,1.271,1.228,2.348,1.896,3.49
		c0.466,0.799,0.841,1.65,1.278,2.467c0.445,0.83,0.914,1.646,1.381,2.465c0.283,0.498,0.545,1.004,0.65,1.576
		c0.023,0.121,0.041,0.244,0.045,0.367c0.004,0.154-0.061,0.301-0.227,0.283c-0.09-0.008-0.18-0.131-0.244-0.221
		c-0.042-0.057-0.051-0.146-0.051-0.223c-0.004-0.484-0.291-0.732-0.693-0.932c-0.787-0.393-1.934-0.072-2.365,0.688
		c-0.24,0.424-0.17,0.666,0.281,0.832c0.509,0.186,1.022,0.26,1.491-0.125c0.099-0.082,0.219-0.18,0.103-0.299
		c-0.068-0.072-0.215-0.098-0.324-0.094c-0.08,0.004-0.152,0.115-0.236,0.129c-0.093,0.018-0.234,0.014-0.283-0.043
		c-0.053-0.061-0.064-0.219-0.021-0.291c0.145-0.244,0.391-0.348,0.666-0.348c0.326-0.002,0.623,0.232,0.742,0.543
		c0.1,0.266,0.025,0.477-0.172,0.668c-0.648,0.631-1.863,0.684-2.559,0.104c-0.32-0.268-0.419-0.59-0.275-0.992
		c0.361-1.023,1.361-1.539,2.49-1.424c0.15,0.014,0.299,0.053,0.508,0.092c-0.06-0.141-0.092-0.232-0.137-0.316
		c-0.565-1.062-1.131-2.127-1.7-3.188c-0.321-0.598-0.628-1.205-0.983-1.783c-0.638-1.039-1.262-2.074-1.728-3.213
		c-0.398-0.982-0.998-1.881-1.508-2.814c-0.074-0.137-0.17-0.266-0.215-0.412c-0.243-0.783-0.838-1.271-1.434-1.771
		c-1.131-0.953-2.432-1.641-3.67-2.424c-0.218-0.137-0.413-0.059-0.621-0.051c-0.207,0.004-0.41-0.051-0.59,0.16
		c-0.197,0.23-0.5,0.291-0.803,0.303c-1.266,0.049-2.334-0.359-3.152-1.354c-0.02-0.021-0.044-0.041-0.068-0.059
		c-0.012-0.008-0.029-0.006-0.062-0.012c-0.159,0.238-0.175,0.504-0.134,0.781c0.172,1.16,0.718,2.125,1.543,2.941
		c0.638,0.631,1.272,1.264,1.918,1.885c0.435,0.418,0.906,0.789,1.457,1.055c0.305,0.146,0.589,0.336,0.9,0.518
		c-0.001,0,0.04,0.004,0.053-0.014c0.1-0.135,0.18-0.328,0.391-0.24s0.137,0.283,0.104,0.445c-0.163,0.826,0.023,1.633,0.151,2.438
		c0.211,1.322,0.742,2.549,1.203,3.793c0.326,0.881,0.744,1.73,1.141,2.584c0.115,0.248,0.281,0.482,0.457,0.693
		c0.154,0.188,0.18,0.346,0.033,0.537c-0.781,1.021-1.158,2.244-1.681,3.395c-0.224,0.492-0.444,0.986-0.704,1.459
		c-0.68,1.236-1.222,2.529-1.703,3.852c-0.228,0.623-0.455,1.248-0.644,1.883c-0.091,0.305-0.143,0.637-0.126,0.951
		c0.065,1.238,0.076,2.471-0.165,3.693c-0.181,0.914-0.552,1.732-1.239,2.389c-0.236,0.225-0.5,0.324-0.83,0.34
		c-0.926,0.047-1.646-0.342-2.24-1.01c-0.193-0.219-0.353-0.467-0.525-0.705c-0.37-0.506-0.412-1.061-0.205-1.631
		c0.157-0.434,0.354-0.855,0.555-1.271c0.279-0.586,0.788-0.807,1.404-0.805c0.623,0.004,1.193,0.455,1.271,1.07
		c0.049,0.373,0,0.768-0.062,1.145c-0.046,0.277-0.24,0.5-0.5,0.637c-0.389,0.207-0.837,0.008-0.908-0.395
		c-0.028-0.164-0.01-0.322,0.166-0.387c0.189-0.072,0.285,0.039,0.332,0.215c0.012,0.041,0.041,0.08,0.059,0.115
		c0.039,0,0.078,0.012,0.097-0.002c0.403-0.328,0.493-1.223,0.163-1.598c-0.367-0.418-1.168-0.41-1.457,0.078
		c-0.289,0.486-0.5,1.025-0.689,1.561c-0.115,0.328-0.03,0.67,0.179,0.971c0.292,0.418,0.579,0.834,1.017,1.127
		c0.318,0.215,0.65,0.324,1.029,0.375c0.455,0.059,0.768-0.111,1.043-0.449c0.432-0.529,0.693-1.131,0.826-1.791
		c0.262-1.299,0.268-2.605,0.135-3.922c-0.116-1.152-0.147-2.301-0.018-3.465c0.225-2.01,0.406-4.027,0.41-6.055
		c0-0.582,0.103-1.168,0.168-1.75c0.058-0.521,0.129-1.041,0.192-1.562c0.009-0.076-0.01-0.17,0.028-0.225
		c0.057-0.08,0.152-0.182,0.231-0.182c0.074,0,0.179,0.107,0.214,0.191c0.038,0.094,0.023,0.213,0.014,0.32
		c-0.041,0.43-0.092,0.859-0.134,1.289c-0.077,0.768-0.201,1.535-0.216,2.303c-0.041,2.15-0.262,4.287-0.469,6.426
		c-0.029,0.299-0.032,0.604-0.048,0.904c0.036,0.01,0.071,0.02,0.106,0.029c0.066-0.162,0.142-0.32,0.197-0.484
		c0.552-1.66,1.246-3.256,2.1-4.785c0.353-0.633,0.586-1.328,0.881-1.992c0.375-0.844,0.688-1.721,1.269-2.445
		c-1.213-2.039-1.996-4.234-2.657-6.471c-0.232-0.791-0.288-1.639-0.391-2.465c-0.028-0.23-0.069-0.424-0.252-0.562
		c-0.258-0.195-0.504-0.416-0.789-0.561c-0.758-0.379-1.402-0.889-1.977-1.508c-0.42-0.453-0.871-0.877-1.326-1.295
		c-0.906-0.834-1.596-1.793-1.885-3.018c-0.155-0.658-0.17-1.283,0.215-1.893c-0.124-0.215-0.25-0.426-0.369-0.639
		c-0.115-0.211-0.209-0.43-0.014-0.643c0.176-0.193,0.406-0.152,0.604-0.061c1.19,0.547,2.376,1.107,3.562,1.67
		c0.097,0.047,0.183,0.117,0.261,0.191c0.391,0.367,0.834,0.562,1.386,0.486c0.123-0.018,0.276,0.033,0.388,0.098
		c1.488,0.883,2.99,1.746,4.289,2.91c0.432,0.387,0.754,0.832,1.008,1.361c0.393,0.818,0.873,1.592,1.328,2.408
		c0.167-0.152,0.296-0.283,0.439-0.398c0.139-0.109,0.16-0.238,0.148-0.406c-0.018-0.26-0.029-0.527,0.008-0.783
		c0.081-0.539,0.424-0.664,0.849-0.314c0.176,0.146,0.324,0.33,0.471,0.508c0.341,0.42,0.67,0.848,1.008,1.27
		c0.445,0.555,0.873,1.123,1.15,1.785c0.029,0.07,0.062,0.17,0.117,0.191c0.379,0.146,0.515,0.496,0.633,0.818
		c0.494,1.352,1.365,2.482,2.109,3.689c0.332,0.537,0.582,1.123,0.875,1.686c0.084,0.162,0.158,0.348,0.288,0.465
		c0.266,0.24,0.352,0.535,0.36,0.869c0.025,0.979,0.229,1.932,0.464,2.877c0.179,0.717,0.437,1.42,0.574,2.145
		c0.152,0.803,0.218,1.621,0.306,2.434c0.145,1.367,0.275,2.736,0.415,4.104c0.007,0.072,0.033,0.145,0.071,0.307
		c0.262-0.824,0.445-1.568,0.531-2.334c0.072-0.66,0.289-1.258,0.706-1.785c0.396-0.5,0.881-0.705,1.509-0.555
		c0.058,0.016,0.118,0.023,0.189,0.033c0.208-0.273,0.409-0.545,0.621-0.811c0.165-0.205,0.342-0.439,0.648-0.336
		c0.283,0.096,0.316,0.375,0.308,0.621c-0.023,0.74-0.061,1.48-0.116,2.221c-0.053,0.709-0.145,1.414-0.2,2.121
		c-0.009,0.121,0.04,0.283,0.122,0.363c0.208,0.201,0.276,0.443,0.285,0.711c0.008,0.293-0.008,0.586-0.009,0.879
		c-0.001,0.666-0.021,1.33,0.009,1.992c0.028,0.619-0.081,1.189-0.363,1.744c-0.86,1.684-1.475,3.465-2.031,5.268
		c-0.145,0.473-0.25,0.955-0.383,1.432c-0.036,0.131-0.07,0.281-0.158,0.377c-0.082,0.09-0.232,0.154-0.355,0.156
		c-0.164,0.006-0.224-0.141-0.223-0.295c0.004-0.309-0.169-0.537-0.379-0.715c-0.578-0.484-1.238-0.752-2.012-0.623
		c-0.441,0.072-0.703,0.564-0.532,0.982c0.208,0.504,1.129,0.928,1.732,0.752c-0.059-0.109-0.104-0.213-0.166-0.307
		c-0.059-0.09-0.165-0.16-0.192-0.256c-0.025-0.086-0.004-0.23,0.055-0.283c0.058-0.049,0.225-0.055,0.283-0.006
		c0.163,0.137,0.333,0.289,0.43,0.475c0.234,0.441-0.051,0.928-0.55,0.984c-0.646,0.074-1.714-0.525-2.033-1.096
		c-0.317-0.564,0.044-1.74,0.959-1.77c1.018-0.033,1.889,0.225,2.581,0.996c0.038,0.043,0.088,0.074,0.155,0.133
		c0.048-0.127,0.097-0.221,0.122-0.322c0.539-2.166,1.32-4.244,2.307-6.244c0.166-0.34,0.246-0.693,0.243-1.074
		c-0.007-0.973,0.005-1.945,0.003-2.918c0-0.184-0.031-0.365-0.049-0.547c-0.111-0.043-0.196-0.1-0.283-0.104
		c-0.457-0.016-0.662-0.309-0.74-0.697c-0.104-0.514-0.188-1.033-0.236-1.553c-0.053-0.551-0.058-1.109-0.083-1.672
		c-0.425-0.234-0.663-0.193-0.991,0.166c-0.449,0.492-0.605,1.094-0.705,1.73c-0.087,0.564-0.21,1.125-0.341,1.68
		c-0.19,0.811-0.379,1.623-0.613,2.424c-0.282,0.961-0.597,1.916-0.925,2.863c-0.187,0.537-0.438,1.053-0.645,1.584
		c-0.105,0.271-0.195,0.553-0.258,0.838c-0.054,0.246-0.182,0.355-0.42,0.316c-0.992-0.16-1.852,0.211-2.693,0.66
		c-0.584,0.312-1.175,0.613-1.754,0.936c-0.16,0.088-0.305,0.215-0.428,0.352c-0.739,0.811-1.486,1.615-2.197,2.449
		c-0.47,0.553-0.876,1.158-1.323,1.729c-0.629,0.803-1.248,1.613-1.911,2.389c-0.792,0.926-1.761,1.643-2.868,2.152
		c-0.472,0.217-1.023,0.055-1.291-0.326c-0.249-0.355-0.248-0.898,0.106-1.24c0.632-0.609,1.31-1.174,1.985-1.734
		c0.159-0.131,0.384-0.205,0.59-0.254c0.326-0.078,0.537,0.129,0.514,0.467c-0.004,0.061-0.01,0.125-0.035,0.18
		c-0.242,0.51-0.604,0.896-1.158,1.061C89.799,181.35,89.748,181.309,89.541,180.938z M104.091,167.6
		c-0.023-0.008-0.046-0.016-0.068-0.023c-0.312,0.359-0.604,0.742-0.941,1.076c-1.035,1.018-2.068,2.035-2.996,3.154
		c-0.25,0.303-0.5,0.605-0.75,0.91c1.017-0.455,1.999-0.93,3.125-0.82c0.299-0.732,0.599-1.424,0.865-2.129
		C103.597,169.051,103.837,168.324,104.091,167.6z M95.604,142.232c-0.014,0.006-0.037,0.014-0.037,0.021
		c-0.088,1.459,0.525,2.592,1.626,3.496c0.166,0.137,0.346,0.119,0.512-0.002c0.121-0.088,0.227-0.195,0.33-0.287
		C97.786,144.857,95.967,142.451,95.604,142.232z M82.236,135.119c0.812,2.008,2.953,2.613,3.921,1.971
		C84.957,136.189,83.61,135.664,82.236,135.119z M108.759,159.773c-0.561,0.539-0.863,1.074-0.781,1.787
		c0.061,0.506,0.047,1.018,0.102,1.521c0.038,0.352,0.124,0.699,0.306,1.016C108.497,162.682,108.799,161.295,108.759,159.773z
		 M90.648,180.244c-0.025-0.037-0.049-0.074-0.072-0.109c-0.253,0.189-0.506,0.381-0.758,0.572c0.02,0.025,0.039,0.055,0.059,0.082
		C90.223,180.736,90.447,180.51,90.648,180.244z"/>
	<path fill-rule="evenodd" clip-rule="evenodd" fill="#FFFFFF" d="M85.438,176.369c-0.002,0.379,0.089,0.736,0.287,1.059
		c0.166,0.27,0.338,0.352,0.623,0.215c0.33-0.158,0.643-0.363,0.928-0.592c0.275-0.223,0.523-0.482,0.752-0.752
		c0.328-0.389,0.656-0.783,0.935-1.207c0.854-1.305,1.698-2.619,2.521-3.943c0.53-0.852,1.013-1.732,1.526-2.594
		c0.37-0.625,0.757-1.24,1.129-1.859c0.35-0.584,0.693-1.172,1.035-1.758c0.203-0.346,0.383-0.707,0.605-1.041
		c0.637-0.961,1.013-2.047,1.46-3.096c0.529-1.24,1.104-2.449,1.876-3.561c0.237-0.34,0.409-0.725,0.613-1.088
		c0.053-0.096,0.093-0.205,0.171-0.27c0.058-0.047,0.176-0.053,0.252-0.029c0.055,0.018,0.121,0.119,0.114,0.176
		c-0.015,0.135-0.047,0.275-0.111,0.395c-0.229,0.418-0.449,0.848-0.717,1.242c-0.671,0.99-1.2,2.053-1.651,3.156
		c-0.052,0.127-0.101,0.264-0.106,0.398c-0.036,0.77-0.062,1.541-0.082,2.312c-0.008,0.281-0.104,0.502-0.347,0.664
		c-1.378,0.928-2.353,2.213-3.198,3.613c-1.213,2.01-2.4,4.035-3.654,6.02c-0.574,0.912-1.096,1.873-1.855,2.656
		c-0.428,0.443-0.871,0.875-1.338,1.277c-0.203,0.176-0.475,0.291-0.733,0.379c-0.484,0.168-0.892,0.016-1.16-0.42
		c-0.355-0.576-0.469-1.207-0.327-1.869c0.038-0.174,0.144-0.342,0.249-0.49c0.298-0.418,0.725-0.67,1.199-0.834
		c0.454-0.154,0.846-0.025,1.067,0.316c0.238,0.373,0.223,0.766-0.044,1.072c-0.292,0.336-0.872,0.494-1.227,0.334
		c-0.194-0.088-0.272-0.275-0.19-0.455c0.086-0.186,0.244-0.242,0.447-0.098c0.18,0.127,0.315,0.086,0.463-0.014
		c0.148-0.102,0.248-0.225,0.184-0.43c-0.07-0.219-0.221-0.279-0.428-0.262C86.052,175.051,85.436,175.719,85.438,176.369z
		 M97.02,162.725c-0.307,0.553-0.567,1.025-0.828,1.494c0.022,0.021,0.046,0.045,0.069,0.066c0.252-0.186,0.508-0.365,0.752-0.561
		c0.05-0.039,0.081-0.135,0.078-0.203C97.08,163.285,97.051,163.053,97.02,162.725z"/>
	<path fill-rule="evenodd" clip-rule="evenodd" fill="#FFFFFF" d="M60.949,171.887c0.15,1.191-0.804,2.447-1.832,2.83
		c-0.209,0.076-0.463,0.123-0.675,0.082c-0.886-0.174-1.707-0.543-2.274-1.246c-0.916-1.133-1.41-2.408-1.039-3.918
		c0.32-1.305,0.604-2.619,0.847-3.939c0.201-1.092,0.344-2.195,0.468-3.301c0.055-0.486,0.041-0.992-0.014-1.48
		c-0.163-1.455-0.088-2.9,0.077-4.346c0.069-0.598,0.112-1.199,0.176-1.799c0.013-0.119,0.042-0.252,0.11-0.344
		c0.051-0.068,0.193-0.129,0.268-0.105c0.072,0.023,0.156,0.154,0.158,0.238c0.006,0.166-0.053,0.334-0.067,0.504
		c-0.104,1.26-0.216,2.523-0.301,3.785c-0.028,0.43-0.024,0.869,0.03,1.297c0.199,1.535-0.003,3.043-0.223,4.562
		c-0.246,1.699-0.655,3.363-1.021,5.037c-0.215,0.977-0.078,1.863,0.426,2.756c0.438,0.779,1.046,1.256,1.824,1.623
		c0.7,0.328,1.259,0.143,1.774-0.332c1.188-1.094,0.919-2.646,0.315-3.506c-0.044-0.062-0.09-0.125-0.143-0.18
		c-0.598-0.627-1.17-0.598-1.626,0.131c-0.208,0.332-0.341,0.721-0.469,1.098c-0.084,0.248,0.017,0.496,0.197,0.68
		c0.072,0.074,0.226,0.113,0.329,0.096c0.063-0.01,0.109-0.158,0.15-0.25c0.018-0.039-0.018-0.104,0.004-0.135
		c0.057-0.08,0.143-0.217,0.195-0.207c0.1,0.02,0.23,0.104,0.27,0.193c0.164,0.387-0.155,0.881-0.578,0.922
		c-0.547,0.053-1-0.328-1.062-0.934c-0.024-0.24-0.007-0.498,0.054-0.732c0.136-0.531,0.414-0.998,0.783-1.404
		c0.396-0.434,0.844-0.52,1.386-0.287c0.96,0.416,1.343,1.223,1.479,2.191C60.97,171.633,60.949,171.807,60.949,171.887z"/>
</g>
<g>
</g>
<g>
</g>
<g>
</g>
<g>
</g>
<g>
</g>
<g>
</g>
</svg>
