<?xml version="1.0" encoding="utf-8"?>
<!-- Generator: Adobe Illustrator 16.0.0, SVG Export Plug-In . SVG Version: 6.00 Build 0)  -->
<!DOCTYPE svg PUBLIC "-//W3C//DTD SVG 1.1//EN" "http://www.w3.org/Graphics/SVG/1.1/DTD/svg11.dtd">
<svg version="1.1" id="Calque_1" xmlns="http://www.w3.org/2000/svg" xmlns:xlink="http://www.w3.org/1999/xlink" x="0px" y="0px"
	 width="155.91px" height="240.94px" viewBox="0 0 155.91 240.94" enable-background="new 0 0 155.91 240.94" xml:space="preserve">
<linearGradient id="SVGID_1_" gradientUnits="userSpaceOnUse" x1="75.5322" y1="263.8838" x2="80.5324" y2="-22.1172">
	<stop  offset="5.003100e-04" style="stop-color:#16233B"/>
	<stop  offset="0.2156" style="stop-color:#0C4958"/>
	<stop  offset="0.2838" style="stop-color:#0A6771"/>
	<stop  offset="0.356" style="stop-color:#098689"/>
	<stop  offset="0.4222" style="stop-color:#119D9B"/>
	<stop  offset="0.4797" style="stop-color:#17ADA7"/>
	<stop  offset="0.5218" style="stop-color:#1AB2AB"/>
	<stop  offset="0.5585" style="stop-color:#17ADA7"/>
	<stop  offset="0.6085" style="stop-color:#119D9B"/>
	<stop  offset="0.6661" style="stop-color:#098689"/>
	<stop  offset="0.729" style="stop-color:#0A6771"/>
	<stop  offset="0.7883" style="stop-color:#0C4958"/>
	<stop  offset="0.9855" style="stop-color:#16233C"/>
</linearGradient>
<rect x="0.088" y="-0.225" fill="url(#SVGID_1_)" width="155.911" height="240.94"/>
<g>
	<g>
		<path fill="#FFFFFF" d="M43.77,11.967l-0.978-0.366v-0.183h2.323v0.183l-0.979,0.366v8.192H43.77l-5.685-6.663v5.93l0.979,0.366
			v0.184h-2.323v-0.184l0.978-0.366v-7.581l-0.855-0.244v-0.183h1.284c0.244,0,0.456,0.026,0.636,0.079
			c0.179,0.054,0.335,0.122,0.471,0.207c0.135,0.086,0.25,0.181,0.348,0.281c0.099,0.103,0.184,0.198,0.258,0.288l3.911,4.584
			V11.967z"/>
		<path fill="#FFFFFF" d="M49.149,13.68c0.506,0,0.958,0.072,1.358,0.22c0.398,0.146,0.739,0.361,1.021,0.643
			s0.495,0.621,0.642,1.021c0.146,0.398,0.221,0.852,0.221,1.356c0,0.506-0.074,0.958-0.221,1.356c-0.146,0.4-0.36,0.74-0.642,1.021
			c-0.281,0.28-0.622,0.495-1.021,0.642c-0.4,0.147-0.853,0.221-1.358,0.221c-0.505,0-0.956-0.073-1.356-0.221
			c-0.398-0.146-0.74-0.361-1.021-0.642c-0.281-0.281-0.494-0.621-0.642-1.021c-0.146-0.398-0.22-0.851-0.22-1.356
			c0-0.505,0.073-0.958,0.22-1.356c0.147-0.399,0.36-0.739,0.642-1.021s0.623-0.496,1.021-0.643
			C48.193,13.752,48.644,13.68,49.149,13.68z M49.149,19.915c0.14,0,0.278-0.045,0.417-0.135c0.137-0.089,0.262-0.245,0.372-0.47
			c0.111-0.225,0.2-0.53,0.27-0.917c0.068-0.388,0.104-0.878,0.104-1.474c0-0.595-0.036-1.085-0.104-1.474
			c-0.069-0.386-0.158-0.692-0.27-0.916c-0.11-0.225-0.235-0.382-0.372-0.471c-0.139-0.09-0.277-0.135-0.417-0.135
			c-0.138,0-0.276,0.045-0.415,0.135c-0.14,0.089-0.263,0.246-0.372,0.471c-0.111,0.224-0.2,0.53-0.27,0.916
			c-0.07,0.389-0.104,0.879-0.104,1.474c0,0.596,0.033,1.086,0.104,1.474c0.069,0.387,0.158,0.692,0.27,0.917
			c0.109,0.225,0.232,0.381,0.372,0.47C48.873,19.87,49.011,19.915,49.149,19.915z"/>
		<path fill="#FFFFFF" d="M61.559,15.697c0-0.293-0.024-0.539-0.073-0.739c-0.05-0.199-0.112-0.362-0.19-0.49
			c-0.077-0.126-0.162-0.218-0.256-0.274c-0.095-0.057-0.186-0.086-0.275-0.086c-0.155,0-0.292,0.051-0.41,0.154
			c-0.118,0.102-0.222,0.213-0.311,0.335c-0.099,0.147-0.184,0.31-0.258,0.489v4.524l0.734,0.183v0.184h-3.423v-0.184l0.732-0.183
			v-3.913c0-0.293-0.023-0.539-0.072-0.739c-0.05-0.199-0.113-0.362-0.19-0.49c-0.077-0.126-0.162-0.218-0.256-0.274
			c-0.095-0.057-0.187-0.086-0.275-0.086c-0.155,0-0.291,0.051-0.41,0.154c-0.118,0.102-0.222,0.213-0.312,0.335
			c-0.098,0.147-0.184,0.31-0.257,0.489v4.524l0.733,0.183v0.184h-3.423v-0.184l0.733-0.183v-5.381l-0.733-0.183v-0.184h1.101
			c0.285,0,0.52,0.049,0.703,0.146s0.327,0.204,0.434,0.318c0.122,0.139,0.212,0.289,0.27,0.453c0.105-0.204,0.235-0.388,0.39-0.552
			c0.14-0.138,0.31-0.265,0.515-0.379c0.204-0.114,0.452-0.17,0.745-0.17c0.489,0,0.911,0.107,1.267,0.324
			c0.354,0.215,0.624,0.495,0.812,0.837c0.105-0.212,0.236-0.403,0.391-0.575c0.139-0.146,0.311-0.281,0.514-0.403
			c0.204-0.121,0.452-0.183,0.745-0.183c0.334,0,0.641,0.053,0.918,0.159c0.276,0.105,0.515,0.249,0.715,0.433
			s0.355,0.397,0.464,0.643c0.11,0.244,0.167,0.505,0.167,0.782v3.913l0.732,0.183v0.184H62.66c-0.733,0-1.101-0.366-1.101-1.102
			V15.697z"/>
		<path fill="#FFFFFF" d="M67.855,13.68c0.489,0,0.924,0.064,1.303,0.195s0.698,0.311,0.959,0.544
			c0.261,0.231,0.459,0.51,0.594,0.831c0.135,0.322,0.201,0.675,0.201,1.059v3.301l0.734,0.183v0.184h-1.101
			c-0.294,0-0.531-0.047-0.71-0.141c-0.18-0.094-0.321-0.198-0.428-0.312c-0.122-0.14-0.212-0.293-0.269-0.466
			c-0.105,0.213-0.24,0.396-0.403,0.552c-0.14,0.139-0.323,0.265-0.551,0.379s-0.502,0.171-0.819,0.171
			c-0.383,0-0.715-0.043-0.996-0.128c-0.281-0.086-0.516-0.204-0.703-0.355c-0.188-0.15-0.327-0.325-0.422-0.525
			c-0.094-0.2-0.141-0.414-0.141-0.642c0-0.188,0.02-0.361,0.062-0.52c0.041-0.159,0.089-0.3,0.147-0.422
			c0.064-0.147,0.138-0.281,0.22-0.403c0.342-0.081,0.705-0.156,1.088-0.221c0.325-0.058,0.692-0.112,1.101-0.165
			c0.407-0.053,0.818-0.088,1.234-0.104v-0.365c0-0.474-0.03-0.865-0.091-1.175c-0.062-0.31-0.149-0.555-0.264-0.732
			c-0.113-0.18-0.255-0.305-0.422-0.373c-0.167-0.07-0.356-0.104-0.568-0.104c-0.09,0-0.172,0.006-0.245,0.018
			c-0.073,0.013-0.138,0.027-0.195,0.043c-0.066,0.024-0.122,0.046-0.171,0.062v1.834c-0.058,0.017-0.11,0.028-0.159,0.036
			c-0.049,0.009-0.1,0.016-0.153,0.019c-0.053,0.005-0.112,0.007-0.177,0.007c-0.277,0-0.499-0.084-0.667-0.251
			c-0.167-0.167-0.25-0.39-0.25-0.666c0-0.172,0.044-0.337,0.129-0.495c0.085-0.16,0.22-0.302,0.403-0.428
			c0.183-0.127,0.417-0.229,0.702-0.307C67.113,13.718,67.456,13.68,67.855,13.68z M67.366,17.103
			c-0.048,0.105-0.089,0.229-0.122,0.366c-0.032,0.114-0.062,0.249-0.085,0.404c-0.024,0.154-0.038,0.325-0.038,0.514
			c0,0.487,0.076,0.835,0.227,1.039c0.151,0.203,0.319,0.306,0.508,0.306c0.188,0,0.349-0.051,0.482-0.154
			c0.135-0.101,0.248-0.213,0.337-0.335c0.106-0.146,0.2-0.31,0.281-0.489v-1.772c-0.188,0-0.375,0.006-0.562,0.018
			c-0.187,0.013-0.359,0.026-0.513,0.043C67.7,17.067,67.53,17.086,67.366,17.103z"/>
		<path fill="#FFFFFF" d="M77.331,11.418c0.732,0,1.1,0.365,1.1,1.101v7.091l0.734,0.183v0.184h-1.101
			c-0.293,0-0.529-0.047-0.709-0.141c-0.179-0.094-0.321-0.198-0.428-0.312c-0.122-0.14-0.212-0.293-0.269-0.466
			c-0.105,0.213-0.24,0.396-0.402,0.552c-0.141,0.139-0.323,0.265-0.552,0.379c-0.228,0.114-0.501,0.171-0.818,0.171
			c-0.351,0-0.679-0.069-0.984-0.208c-0.307-0.139-0.571-0.342-0.794-0.612c-0.226-0.268-0.402-0.604-0.533-1.007
			c-0.131-0.404-0.195-0.875-0.195-1.413s0.064-1.009,0.195-1.412s0.314-0.739,0.551-1.008c0.236-0.271,0.52-0.474,0.849-0.611
			c0.331-0.139,0.696-0.208,1.096-0.208c0.212,0,0.405,0.023,0.581,0.072c0.175,0.05,0.323,0.106,0.446,0.172
			c0.146,0.073,0.272,0.154,0.379,0.245v-2.386l-0.734-0.183v-0.183H77.331z M76.475,14.536c-0.09-0.09-0.184-0.172-0.282-0.245
			c-0.089-0.064-0.187-0.121-0.294-0.17c-0.105-0.05-0.22-0.074-0.342-0.074c-0.155,0-0.299,0.039-0.434,0.117
			c-0.134,0.076-0.251,0.22-0.35,0.427c-0.097,0.208-0.175,0.499-0.231,0.875c-0.057,0.374-0.086,0.859-0.086,1.454
			c0,0.579,0.029,1.052,0.086,1.418c0.057,0.367,0.128,0.655,0.214,0.861c0.086,0.209,0.184,0.35,0.293,0.422
			c0.11,0.074,0.218,0.111,0.324,0.111c0.188,0,0.349-0.051,0.483-0.154c0.134-0.101,0.247-0.213,0.336-0.335
			c0.105-0.146,0.199-0.31,0.282-0.489V14.536z"/>
		<path fill="#FFFFFF" d="M83.26,20.16c-1.043,0-1.855-0.288-2.434-0.862s-0.867-1.367-0.867-2.378c0-0.505,0.072-0.958,0.219-1.356
			c0.146-0.399,0.352-0.739,0.611-1.021c0.262-0.281,0.578-0.496,0.949-0.643c0.369-0.147,0.775-0.22,1.215-0.22
			c0.457,0,0.867,0.064,1.23,0.195c0.361,0.131,0.67,0.306,0.922,0.526c0.254,0.22,0.447,0.478,0.582,0.775
			c0.133,0.298,0.201,0.614,0.201,0.948c0,0.114-0.006,0.213-0.018,0.299c-0.014,0.086-0.029,0.161-0.043,0.227
			c-0.025,0.082-0.045,0.151-0.062,0.207c-0.359,0.074-0.736,0.135-1.137,0.184c-0.344,0.05-0.736,0.092-1.186,0.129
			s-0.918,0.055-1.406,0.055c0,0.505,0.037,0.927,0.109,1.266c0.074,0.338,0.176,0.607,0.307,0.807s0.285,0.342,0.465,0.428
			c0.178,0.086,0.375,0.129,0.586,0.129c0.244,0,0.475-0.045,0.691-0.135s0.402-0.21,0.562-0.361
			c0.158-0.15,0.191-0.129,0.285-0.321c0.094-0.191,0.484-0.291,0.375-0.063c-0.109,0.229-0.268,0.431-0.471,0.604
			c-0.205,0.176-0.449,0.316-0.734,0.423C83.928,20.106,83.609,20.16,83.26,20.16z M82.037,16.919c0.275,0,0.521-0.006,0.732-0.019
			c0.213-0.012,0.393-0.026,0.539-0.043c0.172-0.016,0.318-0.036,0.439-0.061c0.016-0.081,0.037-0.172,0.062-0.27
			c0.016-0.089,0.029-0.189,0.043-0.299c0.012-0.11,0.018-0.227,0.018-0.349c0-0.367-0.029-0.675-0.086-0.923
			s-0.129-0.45-0.215-0.605c-0.084-0.154-0.184-0.265-0.293-0.329c-0.109-0.066-0.217-0.099-0.324-0.099
			c-0.105,0-0.213,0.039-0.324,0.116c-0.109,0.078-0.207,0.225-0.293,0.44c-0.086,0.215-0.156,0.52-0.213,0.91
			C82.064,15.783,82.037,16.292,82.037,16.919z"/>
	</g>
	<g>
		<path fill="#FFFFFF" d="M91.439,21.226c-0.107,0.315-0.291,0.593-0.547,0.832c-0.26,0.238-0.566,0.425-0.92,0.56
			c-0.354,0.136-0.721,0.232-1.102,0.294c-0.381,0.062-0.781,0.093-1.195,0.093c-0.186,0-0.361-0.003-0.531-0.012
			c-0.385-0.023-0.764-0.077-1.137-0.162c-0.373-0.084-0.73-0.196-1.068-0.34c-0.34-0.143-0.625-0.329-0.854-0.56
			c-0.232-0.232-0.375-0.488-0.428-0.773c-0.102-0.547,0.146-1.104,0.738-1.675s1.525-1.144,2.795-1.721
			c0.107-0.054,0.209-0.047,0.305,0.018c0.096,0.066,0.139,0.158,0.129,0.277c-0.012,0.12-0.072,0.202-0.182,0.249
			c-0.584,0.269-1.09,0.534-1.518,0.796c-0.426,0.261-0.746,0.486-0.957,0.676c-0.213,0.188-0.379,0.373-0.498,0.554
			c-0.119,0.182-0.188,0.323-0.207,0.428c-0.02,0.104-0.021,0.197-0.006,0.282c0.062,0.338,0.369,0.635,0.924,0.89
			c0.555,0.254,1.223,0.403,2.01,0.449c0.529,0.039,1.047,0.021,1.547-0.058c0.498-0.076,0.951-0.225,1.355-0.443
			c0.404-0.22,0.66-0.5,0.768-0.838c0.07-0.208,0.109-0.418,0.117-0.63c0.008-0.211-0.023-0.428-0.094-0.651
			c-0.068-0.224-0.143-0.431-0.219-0.624c-0.076-0.191-0.201-0.41-0.375-0.651c-0.174-0.243-0.324-0.448-0.451-0.618
			s-0.311-0.385-0.555-0.646c-0.242-0.262-0.432-0.466-0.57-0.611c-0.139-0.146-0.346-0.354-0.625-0.624
			c-0.252-0.27-0.447-0.472-0.582-0.607c-0.135-0.134-0.318-0.33-0.553-0.588c-0.236-0.258-0.414-0.464-0.537-0.618
			s-0.271-0.354-0.445-0.601c-0.174-0.246-0.301-0.456-0.381-0.629c-0.082-0.174-0.162-0.377-0.242-0.612
			c-0.082-0.234-0.127-0.448-0.133-0.64c-0.008-0.192,0.01-0.4,0.051-0.624c0.043-0.224,0.113-0.438,0.215-0.646
			c0.283-0.569,0.77-0.956,1.453-1.16c0.686-0.205,1.529-0.214,2.529-0.029c0.924,0.177,1.852,0.484,2.783,0.924
			s1.723,0.96,2.373,1.564s0.998,1.184,1.045,1.737c0.068,0.771-0.42,1.355-1.467,1.755c-1.17,0.324-2.355,0.397-3.557,0.22
			c-0.076-0.015-0.141-0.056-0.191-0.121c-0.049-0.065-0.068-0.139-0.057-0.22s0.051-0.146,0.115-0.196
			c0.066-0.05,0.137-0.07,0.215-0.063c1.1,0.162,2.186,0.101,3.256-0.185c0.762-0.292,1.123-0.67,1.084-1.132
			c-0.039-0.423-0.344-0.891-0.916-1.402c-0.574-0.512-1.299-0.979-2.178-1.403c-0.877-0.423-1.752-0.715-2.621-0.877
			c-0.293-0.054-0.582-0.091-0.865-0.109c-0.287-0.021-0.596-0.012-0.93,0.023c-0.336,0.034-0.639,0.13-0.914,0.287
			c-0.271,0.159-0.477,0.376-0.617,0.653c-0.084,0.169-0.141,0.345-0.166,0.525c-0.027,0.181-0.037,0.352-0.029,0.514
			c0.008,0.161,0.053,0.343,0.133,0.543s0.158,0.375,0.23,0.524c0.074,0.15,0.189,0.333,0.354,0.55
			c0.16,0.215,0.297,0.392,0.41,0.53c0.109,0.139,0.275,0.327,0.496,0.565c0.219,0.239,0.391,0.422,0.514,0.549
			s0.311,0.317,0.564,0.571c0.262,0.262,0.459,0.462,0.59,0.601c0.131,0.138,0.314,0.335,0.553,0.589
			c0.24,0.254,0.42,0.461,0.543,0.618c0.125,0.157,0.277,0.359,0.457,0.605c0.182,0.246,0.316,0.46,0.404,0.642
			c0.088,0.181,0.184,0.388,0.281,0.622c0.102,0.236,0.162,0.455,0.186,0.658c0.023,0.205,0.029,0.422,0.018,0.653
			C91.549,20.776,91.508,21.002,91.439,21.226z"/>
		<path fill="#FFFFFF" d="M102.391,19.76c0.08,0.007,0.148,0.045,0.201,0.109c0.055,0.065,0.078,0.141,0.07,0.225
			c-0.008,0.085-0.047,0.154-0.115,0.208c-0.115,0.093-0.258,0.2-0.428,0.324c-0.17,0.123-0.496,0.328-0.98,0.617
			c-0.486,0.288-0.969,0.541-1.449,0.757c-0.482,0.215-1.061,0.411-1.738,0.589c-0.678,0.177-1.324,0.265-1.939,0.265
			c-0.785,0.008-1.539-0.134-2.264-0.427c-0.23-0.093-0.426-0.202-0.584-0.329c-0.156-0.128-0.273-0.25-0.352-0.369
			c-0.076-0.119-0.133-0.247-0.166-0.382c-0.035-0.135-0.051-0.252-0.047-0.352c0.004-0.101,0.018-0.2,0.041-0.301
			c0.084-0.361,0.285-0.72,0.6-1.074c0.316-0.354,0.668-0.63,1.057-0.83s0.738-0.293,1.045-0.278c0.207,0,0.387,0.074,0.537,0.221
			c0.15,0.146,0.232,0.326,0.248,0.542c0.039,0.369-0.17,0.704-0.623,1.005c-0.654,0.408-1.371,0.589-2.146,0.542
			c-0.041-0.007-0.074,0-0.105,0.023s-0.043,0.054-0.035,0.093c-0.053,0.392,0.201,0.7,0.764,0.923
			c0.5,0.209,1.037,0.33,1.615,0.364c0.578,0.035,1.115,0.006,1.617-0.086c0.5-0.093,1.012-0.235,1.535-0.429
			c0.523-0.191,0.971-0.386,1.346-0.582c0.373-0.197,0.734-0.404,1.086-0.624c0.35-0.219,0.588-0.375,0.715-0.467
			c0.127-0.093,0.217-0.162,0.271-0.208C102.234,19.775,102.311,19.751,102.391,19.76z M93.621,20.118
			c-0.1,0.139-0.057,0.2,0.127,0.185c0.324-0.022,0.734-0.162,1.236-0.415c0.076-0.046,0.143-0.085,0.195-0.115
			c0.24-0.162,0.352-0.308,0.336-0.438c-0.008-0.086-0.027-0.141-0.059-0.168s-0.08-0.044-0.15-0.053
			c-0.246-0.015-0.531,0.074-0.859,0.267S93.846,19.818,93.621,20.118z"/>
		<path fill="#FFFFFF" d="M112.026,19.887c0.084,0,0.158,0.026,0.219,0.08s0.094,0.124,0.098,0.208s-0.025,0.158-0.086,0.22
			c-0.047,0.054-0.111,0.123-0.197,0.208c-0.084,0.085-0.242,0.224-0.473,0.416s-0.467,0.373-0.705,0.543
			c-0.236,0.168-0.529,0.34-0.871,0.513c-0.342,0.174-0.68,0.308-1.01,0.404s-0.691,0.141-1.08,0.134
			c-0.389-0.009-0.756-0.082-1.102-0.221c-0.602-0.299-1.066-0.742-1.398-1.327c0-0.008-0.018-0.038-0.051-0.092
			c-0.035-0.055-0.066-0.099-0.094-0.133c-0.025-0.035-0.061-0.076-0.102-0.122c-0.043-0.047-0.09-0.081-0.141-0.104
			c-0.051-0.024-0.102-0.031-0.156-0.024c-0.615,0.017-1.485,0.682-2.608,1.999c-0.1,0.115-0.221,0.139-0.365,0.068
			c-0.141-0.068-0.193-0.181-0.154-0.335l0.576-2.54c0.016-0.076,0.061-0.139,0.133-0.185c0.074-0.047,0.15-0.06,0.232-0.04
			c0.08,0.02,0.143,0.064,0.186,0.139c0.041,0.073,0.055,0.147,0.039,0.226l-0.266,1.143c-0.008,0.038,0.008,0.066,0.047,0.087
			c0.037,0.019,0.072,0.013,0.104-0.018c0.854-0.809,1.575-1.194,2.159-1.155c0.246,0.016,0.455,0.115,0.623,0.301
			c0.131,0.139,0.246,0.288,0.346,0.45c0.262,0.478,0.633,0.843,1.109,1.097c0.238,0.101,0.488,0.158,0.75,0.174
			c0.262,0.015,0.51,0.001,0.744-0.041c0.236-0.042,0.475-0.111,0.723-0.208c0.246-0.096,0.471-0.201,0.676-0.317
			c0.203-0.115,0.406-0.242,0.611-0.38c0.203-0.14,0.375-0.267,0.514-0.383c0.139-0.115,0.273-0.229,0.404-0.346
			c0.131-0.115,0.217-0.196,0.26-0.243c0.043-0.045,0.076-0.081,0.098-0.104C111.872,19.917,111.94,19.887,112.026,19.887z"/>
		<path fill="#FFFFFF" d="M119.761,19.551c0.086,0,0.156,0.03,0.215,0.088c0.057,0.058,0.086,0.128,0.086,0.214
			c0,0.084-0.027,0.157-0.08,0.219c-0.67,0.669-1.541,1.251-2.609,1.743c-1.07,0.493-2.07,0.739-3.002,0.739
			c-0.201,0-0.393-0.012-0.578-0.034c-0.385-0.032-0.74-0.149-1.062-0.353c-0.322-0.204-0.58-0.472-0.773-0.803
			c-0.039-0.069-0.047-0.143-0.029-0.219c0.021-0.077,0.064-0.139,0.133-0.185c0.07-0.047,0.145-0.06,0.225-0.042
			c0.082,0.021,0.145,0.064,0.191,0.135c0.254,0.338,0.586,0.552,0.998,0.64c0.412,0.089,0.803,0.029,1.172-0.18
			c0.162-0.092,0.262-0.228,0.295-0.409c0.035-0.181-0.014-0.341-0.145-0.479c-0.131-0.139-0.275-0.259-0.438-0.358
			c-0.324-0.192-0.594-0.438-0.809-0.739c-0.031-0.054-0.076-0.085-0.139-0.092c-0.062-0.008-0.111,0.007-0.15,0.046l-0.877,0.831
			c-0.086,0.077-0.186,0.101-0.301,0.07c-0.115-0.031-0.186-0.104-0.213-0.221c-0.027-0.115,0.006-0.215,0.098-0.3l1.766-1.662
			c0.201-0.239,0.428-0.45,0.682-0.636c0.062-0.046,0.135-0.065,0.215-0.058c0.08,0.009,0.146,0.043,0.201,0.104
			c0.055,0.061,0.078,0.132,0.07,0.213s-0.039,0.149-0.094,0.202l-0.635,0.589c-0.1,0.116-0.152,0.25-0.16,0.404
			c0,0.124,0.059,0.241,0.178,0.352c0.119,0.113,0.291,0.245,0.514,0.399c0.238,0.139,0.443,0.315,0.611,0.53
			c0.133,0.186,0.207,0.391,0.227,0.617c0.02,0.229-0.025,0.442-0.133,0.643c-0.031,0.061-0.025,0.119,0.018,0.172
			c0.041,0.055,0.098,0.074,0.166,0.058c1.51-0.361,2.83-1.077,3.961-2.147C119.606,19.583,119.677,19.551,119.761,19.551z"/>
	</g>
</g>
<g>
	<rect x="-0.829" y="222.062" fill="none" width="155.91" height="18.878"/>
	<path fill="#FFFFFF" d="M52.72,230.877v-7.566l-3.835,7.566h-0.533l-3.848-7.566v7.566h-0.663v-8.814h0.754l4.018,7.917
		l4.029-7.917h0.741v8.814H52.72z"/>
	<path fill="#FFFFFF" d="M59.96,230.89v-1.144c-0.58,0.849-1.46,1.273-2.639,1.273c-1.005,0-1.799-0.32-2.379-0.962
		c-0.546-0.606-0.819-1.387-0.819-2.341c0-0.979,0.277-1.771,0.832-2.379c0.581-0.641,1.387-0.961,2.418-0.961
		c1.162,0,2.023,0.411,2.587,1.234v-1.209h0.663v6.487H59.96z M59.298,225.742c-0.469-0.504-1.132-0.755-1.989-0.755
		c-0.798,0-1.431,0.269-1.898,0.806c-0.425,0.504-0.637,1.145-0.637,1.924c0,0.789,0.212,1.426,0.637,1.912
		c0.451,0.52,1.084,0.779,1.898,0.779c0.806,0,1.449-0.256,1.931-0.767c0.48-0.511,0.721-1.153,0.721-1.925
		C59.96,226.885,59.739,226.227,59.298,225.742z"/>
	<path fill="#FFFFFF" d="M64.731,233.203c-0.78,0-1.417-0.151-1.911-0.455c-0.606-0.363-0.932-0.975-0.975-1.832h0.663
		c0.095,1.117,0.84,1.676,2.235,1.676c1.612,0,2.418-0.676,2.418-2.027v-0.832c-0.589,0.763-1.438,1.145-2.548,1.145
		c-0.971,0-1.737-0.299-2.301-0.897s-0.845-1.374-0.845-2.327c0-0.971,0.288-1.76,0.864-2.365c0.576-0.607,1.367-0.91,2.372-0.91
		c1.093,0,1.911,0.39,2.457,1.17v-1.027h0.663v6.059C67.825,232.328,66.794,233.203,64.731,233.203z M64.68,224.987
		c-0.78,0-1.404,0.261-1.872,0.78c-0.451,0.485-0.676,1.109-0.676,1.872c0,0.771,0.208,1.391,0.624,1.858
		c0.441,0.512,1.053,0.768,1.833,0.768c0.797,0,1.425-0.238,1.885-0.715c0.459-0.477,0.688-1.102,0.688-1.873
		c0-0.762-0.226-1.4-0.676-1.917C66.036,225.246,65.434,224.987,64.68,224.987z"/>
	<path fill="#FFFFFF" d="M73.936,230.877v-4.147c0-0.563-0.183-1.001-0.546-1.313c-0.355-0.285-0.841-0.429-1.456-0.429
		c-0.729,0-1.303,0.215-1.723,0.644c-0.421,0.43-0.631,0.99-0.631,1.684v3.562h-0.663v-6.357h0.663v0.871
		c0.503-0.676,1.283-1.014,2.34-1.014c0.771,0,1.4,0.182,1.886,0.545c0.528,0.399,0.793,0.963,0.793,1.69v4.265H73.936z"/>
	<path fill="#FFFFFF" d="M75.977,227.899c0.087,1.673,0.958,2.509,2.613,2.509c1.256,0,2.084-0.523,2.482-1.572h0.677
		c-0.252,0.822-0.681,1.403-1.287,1.742c-0.529,0.294-1.162,0.441-1.898,0.441c-1.065,0-1.881-0.312-2.444-0.936
		c-0.528-0.581-0.793-1.387-0.793-2.418c0-1.006,0.302-1.82,0.904-2.444c0.602-0.624,1.401-0.937,2.398-0.937
		c0.996,0,1.794,0.282,2.392,0.846c0.598,0.562,0.897,1.326,0.897,2.287v0.469L75.977,227.899z M78.629,224.896
		c-0.746,0-1.353,0.213-1.82,0.637c-0.468,0.425-0.741,1.006-0.819,1.742h5.2c-0.043-0.736-0.295-1.317-0.754-1.742
		C79.977,225.109,79.374,224.896,78.629,224.896z M79.604,222.635l-1.508,1.533c-0.087,0.07-0.169,0.104-0.247,0.104
		c-0.226,0-0.338-0.1-0.338-0.299c0-0.078,0.034-0.151,0.104-0.222l1.47-1.521c0.13-0.147,0.29-0.165,0.48-0.052
		c0.078,0.069,0.117,0.147,0.117,0.234C79.682,222.475,79.655,222.548,79.604,222.635z"/>
	<path fill="#FFFFFF" d="M84.037,225.416v5.461h-0.638l-0.025-5.461h-1.287v-0.61h1.287v-1.911h0.663v1.911h1.312v0.61H84.037z"/>
	<path fill="#FFFFFF" d="M86.299,223.375c-0.139,0-0.243-0.086-0.312-0.26v-0.91c0.078-0.173,0.183-0.26,0.312-0.26
		c0.104,0,0.221,0.078,0.351,0.234v0.962C86.528,223.297,86.411,223.375,86.299,223.375z M85.986,230.877v-6.449h0.663v6.449H85.986
		z"/>
	<path fill="#FFFFFF" d="M90.433,231.045c-1.933,0-2.899-0.866-2.899-2.6h0.689c0,0.686,0.177,1.184,0.532,1.495
		s0.919,0.468,1.69,0.468c0.52,0,0.949-0.082,1.287-0.246c0.416-0.217,0.624-0.538,0.624-0.963c0-0.52-0.434-0.879-1.3-1.078
		c-0.062-0.018-0.494-0.088-1.301-0.209c-1.3-0.199-1.949-0.762-1.949-1.689c0-0.607,0.26-1.079,0.779-1.417
		c0.442-0.295,0.984-0.442,1.625-0.442c1.863,0,2.795,0.771,2.795,2.314h-0.701c0-0.59-0.161-1.016-0.481-1.281
		c-0.32-0.264-0.836-0.396-1.547-0.396c-0.477,0-0.88,0.096-1.209,0.287c-0.382,0.225-0.572,0.537-0.572,0.936
		c0,0.52,0.425,0.854,1.274,1.001c0.225,0.044,0.685,0.126,1.378,0.247c1.265,0.217,1.897,0.793,1.897,1.729
		c0,0.659-0.285,1.148-0.857,1.469C91.728,230.92,91.143,231.045,90.433,231.045z"/>
	<path fill="#FFFFFF" d="M102.899,230.877v-4.147c0-1.161-0.563-1.742-1.689-1.742c-0.624,0-1.123,0.174-1.495,0.521
		c-0.373,0.346-0.56,0.811-0.56,1.391v3.979h-0.663v-4.147c0-1.161-0.576-1.742-1.729-1.742c-0.65,0-1.161,0.239-1.534,0.716
		c-0.329,0.433-0.494,0.971-0.494,1.611v3.562h-0.663v-6.357h0.663v0.832c0.485-0.65,1.205-0.975,2.158-0.975
		c0.979,0,1.659,0.372,2.041,1.117c0.434-0.745,1.183-1.117,2.249-1.117c1.586,0,2.379,0.745,2.379,2.235v4.265H102.899z"/>
	<path fill="#FFFFFF" d="M104.928,227.938c0.087,1.646,0.958,2.47,2.613,2.47c1.256,0,2.084-0.516,2.482-1.547h0.677
		c-0.252,0.814-0.681,1.387-1.287,1.717c-0.529,0.294-1.162,0.441-1.898,0.441c-1.065,0-1.881-0.308-2.444-0.923
		c-0.528-0.572-0.793-1.365-0.793-2.38c0-0.996,0.302-1.802,0.904-2.418c0.602-0.615,1.401-0.922,2.398-0.922
		c0.996,0,1.794,0.279,2.392,0.838s0.897,1.311,0.897,2.256v0.455L104.928,227.938z M107.58,224.987
		c-0.737,0-1.342,0.208-1.813,0.624c-0.473,0.416-0.748,0.988-0.826,1.717h5.2c-0.043-0.729-0.297-1.301-0.761-1.717
		C108.917,225.195,108.316,224.987,107.58,224.987z"/>
</g>
<g>
	<path fill="#FFFFFF" d="M59.515,127.168c-0.074,0-0.148-0.02-0.217-0.059c-0.204-0.119-0.274-0.383-0.154-0.588
		c0.074-0.125,7.436-12.523,18.834-12.523c11.398,0,18.762,12.398,18.835,12.523c0.12,0.205,0.05,0.467-0.155,0.588
		c-0.203,0.121-0.469,0.049-0.586-0.154c-0.072-0.121-7.193-12.096-18.094-12.096c-10.91,0-18.021,11.975-18.092,12.096
		C59.807,127.092,59.662,127.168,59.515,127.168z"/>
	<path fill="#FFFFFF" d="M59.515,127.168c-0.096,0-0.192-0.031-0.271-0.098c-0.185-0.148-0.212-0.42-0.062-0.604
		c0.074-0.09,7.441-8.986,18.797-8.986c11.356,0,18.724,8.896,18.797,8.986c0.15,0.184,0.123,0.455-0.062,0.604
		c-0.184,0.152-0.454,0.123-0.604-0.061c-0.07-0.088-7.191-8.67-18.131-8.67c-10.952,0-18.06,8.583-18.13,8.67
		C59.763,127.113,59.64,127.168,59.515,127.168z"/>
	<path fill="#FFFFFF" d="M77.979,139.477c-11.399,0-18.761-12.396-18.834-12.521c-0.12-0.205-0.05-0.469,0.154-0.588
		c0.205-0.121,0.468-0.051,0.587,0.154c0.071,0.121,7.192,12.096,18.093,12.096c10.91,0,18.021-11.975,18.092-12.096
		c0.119-0.205,0.385-0.273,0.588-0.156c0.205,0.121,0.275,0.385,0.155,0.59C96.74,127.08,89.377,139.477,77.979,139.477z"/>
	<path fill="#FFFFFF" d="M78.048,139.41c-6.328,0-11.476-5.148-11.476-11.477c0-6.027,4.632-10.239,11.265-10.239
		c6.771,0,11.686,4.305,11.686,10.239C89.523,134.262,84.376,139.41,78.048,139.41z M77.837,118.125
		c-6.379,0-10.835,4.034-10.835,9.809c0,6.09,4.955,11.047,11.046,11.047c6.09,0,11.045-4.957,11.045-11.047
		C89.094,122.25,84.359,118.125,77.837,118.125z"/>
	<g>
		<circle fill="#FFFFFF" cx="78.048" cy="127.922" r="6.421"/>
		<path fill="#FFFFFF" d="M78.047,134.557c-3.659,0-6.636-2.977-6.636-6.635c0-3.66,2.977-6.637,6.636-6.637
			c3.66,0,6.636,2.977,6.636,6.637C84.684,131.58,81.707,134.557,78.047,134.557z M78.047,121.715c-3.422,0-6.206,2.785-6.206,6.207
			s2.784,6.205,6.206,6.205c3.423,0,6.207-2.783,6.207-6.205S81.471,121.715,78.047,121.715z"/>
	</g>
	<path fill="#FFFFFF" d="M94.006,95.116c-0.087,0-0.174-0.035-0.236-0.104c-0.361-0.393-0.76-0.782-1.181-1.193
		c-1.474-1.438-3.108-3.03-3.354-5.174c-1.234,1.774-3.391,2.476-5.336,3.108c-0.684,0.222-1.328,0.432-1.91,0.677
		c-0.163,0.07-0.353-0.007-0.422-0.17c-0.07-0.164,0.008-0.353,0.17-0.423c0.607-0.257,1.266-0.471,1.962-0.697
		c2.358-0.767,4.796-1.56,5.614-4.103l0.623,0.16c-0.515,2.632,1.324,4.425,3.104,6.16c0.428,0.417,0.833,0.812,1.205,1.218
		c0.121,0.133,0.112,0.335-0.02,0.456C94.162,95.088,94.084,95.116,94.006,95.116z"/>
	<path fill="#FFFFFF" d="M104.399,121.176c-0.126,0-0.246-0.074-0.297-0.199c-0.067-0.165,0.011-0.354,0.176-0.421
		c0.049-0.021,4.935-2.048,5.849-4.89c0.38-1.184,0.251-2.726,0.116-4.356c-0.205-2.472-0.435-5.217,1.103-7.33
		c-2.519,0.712-5.04-0.357-7.311-1.319c-1.171-0.496-2.276-0.964-3.285-1.153c-0.176-0.033-0.291-0.201-0.259-0.377
		c0.034-0.175,0.202-0.291,0.378-0.257c1.078,0.203,2.214,0.685,3.417,1.194c2.719,1.151,5.531,2.343,8.264,0.686l0.365,0.53
		c-2.529,1.974-2.275,5.023-2.029,7.973c0.142,1.698,0.273,3.302-0.146,4.607c-1.005,3.128-6.007,5.203-6.219,5.291
		C104.481,121.168,104.44,121.176,104.399,121.176z"/>
	<path fill="#FFFFFF" d="M97.855,113.665c-0.089,0-0.18-0.038-0.243-0.111c-0.116-0.134-0.103-0.338,0.032-0.455
		c0.042-0.037,4.284-3.764,4.23-6.954c-0.021-1.33-0.682-2.842-1.378-4.444c-1.06-2.438-2.239-5.148-1.38-7.819
		c-2.299,1.617-5.229,1.402-7.867,1.209c-1.582-0.116-3.076-0.226-4.267,0.067c-0.161,0.04-0.326,0.091-0.489,0.153
		c-0.168,0.064-0.354-0.021-0.416-0.188s0.02-0.353,0.188-0.416c0.188-0.071,0.378-0.13,0.562-0.176
		c1.291-0.317,2.836-0.204,4.469-0.085c3.146,0.231,6.396,0.468,8.592-2.148l0.517,0.385c-1.882,2.868-0.577,5.863,0.683,8.76
		c0.723,1.663,1.408,3.233,1.432,4.691c0.058,3.49-4.269,7.292-4.452,7.452C98.006,113.638,97.932,113.665,97.855,113.665z"/>
	<path fill="#FFFFFF" d="M62.318,94.865c-0.08,0-0.158-0.028-0.22-0.086c-0.13-0.121-0.137-0.326-0.016-0.456
		c0.354-0.38,0.732-0.751,1.135-1.143c1.778-1.734,3.617-3.527,3.102-6.159l0.623-0.159c0.818,2.544,3.257,3.335,5.615,4.103
		c0.784,0.254,1.524,0.494,2.189,0.796c0.161,0.074,0.234,0.265,0.16,0.426c-0.074,0.162-0.265,0.233-0.427,0.162
		c-0.632-0.287-1.355-0.522-2.122-0.771c-1.946-0.633-4.104-1.334-5.337-3.107c-0.246,2.143-1.88,3.735-3.353,5.173
		c-0.397,0.387-0.771,0.751-1.113,1.119C62.49,94.832,62.404,94.865,62.318,94.865z"/>
	<path fill="#FFFFFF" d="M52.166,121c-0.041,0-0.082-0.006-0.122-0.023c-0.212-0.088-5.213-2.162-6.218-5.29
		c-0.42-1.307-0.287-2.908-0.146-4.605c0.246-2.95,0.5-6.001-2.031-7.975l0.365-0.53c2.734,1.657,5.545,0.468,8.264-0.686
		c1.071-0.452,2.081-0.881,3.052-1.114c0.172-0.04,0.346,0.064,0.388,0.237c0.042,0.174-0.065,0.348-0.237,0.39
		c-0.919,0.221-1.906,0.639-2.951,1.081c-2.27,0.962-4.792,2.031-7.311,1.318c1.538,2.114,1.309,4.859,1.104,7.33
		c-0.136,1.632-0.264,3.174,0.116,4.356c0.915,2.846,5.799,4.87,5.848,4.89c0.165,0.067,0.244,0.256,0.177,0.421
		C52.414,120.925,52.293,121,52.166,121z"/>
	<path fill="#FFFFFF" d="M58.398,113.489c-0.075,0-0.15-0.026-0.211-0.08c-0.185-0.16-4.51-3.962-4.452-7.451
		c0.023-1.459,0.708-3.028,1.431-4.691c1.261-2.897,2.563-5.892,0.683-8.761l0.517-0.385c2.197,2.618,5.449,2.379,8.591,2.149
		c1.635-0.12,3.178-0.232,4.468,0.085c0.306,0.075,0.612,0.184,0.911,0.322c0.162,0.075,0.232,0.268,0.158,0.429
		c-0.076,0.161-0.27,0.23-0.429,0.156c-0.262-0.121-0.528-0.216-0.793-0.281c-1.19-0.294-2.686-0.185-4.268-0.068
		c-2.637,0.194-5.568,0.408-7.866-1.208c0.86,2.671-0.32,5.381-1.38,7.818c-0.698,1.603-1.356,3.115-1.379,4.444
		c-0.053,3.194,4.188,6.917,4.231,6.955c0.134,0.117,0.148,0.32,0.031,0.455C58.579,113.451,58.489,113.489,58.398,113.489z"/>
	<path fill="#FFFFFF" d="M65.695,108.49c-0.143,0-0.273-0.095-0.312-0.24c-0.076-0.289-1.83-7.146,1.194-10.704
		c1.036-1.218,2.628-2.198,4.313-3.235c3.266-2.01,6.643-4.089,6.95-8.25l0.644,0.008c0.187,4.188,3.606,6.216,6.913,8.178
		c1.882,1.116,3.66,2.172,4.709,3.576c2.513,3.363,0.963,10.133,0.896,10.42c-0.042,0.173-0.215,0.278-0.389,0.24
		c-0.173-0.041-0.281-0.214-0.24-0.387c0.016-0.068,1.549-6.766-0.783-9.888c-0.973-1.301-2.697-2.324-4.523-3.407
		c-2.814-1.671-5.951-3.53-6.928-6.871c-1.046,3.32-4.136,5.222-6.909,6.931c-1.641,1.009-3.191,1.963-4.16,3.104
		c-2.809,3.304-1.081,10.055-1.062,10.123c0.045,0.171-0.059,0.348-0.23,0.394C65.75,108.487,65.722,108.49,65.695,108.49z"/>
	<path fill="#FFFFFF" d="M104.335,121.189c-0.104,0-0.205-0.051-0.268-0.145c-0.105-0.156-10.614-15.578-26.112-15.578
		c-15.493,0-25.575,15.333-25.675,15.487c-0.098,0.149-0.296,0.192-0.446,0.096c-0.15-0.097-0.193-0.296-0.096-0.446
		c0.102-0.157,10.368-15.782,26.217-15.782c15.844,0,26.542,15.705,26.647,15.865c0.1,0.147,0.061,0.347-0.088,0.447
		C104.459,121.17,104.397,121.189,104.335,121.189z"/>
	<circle fill="#FFFFFF" cx="49.84" cy="97.125" r="1.333"/>
	<circle fill="#FFFFFF" cx="60.747" cy="89.626" r="1.333"/>
	<circle fill="#FFFFFF" cx="72.749" cy="86.96" r="1.333"/>
	<circle fill="#FFFFFF" cx="106.247" cy="97.125" r="1.334"/>
	<circle fill="#FFFFFF" cx="95.34" cy="89.626" r="1.334"/>
	<circle fill="#FFFFFF" cx="83.339" cy="86.96" r="1.333"/>
	<path fill="#FFFFFF" d="M109.118,94.934c-0.07,0-0.141-0.036-0.181-0.102c-0.063-0.101-0.034-0.233,0.067-0.297l0.073-0.045
		c0.1-0.062,0.233-0.032,0.295,0.069c0.063,0.101,0.034,0.233-0.067,0.295l-0.073,0.046
		C109.197,94.923,109.157,94.934,109.118,94.934z M110.286,94.206c-0.072,0-0.143-0.036-0.184-0.101
		c-0.062-0.102-0.031-0.233,0.068-0.297l0.072-0.045c0.103-0.063,0.234-0.033,0.297,0.068c0.062,0.101,0.032,0.232-0.068,0.296
		l-0.072,0.045C110.364,94.196,110.324,94.206,110.286,94.206z M111.452,93.477c-0.072,0-0.142-0.036-0.184-0.103
		c-0.062-0.1-0.031-0.233,0.07-0.295l0.072-0.045c0.102-0.062,0.234-0.033,0.297,0.068s0.031,0.234-0.07,0.297l-0.072,0.045
		C111.529,93.466,111.491,93.477,111.452,93.477z M112.618,92.749c-0.072,0-0.143-0.037-0.182-0.101
		c-0.063-0.102-0.031-0.233,0.068-0.296l0.073-0.046c0.101-0.061,0.232-0.031,0.296,0.069c0.062,0.101,0.031,0.232-0.069,0.295
		l-0.073,0.046C112.696,92.739,112.657,92.749,112.618,92.749z M113.784,92.021c-0.071,0-0.141-0.036-0.182-0.102
		c-0.062-0.102-0.032-0.234,0.069-0.297l0.073-0.045c0.1-0.062,0.233-0.031,0.295,0.07c0.062,0.1,0.032,0.232-0.068,0.295
		l-0.074,0.045C113.862,92.01,113.824,92.021,113.784,92.021z M114.951,91.292c-0.07,0-0.141-0.036-0.181-0.101
		c-0.063-0.1-0.033-0.233,0.066-0.296l0.073-0.046c0.101-0.063,0.233-0.033,0.297,0.066c0.062,0.102,0.032,0.233-0.067,0.296
		l-0.073,0.047C115.031,91.282,114.991,91.292,114.951,91.292z M116.118,90.564c-0.072,0-0.143-0.036-0.182-0.102
		c-0.063-0.101-0.032-0.234,0.068-0.296l0.073-0.046c0.101-0.062,0.233-0.031,0.295,0.069c0.063,0.101,0.032,0.233-0.068,0.296
		l-0.073,0.046C116.196,90.553,116.157,90.564,116.118,90.564z"/>
	<path fill="#FFFFFF" d="M97.426,87.812c-0.061,0-0.123-0.026-0.164-0.078c-0.076-0.09-0.064-0.226,0.025-0.302l0.066-0.056
		c0.09-0.075,0.227-0.065,0.303,0.026c0.076,0.091,0.064,0.227-0.025,0.303l-0.066,0.055C97.524,87.794,97.476,87.812,97.426,87.812
		z M98.478,86.925c-0.062,0-0.122-0.025-0.164-0.076c-0.076-0.091-0.065-0.227,0.026-0.304l0.066-0.054
		c0.09-0.077,0.226-0.065,0.302,0.025c0.077,0.091,0.065,0.226-0.026,0.303l-0.065,0.056C98.576,86.909,98.527,86.925,98.478,86.925
		z M99.531,86.04c-0.062,0-0.123-0.025-0.165-0.075c-0.077-0.091-0.065-0.227,0.025-0.303l0.065-0.057
		c0.091-0.075,0.227-0.064,0.303,0.026s0.064,0.226-0.025,0.303l-0.064,0.055C99.629,86.023,99.58,86.04,99.531,86.04z
		 M100.582,85.154c-0.062,0-0.123-0.026-0.164-0.077c-0.076-0.091-0.064-0.226,0.025-0.303l0.066-0.056
		c0.09-0.075,0.228-0.064,0.303,0.027c0.076,0.091,0.064,0.227-0.026,0.303l-0.065,0.055
		C100.681,85.137,100.631,85.154,100.582,85.154z M101.634,84.268c-0.06,0-0.122-0.025-0.164-0.077
		c-0.076-0.09-0.063-0.226,0.026-0.302l0.066-0.056c0.09-0.075,0.227-0.064,0.302,0.026c0.077,0.09,0.065,0.227-0.026,0.303
		l-0.065,0.055C101.732,84.251,101.684,84.268,101.634,84.268z M102.688,83.382c-0.062,0-0.123-0.025-0.166-0.075
		c-0.076-0.091-0.064-0.227,0.026-0.304l0.065-0.055c0.09-0.077,0.227-0.065,0.303,0.024c0.077,0.091,0.066,0.226-0.025,0.304
		l-0.066,0.054C102.785,83.365,102.736,83.382,102.688,83.382z M103.738,82.497c-0.062,0-0.122-0.025-0.165-0.076
		c-0.075-0.091-0.065-0.227,0.027-0.303l0.066-0.056c0.09-0.076,0.225-0.064,0.301,0.026c0.078,0.09,0.065,0.227-0.025,0.303
		l-0.066,0.056C103.836,82.481,103.787,82.497,103.738,82.497z M104.79,81.611c-0.061,0-0.122-0.026-0.164-0.077
		c-0.077-0.091-0.064-0.226,0.025-0.303l0.066-0.056c0.091-0.075,0.227-0.063,0.304,0.027c0.076,0.091,0.063,0.226-0.026,0.302
		l-0.066,0.056C104.89,81.594,104.839,81.611,104.79,81.611z M105.843,80.724c-0.061,0-0.123-0.024-0.164-0.075
		c-0.076-0.09-0.065-0.227,0.025-0.303l0.064-0.056c0.091-0.075,0.227-0.064,0.303,0.025c0.078,0.09,0.066,0.227-0.023,0.303
		l-0.066,0.056C105.942,80.708,105.892,80.724,105.843,80.724z M106.895,79.839c-0.062,0-0.122-0.026-0.165-0.076
		c-0.076-0.091-0.064-0.228,0.027-0.304l0.065-0.056c0.091-0.076,0.226-0.065,0.302,0.026s0.065,0.227-0.026,0.303l-0.065,0.056
		C106.992,79.823,106.943,79.839,106.895,79.839z M107.946,78.954c-0.061,0-0.122-0.026-0.165-0.076
		c-0.075-0.091-0.063-0.227,0.026-0.303l0.066-0.056c0.091-0.076,0.227-0.065,0.304,0.026c0.076,0.09,0.063,0.227-0.026,0.303
		l-0.066,0.056C108.044,78.938,107.995,78.954,107.946,78.954z M108.999,78.068c-0.061,0-0.123-0.026-0.164-0.076
		c-0.078-0.091-0.065-0.227,0.024-0.304l0.065-0.056c0.091-0.075,0.229-0.064,0.303,0.026c0.078,0.091,0.066,0.226-0.024,0.303
		l-0.065,0.056C109.098,78.051,109.048,78.068,108.999,78.068z M110.05,77.181c-0.061,0-0.121-0.025-0.164-0.076
		c-0.076-0.091-0.064-0.227,0.027-0.302l0.065-0.056c0.091-0.076,0.227-0.065,0.303,0.026c0.075,0.09,0.064,0.226-0.026,0.302
		l-0.066,0.056C110.149,77.166,110.1,77.181,110.05,77.181z"/>
	<path fill="#FFFFFF" d="M85.482,84.299c-0.05,0-0.099-0.017-0.139-0.051c-0.092-0.075-0.104-0.211-0.027-0.302l0.055-0.066
		c0.077-0.091,0.213-0.103,0.303-0.027c0.092,0.075,0.104,0.212,0.027,0.302l-0.055,0.066
		C85.604,84.273,85.543,84.299,85.482,84.299z M86.362,83.244c-0.049,0-0.097-0.018-0.138-0.05
		c-0.092-0.075-0.104-0.212-0.027-0.304l0.055-0.066c0.075-0.09,0.211-0.104,0.303-0.028c0.091,0.076,0.104,0.212,0.027,0.304
		l-0.055,0.066C86.486,83.216,86.424,83.244,86.362,83.244z M87.242,82.186c-0.048,0-0.097-0.017-0.137-0.049
		c-0.092-0.076-0.104-0.212-0.027-0.303l0.055-0.066c0.076-0.091,0.211-0.103,0.303-0.027c0.092,0.076,0.104,0.211,0.027,0.303
		l-0.055,0.066C87.365,82.16,87.305,82.186,87.242,82.186z M88.124,81.131c-0.049,0-0.099-0.018-0.138-0.051
		c-0.092-0.076-0.104-0.211-0.027-0.303l0.055-0.066c0.076-0.091,0.211-0.103,0.303-0.027c0.092,0.076,0.104,0.211,0.027,0.303
		l-0.055,0.066C88.246,81.104,88.186,81.131,88.124,81.131z M89.004,80.075c-0.048,0-0.096-0.017-0.137-0.051
		c-0.092-0.075-0.104-0.21-0.027-0.302l0.055-0.066c0.075-0.092,0.211-0.104,0.303-0.028c0.09,0.075,0.104,0.212,0.027,0.302
		l-0.055,0.068C89.129,80.047,89.066,80.075,89.004,80.075z M89.886,79.018c-0.05,0-0.099-0.017-0.138-0.05
		c-0.092-0.076-0.104-0.213-0.027-0.304l0.055-0.066c0.076-0.091,0.214-0.103,0.303-0.025c0.092,0.076,0.104,0.212,0.027,0.303
		l-0.057,0.065C90.008,78.991,89.946,79.018,89.886,79.018z M90.766,77.961c-0.049,0-0.096-0.016-0.137-0.049
		c-0.092-0.076-0.104-0.211-0.028-0.303l0.056-0.066c0.076-0.091,0.211-0.104,0.303-0.028c0.09,0.075,0.104,0.211,0.027,0.303
		l-0.055,0.066C90.889,77.935,90.828,77.961,90.766,77.961z M91.646,76.906c-0.049,0-0.098-0.017-0.137-0.05
		c-0.092-0.077-0.104-0.211-0.027-0.303l0.055-0.066c0.076-0.091,0.211-0.103,0.303-0.027c0.092,0.076,0.104,0.212,0.027,0.303
		l-0.055,0.065C91.77,76.878,91.708,76.906,91.646,76.906z M92.527,75.849c-0.049,0-0.098-0.017-0.138-0.05
		c-0.091-0.076-0.103-0.212-0.027-0.303l0.056-0.066c0.076-0.09,0.211-0.103,0.303-0.027c0.092,0.077,0.104,0.212,0.027,0.304
		l-0.055,0.065C92.65,75.822,92.589,75.849,92.527,75.849z M93.408,74.792c-0.049,0-0.098-0.015-0.137-0.049
		c-0.092-0.076-0.104-0.211-0.028-0.303l0.056-0.065c0.074-0.092,0.211-0.104,0.303-0.028c0.09,0.075,0.104,0.211,0.027,0.302
		l-0.056,0.066C93.532,74.766,93.471,74.792,93.408,74.792z M94.289,73.737c-0.049,0-0.098-0.016-0.138-0.05
		c-0.092-0.077-0.103-0.212-0.026-0.303l0.055-0.066c0.076-0.092,0.212-0.104,0.303-0.026c0.091,0.076,0.104,0.212,0.027,0.303
		l-0.057,0.065C94.41,73.71,94.351,73.737,94.289,73.737z M95.17,72.68c-0.049,0-0.098-0.016-0.138-0.05
		c-0.091-0.076-0.103-0.211-0.027-0.303l0.056-0.065c0.076-0.092,0.211-0.104,0.302-0.027c0.092,0.075,0.103,0.212,0.028,0.302
		l-0.056,0.066C95.293,72.654,95.231,72.68,95.17,72.68z M96.051,71.624c-0.049,0-0.097-0.016-0.137-0.049
		c-0.092-0.075-0.104-0.212-0.028-0.303l0.055-0.066c0.077-0.09,0.211-0.104,0.303-0.028c0.091,0.075,0.104,0.212,0.028,0.304
		l-0.056,0.065C96.174,71.597,96.113,71.624,96.051,71.624z M96.932,70.567c-0.049,0-0.098-0.015-0.138-0.05
		c-0.091-0.075-0.103-0.211-0.027-0.302l0.055-0.065c0.077-0.091,0.212-0.104,0.303-0.027c0.092,0.076,0.103,0.211,0.027,0.303
		l-0.055,0.065C97.055,70.542,96.992,70.567,96.932,70.567z M97.812,69.512c-0.049,0-0.098-0.017-0.137-0.051
		c-0.092-0.075-0.105-0.21-0.028-0.302l0.055-0.065c0.075-0.092,0.21-0.104,0.303-0.028c0.091,0.075,0.104,0.21,0.028,0.302
		l-0.056,0.066C97.936,69.486,97.875,69.512,97.812,69.512z M98.693,68.456c-0.049,0-0.098-0.017-0.138-0.05
		c-0.092-0.077-0.103-0.212-0.028-0.304l0.056-0.064c0.076-0.091,0.212-0.104,0.303-0.028c0.091,0.076,0.103,0.212,0.027,0.303
		l-0.055,0.066C98.816,68.429,98.754,68.456,98.693,68.456z M99.574,67.399c-0.049,0-0.098-0.016-0.138-0.05
		c-0.091-0.075-0.103-0.212-0.028-0.303l0.057-0.064c0.075-0.092,0.211-0.104,0.302-0.028c0.091,0.076,0.103,0.211,0.027,0.302
		l-0.055,0.066C99.697,67.373,99.635,67.399,99.574,67.399z"/>
	<path fill="#FFFFFF" d="M46.969,94.934c-0.04,0-0.079-0.011-0.113-0.033l-0.073-0.046c-0.102-0.062-0.131-0.194-0.07-0.295
		c0.063-0.102,0.197-0.131,0.297-0.069l0.073,0.045c0.101,0.063,0.131,0.196,0.068,0.297C47.11,94.898,47.04,94.934,46.969,94.934z
		 M45.802,94.206c-0.04,0-0.078-0.01-0.114-0.033l-0.074-0.045c-0.1-0.063-0.13-0.195-0.068-0.296
		c0.063-0.102,0.197-0.132,0.297-0.068l0.073,0.045c0.1,0.063,0.13,0.195,0.068,0.297C45.944,94.169,45.874,94.206,45.802,94.206z
		 M44.636,93.477c-0.04,0-0.079-0.011-0.113-0.032L44.449,93.4c-0.1-0.062-0.131-0.195-0.069-0.297
		c0.063-0.102,0.196-0.131,0.296-0.068l0.074,0.045c0.1,0.062,0.131,0.195,0.068,0.295C44.777,93.441,44.707,93.477,44.636,93.477z
		 M43.468,92.749c-0.038,0-0.077-0.01-0.113-0.032l-0.073-0.046c-0.1-0.062-0.132-0.194-0.068-0.295
		c0.062-0.101,0.195-0.13,0.295-0.069l0.073,0.046c0.102,0.062,0.132,0.194,0.07,0.296C43.611,92.711,43.541,92.749,43.468,92.749z
		 M42.302,92.021c-0.039,0-0.078-0.011-0.113-0.033l-0.073-0.045c-0.102-0.062-0.132-0.195-0.07-0.295
		c0.062-0.102,0.197-0.132,0.296-0.07l0.073,0.045c0.1,0.062,0.132,0.195,0.069,0.297C42.444,91.985,42.374,92.021,42.302,92.021z
		 M41.135,91.292c-0.039,0-0.078-0.011-0.114-0.033l-0.073-0.047c-0.1-0.062-0.13-0.194-0.067-0.296
		c0.063-0.1,0.197-0.13,0.297-0.066l0.072,0.046c0.1,0.062,0.13,0.196,0.067,0.296C41.276,91.256,41.207,91.292,41.135,91.292z
		 M39.969,90.564c-0.039,0-0.079-0.011-0.113-0.032l-0.073-0.046c-0.101-0.062-0.132-0.195-0.07-0.296
		c0.063-0.101,0.196-0.131,0.297-0.069l0.073,0.046c0.101,0.062,0.132,0.195,0.068,0.296C40.111,90.528,40.041,90.564,39.969,90.564
		z"/>
	<path fill="#FFFFFF" d="M58.662,87.812c-0.049,0-0.099-0.018-0.138-0.052l-0.066-0.055c-0.092-0.076-0.103-0.212-0.026-0.303
		c0.075-0.092,0.213-0.103,0.302-0.026l0.066,0.056c0.091,0.076,0.103,0.212,0.026,0.302C58.783,87.786,58.723,87.812,58.662,87.812
		z M57.609,86.925c-0.049,0-0.098-0.017-0.138-0.05l-0.066-0.056c-0.09-0.077-0.103-0.212-0.025-0.303
		c0.076-0.091,0.211-0.104,0.303-0.025l0.066,0.054c0.091,0.077,0.103,0.213,0.026,0.304C57.731,86.9,57.67,86.925,57.609,86.925z
		 M56.557,86.04c-0.049,0-0.1-0.017-0.139-0.051l-0.066-0.055c-0.091-0.077-0.102-0.212-0.025-0.303s0.213-0.102,0.304-0.026
		l0.065,0.057c0.09,0.076,0.102,0.212,0.025,0.303C56.679,86.014,56.617,86.04,56.557,86.04z M55.506,85.154
		c-0.05,0-0.099-0.017-0.138-0.051l-0.066-0.055c-0.092-0.076-0.103-0.212-0.027-0.303c0.076-0.092,0.212-0.104,0.302-0.027
		l0.066,0.056c0.091,0.077,0.103,0.212,0.026,0.303C55.627,85.127,55.566,85.154,55.506,85.154z M54.453,84.268
		c-0.049,0-0.098-0.017-0.137-0.051l-0.066-0.055c-0.091-0.076-0.103-0.213-0.026-0.303c0.076-0.092,0.212-0.103,0.303-0.026
		l0.066,0.056c0.091,0.076,0.102,0.212,0.027,0.302C54.575,84.243,54.514,84.268,54.453,84.268z M53.401,83.382
		c-0.049,0-0.099-0.018-0.139-0.052l-0.066-0.054c-0.09-0.078-0.102-0.213-0.024-0.304c0.077-0.09,0.212-0.102,0.302-0.024
		l0.066,0.055c0.091,0.077,0.102,0.213,0.025,0.304C53.523,83.357,53.462,83.382,53.401,83.382z M52.35,82.497
		c-0.049,0-0.099-0.016-0.139-0.05l-0.066-0.056c-0.091-0.076-0.102-0.213-0.026-0.303c0.076-0.091,0.213-0.104,0.303-0.026
		l0.066,0.056c0.09,0.076,0.103,0.212,0.025,0.303C52.471,82.471,52.411,82.497,52.35,82.497z M51.297,81.611
		c-0.05,0-0.099-0.017-0.138-0.051l-0.066-0.056c-0.091-0.076-0.103-0.211-0.027-0.302c0.076-0.092,0.212-0.104,0.302-0.027
		l0.066,0.056c0.092,0.077,0.103,0.212,0.026,0.303C51.419,81.584,51.358,81.611,51.297,81.611z M50.245,80.724
		c-0.049,0-0.099-0.016-0.14-0.05l-0.065-0.056c-0.09-0.076-0.102-0.213-0.025-0.303c0.076-0.09,0.212-0.101,0.303-0.025
		l0.066,0.056c0.091,0.076,0.102,0.213,0.025,0.303C50.366,80.7,50.306,80.724,50.245,80.724z M49.192,79.839
		c-0.049,0-0.097-0.017-0.138-0.051l-0.066-0.056c-0.09-0.076-0.103-0.211-0.026-0.303c0.077-0.092,0.212-0.103,0.303-0.026
		l0.066,0.056c0.09,0.076,0.103,0.213,0.026,0.304C49.315,79.813,49.254,79.839,49.192,79.839z M48.141,78.954
		c-0.049,0-0.099-0.016-0.138-0.05l-0.066-0.056c-0.092-0.076-0.103-0.213-0.027-0.303c0.076-0.092,0.212-0.104,0.302-0.026
		l0.067,0.056c0.091,0.076,0.102,0.212,0.025,0.303C48.263,78.927,48.202,78.954,48.141,78.954z M47.088,78.068
		c-0.049,0-0.098-0.017-0.138-0.051l-0.065-0.056c-0.091-0.077-0.102-0.212-0.026-0.303s0.213-0.102,0.303-0.026l0.066,0.056
		c0.091,0.077,0.102,0.213,0.025,0.304C47.209,78.042,47.149,78.068,47.088,78.068z M46.036,77.181c-0.049,0-0.098-0.016-0.138-0.05
		l-0.066-0.056c-0.09-0.076-0.103-0.212-0.025-0.302c0.076-0.092,0.211-0.103,0.303-0.026l0.065,0.056
		c0.092,0.075,0.103,0.211,0.027,0.302C46.159,77.156,46.098,77.181,46.036,77.181z"/>
	<path fill="#FFFFFF" d="M70.605,84.299c-0.061,0-0.123-0.026-0.166-0.078l-0.054-0.066c-0.075-0.09-0.063-0.227,0.028-0.302
		c0.09-0.076,0.226-0.064,0.303,0.027l0.055,0.066c0.076,0.091,0.062,0.227-0.027,0.302C70.703,84.283,70.654,84.299,70.605,84.299z
		 M69.725,83.244c-0.061,0-0.123-0.027-0.166-0.078l-0.054-0.066c-0.078-0.092-0.063-0.228,0.028-0.304
		c0.091-0.075,0.226-0.063,0.302,0.028l0.056,0.066c0.075,0.092,0.062,0.229-0.028,0.304C69.822,83.226,69.773,83.244,69.725,83.244
		z M68.844,82.186c-0.061,0-0.123-0.026-0.165-0.076l-0.055-0.066c-0.076-0.092-0.063-0.227,0.027-0.303
		c0.091-0.075,0.227-0.064,0.303,0.027l0.055,0.066c0.076,0.091,0.064,0.227-0.027,0.303C68.942,82.169,68.893,82.186,68.844,82.186
		z M67.963,81.131c-0.06,0-0.122-0.027-0.164-0.078l-0.055-0.066c-0.077-0.092-0.064-0.227,0.026-0.303
		c0.09-0.075,0.227-0.064,0.303,0.027l0.055,0.066c0.077,0.092,0.064,0.227-0.027,0.303C68.062,81.114,68.012,81.131,67.963,81.131z
		 M67.083,80.075c-0.061,0-0.123-0.027-0.165-0.077l-0.055-0.068c-0.076-0.09-0.063-0.227,0.028-0.302
		c0.091-0.075,0.227-0.064,0.302,0.028l0.055,0.066c0.077,0.092,0.063,0.227-0.027,0.302C67.18,80.058,67.13,80.075,67.083,80.075z
		 M66.202,79.018c-0.061,0-0.123-0.027-0.165-0.077l-0.055-0.065c-0.077-0.091-0.065-0.227,0.026-0.303
		c0.089-0.075,0.227-0.065,0.302,0.025l0.056,0.066c0.076,0.091,0.064,0.228-0.027,0.304C66.301,79.001,66.251,79.018,66.202,79.018
		z M65.321,77.961c-0.062,0-0.124-0.026-0.166-0.077l-0.055-0.066c-0.076-0.092-0.063-0.228,0.028-0.303
		c0.091-0.075,0.227-0.063,0.302,0.028l0.056,0.066c0.076,0.092,0.062,0.227-0.028,0.303C65.418,77.946,65.37,77.961,65.321,77.961z
		 M64.44,76.906c-0.061,0-0.123-0.027-0.164-0.078l-0.056-0.065c-0.075-0.091-0.063-0.227,0.027-0.303
		c0.09-0.076,0.227-0.064,0.303,0.027l0.055,0.066c0.076,0.092,0.064,0.226-0.027,0.303C64.537,76.889,64.489,76.906,64.44,76.906z
		 M63.56,75.849c-0.061,0-0.123-0.027-0.165-0.077l-0.055-0.065c-0.076-0.092-0.064-0.227,0.027-0.304
		c0.09-0.075,0.226-0.062,0.302,0.027l0.055,0.066c0.076,0.091,0.064,0.227-0.027,0.303C63.658,75.833,63.608,75.849,63.56,75.849z
		 M62.678,74.792c-0.061,0-0.123-0.026-0.166-0.077l-0.054-0.066c-0.075-0.091-0.063-0.227,0.028-0.302
		c0.091-0.076,0.227-0.063,0.302,0.028l0.056,0.065c0.075,0.092,0.062,0.227-0.028,0.303C62.775,74.778,62.727,74.792,62.678,74.792
		z M61.798,73.737c-0.061,0-0.123-0.026-0.165-0.077l-0.055-0.065c-0.076-0.091-0.065-0.227,0.027-0.303
		c0.089-0.077,0.226-0.065,0.302,0.026l0.056,0.066c0.076,0.091,0.064,0.226-0.026,0.303C61.897,73.721,61.847,73.737,61.798,73.737
		z M60.917,72.68c-0.061,0-0.123-0.026-0.165-0.077l-0.055-0.066c-0.076-0.09-0.064-0.227,0.027-0.302
		c0.09-0.077,0.227-0.064,0.303,0.027l0.055,0.065c0.077,0.092,0.064,0.227-0.027,0.303C61.015,72.665,60.965,72.68,60.917,72.68z
		 M60.036,71.624c-0.061,0-0.123-0.026-0.165-0.077l-0.055-0.065c-0.076-0.092-0.063-0.229,0.028-0.304s0.226-0.062,0.302,0.028
		l0.056,0.066c0.076,0.091,0.062,0.228-0.028,0.303C60.134,71.608,60.084,71.624,60.036,71.624z M59.156,70.567
		c-0.061,0-0.123-0.025-0.165-0.076l-0.055-0.065c-0.076-0.092-0.064-0.227,0.028-0.303c0.09-0.077,0.226-0.063,0.302,0.027
		l0.055,0.065c0.077,0.091,0.064,0.227-0.027,0.302C59.253,70.552,59.204,70.567,59.156,70.567z M58.275,69.512
		c-0.062,0-0.124-0.026-0.166-0.078l-0.055-0.066c-0.076-0.092-0.063-0.227,0.028-0.302c0.092-0.076,0.226-0.063,0.302,0.028
		l0.056,0.065c0.076,0.092,0.063,0.227-0.028,0.302C58.372,69.496,58.323,69.512,58.275,69.512z M57.394,68.456
		c-0.061,0-0.123-0.026-0.165-0.077l-0.055-0.066c-0.077-0.091-0.064-0.227,0.027-0.303c0.09-0.076,0.226-0.062,0.302,0.028
		l0.056,0.064c0.076,0.092,0.063,0.227-0.027,0.304C57.492,68.439,57.442,68.456,57.394,68.456z M56.513,67.399
		c-0.061,0-0.123-0.026-0.165-0.077l-0.055-0.066c-0.077-0.091-0.064-0.226,0.027-0.302c0.09-0.076,0.226-0.063,0.302,0.028
		l0.055,0.064c0.076,0.091,0.064,0.228-0.027,0.303C56.611,67.383,56.562,67.399,56.513,67.399z"/>
	<path fill="#FFFFFF" d="M79.05,81.473c-0.404,0-0.818-0.021-1.242-0.067c-4.552-0.49-9.16-4.176-9.156-10.271
		c0.001-3.998,3.425-7.385,9.159-9.061c0.992-0.29,1.836-0.629,2.59-0.948c-0.434-0.183-0.879-0.375-1.33-0.568
		c-1.055-0.454-2.17-0.935-3.208-1.334c-1.293,0.564-2.484,0.976-3.385,0.989c-0.007,0-0.015,0-0.021,0
		c-0.471,0-0.888-0.231-1.12-0.624c-0.217-0.366-0.232-0.805-0.039-1.143c0.122-0.214,0.439-0.572,1.19-0.572
		c0.8,0,2.003,0.365,3.366,0.885c0.822-0.365,1.687-0.789,2.541-1.208c0.631-0.31,1.25-0.613,1.841-0.887
		c-0.581-0.232-1.181-0.484-1.772-0.733c-0.547-0.229-1.084-0.455-1.584-0.655c-0.919,0.479-1.774,0.825-2.444,0.841
		c-0.011,0-0.023,0.001-0.035,0.001c-0.474,0-0.903-0.229-1.126-0.602c-0.169-0.282-0.184-0.603-0.039-0.858
		c0.111-0.196,0.421-0.525,1.242-0.525c0.531,0,1.365,0.272,2.375,0.67c0.6-0.32,1.221-0.689,1.813-1.04
		c0.487-0.288,0.954-0.564,1.391-0.808c-0.461-0.199-0.938-0.419-1.413-0.637c-0.313-0.146-0.631-0.292-0.932-0.426
		c-0.495,0.341-0.99,0.581-1.467,0.581c-0.816,0-1.116-0.368-1.125-0.712c-0.009-0.385,0.361-0.803,1-0.836
		c0.311-0.021,0.818,0.159,1.543,0.476c0.315-0.233,0.636-0.506,0.952-0.773c0.216-0.184,0.43-0.365,0.64-0.531
		c-0.27-0.192-0.534-0.403-0.795-0.613c-0.579-0.464-1.125-0.901-1.594-0.998l0,0c-0.073-0.016-0.137-0.069-0.163-0.139
		c-0.059-0.156-0.074-0.196,1.127-1.24v-3.064c0-0.119,0.096-0.215,0.215-0.215s0.214,0.096,0.214,0.215v3.162
		c0,0.062-0.026,0.121-0.074,0.162c-0.328,0.285-0.681,0.6-0.896,0.804c0.465,0.196,0.94,0.578,1.439,0.979
		c0.292,0.232,0.587,0.471,0.884,0.673c0.455-0.329,0.893-0.565,1.313-0.596c0.519-0.033,0.917,0.113,1.103,0.409
		c0.133,0.217,0.135,0.482,0.002,0.711c-0.186,0.317-0.578,0.491-1.049,0.476c-0.469-0.02-0.917-0.208-1.351-0.476
		c-0.243,0.19-0.491,0.401-0.738,0.609c-0.259,0.221-0.52,0.44-0.782,0.645c0.221,0.101,0.459,0.21,0.714,0.327
		c0.563,0.261,1.158,0.535,1.719,0.767c0.773-0.4,1.428-0.653,1.912-0.615c0.793,0.06,1.135,0.475,1.119,0.857
		c-0.014,0.361-0.357,0.75-1.079,0.75c-0.489,0-1.171-0.213-1.929-0.518c-0.533,0.284-1.111,0.627-1.681,0.965
		c-0.505,0.299-1.016,0.603-1.515,0.878c0.4,0.163,0.823,0.341,1.258,0.525c0.703,0.296,1.442,0.606,2.152,0.881
		c1.13-0.501,2.123-0.856,2.84-0.875c0.686-0.008,1.221,0.203,1.46,0.606c0.167,0.284,0.163,0.627-0.009,0.917
		c-0.234,0.395-0.733,0.617-1.32,0.604c-0.755-0.022-1.807-0.349-2.961-0.788c-0.693,0.313-1.442,0.681-2.208,1.056
		c-0.725,0.355-1.457,0.716-2.169,1.04c0.91,0.362,1.874,0.776,2.827,1.187c0.584,0.251,1.159,0.499,1.71,0.728
		c1.535-0.658,2.766-1.165,4.266-0.837c0.613,0.134,0.994,0.651,0.929,1.259c-0.063,0.59-0.563,1.183-1.534,1.183
		c-0.746,0-2.095-0.489-3.658-1.138c-0.859,0.369-1.834,0.782-3.021,1.13c-5.54,1.619-8.849,4.853-8.851,8.647
		c-0.001,5.842,4.412,9.374,8.774,9.844c4.578,0.491,7.979-1.845,9.098-6.253c1.124-4.434-1.88-7.699-5.147-8.854
		c-1.653-0.587-4.183-0.095-5.882,1.143c-0.956,0.695-2.084,1.938-2.027,3.896c0.069,2.402,1.565,3.539,2.452,4.002
		c1.409,0.737,3.186,0.778,4.227,0.1c1.146-0.749,1.718-1.926,1.491-3.072c-0.194-0.98-0.931-1.683-1.974-1.881
		c-1.159-0.223-1.83,0.595-2.065,0.956c-0.407,0.625-0.497,1.312-0.325,1.562c0.037,0.053,0.102,0.107,0.268,0.073
		c0.118-0.025,0.23,0.05,0.255,0.165c0.025,0.115-0.048,0.23-0.164,0.255c-0.304,0.066-0.557-0.022-0.712-0.249
		c-0.296-0.431-0.159-1.309,0.318-2.041c0.597-0.916,1.513-1.332,2.505-1.143c1.221,0.231,2.086,1.061,2.314,2.219
		c0.263,1.322-0.381,2.67-1.678,3.516c-1.181,0.772-3.098,0.739-4.66-0.078c-0.97-0.507-2.608-1.749-2.684-4.371
		c-0.06-2.146,1.166-3.498,2.204-4.256c1.805-1.312,4.503-1.828,6.28-1.2c3.443,1.22,6.609,4.67,5.419,9.365
		C86.297,79.057,83.23,81.473,79.05,81.473z M81.508,61.121c1.348,0.549,2.484,0.944,3.104,0.944c0.752,0,1.067-0.43,1.107-0.799
		c0.035-0.323-0.137-0.693-0.592-0.793C83.875,60.201,82.836,60.559,81.508,61.121z M72.488,58.302
		c-0.395,0-0.686,0.127-0.817,0.357c-0.117,0.203-0.103,0.475,0.036,0.709c0.158,0.27,0.455,0.427,0.764,0.414
		c0.742-0.011,1.725-0.324,2.811-0.778C74.143,58.588,73.143,58.302,72.488,58.302z M81.359,56.631
		c0.943,0.343,1.801,0.589,2.405,0.607c0.443,0.009,0.784-0.134,0.937-0.394c0.094-0.156,0.097-0.33,0.008-0.479
		c-0.154-0.267-0.555-0.417-1.078-0.395C83.062,55.985,82.271,56.246,81.359,56.631z M74.478,54.561
		c-0.441,0-0.757,0.112-0.868,0.308c-0.068,0.121-0.056,0.275,0.033,0.425c0.112,0.187,0.385,0.408,0.782,0.393
		c0.51-0.011,1.184-0.263,1.914-0.622C75.545,54.764,74.882,54.561,74.478,54.561z M81.082,52.905
		c0.562,0.21,1.061,0.349,1.413,0.349c0.413,0,0.644-0.173,0.649-0.336c0.008-0.178-0.238-0.375-0.723-0.413
		C82.105,52.487,81.633,52.642,81.082,52.905z M76.163,51.353c-0.008,0-0.015,0-0.021,0.001c-0.393,0.021-0.596,0.243-0.592,0.395
		c0.003,0.146,0.22,0.294,0.695,0.294c0.308,0,0.645-0.14,0.996-0.355C76.764,51.489,76.372,51.353,76.163,51.353z M80.008,50.069
		c0.33,0.184,0.662,0.308,0.99,0.321c0.365,0.019,0.58-0.125,0.658-0.263c0.055-0.092,0.055-0.186,0.006-0.266
		c-0.097-0.156-0.365-0.235-0.705-0.209C80.674,49.674,80.35,49.835,80.008,50.069z"/>
	<path fill="#FFFFFF" d="M78.044,44.005c-2.163,0-3.922-1.76-3.922-3.923c0-0.952,0.349-1.873,0.982-2.59
		c0.067-0.076,0.181-0.095,0.271-0.043c0.088,0.054,0.127,0.16,0.092,0.259c-0.109,0.302-0.164,0.613-0.164,0.924
		c0,1.512,1.229,2.74,2.74,2.74c1.511,0,2.739-1.229,2.739-2.74c0-0.311-0.055-0.622-0.163-0.924
		c-0.035-0.099,0.003-0.205,0.093-0.259c0.09-0.052,0.203-0.033,0.271,0.043c0.632,0.717,0.98,1.638,0.98,2.59
		C81.965,42.246,80.206,44.005,78.044,44.005z M74.874,38.623c-0.211,0.455-0.322,0.952-0.322,1.46c0,1.927,1.566,3.493,3.492,3.493
		c1.925,0,3.491-1.566,3.491-3.493c0-0.508-0.111-1.005-0.322-1.46c0,0.004,0,0.007,0,0.01c0,1.748-1.422,3.17-3.169,3.17
		c-1.748,0-3.17-1.422-3.17-3.17C74.874,38.629,74.874,38.626,74.874,38.623z"/>
	<circle fill="#FFFFFF" cx="78.043" cy="37.476" r="1.064"/>
	<circle fill="#FFFFFF" cx="78.19" cy="143.695" r="1.064"/>
	<path fill="#FFFFFF" d="M80.025,163.324c0,1.082-0.877,1.961-1.961,1.961s-1.962-0.879-1.962-1.961
		c0-1.086,0.878-1.965,1.962-1.965S80.025,162.238,80.025,163.324z"/>
	<circle fill="#FFFFFF" cx="93.834" cy="159.252" r="0.634"/>
	<circle fill="#FFFFFF" cx="61.811" cy="159.252" r="0.634"/>
	<circle fill="#FFFFFF" cx="61.302" cy="137.684" r="1.063"/>
	<circle fill="#FFFFFF" cx="94.396" cy="137.553" r="1.063"/>
	<circle fill="#FFFFFF" cx="78.044" cy="34.755" r="0.706"/>
	<circle fill="#FFFFFF" cx="78.044" cy="32.785" r="0.416"/>
	<path fill="#FFFFFF" d="M74.093,144.041c-0.008,0-0.014,0-0.021,0c-0.068-0.008-6.891-0.723-11.087-4.707
		c-0.086-0.084-0.089-0.219-0.008-0.305c0.083-0.086,0.219-0.09,0.304-0.008c4.087,3.883,10.766,4.584,10.832,4.59
		c0.119,0.012,0.205,0.117,0.193,0.236C74.295,143.959,74.202,144.041,74.093,144.041z"/>
	<path fill="#FFFFFF" d="M81.859,144.059c-0.11,0-0.203-0.082-0.215-0.193c-0.01-0.117,0.075-0.223,0.193-0.236
		c0.067-0.006,6.746-0.707,10.832-4.59c0.086-0.08,0.223-0.08,0.305,0.008c0.082,0.086,0.077,0.223-0.008,0.305
		c-4.195,3.984-11.018,4.699-11.086,4.707C81.873,144.059,81.867,144.059,81.859,144.059z"/>
	<path fill="#FFFFFF" d="M97.637,136.285L97.637,136.285c-0.329,0-0.6-0.086-0.78-0.246c-0.401-0.361-0.546-0.879-0.403-1.457
		c0.312-1.271,2.076-2.93,4.847-3.641l0.291-0.074l-0.023,0.299C101.297,134.699,99.107,136.285,97.637,136.285z M101.11,131.438
		c-2.435,0.703-3.97,2.143-4.24,3.246c-0.104,0.43-0.014,0.777,0.274,1.035c0.099,0.088,0.273,0.139,0.492,0.139
		C98.632,135.857,100.74,134.77,101.11,131.438z"/>
	<path fill="#FFFFFF" d="M97,136.094c-0.052,0-0.104-0.02-0.145-0.057c-0.088-0.08-0.094-0.217-0.013-0.305l4.352-4.729
		c0.081-0.086,0.216-0.092,0.305-0.012c0.087,0.08,0.093,0.217,0.013,0.305l-4.353,4.729C97.116,136.07,97.059,136.094,97,136.094z"
		/>
	<path fill="#FFFFFF" d="M99.569,133.303c-0.116,0-0.212-0.092-0.216-0.207l-0.037-1.275c-0.003-0.119,0.091-0.217,0.209-0.221
		c0.121-0.004,0.218,0.09,0.221,0.209l0.037,1.273c0.004,0.119-0.09,0.217-0.208,0.221C99.572,133.303,99.57,133.303,99.569,133.303
		z"/>
	<path fill="#FFFFFF" d="M98.549,134.41c-0.113,0-0.207-0.088-0.214-0.203l-0.095-1.754c-0.004-0.119,0.086-0.221,0.205-0.227
		c0.113-0.012,0.219,0.084,0.225,0.203l0.094,1.754c0.008,0.119-0.084,0.221-0.203,0.227C98.557,134.41,98.554,134.41,98.549,134.41
		z"/>
	<path fill="#FFFFFF" d="M99.596,133.279c-0.113,0-0.209-0.09-0.215-0.203c-0.008-0.119,0.084-0.221,0.202-0.227l1.272-0.07
		c0.131-0.012,0.221,0.086,0.227,0.203c0.006,0.119-0.085,0.221-0.202,0.227l-1.272,0.07
		C99.604,133.279,99.6,133.279,99.596,133.279z"/>
	<path fill="#FFFFFF" d="M98.577,134.389c-0.116,0-0.211-0.094-0.216-0.209c-0.003-0.119,0.09-0.219,0.209-0.221l1.756-0.057
		c0.123,0.004,0.219,0.092,0.222,0.209c0.005,0.119-0.089,0.219-0.208,0.221l-1.756,0.057
		C98.582,134.389,98.578,134.389,98.577,134.389z"/>
	<path fill="#FFFFFF" d="M58.302,136.416c-1.471,0-3.662-1.588-3.932-5.119l-0.023-0.299l0.29,0.074
		c2.771,0.709,4.536,2.367,4.848,3.639c0.142,0.58-0.002,1.096-0.404,1.457C58.9,136.33,58.63,136.416,58.302,136.416z
		 M54.827,131.568c0.371,3.33,2.479,4.42,3.475,4.42c0.218,0,0.393-0.051,0.492-0.141c0.287-0.258,0.378-0.605,0.273-1.035
		C58.796,133.711,57.261,132.271,54.827,131.568z"/>
	<path fill="#FFFFFF" d="M58.937,136.223c-0.058,0-0.116-0.023-0.159-0.068l-4.354-4.729c-0.08-0.088-0.074-0.223,0.014-0.305
		c0.087-0.078,0.224-0.074,0.303,0.014l4.353,4.729c0.08,0.088,0.075,0.223-0.013,0.303
		C59.041,136.205,58.989,136.223,58.937,136.223z"/>
	<path fill="#FFFFFF" d="M56.369,133.434c-0.002,0-0.004,0-0.006,0c-0.119-0.004-0.211-0.104-0.208-0.221l0.037-1.273
		c0.003-0.119,0.104-0.203,0.22-0.209c0.12,0.004,0.213,0.102,0.21,0.221l-0.038,1.273C56.58,133.34,56.484,133.434,56.369,133.434z
		"/>
	<path fill="#FFFFFF" d="M57.388,134.541c-0.004,0-0.008,0-0.012,0c-0.119-0.006-0.209-0.107-0.203-0.227l0.093-1.754
		c0.005-0.119,0.108-0.215,0.226-0.203c0.119,0.006,0.209,0.107,0.203,0.225l-0.094,1.756
		C57.597,134.451,57.502,134.541,57.388,134.541z"/>
	<path fill="#FFFFFF" d="M56.342,133.408c-0.003,0-0.008,0-0.011,0l-1.272-0.068c-0.119-0.008-0.209-0.109-0.203-0.227
		c0.007-0.119,0.099-0.215,0.226-0.203l1.273,0.07c0.118,0.006,0.21,0.107,0.202,0.225C56.55,133.32,56.455,133.408,56.342,133.408z
		"/>
	<path fill="#FFFFFF" d="M57.361,134.518c-0.002,0-0.005,0-0.007,0l-1.756-0.055c-0.119-0.004-0.212-0.102-0.209-0.223
		c0.004-0.115,0.1-0.207,0.215-0.207c0.001,0,0.004,0,0.007,0l1.755,0.055c0.119,0.004,0.212,0.104,0.208,0.223
		C57.571,134.426,57.477,134.518,57.361,134.518z"/>
	<path fill="#FFFFFF" d="M71.659,170.359l-0.001-0.285l-0.18,0.234c-3.495-2.225-5.578-6.02-5.575-10.154
		c0.006-6.623,5.398-12.01,12.02-12.01c6.638,0.004,12.027,5.4,12.021,12.029c-0.004,4.125-2.087,7.912-5.573,10.133l-0.394-0.508
		c1.837-1.707,2.849-4.02,2.849-6.512c0-4.91-3.993-8.902-8.902-8.902c-4.908,0-8.901,3.992-8.901,8.902
		c0,2.492,1.012,4.805,2.849,6.514l-0.212,0.271V170.359z M77.933,148.787c-6.277,0-11.379,5.1-11.386,11.367
		c-0.002,2.916,1.095,5.656,3.022,7.734c-0.773-1.4-1.193-2.986-1.193-4.602c0-5.266,4.282-9.549,9.546-9.549
		c5.265,0,9.547,4.283,9.547,9.549c0,1.629-0.402,3.186-1.161,4.566c1.904-2.07,2.988-4.787,2.99-7.68
		C89.305,153.9,84.205,148.793,77.933,148.787z"/>
	<path fill="#FFFFFF" d="M77.642,171.986c-0.001,0-0.003,0-0.007,0l-0.085-0.002c-0.119-0.004-0.212-0.102-0.208-0.221
		c0.003-0.119,0.111-0.211,0.222-0.209l0.085,0.002c0.118,0.006,0.211,0.104,0.208,0.223
		C77.853,171.896,77.757,171.986,77.642,171.986z M78.929,171.951c-0.111,0-0.206-0.088-0.213-0.199
		c-0.009-0.117,0.079-0.223,0.198-0.23l0.082-0.006c0.115-0.008,0.222,0.076,0.232,0.193c0.012,0.119-0.076,0.223-0.193,0.234
		l-0.089,0.006C78.941,171.951,78.935,171.951,78.929,171.951z M76.271,171.883c-0.009,0-0.019-0.002-0.028-0.002l-0.089-0.014
		c-0.117-0.016-0.198-0.127-0.18-0.242c0.017-0.117,0.125-0.199,0.244-0.182l0.082,0.01c0.118,0.018,0.2,0.125,0.185,0.242
		C76.469,171.805,76.377,171.883,76.271,171.883z M80.292,171.766c-0.101,0-0.19-0.072-0.211-0.174
		c-0.021-0.117,0.054-0.229,0.169-0.252l0.086-0.016c0.113-0.021,0.229,0.053,0.252,0.17c0.021,0.115-0.053,0.229-0.17,0.252
		l-0.085,0.016C80.32,171.766,80.306,171.766,80.292,171.766z M74.919,171.627c-0.016,0-0.033,0-0.05-0.006l-0.049-0.012
		c-0.114-0.029-0.203-0.148-0.175-0.264s0.127-0.189,0.241-0.162l0.083,0.021c0.115,0.027,0.187,0.143,0.159,0.258
		C75.105,171.562,75.017,171.627,74.919,171.627z M81.625,171.432c-0.092,0-0.176-0.059-0.205-0.15
		c-0.033-0.113,0.029-0.234,0.143-0.27l0.079-0.025c0.113-0.035,0.234,0.025,0.271,0.139c0.037,0.113-0.025,0.234-0.139,0.27
		l-0.084,0.029C81.668,171.43,81.646,171.432,81.625,171.432z M73.605,171.223c-0.024,0-0.05-0.004-0.074-0.014l-0.082-0.031
		c-0.112-0.041-0.167-0.166-0.125-0.275c0.042-0.111,0.167-0.166,0.277-0.125l0.078,0.029c0.111,0.041,0.168,0.164,0.128,0.275
		C73.775,171.17,73.694,171.223,73.605,171.223z M82.912,170.947c-0.082,0-0.162-0.049-0.197-0.129
		c-0.047-0.107,0.004-0.236,0.111-0.283l0.074-0.033c0.109-0.051,0.236-0.002,0.286,0.105s0.003,0.234-0.105,0.285l-0.083,0.037
		C82.971,170.941,82.941,170.947,82.912,170.947z M72.349,170.664c-0.033,0-0.069-0.008-0.101-0.023l-0.077-0.043
		c-0.104-0.057-0.143-0.188-0.086-0.291s0.188-0.143,0.291-0.086l0.075,0.039c0.105,0.057,0.144,0.186,0.088,0.291
		C72.5,170.623,72.426,170.664,72.349,170.664z M84.125,170.299c-0.07,0-0.138-0.035-0.179-0.096c-0.065-0.1-0.038-0.232,0.06-0.299
		l0.067-0.045c0.095-0.068,0.23-0.045,0.3,0.053c0.068,0.096,0.045,0.23-0.052,0.299l-0.077,0.051
		C84.208,170.287,84.166,170.299,84.125,170.299z"/>
	<path fill="#FFFFFF" d="M92.334,159.465h-2.713c-0.118,0-0.215-0.094-0.215-0.213s0.097-0.217,0.215-0.217h2.713
		c0.117,0,0.215,0.098,0.215,0.217S92.451,159.465,92.334,159.465z"/>
	<path fill="#FFFFFF" d="M66.226,159.465h-2.714c-0.117,0-0.214-0.094-0.214-0.213s0.097-0.217,0.214-0.217h2.714
		c0.117,0,0.213,0.098,0.213,0.217S66.343,159.465,66.226,159.465z"/>
	<path fill="#FFFFFF" d="M61.812,161.414c-0.119,0-0.215-0.096-0.215-0.215s0.096-0.215,0.215-0.215
		c0.051,0,1.285-0.033,1.285-1.734c0-1.609-1.245-1.729-1.298-1.734c-0.118-0.01-0.206-0.113-0.196-0.23
		c0.009-0.117,0.109-0.205,0.232-0.197c0.016,0.002,1.692,0.162,1.692,2.162C63.526,161.391,61.828,161.414,61.812,161.414z"/>
	<path fill="#FFFFFF" d="M93.829,161.414c-0.005,0-0.011,0-0.017,0c-0.018,0-1.693-0.162-1.693-2.162
		c0-2.141,1.697-2.164,1.715-2.164c0.119,0,0.215,0.096,0.215,0.215s-0.096,0.215-0.215,0.215c-0.051,0-1.285,0.033-1.285,1.734
		c0,1.609,1.245,1.73,1.297,1.734c0.119,0.01,0.207,0.113,0.197,0.23C94.034,161.33,93.939,161.414,93.829,161.414z"/>
	<path fill="#FFFFFF" d="M78.189,185.322c-4.313,0-7.822-3.51-7.822-7.822c0-0.648,0.088-1.312,0.262-1.979l0.312-1.193l0.311,1.193
		c0.824,3.158,3.678,5.363,6.937,5.363c3.26,0,6.114-2.205,6.938-5.363l0.312-1.193l0.312,1.193c0.174,0.666,0.261,1.33,0.261,1.979
		C86.012,181.812,82.504,185.322,78.189,185.322z M71.042,176.869c-0.02,0.211-0.031,0.422-0.031,0.631
		c0,3.957,3.22,7.178,7.178,7.178c3.959,0,7.178-3.221,7.178-7.178c0-0.209-0.01-0.42-0.029-0.631
		c-1.232,2.797-4.019,4.662-7.149,4.662C75.059,181.531,72.274,179.666,71.042,176.869z"/>
	<path fill="#FFFFFF" d="M71.928,194.518c-0.06,0-0.107-0.049-0.107-0.107V181.85c0-0.061,0.048-0.107,0.107-0.107
		s0.108,0.047,0.108,0.107v12.561C72.036,194.469,71.988,194.518,71.928,194.518z"/>
	<path fill="#FFFFFF" d="M84.158,194.518c-0.059,0-0.107-0.049-0.107-0.107V181.85c0-0.061,0.049-0.107,0.107-0.107
		c0.061,0,0.107,0.047,0.107,0.107v12.561C84.266,194.469,84.219,194.518,84.158,194.518z"/>
	<path fill="#FFFFFF" d="M78.037,199.914c-0.119,0-0.215-0.098-0.215-0.215v-0.088c0-0.117,0.096-0.215,0.215-0.215
		c0.118,0,0.214,0.098,0.214,0.215v0.088C78.251,199.816,78.155,199.914,78.037,199.914z M78.037,198.539
		c-0.119,0-0.215-0.098-0.215-0.217v-0.084c0-0.119,0.096-0.215,0.215-0.215c0.118,0,0.214,0.096,0.214,0.215v0.084
		C78.251,198.441,78.155,198.539,78.037,198.539z M78.037,197.162c-0.119,0-0.215-0.096-0.215-0.215v-0.086
		c0-0.117,0.096-0.215,0.215-0.215c0.118,0,0.214,0.098,0.214,0.215v0.086C78.251,197.066,78.155,197.162,78.037,197.162z
		 M78.037,195.787c-0.119,0-0.215-0.096-0.215-0.215v-0.086c0-0.119,0.096-0.215,0.215-0.215c0.118,0,0.214,0.096,0.214,0.215v0.086
		C78.251,195.691,78.155,195.787,78.037,195.787z M78.037,194.412c-0.119,0-0.215-0.096-0.215-0.215v-0.086
		c0-0.119,0.096-0.215,0.215-0.215c0.118,0,0.214,0.096,0.214,0.215v0.086C78.251,194.316,78.155,194.412,78.037,194.412z
		 M78.037,193.037c-0.119,0-0.215-0.096-0.215-0.215v-0.086c0-0.119,0.096-0.215,0.215-0.215c0.118,0,0.214,0.096,0.214,0.215v0.086
		C78.251,192.941,78.155,193.037,78.037,193.037z M78.037,191.662c-0.119,0-0.215-0.096-0.215-0.215v-0.086
		c0-0.119,0.096-0.215,0.215-0.215c0.118,0,0.214,0.096,0.214,0.215v0.086C78.251,191.566,78.155,191.662,78.037,191.662z
		 M78.037,190.287c-0.119,0-0.215-0.098-0.215-0.215v-0.088c0-0.117,0.096-0.213,0.215-0.213c0.118,0,0.214,0.096,0.214,0.213v0.088
		C78.251,190.189,78.155,190.287,78.037,190.287z M78.037,188.91c-0.119,0-0.215-0.096-0.215-0.215v-0.086
		c0-0.117,0.096-0.215,0.215-0.215c0.118,0,0.214,0.098,0.214,0.215v0.086C78.251,188.814,78.155,188.91,78.037,188.91z
		 M78.037,187.537c-0.119,0-0.215-0.098-0.215-0.217v-0.084c0-0.119,0.096-0.217,0.215-0.217c0.118,0,0.214,0.098,0.214,0.217v0.084
		C78.251,187.439,78.155,187.537,78.037,187.537z M78.037,186.16c-0.119,0-0.215-0.096-0.215-0.215v-0.086
		c0-0.117,0.096-0.215,0.215-0.215c0.118,0,0.214,0.098,0.214,0.215v0.086C78.251,186.064,78.155,186.16,78.037,186.16z"/>
	<path fill="#FFFFFF" d="M71.935,199.816l-1.526-3.156l1.524-2.453l1.514,2.416L71.935,199.816z M70.653,196.674l1.28,2.645
		l1.27-2.68l-1.269-2.025L70.653,196.674z"/>
	<path fill="#FFFFFF" d="M72.777,197.895c-0.043,0-0.084-0.025-0.1-0.068l-0.838-2.217c-0.021-0.057,0.006-0.117,0.062-0.139
		c0.056-0.021,0.119,0.006,0.138,0.062l0.838,2.217c0.021,0.057-0.006,0.117-0.062,0.137
		C72.803,197.893,72.789,197.895,72.777,197.895z"/>
	<path fill="#FFFFFF" d="M71.923,199.379L71.923,199.379c-0.06,0-0.108-0.049-0.108-0.107l0.016-4.803
		c0-0.059,0.048-0.107,0.107-0.107h0c0.06,0,0.107,0.049,0.107,0.109l-0.016,4.801C72.03,199.33,71.982,199.379,71.923,199.379z"/>
	<path fill="#FFFFFF" d="M71.143,198.039c-0.011,0-0.023-0.002-0.035-0.006c-0.056-0.02-0.085-0.08-0.067-0.137l0.795-2.361
		c0.02-0.055,0.081-0.086,0.137-0.066c0.056,0.02,0.085,0.08,0.067,0.137l-0.796,2.361C71.23,198.01,71.187,198.039,71.143,198.039z
		"/>
	<path fill="#FFFFFF" d="M73.325,196.738c-0.022,0-0.045-0.008-0.065-0.021l-1.387-1.061c-0.047-0.037-0.056-0.104-0.02-0.15
		c0.036-0.047,0.104-0.057,0.15-0.02l1.387,1.061c0.047,0.035,0.056,0.102,0.02,0.148C73.39,196.725,73.358,196.738,73.325,196.738z
		"/>
	<path fill="#FFFFFF" d="M70.531,196.773c-0.031,0-0.063-0.014-0.084-0.041c-0.037-0.047-0.028-0.113,0.019-0.15l1.406-1.096
		c0.046-0.037,0.116-0.029,0.151,0.02c0.037,0.045,0.028,0.113-0.019,0.15l-1.407,1.096
		C70.578,196.766,70.555,196.773,70.531,196.773z"/>
	<path fill="#FFFFFF" d="M84.165,199.816l-1.526-3.156l1.524-2.453l1.515,2.416L84.165,199.816z M82.884,196.674l1.279,2.645
		l1.27-2.68l-1.269-2.025L82.884,196.674z"/>
	<path fill="#FFFFFF" d="M85.008,197.895c-0.045,0-0.086-0.025-0.102-0.068l-0.838-2.217c-0.021-0.057,0.008-0.117,0.062-0.139
		s0.117,0.006,0.138,0.062l0.839,2.217c0.021,0.057-0.007,0.117-0.062,0.137C85.033,197.893,85.02,197.895,85.008,197.895z"/>
	<path fill="#FFFFFF" d="M84.152,199.379L84.152,199.379c-0.06,0-0.107-0.049-0.107-0.107l0.016-4.803
		c0-0.059,0.049-0.107,0.107-0.107l0,0c0.061,0,0.108,0.049,0.108,0.109l-0.017,4.801C84.26,199.33,84.213,199.379,84.152,199.379z"
		/>
	<path fill="#FFFFFF" d="M83.373,198.039c-0.012,0-0.023-0.002-0.035-0.006c-0.057-0.02-0.086-0.08-0.067-0.137l0.797-2.361
		c0.019-0.055,0.081-0.086,0.136-0.066c0.057,0.02,0.086,0.08,0.067,0.137l-0.796,2.361C83.46,198.01,83.417,198.039,83.373,198.039
		z"/>
	<path fill="#FFFFFF" d="M85.557,196.738c-0.023,0-0.047-0.008-0.066-0.021l-1.387-1.061c-0.047-0.037-0.057-0.104-0.02-0.15
		c0.035-0.047,0.104-0.057,0.149-0.02l1.388,1.061c0.047,0.035,0.055,0.102,0.02,0.148
		C85.619,196.725,85.588,196.738,85.557,196.738z"/>
	<path fill="#FFFFFF" d="M82.762,196.773c-0.031,0-0.063-0.014-0.085-0.041c-0.036-0.047-0.028-0.113,0.019-0.15l1.407-1.096
		c0.046-0.037,0.114-0.029,0.151,0.02c0.035,0.045,0.029,0.113-0.019,0.15l-1.408,1.096
		C82.809,196.766,82.785,196.773,82.762,196.773z"/>
	<polygon fill="#FFFFFF" points="78.341,204.832 78.052,200.836 77.761,204.832 	"/>
	<polygon fill="#FFFFFF" points="77.761,205.893 78.052,209.889 78.341,205.893 	"/>
	<polygon fill="#FFFFFF" points="78.512,205.623 82.508,205.332 78.512,205.043 	"/>
	<polygon fill="#FFFFFF" points="77.576,205.043 73.579,205.332 77.576,205.621 	"/>
	<polygon fill="#FFFFFF" points="77.774,204.795 76.041,203.322 77.542,205.031 	"/>
	<polygon fill="#FFFFFF" points="78.329,205.871 80.061,207.342 78.56,205.635 	"/>
	<polygon fill="#FFFFFF" points="78.577,205.043 80.049,203.309 78.341,204.811 	"/>
	<polygon fill="#FFFFFF" points="77.527,205.621 76.053,207.355 77.761,205.854 	"/>
	<path fill="#FFFFFF" d="M77.306,178.053c-0.011,0-0.022-0.002-0.035-0.004l-0.087-0.014c-0.117-0.021-0.195-0.133-0.173-0.25
		c0.021-0.117,0.135-0.191,0.249-0.174l0.082,0.014c0.117,0.02,0.197,0.131,0.177,0.246
		C77.501,177.979,77.409,178.053,77.306,178.053z M78.588,178.045c-0.103,0-0.194-0.074-0.212-0.18
		c-0.019-0.117,0.061-0.229,0.178-0.248l0.079-0.014c0.115-0.021,0.229,0.053,0.252,0.17c0.022,0.117-0.054,0.229-0.17,0.252
		l-0.092,0.016C78.613,178.045,78.601,178.045,78.588,178.045z M76.011,177.611c-0.036,0-0.071-0.008-0.104-0.025l-0.08-0.045
		c-0.103-0.061-0.137-0.191-0.078-0.293c0.059-0.104,0.19-0.139,0.293-0.08l0.072,0.039c0.104,0.059,0.141,0.189,0.084,0.293
		C76.161,177.57,76.087,177.611,76.011,177.611z M79.879,177.588c-0.075,0-0.148-0.039-0.188-0.109
		c-0.059-0.104-0.021-0.234,0.084-0.293l0.068-0.039c0.102-0.061,0.234-0.027,0.293,0.074c0.062,0.104,0.028,0.234-0.074,0.295
		l-0.078,0.045C79.951,177.58,79.916,177.588,79.879,177.588z M74.942,176.756c-0.06,0-0.119-0.023-0.161-0.07l-0.059-0.068
		c-0.076-0.09-0.067-0.225,0.023-0.303c0.089-0.076,0.226-0.066,0.303,0.021l0.055,0.064c0.078,0.088,0.07,0.225-0.019,0.303
		C75.044,176.738,74.992,176.756,74.942,176.756z M80.938,176.721c-0.051,0-0.1-0.016-0.141-0.051
		c-0.09-0.078-0.1-0.215-0.021-0.303l0.053-0.064c0.075-0.092,0.21-0.104,0.302-0.027s0.104,0.211,0.028,0.303l-0.059,0.068
		C81.057,176.695,80.996,176.721,80.938,176.721z M74.224,175.592c-0.085,0-0.166-0.051-0.199-0.135l-0.033-0.084
		c-0.042-0.111,0.015-0.234,0.126-0.277c0.11-0.043,0.235,0.016,0.276,0.125l0.031,0.078c0.042,0.109-0.011,0.234-0.121,0.277
		C74.278,175.586,74.25,175.592,74.224,175.592z M81.641,175.549c-0.025,0-0.053-0.004-0.078-0.016
		c-0.11-0.043-0.165-0.168-0.122-0.277l0.028-0.076c0.04-0.111,0.162-0.17,0.274-0.131c0.111,0.041,0.171,0.162,0.131,0.275
		l-0.033,0.088C81.809,175.496,81.727,175.549,81.641,175.549z M73.944,174.254c-0.116,0-0.211-0.092-0.215-0.209l-0.001-0.09
		c-0.002-0.117,0.093-0.217,0.212-0.217c0.001,0,0.002,0,0.003,0c0.117,0,0.213,0.094,0.215,0.211l0.002,0.084
		c0.003,0.117-0.089,0.217-0.208,0.221C73.95,174.254,73.947,174.254,73.944,174.254z M81.904,174.205c0,0-0.002,0-0.004,0
		c-0.118-0.002-0.213-0.1-0.211-0.219l0.001-0.082c0-0.031,0.007-0.061,0.019-0.086c-0.014-0.027-0.021-0.057-0.022-0.088
		l-0.005-0.08c-0.009-0.119,0.08-0.221,0.199-0.23c0.117-0.006,0.221,0.082,0.23,0.199l0.006,0.092c0,0.035-0.006,0.068-0.02,0.098
		c0.016,0.029,0.022,0.061,0.022,0.096l-0.001,0.088C82.117,174.111,82.021,174.205,81.904,174.205z M74.134,172.898
		c-0.022,0-0.044-0.004-0.067-0.01c-0.113-0.037-0.175-0.158-0.138-0.271l0.028-0.084c0.038-0.111,0.161-0.172,0.273-0.135
		s0.172,0.16,0.134,0.271l-0.026,0.08C74.308,172.84,74.224,172.898,74.134,172.898z M81.605,172.6
		c-0.084,0-0.165-0.049-0.199-0.133l-0.032-0.076c-0.047-0.107,0.003-0.234,0.112-0.281c0.107-0.047,0.235,0.002,0.281,0.111
		l0.036,0.084c0.046,0.109-0.007,0.232-0.116,0.279C81.66,172.594,81.633,172.6,81.605,172.6z M74.772,171.688
		c-0.046,0-0.093-0.014-0.132-0.045c-0.095-0.072-0.112-0.209-0.038-0.303l0.055-0.07c0.076-0.092,0.211-0.107,0.303-0.031
		c0.092,0.074,0.105,0.211,0.031,0.303l-0.051,0.062C74.898,171.658,74.834,171.688,74.772,171.688z M80.874,171.445
		c-0.06,0-0.117-0.023-0.159-0.07l-0.057-0.061c-0.08-0.088-0.076-0.223,0.01-0.305c0.086-0.08,0.223-0.076,0.305,0.01l0.061,0.066
		c0.08,0.09,0.072,0.225-0.016,0.305C80.977,171.428,80.925,171.445,80.874,171.445z M75.78,170.764
		c-0.069,0-0.138-0.035-0.179-0.098c-0.065-0.1-0.037-0.234,0.062-0.297l0.078-0.051c0.102-0.059,0.234-0.029,0.296,0.074
		c0.061,0.102,0.028,0.234-0.073,0.295l-0.067,0.041C75.861,170.752,75.821,170.764,75.78,170.764z M79.795,170.604
		c-0.035,0-0.07-0.008-0.102-0.025l-0.073-0.037c-0.105-0.055-0.147-0.184-0.095-0.289c0.055-0.105,0.186-0.148,0.289-0.096
		l0.08,0.041c0.105,0.059,0.145,0.188,0.09,0.293C79.945,170.562,79.871,170.604,79.795,170.604z M77.042,170.234
		c-0.099,0-0.187-0.066-0.209-0.166c-0.027-0.115,0.046-0.23,0.162-0.258l0.086-0.018c0.119-0.027,0.231,0.049,0.255,0.166
		c0.024,0.115-0.05,0.229-0.166,0.254l-0.082,0.018C77.073,170.232,77.059,170.234,77.042,170.234z M78.494,170.178
		c-0.01,0-0.021,0-0.033-0.002l-0.078-0.01c-0.117-0.016-0.201-0.121-0.188-0.24c0.014-0.115,0.117-0.207,0.238-0.188l0.092,0.014
		c0.118,0.016,0.197,0.125,0.181,0.244C78.69,170.102,78.599,170.178,78.494,170.178z"/>
	<path fill="#FFFFFF" d="M78.044,114.589c-0.119,0-0.215-0.096-0.215-0.214v-5.74c0-0.119,0.096-0.215,0.215-0.215
		s0.214,0.096,0.214,0.215v5.74C78.258,114.494,78.163,114.589,78.044,114.589z"/>
	<circle fill="#FFFFFF" cx="78.043" cy="107.452" r="0.323"/>
	<path fill="#FFFFFF" d="M80.963,114.519c-0.012,0-0.021,0-0.033-0.003c-0.117-0.019-0.197-0.127-0.18-0.245l0.688-4.483
		c0.018-0.117,0.125-0.197,0.244-0.179c0.118,0.017,0.197,0.127,0.18,0.244l-0.688,4.483
		C81.158,114.442,81.066,114.519,80.963,114.519z"/>
	<circle fill="#FFFFFF" cx="81.829" cy="108.651" r="0.322"/>
	<path fill="#FFFFFF" d="M74.893,114.542c-0.105,0-0.197-0.078-0.213-0.186l-0.628-4.492c-0.016-0.118,0.066-0.227,0.183-0.242
		c0.116-0.017,0.227,0.064,0.243,0.184l0.627,4.491c0.017,0.118-0.065,0.227-0.183,0.242
		C74.914,114.542,74.903,114.542,74.893,114.542z"/>
	<circle fill="#FFFFFF" cx="74.102" cy="108.664" r="0.323"/>
	<path fill="#FFFFFF" d="M69.285,116.628c-0.082,0-0.16-0.047-0.195-0.126l-1.89-4.124c-0.051-0.107-0.002-0.235,0.105-0.284
		c0.106-0.049,0.235-0.002,0.284,0.105l1.89,4.123c0.05,0.109,0.001,0.236-0.105,0.286
		C69.346,116.622,69.315,116.628,69.285,116.628z"/>
	<circle fill="#FFFFFF" cx="66.902" cy="111.214" r="0.322"/>
	<path fill="#FFFFFF" d="M64.579,120.266c-0.061,0-0.119-0.025-0.162-0.074l-2.993-3.408c-0.078-0.089-0.069-0.225,0.02-0.303
		c0.089-0.078,0.224-0.068,0.303,0.02l2.994,3.408c0.077,0.089,0.069,0.225-0.02,0.303C64.68,120.248,64.628,120.266,64.579,120.266
		z"/>
	<circle fill="#FFFFFF" cx="60.804" cy="115.754" r="0.323"/>
	<path fill="#FFFFFF" d="M60.482,124.646c-0.039,0-0.08-0.01-0.114-0.033l-3.847-2.404c-0.101-0.062-0.13-0.195-0.068-0.297
		c0.063-0.1,0.197-0.131,0.297-0.068l3.845,2.406c0.102,0.062,0.131,0.195,0.068,0.297
		C60.624,124.611,60.553,124.646,60.482,124.646z"/>
	<circle fill="#FFFFFF" cx="55.634" cy="121.398" r="0.323"/>
	<path fill="#FFFFFF" d="M86.552,116.538c-0.032,0-0.062-0.007-0.092-0.021c-0.108-0.051-0.153-0.179-0.103-0.287l1.932-4.104
		c0.049-0.106,0.178-0.152,0.286-0.103c0.106,0.051,0.152,0.178,0.103,0.286l-1.932,4.104
		C86.709,116.492,86.631,116.538,86.552,116.538z"/>
	<circle fill="#FFFFFF" cx="88.987" cy="111.148" r="0.322"/>
	<path fill="#FFFFFF" d="M91.277,120.017c-0.051,0-0.102-0.019-0.143-0.055c-0.09-0.079-0.097-0.214-0.018-0.304l3.016-3.387
		c0.08-0.089,0.215-0.098,0.305-0.018c0.089,0.079,0.097,0.215,0.017,0.303l-3.017,3.389
		C91.396,119.993,91.336,120.017,91.277,120.017z"/>
	<circle fill="#FFFFFF" cx="95.081" cy="115.532" r="0.323"/>
	<path fill="#FFFFFF" d="M95.268,124.369c-0.071,0-0.141-0.037-0.182-0.102c-0.062-0.102-0.032-0.234,0.068-0.297l3.855-2.393
		c0.1-0.061,0.232-0.029,0.295,0.07s0.031,0.232-0.068,0.295l-3.855,2.393C95.346,124.359,95.307,124.369,95.268,124.369z"/>
	<circle fill="#FFFFFF" cx="100.127" cy="121.138" r="0.322"/>
	<path fill="#FFFFFF" d="M71.905,115.467c-0.092,0-0.178-0.059-0.206-0.151l-1.705-5.481c-0.035-0.112,0.028-0.232,0.142-0.269
		c0.114-0.035,0.234,0.028,0.27,0.142l1.704,5.48c0.034,0.113-0.028,0.234-0.143,0.27C71.947,115.463,71.925,115.467,71.905,115.467
		z"/>
	<circle fill="#FFFFFF" cx="69.849" cy="108.642" r="0.322"/>
	<path fill="#FFFFFF" d="M66.456,118.45c-0.068,0-0.135-0.031-0.178-0.093l-3.254-4.728c-0.067-0.098-0.043-0.231,0.056-0.299
		c0.096-0.066,0.231-0.045,0.299,0.055l3.253,4.729c0.067,0.098,0.043,0.231-0.055,0.299C66.54,118.438,66.498,118.45,66.456,118.45
		z"/>
	<circle fill="#FFFFFF" cx="62.53" cy="112.532" r="0.323"/>
	<path fill="#FFFFFF" d="M62.065,122.654c-0.047,0-0.094-0.016-0.134-0.047l-4.51-3.549c-0.094-0.074-0.11-0.208-0.036-0.301
		c0.074-0.094,0.208-0.11,0.303-0.036l4.51,3.55c0.093,0.072,0.109,0.207,0.036,0.301C62.19,122.625,62.127,122.654,62.065,122.654z
		"/>
	<circle fill="#FFFFFF" cx="56.623" cy="118.159" r="0.322"/>
	<path fill="#FFFFFF" d="M59.35,127.1c-0.026,0-0.052-0.004-0.077-0.014l-5.36-2.051c-0.111-0.043-0.167-0.168-0.125-0.277
		c0.043-0.111,0.167-0.166,0.277-0.125l5.361,2.051c0.111,0.043,0.167,0.168,0.124,0.277C59.518,127.049,59.436,127.1,59.35,127.1z"
		/>
	<circle fill="#FFFFFF" cx="52.884" cy="124.412" r="0.322"/>
	<path fill="#FFFFFF" d="M83.881,115.498c-0.02,0-0.042-0.003-0.062-0.009c-0.114-0.034-0.179-0.153-0.144-0.269l1.646-5.498
		c0.034-0.113,0.152-0.178,0.268-0.144c0.113,0.034,0.178,0.154,0.143,0.268l-1.646,5.498
		C84.059,115.438,83.974,115.498,83.881,115.498z"/>
	<circle fill="#FFFFFF" cx="85.867" cy="108.65" r="0.322"/>
	<path fill="#FFFFFF" d="M89.213,118.365c-0.042,0-0.083-0.012-0.119-0.035c-0.099-0.065-0.126-0.198-0.061-0.298l3.154-4.795
		c0.066-0.099,0.199-0.127,0.297-0.062c0.1,0.065,0.127,0.198,0.062,0.298l-3.154,4.795C89.35,118.33,89.281,118.365,89.213,118.365
		z"/>
	<circle fill="#FFFFFF" cx="93.018" cy="112.367" r="0.322"/>
	<path fill="#FFFFFF" d="M93.34,122.168c-0.061,0-0.123-0.025-0.164-0.076c-0.076-0.092-0.064-0.227,0.025-0.305l4.4-3.686
		c0.09-0.076,0.225-0.065,0.301,0.026c0.076,0.091,0.066,0.227-0.025,0.303l-4.398,3.687
		C93.438,122.152,93.389,122.168,93.34,122.168z"/>
	<circle fill="#FFFFFF" cx="98.646" cy="117.505" r="0.322"/>
	<path fill="#FFFFFF" d="M96.645,127.066c-0.084,0-0.164-0.049-0.197-0.131c-0.048-0.107,0.002-0.234,0.111-0.281l5.271-2.271
		c0.108-0.047,0.235,0.004,0.282,0.113s-0.002,0.234-0.111,0.281l-5.271,2.271C96.701,127.061,96.672,127.066,96.645,127.066z"/>
	<circle fill="#FFFFFF" cx="103.002" cy="124.113" r="0.321"/>
	<path fill="#FFFFFF" d="M78.048,141.242c-0.119,0-0.215-0.096-0.215-0.213v-1.834c0-0.119,0.097-0.215,0.215-0.215
		c0.118,0,0.214,0.096,0.214,0.215v1.834C78.263,141.146,78.167,141.242,78.048,141.242z"/>
	<path fill="#FFFFFF" d="M76.375,141.182c-0.007,0-0.013,0-0.019,0c-0.118-0.01-0.206-0.113-0.195-0.232l0.152-1.828
		c0.01-0.117,0.119-0.201,0.232-0.195c0.119,0.01,0.206,0.113,0.196,0.232l-0.153,1.828
		C76.578,141.098,76.485,141.182,76.375,141.182z"/>
	<path fill="#FFFFFF" d="M74.711,140.982c-0.012,0-0.023,0-0.036-0.002c-0.117-0.02-0.197-0.133-0.176-0.248l0.305-1.809
		c0.02-0.117,0.134-0.195,0.248-0.176c0.117,0.02,0.195,0.131,0.176,0.248l-0.305,1.809
		C74.905,140.908,74.814,140.982,74.711,140.982z"/>
	<path fill="#FFFFFF" d="M73.069,140.645c-0.018,0-0.035-0.002-0.053-0.008c-0.115-0.029-0.183-0.146-0.154-0.262l0.455-1.775
		c0.03-0.113,0.146-0.184,0.262-0.154s0.185,0.146,0.155,0.262l-0.456,1.775C73.254,140.58,73.166,140.645,73.069,140.645z"/>
	<path fill="#FFFFFF" d="M71.463,140.17c-0.024,0-0.047-0.004-0.071-0.012c-0.112-0.039-0.171-0.162-0.132-0.273l0.602-1.732
		c0.04-0.111,0.161-0.172,0.274-0.133c0.111,0.039,0.171,0.162,0.132,0.273l-0.602,1.732
		C71.635,140.115,71.551,140.17,71.463,140.17z"/>
	<path fill="#FFFFFF" d="M69.901,139.562c-0.029,0-0.059-0.004-0.087-0.018c-0.108-0.049-0.157-0.176-0.109-0.283l0.744-1.676
		c0.049-0.111,0.175-0.158,0.284-0.111c0.108,0.049,0.157,0.176,0.109,0.285l-0.745,1.676
		C70.062,139.516,69.984,139.562,69.901,139.562z"/>
	<path fill="#FFFFFF" d="M68.396,138.828c-0.035,0-0.07-0.008-0.103-0.027c-0.104-0.057-0.143-0.186-0.086-0.291l0.883-1.607
		c0.057-0.105,0.188-0.143,0.292-0.086c0.104,0.057,0.142,0.188,0.085,0.291l-0.882,1.609
		C68.544,138.787,68.471,138.828,68.396,138.828z"/>
	<path fill="#FFFFFF" d="M66.957,137.969c-0.042,0-0.083-0.012-0.119-0.035c-0.1-0.066-0.125-0.199-0.06-0.299l1.014-1.527
		c0.066-0.1,0.199-0.125,0.298-0.061c0.099,0.066,0.126,0.199,0.06,0.299l-1.013,1.527
		C67.094,137.936,67.026,137.969,66.957,137.969z"/>
	<path fill="#FFFFFF" d="M65.594,136.994c-0.046,0-0.093-0.016-0.133-0.047c-0.093-0.074-0.108-0.209-0.035-0.301l1.138-1.439
		c0.074-0.094,0.209-0.107,0.302-0.037c0.093,0.076,0.109,0.211,0.035,0.303l-1.138,1.439
		C65.721,136.967,65.658,136.994,65.594,136.994z"/>
	<path fill="#FFFFFF" d="M64.319,135.98c-0.052,0-0.105-0.02-0.147-0.057c-0.086-0.082-0.09-0.219-0.009-0.305l1.253-1.338
		c0.082-0.088,0.219-0.09,0.304-0.012c0.087,0.082,0.091,0.219,0.01,0.305l-1.254,1.338C64.433,135.957,64.375,135.98,64.319,135.98
		z"/>
	<path fill="#FFFFFF" d="M63.031,134.791c-0.059,0-0.118-0.023-0.16-0.072c-0.08-0.086-0.073-0.223,0.015-0.303l1.363-1.229
		c0.087-0.08,0.224-0.072,0.303,0.018c0.081,0.086,0.073,0.223-0.016,0.303l-1.361,1.229
		C63.134,134.773,63.082,134.791,63.031,134.791z"/>
	<path fill="#FFFFFF" d="M61.793,133.662c-0.064,0-0.128-0.029-0.171-0.084c-0.071-0.096-0.053-0.23,0.042-0.303l1.458-1.109
		c0.095-0.072,0.23-0.053,0.302,0.041c0.071,0.094,0.053,0.23-0.041,0.301l-1.459,1.111
		C61.884,133.648,61.838,133.662,61.793,133.662z"/>
	<path fill="#FFFFFF" d="M60.694,132.324c-0.07,0-0.14-0.035-0.181-0.098c-0.064-0.102-0.034-0.234,0.066-0.299l1.546-0.984
		c0.101-0.062,0.233-0.033,0.298,0.066c0.063,0.102,0.033,0.232-0.066,0.297l-1.547,0.984
		C60.773,132.314,60.734,132.324,60.694,132.324z"/>
	<path fill="#FFFFFF" d="M59.601,130.955c-0.078,0-0.154-0.041-0.191-0.115c-0.056-0.105-0.015-0.234,0.091-0.291l1.624-0.85
		c0.104-0.057,0.235-0.016,0.29,0.09c0.056,0.105,0.015,0.234-0.09,0.289L59.7,130.93C59.669,130.947,59.634,130.955,59.601,130.955
		z"/>
	<path fill="#FFFFFF" d="M58.491,129.545c-0.083,0-0.163-0.049-0.197-0.131c-0.046-0.109,0.005-0.234,0.114-0.281l1.69-0.713
		c0.108-0.047,0.235,0.004,0.282,0.113c0.046,0.109-0.006,0.236-0.115,0.283l-1.689,0.713
		C58.548,129.541,58.52,129.545,58.491,129.545z"/>
	<path fill="#FFFFFF" d="M57.688,127.998c-0.091,0-0.175-0.057-0.205-0.148c-0.037-0.113,0.024-0.234,0.137-0.271l1.745-0.568
		c0.111-0.037,0.232,0.025,0.27,0.137c0.037,0.113-0.024,0.234-0.137,0.271l-1.744,0.57
		C57.732,127.994,57.71,127.998,57.688,127.998z"/>
	<path fill="#FFFFFF" d="M79.839,141.152c-0.11,0-0.203-0.084-0.214-0.195l-0.164-1.826c-0.01-0.119,0.077-0.223,0.195-0.234
		c0.117-0.008,0.223,0.078,0.233,0.195l0.163,1.826c0.011,0.119-0.076,0.225-0.193,0.234
		C79.853,141.152,79.846,141.152,79.839,141.152z"/>
	<path fill="#FFFFFF" d="M81.615,140.902c-0.102,0-0.191-0.072-0.21-0.176l-0.327-1.805c-0.021-0.117,0.057-0.229,0.172-0.25
		c0.113-0.02,0.229,0.055,0.25,0.174l0.328,1.805c0.021,0.117-0.057,0.227-0.174,0.25C81.641,140.902,81.628,140.902,81.615,140.902
		z"/>
	<path fill="#FFFFFF" d="M83.362,140.496c-0.095,0-0.181-0.064-0.208-0.158l-0.486-1.77c-0.031-0.113,0.035-0.232,0.15-0.264
		c0.113-0.029,0.232,0.037,0.264,0.15l0.488,1.768c0.031,0.115-0.035,0.232-0.151,0.266C83.4,140.492,83.381,140.496,83.362,140.496
		z"/>
	<path fill="#FFFFFF" d="M85.065,139.932c-0.087,0-0.169-0.053-0.2-0.139l-0.644-1.717c-0.042-0.111,0.015-0.236,0.124-0.277
		c0.114-0.043,0.236,0.016,0.277,0.125l0.645,1.719c0.041,0.111-0.016,0.234-0.127,0.275
		C85.116,139.928,85.092,139.932,85.065,139.932z"/>
	<path fill="#FFFFFF" d="M86.713,139.221c-0.082,0-0.158-0.045-0.194-0.121l-0.796-1.654c-0.051-0.105-0.006-0.236,0.102-0.287
		s0.235-0.006,0.287,0.102l0.793,1.652c0.053,0.107,0.008,0.236-0.1,0.287C86.775,139.213,86.743,139.221,86.713,139.221z"/>
	<path fill="#FFFFFF" d="M88.287,138.363c-0.073,0-0.144-0.037-0.185-0.105l-0.938-1.574c-0.061-0.102-0.027-0.234,0.074-0.295
		s0.234-0.027,0.295,0.074l0.939,1.576c0.061,0.102,0.027,0.232-0.075,0.293C88.363,138.354,88.324,138.363,88.287,138.363z"/>
	<path fill="#FFFFFF" d="M89.779,137.369c-0.065,0-0.131-0.029-0.174-0.088l-1.075-1.486c-0.07-0.096-0.048-0.23,0.048-0.301
		c0.095-0.066,0.23-0.049,0.3,0.049l1.076,1.486c0.069,0.096,0.048,0.229-0.048,0.299C89.868,137.355,89.824,137.369,89.779,137.369
		z"/>
	<path fill="#FFFFFF" d="M91.266,136.326c-0.061,0-0.12-0.023-0.162-0.072l-1.205-1.385c-0.078-0.088-0.068-0.225,0.021-0.303
		s0.225-0.068,0.303,0.021l1.205,1.383c0.078,0.09,0.068,0.225-0.021,0.303C91.365,136.311,91.315,136.326,91.266,136.326z"/>
	<path fill="#FFFFFF" d="M92.589,135.115c-0.054,0-0.106-0.02-0.148-0.061l-1.324-1.268c-0.085-0.082-0.089-0.221-0.007-0.305
		c0.082-0.086,0.22-0.088,0.305-0.006l1.323,1.27c0.085,0.082,0.089,0.217,0.007,0.303
		C92.702,135.094,92.646,135.115,92.589,135.115z"/>
	<path fill="#FFFFFF" d="M93.902,133.826c-0.049,0-0.096-0.016-0.135-0.047l-1.432-1.146c-0.093-0.074-0.107-0.209-0.034-0.303
		c0.074-0.094,0.211-0.105,0.303-0.033l1.433,1.146c0.092,0.074,0.106,0.209,0.032,0.303
		C94.026,133.799,93.965,133.826,93.902,133.826z"/>
	<path fill="#FFFFFF" d="M95.174,132.51c-0.041,0-0.082-0.012-0.119-0.035l-1.528-1.014c-0.099-0.066-0.126-0.199-0.06-0.299
		c0.065-0.1,0.199-0.125,0.297-0.061l1.529,1.014c0.099,0.066,0.125,0.199,0.061,0.299C95.312,132.477,95.242,132.51,95.174,132.51z
		"/>
	<path fill="#FFFFFF" d="M96.308,131.012c-0.035,0-0.07-0.01-0.103-0.027l-1.613-0.871c-0.104-0.057-0.143-0.188-0.086-0.291
		c0.057-0.105,0.188-0.145,0.291-0.088l1.613,0.871c0.104,0.057,0.143,0.188,0.086,0.293
		C96.459,130.971,96.384,131.012,96.308,131.012z"/>
	<path fill="#FFFFFF" d="M97.381,129.492c-0.029,0-0.058-0.006-0.086-0.018l-1.684-0.725c-0.109-0.047-0.158-0.174-0.111-0.283
		c0.046-0.109,0.173-0.16,0.281-0.111l1.684,0.725c0.109,0.047,0.159,0.174,0.113,0.283
		C97.543,129.443,97.464,129.492,97.381,129.492z"/>
	<path fill="#FFFFFF" d="M98.456,127.838c-0.022,0-0.046-0.006-0.067-0.012l-1.742-0.572c-0.112-0.035-0.174-0.158-0.137-0.27
		c0.036-0.113,0.158-0.176,0.271-0.139l1.743,0.572c0.111,0.037,0.174,0.158,0.137,0.271
		C98.631,127.779,98.546,127.838,98.456,127.838z"/>
</g>
<g>
</g>
<g>
</g>
<g>
</g>
<g>
</g>
<g>
</g>
<g>
</g>
</svg>
