<?xml version="1.0" encoding="utf-8"?>
<!-- Generator: Adobe Illustrator 16.0.0, SVG Export Plug-In . SVG Version: 6.00 Build 0)  -->
<!DOCTYPE svg PUBLIC "-//W3C//DTD SVG 1.1//EN" "http://www.w3.org/Graphics/SVG/1.1/DTD/svg11.dtd">
<svg version="1.1" id="Calque_1" xmlns="http://www.w3.org/2000/svg" xmlns:xlink="http://www.w3.org/1999/xlink" x="0px" y="0px"
	 width="240.94px" height="155.91px" viewBox="0 0 240.94 155.91" enable-background="new 0 0 240.94 155.91" xml:space="preserve">
<rect x="0.349" y="0" fill="#FFFFFF" width="240.939" height="155.911"/>
<g>
	<g>
		<path fill="#16233B" d="M31.231,65.167l-1.542-0.577v-0.289h3.666v0.289l-1.544,0.577v12.927h-0.58l-8.97-10.514v9.356
			l1.544,0.578v0.289H20.14v-0.289l1.542-0.578V64.975l-1.35-0.385v-0.289h2.026c0.385,0,0.72,0.042,1.003,0.125
			c0.282,0.085,0.528,0.192,0.743,0.327c0.212,0.136,0.395,0.285,0.548,0.443c0.156,0.162,0.29,0.312,0.407,0.455l6.171,7.232
			V65.167z"/>
		<path fill="#16233B" d="M39.718,67.871c0.798,0,1.511,0.114,2.143,0.347c0.629,0.23,1.167,0.57,1.61,1.014s0.781,0.98,1.012,1.61
			c0.231,0.629,0.348,1.344,0.348,2.141c0,0.798-0.117,1.511-0.348,2.14c-0.231,0.632-0.568,1.168-1.012,1.612
			c-0.444,0.441-0.981,0.781-1.61,1.012c-0.632,0.233-1.345,0.349-2.143,0.349c-0.797,0-1.509-0.115-2.141-0.349
			c-0.628-0.23-1.168-0.57-1.612-1.012c-0.443-0.444-0.779-0.98-1.012-1.612c-0.231-0.629-0.347-1.342-0.347-2.14
			c0-0.797,0.116-1.512,0.347-2.141c0.233-0.63,0.569-1.167,1.012-1.61c0.444-0.443,0.983-0.783,1.612-1.014
			C38.209,67.985,38.921,67.871,39.718,67.871z M39.718,77.708c0.22,0,0.439-0.071,0.658-0.213c0.216-0.14,0.413-0.387,0.587-0.741
			c0.176-0.354,0.316-0.837,0.426-1.446c0.107-0.612,0.165-1.386,0.165-2.325c0-0.938-0.057-1.712-0.165-2.325
			c-0.11-0.609-0.25-1.093-0.426-1.445c-0.174-0.354-0.371-0.603-0.587-0.743c-0.219-0.142-0.438-0.213-0.658-0.213
			c-0.217,0-0.436,0.071-0.655,0.213c-0.221,0.141-0.415,0.389-0.587,0.743c-0.176,0.353-0.316,0.836-0.425,1.445
			c-0.111,0.613-0.163,1.387-0.163,2.325c0,0.939,0.052,1.713,0.163,2.325c0.109,0.609,0.25,1.092,0.425,1.446
			c0.173,0.354,0.367,0.602,0.587,0.741C39.282,77.636,39.501,77.708,39.718,77.708z"/>
		<path fill="#16233B" d="M59.3,71.052c0-0.462-0.039-0.851-0.116-1.166c-0.079-0.314-0.177-0.572-0.3-0.773
			c-0.122-0.199-0.256-0.344-0.404-0.434c-0.149-0.089-0.293-0.136-0.435-0.136c-0.245,0-0.461,0.08-0.647,0.244
			c-0.187,0.16-0.35,0.336-0.49,0.528c-0.156,0.232-0.29,0.488-0.407,0.771v7.14l1.159,0.288v0.289h-5.401v-0.289l1.156-0.288
			v-6.175c0-0.462-0.037-0.851-0.114-1.166c-0.079-0.314-0.179-0.572-0.3-0.773c-0.122-0.199-0.256-0.344-0.404-0.434
			c-0.149-0.089-0.294-0.136-0.435-0.136c-0.245,0-0.459,0.08-0.647,0.244c-0.187,0.16-0.35,0.336-0.492,0.528
			c-0.154,0.232-0.29,0.488-0.405,0.771v7.14l1.157,0.288v0.289h-5.401v-0.289l1.157-0.288v-8.49l-1.157-0.289v-0.289h1.737
			c0.45,0,0.82,0.077,1.109,0.231c0.29,0.153,0.516,0.321,0.684,0.502c0.193,0.219,0.334,0.456,0.425,0.715
			c0.167-0.322,0.372-0.611,0.615-0.87c0.22-0.218,0.489-0.418,0.812-0.599c0.322-0.18,0.714-0.268,1.176-0.268
			c0.772,0,1.438,0.169,1.999,0.512c0.558,0.339,0.985,0.781,1.282,1.32c0.167-0.335,0.373-0.637,0.616-0.908
			c0.219-0.229,0.49-0.443,0.811-0.636c0.322-0.191,0.713-0.288,1.176-0.288c0.527,0,1.011,0.083,1.448,0.251
			c0.436,0.166,0.812,0.393,1.128,0.683s0.561,0.627,0.732,1.014c0.174,0.386,0.264,0.797,0.264,1.234v6.175l1.155,0.288v0.289
			h-2.507c-1.157,0-1.736-0.577-1.736-1.738V71.052z"/>
		<path fill="#16233B" d="M69.233,67.871c0.772,0,1.458,0.102,2.056,0.308c0.598,0.207,1.102,0.49,1.514,0.858
			c0.411,0.365,0.724,0.805,0.937,1.312c0.213,0.509,0.317,1.064,0.317,1.67v5.209l1.159,0.288v0.289h-1.737
			c-0.464,0-0.838-0.073-1.12-0.222c-0.283-0.147-0.507-0.312-0.675-0.491c-0.192-0.221-0.334-0.463-0.424-0.735
			c-0.166,0.336-0.379,0.624-0.637,0.871c-0.22,0.219-0.51,0.417-0.868,0.598c-0.359,0.18-0.792,0.27-1.293,0.27
			c-0.604,0-1.128-0.068-1.572-0.202c-0.443-0.136-0.813-0.322-1.109-0.561c-0.296-0.237-0.516-0.514-0.665-0.829
			c-0.148-0.315-0.223-0.653-0.223-1.013c0-0.296,0.031-0.569,0.098-0.819c0.064-0.251,0.14-0.474,0.232-0.666
			c0.102-0.232,0.218-0.443,0.347-0.636c0.539-0.128,1.112-0.247,1.717-0.349c0.513-0.091,1.093-0.177,1.736-0.261
			c0.643-0.083,1.291-0.139,1.948-0.164v-0.577c0-0.747-0.048-1.365-0.144-1.854c-0.098-0.488-0.236-0.875-0.416-1.155
			c-0.179-0.284-0.402-0.48-0.666-0.589c-0.264-0.111-0.562-0.165-0.896-0.165c-0.142,0-0.271,0.01-0.387,0.028
			c-0.116,0.02-0.218,0.043-0.309,0.067c-0.104,0.039-0.192,0.072-0.27,0.097v2.895c-0.091,0.026-0.174,0.044-0.251,0.057
			c-0.077,0.014-0.157,0.024-0.242,0.029c-0.083,0.008-0.177,0.011-0.278,0.011c-0.438,0-0.788-0.133-1.053-0.396
			c-0.264-0.264-0.395-0.615-0.395-1.052c0-0.271,0.069-0.531,0.203-0.78c0.134-0.253,0.347-0.477,0.637-0.676
			c0.288-0.2,0.658-0.36,1.107-0.483C68.062,67.93,68.604,67.871,69.233,67.871z M68.462,73.271
			c-0.075,0.167-0.141,0.36-0.192,0.578c-0.051,0.18-0.098,0.393-0.135,0.638c-0.038,0.243-0.06,0.514-0.06,0.811
			c0,0.769,0.12,1.317,0.357,1.64c0.238,0.32,0.504,0.482,0.801,0.482c0.296,0,0.551-0.08,0.762-0.244
			c0.212-0.158,0.392-0.335,0.531-0.528c0.168-0.23,0.316-0.488,0.444-0.771v-2.797c-0.296,0-0.592,0.009-0.888,0.027
			c-0.295,0.021-0.567,0.042-0.81,0.068C68.988,73.214,68.721,73.245,68.462,73.271z"/>
		<path fill="#16233B" d="M84.185,64.301c1.156,0,1.735,0.577,1.735,1.737v11.188l1.157,0.288v0.289h-1.736
			c-0.463,0-0.835-0.073-1.119-0.222c-0.282-0.147-0.507-0.312-0.675-0.491c-0.192-0.221-0.334-0.463-0.424-0.735
			c-0.166,0.336-0.379,0.624-0.635,0.871c-0.222,0.219-0.51,0.417-0.87,0.598c-0.359,0.18-0.791,0.27-1.292,0.27
			c-0.553,0-1.07-0.109-1.553-0.328c-0.484-0.219-0.901-0.539-1.253-0.967c-0.355-0.422-0.635-0.953-0.841-1.588
			c-0.207-0.639-0.309-1.381-0.309-2.229c0-0.85,0.102-1.592,0.309-2.229c0.206-0.637,0.496-1.166,0.868-1.59
			c0.373-0.427,0.82-0.748,1.34-0.965c0.522-0.219,1.099-0.328,1.729-0.328c0.334,0,0.64,0.037,0.917,0.114
			c0.275,0.078,0.51,0.168,0.704,0.271c0.229,0.116,0.43,0.244,0.598,0.387v-3.764l-1.158-0.288v-0.289H84.185z M82.835,69.22
			c-0.142-0.142-0.29-0.271-0.445-0.387c-0.14-0.102-0.294-0.191-0.464-0.269c-0.166-0.078-0.347-0.117-0.539-0.117
			c-0.245,0-0.472,0.062-0.685,0.186c-0.211,0.12-0.396,0.347-0.552,0.673c-0.152,0.328-0.275,0.788-0.365,1.381
			c-0.089,0.59-0.135,1.356-0.135,2.295c0,0.913,0.046,1.659,0.135,2.237c0.09,0.579,0.202,1.033,0.338,1.358
			c0.136,0.33,0.29,0.552,0.462,0.666c0.175,0.117,0.344,0.176,0.512,0.176c0.296,0,0.551-0.08,0.763-0.244
			c0.211-0.158,0.391-0.335,0.53-0.528c0.167-0.23,0.314-0.488,0.445-0.771V69.22z"/>
		<path fill="#16233B" d="M93.539,78.094c-1.646,0-2.926-0.455-3.84-1.36c-0.912-0.906-1.366-2.157-1.366-3.752
			c0-0.797,0.114-1.512,0.345-2.141c0.231-0.63,0.554-1.167,0.965-1.61c0.413-0.443,0.911-0.783,1.496-1.014
			c0.584-0.232,1.224-0.347,1.919-0.347c0.721,0,1.366,0.102,1.939,0.308c0.572,0.207,1.058,0.482,1.456,0.831
			c0.399,0.347,0.704,0.753,0.917,1.224c0.211,0.47,0.317,0.969,0.317,1.496c0,0.18-0.009,0.336-0.027,0.472
			c-0.021,0.135-0.045,0.254-0.068,0.357c-0.04,0.129-0.07,0.238-0.097,0.326c-0.567,0.117-1.163,0.213-1.795,0.29
			c-0.541,0.078-1.162,0.145-1.869,0.203c-0.709,0.059-1.448,0.086-2.221,0.086c0,0.797,0.059,1.463,0.173,1.997
			c0.117,0.533,0.277,0.959,0.483,1.273c0.207,0.314,0.452,0.539,0.733,0.675c0.282,0.136,0.592,0.203,0.927,0.203
			c0.383,0,0.748-0.071,1.089-0.213c0.342-0.142,0.637-0.331,0.888-0.57c0.25-0.237,0.302-0.203,0.451-0.507
			c0.146-0.302,0.763-0.459,0.591-0.1c-0.173,0.362-0.421,0.68-0.743,0.953c-0.322,0.278-0.707,0.5-1.159,0.668
			C94.594,78.009,94.093,78.094,93.539,78.094z M91.61,72.982c0.437,0,0.823-0.01,1.157-0.029c0.334-0.019,0.618-0.042,0.849-0.068
			c0.271-0.024,0.503-0.057,0.693-0.096c0.026-0.128,0.059-0.271,0.099-0.425c0.025-0.141,0.048-0.299,0.068-0.472
			c0.02-0.174,0.027-0.357,0.027-0.55c0-0.58-0.045-1.065-0.136-1.456c-0.089-0.392-0.201-0.711-0.337-0.956
			c-0.134-0.243-0.29-0.417-0.463-0.519c-0.174-0.105-0.343-0.156-0.511-0.156c-0.167,0-0.338,0.062-0.512,0.184
			c-0.173,0.123-0.328,0.354-0.463,0.695c-0.135,0.339-0.248,0.819-0.337,1.436C91.655,71.188,91.61,71.993,91.61,72.982z"/>
	</g>
	<g>
		<path fill="#16233B" d="M106.446,79.777c-0.17,0.498-0.46,0.936-0.863,1.312c-0.408,0.375-0.892,0.67-1.45,0.883
			c-0.558,0.215-1.139,0.367-1.739,0.463c-0.601,0.1-1.231,0.146-1.886,0.146c-0.292,0-0.57-0.004-0.839-0.018
			c-0.606-0.037-1.205-0.121-1.793-0.256c-0.589-0.133-1.151-0.311-1.687-0.537c-0.534-0.225-0.984-0.518-1.347-0.883
			c-0.365-0.365-0.59-0.77-0.675-1.221c-0.158-0.862,0.231-1.742,1.165-2.642c0.936-0.899,2.407-1.804,4.41-2.715
			c0.17-0.085,0.331-0.073,0.482,0.028c0.151,0.104,0.219,0.249,0.202,0.438c-0.019,0.189-0.114,0.318-0.285,0.393
			c-0.922,0.424-1.722,0.843-2.395,1.256c-0.674,0.411-1.179,0.768-1.512,1.066c-0.335,0.297-0.597,0.589-0.784,0.874
			c-0.188,0.286-0.298,0.51-0.328,0.675c-0.031,0.162-0.034,0.311-0.01,0.445c0.099,0.533,0.584,1,1.459,1.402
			c0.876,0.4,1.93,0.637,3.17,0.709c0.837,0.062,1.651,0.033,2.44-0.09c0.788-0.121,1.503-0.355,2.141-0.699
			c0.637-0.348,1.042-0.789,1.211-1.322c0.109-0.328,0.171-0.661,0.184-0.995c0.013-0.333-0.037-0.675-0.146-1.027
			c-0.109-0.354-0.225-0.68-0.347-0.985c-0.12-0.302-0.317-0.646-0.592-1.027c-0.272-0.384-0.51-0.707-0.71-0.976
			c-0.2-0.268-0.492-0.607-0.875-1.02c-0.383-0.413-0.684-0.735-0.902-0.965c-0.219-0.231-0.545-0.56-0.984-0.984
			c-0.398-0.426-0.707-0.745-0.918-0.959c-0.215-0.211-0.504-0.521-0.874-0.928c-0.371-0.406-0.653-0.731-0.848-0.976
			c-0.194-0.243-0.428-0.558-0.701-0.947c-0.273-0.389-0.476-0.72-0.603-0.992c-0.127-0.274-0.254-0.595-0.382-0.966
			c-0.128-0.37-0.198-0.708-0.209-1.01c-0.013-0.304,0.015-0.632,0.081-0.984s0.179-0.692,0.338-1.021
			c0.448-0.898,1.214-1.508,2.294-1.83c1.08-0.324,2.411-0.338,3.991-0.047c1.456,0.279,2.921,0.765,4.39,1.458
			c1.47,0.693,2.718,1.515,3.744,2.469s1.575,1.867,1.649,2.741c0.109,1.216-0.663,2.139-2.314,2.769
			c-1.847,0.512-3.717,0.627-5.612,0.347c-0.12-0.022-0.222-0.088-0.3-0.19c-0.079-0.104-0.108-0.219-0.092-0.347
			c0.019-0.128,0.08-0.229,0.184-0.311c0.104-0.078,0.216-0.11,0.338-0.1c1.736,0.256,3.448,0.158,5.137-0.291
			c1.202-0.461,1.772-1.058,1.711-1.786c-0.061-0.667-0.543-1.405-1.445-2.213c-0.906-0.808-2.05-1.545-3.437-2.214
			c-1.384-0.667-2.763-1.128-4.134-1.384c-0.463-0.085-0.919-0.144-1.367-0.173c-0.451-0.032-0.938-0.019-1.467,0.037
			c-0.528,0.054-1.008,0.205-1.44,0.453c-0.431,0.251-0.754,0.593-0.975,1.03c-0.134,0.267-0.222,0.544-0.263,0.829
			c-0.042,0.285-0.059,0.555-0.045,0.811c0.011,0.255,0.082,0.541,0.208,0.857c0.128,0.315,0.249,0.592,0.363,0.827
			c0.117,0.237,0.301,0.525,0.558,0.867c0.255,0.339,0.469,0.618,0.647,0.837c0.174,0.219,0.435,0.517,0.783,0.893
			c0.347,0.377,0.616,0.665,0.811,0.865c0.193,0.201,0.491,0.501,0.891,0.901c0.414,0.413,0.724,0.729,0.932,0.948
			c0.205,0.217,0.496,0.528,0.872,0.929c0.378,0.401,0.663,0.728,0.857,0.976c0.195,0.248,0.436,0.567,0.719,0.955
			c0.287,0.389,0.5,0.727,0.639,1.013c0.139,0.285,0.289,0.611,0.445,0.981c0.16,0.373,0.256,0.718,0.293,1.039
			c0.036,0.323,0.046,0.665,0.025,1.03C106.62,79.066,106.556,79.424,106.446,79.777z"/>
		<path fill="#16233B" d="M123.727,77.464c0.127,0.011,0.233,0.07,0.318,0.172c0.084,0.104,0.121,0.222,0.109,0.354
			c-0.012,0.134-0.074,0.243-0.183,0.328c-0.182,0.146-0.406,0.316-0.673,0.512c-0.269,0.195-0.784,0.517-1.549,0.974
			c-0.766,0.455-1.528,0.854-2.287,1.193s-1.673,0.648-2.742,0.93c-1.068,0.279-2.088,0.418-3.059,0.418
			c-1.24,0.012-2.43-0.211-3.572-0.674c-0.365-0.146-0.672-0.318-0.921-0.52c-0.248-0.201-0.432-0.395-0.555-0.582
			c-0.122-0.188-0.21-0.391-0.264-0.602c-0.054-0.213-0.08-0.398-0.072-0.555c0.006-0.16,0.026-0.316,0.062-0.475
			c0.135-0.57,0.45-1.136,0.948-1.695c0.499-0.558,1.053-0.994,1.666-1.31c0.613-0.316,1.164-0.463,1.649-0.439
			c0.327,0,0.61,0.117,0.848,0.349c0.237,0.229,0.365,0.515,0.392,0.854c0.061,0.583-0.269,1.111-0.984,1.586
			c-1.032,0.645-2.162,0.929-3.387,0.855c-0.063-0.01-0.117,0-0.165,0.037c-0.05,0.037-0.068,0.084-0.056,0.146
			c-0.085,0.617,0.315,1.105,1.203,1.457c0.789,0.328,1.639,0.52,2.551,0.574c0.91,0.055,1.76,0.01,2.552-0.137
			c0.787-0.146,1.595-0.371,2.422-0.676c0.824-0.303,1.531-0.609,2.122-0.918c0.588-0.312,1.158-0.638,1.713-0.985
			c0.552-0.346,0.928-0.592,1.128-0.736c0.2-0.146,0.344-0.256,0.429-0.328C123.479,77.487,123.599,77.45,123.727,77.464z
			 M109.89,78.028c-0.157,0.219-0.091,0.316,0.2,0.291c0.511-0.035,1.159-0.256,1.951-0.654c0.12-0.072,0.224-0.135,0.309-0.183
			c0.377-0.255,0.553-0.485,0.528-0.691c-0.013-0.136-0.044-0.222-0.091-0.265c-0.05-0.044-0.128-0.069-0.237-0.084
			c-0.389-0.022-0.84,0.117-1.358,0.421C110.676,77.167,110.243,77.555,109.89,78.028z"/>
		<path fill="#16233B" d="M138.93,77.665c0.134,0,0.249,0.041,0.347,0.126c0.095,0.085,0.147,0.195,0.153,0.328
			c0.007,0.133-0.04,0.25-0.137,0.347c-0.072,0.085-0.174,0.194-0.31,0.328c-0.134,0.135-0.382,0.353-0.747,0.656
			c-0.364,0.305-0.735,0.59-1.111,0.857c-0.374,0.266-0.835,0.537-1.375,0.809c-0.54,0.275-1.072,0.486-1.595,0.639
			c-0.521,0.152-1.091,0.223-1.704,0.211c-0.611-0.014-1.192-0.129-1.738-0.348c-0.947-0.473-1.683-1.172-2.204-2.094
			c0-0.014-0.028-0.061-0.082-0.146c-0.056-0.086-0.104-0.154-0.146-0.209c-0.042-0.055-0.097-0.119-0.162-0.193
			c-0.067-0.073-0.142-0.128-0.22-0.163c-0.08-0.038-0.16-0.049-0.247-0.038c-0.971,0.026-2.344,1.076-4.117,3.154
			c-0.157,0.182-0.347,0.219-0.574,0.107c-0.224-0.107-0.306-0.285-0.245-0.527l0.91-4.008c0.025-0.12,0.095-0.219,0.21-0.291
			c0.115-0.074,0.237-0.095,0.365-0.063c0.128,0.03,0.225,0.102,0.293,0.219c0.064,0.115,0.086,0.232,0.062,0.355l-0.418,1.804
			c-0.012,0.059,0.011,0.104,0.072,0.137c0.061,0.029,0.114,0.02,0.164-0.027c1.348-1.277,2.485-1.885,3.408-1.824
			c0.387,0.024,0.717,0.182,0.981,0.475c0.206,0.219,0.39,0.454,0.547,0.71c0.413,0.754,0.997,1.331,1.749,1.731
			c0.377,0.158,0.771,0.25,1.185,0.273c0.412,0.023,0.803,0.002,1.175-0.064c0.371-0.066,0.748-0.176,1.139-0.328
			c0.388-0.15,0.744-0.316,1.067-0.5c0.32-0.182,0.642-0.383,0.965-0.6c0.32-0.221,0.592-0.422,0.811-0.604
			c0.219-0.182,0.43-0.362,0.636-0.546c0.209-0.182,0.344-0.31,0.412-0.384c0.066-0.07,0.118-0.128,0.154-0.163
			C138.686,77.712,138.795,77.665,138.93,77.665z"/>
		<path fill="#16233B" d="M151.135,77.134c0.134,0,0.245,0.048,0.337,0.139s0.138,0.202,0.138,0.337
			c0,0.133-0.043,0.248-0.128,0.346c-1.058,1.056-2.43,1.974-4.117,2.75c-1.688,0.779-3.267,1.168-4.737,1.168
			c-0.315,0-0.619-0.02-0.91-0.055c-0.608-0.051-1.168-0.236-1.677-0.557c-0.508-0.322-0.917-0.744-1.22-1.266
			c-0.062-0.109-0.076-0.225-0.047-0.346c0.032-0.121,0.101-0.219,0.21-0.291c0.109-0.074,0.228-0.094,0.354-0.066
			c0.128,0.033,0.228,0.102,0.302,0.213c0.4,0.533,0.925,0.871,1.575,1.01c0.649,0.139,1.267,0.045,1.849-0.285
			c0.256-0.145,0.411-0.357,0.466-0.645c0.054-0.285-0.022-0.537-0.229-0.755c-0.206-0.219-0.436-0.408-0.691-0.565
			c-0.511-0.304-0.936-0.691-1.274-1.166c-0.05-0.085-0.122-0.135-0.221-0.146c-0.097-0.012-0.176,0.011-0.235,0.072l-1.384,1.312
			c-0.136,0.122-0.293,0.159-0.475,0.111c-0.182-0.05-0.295-0.165-0.338-0.349c-0.041-0.182,0.01-0.339,0.156-0.473l2.785-2.623
			c0.316-0.377,0.675-0.71,1.076-1.003c0.097-0.072,0.211-0.104,0.337-0.091c0.128,0.014,0.232,0.067,0.319,0.165
			c0.085,0.096,0.122,0.208,0.109,0.336s-0.061,0.235-0.146,0.318l-1.003,0.93c-0.156,0.184-0.24,0.395-0.253,0.638
			c0,0.196,0.094,0.381,0.282,0.555c0.188,0.179,0.457,0.387,0.809,0.63c0.376,0.22,0.699,0.498,0.966,0.837
			c0.208,0.293,0.325,0.616,0.356,0.974c0.031,0.361-0.039,0.697-0.21,1.014c-0.049,0.096-0.04,0.188,0.028,0.271
			c0.066,0.086,0.154,0.117,0.264,0.092c2.382-0.57,4.464-1.701,6.248-3.389C150.892,77.185,151.001,77.134,151.135,77.134z"/>
	</g>
</g>
<g>
	<linearGradient id="SVGID_1_" gradientUnits="userSpaceOnUse" x1="190.5859" y1="4.4819" x2="189.0859" y2="141.9861">
		<stop  offset="0.0498" style="stop-color:#1AB2AB"/>
		<stop  offset="0.4773" style="stop-color:#0C4958"/>
		<stop  offset="1" style="stop-color:#16233B"/>
	</linearGradient>
	<path fill-rule="evenodd" clip-rule="evenodd" fill="url(#SVGID_1_)" d="M193.312,31.986c0.124-0.371,0.249-0.743,0.372-1.114
		c0.135-0.413,0.259-0.831,0.404-1.24c0.047-0.126,0.13-0.252,0.231-0.339c0.21-0.182,0.443-0.337,0.706-0.532
		c0.032,0.114,0.087,0.215,0.081,0.311c-0.024,0.349-0.02,0.712-0.115,1.044c-0.275,0.943-0.578,1.88-0.9,2.807
		c-0.46,1.329-0.951,2.646-1.421,3.969c-0.078,0.219-0.123,0.45-0.202,0.744c0.85-0.505,1.575-1.025,2.164-1.722
		c0.273-0.324,0.381-0.685,0.418-1.115c0.057-0.64,0.236-1.269,0.33-1.907c0.2-1.359,1.022-2.344,1.933-3.282
		c0.64-0.659,1.365-1.204,2.11-1.737c0.66-0.473,1.271-1.026,1.835-1.611c0.343-0.356,0.58-0.826,0.82-1.268
		c0.704-1.302,1.576-2.465,2.737-3.391c1.039-0.829,1.819-1.872,2.531-2.975c0.26-0.4,0.498-0.814,0.759-1.216
		c0.208-0.32,0.387-0.651,0.477-1.026c0.016-0.066,0.031-0.15,0.078-0.191c0.076-0.065,0.186-0.152,0.269-0.141
		c0.146,0.021,0.184,0.154,0.142,0.297c-0.067,0.229-0.163,0.453-0.198,0.688c-0.068,0.472-0.121,0.947-0.149,1.424
		c-0.029,0.474-0.148,0.921-0.391,1.322c-0.79,1.305-1.218,2.749-1.57,4.21c-0.326,1.35-0.839,2.621-1.428,3.867
		c-0.065,0.14-0.146,0.275-0.235,0.4c-0.903,1.255-1.788,2.523-2.723,3.756c-0.771,1.02-1.748,1.821-2.866,2.449
		c-0.23,0.13-0.446,0.296-0.645,0.472c-0.671,0.597-1.472,0.802-2.341,0.79c-0.363-0.005-0.726-0.06-1.1-0.093
		c-0.014,0.008-0.045,0.017-0.059,0.037c-0.528,0.841-1.262,1.464-2.086,1.993c-0.903,0.581-0.895,0.586-1.184,1.612
		c-0.159,0.568-0.349,1.128-0.524,1.691c-0.04,0.131-0.078,0.264-0.126,0.423c0.375-0.295,0.725-0.562,1.063-0.842
		c0.069-0.058,0.123-0.153,0.149-0.241c0.255-0.865,0.784-1.538,1.436-2.14c0.866-0.8,1.91-1.07,3.05-1.147
		c0.761-0.051,1.581,0.955,1.393,1.696c-0.149,0.588-0.426,1.068-0.863,1.463c-1.151,1.036-2.54,1.342-4.036,1.233
		c-0.318-0.022-0.623-0.222-1-0.364c-0.072,0.045-0.233,0.113-0.348,0.229c-0.425,0.43-0.84,0.869-1.244,1.318
		c-0.087,0.098-0.131,0.246-0.163,0.379c-0.281,1.16-0.552,2.323-0.831,3.485c-0.122,0.505-0.258,1.007-0.384,1.512
		c-0.017,0.062-0.019,0.129-0.022,0.155c0.476-0.47,0.962-0.951,1.48-1.463c-0.015-0.045-0.039-0.138-0.078-0.223
		c-0.207-0.449-0.189-0.884,0.128-1.269c0.905-1.095,1.923-2.054,3.28-2.573c0.59-0.226,1.188-0.436,1.786-0.638
		c0.279-0.095,0.565-0.171,0.854-0.23c1.425-0.292,2.813-0.708,4.105-1.375c1.073-0.554,2.068-1.222,2.972-2.055
		c0.958-0.884,1.63-1.968,2.375-3.001c0.226-0.313,0.34-0.707,0.511-1.062c0.115-0.239,0.237-0.478,0.364-0.712
		c0.063-0.118,0.163-0.209,0.309-0.144c0.171,0.078,0.145,0.225,0.088,0.361c-0.1,0.233-0.22,0.457-0.31,0.693
		c-0.279,0.734-0.59,1.461-0.815,2.212c-0.645,2.141-1.832,3.948-3.383,5.518c-0.486,0.494-1.092,0.891-1.693,1.246
		c-1.021,0.605-1.939,1.346-2.854,2.092c-0.806,0.658-1.699,1.136-2.7,1.424c-0.675,0.194-1.345,0.408-2.007,0.637
		c-0.357,0.124-0.715,0.187-1.077,0.095c-0.448-0.112-0.894-0.243-1.328-0.398c-0.21-0.074-0.377-0.095-0.534,0.075
		c-0.524,0.566-1.066,1.11-1.496,1.767c-0.49,0.75-0.617,1.586-0.725,2.43c-0.074,0.569-0.073,1.146-0.108,1.778
		c0.318-0.166,0.606-0.317,0.897-0.471c0-0.096,0.01-0.18-0.001-0.261c-0.13-1.092,0.258-1.981,1.057-2.711
		c0.573-0.523,1.241-0.872,1.997-1.038c0.528-0.115,1.06-0.165,1.561,0.166c0.78-0.594,1.642-1.045,2.596-1.265
		c0.669-0.153,1.359-0.211,2.039-0.313c0.459-0.067,0.919-0.126,1.376-0.207c1.492-0.267,2.761-1.031,3.966-1.885
		c0.973-0.688,1.867-1.488,2.805-2.228c0.452-0.356,0.921-0.692,1.385-1.035c0.057-0.04,0.121-0.086,0.186-0.096
		c0.089-0.013,0.213-0.025,0.268,0.022c0.056,0.051,0.066,0.174,0.062,0.265c-0.005,0.079-0.049,0.161-0.089,0.234
		c-0.653,1.164-1.274,2.349-1.975,3.484c-0.496,0.806-1.224,1.432-1.955,2.025c-0.545,0.442-1.137,0.828-1.718,1.223
		c-0.646,0.438-1.367,0.718-2.108,0.944c-0.229,0.07-0.456,0.146-0.686,0.211c-1.332,0.372-2.388,1.169-3.299,2.173
		c-0.551,0.608-1.208,0.986-2.02,1.122c-0.513,0.087-1.018,0.219-1.521,0.348c-0.495,0.126-0.916,0.372-1.326,0.694
		c-0.395,0.309-0.797,0.604-1.173,0.94c-0.637,0.568-1.149,1.226-1.557,1.977c-0.24,0.444-0.529,0.861-0.778,1.302
		c-0.238,0.421-0.063,0.761,0.399,0.862c0.74,0.164,1.477,0.345,2.176,0.652c0.449,0.196,0.914,0.359,1.392,0.545
		c0.302-0.28,0.667-0.256,1.057-0.193c0.707,0.114,1.419,0.207,2.131,0.284c0.866,0.094,1.641,0.417,2.304,0.96
		c0.925,0.757,1.809,1.562,2.717,2.338c0.747,0.638,1.521,1.245,2.254,1.899c0.684,0.61,1.235,1.343,1.752,2.1
		c0.03,0.046,0.076,0.105,0.068,0.15c-0.017,0.1-0.041,0.22-0.107,0.28c-0.038,0.035-0.184-0.009-0.251-0.057
		c-0.076-0.055-0.128-0.149-0.175-0.235c-0.211-0.391-0.558-0.619-0.956-0.762c-0.436-0.156-0.878-0.303-1.328-0.405
		c-0.207-0.048-0.45-0.017-0.662,0.035c-0.357,0.088-0.482,0.483-0.235,0.756c0.302,0.334,0.616,0.659,0.957,0.95
		c0.175,0.149,0.415,0.226,0.634,0.319c0.071,0.031,0.168,0.027,0.247,0.012c0.196-0.039,0.473-0.307,0.457-0.45
		c-0.021-0.212-0.197-0.308-0.365-0.367c-0.167-0.059-0.358-0.044-0.53-0.093c-0.091-0.025-0.163-0.117-0.244-0.18
		c0.063-0.081,0.11-0.201,0.193-0.239c0.249-0.113,0.502-0.04,0.732,0.071c0.333,0.16,0.675,0.343,0.676,0.778
		c0.003,0.456-0.316,0.699-0.68,0.887c-0.21,0.108-0.435,0.079-0.658,0.018c-0.524-0.146-0.906-0.495-1.27-0.872
		c-0.116-0.122-0.218-0.262-0.348-0.367c-0.304-0.246-0.392-0.558-0.36-0.937c0.028-0.334,0.184-0.553,0.485-0.673
		c0.39-0.157,0.788-0.196,1.198-0.079c0.294,0.084,0.59,0.16,0.964,0.261c-0.326-0.48-0.713-0.788-1.097-1.083
		c-0.545-0.421-1.087-0.839-1.597-1.306c-0.903-0.824-1.828-1.626-2.773-2.402c-0.631-0.519-1.379-0.792-2.202-0.87
		c-0.629-0.06-1.254-0.163-1.881-0.246c-0.11-0.015-0.224-0.028-0.334-0.045c-0.254-0.034-0.438,0.042-0.534,0.298
		c-0.212,0.557-0.673,0.763-1.216,0.838c-0.879,0.122-1.74,0.086-2.556-0.318c-0.048-0.023-0.104-0.032-0.193-0.059
		c-0.029,0.514,0.065,0.991,0.138,1.472c0.055,0.361,0.235,0.62,0.49,0.893c0.787,0.842,1.804,1.228,2.854,1.553
		c0.521,0.161,1.065,0.255,1.6,0.377c0.314,0.072,0.601,0.063,0.861-0.184c0.179-0.172,0.258-0.147,0.404,0.062
		c0.33,0.472,0.657,0.946,0.972,1.429c0.317,0.488,0.687,0.919,1.183,1.24c0.354,0.228,0.688,0.484,1.023,0.737
		c0.222,0.168,0.251,0.369,0.097,0.631c-0.263,0.448-0.562,0.878-0.797,1.341c-0.503,0.995-0.813,2.062-1.094,3.138
		c-0.266,1.02-0.561,2.031-0.852,3.043c-0.129,0.442-0.174,0.877-0.043,1.328c0.107,0.369,0.023,0.443-0.363,0.359
		c-0.025-0.004-0.055,0.01-0.111,0.018c-0.422,0.533-0.879,1.068-1.287,1.639c-0.724,1.008-1.673,1.758-2.744,2.33
		c-1.189,0.635-2.447,1.131-3.8,1.332c-0.179,0.027-0.354,0.092-0.531,0.133c-0.123,0.025-0.254,0.068-0.372,0.049
		c-0.088-0.018-0.214-0.113-0.225-0.188c-0.01-0.072,0.092-0.195,0.175-0.232c0.147-0.068,0.317-0.088,0.525-0.139
		c-0.127-0.311-0.212-0.596-0.355-0.846c-0.682-1.197-1.075-2.508-1.431-3.82c-0.328-1.209-0.422-2.463-0.373-3.722
		c0.025-0.647,0.028-1.294,0.037-1.941c0.002-0.182-0.01-0.365-0.017-0.547c-0.043-1.105-0.478-2.011-1.361-2.689
		c-0.033-0.025-0.067-0.052-0.102-0.075c-0.138-0.097-0.258-0.222-0.12-0.379c0.123-0.142,0.294-0.08,0.417,0.025
		c0.59,0.506,1.165,1.025,1.388,1.813c0.023,0.081,0.054,0.159,0.08,0.238c0.006,0.011,0.021,0.018,0.058,0.048
		c0.062-0.061,0.13-0.119,0.188-0.188c0.969-1.131,1.741-2.385,2.254-3.783c0.256-0.697,0.469-1.416,0.629-2.141
		c0.069-0.312-0.021-0.667-0.082-0.996c-0.095-0.524-0.226-1.044-0.343-1.563c-0.008-0.038-0.04-0.07-0.094-0.162
		c-0.229,0.444-0.603,0.687-0.975,0.934c-0.826,0.548-1.75,0.742-2.724,0.757c-0.057,0.001-0.12,0.011-0.167-0.012
		c-0.486-0.232-0.758,0.043-1.059,0.383c-0.753,0.853-1.528,1.688-2.323,2.503c-0.421,0.432-0.899,0.805-1.35,1.208
		c-0.061,0.053-0.108,0.121-0.175,0.198c0.283,0.234,0.57,0.438,0.816,0.683c0.67,0.662,0.955,1.471,0.842,2.412
		c-0.033,0.27-0.132,0.491-0.411,0.582c-0.272,0.091-0.508-0.011-0.689-0.202c-0.221-0.233-0.453-0.473-0.606-0.751
		c-0.21-0.378-0.354-0.793-0.515-1.196c-0.039-0.101-0.054-0.223-0.039-0.33c0.03-0.256,0.287-0.371,0.505-0.238
		c0.201,0.122,0.354,0.536,0.231,0.742c-0.077,0.131-0.072,0.224-0.023,0.346c0.166,0.412,0.418,0.766,0.735,1.069
		c0.063,0.062,0.163,0.086,0.245,0.127c0.4-0.745-0.111-2.246-1.484-2.854c-0.104,0.114-0.214,0.238-0.325,0.359
		c-0.106,0.115-0.235,0.177-0.369,0.064c-0.139-0.116-0.1-0.252,0.014-0.367c0.502-0.51,0.976-1.056,1.519-1.519
		c0.666-0.567,1.304-1.156,1.88-1.813c0.5-0.571,1.014-1.131,1.511-1.704c0.191-0.222,0.422-0.317,0.708-0.29
		c0.935-1.655,2.463-2.688,3.862-3.859c-0.045-1.489-0.38-2.983-0.178-4.538c-0.279-0.083-0.525-0.156-0.766-0.228
		c-0.029,0.066-0.05,0.09-0.05,0.114c0.044,1.046-0.578,1.943-1.578,2.288c-0.475,0.164-0.962,0.208-1.457,0.158
		c-0.404-0.042-0.815-0.075-1.206-0.182c-0.99-0.271-1.713-1.317-1.645-2.34c0.034-0.513,0.314-0.892,0.709-1.195
		c0.523-0.402,1.13-0.574,1.776-0.566c0.56,0.006,1.123,0.058,1.68,0.126c0.517,0.064,0.989,0.28,1.296,0.712
		c0.306,0.432,0.76,0.467,1.244,0.613c0.06-0.458,0.116-0.872,0.165-1.287c0.016-0.139-0.02-0.289,0.019-0.42
		c0.095-0.338-0.038-0.567-0.295-0.762c-0.235-0.178-0.459-0.371-0.698-0.545c-0.499-0.361-1.036-0.677-1.419-1.23
		c-0.4,0.29-0.813,0.431-1.274,0.45c-0.635,0.027-1.226-0.089-1.781-0.407c-0.801-0.458-1.506-1.025-2.12-1.718
		c-0.411-0.461-0.874-0.875-1.313-1.311c-0.15-0.148-0.313-0.284-0.445-0.447c-1.146-1.42-2.128-2.93-2.687-4.693
		c-0.135-0.43-0.435-0.814-0.696-1.193c-0.432-0.624-0.942-1.197-1.333-1.845c-0.322-0.536-0.546-1.137-0.763-1.728
		c-0.16-0.434-0.236-0.896-0.349-1.347c-0.08-0.318-0.211-0.598-0.457-0.836c-0.178-0.171-0.301-0.402-0.428-0.619
		c-0.067-0.114-0.062-0.256,0.075-0.331c0.143-0.077,0.232,0.019,0.317,0.122c0.987,1.196,2.068,2.299,3.256,3.293
		c0.23,0.194,0.526,0.318,0.805,0.445c0.82,0.37,1.659,0.697,2.41,1.206c1.552,1.052,2.814,2.346,3.641,4.063
		c0.417,0.87,0.972,1.678,1.492,2.495c0.384,0.604,0.817,1.175,1.217,1.771c0.322,0.478,0.467,1.029,0.506,1.59
		c0.022,0.334,0.151,0.584,0.338,0.823c0.128,0.166,0.273,0.326,0.438,0.453c0.543,0.418,1.098,0.82,1.695,1.265
		c0.029-0.256,0.06-0.459,0.074-0.663c0.049-0.743,0.107-1.483,0.288-2.212c0.247-0.997,0.234-1-0.424-1.811
		c-0.062-0.075-0.125-0.149-0.203-0.245c-0.064,0.029-0.127,0.052-0.186,0.082c-0.367,0.187-0.729,0.161-1.094-0.016
		c-0.383-0.188-0.731-0.424-1.007-0.751c-0.891-1.06-1.519-2.251-1.846-3.604c-0.206-0.854,0.437-1.465,1.063-1.598
		c0.586-0.123,1.151-0.031,1.687,0.212c0.521,0.236,0.961,0.581,1.264,1.08c0.366,0.606,0.662,1.238,0.812,1.934
		c0.175,0.814,0.024,1.591-0.312,2.385c0.172,0.209,0.354,0.432,0.6,0.73c0.08-0.296,0.144-0.503,0.191-0.713
		c0.304-1.3,0.599-2.603,0.909-3.9c0.051-0.209,0.046-0.379-0.081-0.553c-0.545-0.744-0.911-1.58-1.236-2.437
		c-0.024-0.063-0.064-0.122-0.106-0.196c-0.073,0.028-0.162,0.035-0.194,0.08c-0.338,0.479-0.819,0.429-1.299,0.344
		c-0.315-0.057-0.628-0.148-0.938-0.236c-0.569-0.162-1.03-0.507-1.458-0.899c-0.909-0.835-1.645-1.811-2.248-2.883
		c-0.627-1.113-1.232-2.24-1.849-3.361c-0.458-0.832-0.607-1.74-0.682-2.675c-0.07-0.88-0.071-1.773-0.318-2.633
		c-0.105-0.362-0.217-0.729-0.366-1.075c-0.261-0.605-0.585-1.186-0.825-1.798c-0.381-0.967-0.716-1.951-1.065-2.93
		c-0.032-0.09-0.052-0.203-0.023-0.289c0.042-0.126,0.108-0.293,0.208-0.334c0.092-0.038,0.263,0.043,0.362,0.119
		c0.132,0.1,0.244,0.234,0.34,0.372c0.906,1.288,1.801,2.584,2.711,3.868c0.731,1.029,1.41,2.105,2.348,2.968
		c0.517,0.475,1.073,0.905,1.622,1.344c0.861,0.688,1.66,1.426,2.248,2.376c0.212,0.342,0.499,0.646,0.79,0.927
		c0.281,0.271,0.496,0.562,0.62,0.935c0.312,0.936,0.601,1.874,0.698,2.861c0.073,0.737,0.019,1.459-0.228,2.163
		c-0.042,0.125-0.065,0.28-0.032,0.404c0.229,0.863,0.64,1.647,1.082,2.417c0.03,0.054,0.091,0.093,0.148,0.149
		c0.192-0.575,0.376-1.115,0.553-1.658c0.306-0.934,0.624-1.864,0.904-2.808c0.147-0.496,0.183-1.027,0.34-1.519
		c0.356-1.11,0.738-2.213,1.149-3.304c0.178-0.468,0.201-0.929,0.129-1.402c-0.09-0.597-0.199-1.191-0.315-1.784
		c-0.019-0.092-0.104-0.195-0.188-0.245c-0.769-0.472-1.348-1.137-1.901-1.827c-0.085-0.107-0.143-0.242-0.197-0.371
		c-0.47-1.098-0.964-2.186-1.396-3.299c-0.463-1.19-0.925-2.386-1.077-3.673c-0.052-0.437-0.063-0.864,0.041-1.297
		c0.382-1.577,0.612-3.17,0.554-4.801c-0.039-1.068-0.029-2.136-0.221-3.194c-0.086-0.468-0.109-0.948-0.154-1.424
		c-0.01-0.11-0.01-0.23,0.023-0.334c0.028-0.081,0.119-0.202,0.176-0.198c0.088,0.007,0.209,0.083,0.248,0.163
		c0.229,0.466,0.438,0.941,0.65,1.416c0.549,1.226,1.272,2.347,2.09,3.406c0.554,0.717,1.024,1.477,1.39,2.306
		c0.09,0.205,0.21,0.398,0.326,0.59c1.048,1.731,1.545,3.642,1.772,5.626c0.132,1.142,0.012,2.27-0.419,3.357
		c-0.358,0.9-0.663,1.821-1.015,2.725c-0.18,0.465-0.328,0.92-0.205,1.426c0.088,0.363,0.153,0.731,0.229,1.098
		C193.238,31.988,193.275,31.987,193.312,31.986z M187.605,84.244c0.158-0.023,0.301-0.027,0.429-0.07
		c0.72-0.238,1.438-0.48,2.151-0.732c0.846-0.299,1.565-0.811,2.277-1.342c0.229-0.17,0.297-0.354,0.222-0.611
		c-0.174-0.607-0.338-1.217-0.521-1.818c-0.143-0.469-0.315-0.929-0.462-1.398c-0.217-0.697-0.354-1.426-0.644-2.091
		c-0.653-1.505-1.006-3.094-1.398-4.672c-0.071-0.286-0.116-0.578-0.168-0.869c-0.126-0.718-0.254-1.436-0.373-2.156
		c-0.092-0.547-0.17-1.097-0.255-1.646c-0.096,0.054-0.139,0.11-0.152,0.173c-0.192,0.882-0.473,1.738-0.885,2.54
		c-0.366,0.71-0.765,1.407-1.198,2.078c-0.311,0.481-0.709,0.905-1.054,1.366c-0.076,0.102-0.128,0.246-0.131,0.372
		c-0.017,0.8,0.008,1.602-0.029,2.401c-0.06,1.303,0.045,2.595,0.379,3.844c0.345,1.285,0.74,2.564,1.41,3.734
		C187.362,83.625,187.467,83.932,187.605,84.244z M193.935,80.508c0.101-0.121,0.144-0.172,0.188-0.225
		c0.373-0.436,0.752-0.865,1.114-1.31c0.061-0.072,0.061-0.2,0.073-0.304c0.04-0.318,0.034-0.648,0.116-0.955
		c0.325-1.236,0.671-2.467,1.021-3.695c0.313-1.094,0.638-2.186,1.256-3.16c0.186-0.293,0.352-0.599,0.534-0.911
		c-0.289-0.227-0.537-0.463-0.822-0.636c-0.684-0.409-1.181-0.981-1.579-1.661c-0.211-0.359-0.464-0.692-0.7-1.041
		c-0.334,0.169-0.636,0.211-0.945,0.159c-1.071-0.18-2.124-0.431-3.109-0.896c-0.465-0.221-0.908-0.483-1.4-0.747
		c0.049,0.298,0.078,0.588,0.148,0.868c0.335,1.336,0.612,2.68,0.836,4.04c0.246,1.499,0.641,2.969,1.152,4.399
		c0.463,1.295,0.999,2.565,1.476,3.857c0.203,0.551,0.337,1.127,0.501,1.694C193.838,80.131,193.874,80.279,193.935,80.508z
		 M187.8,40.157c0.045,0,0.091,0,0.136,0.001c0.078-0.175,0.192-0.342,0.225-0.525c0.071-0.414,0.145-0.834,0.141-1.251
		c-0.01-1.184-0.355-2.299-0.77-3.395c-0.062-0.164-0.174-0.326-0.305-0.442c-0.458-0.406-0.828-0.875-1.151-1.393
		c-0.163-0.26-0.354-0.509-0.566-0.732c-0.57-0.604-1.201-1.139-1.875-1.63c-0.902-0.655-1.704-1.423-2.35-2.344
		c-1.032-1.472-2.063-2.946-3.096-4.42c-0.105-0.15-0.215-0.296-0.327-0.44c-0.11-0.144-0.226-0.283-0.339-0.425
		c0.276,1.282,0.827,2.435,1.35,3.597c0.231,0.512,0.446,1.031,0.624,1.562c0.27,0.809,0.263,1.663,0.334,2.502
		c0.079,0.927,0.14,1.854,0.598,2.695c0.652,1.197,1.292,2.401,1.975,3.58c0.338,0.581,0.731,1.137,1.151,1.662
		c0.34,0.426,0.751,0.798,1.145,1.179c0.621,0.604,1.45,0.703,2.24,0.879c0.327,0.071,0.598-0.09,0.764-0.47
		c-0.255-0.333-0.517-0.68-0.783-1.02c-0.182-0.232-0.388-0.448-0.554-0.689c-0.996-1.447-1.964-2.916-3.131-4.236
		c-0.042-0.049-0.069-0.113-0.108-0.18c0.235-0.022,0.246-0.031,0.365,0.115c0.452,0.556,0.919,1.103,1.341,1.681
		C185.833,37.388,186.812,38.776,187.8,40.157z M192.649,29.197c0.035-0.001,0.069-0.004,0.104-0.005
		c0.03-0.044,0.071-0.086,0.089-0.135c0.39-1.068,0.792-2.132,1.151-3.211c0.117-0.354,0.146-0.744,0.174-1.12
		c0.07-0.918-0.043-1.82-0.235-2.72c-0.304-1.41-0.73-2.77-1.485-4.012c-0.166-0.274-0.29-0.576-0.451-0.855
		c-0.34-0.582-0.646-1.188-1.046-1.728c-0.854-1.155-1.669-2.33-2.275-3.639c-0.022-0.047-0.062-0.086-0.133-0.185
		c0,0.133-0.011,0.197,0.001,0.259c0.16,0.816,0.191,1.643,0.226,2.473c0.078,1.91-0.099,3.789-0.562,5.644
		c-0.07,0.278-0.077,0.587-0.049,0.874c0.161,1.617,0.777,3.099,1.395,4.579c0.317,0.765,0.643,1.526,0.978,2.284
		c0.106,0.242,0.212,0.504,0.388,0.692c0.45,0.481,0.939,0.926,1.416,1.382c0.023,0.023,0.075,0.018,0.126,0.027
		c0.104-0.357-0.06-0.669-0.128-0.991c-0.074-0.343-0.159-0.684-0.229-1.028c-0.066-0.331-0.124-0.663-0.177-0.996
		c-0.054-0.333-0.1-0.667-0.143-1.002c-0.046-0.348-0.081-0.697-0.126-1.046c-0.042-0.335-0.083-0.67-0.139-1.002
		c-0.059-0.347-0.147-0.688-0.197-1.034c-0.045-0.311-0.259-0.604-0.098-0.945c0.082,0.082,0.143,0.17,0.165,0.269
		c0.119,0.507,0.256,1.01,0.335,1.522c0.161,1.055,0.271,2.119,0.438,3.173C192.294,27.551,192.484,28.373,192.649,29.197z
		 M200.614,29.051c0.148,0.146,0.049,0.254-0.008,0.357c-0.195,0.354-0.494,0.612-0.824,0.831c-0.485,0.321-0.833,0.749-1.055,1.281
		c-0.342,0.825-0.782,1.591-1.393,2.247c-0.372,0.399-0.773,0.774-1.159,1.162c-0.072,0.073-0.136,0.156-0.25,0.29
		c0.962,0.106,1.797,0.032,2.539-0.545c0.364-0.283,0.758-0.527,1.139-0.79c0.231-0.159,0.464-0.316,0.692-0.481
		c1.002-0.729,1.781-1.669,2.496-2.668c0.606-0.845,1.205-1.695,1.798-2.551c0.167-0.241,0.319-0.497,0.443-0.763
		c0.553-1.187,1.006-2.404,1.317-3.683c0.355-1.461,0.801-2.898,1.589-4.205c0.243-0.403,0.38-0.855,0.269-1.355
		c-0.165,0.193-0.293,0.405-0.424,0.612c-0.748,1.183-1.581,2.288-2.683,3.175c-0.382,0.307-0.735,0.655-1.066,1.018
		c-0.657,0.719-1.188,1.527-1.646,2.39c-0.236,0.442-0.496,0.896-0.84,1.254c-0.669,0.699-1.392,1.351-2.212,1.883
		c-0.329,0.212-0.665,0.431-0.949,0.698c-0.696,0.654-1.384,1.322-1.92,2.121c-0.17,0.253-0.338,0.527-0.419,0.816
		c-0.179,0.634-0.31,1.282-0.444,1.928c-0.053,0.247-0.077,0.5-0.098,0.752c-0.007,0.084,0.037,0.171,0.062,0.271
		c0.072-0.035,0.116-0.046,0.146-0.071c1.205-1.019,2.24-2.167,2.828-3.665c0.21-0.534,0.576-0.96,1.058-1.283
		c0.34-0.229,0.65-0.489,0.848-0.863C200.481,29.15,200.557,29.106,200.614,29.051z M173.009,37.524
		c-0.032,0.025-0.065,0.05-0.098,0.075c0.171,0.893,0.423,1.765,0.924,2.533c0.414,0.635,0.908,1.218,1.338,1.843
		c0.285,0.414,0.593,0.837,0.76,1.303c0.385,1.064,0.819,2.094,1.473,3.021c0.478,0.678,0.919,1.38,1.536,1.951
		c0.475,0.439,0.94,0.89,1.374,1.368c0.562,0.623,1.203,1.135,1.92,1.566c0.586,0.353,1.213,0.425,1.868,0.352
		c0.155-0.018,0.303-0.099,0.456-0.151c-0.34-0.357-0.634-0.696-0.958-1.003c-0.739-0.694-1.422-1.437-2.064-2.223
		c-0.479-0.586-1.029-1.113-1.55-1.664c-0.193-0.204-0.396-0.399-0.585-0.608c-0.044-0.049-0.05-0.132-0.101-0.273
		c0.144,0.066,0.23,0.081,0.281,0.132c0.52,0.514,1.055,1.014,1.547,1.553c0.681,0.748,1.316,1.537,1.996,2.287
		c0.395,0.438,0.834,0.836,1.258,1.247c0.106,0.104,0.233,0.188,0.409,0.325c-0.026-0.508-0.065-0.932-0.214-1.338
		c-0.076-0.211-0.136-0.445-0.272-0.61c-0.651-0.783-1.144-1.67-1.676-2.53c-0.369-0.598-0.777-1.179-1.073-1.812
		c-0.738-1.58-1.9-2.769-3.299-3.758c-0.764-0.541-1.625-0.891-2.474-1.264c-0.281-0.125-0.591-0.23-0.819-0.424
		c-0.591-0.497-1.146-1.036-1.709-1.566C173.158,37.762,173.092,37.635,173.009,37.524z M191.678,54.339
		c0.079-0.129,0.152-0.262,0.237-0.386c0.19-0.278,0.379-0.557,0.581-0.825c0.186-0.248,0.409-0.467,0.578-0.724
		c0.832-1.256,2.025-2.044,3.378-2.627c0.062-0.026,0.151,0.011,0.229,0.019c0.007,0.034,0.013,0.069,0.019,0.104
		c-0.257,0.135-0.521,0.259-0.771,0.408c-0.505,0.301-1.051,0.559-1.489,0.939c-0.472,0.41-0.841,0.939-1.252,1.418
		c-0.173,0.202-0.333,0.417-0.513,0.612c-0.259,0.279-0.446,0.595-0.591,0.95c0.61-0.514,1.368-0.631,2.087-0.835
		c0.27-0.077,0.549-0.119,0.828-0.16c0.74-0.111,1.335-0.459,1.838-1.017c0.938-1.035,2.033-1.854,3.4-2.251
		c0.243-0.07,0.482-0.151,0.725-0.224c0.73-0.221,1.438-0.495,2.07-0.928c0.58-0.396,1.17-0.783,1.713-1.229
		c0.661-0.544,1.312-1.122,1.78-1.846c0.525-0.814,0.981-1.674,1.463-2.515c0.042-0.071,0.055-0.159,0.109-0.326
		c-0.225,0.165-0.375,0.266-0.516,0.381c-0.729,0.595-1.466,1.183-2.183,1.792c-1.116,0.947-2.398,1.616-3.704,2.246
		c-0.112,0.055-0.237,0.086-0.359,0.12c-0.937,0.267-1.893,0.42-2.862,0.491c-1.438,0.107-2.758,0.545-3.891,1.449
		c-0.471,0.375-0.916,0.789-1.325,1.23c-0.632,0.681-1.221,1.395-1.58,2.273C191.481,53.361,191.465,53.824,191.678,54.339z
		 M191.591,46.72c0.25,0.114,0.419,0.21,0.601,0.269c0.254,0.082,0.518,0.131,0.773,0.203c0.31,0.085,0.604,0.054,0.909-0.047
		c0.731-0.244,1.472-0.466,2.208-0.694c0.814-0.251,1.556-0.645,2.229-1.164c0.479-0.369,0.932-0.77,1.415-1.132
		c0.46-0.346,0.924-0.693,1.42-0.981c1.158-0.671,2.18-1.487,2.951-2.594c0.177-0.254,0.358-0.505,0.545-0.751
		c0.638-0.837,1.055-1.788,1.43-2.76c0.031-0.081,0.042-0.17,0.062-0.256c-0.131,0.108-0.219,0.234-0.312,0.356
		c-0.702,0.924-1.523,1.736-2.456,2.415c-1.704,1.241-3.624,2.019-5.672,2.494c-0.642,0.15-1.279,0.325-1.906,0.525
		c-0.534,0.17-1.062,0.371-1.574,0.599c-0.769,0.342-1.384,0.905-1.982,1.482c-0.242,0.232-0.466,0.488-0.674,0.752
		c-0.239,0.305-0.222,0.632-0.055,0.935c0.668-0.418,1.319-0.805,1.945-1.226c0.472-0.319,0.982-0.534,1.516-0.723
		c0.528-0.188,1.044-0.41,1.567-0.616c0.069-0.027,0.143-0.047,0.228-0.076c0.062,0.229-0.086,0.278-0.209,0.329
		c-0.374,0.16-0.741,0.349-1.132,0.457c-1.201,0.334-2.207,1.031-3.229,1.7C191.995,46.344,191.831,46.516,191.591,46.72z
		 M187.738,46.263c-0.019-0.915-0.371-1.71-0.839-2.454c-0.498-0.79-1.251-1.149-2.176-1.136c-0.753,0.011-1.146,0.5-0.968,1.222
		c0.289,1.163,0.854,2.196,1.589,3.134c0.272,0.346,0.621,0.611,1.028,0.79c0.185,0.081,0.384,0.14,0.566,0.021
		c0.261-0.168,0.519-0.354,0.608-0.671C187.631,46.872,187.677,46.565,187.738,46.263z M183.495,54.81
		c-0.273,0.018-0.513,0.025-0.749,0.048c-0.417,0.039-0.789,0.201-1.119,0.45c-0.302,0.229-0.528,0.521-0.522,0.917
		c0.014,0.823,0.463,1.492,1.171,1.743c0.831,0.294,1.702,0.373,2.562,0.075c0.465-0.162,0.827-0.485,1.068-0.911
		c0.514-0.912-0.096-2.036-1.188-2.196C184.301,54.875,183.88,54.849,183.495,54.81z M194.088,41.035
		c1.381-0.075,2.016-0.277,3.101-1.062c0.482-0.348,0.83-0.797,0.89-1.416c0.05-0.537-0.459-1.093-0.996-1.071
		c-1.785,0.07-3.023,0.981-3.837,2.528c-0.064,0.122-0.1,0.263-0.128,0.398c-0.057,0.267-0.02,0.36,0.242,0.453
		C193.593,40.948,193.844,40.98,194.088,41.035z M189.817,53.284c-0.301,0.176-0.563,0.334-0.831,0.484
		c-0.179,0.1-0.229,0.25-0.26,0.445c-0.154,0.987-0.186,1.982-0.191,2.979c-0.001,0.329,0.031,0.659,0.048,0.988
		c0.028,0.006,0.057,0.012,0.086,0.019c0.377-0.6,0.711-1.231,1.141-1.79c0.441-0.574,0.977-1.074,1.441-1.575
		c-0.091-0.354-0.174-0.674-0.257-1.001C190.525,53.859,190.132,53.714,189.817,53.284z M193.831,49.341
		c-0.008-0.037-0.016-0.074-0.023-0.111c-0.232,0-0.471-0.029-0.698,0.005c-0.783,0.121-1.477,0.443-2.063,0.981
		c-0.763,0.701-1.083,1.553-0.854,2.584c0.111,0.503,0.34,0.632,0.865,0.478C191.515,51.648,192.7,50.513,193.831,49.341z
		 M187.6,61.36c-1.251,1.126-2.615,1.991-3.423,3.428c0.057,0.035,0.079,0.062,0.103,0.062c1.092-0.013,2.084-0.324,2.901-1.062
		c0.251-0.228,0.403-0.566,0.595-0.859c0.027-0.042,0.03-0.11,0.022-0.163C187.74,62.334,187.678,61.907,187.6,61.36z
		 M188.801,60.188c0.036,0.343,0.051,0.649,0.106,0.948c0.023,0.121,0.112,0.265,0.215,0.329c0.926,0.578,1.928,0.609,2.954,0.35
		c0.182-0.045,0.359-0.149,0.402-0.402C191.309,60.875,190.121,60.438,188.801,60.188z"/>
	<linearGradient id="SVGID_2_" gradientUnits="userSpaceOnUse" x1="198.168" y1="4.564" x2="196.668" y2="142.0652">
		<stop  offset="0.0498" style="stop-color:#1AB2AB"/>
		<stop  offset="0.4773" style="stop-color:#0C4958"/>
		<stop  offset="1" style="stop-color:#16233B"/>
	</linearGradient>
	<path fill-rule="evenodd" clip-rule="evenodd" fill="url(#SVGID_2_)" d="M197.914,114.91c0.104-0.021,0.169-0.033,0.233-0.047
		c0.719-0.162,1.353,0.18,1.602,0.875c0.247,0.689,0.144,1.361-0.146,2.01c-0.13,0.293-0.305,0.57-0.488,0.834
		c-0.109,0.158-0.126,0.287-0.072,0.467c0.133,0.441,0.222,0.896,0.361,1.336c0.108,0.348,0.258,0.682,0.404,1.014
		c0.035,0.078,0.131,0.131,0.219,0.213c0.092-0.104,0.165-0.186,0.236-0.266c0.241-0.275,0.416-0.32,0.742-0.166
		c0.681,0.324,1.011,0.889,1.001,1.625c-0.011,0.707-0.258,1.352-0.72,1.895c-0.472,0.553-1.124,0.531-1.582-0.039
		c-0.507-0.633-0.577-1.346-0.293-2.068c0.163-0.412,0.133-0.738-0.08-1.102c-0.259-0.441-0.392-0.926-0.466-1.434
		c-0.039-0.268-0.143-0.527-0.229-0.832c-0.161,0.17-0.275,0.289-0.425,0.447c0.106,0.277,0.196,0.605,0.352,0.896
		c0.396,0.746,0.446,1.535,0.306,2.338c-0.166,0.955-0.284,1.92-0.552,2.855c-0.127,0.441-0.158,0.912-0.207,1.373
		c-0.087,0.797-0.173,1.594-0.224,2.393c-0.066,1.023-0.129,2.051-0.136,3.074c-0.012,1.799-0.069,3.6,0.205,5.389
		c0.062,0.4,0.022,0.814,0.058,1.221c0.073,0.867,0.166,1.734,0.247,2.6c0.011,0.111,0.017,0.23-0.013,0.334
		c-0.018,0.068-0.104,0.162-0.159,0.162c-0.08,0-0.181-0.061-0.233-0.127c-0.045-0.057-0.041-0.158-0.049-0.24
		c-0.063-0.643-0.122-1.287-0.182-1.93c-0.02-0.195-0.047-0.391-0.062-0.586c-0.084-1.023-0.178-2.043-0.242-3.068
		c-0.035-0.561-0.026-1.123-0.029-1.686c-0.004-0.803,0.004-1.604,0.001-2.404c-0.008-2.131,0.222-4.24,0.517-6.344
		c0.079-0.566,0.26-1.121,0.372-1.684c0.101-0.51,0.175-1.025,0.254-1.539c0.096-0.625,0.057-1.23-0.237-1.809
		c-0.139-0.273-0.24-0.566-0.384-0.91c-0.212,0.184-0.413,0.348-0.604,0.521c-0.507,0.467-1.005,0.943-1.515,1.406
		c-0.511,0.463-1.018,0.928-1.548,1.367c-0.573,0.477-1.163,0.93-1.759,1.377c-0.251,0.188-0.424,0.393-0.433,0.723
		c-0.004,0.15-0.062,0.301-0.105,0.449c-0.209,0.73-0.208,1.471-0.125,2.217c0.02,0.178,0.094,0.258,0.273,0.311
		c0.841,0.24,1.351,1.154,1.104,1.99c-0.09,0.309-0.239,0.6-0.38,0.889c-0.221,0.455-0.586,0.73-1.101,0.715
		c-0.525-0.018-0.885-0.326-1.129-0.773c-0.159-0.293-0.21-0.605-0.149-0.939c0.119-0.652,0.362-1.234,0.851-1.705
		c0.065-0.062,0.107-0.195,0.095-0.287c-0.106-0.76-0.117-1.512,0.057-2.264c0.03-0.133,0.004-0.279,0.004-0.457
		c-0.105,0.061-0.205,0.102-0.287,0.166c-0.989,0.779-2.086,1.369-3.219,1.914c-1.166,0.561-2.32,1.146-3.555,1.543
		c-0.869,0.279-1.737,0.574-2.656,0.65c-0.207,0.018-0.294,0.123-0.354,0.295c-0.233,0.66-0.472,1.32-0.698,1.957
		c0.556,0.873,0.376,2.287-0.352,2.984c-0.54,0.518-1.367,0.406-1.77-0.26c-0.208-0.344-0.303-0.717-0.179-1.129
		c0.283-0.936,0.896-1.502,1.868-1.734c0.219-0.641,0.443-1.301,0.688-2.018c-0.182,0.02-0.329,0.027-0.474,0.053
		c-1.028,0.17-2.055,0.377-3.094-0.043c-0.024,0.102-0.047,0.15-0.048,0.201c-0.018,1.266,0.009,2.527,0.119,3.793
		c0.131,1.498,0.181,3.002,0.038,4.506c-0.032,0.336-0.119,0.664-0.181,0.994c-0.134,0.719-0.261,1.439-0.405,2.156
		c-0.052,0.26-0.142,0.514-0.223,0.768c-0.046,0.143-0.133,0.27-0.308,0.209c-0.17-0.059-0.159-0.209-0.124-0.355
		c0.117-0.49,0.245-0.979,0.351-1.475c0.131-0.617,0.249-1.238,0.358-1.861c0.056-0.316,0.092-0.641,0.108-0.963
		c0.061-1.223,0.035-2.443-0.053-3.666c-0.055-0.756-0.11-1.514-0.134-2.273c-0.02-0.658,0.004-1.318,0.008-1.979
		c0-0.068-0.007-0.139-0.011-0.236c-0.538-0.287-1.08-0.59-1.424-1.184c-0.086,0.158-0.143,0.264-0.203,0.369
		c-0.473,0.828-1.516,1.312-2.446,1.137c-0.47-0.09-0.689-0.361-0.719-0.85c-0.032-0.535,0.148-0.955,0.586-1.275
		c0.423-0.311,0.854-0.59,1.371-0.723c0.44-0.111,0.858-0.133,1.255,0.258c0.23-0.9,0.838-1.451,1.567-1.912
		c-0.077-0.73-0.12-1.453-0.252-2.176c-0.15-0.826-0.208-1.674-0.246-2.516c-0.07-1.602-0.106-3.203-0.14-4.807
		c-0.019-0.912-0.003-1.826-0.003-2.74c0-0.926-0.195-1.822-0.548-2.67c-0.47-1.131-0.711-2.301-0.807-3.518
		c-0.092-1.146-0.175-2.297-0.48-3.42c-0.133-0.486-0.2-0.99-0.307-1.484c-0.146-0.68-0.159-1.365-0.131-2.057
		c0.058-1.363,0.111-2.725,0.155-4.09c0.044-1.367,0.376-2.658,0.927-3.91c0.235-0.535,0.36-1.119,0.508-1.689
		c0.112-0.436,0.181-0.881,0.269-1.322c0.012-0.055,0.022-0.111,0.038-0.164c0.039-0.133,0.11-0.24,0.266-0.215
		c0.182,0.029,0.205,0.174,0.177,0.324c-0.088,0.455-0.198,0.906-0.269,1.365c-0.139,0.885-0.48,1.697-0.819,2.518
		c-0.456,1.104-0.626,2.27-0.661,3.459c-0.039,1.377-0.089,2.754-0.149,4.131c-0.027,0.627,0.08,1.232,0.199,1.84
		c0.186,0.951,0.406,1.896,0.559,2.852c0.116,0.736,0.163,1.482,0.22,2.225c0.077,0.99,0.311,1.939,0.686,2.859
		c0.369,0.904,0.608,1.842,0.623,2.824c0.016,1.055-0.001,2.109,0.021,3.162c0.029,1.547,0.069,3.092,0.127,4.639
		c0.037,1.012,0.19,2.01,0.349,3.01c0.133,0.842,0.202,1.697,0.164,2.562c-0.031,0.709,0.07,1.426,0.115,2.18
		c0.485,0.258,1.032,0.371,1.599,0.309c0.937-0.104,1.87-0.225,2.801-0.371c1.088-0.172,2.144-0.482,3.148-0.924
		c1.285-0.562,2.557-1.166,3.801-1.818c0.667-0.35,1.273-0.822,1.889-1.266c0.741-0.535,1.477-1.078,2.186-1.654
		c0.61-0.494,1.185-1.037,1.771-1.562c0.834-0.754,1.662-1.514,2.499-2.264c0.142-0.127,0.206-0.246,0.15-0.438
		c-0.103-0.35-0.188-0.703-0.275-1.057c-0.085-0.344-0.11-0.686-0.043-1.041c0.264-1.426,0.864-2.693,1.703-3.865
		c0.766-1.064,1.354-2.232,1.905-3.42c0.231-0.496,0.493-0.977,0.734-1.467c0.1-0.201,0.174-0.414,0.27-0.617
		c0.287-0.596,0.576-1.189,0.87-1.779c0.035-0.072,0.094-0.148,0.162-0.189c0.553-0.332,0.97-0.814,1.366-1.303
		c0.861-1.059,1.784-2.061,2.715-3.059c0.574-0.617,1.11-1.268,1.739-1.832c0.377-0.34,0.695-0.738,0.905-1.205
		c0.108-0.238,0.297-0.361,0.517-0.467c0.966-0.461,1.941-0.885,2.982-1.156c0.417-0.109,0.811-0.316,1.206-0.498
		c0.663-0.307,1.319-0.627,1.978-0.945c1.044-0.5,2.133-0.881,3.27-1.094c0.664-0.123,1.331-0.213,1.97-0.441
		c0.168-0.061,0.334-0.131,0.493-0.215c0.125-0.066,0.242-0.102,0.336,0.025c0.094,0.125,0.044,0.258-0.066,0.334
		c-0.147,0.102-0.309,0.189-0.477,0.25c-0.77,0.281-1.579,0.387-2.379,0.545c-1.29,0.254-2.486,0.781-3.665,1.355
		c-1.149,0.559-2.304,1.1-3.545,1.451c-0.669,0.189-1.294,0.539-1.93,0.834c-0.118,0.055-0.229,0.176-0.289,0.295
		c-0.248,0.5-0.607,0.92-1.015,1.285c-0.663,0.594-1.191,1.311-1.82,1.93c-1.185,1.168-2.165,2.514-3.311,3.713
		c-0.098,0.102-0.182,0.221-0.293,0.303c-0.669,0.492-0.942,1.236-1.264,1.953c-0.155,0.344-0.325,0.684-0.487,1.023
		c-0.212,0.445-0.424,0.889-0.633,1.332c-0.608,1.301-1.299,2.555-2.134,3.727C198.368,113.867,198.075,114.33,197.914,114.91z
		 M200.769,121.584c-0.18,0.15-0.312,0.254-0.434,0.369c-0.418,0.398-0.607,0.898-0.61,1.473c-0.002,0.4,0.143,0.744,0.417,1.027
		c0.243,0.25,0.515,0.26,0.732,0.014c0.475-0.539,0.728-1.17,0.649-1.896C201.472,122.086,201.202,121.746,200.769,121.584z
		 M192.701,130.012c-0.003-0.475-0.171-0.771-0.438-1.018c-0.322-0.299-0.68-0.275-0.942,0.07c-0.302,0.396-0.485,0.848-0.529,1.35
		c-0.035,0.4,0.147,0.707,0.455,0.938c0.278,0.209,0.667,0.189,0.879-0.072C192.445,130.887,192.677,130.439,192.701,130.012z
		 M173.245,129.619c0.397-0.031,0.831-0.234,1.208-0.572c0.359-0.32,0.458-0.715,0.364-1.178c-0.034-0.164-0.12-0.252-0.271-0.273
		c-0.108-0.018-0.225-0.01-0.334,0.01c-0.615,0.107-1.114,0.436-1.563,0.85c-0.076,0.072-0.146,0.184-0.165,0.285
		C172.356,129.438,172.463,129.604,173.245,129.619z M180.505,133.045c-0.027-0.109-0.05-0.264-0.106-0.404
		c-0.087-0.211-0.22-0.262-0.44-0.207c-0.592,0.148-1.207,0.879-1.261,1.496c-0.032,0.381,0.21,0.789,0.542,0.916
		c0.33,0.125,0.61,0,0.873-0.396C180.387,134.037,180.432,133.561,180.505,133.045z M197.677,118.529
		c0.483-0.488,0.85-0.949,1-1.535c0.063-0.25,0.055-0.527,0.034-0.789c-0.011-0.16-0.136-0.309-0.325-0.229
		c-0.392,0.166-0.731,0.416-1.006,0.742c-0.056,0.066-0.074,0.188-0.065,0.279C197.361,117.502,197.495,117.982,197.677,118.529z
		 M176.836,128.414c0-0.258,0.011-0.479-0.002-0.699c-0.014-0.227-0.05-0.453-0.08-0.711
		C176.107,127.547,176.148,128.066,176.836,128.414z"/>
	<linearGradient id="SVGID_3_" gradientUnits="userSpaceOnUse" x1="213.3555" y1="4.73" x2="211.8555" y2="142.2332">
		<stop  offset="0.0498" style="stop-color:#1AB2AB"/>
		<stop  offset="0.4773" style="stop-color:#0C4958"/>
		<stop  offset="1" style="stop-color:#16233B"/>
	</linearGradient>
	<path fill-rule="evenodd" clip-rule="evenodd" fill="url(#SVGID_3_)" d="M207.279,95.834c-0.29,0.271-0.552,0.506-0.796,0.758
		c-0.242,0.248-0.274,0.443-0.142,0.637s0.412,0.256,0.683,0.137c0.167-0.074,0.332-0.156,0.485-0.256
		c0.929-0.596,1.778-1.277,2.402-2.211c0.202-0.303,0.459-0.568,0.683-0.857c0.424-0.543,0.822-1.105,1.266-1.633
		c0.678-0.807,1.373-1.6,2.082-2.381c0.604-0.664,1.247-1.295,1.855-1.957c0.446-0.486,0.847-1.016,1.299-1.496
		c0.691-0.738,1.417-1.445,2.112-2.182c0.347-0.365,0.654-0.768,0.985-1.148c0.151-0.172,0.318-0.332,0.531-0.553
		c-0.301-0.484-0.601-1.039-0.968-1.545c-0.279-0.389-0.614-0.393-0.991-0.113c-0.342,0.252-0.396,0.629-0.113,0.945
		c0.26,0.287,0.536,0.574,0.994,0.506c-0.003-0.215-0.15-0.275-0.287-0.344c-0.122-0.062-0.226-0.145-0.166-0.293
		c0.064-0.162,0.206-0.18,0.354-0.121c0.089,0.035,0.182,0.078,0.257,0.137c0.284,0.219,0.409,0.572,0.297,0.811
		c-0.116,0.25-0.377,0.344-0.77,0.275c-0.554-0.094-1.209-0.695-1.302-1.193c-0.088-0.473,0.12-0.898,0.572-1.168
		c0.494-0.293,0.942-0.287,1.322,0.066c0.229,0.215,0.416,0.475,0.664,0.768c0-0.184,0.012-0.316-0.001-0.447
		c-0.161-1.693-0.298-3.388-0.503-5.077c-0.087-0.72-0.302-1.428-0.493-2.131c-0.292-1.075-0.546-2.153-0.598-3.27
		c-0.013-0.247-0.108-0.44-0.258-0.646c-0.221-0.304-0.367-0.659-0.56-0.985c-0.396-0.68-0.781-1.365-1.207-2.025
		c-0.412-0.639-0.839-1.265-1.089-1.992c-0.067-0.197-0.172-0.386-0.277-0.566c-0.156-0.266-0.278-0.29-0.552-0.138
		c-0.049,0.027-0.093,0.063-0.142,0.092c-0.341,0.201-0.664,0.187-0.976-0.067c-0.521-0.423-0.947-0.921-1.227-1.535
		c-0.098-0.214-0.197-0.426-0.311-0.67c-0.266,0.273-0.337,0.482-0.21,0.845c0.406,1.157,1.117,2.136,1.726,3.176
		c0.426,0.727,0.766,1.502,1.164,2.244c0.404,0.756,0.832,1.498,1.256,2.243c0.259,0.453,0.497,0.914,0.593,1.434
		c0.021,0.11,0.036,0.223,0.04,0.334c0.005,0.142-0.055,0.274-0.206,0.259c-0.082-0.008-0.164-0.119-0.223-0.201
		c-0.037-0.052-0.047-0.134-0.047-0.203c-0.002-0.439-0.264-0.665-0.63-0.847c-0.717-0.357-1.758-0.066-2.151,0.626
		c-0.22,0.385-0.155,0.605,0.255,0.756c0.464,0.17,0.932,0.237,1.357-0.114c0.09-0.074,0.199-0.162,0.094-0.271
		c-0.062-0.066-0.195-0.088-0.295-0.084c-0.072,0.004-0.139,0.104-0.215,0.117c-0.086,0.017-0.214,0.012-0.258-0.04
		c-0.049-0.056-0.059-0.198-0.02-0.264c0.131-0.224,0.355-0.317,0.605-0.317c0.297-0.001,0.567,0.212,0.676,0.495
		c0.091,0.241,0.023,0.433-0.157,0.607c-0.59,0.574-1.696,0.621-2.327,0.094c-0.292-0.244-0.381-0.536-0.251-0.903
		c0.328-0.931,1.237-1.399,2.266-1.295c0.137,0.013,0.271,0.048,0.462,0.083c-0.054-0.127-0.083-0.211-0.124-0.288
		c-0.515-0.967-1.029-1.935-1.547-2.898c-0.293-0.545-0.571-1.099-0.895-1.625c-0.58-0.945-1.148-1.886-1.572-2.923
		c-0.363-0.893-0.908-1.711-1.373-2.562c-0.066-0.123-0.153-0.241-0.194-0.373c-0.222-0.713-0.762-1.158-1.305-1.613
		c-1.029-0.866-2.212-1.492-3.34-2.206c-0.198-0.124-0.375-0.052-0.564-0.046c-0.188,0.005-0.374-0.045-0.537,0.146
		c-0.179,0.209-0.455,0.265-0.73,0.275c-1.151,0.045-2.124-0.327-2.868-1.23c-0.019-0.021-0.04-0.039-0.062-0.055
		c-0.011-0.007-0.027-0.005-0.057-0.01c-0.146,0.216-0.159,0.458-0.122,0.71c0.156,1.056,0.653,1.934,1.404,2.678
		c0.58,0.572,1.157,1.148,1.744,1.714c0.396,0.381,0.826,0.718,1.327,0.959c0.276,0.134,0.535,0.307,0.818,0.472
		c0,0,0.037,0.004,0.049-0.012c0.091-0.122,0.163-0.299,0.354-0.219c0.192,0.079,0.125,0.257,0.096,0.405
		c-0.148,0.751,0.021,1.485,0.139,2.218c0.191,1.203,0.675,2.319,1.094,3.45c0.297,0.803,0.677,1.575,1.038,2.353
		c0.104,0.226,0.255,0.438,0.416,0.631c0.141,0.17,0.163,0.313,0.03,0.487c-0.712,0.93-1.055,2.042-1.529,3.09
		c-0.203,0.447-0.404,0.898-0.641,1.327c-0.62,1.125-1.112,2.302-1.551,3.505c-0.206,0.566-0.413,1.135-0.585,1.713
		c-0.082,0.275-0.13,0.578-0.114,0.865c0.06,1.127,0.069,2.248-0.15,3.361c-0.164,0.832-0.502,1.576-1.128,2.172
		c-0.216,0.207-0.454,0.297-0.755,0.311c-0.843,0.043-1.498-0.312-2.038-0.918c-0.177-0.199-0.321-0.426-0.479-0.643
		c-0.337-0.459-0.376-0.965-0.187-1.482c0.143-0.396,0.322-0.779,0.505-1.16c0.254-0.531,0.717-0.732,1.276-0.73
		c0.567,0.002,1.087,0.414,1.158,0.975c0.045,0.338,0,0.697-0.057,1.039c-0.042,0.254-0.219,0.455-0.455,0.58
		c-0.354,0.188-0.762,0.008-0.827-0.357c-0.024-0.148-0.008-0.293,0.151-0.354c0.172-0.064,0.26,0.037,0.303,0.195
		c0.011,0.039,0.036,0.074,0.053,0.105c0.034,0,0.071,0.012,0.088-0.002c0.367-0.299,0.449-1.111,0.148-1.453
		c-0.335-0.381-1.062-0.373-1.326,0.07c-0.262,0.443-0.454,0.934-0.626,1.422c-0.105,0.297-0.028,0.607,0.162,0.881
		c0.266,0.381,0.526,0.76,0.924,1.027c0.29,0.193,0.593,0.295,0.938,0.34c0.414,0.053,0.699-0.1,0.949-0.408
		c0.393-0.48,0.631-1.027,0.752-1.629c0.236-1.182,0.242-2.371,0.122-3.568c-0.105-1.049-0.135-2.094-0.016-3.153
		c0.204-1.829,0.369-3.664,0.372-5.511c0.001-0.529,0.094-1.062,0.153-1.591c0.053-0.476,0.116-0.948,0.176-1.423
		c0.008-0.069-0.009-0.154,0.026-0.205c0.05-0.072,0.139-0.165,0.21-0.164c0.066,0.001,0.162,0.098,0.194,0.173
		c0.034,0.086,0.022,0.194,0.013,0.292c-0.037,0.392-0.083,0.782-0.122,1.174c-0.07,0.698-0.184,1.396-0.196,2.096
		c-0.037,1.956-0.238,3.9-0.427,5.846c-0.027,0.273-0.029,0.548-0.043,0.824c0.032,0.008,0.064,0.018,0.097,0.025
		c0.061-0.146,0.129-0.289,0.179-0.439c0.503-1.511,1.135-2.963,1.912-4.355c0.32-0.575,0.532-1.208,0.8-1.812
		c0.341-0.769,0.627-1.565,1.155-2.226c-1.104-1.855-1.816-3.853-2.418-5.888c-0.213-0.721-0.263-1.492-0.355-2.243
		c-0.026-0.21-0.063-0.386-0.229-0.512c-0.234-0.178-0.459-0.379-0.718-0.509c-0.69-0.346-1.276-0.811-1.799-1.374
		c-0.383-0.411-0.793-0.798-1.206-1.178c-0.826-0.76-1.453-1.631-1.715-2.745c-0.142-0.6-0.155-1.168,0.195-1.723
		c-0.113-0.196-0.229-0.387-0.336-0.582c-0.104-0.19-0.191-0.39-0.014-0.584c0.161-0.177,0.371-0.139,0.55-0.056
		c1.084,0.499,2.162,1.009,3.241,1.521c0.087,0.042,0.166,0.107,0.236,0.174c0.355,0.335,0.76,0.512,1.262,0.443
		c0.111-0.017,0.251,0.029,0.353,0.089c1.354,0.803,2.721,1.588,3.902,2.646c0.393,0.353,0.686,0.758,0.917,1.239
		c0.357,0.745,0.795,1.449,1.209,2.192c0.152-0.14,0.27-0.259,0.399-0.363c0.127-0.1,0.146-0.217,0.136-0.37
		c-0.017-0.236-0.028-0.48,0.007-0.713c0.073-0.489,0.386-0.604,0.772-0.285c0.16,0.132,0.295,0.299,0.428,0.462
		c0.311,0.381,0.609,0.771,0.917,1.154c0.405,0.506,0.794,1.021,1.047,1.625c0.026,0.064,0.056,0.155,0.106,0.174
		c0.345,0.134,0.469,0.451,0.575,0.744c0.451,1.23,1.243,2.26,1.921,3.357c0.301,0.489,0.529,1.022,0.796,1.533
		c0.076,0.147,0.143,0.317,0.262,0.424c0.242,0.219,0.32,0.486,0.327,0.79c0.023,0.892,0.209,1.758,0.423,2.618
		c0.163,0.653,0.396,1.293,0.522,1.953c0.139,0.729,0.198,1.474,0.277,2.213c0.133,1.244,0.252,2.49,0.379,3.734
		c0.007,0.066,0.029,0.131,0.065,0.279c0.237-0.75,0.404-1.428,0.482-2.125c0.066-0.599,0.264-1.143,0.643-1.623
		c0.36-0.456,0.802-0.643,1.372-0.505c0.054,0.013,0.108,0.021,0.173,0.03c0.189-0.249,0.373-0.497,0.565-0.737
		c0.15-0.187,0.311-0.4,0.591-0.307c0.257,0.087,0.286,0.342,0.279,0.565c-0.021,0.674-0.055,1.348-0.106,2.021
		c-0.048,0.645-0.131,1.286-0.182,1.93c-0.008,0.109,0.036,0.258,0.11,0.33c0.189,0.184,0.252,0.404,0.261,0.646
		c0.007,0.268-0.008,0.535-0.009,0.801c0,0.605-0.019,1.209,0.009,1.812c0.024,0.562-0.074,1.084-0.332,1.588
		c-0.782,1.531-1.341,3.152-1.847,4.793c-0.133,0.428-0.229,0.867-0.349,1.301c-0.033,0.121-0.064,0.258-0.145,0.344
		c-0.075,0.082-0.211,0.141-0.322,0.143c-0.151,0.006-0.204-0.127-0.203-0.268c0.003-0.281-0.154-0.49-0.345-0.65
		c-0.527-0.441-1.127-0.686-1.831-0.568c-0.401,0.066-0.641,0.514-0.483,0.895c0.188,0.459,1.026,0.844,1.575,0.686
		c-0.053-0.102-0.095-0.195-0.15-0.281c-0.054-0.082-0.149-0.145-0.175-0.232c-0.023-0.078-0.004-0.209,0.049-0.256
		s0.205-0.051,0.257-0.006c0.149,0.123,0.304,0.264,0.393,0.432c0.212,0.402-0.047,0.844-0.501,0.895
		c-0.588,0.068-1.56-0.479-1.851-0.996c-0.288-0.514,0.041-1.582,0.873-1.611c0.926-0.029,1.719,0.205,2.349,0.906
		c0.035,0.039,0.08,0.07,0.142,0.121c0.044-0.115,0.088-0.201,0.111-0.293c0.491-1.971,1.2-3.861,2.099-5.682
		c0.152-0.309,0.224-0.629,0.222-0.977c-0.007-0.885,0.005-1.771,0.003-2.656c-0.001-0.166-0.029-0.332-0.046-0.498
		c-0.101-0.037-0.178-0.09-0.258-0.092c-0.415-0.016-0.602-0.283-0.672-0.637c-0.095-0.467-0.171-0.938-0.216-1.412
		c-0.049-0.501-0.053-1.009-0.075-1.522c-0.386-0.211-0.604-0.175-0.903,0.152c-0.407,0.447-0.551,0.995-0.641,1.575
		c-0.079,0.514-0.191,1.023-0.311,1.527c-0.174,0.738-0.344,1.479-0.558,2.205c-0.256,0.877-0.543,1.744-0.842,2.605
		c-0.17,0.49-0.398,0.959-0.586,1.443c-0.097,0.246-0.178,0.502-0.234,0.762c-0.049,0.223-0.166,0.324-0.383,0.289
		c-0.903-0.148-1.685,0.189-2.45,0.6c-0.532,0.283-1.069,0.559-1.597,0.852c-0.145,0.08-0.276,0.195-0.389,0.318
		c-0.673,0.738-1.353,1.471-2,2.23c-0.426,0.502-0.797,1.053-1.203,1.57c-0.572,0.73-1.136,1.469-1.738,2.174
		c-0.722,0.844-1.603,1.496-2.611,1.959c-0.429,0.199-0.93,0.051-1.175-0.297c-0.227-0.322-0.226-0.818,0.098-1.129
		c0.575-0.553,1.191-1.066,1.807-1.578c0.145-0.119,0.349-0.186,0.537-0.23c0.296-0.07,0.488,0.117,0.468,0.424
		c-0.005,0.057-0.01,0.115-0.032,0.166c-0.221,0.463-0.551,0.814-1.055,0.963C207.514,96.209,207.467,96.174,207.279,95.834z
		 M220.519,83.697c-0.021-0.006-0.042-0.014-0.062-0.02c-0.285,0.326-0.55,0.674-0.857,0.979c-0.941,0.926-1.882,1.852-2.726,2.871
		c-0.229,0.275-0.456,0.551-0.683,0.826c0.925-0.412,1.818-0.846,2.844-0.746c0.272-0.664,0.544-1.295,0.787-1.936
		C220.068,85.02,220.287,84.357,220.519,83.697z M212.794,60.616c-0.011,0.007-0.032,0.013-0.032,0.021
		c-0.08,1.326,0.478,2.357,1.479,3.18c0.151,0.125,0.316,0.11,0.466,0c0.11-0.081,0.207-0.179,0.301-0.263
		C214.781,63.005,213.126,60.815,212.794,60.616z M200.631,54.144c0.74,1.826,2.688,2.378,3.569,1.793
		C203.107,55.119,201.882,54.638,200.631,54.144z M224.766,76.578c-0.51,0.49-0.786,0.977-0.71,1.626
		c0.053,0.46,0.042,0.925,0.092,1.384c0.034,0.32,0.112,0.635,0.277,0.924C224.528,79.223,224.802,77.96,224.766,76.578z
		 M208.286,95.205c-0.022-0.035-0.044-0.068-0.066-0.1c-0.229,0.172-0.459,0.346-0.689,0.52c0.019,0.023,0.037,0.049,0.054,0.074
		C207.898,95.652,208.103,95.445,208.286,95.205z"/>
	<linearGradient id="SVGID_4_" gradientUnits="userSpaceOnUse" x1="210.9053" y1="4.7061" x2="209.4053" y2="142.2027">
		<stop  offset="0.0498" style="stop-color:#1AB2AB"/>
		<stop  offset="0.4773" style="stop-color:#0C4958"/>
		<stop  offset="1" style="stop-color:#16233B"/>
	</linearGradient>
	<path fill-rule="evenodd" clip-rule="evenodd" fill="url(#SVGID_4_)" d="M203.544,91.678c-0.001,0.344,0.081,0.67,0.263,0.965
		c0.149,0.242,0.308,0.318,0.566,0.193c0.3-0.143,0.585-0.33,0.844-0.539c0.251-0.201,0.477-0.438,0.685-0.684
		c0.299-0.354,0.598-0.711,0.851-1.098c0.777-1.188,1.544-2.383,2.294-3.588c0.481-0.775,0.922-1.576,1.389-2.361
		c0.337-0.568,0.688-1.127,1.028-1.691c0.317-0.531,0.63-1.064,0.941-1.6c0.185-0.314,0.349-0.643,0.55-0.947
		c0.58-0.875,0.923-1.861,1.329-2.816c0.482-1.128,1.005-2.229,1.707-3.239c0.216-0.311,0.373-0.66,0.559-0.991
		c0.048-0.086,0.084-0.187,0.155-0.245c0.053-0.041,0.159-0.049,0.229-0.026c0.05,0.017,0.11,0.108,0.104,0.16
		c-0.013,0.122-0.042,0.251-0.101,0.358c-0.209,0.382-0.409,0.771-0.653,1.131c-0.61,0.901-1.092,1.868-1.502,2.872
		c-0.048,0.115-0.092,0.239-0.097,0.362c-0.033,0.701-0.056,1.403-0.075,2.104c-0.007,0.256-0.095,0.455-0.314,0.604
		c-1.255,0.844-2.142,2.016-2.91,3.289c-1.104,1.828-2.185,3.672-3.325,5.477c-0.523,0.83-0.997,1.703-1.688,2.416
		c-0.391,0.404-0.792,0.799-1.218,1.164c-0.186,0.16-0.432,0.264-0.668,0.344c-0.44,0.152-0.812,0.014-1.055-0.381
		c-0.324-0.523-0.427-1.1-0.298-1.701c0.034-0.158,0.13-0.311,0.227-0.447c0.271-0.379,0.659-0.609,1.091-0.758
		c0.414-0.141,0.77-0.023,0.971,0.289c0.217,0.338,0.203,0.695-0.039,0.975c-0.266,0.307-0.793,0.449-1.116,0.305
		c-0.178-0.08-0.249-0.252-0.174-0.414c0.078-0.17,0.223-0.221,0.408-0.09c0.163,0.115,0.286,0.078,0.42-0.014
		c0.136-0.092,0.226-0.203,0.167-0.389c-0.063-0.199-0.2-0.254-0.39-0.238C204.104,90.479,203.543,91.086,203.544,91.678z
		 M214.084,79.262c-0.279,0.504-0.517,0.934-0.754,1.361c0.021,0.02,0.042,0.039,0.062,0.061c0.229-0.17,0.462-0.334,0.684-0.51
		c0.047-0.037,0.074-0.123,0.072-0.188C214.139,79.773,214.111,79.561,214.084,79.262z"/>
	<linearGradient id="SVGID_5_" gradientUnits="userSpaceOnUse" x1="179.4688" y1="4.3643" x2="177.9688" y2="141.8606">
		<stop  offset="0.0498" style="stop-color:#1AB2AB"/>
		<stop  offset="0.4773" style="stop-color:#0C4958"/>
		<stop  offset="1" style="stop-color:#16233B"/>
	</linearGradient>
	<path fill-rule="evenodd" clip-rule="evenodd" fill="url(#SVGID_5_)" d="M181.263,87.6c0.137,1.084-0.731,2.227-1.667,2.574
		c-0.19,0.07-0.421,0.113-0.614,0.076c-0.806-0.158-1.554-0.496-2.069-1.135c-0.834-1.031-1.282-2.191-0.945-3.566
		c0.292-1.186,0.548-2.383,0.771-3.582c0.183-0.994,0.312-2,0.426-3.004c0.05-0.443,0.037-0.903-0.014-1.347
		c-0.148-1.324-0.079-2.639,0.07-3.956c0.062-0.544,0.102-1.091,0.16-1.635c0.012-0.109,0.038-0.23,0.1-0.313
		c0.048-0.063,0.177-0.117,0.245-0.096c0.065,0.021,0.141,0.139,0.144,0.216c0.005,0.151-0.049,0.305-0.062,0.458
		c-0.095,1.147-0.197,2.296-0.273,3.445c-0.026,0.391-0.022,0.791,0.027,1.18c0.181,1.397-0.003,2.769-0.202,4.152
		c-0.225,1.547-0.597,3.061-0.931,4.582c-0.194,0.891-0.071,1.697,0.388,2.51c0.4,0.707,0.952,1.143,1.66,1.475
		c0.638,0.301,1.146,0.131,1.615-0.301c1.081-0.994,0.836-2.408,0.286-3.189c-0.04-0.059-0.082-0.115-0.13-0.164
		c-0.543-0.572-1.063-0.545-1.479,0.119c-0.189,0.303-0.311,0.656-0.428,0.998c-0.075,0.227,0.016,0.453,0.181,0.619
		c0.065,0.068,0.205,0.104,0.299,0.088c0.058-0.01,0.1-0.145,0.138-0.229c0.015-0.035-0.018-0.094,0.003-0.123
		c0.052-0.072,0.13-0.195,0.177-0.188c0.092,0.018,0.21,0.094,0.246,0.176c0.15,0.352-0.141,0.801-0.525,0.838
		c-0.498,0.049-0.91-0.297-0.966-0.848c-0.022-0.219-0.006-0.455,0.049-0.666c0.123-0.484,0.376-0.91,0.712-1.279
		c0.36-0.395,0.769-0.473,1.261-0.26c0.873,0.377,1.223,1.111,1.346,1.992C181.281,87.369,181.263,87.525,181.263,87.6z"/>
</g>
<g>
</g>
<g>
</g>
<g>
</g>
<g>
</g>
<g>
</g>
<g>
</g>
</svg>
