<?xml version="1.0" encoding="utf-8"?>
<!-- Generator: Adobe Illustrator 16.0.0, SVG Export Plug-In . SVG Version: 6.00 Build 0)  -->
<!DOCTYPE svg PUBLIC "-//W3C//DTD SVG 1.1//EN" "http://www.w3.org/Graphics/SVG/1.1/DTD/svg11.dtd">
<svg version="1.1" id="Calque_1" xmlns="http://www.w3.org/2000/svg" xmlns:xlink="http://www.w3.org/1999/xlink" x="0px" y="0px"
	 width="144px" height="215px" viewBox="0 0 144 215" enable-background="new 0 0 144 215" xml:space="preserve">
<linearGradient id="SVGID_1_" gradientUnits="userSpaceOnUse" x1="72.6533" y1="186.1377" x2="71.4583" y2="-16.4917">
	<stop  offset="0.0498" style="stop-color:#16B1AA"/>
	<stop  offset="0.4773" style="stop-color:#0C4958"/>
	<stop  offset="1" style="stop-color:#16233B"/>
</linearGradient>
<rect x="0.187" y="-1" fill="url(#SVGID_1_)" width="144" height="216"/>
<circle fill="#FFFFFF" cx="72.615" cy="109.96" r="53.705"/>
<g>
	<g>
		<path fill="#16233B" d="M35.45,105.578l-1.05-0.393v-0.196h2.493v0.196l-1.05,0.393v8.792H35.45l-6.101-7.152v6.364l1.049,0.394
			v0.197h-2.492v-0.197l1.049-0.394v-8.135l-0.918-0.262v-0.196h1.378c0.262,0,0.489,0.028,0.682,0.085s0.36,0.131,0.506,0.222
			c0.145,0.093,0.269,0.194,0.373,0.302c0.105,0.11,0.197,0.214,0.276,0.31l4.198,4.92V105.578z"/>
		<path fill="#16233B" d="M41.222,107.416c0.544,0,1.028,0.078,1.458,0.236c0.428,0.157,0.794,0.387,1.096,0.689
			c0.302,0.303,0.53,0.667,0.688,1.096c0.157,0.428,0.236,0.915,0.236,1.456c0,0.543-0.079,1.028-0.236,1.456
			c-0.158,0.43-0.387,0.795-0.688,1.097c-0.302,0.301-0.668,0.53-1.096,0.688c-0.43,0.158-0.914,0.237-1.458,0.237
			c-0.541,0-1.026-0.079-1.455-0.237c-0.429-0.157-0.794-0.387-1.096-0.688c-0.302-0.302-0.531-0.667-0.689-1.097
			c-0.157-0.428-0.235-0.913-0.235-1.456c0-0.541,0.078-1.028,0.235-1.456c0.158-0.429,0.388-0.793,0.689-1.096
			c0.302-0.302,0.667-0.532,1.096-0.689C40.195,107.494,40.681,107.416,41.222,107.416z M41.222,114.107
			c0.15,0,0.299-0.048,0.448-0.145c0.146-0.097,0.281-0.264,0.399-0.505s0.215-0.568,0.289-0.984
			c0.072-0.415,0.111-0.941,0.111-1.581c0-0.639-0.039-1.165-0.111-1.581c-0.074-0.414-0.171-0.743-0.289-0.983
			c-0.118-0.241-0.253-0.41-0.399-0.505c-0.149-0.097-0.298-0.146-0.448-0.146c-0.147,0-0.296,0.049-0.445,0.146
			c-0.149,0.096-0.281,0.264-0.399,0.505c-0.119,0.24-0.215,0.569-0.289,0.983c-0.075,0.416-0.11,0.942-0.11,1.581
			c0,0.64,0.035,1.166,0.11,1.581c0.074,0.416,0.17,0.743,0.289,0.984c0.118,0.241,0.25,0.408,0.399,0.505
			S41.074,114.107,41.222,114.107z"/>
		<path fill="#16233B" d="M54.54,109.58c0-0.313-0.025-0.578-0.078-0.793c-0.054-0.214-0.121-0.389-0.204-0.525
			c-0.084-0.136-0.174-0.233-0.275-0.295c-0.102-0.061-0.199-0.093-0.295-0.093c-0.167,0-0.313,0.056-0.44,0.166
			c-0.127,0.109-0.237,0.229-0.333,0.36c-0.106,0.158-0.197,0.332-0.276,0.525v4.854l0.787,0.196v0.197h-3.674v-0.197l0.787-0.196
			v-4.199c0-0.313-0.025-0.578-0.078-0.793c-0.054-0.214-0.121-0.389-0.204-0.525c-0.083-0.136-0.174-0.233-0.274-0.295
			c-0.102-0.061-0.2-0.093-0.296-0.093c-0.167,0-0.312,0.056-0.44,0.166c-0.126,0.109-0.237,0.229-0.333,0.36
			c-0.105,0.158-0.197,0.332-0.276,0.525v4.854l0.787,0.196v0.197h-3.674v-0.197l0.787-0.196v-5.773l-0.787-0.197v-0.197h1.182
			c0.306,0,0.557,0.053,0.754,0.157s0.352,0.22,0.466,0.342c0.131,0.148,0.228,0.31,0.289,0.485
			c0.113-0.218,0.253-0.415,0.419-0.591c0.149-0.149,0.332-0.285,0.552-0.407c0.219-0.123,0.485-0.184,0.8-0.184
			c0.525,0,0.978,0.115,1.358,0.349c0.38,0.23,0.671,0.531,0.873,0.899c0.112-0.228,0.254-0.434,0.419-0.617
			c0.149-0.158,0.333-0.302,0.552-0.434c0.219-0.13,0.485-0.196,0.8-0.196c0.358,0,0.687,0.057,0.984,0.171
			c0.297,0.113,0.553,0.268,0.768,0.465c0.215,0.197,0.381,0.426,0.498,0.689c0.118,0.263,0.179,0.542,0.179,0.839v4.199
			l0.786,0.196v0.197h-1.705c-0.787,0-1.182-0.394-1.182-1.182V109.58z"/>
		<path fill="#16233B" d="M61.298,107.416c0.524,0,0.99,0.069,1.396,0.21c0.407,0.14,0.75,0.334,1.03,0.584
			c0.279,0.248,0.492,0.547,0.637,0.892c0.145,0.346,0.217,0.724,0.217,1.136v3.542l0.787,0.196v0.197h-1.181
			c-0.316,0-0.57-0.051-0.762-0.151c-0.192-0.1-0.346-0.212-0.46-0.334c-0.131-0.149-0.228-0.314-0.288-0.499
			c-0.113,0.228-0.258,0.424-0.433,0.591c-0.149,0.149-0.347,0.284-0.591,0.407c-0.245,0.122-0.538,0.184-0.88,0.184
			c-0.41,0-0.767-0.046-1.068-0.138c-0.302-0.093-0.553-0.219-0.755-0.381c-0.201-0.162-0.352-0.35-0.452-0.563
			c-0.101-0.215-0.151-0.445-0.151-0.689c0-0.201,0.021-0.388,0.065-0.558c0.045-0.17,0.097-0.322,0.158-0.452
			c0.069-0.158,0.148-0.302,0.236-0.434c0.366-0.087,0.756-0.167,1.167-0.236c0.35-0.062,0.743-0.12,1.182-0.177
			c0.438-0.058,0.878-0.095,1.325-0.112v-0.393c0-0.508-0.033-0.929-0.098-1.261c-0.066-0.332-0.161-0.595-0.282-0.786
			c-0.123-0.193-0.274-0.328-0.454-0.401c-0.179-0.074-0.383-0.112-0.609-0.112c-0.097,0-0.185,0.007-0.264,0.02
			c-0.078,0.014-0.147,0.029-0.209,0.047c-0.071,0.025-0.132,0.049-0.184,0.065v1.968c-0.062,0.018-0.118,0.03-0.171,0.039
			c-0.052,0.009-0.107,0.017-0.164,0.02c-0.057,0.006-0.121,0.008-0.19,0.008c-0.297,0-0.536-0.09-0.715-0.27
			c-0.18-0.179-0.27-0.418-0.27-0.715c0-0.185,0.048-0.361,0.139-0.531c0.092-0.172,0.236-0.324,0.434-0.459
			c0.196-0.136,0.447-0.245,0.754-0.328C60.5,107.457,60.869,107.416,61.298,107.416z M60.771,111.09
			c-0.051,0.113-0.096,0.245-0.13,0.394c-0.036,0.122-0.066,0.267-0.092,0.433c-0.026,0.166-0.041,0.35-0.041,0.552
			c0,0.523,0.082,0.896,0.243,1.114c0.162,0.219,0.343,0.329,0.546,0.329c0.2,0,0.373-0.056,0.518-0.165
			c0.145-0.108,0.265-0.229,0.361-0.36c0.113-0.157,0.215-0.332,0.302-0.525v-1.902c-0.202,0-0.402,0.008-0.604,0.02
			c-0.2,0.014-0.385,0.028-0.55,0.047C61.131,111.051,60.947,111.072,60.771,111.09z"/>
		<path fill="#16233B" d="M71.466,104.989c0.786,0,1.18,0.393,1.18,1.181v7.61l0.787,0.196v0.197h-1.181
			c-0.314,0-0.568-0.051-0.761-0.151c-0.191-0.1-0.346-0.212-0.459-0.334c-0.132-0.149-0.228-0.314-0.288-0.499
			c-0.114,0.228-0.259,0.424-0.433,0.591c-0.15,0.149-0.347,0.284-0.592,0.407c-0.244,0.122-0.537,0.184-0.879,0.184
			c-0.376,0-0.728-0.075-1.056-0.223c-0.328-0.149-0.612-0.368-0.853-0.657c-0.241-0.288-0.432-0.649-0.571-1.081
			c-0.141-0.434-0.21-0.939-0.21-1.517s0.069-1.082,0.21-1.516c0.14-0.433,0.337-0.793,0.591-1.082s0.558-0.508,0.911-0.657
			c0.355-0.147,0.746-0.223,1.175-0.223c0.228,0,0.436,0.026,0.623,0.078c0.188,0.054,0.348,0.114,0.479,0.184
			c0.156,0.079,0.292,0.166,0.407,0.263v-2.559l-0.789-0.196v-0.196H71.466z M70.548,108.334c-0.097-0.096-0.197-0.184-0.303-0.263
			c-0.096-0.069-0.201-0.131-0.315-0.183c-0.113-0.054-0.236-0.079-0.367-0.079c-0.166,0-0.321,0.042-0.466,0.125
			c-0.144,0.083-0.269,0.237-0.374,0.458c-0.104,0.224-0.188,0.536-0.249,0.939c-0.061,0.401-0.092,0.922-0.092,1.561
			c0,0.621,0.031,1.128,0.092,1.521c0.061,0.395,0.138,0.703,0.229,0.925c0.092,0.224,0.196,0.375,0.314,0.453
			c0.118,0.079,0.233,0.119,0.349,0.119c0.2,0,0.373-0.056,0.519-0.165c0.144-0.108,0.265-0.229,0.36-0.36
			c0.113-0.157,0.214-0.332,0.303-0.525V108.334z"/>
		<path fill="#16233B" d="M77.828,114.37c-1.12,0-1.99-0.31-2.611-0.925c-0.622-0.617-0.931-1.468-0.931-2.553
			c0-0.541,0.078-1.028,0.236-1.456c0.156-0.429,0.376-0.793,0.655-1.096c0.28-0.302,0.619-0.532,1.018-0.689
			c0.397-0.158,0.832-0.236,1.305-0.236c0.49,0,0.931,0.069,1.319,0.21c0.389,0.14,0.719,0.328,0.99,0.565
			c0.271,0.236,0.479,0.513,0.623,0.833c0.145,0.319,0.217,0.658,0.217,1.017c0,0.123-0.007,0.229-0.02,0.321
			c-0.014,0.092-0.03,0.173-0.046,0.243c-0.026,0.088-0.048,0.162-0.065,0.223c-0.386,0.079-0.792,0.145-1.22,0.197
			c-0.37,0.053-0.792,0.099-1.273,0.138s-0.983,0.059-1.509,0.059c0,0.542,0.039,0.995,0.117,1.358
			c0.079,0.362,0.188,0.652,0.328,0.866s0.307,0.366,0.499,0.459c0.191,0.092,0.403,0.138,0.63,0.138c0.262,0,0.51-0.049,0.74-0.145
			c0.233-0.097,0.434-0.226,0.604-0.388c0.17-0.162,0.205-0.139,0.307-0.345c0.1-0.206,0.521-0.312,0.401-0.068
			c-0.117,0.246-0.286,0.462-0.504,0.649c-0.219,0.188-0.481,0.339-0.789,0.453C78.546,114.312,78.205,114.37,77.828,114.37z
			 M76.517,110.893c0.296,0,0.559-0.006,0.786-0.02s0.421-0.028,0.579-0.046c0.183-0.017,0.341-0.039,0.471-0.065
			c0.018-0.088,0.04-0.185,0.067-0.289c0.016-0.096,0.031-0.203,0.046-0.321c0.013-0.118,0.02-0.242,0.02-0.374
			c0-0.394-0.032-0.724-0.093-0.99c-0.062-0.267-0.138-0.483-0.23-0.65c-0.091-0.166-0.197-0.285-0.314-0.353
			c-0.119-0.071-0.234-0.106-0.348-0.106c-0.114,0-0.229,0.042-0.349,0.126c-0.116,0.083-0.222,0.241-0.313,0.472
			c-0.093,0.231-0.169,0.558-0.229,0.978C76.547,109.673,76.517,110.22,76.517,110.893z"/>
	</g>
	<g>
		<path fill="#16233B" d="M86.606,115.515c-0.115,0.339-0.312,0.636-0.588,0.893c-0.277,0.256-0.605,0.456-0.985,0.601
			c-0.38,0.146-0.774,0.25-1.183,0.315c-0.41,0.066-0.838,0.1-1.283,0.1c-0.197,0-0.388-0.004-0.57-0.013
			c-0.412-0.024-0.82-0.082-1.22-0.174c-0.401-0.091-0.783-0.211-1.146-0.364c-0.364-0.153-0.67-0.354-0.917-0.602
			c-0.248-0.248-0.4-0.523-0.458-0.83c-0.108-0.587,0.156-1.185,0.792-1.797c0.636-0.611,1.638-1.227,2.999-1.847
			c0.115-0.058,0.226-0.05,0.328,0.019c0.104,0.071,0.149,0.17,0.137,0.298c-0.012,0.129-0.076,0.218-0.193,0.268
			c-0.627,0.288-1.17,0.573-1.628,0.854s-0.803,0.523-1.028,0.726c-0.227,0.202-0.406,0.4-0.534,0.595s-0.2,0.347-0.222,0.459
			c-0.021,0.111-0.023,0.212-0.007,0.303c0.067,0.363,0.397,0.682,0.992,0.954s1.312,0.434,2.155,0.483
			c0.57,0.041,1.124,0.021,1.66-0.062c0.536-0.082,1.022-0.241,1.456-0.476c0.433-0.236,0.708-0.536,0.823-0.899
			c0.075-0.223,0.117-0.448,0.125-0.676c0.009-0.227-0.025-0.46-0.1-0.699c-0.075-0.24-0.153-0.463-0.234-0.67
			c-0.084-0.206-0.217-0.44-0.403-0.699c-0.187-0.261-0.346-0.481-0.482-0.663s-0.336-0.413-0.595-0.693
			c-0.262-0.281-0.466-0.501-0.615-0.657c-0.148-0.157-0.37-0.38-0.669-0.669c-0.271-0.29-0.481-0.506-0.625-0.651
			c-0.146-0.145-0.343-0.354-0.595-0.632c-0.252-0.275-0.444-0.498-0.575-0.664c-0.133-0.165-0.291-0.38-0.478-0.645
			s-0.323-0.489-0.408-0.675c-0.087-0.187-0.174-0.404-0.262-0.656c-0.087-0.253-0.135-0.481-0.142-0.688
			c-0.009-0.207,0.011-0.43,0.055-0.669c0.047-0.24,0.123-0.471,0.229-0.694c0.306-0.611,0.825-1.026,1.561-1.245
			c0.735-0.22,1.641-0.229,2.715-0.031c0.99,0.189,1.986,0.52,2.986,0.991s1.849,1.03,2.546,1.679
			c0.698,0.648,1.07,1.271,1.122,1.865c0.074,0.827-0.451,1.455-1.575,1.883c-1.255,0.348-2.526,0.426-3.815,0.236
			c-0.083-0.017-0.15-0.061-0.206-0.131c-0.053-0.07-0.072-0.148-0.06-0.235c0.012-0.087,0.053-0.156,0.124-0.211
			c0.069-0.054,0.146-0.075,0.229-0.067c1.182,0.174,2.346,0.107,3.494-0.198c0.817-0.314,1.206-0.719,1.163-1.215
			c-0.04-0.454-0.369-0.956-0.983-1.505c-0.616-0.55-1.394-1.052-2.336-1.506c-0.941-0.454-1.879-0.768-2.812-0.941
			c-0.314-0.059-0.624-0.098-0.929-0.117c-0.308-0.021-0.64-0.013-0.998,0.024s-0.686,0.141-0.98,0.309
			c-0.293,0.171-0.513,0.403-0.662,0.701c-0.09,0.182-0.15,0.37-0.179,0.563c-0.028,0.194-0.039,0.378-0.03,0.551
			c0.007,0.174,0.055,0.369,0.142,0.584s0.169,0.401,0.247,0.562c0.08,0.161,0.204,0.357,0.38,0.59
			c0.172,0.23,0.317,0.42,0.438,0.569c0.119,0.148,0.297,0.351,0.532,0.607c0.236,0.257,0.42,0.453,0.553,0.589
			c0.131,0.137,0.334,0.341,0.605,0.613c0.282,0.281,0.491,0.496,0.634,0.645c0.141,0.148,0.337,0.359,0.593,0.632
			c0.258,0.272,0.451,0.494,0.582,0.663c0.134,0.169,0.297,0.387,0.49,0.65c0.195,0.264,0.34,0.493,0.434,0.688
			c0.096,0.193,0.197,0.416,0.304,0.668c0.108,0.253,0.174,0.488,0.198,0.706c0.025,0.22,0.032,0.453,0.019,0.7
			C86.726,115.031,86.681,115.274,86.606,115.515z"/>
		<path fill="#16233B" d="M98.36,113.941c0.085,0.008,0.158,0.048,0.217,0.117c0.057,0.07,0.081,0.15,0.074,0.241
			c-0.009,0.092-0.052,0.166-0.124,0.224c-0.125,0.1-0.277,0.215-0.458,0.348c-0.184,0.132-0.535,0.352-1.054,0.663
			c-0.521,0.309-1.04,0.58-1.555,0.811c-0.517,0.231-1.139,0.442-1.866,0.633c-0.727,0.189-1.421,0.284-2.081,0.284
			c-0.843,0.009-1.653-0.145-2.429-0.458c-0.249-0.1-0.456-0.217-0.627-0.354c-0.169-0.137-0.293-0.269-0.376-0.396
			c-0.084-0.128-0.145-0.265-0.18-0.409c-0.037-0.145-0.055-0.271-0.05-0.377c0.004-0.108,0.018-0.215,0.043-0.323
			c0.091-0.388,0.306-0.772,0.645-1.152s0.715-0.677,1.133-0.892c0.417-0.215,0.792-0.313,1.122-0.298
			c0.224,0,0.415,0.079,0.577,0.236c0.161,0.156,0.248,0.351,0.266,0.582c0.041,0.396-0.183,0.756-0.669,1.078
			c-0.703,0.438-1.47,0.632-2.305,0.582c-0.043-0.008-0.08,0-0.111,0.024c-0.034,0.025-0.047,0.059-0.038,0.1
			c-0.059,0.421,0.215,0.751,0.818,0.991c0.537,0.224,1.113,0.354,1.735,0.391c0.619,0.037,1.196,0.006,1.734-0.093
			c0.536-0.1,1.085-0.252,1.647-0.46c0.562-0.206,1.042-0.414,1.443-0.625s0.789-0.433,1.165-0.669
			c0.376-0.235,0.632-0.403,0.769-0.502c0.135-0.1,0.232-0.173,0.291-0.223C98.191,113.957,98.273,113.933,98.36,113.941z
			 M88.948,114.324c-0.106,0.149-0.062,0.215,0.137,0.199c0.346-0.024,0.788-0.174,1.326-0.445c0.082-0.05,0.152-0.092,0.21-0.125
			c0.257-0.174,0.376-0.33,0.36-0.47c-0.009-0.092-0.03-0.151-0.062-0.181c-0.033-0.029-0.087-0.047-0.161-0.056
			c-0.265-0.016-0.572,0.079-0.924,0.286C89.482,113.738,89.188,114.003,88.948,114.324z"/>
		<path fill="#16233B" d="M108.7,114.078c0.091,0,0.169,0.028,0.234,0.086c0.066,0.058,0.102,0.132,0.105,0.223
			c0.005,0.091-0.027,0.17-0.093,0.236c-0.05,0.057-0.119,0.131-0.211,0.223c-0.091,0.092-0.26,0.24-0.508,0.446
			c-0.247,0.206-0.501,0.4-0.755,0.583c-0.256,0.181-0.568,0.364-0.936,0.55c-0.367,0.187-0.729,0.33-1.085,0.435
			c-0.355,0.104-0.742,0.15-1.159,0.143c-0.416-0.009-0.812-0.087-1.183-0.236c-0.645-0.321-1.144-0.797-1.499-1.425
			c0-0.008-0.02-0.04-0.057-0.099s-0.069-0.105-0.1-0.142c-0.028-0.038-0.065-0.082-0.109-0.132
			c-0.047-0.049-0.096-0.087-0.149-0.11c-0.055-0.026-0.11-0.033-0.167-0.026c-0.66,0.019-1.595,0.731-2.802,2.146
			c-0.106,0.123-0.236,0.148-0.391,0.073c-0.15-0.073-0.208-0.193-0.167-0.359l0.62-2.726c0.018-0.082,0.063-0.149,0.142-0.198
			c0.08-0.05,0.162-0.064,0.249-0.043c0.087,0.021,0.152,0.069,0.198,0.149c0.045,0.078,0.061,0.157,0.043,0.241l-0.284,1.226
			c-0.009,0.042,0.007,0.072,0.05,0.094c0.041,0.021,0.078,0.014,0.11-0.019c0.918-0.867,1.69-1.281,2.318-1.239
			c0.263,0.017,0.486,0.123,0.668,0.322c0.14,0.148,0.265,0.31,0.373,0.482c0.28,0.514,0.676,0.904,1.189,1.178
			c0.256,0.107,0.523,0.169,0.804,0.186c0.281,0.017,0.547,0.002,0.799-0.043c0.253-0.045,0.51-0.12,0.774-0.223
			c0.265-0.104,0.508-0.217,0.727-0.341c0.218-0.125,0.437-0.261,0.656-0.408c0.219-0.149,0.403-0.286,0.551-0.41
			c0.149-0.124,0.293-0.247,0.434-0.371c0.142-0.125,0.234-0.212,0.28-0.262c0.044-0.049,0.08-0.087,0.104-0.11
			C108.533,114.109,108.608,114.078,108.7,114.078z"/>
		<path fill="#16233B" d="M117.001,113.718c0.092,0,0.167,0.031,0.229,0.094c0.062,0.062,0.095,0.138,0.095,0.229
			c0,0.09-0.03,0.168-0.087,0.234c-0.72,0.719-1.653,1.343-2.8,1.871c-1.149,0.529-2.224,0.794-3.223,0.794
			c-0.215,0-0.421-0.013-0.62-0.038c-0.413-0.033-0.793-0.159-1.14-0.378s-0.623-0.506-0.829-0.861
			c-0.043-0.074-0.052-0.152-0.032-0.235c0.021-0.082,0.067-0.147,0.143-0.197c0.074-0.05,0.156-0.064,0.241-0.045
			c0.087,0.021,0.156,0.068,0.206,0.145c0.271,0.362,0.628,0.592,1.07,0.687s0.861,0.031,1.257-0.192
			c0.175-0.099,0.281-0.245,0.318-0.439c0.035-0.193-0.017-0.366-0.156-0.514c-0.141-0.148-0.297-0.277-0.471-0.385
			c-0.347-0.206-0.636-0.471-0.866-0.793c-0.034-0.058-0.084-0.092-0.149-0.1s-0.121,0.008-0.161,0.05l-0.941,0.893
			c-0.093,0.082-0.199,0.107-0.323,0.074c-0.122-0.032-0.199-0.111-0.229-0.236c-0.029-0.123,0.007-0.23,0.106-0.322l1.895-1.783
			c0.215-0.257,0.459-0.482,0.731-0.682c0.065-0.05,0.144-0.07,0.229-0.062c0.087,0.009,0.16,0.047,0.217,0.112
			c0.059,0.065,0.083,0.142,0.074,0.229c-0.007,0.087-0.04,0.16-0.099,0.217l-0.683,0.632c-0.106,0.125-0.163,0.269-0.172,0.434
			c0,0.133,0.063,0.259,0.191,0.378c0.128,0.121,0.312,0.263,0.551,0.428c0.256,0.149,0.476,0.34,0.657,0.57
			c0.142,0.199,0.222,0.419,0.243,0.662c0.02,0.245-0.027,0.475-0.145,0.689c-0.031,0.065-0.026,0.128,0.02,0.185
			c0.045,0.059,0.105,0.08,0.18,0.062c1.619-0.388,3.036-1.155,4.251-2.305C116.836,113.751,116.91,113.718,117.001,113.718z"/>
	</g>
</g>
</svg>
