<?xml version="1.0" encoding="utf-8"?>
<!-- Generator: Adobe Illustrator 16.0.0, SVG Export Plug-In . SVG Version: 6.00 Build 0)  -->
<!DOCTYPE svg PUBLIC "-//W3C//DTD SVG 1.1//EN" "http://www.w3.org/Graphics/SVG/1.1/DTD/svg11.dtd">
<svg version="1.1" id="Calque_1" xmlns="http://www.w3.org/2000/svg" xmlns:xlink="http://www.w3.org/1999/xlink" x="0px" y="0px"
	 width="85px" height="55px" viewBox="0 0 85 55" enable-background="new 0 0 85 55" xml:space="preserve">
<rect x="0.096" y="-0.116" fill="#FFFFFF" width="84.904" height="54.941"/>
<rect x="-104.892" fill="#FFFFFF" width="85.052" height="54.754"/>
<g>
	<circle fill="#BE1622" cx="-62.365" cy="27.518" r="23.64"/>
	<path fill="#FFFFFF" d="M-62.263,14.716c0.39-0.035,5.461-0.56,7.143-0.948c2.018-0.465,5.673-0.45,7.04,2.066
		c1.367,2.518,3.576,9.295,3.976,10.907c0.646,2.603,1.196,6.989-4.096,8.809c-3.6,1.237-11.072,1.446-14.063,1.446
		c-2.99,0-11.479-0.142-14.439-1.398c-3.73-1.585-5.098-4.791-3.889-9.21c0.986-3.604,3.362-9.816,3.975-10.926
		c1.082-1.958,3.301-2.374,6.322-1.678C-69.004,14.08-62.263,14.716-62.263,14.716z"/>
	<path fill="#BE1622" d="M-65.679,30.646c0,0-1.277-1.49-2.661-1.171c-1.383,0.319-2.873,1.446-4.468,0.563
		c-1.597-0.883-0.08-3.277,0.957-1.734c0.613-1.489-0.601-2.127-1.578-2.021c-0.976,0.106-2.998,1.808-2.04,4.363
		c0.958,2.553,4.865,1.354,5.853,0.65C-68.366,30.407-67.275,30.008-65.679,30.646z"/>
	<path fill="#BE1622" d="M-59.044,30.752c0,0,1.278-1.489,2.661-1.17s2.873,1.445,4.469,0.563c1.596-0.883,0.079-3.276-0.958-1.734
		c-0.612-1.489,0.602-2.127,1.577-2.021c0.977,0.107,2.999,1.81,2.041,4.362c-0.958,2.554-4.865,1.355-5.853,0.651
		C-56.356,30.514-57.447,30.114-59.044,30.752z"/>
	<path fill="#BE1622" d="M-58.896,31.297c0,0,0.744-0.464,1.915,0.547c1.171,1.011,2.328,1.171,3.366,0.852
		c-0.104,0.429-0.758,1.25-2.168,0.984C-57.193,33.413-57.938,31.337-58.896,31.297z"/>
	<path fill="#BE1622" d="M-65.719,31.297c0,0-0.745-0.464-1.915,0.547c-1.171,1.011-2.329,1.171-3.365,0.852
		c0.104,0.429,0.757,1.25,2.167,0.984C-67.421,33.413-66.677,31.337-65.719,31.297z"/>
	<path fill="#BE1622" d="M-65.998,33.413c0,0,0.969-1.808,3.735-1.808c2.767,0,3.539,1.808,3.539,1.808s-0.86-0.953-3.539-0.953
		C-64.94,32.46-65.998,33.413-65.998,33.413z"/>
	<path fill="#BE1622" d="M-64.91,30.221c0,0-1.285-0.745-1.068-1.384c0.217-0.638,1.423-1.524,1.956-1.276
		c0.532,0.248,0.953,1.174,1.063,1.783c-0.177-0.188-0.825-1.414-1.436-1.238c-0.613,0.178-0.893,0.481-1.011,0.764
		C-65.604,29.344-64.91,30.221-64.91,30.221z"/>
	<path fill="#BE1622" d="M-59.821,30.221c0,0,1.286-0.745,1.068-1.384c-0.218-0.638-1.424-1.524-1.956-1.276
		c-0.532,0.248-0.954,1.174-1.064,1.783c0.177-0.188,0.825-1.414,1.437-1.238c0.612,0.178,0.892,0.481,1.011,0.764
		C-59.125,29.344-59.821,30.221-59.821,30.221z"/>
	<circle cx="-68.295" cy="23.471" r="2.376"/>
	<path fill="#BE1622" d="M-68.296,27.931c-2.458,0-4.458-2.001-4.458-4.46s2-4.459,4.458-4.459c2.46,0,4.46,2,4.46,4.459
		S-65.835,27.931-68.296,27.931z M-68.296,20.076c-1.872,0-3.394,1.523-3.394,3.395c0,1.873,1.522,3.395,3.394,3.395
		c1.873,0,3.396-1.522,3.396-3.395C-64.899,21.599-66.423,20.076-68.296,20.076z"/>
	<circle cx="-56.422" cy="23.471" r="2.376"/>
	<path fill="#BE1622" d="M-56.422,27.931c-2.459,0-4.459-2.001-4.459-4.46s2-4.459,4.459-4.459c2.458,0,4.459,2,4.459,4.459
		S-53.964,27.931-56.422,27.931z M-56.422,20.076c-1.872,0-3.395,1.523-3.395,3.395c0,1.873,1.523,3.395,3.395,3.395
		c1.872,0,3.396-1.522,3.396-3.395C-53.027,21.599-54.55,20.076-56.422,20.076z"/>
	<g>
		<path fill="#BE1622" d="M-60.894,18.626c0,0,1.279,0.214,2.238-0.571c0.959-0.785,2.048-1.873,3.956-1.998
			c0.958-0.063,3.11,0.159,5.555,2.034c1.769,1.355,2.457,3.175,2.438,4.139c-0.018,0.824-0.089,1.66-0.6,1.891
			c-0.79,0.357-3.617-0.268-3.576-2.48c0.479,1,1.49,1.211,1.738,1.017c0.479-0.375,0.029-1.82-0.63-2.703
			c-0.818-1.095-2.278-2.916-4.486-2.97c-1.655-0.041-3.437,1.07-3.996,1.355C-58.815,18.626-59.935,18.983-60.894,18.626z"/>
		<path fill="#BE1622" d="M-62.153,18.965c0,0,1.915-0.331,2.607-0.83c0.689-0.495,1.409-1.445,0.99-2.087
			c-0.42-0.642-0.989-0.558-1.41-0.374c-0.644,0.28-0.869,1.258-0.899,1.873C-60.894,18.163-61.523,18.778-62.153,18.965z"/>
	</g>
	<g>
		<path fill="#BE1622" d="M-63.837,18.626c0,0-1.279,0.214-2.238-0.571c-0.958-0.785-2.047-1.873-3.956-1.998
			c-0.958-0.063-3.109,0.159-5.555,2.034c-1.768,1.355-2.457,3.175-2.438,4.139c0.017,0.824,0.089,1.66,0.6,1.891
			c0.79,0.357,3.617-0.268,3.577-2.48c-0.479,1-1.49,1.211-1.738,1.017c-0.479-0.375-0.03-1.82,0.629-2.703
			c0.818-1.095,2.278-2.916,4.486-2.97c1.655-0.041,3.437,1.07,3.997,1.355C-65.916,18.626-64.796,18.983-63.837,18.626z"/>
		<path fill="#BE1622" d="M-62.578,18.965c0,0-1.914-0.331-2.607-0.83c-0.69-0.495-1.41-1.445-0.99-2.087
			c0.419-0.642,0.987-0.558,1.408-0.374c0.645,0.28,0.87,1.258,0.899,1.873S-63.208,18.778-62.578,18.965z"/>
	</g>
	<path fill="#FFFFFF" d="M-65.068,48.226c-1.289-1.371-1.61-3.264-1.61-4.432s0.523-3.087-0.403-3.947
		c-0.622-0.579-2.135-0.731-2.841,0.518c-0.764,1.354,0.302,3.685,0.746,4.396C-68.77,45.409-67.344,47.394-65.068,48.226z"/>
	<path fill="#FFFFFF" d="M-71.806,46.664c-1.289-1.37-1.611-3.264-1.611-4.432s0.523-3.086-0.403-3.946
		c-0.622-0.578-2.136-0.731-2.84,0.517c-0.764,1.354,0.302,3.686,0.747,4.396C-75.509,43.849-74.083,45.833-71.806,46.664z"/>
	<path fill="#FFFFFF" d="M-59.528,48.226c1.29-1.371,1.612-3.264,1.612-4.432c0-1.169-0.523-3.087,0.403-3.947
		c0.623-0.579,2.135-0.731,2.84,0.518c0.764,1.354-0.302,3.685-0.746,4.396C-55.825,45.409-57.25,47.394-59.528,48.226z"/>
	<path fill="#FFFFFF" d="M-52.788,46.664c1.289-1.37,1.611-3.264,1.611-4.432s-0.522-3.087,0.403-3.947
		c0.623-0.577,2.135-0.73,2.84,0.518c0.765,1.354-0.301,3.686-0.746,4.396C-49.085,43.848-50.512,45.833-52.788,46.664z"/>
	<circle fill="#FFFFFF" cx="-62.276" cy="44.554" r="2.296"/>
</g>
<g>
	<path fill="#BE1622" d="M8.754,5.028h0.495l1.511,3.52l1.535-3.52h0.495l-1.982,4.556h-0.1L8.754,5.028z"/>
	<path d="M13.493,5.884c0.076,0,0.142,0.027,0.196,0.082c0.055,0.054,0.082,0.12,0.082,0.197c0,0.075-0.027,0.141-0.082,0.195
		c-0.055,0.054-0.12,0.082-0.196,0.082c-0.075,0-0.141-0.027-0.195-0.082c-0.054-0.055-0.081-0.12-0.081-0.195
		c0-0.077,0.027-0.143,0.081-0.197C13.353,5.911,13.418,5.884,13.493,5.884z M13.325,6.963h0.337v2.621h-0.337V6.963z"/>
	<path d="M15.681,7.25l-0.217,0.224c-0.181-0.175-0.356-0.262-0.528-0.262c-0.109,0-0.203,0.036-0.281,0.108
		s-0.117,0.156-0.117,0.253c0,0.085,0.032,0.166,0.096,0.243c0.065,0.079,0.2,0.171,0.406,0.277c0.251,0.13,0.422,0.255,0.512,0.375
		c0.088,0.123,0.133,0.259,0.133,0.412c0,0.215-0.076,0.397-0.228,0.547c-0.15,0.149-0.34,0.224-0.565,0.224
		c-0.151,0-0.296-0.033-0.435-0.099c-0.138-0.065-0.251-0.156-0.341-0.272l0.212-0.241c0.173,0.195,0.355,0.292,0.549,0.292
		c0.135,0,0.249-0.043,0.345-0.13c0.095-0.087,0.143-0.188,0.143-0.306c0-0.097-0.031-0.183-0.095-0.258
		c-0.062-0.074-0.204-0.167-0.425-0.279c-0.237-0.122-0.397-0.243-0.482-0.362c-0.086-0.119-0.128-0.254-0.128-0.407
		c0-0.199,0.067-0.365,0.204-0.497c0.136-0.131,0.308-0.198,0.515-0.198C15.193,6.896,15.437,7.014,15.681,7.25z"/>
	<path d="M16.396,5.884c0.077,0,0.143,0.027,0.196,0.082c0.055,0.054,0.082,0.12,0.082,0.197c0,0.075-0.027,0.141-0.082,0.195
		c-0.054,0.054-0.119,0.082-0.196,0.082c-0.075,0-0.141-0.027-0.194-0.082c-0.055-0.055-0.082-0.12-0.082-0.195
		c0-0.077,0.027-0.143,0.082-0.197C16.255,5.911,16.32,5.884,16.396,5.884z M16.229,6.963h0.337v2.621h-0.337V6.963z"/>
	<path d="M17.56,5.99h0.337v0.974h0.535v0.292h-0.535v2.33H17.56v-2.33H17.1V6.963h0.46V5.99z"/>
	<path d="M21.145,8.714l0.284,0.149c-0.094,0.183-0.201,0.331-0.322,0.443c-0.123,0.113-0.261,0.198-0.413,0.257
		s-0.325,0.088-0.519,0.088c-0.428,0-0.762-0.14-1.003-0.42c-0.241-0.281-0.361-0.597-0.361-0.95c0-0.333,0.102-0.629,0.307-0.889
		c0.258-0.331,0.604-0.497,1.038-0.497c0.447,0,0.805,0.17,1.071,0.509c0.189,0.239,0.286,0.538,0.288,0.896h-2.357
		c0.007,0.305,0.104,0.554,0.292,0.749c0.188,0.195,0.42,0.292,0.697,0.292c0.133,0,0.263-0.023,0.389-0.07
		c0.127-0.046,0.234-0.108,0.322-0.185C20.946,9.01,21.042,8.886,21.145,8.714z M21.145,8.009c-0.045-0.18-0.11-0.324-0.196-0.431
		c-0.086-0.108-0.2-0.194-0.341-0.26c-0.142-0.066-0.291-0.099-0.447-0.099c-0.257,0-0.479,0.083-0.662,0.248
		c-0.136,0.121-0.238,0.301-0.307,0.542H21.145z"/>
	<path d="M22.017,6.963h0.345v0.383c0.103-0.151,0.211-0.264,0.324-0.339c0.114-0.075,0.234-0.112,0.357-0.112
		c0.093,0,0.192,0.03,0.298,0.089L23.166,7.27c-0.07-0.031-0.13-0.046-0.179-0.046c-0.112,0-0.221,0.046-0.325,0.139
		c-0.104,0.092-0.185,0.235-0.238,0.43c-0.042,0.149-0.062,0.451-0.062,0.906v0.887h-0.345V6.963z"/>
	<path d="M24.943,5.952h0.337v3.633h-0.337V5.952z"/>
	<path d="M28.188,8.714l0.284,0.149c-0.094,0.183-0.201,0.331-0.323,0.443c-0.122,0.113-0.26,0.198-0.412,0.257
		c-0.153,0.059-0.326,0.088-0.518,0.088c-0.429,0-0.763-0.14-1.004-0.42c-0.241-0.281-0.361-0.597-0.361-0.95
		c0-0.333,0.102-0.629,0.306-0.889c0.259-0.331,0.604-0.497,1.039-0.497c0.447,0,0.804,0.17,1.07,0.509
		c0.189,0.239,0.286,0.538,0.289,0.896h-2.357c0.007,0.305,0.103,0.554,0.292,0.749c0.188,0.195,0.42,0.292,0.696,0.292
		c0.134,0,0.264-0.023,0.389-0.07c0.128-0.046,0.235-0.108,0.322-0.185C27.99,9.01,28.085,8.886,28.188,8.714z M28.188,8.009
		c-0.045-0.18-0.11-0.324-0.196-0.431c-0.087-0.108-0.2-0.194-0.342-0.26s-0.29-0.099-0.446-0.099c-0.257,0-0.479,0.083-0.663,0.248
		c-0.136,0.121-0.237,0.301-0.306,0.542H28.188z"/>
	<path fill="#BE1622" d="M32.226,5.028h0.455v3.076c0,0.473-0.037,0.802-0.109,0.986c-0.074,0.185-0.196,0.333-0.367,0.443
		c-0.172,0.111-0.38,0.166-0.623,0.166c-0.184,0-0.365-0.036-0.543-0.106c-0.179-0.072-0.376-0.197-0.593-0.376l0.241-0.362
		c0.237,0.167,0.436,0.285,0.593,0.353c0.103,0.045,0.205,0.068,0.304,0.068c0.13,0,0.248-0.039,0.355-0.118
		c0.106-0.078,0.182-0.183,0.224-0.312c0.042-0.13,0.063-0.382,0.063-0.756V5.028z"/>
	<path d="M36.223,6.963v2.621H35.89V9.134c-0.143,0.172-0.301,0.301-0.475,0.388c-0.177,0.087-0.369,0.13-0.578,0.13
		c-0.371,0-0.688-0.135-0.95-0.403c-0.264-0.269-0.395-0.597-0.395-0.982c0-0.377,0.133-0.7,0.398-0.968
		c0.265-0.268,0.583-0.403,0.956-0.403c0.215,0,0.409,0.046,0.583,0.138c0.175,0.092,0.327,0.229,0.46,0.412V6.963H36.223z
		 M34.875,7.221c-0.188,0-0.362,0.046-0.521,0.139s-0.285,0.222-0.379,0.389s-0.142,0.343-0.142,0.53
		c0,0.184,0.048,0.36,0.142,0.529c0.096,0.168,0.223,0.3,0.383,0.394c0.159,0.094,0.33,0.141,0.514,0.141
		c0.185,0,0.359-0.047,0.524-0.14s0.292-0.219,0.381-0.377c0.09-0.159,0.133-0.338,0.133-0.537c0-0.303-0.099-0.556-0.299-0.76
		C35.412,7.323,35.166,7.221,34.875,7.221z"/>
	<path d="M36.985,6.963h0.337v0.482c0.134-0.183,0.286-0.32,0.46-0.412c0.174-0.091,0.367-0.138,0.581-0.138
		c0.371,0,0.689,0.135,0.955,0.403c0.264,0.268,0.396,0.591,0.396,0.968c0,0.385-0.132,0.713-0.394,0.982
		c-0.263,0.269-0.579,0.403-0.949,0.403c-0.208,0-0.4-0.043-0.575-0.13s-0.333-0.216-0.475-0.388v1.409h-0.337V6.963z M38.335,7.221
		c-0.292,0-0.537,0.102-0.737,0.306c-0.2,0.204-0.299,0.457-0.299,0.76c0,0.199,0.045,0.378,0.133,0.537
		c0.09,0.159,0.217,0.284,0.383,0.377s0.341,0.14,0.525,0.14c0.181,0,0.352-0.047,0.511-0.141s0.286-0.225,0.38-0.394
		c0.096-0.168,0.143-0.345,0.143-0.529c0-0.187-0.047-0.363-0.142-0.53c-0.093-0.167-0.219-0.296-0.378-0.389
		C38.695,7.267,38.522,7.221,38.335,7.221z"/>
	<path d="M41.587,6.896c0.403,0,0.737,0.146,1.004,0.439c0.24,0.267,0.362,0.582,0.362,0.947c0,0.366-0.129,0.686-0.383,0.96
		c-0.256,0.273-0.584,0.411-0.983,0.411c-0.402,0-0.731-0.137-0.986-0.411c-0.256-0.274-0.383-0.594-0.383-0.96
		c0-0.363,0.121-0.678,0.362-0.944C40.846,7.043,41.181,6.896,41.587,6.896z M41.586,7.226c-0.28,0-0.522,0.104-0.724,0.312
		c-0.2,0.207-0.303,0.458-0.303,0.751c0,0.189,0.047,0.366,0.138,0.53c0.093,0.164,0.217,0.29,0.373,0.379
		c0.156,0.089,0.328,0.134,0.516,0.134c0.187,0,0.358-0.045,0.515-0.134c0.156-0.089,0.28-0.215,0.372-0.379
		c0.092-0.164,0.139-0.341,0.139-0.53c0-0.293-0.103-0.544-0.305-0.751C42.104,7.33,41.864,7.226,41.586,7.226z"/>
	<path d="M43.576,6.963h0.338v0.47c0.135-0.18,0.283-0.314,0.447-0.403s0.343-0.134,0.535-0.134c0.195,0,0.369,0.05,0.521,0.15
		c0.152,0.099,0.265,0.234,0.336,0.402c0.073,0.168,0.109,0.431,0.109,0.788v1.349h-0.337v-1.25c0-0.302-0.013-0.503-0.038-0.604
		c-0.039-0.174-0.113-0.304-0.225-0.392c-0.11-0.087-0.256-0.131-0.434-0.131c-0.204,0-0.387,0.067-0.549,0.202
		c-0.161,0.135-0.268,0.302-0.319,0.501c-0.03,0.13-0.047,0.368-0.047,0.713v0.961h-0.338V6.963z"/>
	<path d="M50.562,6.963v2.621h-0.332V9.134c-0.141,0.172-0.3,0.301-0.476,0.388s-0.368,0.13-0.576,0.13
		c-0.371,0-0.688-0.135-0.951-0.403c-0.263-0.269-0.394-0.597-0.394-0.982c0-0.377,0.132-0.7,0.396-0.968
		c0.266-0.268,0.585-0.403,0.958-0.403c0.214,0,0.409,0.046,0.583,0.138c0.175,0.092,0.328,0.229,0.459,0.412V6.963H50.562z
		 M49.214,7.221c-0.188,0-0.359,0.046-0.519,0.139c-0.16,0.092-0.286,0.222-0.38,0.389s-0.14,0.343-0.14,0.53
		c0,0.184,0.046,0.36,0.142,0.529c0.094,0.168,0.221,0.3,0.38,0.394c0.16,0.094,0.331,0.141,0.514,0.141
		c0.186,0,0.36-0.047,0.525-0.14s0.292-0.219,0.382-0.377c0.089-0.159,0.134-0.338,0.134-0.537c0-0.303-0.1-0.556-0.301-0.76
		C49.752,7.323,49.507,7.221,49.214,7.221z"/>
	<path d="M51.072,6.963h0.36l0.879,1.91l0.869-1.91h0.361l-1.2,2.621H52.28L51.072,6.963z"/>
	<path d="M56.261,8.714l0.285,0.149c-0.094,0.183-0.201,0.331-0.322,0.443C56.1,9.42,55.963,9.505,55.811,9.564
		s-0.325,0.088-0.519,0.088c-0.428,0-0.762-0.14-1.004-0.42c-0.24-0.281-0.36-0.597-0.36-0.95c0-0.333,0.102-0.629,0.307-0.889
		c0.258-0.331,0.604-0.497,1.038-0.497c0.447,0,0.804,0.17,1.071,0.509c0.189,0.239,0.286,0.538,0.289,0.896h-2.358
		c0.006,0.305,0.104,0.554,0.292,0.749c0.188,0.195,0.42,0.292,0.696,0.292c0.134,0,0.264-0.023,0.39-0.07s0.234-0.108,0.322-0.185
		C56.063,9.01,56.159,8.886,56.261,8.714z M56.261,8.009c-0.044-0.18-0.109-0.324-0.195-0.431c-0.086-0.108-0.2-0.194-0.341-0.26
		c-0.143-0.066-0.292-0.099-0.447-0.099c-0.257,0-0.479,0.083-0.663,0.248c-0.135,0.121-0.237,0.301-0.307,0.542H56.261z"/>
	<path d="M59.806,7.508l-0.269,0.166c-0.229-0.307-0.545-0.459-0.945-0.459c-0.318,0-0.584,0.102-0.795,0.308
		c-0.212,0.205-0.316,0.455-0.316,0.749c0,0.19,0.049,0.37,0.146,0.539s0.23,0.299,0.399,0.392c0.17,0.093,0.359,0.14,0.569,0.14
		c0.385,0,0.699-0.154,0.942-0.46l0.269,0.176c-0.126,0.189-0.294,0.335-0.505,0.439s-0.452,0.156-0.722,0.156
		c-0.414,0-0.758-0.132-1.032-0.395c-0.271-0.264-0.408-0.584-0.408-0.961c0-0.254,0.064-0.489,0.191-0.707
		c0.128-0.217,0.303-0.387,0.526-0.509s0.473-0.184,0.749-0.184c0.174,0,0.341,0.027,0.503,0.08
		c0.161,0.053,0.298,0.123,0.409,0.208C59.632,7.268,59.726,7.376,59.806,7.508z"/>
	<path fill="#BE1622" d="M61.526,8.736l0.388-0.232c0.272,0.502,0.587,0.753,0.944,0.753c0.152,0,0.296-0.036,0.431-0.107
		c0.135-0.071,0.236-0.167,0.307-0.287c0.07-0.119,0.105-0.247,0.105-0.381c0-0.152-0.052-0.302-0.155-0.449
		c-0.143-0.203-0.403-0.446-0.78-0.731c-0.38-0.287-0.616-0.494-0.709-0.622c-0.161-0.215-0.242-0.447-0.242-0.697
		c0-0.198,0.048-0.379,0.144-0.542c0.095-0.163,0.228-0.291,0.4-0.385c0.172-0.094,0.359-0.141,0.562-0.141
		c0.214,0,0.415,0.053,0.603,0.159c0.187,0.106,0.384,0.302,0.592,0.587l-0.371,0.281c-0.171-0.227-0.316-0.376-0.438-0.449
		c-0.12-0.073-0.252-0.108-0.395-0.108c-0.184,0-0.334,0.055-0.45,0.167c-0.117,0.111-0.175,0.249-0.175,0.412
		c0,0.099,0.02,0.195,0.062,0.288c0.041,0.093,0.116,0.194,0.226,0.304c0.06,0.058,0.256,0.209,0.589,0.455
		c0.395,0.291,0.664,0.55,0.811,0.777c0.146,0.227,0.221,0.455,0.221,0.684c0,0.331-0.125,0.618-0.376,0.861
		s-0.556,0.365-0.915,0.365c-0.277,0-0.527-0.074-0.753-0.221C61.925,9.33,61.717,9.083,61.526,8.736z"/>
	<path d="M64.979,5.952h0.337v1.481c0.136-0.18,0.286-0.314,0.45-0.403c0.163-0.089,0.341-0.134,0.532-0.134
		c0.196,0,0.37,0.05,0.522,0.15c0.151,0.099,0.263,0.233,0.336,0.401c0.071,0.168,0.107,0.431,0.107,0.789v1.349h-0.337v-1.25
		c0-0.302-0.012-0.503-0.036-0.604c-0.041-0.174-0.117-0.304-0.228-0.392c-0.109-0.087-0.254-0.131-0.432-0.131
		c-0.205,0-0.388,0.067-0.548,0.202c-0.162,0.135-0.27,0.302-0.319,0.501c-0.033,0.128-0.049,0.366-0.049,0.713v0.961h-0.337V5.952z
		"/>
	<path d="M69.228,6.896c0.403,0,0.739,0.146,1.003,0.439c0.242,0.267,0.362,0.582,0.362,0.947c0,0.366-0.127,0.686-0.382,0.96
		c-0.255,0.273-0.583,0.411-0.983,0.411c-0.402,0-0.73-0.137-0.986-0.411c-0.255-0.274-0.382-0.594-0.382-0.96
		c0-0.363,0.12-0.678,0.361-0.944C68.486,7.043,68.822,6.896,69.228,6.896z M69.226,7.226c-0.279,0-0.521,0.104-0.722,0.312
		c-0.202,0.207-0.303,0.458-0.303,0.751c0,0.189,0.045,0.366,0.139,0.53c0.091,0.164,0.215,0.29,0.371,0.379
		c0.156,0.089,0.328,0.134,0.515,0.134c0.188,0,0.359-0.045,0.516-0.134c0.156-0.089,0.28-0.215,0.372-0.379
		c0.092-0.164,0.138-0.341,0.138-0.53c0-0.293-0.101-0.544-0.304-0.751C69.746,7.33,69.505,7.226,69.226,7.226z"/>
	<path d="M71.215,5.952h0.337v2.069l1.216-1.058h0.495l-1.441,1.25l1.525,1.371h-0.475l-1.32-1.18v1.18h-0.337V5.952z"/>
	<path d="M74.934,6.896c0.404,0,0.739,0.146,1.004,0.439C76.179,7.601,76.3,7.917,76.3,8.281c0,0.366-0.128,0.686-0.383,0.96
		c-0.254,0.273-0.582,0.411-0.983,0.411s-0.73-0.137-0.985-0.411c-0.255-0.274-0.383-0.594-0.383-0.96
		c0-0.363,0.121-0.678,0.362-0.944C74.193,7.043,74.528,6.896,74.934,6.896z M74.933,7.226c-0.28,0-0.521,0.104-0.723,0.312
		c-0.201,0.207-0.302,0.458-0.302,0.751c0,0.189,0.045,0.366,0.138,0.53c0.092,0.164,0.216,0.29,0.372,0.379
		c0.156,0.089,0.328,0.134,0.515,0.134s0.358-0.045,0.515-0.134c0.156-0.089,0.281-0.215,0.373-0.379
		c0.091-0.164,0.138-0.341,0.138-0.53c0-0.293-0.101-0.544-0.304-0.751C75.452,7.33,75.212,7.226,74.933,7.226z"/>
</g>
<g>
	<path d="M9.305,25.831l0.538-0.323c0.378,0.697,0.816,1.046,1.312,1.046c0.211,0,0.41-0.05,0.598-0.149
		c0.187-0.099,0.328-0.231,0.425-0.398c0.099-0.166,0.146-0.343,0.146-0.529c0-0.212-0.071-0.42-0.214-0.624
		c-0.199-0.28-0.561-0.619-1.085-1.015c-0.527-0.398-0.855-0.687-0.985-0.865c-0.223-0.298-0.336-0.621-0.336-0.968
		c0-0.276,0.066-0.526,0.198-0.753c0.132-0.226,0.317-0.405,0.558-0.535c0.239-0.131,0.5-0.196,0.78-0.196
		c0.298,0,0.577,0.074,0.837,0.221c0.26,0.148,0.534,0.42,0.824,0.816l-0.517,0.391c-0.238-0.315-0.44-0.523-0.608-0.624
		c-0.168-0.1-0.351-0.15-0.549-0.15c-0.255,0-0.464,0.078-0.626,0.232s-0.243,0.346-0.243,0.572c0,0.138,0.028,0.271,0.087,0.4
		c0.058,0.13,0.162,0.27,0.313,0.422c0.083,0.081,0.355,0.292,0.817,0.633c0.548,0.404,0.923,0.764,1.127,1.079
		c0.204,0.316,0.305,0.633,0.305,0.951c0,0.458-0.174,0.857-0.522,1.195c-0.348,0.339-0.771,0.508-1.271,0.508
		c-0.384,0-0.732-0.103-1.045-0.307C9.856,26.656,9.568,26.313,9.305,25.831z"/>
	<path d="M14.248,20.522h0.602v2.646c0.244-0.321,0.512-0.562,0.805-0.72c0.292-0.159,0.608-0.239,0.95-0.239
		c0.35,0,0.66,0.089,0.932,0.267c0.271,0.178,0.471,0.417,0.6,0.716s0.194,0.769,0.194,1.408v2.409h-0.604v-2.232
		c0-0.539-0.021-0.899-0.063-1.08c-0.075-0.31-0.211-0.543-0.407-0.699c-0.195-0.156-0.453-0.234-0.771-0.234
		c-0.364,0-0.69,0.12-0.979,0.361c-0.288,0.241-0.479,0.54-0.57,0.895c-0.058,0.23-0.086,0.654-0.086,1.273v1.716h-0.602V20.522z"/>
	<path d="M21.835,22.209c0.722,0,1.318,0.261,1.793,0.783c0.431,0.476,0.646,1.039,0.646,1.69c0,0.654-0.227,1.225-0.682,1.714
		c-0.456,0.489-1.041,0.733-1.757,0.733c-0.718,0-1.305-0.244-1.76-0.733s-0.684-1.061-0.684-1.714c0-0.648,0.216-1.21,0.646-1.686
		C20.512,22.471,21.111,22.209,21.835,22.209z M21.833,22.798c-0.501,0-0.931,0.185-1.291,0.556
		c-0.359,0.369-0.539,0.817-0.539,1.342c0,0.338,0.082,0.654,0.246,0.947c0.164,0.292,0.386,0.518,0.664,0.677
		c0.279,0.159,0.586,0.239,0.92,0.239c0.333,0,0.64-0.081,0.92-0.239c0.278-0.159,0.501-0.385,0.665-0.677
		c0.164-0.293,0.245-0.608,0.245-0.947c0-0.525-0.181-0.973-0.541-1.342C22.761,22.983,22.331,22.798,21.833,22.798z"/>
	<path d="M25.385,20.522h0.602v3.695l2.17-1.889h0.884l-2.572,2.233l2.723,2.447h-0.847l-2.357-2.106v2.106h-0.602V20.522z"/>
	<path d="M32.025,22.209c0.722,0,1.318,0.261,1.793,0.783c0.432,0.476,0.646,1.039,0.646,1.69c0,0.654-0.227,1.225-0.683,1.714
		c-0.455,0.489-1.04,0.733-1.756,0.733c-0.718,0-1.305-0.244-1.76-0.733s-0.684-1.061-0.684-1.714c0-0.648,0.216-1.21,0.646-1.686
		C30.702,22.471,31.302,22.209,32.025,22.209z M32.023,22.798c-0.501,0-0.931,0.185-1.291,0.556c-0.359,0.369-0.54,0.817-0.54,1.342
		c0,0.338,0.083,0.654,0.247,0.947c0.164,0.292,0.386,0.518,0.665,0.677c0.278,0.159,0.585,0.239,0.919,0.239s0.64-0.081,0.92-0.239
		c0.278-0.159,0.501-0.385,0.665-0.677c0.164-0.293,0.245-0.608,0.245-0.947c0-0.525-0.181-0.973-0.542-1.342
		C32.951,22.983,32.521,22.798,32.023,22.798z"/>
	<path d="M38.026,20.682h0.633v6.328h-0.633V20.682z"/>
	<path d="M40.006,22.329h0.602v0.809c0.21-0.298,0.425-0.516,0.646-0.654c0.304-0.183,0.624-0.275,0.96-0.275
		c0.227,0,0.441,0.044,0.646,0.133s0.371,0.207,0.5,0.355c0.129,0.147,0.241,0.358,0.336,0.634c0.2-0.367,0.45-0.646,0.751-0.836
		c0.301-0.191,0.624-0.286,0.97-0.286c0.324,0,0.609,0.082,0.856,0.245c0.248,0.164,0.432,0.391,0.552,0.684
		c0.119,0.293,0.18,0.731,0.18,1.317v2.555H46.39v-2.555c0-0.502-0.036-0.847-0.108-1.035c-0.071-0.188-0.193-0.339-0.366-0.454
		c-0.173-0.114-0.379-0.172-0.619-0.172c-0.292,0-0.558,0.086-0.8,0.258c-0.241,0.172-0.418,0.402-0.53,0.688
		c-0.111,0.287-0.167,0.766-0.167,1.437v1.833h-0.602v-2.396c0-0.565-0.036-0.948-0.105-1.151c-0.07-0.202-0.192-0.364-0.367-0.486
		c-0.176-0.122-0.384-0.183-0.624-0.183c-0.279,0-0.539,0.084-0.782,0.252c-0.241,0.168-0.421,0.394-0.536,0.677
		c-0.117,0.285-0.175,0.719-0.175,1.304v1.983h-0.602V22.329z"/>
	<path d="M52.937,22.329v4.68h-0.595v-0.804c-0.252,0.307-0.534,0.538-0.85,0.692c-0.313,0.155-0.657,0.232-1.029,0.232
		c-0.663,0-1.229-0.241-1.697-0.721s-0.704-1.064-0.704-1.752c0-0.674,0.237-1.25,0.71-1.729c0.474-0.479,1.043-0.718,1.708-0.718
		c0.384,0,0.731,0.082,1.043,0.245s0.585,0.409,0.819,0.735v-0.86H52.937z M50.528,22.79c-0.335,0-0.645,0.082-0.928,0.247
		c-0.283,0.164-0.509,0.396-0.677,0.694c-0.167,0.298-0.251,0.613-0.251,0.945c0,0.329,0.084,0.645,0.253,0.945
		c0.17,0.301,0.396,0.535,0.682,0.703c0.285,0.167,0.591,0.251,0.917,0.251c0.329,0,0.642-0.083,0.938-0.249
		c0.295-0.166,0.521-0.391,0.681-0.674c0.158-0.284,0.238-0.603,0.238-0.958c0-0.542-0.179-0.995-0.535-1.358
		C51.489,22.971,51.05,22.79,50.528,22.79z"/>
	<path d="M54.286,22.329h0.604v0.809c0.208-0.298,0.424-0.516,0.646-0.654c0.304-0.183,0.624-0.275,0.96-0.275
		c0.228,0,0.442,0.044,0.646,0.133c0.205,0.089,0.371,0.207,0.5,0.355c0.129,0.147,0.241,0.358,0.336,0.634
		c0.2-0.367,0.451-0.646,0.751-0.836c0.3-0.191,0.623-0.286,0.97-0.286c0.323,0,0.609,0.082,0.856,0.245
		c0.248,0.164,0.432,0.391,0.552,0.684c0.12,0.293,0.181,0.731,0.181,1.317v2.555H60.67v-2.555c0-0.502-0.035-0.847-0.107-1.035
		c-0.07-0.188-0.193-0.339-0.366-0.454c-0.173-0.114-0.379-0.172-0.619-0.172c-0.292,0-0.558,0.086-0.8,0.258
		c-0.242,0.172-0.418,0.402-0.53,0.688c-0.11,0.287-0.167,0.766-0.167,1.437v1.833h-0.602v-2.396c0-0.565-0.035-0.948-0.105-1.151
		c-0.07-0.202-0.192-0.364-0.367-0.486c-0.176-0.122-0.384-0.183-0.624-0.183c-0.278,0-0.539,0.084-0.781,0.252
		s-0.421,0.394-0.537,0.677c-0.117,0.285-0.174,0.719-0.174,1.304v1.983h-0.604V22.329z"/>
	<path d="M62.477,22.329h0.603v2.185c0,0.534,0.029,0.901,0.086,1.102c0.087,0.287,0.251,0.513,0.493,0.68
		c0.243,0.166,0.532,0.249,0.868,0.249s0.621-0.081,0.855-0.243c0.233-0.162,0.396-0.375,0.484-0.639
		c0.061-0.18,0.091-0.563,0.091-1.148v-2.185h0.614v2.297c0,0.645-0.074,1.131-0.225,1.458c-0.151,0.327-0.378,0.583-0.68,0.768
		c-0.303,0.185-0.683,0.277-1.138,0.277c-0.456,0-0.838-0.092-1.143-0.277c-0.306-0.186-0.533-0.443-0.685-0.775
		c-0.15-0.331-0.226-0.829-0.226-1.494V22.329z"/>
	<path d="M67.682,22.329h0.615v0.684c0.184-0.27,0.377-0.471,0.58-0.604c0.204-0.133,0.416-0.2,0.637-0.2
		c0.166,0,0.344,0.053,0.533,0.159l-0.313,0.507c-0.126-0.054-0.231-0.082-0.318-0.082c-0.201,0-0.395,0.083-0.58,0.248
		c-0.187,0.165-0.329,0.421-0.427,0.768c-0.074,0.267-0.111,0.806-0.111,1.617v1.583h-0.615V22.329z"/>
	<path d="M75.223,22.329v4.68h-0.595v-0.804c-0.251,0.307-0.534,0.538-0.85,0.692c-0.313,0.155-0.657,0.232-1.029,0.232
		c-0.662,0-1.229-0.241-1.697-0.721s-0.703-1.064-0.703-1.752c0-0.674,0.236-1.25,0.71-1.729c0.473-0.479,1.042-0.718,1.708-0.718
		c0.384,0,0.731,0.082,1.042,0.245c0.312,0.164,0.585,0.409,0.819,0.735v-0.86H75.223z M72.815,22.79
		c-0.336,0-0.645,0.082-0.928,0.247c-0.283,0.164-0.51,0.396-0.677,0.694c-0.168,0.298-0.251,0.613-0.251,0.945
		c0,0.329,0.084,0.645,0.253,0.945s0.396,0.535,0.681,0.703c0.285,0.167,0.591,0.251,0.917,0.251c0.33,0,0.642-0.083,0.938-0.249
		c0.295-0.166,0.521-0.391,0.681-0.674s0.239-0.603,0.239-0.958c0-0.542-0.179-0.995-0.536-1.358
		C73.775,22.971,73.337,22.79,72.815,22.79z"/>
</g>
<g>
	<path d="M20.856,29.684c0.307,0,0.564,0.104,0.771,0.307c0.206,0.206,0.311,0.459,0.311,0.758c0,0.297-0.104,0.547-0.31,0.753
		c-0.206,0.208-0.458,0.311-0.755,0.311c-0.3,0-0.553-0.103-0.76-0.309s-0.31-0.454-0.31-0.745c0-0.196,0.046-0.377,0.141-0.542
		c0.094-0.165,0.224-0.295,0.386-0.391C20.492,29.73,20.667,29.684,20.856,29.684z M20.866,29.882c-0.15,0-0.292,0.039-0.426,0.116
		c-0.135,0.078-0.239,0.185-0.314,0.316c-0.076,0.133-0.114,0.28-0.114,0.441c0,0.24,0.084,0.444,0.251,0.609
		c0.167,0.167,0.368,0.248,0.604,0.248c0.157,0,0.302-0.036,0.437-0.112c0.134-0.077,0.237-0.181,0.312-0.314
		c0.075-0.132,0.112-0.277,0.112-0.44c0-0.159-0.037-0.305-0.112-0.436c-0.075-0.13-0.181-0.234-0.316-0.312
		C21.162,29.921,21.019,29.882,20.866,29.882z"/>
	<path d="M22.238,30.263h0.197v0.219c0.059-0.085,0.12-0.151,0.186-0.193c0.064-0.043,0.134-0.064,0.203-0.064
		c0.054,0,0.111,0.018,0.171,0.053l-0.1,0.161c-0.041-0.018-0.075-0.025-0.102-0.025c-0.065,0-0.127,0.025-0.187,0.077
		c-0.06,0.055-0.105,0.136-0.137,0.247c-0.023,0.085-0.035,0.258-0.035,0.519v0.507h-0.197V30.263z"/>
	<path d="M24.45,30.263h0.192v1.193c0,0.21-0.018,0.363-0.054,0.461c-0.051,0.138-0.139,0.244-0.264,0.318
		c-0.125,0.073-0.274,0.112-0.45,0.112c-0.128,0-0.244-0.02-0.346-0.055c-0.103-0.037-0.187-0.085-0.25-0.147
		c-0.064-0.062-0.124-0.151-0.178-0.268h0.209c0.058,0.099,0.131,0.173,0.221,0.219c0.09,0.049,0.202,0.072,0.335,0.072
		c0.131,0,0.243-0.023,0.333-0.074c0.09-0.048,0.155-0.11,0.193-0.184c0.039-0.074,0.058-0.192,0.058-0.359v-0.076
		c-0.072,0.092-0.161,0.161-0.266,0.212c-0.104,0.049-0.216,0.074-0.334,0.074c-0.137,0-0.267-0.035-0.389-0.104
		c-0.121-0.067-0.214-0.161-0.281-0.275c-0.065-0.116-0.099-0.245-0.099-0.383s0.035-0.268,0.104-0.386
		c0.069-0.121,0.164-0.216,0.285-0.286c0.123-0.069,0.251-0.104,0.386-0.104c0.112,0,0.217,0.023,0.313,0.069
		c0.098,0.047,0.19,0.123,0.28,0.229V30.263z M23.882,30.41c-0.108,0-0.211,0.025-0.304,0.079c-0.095,0.053-0.167,0.127-0.221,0.22
		c-0.054,0.091-0.079,0.192-0.079,0.301c0,0.165,0.054,0.301,0.165,0.408c0.109,0.106,0.252,0.161,0.428,0.161
		c0.177,0,0.319-0.053,0.427-0.159c0.108-0.107,0.162-0.247,0.162-0.422c0-0.112-0.024-0.212-0.074-0.301s-0.119-0.159-0.211-0.21
		C24.085,30.436,23.986,30.41,23.882,30.41z"/>
	<path d="M26.549,30.263v1.499h-0.19v-0.259c-0.081,0.099-0.171,0.173-0.272,0.222c-0.1,0.05-0.21,0.073-0.329,0.073
		c-0.212,0-0.393-0.075-0.543-0.229c-0.149-0.153-0.226-0.342-0.226-0.562c0-0.216,0.076-0.399,0.228-0.554
		c0.151-0.153,0.334-0.23,0.546-0.23c0.124,0,0.235,0.027,0.334,0.079c0.1,0.053,0.188,0.131,0.263,0.235v-0.275H26.549z
		 M25.777,30.41c-0.106,0-0.205,0.025-0.296,0.079c-0.091,0.053-0.163,0.127-0.217,0.222s-0.08,0.196-0.08,0.303
		c0,0.104,0.027,0.206,0.08,0.303c0.055,0.096,0.128,0.171,0.219,0.224c0.092,0.055,0.188,0.081,0.293,0.081
		c0.106,0,0.206-0.026,0.3-0.079c0.095-0.053,0.167-0.126,0.218-0.216c0.052-0.091,0.077-0.194,0.077-0.307
		c0-0.175-0.058-0.318-0.171-0.435C26.085,30.468,25.944,30.41,25.777,30.41z"/>
	<path d="M26.981,30.263h0.193v0.268c0.076-0.101,0.162-0.179,0.256-0.229c0.094-0.052,0.195-0.077,0.305-0.077
		c0.113,0,0.212,0.029,0.3,0.085c0.086,0.059,0.15,0.135,0.19,0.231c0.042,0.095,0.062,0.246,0.062,0.448v0.773h-0.192v-0.715
		c0-0.173-0.008-0.289-0.021-0.346c-0.022-0.099-0.065-0.175-0.129-0.226c-0.063-0.048-0.146-0.073-0.247-0.073
		c-0.117,0-0.222,0.039-0.313,0.114c-0.093,0.078-0.154,0.173-0.183,0.287c-0.018,0.074-0.027,0.21-0.027,0.408v0.55h-0.193V30.263z
		"/>
	<path d="M28.768,29.646c0.044,0,0.082,0.016,0.112,0.047c0.031,0.031,0.047,0.068,0.047,0.112c0,0.043-0.016,0.08-0.047,0.111
		c-0.03,0.031-0.068,0.046-0.112,0.046c-0.043,0-0.079-0.015-0.11-0.046s-0.047-0.068-0.047-0.111c0-0.044,0.016-0.081,0.047-0.112
		S28.725,29.646,28.768,29.646z M28.673,30.263h0.191v1.499h-0.191V30.263z"/>
	<path d="M30.018,30.428l-0.123,0.126c-0.103-0.1-0.204-0.149-0.302-0.149c-0.063,0-0.116,0.021-0.161,0.062
		c-0.045,0.041-0.067,0.09-0.067,0.146c0,0.048,0.019,0.093,0.056,0.138c0.037,0.044,0.113,0.097,0.232,0.159
		c0.143,0.073,0.24,0.146,0.292,0.213c0.051,0.07,0.075,0.148,0.075,0.237c0,0.122-0.043,0.226-0.13,0.311
		c-0.086,0.086-0.194,0.128-0.323,0.128c-0.086,0-0.169-0.018-0.247-0.056c-0.079-0.037-0.144-0.09-0.195-0.155l0.121-0.139
		c0.099,0.111,0.202,0.167,0.312,0.167c0.078,0,0.144-0.024,0.197-0.073c0.055-0.051,0.082-0.108,0.082-0.175
		c0-0.057-0.018-0.104-0.054-0.147s-0.117-0.096-0.243-0.159c-0.136-0.07-0.227-0.14-0.276-0.208
		c-0.049-0.068-0.073-0.144-0.073-0.233c0-0.112,0.039-0.207,0.117-0.283c0.077-0.073,0.176-0.112,0.295-0.112
		C29.74,30.224,29.879,30.291,30.018,30.428z"/>
	<path d="M31.852,30.263v1.499h-0.19v-0.259c-0.08,0.099-0.171,0.173-0.271,0.222c-0.1,0.05-0.21,0.073-0.329,0.073
		c-0.213,0-0.394-0.075-0.544-0.229c-0.149-0.153-0.224-0.342-0.224-0.562c0-0.216,0.075-0.399,0.227-0.554
		c0.151-0.153,0.333-0.23,0.547-0.23c0.122,0,0.234,0.027,0.333,0.079c0.1,0.053,0.188,0.131,0.262,0.235v-0.275H31.852z
		 M31.082,30.41c-0.107,0-0.207,0.025-0.297,0.079c-0.092,0.053-0.163,0.127-0.217,0.222s-0.08,0.196-0.08,0.303
		c0,0.104,0.026,0.206,0.081,0.303c0.054,0.096,0.126,0.171,0.218,0.224c0.091,0.055,0.189,0.081,0.293,0.081
		c0.105,0,0.206-0.026,0.3-0.079c0.095-0.053,0.167-0.126,0.219-0.216c0.05-0.091,0.075-0.194,0.075-0.307
		c0-0.175-0.057-0.318-0.171-0.435C31.389,30.468,31.249,30.41,31.082,30.41z"/>
	<path d="M32.454,29.707h0.191v0.556h0.307v0.167h-0.307v1.332h-0.191V30.43H32.19v-0.167h0.264V29.707z"/>
	<path d="M33.168,30.263h0.197v0.219c0.059-0.085,0.12-0.151,0.186-0.193c0.064-0.043,0.133-0.064,0.204-0.064
		c0.053,0,0.109,0.018,0.171,0.053l-0.102,0.161c-0.04-0.018-0.073-0.025-0.102-0.025c-0.064,0-0.126,0.025-0.186,0.077
		c-0.061,0.055-0.104,0.136-0.137,0.247c-0.023,0.085-0.035,0.258-0.035,0.519v0.507h-0.197V30.263z"/>
	<path d="M34.155,29.646c0.044,0,0.082,0.016,0.113,0.047c0.03,0.031,0.046,0.068,0.046,0.112c0,0.043-0.016,0.08-0.046,0.111
		c-0.031,0.031-0.069,0.046-0.113,0.046c-0.043,0-0.079-0.015-0.11-0.046s-0.047-0.068-0.047-0.111c0-0.044,0.016-0.081,0.047-0.112
		S34.112,29.646,34.155,29.646z M34.061,30.263h0.192v1.499h-0.192V30.263z"/>
	<path d="M36.106,30.573l-0.152,0.095c-0.132-0.175-0.312-0.262-0.54-0.262c-0.183,0-0.334,0.058-0.455,0.177
		c-0.12,0.116-0.181,0.258-0.181,0.427c0,0.108,0.027,0.212,0.084,0.307c0.056,0.098,0.131,0.173,0.228,0.226
		s0.205,0.079,0.326,0.079c0.219,0,0.398-0.087,0.538-0.262l0.152,0.099c-0.071,0.109-0.168,0.192-0.288,0.251
		c-0.12,0.06-0.258,0.089-0.412,0.089c-0.237,0-0.434-0.073-0.59-0.225c-0.155-0.151-0.233-0.334-0.233-0.55
		c0-0.146,0.036-0.279,0.109-0.404c0.072-0.124,0.173-0.221,0.301-0.291c0.127-0.069,0.27-0.104,0.428-0.104
		c0.1,0,0.195,0.016,0.288,0.047c0.092,0.028,0.17,0.069,0.233,0.118C36.008,30.438,36.062,30.499,36.106,30.573z"/>
	<path d="M37.737,31.265L37.9,31.35c-0.053,0.103-0.115,0.188-0.185,0.252c-0.069,0.064-0.148,0.113-0.235,0.146
		c-0.088,0.034-0.187,0.05-0.296,0.05c-0.245,0-0.437-0.079-0.574-0.238c-0.138-0.161-0.207-0.342-0.207-0.544
		c0-0.19,0.059-0.359,0.175-0.509c0.149-0.188,0.347-0.283,0.595-0.283c0.255,0,0.459,0.097,0.612,0.291
		c0.107,0.136,0.163,0.307,0.165,0.513h-1.348c0.003,0.173,0.06,0.316,0.166,0.427c0.108,0.111,0.241,0.167,0.399,0.167
		c0.075,0,0.15-0.014,0.222-0.04c0.072-0.025,0.134-0.061,0.184-0.105C37.624,31.432,37.68,31.361,37.737,31.265z M37.737,30.86
		c-0.024-0.103-0.062-0.187-0.111-0.246c-0.05-0.062-0.114-0.111-0.195-0.15c-0.081-0.036-0.166-0.056-0.255-0.056
		c-0.146,0-0.273,0.048-0.379,0.142c-0.077,0.069-0.136,0.173-0.176,0.311H37.737z"/>
	<path d="M38.965,30.915h0.757v0.169h-0.757V30.915z"/>
	<path d="M40.885,29.736l0.944,2.025H41.61l-0.318-0.668H40.42l-0.315,0.668h-0.227l0.957-2.025H40.885z M40.859,30.165
		l-0.348,0.734h0.692L40.859,30.165z"/>
	<path d="M43.565,30.573l-0.153,0.095c-0.132-0.175-0.312-0.262-0.54-0.262c-0.183,0-0.334,0.058-0.455,0.177
		c-0.12,0.116-0.181,0.258-0.181,0.427c0,0.108,0.028,0.212,0.083,0.307c0.056,0.098,0.132,0.173,0.229,0.226
		s0.205,0.079,0.325,0.079c0.221,0,0.4-0.087,0.539-0.262l0.153,0.099c-0.072,0.109-0.168,0.192-0.289,0.251
		c-0.121,0.06-0.258,0.089-0.412,0.089c-0.236,0-0.433-0.073-0.589-0.225s-0.234-0.334-0.234-0.55c0-0.146,0.036-0.279,0.109-0.404
		c0.073-0.124,0.173-0.221,0.301-0.291c0.128-0.069,0.271-0.104,0.428-0.104c0.1,0,0.195,0.016,0.287,0.047
		c0.093,0.028,0.171,0.069,0.235,0.118C43.465,30.438,43.52,30.499,43.565,30.573z"/>
	<path d="M45.389,30.573l-0.152,0.095c-0.133-0.175-0.312-0.262-0.541-0.262c-0.183,0-0.333,0.058-0.454,0.177
		c-0.121,0.116-0.181,0.258-0.181,0.427c0,0.108,0.028,0.212,0.083,0.307c0.056,0.098,0.131,0.173,0.229,0.226
		c0.096,0.053,0.205,0.079,0.325,0.079c0.22,0,0.398-0.087,0.539-0.262l0.152,0.099c-0.071,0.109-0.167,0.192-0.289,0.251
		c-0.12,0.06-0.258,0.089-0.411,0.089c-0.237,0-0.434-0.073-0.589-0.225c-0.157-0.151-0.234-0.334-0.234-0.55
		c0-0.146,0.036-0.279,0.108-0.404c0.074-0.124,0.174-0.221,0.301-0.291c0.129-0.069,0.271-0.104,0.429-0.104
		c0.099,0,0.195,0.016,0.287,0.047c0.093,0.028,0.17,0.069,0.235,0.118C45.289,30.438,45.344,30.499,45.389,30.573z"/>
	<path d="M46.468,30.224c0.231,0,0.423,0.083,0.574,0.25c0.138,0.153,0.206,0.334,0.206,0.542c0,0.21-0.072,0.393-0.218,0.548
		c-0.146,0.157-0.333,0.234-0.562,0.234c-0.23,0-0.417-0.077-0.562-0.234c-0.146-0.155-0.219-0.338-0.219-0.548
		c0-0.208,0.068-0.389,0.207-0.54C46.045,30.309,46.236,30.224,46.468,30.224z M46.467,30.412c-0.16,0-0.298,0.06-0.412,0.179
		c-0.116,0.118-0.173,0.262-0.173,0.429c0,0.108,0.026,0.21,0.078,0.303c0.053,0.094,0.123,0.167,0.213,0.218
		c0.089,0.051,0.188,0.075,0.294,0.075s0.205-0.024,0.294-0.075c0.091-0.051,0.161-0.124,0.213-0.218
		c0.054-0.093,0.08-0.194,0.08-0.303c0-0.167-0.059-0.311-0.174-0.429C46.764,30.472,46.626,30.412,46.467,30.412z"/>
	<path d="M47.604,30.263h0.192v0.258c0.067-0.095,0.136-0.165,0.207-0.208c0.098-0.058,0.2-0.089,0.308-0.089
		c0.072,0,0.142,0.016,0.207,0.043c0.064,0.028,0.118,0.065,0.159,0.114c0.041,0.047,0.077,0.114,0.107,0.202
		c0.064-0.117,0.145-0.206,0.24-0.269c0.097-0.06,0.199-0.091,0.312-0.091c0.103,0,0.193,0.027,0.273,0.079
		c0.078,0.053,0.138,0.125,0.176,0.218c0.039,0.096,0.058,0.235,0.058,0.422v0.819h-0.196v-0.819c0-0.16-0.012-0.271-0.034-0.33
		c-0.023-0.061-0.062-0.109-0.117-0.146c-0.056-0.036-0.122-0.054-0.198-0.054c-0.095,0-0.179,0.027-0.257,0.081
		c-0.077,0.057-0.134,0.13-0.17,0.222c-0.034,0.091-0.053,0.244-0.053,0.46v0.587h-0.192v-0.768c0-0.183-0.012-0.305-0.034-0.369
		c-0.022-0.063-0.062-0.116-0.117-0.155c-0.057-0.038-0.122-0.058-0.2-0.058c-0.088,0-0.172,0.027-0.249,0.079
		c-0.078,0.055-0.136,0.126-0.172,0.218c-0.038,0.091-0.057,0.229-0.057,0.417v0.636h-0.192V30.263z"/>
	<path d="M50.252,30.263h0.192v0.275c0.076-0.104,0.164-0.183,0.263-0.235c0.1-0.052,0.21-0.079,0.331-0.079
		c0.213,0,0.396,0.077,0.547,0.23c0.15,0.154,0.226,0.338,0.226,0.554c0,0.22-0.074,0.408-0.224,0.562
		c-0.15,0.153-0.331,0.229-0.543,0.229c-0.119,0-0.228-0.023-0.329-0.073c-0.099-0.049-0.19-0.123-0.271-0.222v0.806h-0.192V30.263z
		 M51.022,30.41c-0.167,0-0.307,0.058-0.421,0.175c-0.113,0.116-0.171,0.26-0.171,0.435c0,0.112,0.026,0.216,0.076,0.307
		c0.051,0.09,0.124,0.163,0.219,0.216s0.194,0.079,0.3,0.079c0.104,0,0.201-0.026,0.291-0.081c0.092-0.053,0.164-0.128,0.219-0.224
		c0.055-0.097,0.081-0.198,0.081-0.303c0-0.106-0.026-0.208-0.081-0.303c-0.053-0.095-0.125-0.169-0.216-0.222
		C51.229,30.436,51.13,30.41,51.022,30.41z"/>
	<path d="M53.664,30.263v1.499h-0.19v-0.259c-0.08,0.099-0.171,0.173-0.271,0.222c-0.1,0.05-0.21,0.073-0.329,0.073
		c-0.213,0-0.394-0.075-0.544-0.229c-0.149-0.153-0.224-0.342-0.224-0.562c0-0.216,0.074-0.399,0.226-0.554
		c0.151-0.153,0.334-0.23,0.547-0.23c0.123,0,0.235,0.027,0.334,0.079c0.1,0.053,0.188,0.131,0.262,0.235v-0.275H53.664z
		 M52.895,30.41c-0.107,0-0.207,0.025-0.297,0.079c-0.092,0.053-0.163,0.127-0.217,0.222s-0.08,0.196-0.08,0.303
		c0,0.104,0.026,0.206,0.081,0.303c0.054,0.096,0.126,0.171,0.218,0.224c0.091,0.055,0.189,0.081,0.293,0.081
		c0.105,0,0.206-0.026,0.3-0.079s0.167-0.126,0.218-0.216c0.051-0.091,0.076-0.194,0.076-0.307c0-0.175-0.057-0.318-0.171-0.435
		C53.201,30.468,53.062,30.41,52.895,30.41z"/>
	<path d="M55.39,30.263h0.191v1.193c0,0.21-0.018,0.363-0.054,0.461c-0.052,0.138-0.139,0.244-0.264,0.318
		c-0.125,0.073-0.275,0.112-0.45,0.112c-0.128,0-0.243-0.02-0.347-0.055c-0.102-0.037-0.186-0.085-0.249-0.147
		c-0.064-0.062-0.123-0.151-0.178-0.268h0.21c0.057,0.099,0.13,0.173,0.22,0.219c0.09,0.049,0.202,0.072,0.335,0.072
		c0.131,0,0.242-0.023,0.333-0.074c0.091-0.048,0.154-0.11,0.193-0.184c0.039-0.074,0.059-0.192,0.059-0.359v-0.076
		c-0.073,0.092-0.161,0.161-0.267,0.212c-0.104,0.049-0.216,0.074-0.334,0.074c-0.138,0-0.267-0.035-0.388-0.104
		c-0.122-0.067-0.216-0.161-0.282-0.275c-0.065-0.116-0.099-0.245-0.099-0.383s0.035-0.268,0.104-0.386
		c0.069-0.121,0.164-0.216,0.286-0.286c0.122-0.069,0.25-0.104,0.385-0.104c0.112,0,0.217,0.023,0.313,0.069
		c0.098,0.047,0.19,0.123,0.281,0.229V30.263z M54.82,30.41c-0.108,0-0.211,0.025-0.304,0.079c-0.094,0.053-0.167,0.127-0.221,0.22
		c-0.053,0.091-0.079,0.192-0.079,0.301c0,0.165,0.054,0.301,0.165,0.408c0.109,0.106,0.252,0.161,0.428,0.161
		c0.177,0,0.319-0.053,0.428-0.159c0.107-0.107,0.162-0.247,0.162-0.422c0-0.112-0.025-0.212-0.075-0.301s-0.119-0.159-0.211-0.21
		C55.023,30.436,54.925,30.41,54.82,30.41z"/>
	<path d="M55.995,30.263h0.192v0.268c0.077-0.101,0.162-0.179,0.256-0.229c0.094-0.052,0.195-0.077,0.306-0.077
		c0.112,0,0.211,0.029,0.299,0.085c0.086,0.059,0.15,0.135,0.19,0.231c0.042,0.095,0.062,0.246,0.062,0.448v0.773h-0.192v-0.715
		c0-0.173-0.008-0.289-0.021-0.346c-0.022-0.099-0.065-0.175-0.129-0.226c-0.063-0.048-0.146-0.073-0.247-0.073
		c-0.117,0-0.222,0.039-0.314,0.114c-0.092,0.078-0.152,0.173-0.181,0.287c-0.019,0.074-0.028,0.21-0.028,0.408v0.55h-0.192V30.263z
		"/>
	<path d="M59.206,30.263v1.499h-0.189v-0.259c-0.081,0.099-0.171,0.173-0.272,0.222c-0.101,0.05-0.211,0.073-0.33,0.073
		c-0.212,0-0.392-0.075-0.542-0.229c-0.151-0.153-0.226-0.342-0.226-0.562c0-0.216,0.075-0.399,0.227-0.554
		c0.152-0.153,0.334-0.23,0.547-0.23c0.123,0,0.235,0.027,0.334,0.079c0.1,0.053,0.187,0.131,0.263,0.235v-0.275H59.206z
		 M58.436,30.41c-0.106,0-0.206,0.025-0.297,0.079c-0.091,0.053-0.162,0.127-0.216,0.222s-0.08,0.196-0.08,0.303
		c0,0.104,0.027,0.206,0.08,0.303c0.055,0.096,0.127,0.171,0.219,0.224c0.091,0.055,0.188,0.081,0.293,0.081s0.206-0.026,0.3-0.079
		c0.095-0.053,0.167-0.126,0.218-0.216c0.052-0.091,0.076-0.194,0.076-0.307c0-0.175-0.057-0.318-0.171-0.435
		C58.743,30.468,58.603,30.41,58.436,30.41z"/>
	<path d="M59.808,29.707h0.193v0.556h0.306v0.167h-0.306v1.332h-0.193V30.43h-0.263v-0.167h0.263V29.707z"/>
	<path d="M60.521,30.263h0.197v0.219c0.06-0.085,0.12-0.151,0.186-0.193c0.065-0.043,0.134-0.064,0.204-0.064
		c0.053,0,0.11,0.018,0.171,0.053l-0.101,0.161c-0.04-0.018-0.074-0.025-0.102-0.025c-0.065,0-0.126,0.025-0.187,0.077
		c-0.06,0.055-0.104,0.136-0.136,0.247c-0.024,0.085-0.036,0.258-0.036,0.519v0.507h-0.197V30.263z"/>
	<path d="M61.51,29.646c0.044,0,0.081,0.016,0.113,0.047c0.029,0.031,0.045,0.068,0.045,0.112c0,0.043-0.016,0.08-0.045,0.111
		c-0.032,0.031-0.069,0.046-0.113,0.046c-0.043,0-0.08-0.015-0.111-0.046s-0.047-0.068-0.047-0.111c0-0.044,0.016-0.081,0.047-0.112
		S61.467,29.646,61.51,29.646z M61.414,30.263h0.193v1.499h-0.193V30.263z"/>
	<path d="M63.461,30.573l-0.153,0.095c-0.132-0.175-0.312-0.262-0.539-0.262c-0.183,0-0.334,0.058-0.456,0.177
		c-0.12,0.116-0.18,0.258-0.18,0.427c0,0.108,0.027,0.212,0.083,0.307c0.056,0.098,0.132,0.173,0.229,0.226s0.204,0.079,0.325,0.079
		c0.22,0,0.399-0.087,0.538-0.262l0.153,0.099c-0.071,0.109-0.168,0.192-0.288,0.251c-0.121,0.06-0.258,0.089-0.412,0.089
		c-0.237,0-0.434-0.073-0.59-0.225s-0.233-0.334-0.233-0.55c0-0.146,0.036-0.279,0.109-0.404c0.073-0.124,0.173-0.221,0.301-0.291
		c0.127-0.069,0.271-0.104,0.428-0.104c0.1,0,0.194,0.016,0.287,0.047c0.092,0.028,0.171,0.069,0.234,0.118
		C63.361,30.438,63.416,30.499,63.461,30.573z"/>
	<path d="M65.092,31.265l0.162,0.085c-0.053,0.103-0.114,0.188-0.184,0.252c-0.07,0.064-0.148,0.113-0.236,0.146
		c-0.087,0.034-0.186,0.05-0.296,0.05c-0.245,0-0.436-0.079-0.573-0.238c-0.138-0.161-0.206-0.342-0.206-0.544
		c0-0.19,0.058-0.359,0.175-0.509c0.147-0.188,0.345-0.283,0.594-0.283c0.255,0,0.459,0.097,0.611,0.291
		c0.108,0.136,0.164,0.307,0.165,0.513h-1.348c0.004,0.173,0.06,0.316,0.167,0.427c0.108,0.111,0.24,0.167,0.398,0.167
		c0.076,0,0.15-0.014,0.223-0.04c0.072-0.025,0.134-0.061,0.184-0.105C64.979,31.432,65.033,31.361,65.092,31.265z M65.092,30.86
		c-0.025-0.103-0.062-0.187-0.112-0.246c-0.049-0.062-0.113-0.111-0.195-0.15c-0.08-0.036-0.166-0.056-0.254-0.056
		c-0.147,0-0.273,0.048-0.38,0.142c-0.076,0.069-0.135,0.173-0.175,0.311H65.092z"/>
</g>
<g>
	<path fill="#BE1622" d="M8.756,44.222h0.261l0.603,1.428l0.627-1.428h0.046l0.632,1.428l0.613-1.428h0.264l-0.854,1.966h-0.047
		l-0.628-1.408l-0.628,1.408H9.596L8.756,44.222z"/>
	<path fill="#BE1622" d="M11.831,44.222h0.261l0.602,1.428l0.628-1.428h0.046l0.631,1.428l0.614-1.428h0.264l-0.854,1.966h-0.047
		l-0.629-1.408l-0.628,1.408h-0.047L11.831,44.222z"/>
	<path fill="#BE1622" d="M14.906,44.222h0.26l0.603,1.428l0.628-1.428h0.046l0.631,1.428l0.614-1.428h0.264l-0.854,1.966h-0.046
		l-0.63-1.408l-0.628,1.408h-0.047L14.906,44.222z"/>
	<path fill="#BE1622" d="M18.526,45.789c0.061,0,0.113,0.023,0.156,0.066c0.043,0.042,0.064,0.097,0.064,0.159
		c0,0.062-0.021,0.114-0.064,0.157c-0.043,0.044-0.096,0.065-0.156,0.065c-0.062,0-0.115-0.021-0.157-0.065
		c-0.044-0.043-0.065-0.096-0.065-0.157c0-0.062,0.021-0.117,0.065-0.159C18.411,45.812,18.464,45.789,18.526,45.789z"/>
	<path fill="#BE1622" d="M19.085,44.222h0.271l0.659,1.434l0.651-1.434h0.271l-0.9,1.966h-0.046L19.085,44.222z"/>
	<path fill="#BE1622" d="M21.41,43.412c0.058,0,0.106,0.02,0.147,0.062c0.041,0.041,0.062,0.09,0.062,0.147
		c0,0.057-0.021,0.105-0.062,0.146c-0.041,0.041-0.09,0.062-0.147,0.062c-0.057,0-0.104-0.021-0.146-0.062
		c-0.041-0.04-0.062-0.089-0.062-0.146c0-0.058,0.021-0.106,0.062-0.147C21.306,43.432,21.354,43.412,21.41,43.412z M21.285,44.222
		h0.252v1.966h-0.252V44.222z"/>
	<path fill="#BE1622" d="M23.052,44.436l-0.163,0.169c-0.135-0.132-0.268-0.196-0.397-0.196c-0.081,0-0.152,0.027-0.21,0.08
		c-0.059,0.055-0.089,0.118-0.089,0.19c0,0.063,0.024,0.124,0.073,0.183c0.048,0.06,0.149,0.128,0.304,0.207
		c0.188,0.1,0.316,0.192,0.385,0.282c0.065,0.093,0.099,0.195,0.099,0.309c0,0.163-0.057,0.299-0.17,0.411
		c-0.113,0.111-0.255,0.167-0.425,0.167c-0.114,0-0.222-0.025-0.325-0.073c-0.104-0.049-0.188-0.117-0.256-0.204l0.158-0.181
		c0.13,0.146,0.268,0.218,0.412,0.218c0.101,0,0.187-0.031,0.259-0.098c0.071-0.063,0.106-0.142,0.106-0.229
		c0-0.072-0.023-0.137-0.07-0.194c-0.047-0.055-0.153-0.124-0.318-0.208c-0.178-0.091-0.298-0.183-0.362-0.271
		c-0.064-0.09-0.096-0.19-0.096-0.305c0-0.149,0.051-0.274,0.153-0.373c0.101-0.099,0.229-0.147,0.386-0.147
		C22.686,44.172,22.868,44.259,23.052,44.436z"/>
	<path fill="#BE1622" d="M23.587,43.412c0.058,0,0.106,0.02,0.147,0.062c0.041,0.041,0.061,0.09,0.061,0.147
		c0,0.057-0.02,0.105-0.061,0.146c-0.041,0.041-0.09,0.062-0.147,0.062c-0.057,0-0.105-0.021-0.146-0.062
		c-0.041-0.04-0.062-0.089-0.062-0.146c0-0.058,0.021-0.106,0.062-0.147C23.481,43.432,23.53,43.412,23.587,43.412z M23.461,44.222
		h0.254v1.966h-0.254V44.222z"/>
	<path fill="#BE1622" d="M24.46,43.492h0.253v0.729h0.401v0.218h-0.401v1.748H24.46v-1.748h-0.345v-0.218h0.345V43.492z"/>
	<path fill="#BE1622" d="M27.148,45.534l0.214,0.113c-0.07,0.138-0.15,0.248-0.243,0.332c-0.091,0.085-0.194,0.149-0.309,0.192
		c-0.114,0.044-0.244,0.065-0.39,0.065c-0.32,0-0.57-0.104-0.752-0.314c-0.181-0.21-0.271-0.448-0.271-0.713
		c0-0.25,0.076-0.472,0.229-0.667c0.193-0.247,0.453-0.371,0.778-0.371c0.336,0,0.604,0.126,0.804,0.38
		c0.143,0.181,0.214,0.404,0.217,0.672h-1.769c0.005,0.229,0.078,0.416,0.22,0.562c0.141,0.147,0.314,0.22,0.522,0.22
		c0.1,0,0.197-0.018,0.292-0.053c0.094-0.035,0.175-0.08,0.241-0.138C27,45.756,27.071,45.665,27.148,45.534z M27.148,45.007
		c-0.033-0.136-0.083-0.243-0.146-0.324c-0.065-0.08-0.15-0.146-0.257-0.194c-0.106-0.051-0.217-0.076-0.335-0.076
		c-0.192,0-0.357,0.062-0.497,0.187c-0.102,0.092-0.177,0.228-0.229,0.408H27.148z"/>
	<path fill="#BE1622" d="M27.803,44.222h0.259v0.288c0.077-0.113,0.158-0.198,0.243-0.255c0.086-0.056,0.176-0.083,0.268-0.083
		c0.07,0,0.145,0.021,0.225,0.065l-0.132,0.214c-0.054-0.023-0.098-0.035-0.134-0.035c-0.085,0-0.165,0.035-0.244,0.105
		c-0.079,0.069-0.138,0.177-0.179,0.322c-0.032,0.112-0.047,0.338-0.047,0.68v0.664h-0.259V44.222z"/>
	<path fill="#BE1622" d="M28.848,45.078h0.994v0.22h-0.994V45.078z"/>
	<path fill="#BE1622" d="M30.202,43.463h0.253v2.725h-0.253V43.463z"/>
	<path fill="#BE1622" d="M32.635,45.534l0.214,0.113c-0.069,0.138-0.15,0.248-0.242,0.332c-0.092,0.085-0.194,0.149-0.309,0.192
		c-0.115,0.044-0.245,0.065-0.39,0.065c-0.32,0-0.571-0.104-0.752-0.314s-0.271-0.448-0.271-0.713c0-0.25,0.077-0.472,0.23-0.667
		c0.193-0.247,0.453-0.371,0.778-0.371c0.336,0,0.603,0.126,0.803,0.38c0.143,0.181,0.215,0.404,0.218,0.672h-1.769
		c0.005,0.229,0.077,0.416,0.219,0.562c0.141,0.147,0.314,0.22,0.522,0.22c0.1,0,0.197-0.018,0.292-0.053s0.175-0.08,0.241-0.138
		C32.486,45.756,32.559,45.665,32.635,45.534z M32.635,45.007c-0.032-0.136-0.082-0.243-0.146-0.324
		c-0.064-0.08-0.15-0.146-0.256-0.194c-0.106-0.051-0.218-0.076-0.335-0.076c-0.193,0-0.358,0.062-0.497,0.187
		c-0.102,0.092-0.179,0.228-0.23,0.408H32.635z"/>
	<path fill="#BE1622" d="M33.221,45.078h0.994v0.22h-0.994V45.078z"/>
	<path fill="#BE1622" d="M34.584,44.222h0.256v2.263c0,0.165-0.03,0.285-0.089,0.358c-0.061,0.076-0.143,0.115-0.245,0.115
		c-0.086,0-0.183-0.021-0.289-0.062v-0.227c0.066,0.034,0.128,0.052,0.183,0.052c0.068,0,0.119-0.029,0.153-0.085
		c0.021-0.037,0.031-0.111,0.031-0.226V44.222z M34.708,43.412c0.058,0,0.106,0.02,0.147,0.062c0.04,0.041,0.061,0.09,0.061,0.147
		c0,0.057-0.021,0.105-0.061,0.146c-0.041,0.041-0.09,0.062-0.147,0.062s-0.107-0.021-0.147-0.062
		c-0.04-0.04-0.061-0.089-0.061-0.146c0-0.058,0.021-0.106,0.061-0.147C34.601,43.432,34.65,43.412,34.708,43.412z"/>
	<path fill="#BE1622" d="M37.324,44.222v1.966h-0.25V45.85c-0.105,0.13-0.225,0.227-0.355,0.291
		c-0.133,0.065-0.277,0.097-0.434,0.097c-0.278,0-0.517-0.101-0.712-0.303c-0.197-0.2-0.297-0.446-0.297-0.735
		c0-0.282,0.1-0.524,0.299-0.727c0.198-0.2,0.438-0.301,0.717-0.301c0.161,0,0.308,0.033,0.438,0.103
		c0.131,0.068,0.245,0.171,0.344,0.309v-0.361H37.324z M36.313,44.414c-0.141,0-0.271,0.035-0.391,0.105
		c-0.119,0.067-0.213,0.165-0.284,0.291c-0.069,0.124-0.105,0.258-0.105,0.397c0,0.139,0.036,0.271,0.106,0.396
		c0.071,0.126,0.167,0.226,0.286,0.295c0.12,0.07,0.249,0.105,0.386,0.105c0.138,0,0.269-0.035,0.394-0.105
		c0.124-0.069,0.219-0.163,0.286-0.283c0.067-0.118,0.1-0.252,0.1-0.402c0-0.227-0.074-0.417-0.225-0.568
		C36.717,44.492,36.532,44.414,36.313,44.414z"/>
	<path fill="#BE1622" d="M37.896,44.222h0.253v0.361c0.1-0.138,0.216-0.24,0.346-0.309c0.13-0.069,0.274-0.103,0.435-0.103
		c0.278,0,0.518,0.101,0.717,0.301c0.197,0.202,0.298,0.444,0.298,0.727c0,0.289-0.1,0.535-0.296,0.735
		c-0.196,0.202-0.435,0.303-0.712,0.303c-0.156,0-0.3-0.031-0.431-0.097c-0.132-0.064-0.251-0.161-0.356-0.291v1.058h-0.253V44.222z
		 M38.908,44.414c-0.218,0-0.402,0.078-0.552,0.231c-0.15,0.151-0.225,0.342-0.225,0.568c0,0.15,0.033,0.284,0.1,0.402
		c0.066,0.12,0.162,0.214,0.287,0.283c0.124,0.07,0.255,0.105,0.394,0.105c0.136,0,0.264-0.035,0.383-0.105
		c0.119-0.069,0.216-0.169,0.286-0.295c0.071-0.126,0.105-0.258,0.105-0.396c0-0.14-0.034-0.273-0.104-0.397
		c-0.07-0.126-0.165-0.224-0.284-0.291C39.18,44.449,39.049,44.414,38.908,44.414z"/>
	<path fill="#BE1622" d="M41.348,44.172c0.303,0,0.554,0.108,0.753,0.328c0.182,0.2,0.271,0.437,0.271,0.71
		c0,0.274-0.096,0.515-0.287,0.721c-0.191,0.204-0.438,0.307-0.737,0.307c-0.302,0-0.548-0.103-0.739-0.307
		c-0.191-0.206-0.287-0.446-0.287-0.721c0-0.271,0.091-0.508,0.271-0.708C40.792,44.28,41.043,44.172,41.348,44.172z M41.347,44.418
		c-0.21,0-0.391,0.078-0.542,0.233c-0.15,0.155-0.227,0.344-0.227,0.564c0,0.143,0.034,0.274,0.103,0.396
		c0.069,0.124,0.162,0.218,0.28,0.285c0.117,0.066,0.245,0.1,0.386,0.1c0.14,0,0.27-0.033,0.386-0.1
		c0.117-0.067,0.211-0.161,0.279-0.285c0.069-0.122,0.104-0.254,0.104-0.396c0-0.221-0.076-0.409-0.228-0.564
		S41.556,44.418,41.347,44.418z"/>
	<path fill="#BE1622" d="M42.84,44.222h0.253v0.352c0.101-0.134,0.213-0.234,0.336-0.303c0.123-0.065,0.257-0.099,0.4-0.099
		c0.147,0,0.277,0.037,0.393,0.11c0.113,0.076,0.197,0.177,0.251,0.303c0.055,0.127,0.082,0.322,0.082,0.591v1.012h-0.254v-0.938
		c0-0.225-0.009-0.376-0.028-0.452c-0.028-0.13-0.085-0.229-0.169-0.293c-0.082-0.066-0.19-0.1-0.325-0.1
		c-0.152,0-0.289,0.051-0.41,0.151c-0.121,0.102-0.201,0.228-0.24,0.375c-0.022,0.1-0.035,0.277-0.035,0.536v0.721H42.84V44.222z"/>
	<path fill="#BE1622" d="M44.932,45.078h0.993v0.22h-0.993V45.078z"/>
	<path fill="#BE1622" d="M48.283,44.222v1.966h-0.249V45.85c-0.106,0.13-0.226,0.227-0.356,0.291
		c-0.132,0.065-0.277,0.097-0.434,0.097c-0.278,0-0.516-0.101-0.712-0.303c-0.197-0.2-0.296-0.446-0.296-0.735
		c0-0.282,0.1-0.524,0.298-0.727c0.198-0.2,0.438-0.301,0.717-0.301c0.161,0,0.308,0.033,0.438,0.103
		c0.131,0.068,0.245,0.171,0.345,0.309v-0.361H48.283z M47.272,44.414c-0.141,0-0.271,0.035-0.39,0.105
		c-0.12,0.067-0.214,0.165-0.285,0.291c-0.069,0.124-0.104,0.258-0.104,0.397c0,0.139,0.035,0.271,0.105,0.396
		c0.071,0.126,0.167,0.226,0.287,0.295c0.119,0.07,0.248,0.105,0.385,0.105c0.138,0,0.27-0.035,0.394-0.105
		c0.124-0.069,0.219-0.163,0.286-0.283c0.067-0.118,0.1-0.252,0.1-0.402c0-0.227-0.074-0.417-0.225-0.568
		C47.676,44.492,47.491,44.414,47.272,44.414z"/>
	<path fill="#BE1622" d="M48.666,44.222h0.27l0.66,1.434l0.651-1.434h0.271l-0.899,1.966h-0.047L48.666,44.222z"/>
	<path fill="#BE1622" d="M52.558,45.534l0.214,0.113c-0.07,0.138-0.15,0.248-0.243,0.332c-0.091,0.085-0.194,0.149-0.309,0.192
		c-0.114,0.044-0.245,0.065-0.39,0.065c-0.32,0-0.57-0.104-0.752-0.314c-0.181-0.21-0.271-0.448-0.271-0.713
		c0-0.25,0.076-0.472,0.229-0.667c0.193-0.247,0.453-0.371,0.778-0.371c0.336,0,0.604,0.126,0.804,0.38
		c0.143,0.181,0.214,0.404,0.217,0.672h-1.769c0.005,0.229,0.078,0.416,0.22,0.562c0.141,0.147,0.314,0.22,0.521,0.22
		c0.101,0,0.198-0.018,0.293-0.053c0.094-0.035,0.175-0.08,0.24-0.138C52.409,45.756,52.48,45.665,52.558,45.534z M52.558,45.007
		c-0.033-0.136-0.083-0.243-0.146-0.324c-0.065-0.08-0.15-0.146-0.257-0.194c-0.106-0.051-0.217-0.076-0.335-0.076
		c-0.192,0-0.357,0.062-0.497,0.187c-0.102,0.092-0.177,0.228-0.229,0.408H52.558z"/>
	<path fill="#BE1622" d="M55.216,44.63l-0.201,0.124c-0.173-0.229-0.409-0.344-0.709-0.344c-0.239,0-0.438,0.076-0.596,0.231
		c-0.158,0.153-0.238,0.34-0.238,0.562c0,0.142,0.036,0.277,0.11,0.403c0.071,0.126,0.173,0.224,0.299,0.293
		c0.127,0.07,0.27,0.105,0.427,0.105c0.288,0,0.524-0.115,0.707-0.346l0.201,0.132c-0.095,0.142-0.221,0.252-0.379,0.33
		c-0.158,0.077-0.339,0.116-0.541,0.116c-0.311,0-0.568-0.099-0.773-0.295c-0.205-0.198-0.307-0.438-0.307-0.723
		c0-0.189,0.048-0.366,0.144-0.529s0.228-0.29,0.396-0.381c0.167-0.093,0.354-0.138,0.561-0.138c0.13,0,0.256,0.02,0.377,0.058
		c0.121,0.041,0.225,0.094,0.309,0.157C55.085,44.449,55.156,44.531,55.216,44.63z"/>
	<path fill="#BE1622" d="M55.537,45.078h0.994v0.22h-0.994V45.078z"/>
	<path fill="#BE1622" d="M57.918,44.436l-0.162,0.169c-0.136-0.132-0.268-0.196-0.396-0.196c-0.083,0-0.152,0.027-0.211,0.08
		c-0.06,0.055-0.089,0.118-0.089,0.19c0,0.063,0.024,0.124,0.073,0.183c0.049,0.06,0.149,0.128,0.304,0.207
		c0.188,0.1,0.316,0.192,0.385,0.282c0.065,0.093,0.099,0.195,0.099,0.309c0,0.163-0.056,0.299-0.17,0.411
		c-0.113,0.111-0.255,0.167-0.425,0.167c-0.113,0-0.223-0.025-0.325-0.073c-0.104-0.049-0.188-0.117-0.257-0.204l0.159-0.181
		c0.13,0.146,0.268,0.218,0.412,0.218c0.101,0,0.188-0.031,0.258-0.098c0.072-0.063,0.108-0.142,0.108-0.229
		c0-0.072-0.024-0.137-0.071-0.194c-0.048-0.055-0.153-0.124-0.318-0.208c-0.178-0.091-0.299-0.183-0.363-0.271
		c-0.063-0.09-0.095-0.19-0.095-0.305c0-0.149,0.051-0.274,0.152-0.373s0.231-0.147,0.387-0.147
		C57.552,44.172,57.734,44.259,57.918,44.436z"/>
	<path fill="#BE1622" d="M58.366,43.463h0.253v1.11c0.103-0.134,0.216-0.234,0.338-0.303c0.123-0.065,0.256-0.099,0.399-0.099
		c0.147,0,0.277,0.037,0.392,0.11c0.113,0.076,0.198,0.175,0.252,0.301c0.054,0.127,0.081,0.324,0.081,0.593v1.012h-0.253v-0.938
		c0-0.225-0.009-0.376-0.026-0.452c-0.032-0.13-0.089-0.229-0.172-0.293c-0.082-0.066-0.19-0.1-0.323-0.1
		c-0.153,0-0.29,0.051-0.412,0.151c-0.121,0.102-0.201,0.228-0.238,0.375c-0.024,0.098-0.037,0.275-0.037,0.536v0.721h-0.253V43.463
		z"/>
	<path fill="#BE1622" d="M61.554,44.172c0.303,0,0.554,0.108,0.752,0.328c0.182,0.2,0.272,0.437,0.272,0.71
		c0,0.274-0.097,0.515-0.287,0.721c-0.191,0.204-0.438,0.307-0.737,0.307c-0.302,0-0.549-0.103-0.739-0.307
		c-0.191-0.206-0.287-0.446-0.287-0.721c0-0.271,0.091-0.508,0.271-0.708C60.997,44.28,61.249,44.172,61.554,44.172z M61.553,44.418
		c-0.211,0-0.392,0.078-0.543,0.233c-0.15,0.155-0.226,0.344-0.226,0.564c0,0.143,0.034,0.274,0.103,0.396
		c0.069,0.124,0.162,0.218,0.279,0.285c0.118,0.066,0.246,0.1,0.387,0.1c0.14,0,0.269-0.033,0.386-0.1
		c0.117-0.067,0.21-0.161,0.279-0.285c0.069-0.122,0.104-0.254,0.104-0.396c0-0.221-0.075-0.409-0.228-0.564
		C61.942,44.496,61.762,44.418,61.553,44.418z"/>
	<path fill="#BE1622" d="M63.044,43.463h0.253v1.552l0.911-0.793h0.372l-1.081,0.938l1.144,1.027h-0.356l-0.989-0.886v0.886h-0.253
		V43.463z"/>
	<path fill="#BE1622" d="M65.833,44.172c0.303,0,0.555,0.108,0.753,0.328c0.182,0.2,0.272,0.437,0.272,0.71
		c0,0.274-0.097,0.515-0.288,0.721c-0.19,0.204-0.437,0.307-0.737,0.307s-0.548-0.103-0.739-0.307
		c-0.19-0.206-0.287-0.446-0.287-0.721c0-0.271,0.092-0.508,0.272-0.708C65.277,44.28,65.529,44.172,65.833,44.172z M65.832,44.418
		c-0.21,0-0.391,0.078-0.542,0.233s-0.227,0.344-0.227,0.564c0,0.143,0.034,0.274,0.104,0.396c0.069,0.124,0.162,0.218,0.279,0.285
		c0.118,0.066,0.246,0.1,0.386,0.1c0.141,0,0.27-0.033,0.387-0.1c0.117-0.067,0.21-0.161,0.279-0.285
		c0.068-0.122,0.103-0.254,0.103-0.396c0-0.221-0.075-0.409-0.227-0.564S66.042,44.418,65.832,44.418z"/>
	<path fill="#BE1622" d="M67.604,45.789c0.062,0,0.113,0.023,0.157,0.066c0.044,0.042,0.065,0.097,0.065,0.159
		c0,0.062-0.021,0.114-0.065,0.157c-0.044,0.044-0.096,0.065-0.157,0.065c-0.061,0-0.113-0.021-0.157-0.065
		c-0.043-0.043-0.065-0.096-0.065-0.157c0-0.062,0.022-0.117,0.065-0.159C67.49,45.812,67.543,45.789,67.604,45.789z"/>
	<path fill="#BE1622" d="M70.258,44.63l-0.201,0.124c-0.173-0.229-0.408-0.344-0.709-0.344c-0.239,0-0.438,0.076-0.596,0.231
		c-0.158,0.153-0.237,0.34-0.237,0.562c0,0.142,0.036,0.277,0.109,0.403c0.071,0.126,0.173,0.224,0.299,0.293
		c0.127,0.07,0.27,0.105,0.427,0.105c0.289,0,0.524-0.115,0.707-0.346l0.201,0.132c-0.094,0.142-0.221,0.252-0.379,0.33
		c-0.158,0.077-0.339,0.116-0.54,0.116c-0.312,0-0.569-0.099-0.774-0.295c-0.204-0.198-0.307-0.438-0.307-0.723
		c0-0.189,0.048-0.366,0.144-0.529c0.097-0.163,0.228-0.29,0.396-0.381c0.167-0.093,0.354-0.138,0.561-0.138
		c0.131,0,0.257,0.02,0.377,0.058c0.121,0.041,0.225,0.094,0.309,0.157C70.127,44.449,70.198,44.531,70.258,44.63z"/>
	<path fill="#BE1622" d="M71.674,44.172c0.303,0,0.555,0.108,0.754,0.328c0.181,0.2,0.271,0.437,0.271,0.71
		c0,0.274-0.095,0.515-0.286,0.721c-0.191,0.204-0.438,0.307-0.738,0.307c-0.302,0-0.548-0.103-0.739-0.307
		c-0.19-0.206-0.286-0.446-0.286-0.721c0-0.271,0.09-0.508,0.271-0.708C71.119,44.28,71.37,44.172,71.674,44.172z M71.673,44.418
		c-0.209,0-0.391,0.078-0.541,0.233c-0.151,0.155-0.228,0.344-0.228,0.564c0,0.143,0.035,0.274,0.104,0.396
		c0.069,0.124,0.162,0.218,0.279,0.285c0.117,0.066,0.246,0.1,0.386,0.1s0.27-0.033,0.387-0.1c0.117-0.067,0.21-0.161,0.279-0.285
		c0.069-0.122,0.104-0.254,0.104-0.396c0-0.221-0.076-0.409-0.228-0.564C72.062,44.496,71.883,44.418,71.673,44.418z"/>
	<path fill="#BE1622" d="M73.164,44.222h0.254v0.34c0.088-0.126,0.179-0.217,0.271-0.275c0.128-0.075,0.262-0.114,0.404-0.114
		c0.095,0,0.185,0.018,0.271,0.056c0.084,0.037,0.155,0.086,0.209,0.148c0.054,0.062,0.102,0.151,0.142,0.266
		c0.084-0.153,0.189-0.27,0.315-0.35c0.126-0.081,0.262-0.12,0.407-0.12c0.136,0,0.256,0.033,0.359,0.103
		c0.104,0.068,0.181,0.165,0.231,0.287c0.05,0.123,0.076,0.308,0.076,0.552v1.074h-0.259v-1.074c0-0.21-0.015-0.355-0.045-0.433
		c-0.03-0.08-0.081-0.144-0.154-0.192c-0.072-0.047-0.159-0.072-0.26-0.072c-0.123,0-0.234,0.037-0.336,0.109
		c-0.102,0.071-0.176,0.169-0.223,0.289s-0.07,0.322-0.07,0.604v0.77h-0.253v-1.006c0-0.237-0.015-0.398-0.044-0.483
		c-0.03-0.086-0.081-0.153-0.154-0.204c-0.073-0.053-0.161-0.078-0.262-0.078c-0.117,0-0.227,0.035-0.328,0.107
		c-0.103,0.069-0.177,0.165-0.227,0.283c-0.048,0.12-0.072,0.303-0.072,0.548v0.833h-0.254V44.222z"/>
	<path d="M24.26,48.876l-0.163,0.169c-0.136-0.132-0.268-0.196-0.396-0.196c-0.083,0-0.152,0.027-0.212,0.08
		c-0.058,0.054-0.087,0.118-0.087,0.19c0,0.063,0.024,0.124,0.071,0.182c0.049,0.059,0.15,0.129,0.306,0.208
		c0.188,0.098,0.316,0.192,0.383,0.282c0.067,0.093,0.101,0.193,0.101,0.309c0,0.163-0.058,0.299-0.17,0.411
		c-0.114,0.11-0.256,0.167-0.426,0.167c-0.113,0-0.222-0.025-0.325-0.073c-0.103-0.049-0.188-0.119-0.256-0.204l0.159-0.181
		c0.129,0.146,0.266,0.218,0.411,0.218c0.102,0,0.188-0.031,0.259-0.098c0.071-0.063,0.106-0.142,0.106-0.229
		c0-0.072-0.023-0.137-0.07-0.194c-0.047-0.055-0.153-0.124-0.318-0.208c-0.178-0.093-0.299-0.183-0.362-0.271
		c-0.064-0.09-0.096-0.19-0.096-0.305c0-0.15,0.051-0.274,0.152-0.373c0.103-0.1,0.231-0.147,0.387-0.147
		C23.894,48.612,24.076,48.699,24.26,48.876z"/>
	<path d="M24.708,47.903h0.252v1.11c0.103-0.134,0.216-0.234,0.338-0.303c0.123-0.065,0.257-0.099,0.4-0.099
		c0.146,0,0.276,0.036,0.391,0.11c0.114,0.076,0.197,0.175,0.252,0.301s0.081,0.324,0.081,0.593v1.011h-0.253v-0.938
		c0-0.225-0.009-0.377-0.026-0.452c-0.032-0.13-0.089-0.229-0.172-0.295c-0.081-0.064-0.19-0.098-0.324-0.098
		c-0.152,0-0.289,0.051-0.41,0.151c-0.122,0.102-0.201,0.228-0.24,0.375c-0.023,0.097-0.036,0.275-0.036,0.536v0.72h-0.252V47.903z"
		/>
	<path d="M27.895,48.612c0.304,0,0.554,0.108,0.753,0.328c0.182,0.199,0.271,0.437,0.271,0.71c0,0.274-0.096,0.515-0.287,0.721
		c-0.191,0.204-0.437,0.307-0.737,0.307c-0.302,0-0.548-0.103-0.739-0.307c-0.191-0.206-0.287-0.446-0.287-0.721
		c0-0.271,0.091-0.509,0.271-0.708C27.339,48.721,27.59,48.612,27.895,48.612z M27.893,48.858c-0.209,0-0.39,0.078-0.541,0.233
		c-0.15,0.155-0.227,0.344-0.227,0.564c0,0.142,0.034,0.274,0.103,0.396c0.069,0.124,0.162,0.218,0.28,0.285
		c0.117,0.066,0.245,0.1,0.385,0.1c0.142,0,0.271-0.033,0.387-0.1c0.117-0.067,0.211-0.161,0.279-0.285
		c0.069-0.122,0.104-0.255,0.104-0.396c0-0.221-0.076-0.409-0.228-0.564S28.103,48.858,27.893,48.858z"/>
	<path d="M29.385,47.903h0.253v1.552l0.911-0.793h0.372l-1.08,0.938l1.144,1.026h-0.356l-0.99-0.885v0.885h-0.253V47.903z"/>
	<path d="M32.174,48.612c0.303,0,0.555,0.108,0.754,0.328c0.181,0.199,0.271,0.437,0.271,0.71c0,0.274-0.096,0.515-0.287,0.721
		c-0.191,0.204-0.438,0.307-0.738,0.307c-0.302,0-0.547-0.103-0.738-0.307c-0.191-0.206-0.287-0.446-0.287-0.721
		c0-0.271,0.09-0.509,0.271-0.708C31.619,48.721,31.87,48.612,32.174,48.612z M32.173,48.858c-0.209,0-0.39,0.078-0.541,0.233
		s-0.228,0.344-0.228,0.564c0,0.142,0.035,0.274,0.104,0.396c0.069,0.124,0.162,0.218,0.28,0.285c0.116,0.066,0.245,0.1,0.385,0.1
		c0.141,0,0.27-0.033,0.387-0.1c0.117-0.067,0.211-0.161,0.279-0.285c0.069-0.122,0.104-0.255,0.104-0.396
		c0-0.221-0.076-0.409-0.228-0.564S32.383,48.858,32.173,48.858z"/>
	<path d="M33.363,50.905h1.893v0.185h-1.893V50.905z"/>
	<path d="M35.479,47.903h0.254v2.724h-0.254V47.903z"/>
	<path d="M38.216,48.662v1.965h-0.249v-0.338c-0.105,0.131-0.226,0.226-0.357,0.292c-0.132,0.063-0.275,0.097-0.432,0.097
		c-0.279,0-0.517-0.101-0.714-0.303c-0.196-0.202-0.295-0.446-0.295-0.736c0-0.283,0.099-0.523,0.298-0.726
		c0.199-0.2,0.438-0.301,0.718-0.301c0.161,0,0.308,0.033,0.438,0.103c0.131,0.068,0.246,0.171,0.345,0.309v-0.361H38.216z
		 M37.206,48.854c-0.142,0-0.271,0.035-0.391,0.105c-0.119,0.067-0.215,0.165-0.284,0.291c-0.07,0.124-0.106,0.256-0.106,0.396
		c0,0.141,0.036,0.272,0.107,0.398c0.07,0.126,0.166,0.224,0.286,0.295c0.119,0.07,0.247,0.105,0.385,0.105
		c0.139,0,0.27-0.035,0.394-0.105c0.124-0.069,0.22-0.163,0.286-0.283c0.066-0.118,0.101-0.253,0.101-0.402
		c0-0.227-0.076-0.417-0.226-0.57C37.608,48.933,37.424,48.854,37.206,48.854z"/>
	<path d="M41.112,50.086h0.192c-0.162,0.201-0.312,0.342-0.449,0.423c-0.194,0.112-0.417,0.169-0.667,0.169
		c-0.264,0-0.507-0.062-0.729-0.187s-0.396-0.295-0.521-0.511c-0.124-0.215-0.187-0.452-0.187-0.706
		c0-0.261,0.062-0.501,0.188-0.725s0.298-0.396,0.515-0.519c0.217-0.124,0.453-0.187,0.712-0.187c0.363,0,0.67,0.117,0.921,0.35
		c0.25,0.235,0.376,0.505,0.376,0.815c0,0.226-0.053,0.42-0.156,0.583c-0.104,0.163-0.246,0.291-0.424,0.38
		c-0.137,0.07-0.253,0.105-0.35,0.105c-0.069,0-0.125-0.018-0.166-0.057c-0.031-0.027-0.047-0.075-0.048-0.144
		c-0.042,0.053-0.098,0.095-0.169,0.13c-0.072,0.035-0.146,0.053-0.224,0.053c-0.173,0-0.316-0.061-0.43-0.181
		s-0.17-0.277-0.17-0.476c0-0.214,0.068-0.408,0.205-0.585c0.139-0.176,0.326-0.264,0.567-0.264c0.105,0,0.195,0.02,0.267,0.061
		c0.071,0.038,0.139,0.108,0.203,0.205l0.048-0.248h0.195l-0.21,1.183c-0.006,0.037-0.009,0.062-0.009,0.073
		c0,0.027,0.009,0.051,0.025,0.066s0.039,0.023,0.064,0.023c0.071,0,0.163-0.041,0.278-0.123c0.113-0.083,0.201-0.189,0.265-0.318
		c0.063-0.13,0.095-0.273,0.095-0.433c0-0.305-0.118-0.56-0.355-0.761c-0.222-0.187-0.491-0.28-0.809-0.28
		c-0.236,0-0.451,0.055-0.644,0.161c-0.191,0.109-0.343,0.261-0.455,0.457c-0.111,0.195-0.167,0.407-0.167,0.635
		c0,0.23,0.057,0.442,0.168,0.639c0.112,0.194,0.268,0.348,0.465,0.458c0.198,0.11,0.417,0.165,0.655,0.165
		c0.175,0,0.333-0.031,0.476-0.093C40.798,50.363,40.949,50.249,41.112,50.086z M40.017,49.856c0.08,0,0.155-0.025,0.225-0.075
		c0.07-0.051,0.125-0.125,0.166-0.226c0.053-0.132,0.08-0.264,0.08-0.396c0-0.122-0.034-0.221-0.103-0.297
		c-0.067-0.075-0.156-0.114-0.265-0.114c-0.145,0-0.27,0.061-0.375,0.179c-0.104,0.118-0.158,0.268-0.158,0.444
		c0,0.147,0.041,0.266,0.12,0.354C39.788,49.812,39.891,49.856,40.017,49.856z"/>
	<path d="M42.082,47.853c0.057,0,0.106,0.02,0.146,0.061c0.042,0.043,0.062,0.091,0.062,0.149c0,0.057-0.021,0.104-0.062,0.146
		c-0.04,0.041-0.09,0.062-0.146,0.062s-0.105-0.021-0.146-0.062c-0.04-0.041-0.062-0.089-0.062-0.146
		c0-0.059,0.021-0.106,0.062-0.149C41.977,47.872,42.025,47.853,42.082,47.853z M41.956,48.662h0.253v1.965h-0.253V48.662z"/>
	<path d="M44.643,49.07l-0.201,0.124c-0.172-0.229-0.409-0.346-0.708-0.346c-0.24,0-0.439,0.078-0.598,0.233
		c-0.157,0.153-0.236,0.34-0.236,0.559c0,0.145,0.036,0.28,0.108,0.406c0.073,0.126,0.173,0.224,0.3,0.293
		c0.128,0.07,0.27,0.105,0.428,0.105c0.288,0,0.524-0.115,0.706-0.346l0.201,0.132c-0.094,0.142-0.22,0.252-0.378,0.33
		c-0.159,0.077-0.339,0.116-0.541,0.116c-0.312,0-0.569-0.099-0.773-0.295c-0.205-0.198-0.308-0.438-0.308-0.723
		c0-0.19,0.048-0.366,0.145-0.529c0.095-0.163,0.227-0.292,0.394-0.383c0.168-0.092,0.354-0.136,0.562-0.136
		c0.13,0,0.255,0.02,0.376,0.058c0.122,0.041,0.224,0.092,0.309,0.155C44.512,48.89,44.584,48.972,44.643,49.07z"/>
	<path d="M45.09,47.903h0.254v2.724H45.09V47.903z"/>
	<path d="M46.8,48.612c0.303,0,0.554,0.108,0.752,0.328c0.182,0.199,0.272,0.437,0.272,0.71c0,0.274-0.097,0.515-0.287,0.721
		c-0.191,0.204-0.438,0.307-0.737,0.307c-0.302,0-0.549-0.103-0.739-0.307c-0.191-0.206-0.287-0.446-0.287-0.721
		c0-0.271,0.091-0.509,0.271-0.708C46.243,48.721,46.495,48.612,46.8,48.612z M46.799,48.858c-0.211,0-0.392,0.078-0.543,0.233
		c-0.15,0.155-0.226,0.344-0.226,0.564c0,0.142,0.034,0.274,0.103,0.396c0.069,0.124,0.162,0.218,0.279,0.285
		c0.118,0.066,0.246,0.1,0.387,0.1c0.14,0,0.269-0.033,0.386-0.1c0.117-0.067,0.21-0.161,0.279-0.285
		c0.069-0.122,0.104-0.255,0.104-0.396c0-0.221-0.075-0.409-0.228-0.564C47.188,48.937,47.008,48.858,46.799,48.858z"/>
	<path d="M48.259,48.662h0.254v0.917c0,0.225,0.012,0.378,0.035,0.464c0.036,0.12,0.105,0.216,0.208,0.285
		c0.102,0.07,0.224,0.105,0.364,0.105s0.261-0.035,0.359-0.104c0.098-0.067,0.166-0.157,0.203-0.268
		c0.025-0.076,0.038-0.237,0.038-0.483v-0.917h0.259v0.966c0,0.27-0.031,0.474-0.096,0.611c-0.062,0.138-0.158,0.244-0.285,0.322
		c-0.127,0.077-0.286,0.116-0.478,0.116s-0.352-0.039-0.479-0.116c-0.128-0.078-0.225-0.187-0.287-0.324
		c-0.063-0.14-0.096-0.35-0.096-0.629V48.662z"/>
	<path d="M52.503,47.903v2.724h-0.249v-0.338c-0.106,0.131-0.226,0.226-0.357,0.292c-0.131,0.063-0.275,0.097-0.432,0.097
		c-0.279,0-0.517-0.101-0.713-0.303c-0.197-0.202-0.296-0.446-0.296-0.736c0-0.283,0.1-0.523,0.298-0.726
		c0.199-0.2,0.438-0.301,0.718-0.301c0.162,0,0.308,0.033,0.438,0.103c0.13,0.068,0.244,0.171,0.344,0.309v-1.12H52.503z
		 M51.492,48.854c-0.141,0-0.271,0.035-0.39,0.105c-0.119,0.067-0.214,0.165-0.284,0.291c-0.07,0.124-0.105,0.256-0.105,0.396
		c0,0.141,0.035,0.272,0.106,0.398c0.07,0.126,0.166,0.224,0.286,0.295c0.119,0.07,0.247,0.105,0.385,0.105
		c0.139,0,0.27-0.035,0.394-0.105c0.124-0.069,0.22-0.163,0.286-0.283c0.066-0.118,0.101-0.253,0.101-0.402
		c0-0.227-0.075-0.417-0.226-0.57C51.896,48.933,51.711,48.854,51.492,48.854z"/>
	<path d="M53.354,50.229c0.062,0,0.113,0.023,0.156,0.065c0.044,0.043,0.065,0.098,0.065,0.159c0,0.061-0.021,0.115-0.065,0.158
		c-0.043,0.044-0.095,0.065-0.156,0.065c-0.062,0-0.114-0.021-0.157-0.065c-0.044-0.043-0.065-0.098-0.065-0.158
		c0-0.062,0.021-0.116,0.065-0.159C53.24,50.253,53.292,50.229,53.354,50.229z"/>
	<path d="M56.008,49.07l-0.2,0.124c-0.174-0.229-0.409-0.346-0.71-0.346c-0.238,0-0.438,0.078-0.596,0.233
		c-0.158,0.153-0.236,0.34-0.236,0.559c0,0.145,0.035,0.28,0.108,0.406c0.072,0.126,0.173,0.224,0.299,0.293
		c0.127,0.07,0.27,0.105,0.427,0.105c0.29,0,0.525-0.115,0.708-0.346l0.2,0.132c-0.094,0.142-0.22,0.252-0.378,0.33
		c-0.159,0.077-0.339,0.116-0.542,0.116c-0.311,0-0.567-0.099-0.772-0.295c-0.205-0.198-0.308-0.438-0.308-0.723
		c0-0.19,0.048-0.366,0.144-0.529c0.097-0.163,0.228-0.292,0.396-0.383c0.167-0.092,0.354-0.136,0.561-0.136
		c0.131,0,0.257,0.02,0.378,0.058c0.12,0.041,0.224,0.092,0.308,0.155C55.878,48.89,55.948,48.972,56.008,49.07z"/>
	<path d="M57.425,48.612c0.302,0,0.554,0.108,0.753,0.328c0.182,0.199,0.271,0.437,0.271,0.71c0,0.274-0.096,0.515-0.287,0.721
		c-0.191,0.204-0.438,0.307-0.737,0.307c-0.302,0-0.548-0.103-0.739-0.307c-0.191-0.206-0.287-0.446-0.287-0.721
		c0-0.271,0.091-0.509,0.271-0.708C56.869,48.721,57.12,48.612,57.425,48.612z M57.423,48.858c-0.209,0-0.39,0.078-0.541,0.233
		s-0.227,0.344-0.227,0.564c0,0.142,0.034,0.274,0.103,0.396c0.069,0.124,0.162,0.218,0.28,0.285c0.117,0.066,0.245,0.1,0.385,0.1
		c0.141,0,0.271-0.033,0.387-0.1c0.117-0.067,0.211-0.161,0.279-0.285c0.069-0.122,0.104-0.255,0.104-0.396
		c0-0.221-0.076-0.409-0.228-0.564S57.633,48.858,57.423,48.858z"/>
	<path d="M58.915,48.662h0.253v0.34c0.088-0.126,0.179-0.217,0.271-0.275c0.128-0.078,0.262-0.114,0.402-0.114
		c0.096,0,0.187,0.018,0.272,0.056c0.085,0.037,0.155,0.086,0.21,0.147c0.054,0.062,0.101,0.152,0.141,0.267
		c0.084-0.153,0.189-0.271,0.315-0.352c0.126-0.08,0.262-0.118,0.407-0.118c0.136,0,0.256,0.033,0.359,0.103
		c0.104,0.068,0.182,0.163,0.232,0.287c0.05,0.123,0.075,0.307,0.075,0.552v1.073h-0.258v-1.073c0-0.21-0.016-0.355-0.046-0.433
		c-0.03-0.08-0.08-0.145-0.153-0.192c-0.073-0.047-0.16-0.072-0.261-0.072c-0.122,0-0.234,0.037-0.335,0.109
		c-0.103,0.071-0.176,0.169-0.224,0.289c-0.047,0.12-0.07,0.32-0.07,0.604v0.769h-0.252v-1.005c0-0.237-0.016-0.398-0.045-0.484
		c-0.029-0.085-0.08-0.153-0.154-0.203c-0.073-0.053-0.161-0.078-0.262-0.078c-0.117,0-0.227,0.035-0.328,0.107
		c-0.102,0.069-0.177,0.165-0.226,0.283c-0.049,0.12-0.073,0.303-0.073,0.547v0.833h-0.253V48.662z"/>
</g>
<g>
</g>
<g>
</g>
<g>
</g>
<g>
</g>
<g>
</g>
<g>
</g>
</svg>
