<?xml version="1.0" encoding="utf-8"?>
<!-- Generator: Adobe Illustrator 16.0.0, SVG Export Plug-In . SVG Version: 6.00 Build 0)  -->
<!DOCTYPE svg PUBLIC "-//W3C//DTD SVG 1.1//EN" "http://www.w3.org/Graphics/SVG/1.1/DTD/svg11.dtd">
<svg version="1.1" id="Calque_1" xmlns="http://www.w3.org/2000/svg" xmlns:xlink="http://www.w3.org/1999/xlink" x="0px" y="0px"
	 width="240.94px" height="155.91px" viewBox="0 0 240.94 155.91" enable-background="new 0 0 240.94 155.91" xml:space="preserve">
<rect fill="#FFFFFF" width="240.939" height="155.91"/>
<circle fill="#BE1622" cx="120.47" cy="77.954" r="66.968"/>
<path fill="#FFFFFF" d="M120.761,41.688c1.104-0.1,15.47-1.584,20.235-2.686c5.717-1.318,16.071-1.276,19.942,5.854
	c3.872,7.132,10.129,26.332,11.262,30.898c1.829,7.372,3.39,19.801-11.601,24.953c-10.2,3.507-31.367,4.098-39.839,4.098
	c-8.471,0-32.521-0.401-40.904-3.961c-10.568-4.49-14.441-13.574-11.018-26.092c2.793-10.209,9.524-27.81,11.261-30.953
	c3.065-5.545,9.353-6.724,17.91-4.752C101.663,39.888,120.761,41.688,120.761,41.688z"/>
<path fill="#BE1622" d="M111.083,86.818c0,0-3.618-4.222-7.537-3.317c-3.918,0.904-8.138,4.094-12.658,1.595
	c-4.522-2.499-0.227-9.281,2.711-4.91c1.735-4.219-1.702-6.028-4.469-5.727c-2.765,0.301-8.492,5.123-5.779,12.359
	c2.714,7.233,13.781,3.837,16.58,1.844C103.472,86.139,106.561,85.009,111.083,86.818z"/>
<path fill="#BE1622" d="M129.88,87.119c0,0,3.618-4.22,7.537-3.315c3.919,0.902,8.138,4.093,12.66,1.593
	c4.521-2.497,0.225-9.279-2.713-4.909c-1.733-4.22,1.704-6.028,4.469-5.728c2.765,0.303,8.492,5.125,5.779,12.359
	c-2.712,7.233-13.779,3.837-16.578,1.844C137.493,86.441,134.402,85.311,129.88,87.119z"/>
<path fill="#BE1622" d="M130.3,88.662c0,0,2.109-1.316,5.425,1.547c3.317,2.862,6.595,3.315,9.533,2.411
	c-0.296,1.213-2.147,3.542-6.142,2.788C135.123,94.655,133.013,88.774,130.3,88.662z"/>
<path fill="#BE1622" d="M110.97,88.662c0,0-2.11-1.316-5.425,1.547c-3.317,2.862-6.596,3.315-9.533,2.411
	c0.295,1.213,2.146,3.542,6.142,2.788C106.146,94.655,108.256,88.774,110.97,88.662z"/>
<path fill="#BE1622" d="M110.181,94.655c0,0,2.745-5.118,10.582-5.118c7.838,0,10.023,5.118,10.023,5.118s-2.436-2.699-10.023-2.699
	C113.177,91.956,110.181,94.655,110.181,94.655z"/>
<path fill="#BE1622" d="M113.264,85.611c0,0-3.641-2.11-3.026-3.919c0.615-1.808,4.031-4.32,5.54-3.616
	c1.506,0.703,2.7,3.329,3.014,5.05c-0.503-0.529-2.336-4.007-4.069-3.505c-1.734,0.501-2.527,1.361-2.863,2.161
	C111.294,83.126,113.264,85.611,113.264,85.611z"/>
<path fill="#BE1622" d="M127.677,85.611c0,0,3.643-2.11,3.026-3.919c-0.616-1.808-4.032-4.32-5.54-3.616
	c-1.506,0.703-2.701,3.329-3.015,5.05c0.503-0.529,2.337-4.007,4.069-3.505c1.734,0.501,2.527,1.361,2.864,2.161
	C129.648,83.126,127.677,85.611,127.677,85.611z"/>
<circle cx="103.673" cy="66.488" r="6.732"/>
<path fill="#BE1622" d="M103.672,79.122c-6.965,0-12.631-5.667-12.631-12.634c0-6.965,5.666-12.633,12.631-12.633
	c6.967,0,12.634,5.668,12.634,12.633C116.306,73.455,110.639,79.122,103.672,79.122z M103.672,56.87
	c-5.303,0-9.616,4.315-9.616,9.618c0,5.305,4.313,9.618,9.616,9.618c5.305,0,9.62-4.313,9.62-9.618
	C113.292,61.186,108.977,56.87,103.672,56.87z"/>
<circle cx="137.307" cy="66.488" r="6.731"/>
<path fill="#BE1622" d="M137.307,79.122c-6.967,0-12.632-5.667-12.632-12.634c0-6.965,5.665-12.633,12.632-12.633
	c6.965,0,12.633,5.668,12.633,12.633C149.939,73.455,144.271,79.122,137.307,79.122z M137.307,56.87
	c-5.303,0-9.618,4.315-9.618,9.618c0,5.305,4.315,9.618,9.618,9.618s9.618-4.313,9.618-9.618
	C146.925,61.186,142.609,56.87,137.307,56.87z"/>
<g>
	<path fill="#BE1622" d="M124.64,52.766c0,0,3.623,0.607,6.34-1.618c2.717-2.223,5.802-5.305,11.207-5.658
		c2.714-0.179,8.81,0.449,15.737,5.762c5.009,3.839,6.96,8.994,6.906,11.724c-0.048,2.333-0.253,4.703-1.699,5.356
		c-2.235,1.013-10.246-0.758-10.131-7.023c1.357,2.83,4.22,3.429,4.924,2.88c1.357-1.061,0.083-5.154-1.784-7.657
		c-2.317-3.103-6.453-8.262-12.707-8.414c-4.69-0.113-9.738,3.031-11.32,3.841C130.528,52.766,127.356,53.778,124.64,52.766z"/>
	<path fill="#BE1622" d="M121.072,53.727c0,0,5.424-0.939,7.387-2.351c1.954-1.401,3.991-4.094,2.804-5.913
		c-1.189-1.819-2.799-1.581-3.991-1.061c-1.825,0.795-2.462,3.563-2.547,5.307S122.856,53.195,121.072,53.727z"/>
</g>
<g>
	<path fill="#BE1622" d="M116.301,52.766c0,0-3.623,0.607-6.34-1.618c-2.717-2.223-5.802-5.305-11.208-5.658
		c-2.713-0.179-8.808,0.449-15.735,5.762c-5.009,3.839-6.961,8.994-6.906,11.724c0.046,2.333,0.252,4.703,1.697,5.356
		c2.237,1.013,10.247-0.758,10.134-7.023c-1.357,2.83-4.222,3.429-4.925,2.88c-1.357-1.061-0.085-5.154,1.783-7.657
		c2.316-3.103,6.453-8.262,12.706-8.414c4.69-0.113,9.738,3.031,11.323,3.841C110.414,52.766,113.584,53.778,116.301,52.766z"/>
	<path fill="#BE1622" d="M119.867,53.727c0,0-5.421-0.939-7.386-2.351c-1.954-1.401-3.991-4.094-2.802-5.913
		c1.188-1.819,2.796-1.581,3.989-1.061c1.826,0.795,2.464,3.563,2.547,5.307C116.301,51.452,118.083,53.195,119.867,53.727z"/>
</g>
<path fill="#FFFFFF" d="M112.815,136.613c-3.651-3.88-4.562-9.243-4.562-12.553c0-3.309,1.481-8.746-1.142-11.183
	c-1.765-1.638-6.05-2.069-8.049,1.467c-2.164,3.836,0.855,10.439,2.114,12.456C102.327,128.64,106.367,134.259,112.815,136.613z"/>
<path fill="#FFFFFF" d="M93.727,132.191c-3.651-3.88-4.564-9.242-4.564-12.553c0-3.308,1.481-8.743-1.143-11.181
	c-1.763-1.639-6.05-2.071-8.046,1.466c-2.165,3.835,0.854,10.439,2.113,12.455C83.237,124.22,87.276,129.838,93.727,132.191z"/>
<path fill="#FFFFFF" d="M128.51,136.613c3.651-3.88,4.565-9.243,4.565-12.553s-1.481-8.746,1.142-11.183
	c1.763-1.64,6.048-2.069,8.046,1.467c2.165,3.836-0.854,10.439-2.113,12.456C138.999,128.64,134.96,134.259,128.51,136.613z"/>
<path fill="#FFFFFF" d="M147.602,132.191c3.651-3.88,4.564-9.242,4.564-12.553c0-3.308-1.481-8.745,1.14-11.183
	c1.765-1.637,6.05-2.069,8.048,1.468c2.165,3.835-0.854,10.439-2.113,12.455C158.09,124.218,154.051,129.838,147.602,132.191z"/>
<circle fill="#FFFFFF" cx="120.725" cy="126.215" r="6.504"/>
<g>
</g>
<g>
</g>
<g>
</g>
<g>
</g>
<g>
</g>
<g>
</g>
</svg>
