<?xml version="1.0" encoding="utf-8"?>
<!-- Generator: Adobe Illustrator 16.0.0, SVG Export Plug-In . SVG Version: 6.00 Build 0)  -->
<!DOCTYPE svg PUBLIC "-//W3C//DTD SVG 1.1//EN" "http://www.w3.org/Graphics/SVG/1.1/DTD/svg11.dtd">
<svg version="1.1" id="Calque_1" xmlns="http://www.w3.org/2000/svg" xmlns:xlink="http://www.w3.org/1999/xlink" x="0px" y="0px"
	 width="250px" height="250px" viewBox="0 0 250 250" enable-background="new 0 0 250 250" xml:space="preserve">
<g>
	<path fill="#BE1622" d="M249.936,124.966c0,69.019-55.948,124.97-124.966,124.97C55.948,249.936,0,193.984,0,124.966
		C0,55.948,55.948,0,124.97,0C193.987,0,249.936,55.948,249.936,124.966z"/>
	<path fill="#FFFFFF" d="M125.51,57.289c2.061-0.186,28.869-2.956,37.761-5.012c10.668-2.459,29.99-2.381,37.215,10.923
		c7.226,13.309,18.901,49.138,21.015,57.659c3.414,13.756,6.326,36.951-21.647,46.565c-19.033,6.545-58.533,7.646-74.343,7.646
		c-15.807,0-60.687-0.749-76.331-7.392c-19.722-8.379-26.949-25.33-20.56-48.689c5.212-19.051,17.773-51.896,21.013-57.762
		c5.721-10.347,17.453-12.547,33.422-8.867C89.873,53.931,125.51,57.289,125.51,57.289z"/>
	<path fill="#BE1622" d="M107.452,141.508c0,0-6.752-7.878-14.065-6.19c-7.312,1.687-15.186,7.639-23.622,2.975
		c-8.439-4.662-0.423-17.319,5.059-9.162c3.238-7.872-3.176-11.25-8.339-10.686c-5.159,0.561-15.847,9.559-10.784,23.064
		c5.064,13.498,25.717,7.16,30.939,3.44C93.248,140.238,99.012,138.131,107.452,141.508z"/>
	<path fill="#BE1622" d="M142.528,142.068c0,0,6.751-7.874,14.064-6.187c7.312,1.685,15.186,7.638,23.626,2.972
		c8.435-4.659,0.418-17.315-5.062-9.16c-3.236-7.875,3.179-11.25,8.338-10.689c5.159,0.565,15.848,9.565,10.785,23.064
		c-5.062,13.498-25.713,7.161-30.937,3.441C156.735,140.804,150.967,138.693,142.528,142.068z"/>
	<path fill="#BE1622" d="M143.312,144.948c0,0,3.937-2.457,10.124,2.887c6.189,5.341,12.306,6.187,17.789,4.499
		c-0.552,2.264-4.007,6.61-11.46,5.202C152.312,156.133,148.375,145.157,143.312,144.948z"/>
	<path fill="#BE1622" d="M107.24,144.948c0,0-3.938-2.457-10.123,2.887c-6.19,5.341-12.308,6.187-17.79,4.499
		c0.55,2.264,4.005,6.61,11.46,5.202C98.239,156.133,102.175,145.157,107.24,144.948z"/>
	<path fill="#BE1622" d="M105.768,156.133c0,0,5.123-9.552,19.747-9.552c14.626,0,18.705,9.552,18.705,9.552
		s-4.544-5.038-18.705-5.038C111.359,151.095,105.768,156.133,105.768,156.133z"/>
	<path fill="#BE1622" d="M111.521,139.256c0,0-6.793-3.938-5.647-7.314c1.148-3.372,7.522-8.062,10.337-6.748
		c2.81,1.312,5.04,6.212,5.625,9.423c-0.939-0.986-4.359-7.477-7.594-6.54c-3.237,0.936-4.717,2.541-5.343,4.033
		C107.845,134.616,111.521,139.256,111.521,139.256z"/>
	<path fill="#BE1622" d="M138.416,139.256c0,0,6.798-3.938,5.647-7.314c-1.149-3.372-7.523-8.062-10.338-6.748
		c-2.811,1.312-5.04,6.212-5.625,9.423c0.939-0.986,4.36-7.477,7.594-6.54c3.236,0.936,4.717,2.541,5.345,4.033
		C142.096,134.616,138.416,139.256,138.416,139.256z"/>
	<path d="M106.187,103.569c0,6.939-5.626,12.566-12.562,12.566c-6.939,0-12.565-5.626-12.565-12.566
		c0-6.935,5.625-12.561,12.565-12.561C100.561,91.008,106.187,96.634,106.187,103.569z"/>
	<path fill="#BE1622" d="M93.622,127.146c-12.997,0-23.57-10.575-23.57-23.576c0-12.997,10.573-23.573,23.57-23.573
		c13,0,23.576,10.577,23.576,23.573C117.198,116.57,106.622,127.146,93.622,127.146z M93.622,85.621
		c-9.896,0-17.945,8.053-17.945,17.948c0,9.899,8.05,17.949,17.945,17.949c9.899,0,17.952-8.05,17.952-17.949
		C111.573,93.674,103.521,85.621,93.622,85.621z"/>
	<path d="M168.948,103.569c0,6.939-5.621,12.566-12.562,12.566c-6.937,0-12.559-5.626-12.559-12.566
		c0-6.935,5.622-12.561,12.559-12.561C163.327,91.008,168.948,96.634,168.948,103.569z"/>
	<path fill="#BE1622" d="M156.387,127.146c-13.001,0-23.571-10.575-23.571-23.576c0-12.997,10.57-23.573,23.571-23.573
		c12.997,0,23.573,10.577,23.573,23.573C179.96,116.57,169.384,127.146,156.387,127.146z M156.387,85.621
		c-9.895,0-17.948,8.053-17.948,17.948c0,9.899,8.054,17.949,17.948,17.949c9.896,0,17.949-8.05,17.949-17.949
		C174.336,93.674,166.282,85.621,156.387,85.621z"/>
	<g>
		<path fill="#BE1622" d="M132.749,77.962c0,0,6.761,1.133,11.831-3.02c5.07-4.147,10.826-9.899,20.912-10.559
			c5.065-0.333,16.44,0.838,29.369,10.751c9.346,7.164,12.987,16.784,12.887,21.877c-0.089,4.354-0.472,8.776-3.171,9.996
			c-4.171,1.89-19.119-1.414-18.905-13.106c2.533,5.281,7.875,6.398,9.189,5.375c2.532-1.979,0.154-9.619-3.33-14.289
			c-4.324-5.79-12.043-15.417-23.712-15.702c-8.754-0.211-18.173,5.657-21.125,7.167C143.738,77.962,137.818,79.852,132.749,77.962z
			"/>
		<path fill="#BE1622" d="M126.093,79.755c0,0,10.121-1.752,13.784-4.386c3.646-2.615,7.447-7.639,5.231-11.034
			c-2.219-3.395-5.223-2.95-7.448-1.979c-3.405,1.483-4.594,6.649-4.753,9.903C132.749,75.511,129.421,78.764,126.093,79.755z"/>
	</g>
	<g>
		<path fill="#BE1622" d="M117.188,77.962c0,0-6.761,1.133-11.831-3.02c-5.07-4.147-10.827-9.899-20.915-10.559
			c-5.062-0.333-16.436,0.838-29.363,10.751c-9.347,7.164-12.99,16.784-12.888,21.877c0.086,4.354,0.47,8.776,3.167,9.996
			c4.175,1.89,19.122-1.414,18.911-13.106c-2.534,5.281-7.878,6.398-9.19,5.375c-2.533-1.979-0.159-9.619,3.327-14.289
			c4.323-5.79,12.042-15.417,23.711-15.702c8.752-0.211,18.172,5.657,21.13,7.167C106.203,77.962,112.118,79.852,117.188,77.962z"/>
		<path fill="#BE1622" d="M123.844,79.755c0,0-10.116-1.752-13.783-4.386c-3.646-2.615-7.448-7.639-5.229-11.034
			c2.216-3.395,5.218-2.95,7.444-1.979c3.408,1.483,4.598,6.649,4.753,9.903C117.188,75.511,120.514,78.764,123.844,79.755z"/>
	</g>
	<path fill="#FFFFFF" d="M110.684,234.43c-6.813-7.241-8.514-17.249-8.514-23.425c0-6.174,2.764-16.32-2.13-20.868
		c-3.293-3.056-11.29-3.861-15.02,2.737c-4.039,7.159,1.596,19.481,3.945,23.243C91.112,219.549,98.651,230.036,110.684,234.43z"/>
	<path fill="#FFFFFF" d="M75.063,226.177c-6.814-7.239-8.518-17.246-8.518-23.423c0-6.173,2.764-16.316-2.132-20.865
		c-3.29-3.057-11.29-3.865-15.015,2.736c-4.04,7.155,1.593,19.48,3.944,23.241C55.489,211.302,63.026,221.785,75.063,226.177z"/>
	<path fill="#FFFFFF" d="M139.972,234.43c6.812-7.241,8.519-17.249,8.519-23.425s-2.764-16.32,2.13-20.868
		c3.29-3.06,11.287-3.861,15.016,2.737c4.039,7.159-1.595,19.481-3.944,23.243C159.545,219.549,152.008,230.036,139.972,234.43z"/>
	<path fill="#FFFFFF" d="M175.598,226.177c6.814-7.239,8.519-17.246,8.519-23.423c0-6.173-2.765-16.319,2.127-20.868
		c3.293-3.054,11.289-3.862,15.017,2.739c4.041,7.155-1.594,19.48-3.942,23.241C195.171,211.298,187.633,221.785,175.598,226.177z"
		/>
	<circle fill="#FFFFFF" cx="125.443" cy="215.024" r="12.137"/>
</g>
<g>
</g>
<g>
</g>
<g>
</g>
<g>
</g>
<g>
</g>
<g>
</g>
</svg>
