<?xml version="1.0" encoding="utf-8"?>
<!-- Generator: Adobe Illustrator 16.0.0, SVG Export Plug-In . SVG Version: 6.00 Build 0)  -->
<!DOCTYPE svg PUBLIC "-//W3C//DTD SVG 1.1//EN" "http://www.w3.org/Graphics/SVG/1.1/DTD/svg11.dtd">
<svg version="1.1" id="Calque_1" xmlns="http://www.w3.org/2000/svg" xmlns:xlink="http://www.w3.org/1999/xlink" x="0px" y="0px"
	 width="250px" height="250px" viewBox="0 0 250 250" enable-background="new 0 0 250 250" xml:space="preserve">
<rect x="0.412" fill="#BE1622" width="249.524" height="250"/>
<g>
	<circle fill="#FFFFFF" cx="125.173" cy="123.776" r="98.213"/>
	<path fill="#BE1622" d="M125.601,70.587c1.62-0.145,22.688-2.324,29.675-3.937c8.382-1.935,23.57-1.873,29.249,8.584
		c5.678,10.456,14.852,38.616,16.514,45.315c2.681,10.811,4.971,29.037-17.011,36.593c-14.963,5.143-46.005,6.009-58.427,6.009
		c-12.424,0-47.697-0.589-59.989-5.81c-15.499-6.583-21.179-19.905-16.159-38.261c4.097-14.974,13.967-40.788,16.514-45.396
		c4.497-8.132,13.716-9.862,26.269-6.971C97.593,67.949,125.601,70.587,125.601,70.587z"/>
	<path fill="#FFFFFF" d="M111.407,136.772c0,0-5.306-6.189-11.052-4.862s-11.936,6.003-18.567,2.338
		c-6.63-3.665-0.331-13.61,3.979-7.199c2.542-6.189-2.499-8.843-6.554-8.4c-4.055,0.442-12.455,7.514-8.476,18.124
		c3.979,10.61,20.21,5.629,24.314,2.704C100.244,135.78,104.775,134.12,111.407,136.772z"/>
	<path fill="#FFFFFF" d="M138.975,137.217c0,0,5.307-6.189,11.053-4.864c5.747,1.327,11.935,6.003,18.564,2.338
		c6.634-3.663,0.333-13.611-3.977-7.2c-2.543-6.188,2.499-8.841,6.553-8.399c4.058,0.442,12.454,7.516,8.478,18.126
		c-3.979,10.609-20.212,5.628-24.314,2.704C150.138,136.22,145.604,134.562,138.975,137.217z"/>
	<path fill="#FFFFFF" d="M139.587,139.477c0,0,3.097-1.93,7.96,2.27c4.86,4.2,9.668,4.864,13.978,3.537
		c-0.431,1.779-3.147,5.194-9.004,4.09C146.661,148.268,143.567,139.641,139.587,139.477z"/>
	<path fill="#FFFFFF" d="M111.241,139.477c0,0-3.095-1.93-7.958,2.27c-4.863,4.2-9.67,4.864-13.98,3.537
		c0.433,1.779,3.149,5.194,9.007,4.09C104.167,148.268,107.262,139.641,111.241,139.477z"/>
	<path fill="#FFFFFF" d="M110.082,148.268c0,0,4.027-7.505,15.521-7.505s14.701,7.505,14.701,7.505s-3.573-3.957-14.701-3.957
		C114.477,144.311,110.082,148.268,110.082,148.268z"/>
	<path fill="#FFFFFF" d="M114.795,135.007c0,0-5.342-3.097-4.439-5.748c0.902-2.652,5.912-6.336,8.123-5.306
		c2.211,1.033,3.961,4.884,4.421,7.408c-0.736-0.777-3.425-5.878-5.968-5.142c-2.543,0.738-3.706,1.999-4.2,3.171
		C111.903,131.36,114.795,135.007,114.795,135.007z"/>
	<path fill="#FFFFFF" d="M135.932,135.007c0,0,5.343-3.097,4.438-5.748c-0.901-2.652-5.913-6.336-8.122-5.306
		c-2.212,1.033-3.961,4.884-4.422,7.408c0.738-0.777,3.427-5.878,5.969-5.142c2.542,0.738,3.705,1.999,4.199,3.171
		C138.823,131.36,135.932,135.007,135.932,135.007z"/>
	<circle fill="#FFFFFF" cx="101.018" cy="106.96" r="9.873"/>
	<path fill="#FFFFFF" d="M101.017,125.488c-10.216,0-18.526-8.311-18.526-18.527c0-10.216,8.31-18.526,18.526-18.526
		c10.215,0,18.526,8.311,18.526,18.526C119.543,117.177,111.232,125.488,101.017,125.488z M101.017,92.854
		c-7.778,0-14.104,6.331-14.104,14.107c0,7.777,6.327,14.105,14.104,14.105c7.778,0,14.106-6.328,14.106-14.105
		C115.124,99.184,108.795,92.854,101.017,92.854z"/>
	<circle fill="#FFFFFF" cx="149.459" cy="106.96" r="9.873"/>
	<path fill="#FFFFFF" d="M149.46,125.488c-10.218,0-18.525-8.311-18.525-18.527c0-10.216,8.308-18.526,18.525-18.526
		c10.215,0,18.526,8.311,18.526,18.526C167.986,117.177,159.675,125.488,149.46,125.488z M149.46,92.854
		c-7.779,0-14.105,6.331-14.105,14.107c0,7.777,6.326,14.105,14.105,14.105c7.775,0,14.103-6.328,14.103-14.105
		C163.562,99.184,157.235,92.854,149.46,92.854z"/>
	<g>
		<path fill="#FFFFFF" d="M131.305,86.835c0,0,5.316,0.89,9.301-2.373c3.984-3.26,8.51-7.781,16.436-8.3
			c3.979-0.261,12.917,0.66,23.077,8.449c7.347,5.632,10.209,13.192,10.129,17.195c-0.069,3.421-0.369,6.897-2.49,7.856
			c-3.28,1.482-15.027-1.111-14.861-10.301c1.994,4.149,6.194,5.028,7.223,4.224c1.993-1.556,0.125-7.562-2.613-11.229
			c-3.401-4.552-9.466-12.119-18.637-12.342c-6.878-0.167-14.281,4.447-16.604,5.634C139.941,86.835,135.291,88.318,131.305,86.835z
			"/>
		<path fill="#FFFFFF" d="M126.076,88.244c0,0,7.951-1.377,10.831-3.446c2.868-2.057,5.856-6.004,4.111-8.672
			c-1.743-2.668-4.103-2.32-5.853-1.557c-2.677,1.167-3.611,5.225-3.736,7.782C131.305,84.909,128.692,87.465,126.076,88.244z"/>
	</g>
	<g>
		<path fill="#FFFFFF" d="M119.079,86.835c0,0-5.315,0.89-9.298-2.373c-3.985-3.26-8.51-7.781-16.438-8.3
			c-3.979-0.261-12.918,0.66-23.078,8.449c-7.346,5.632-10.207,13.192-10.129,17.195c0.068,3.421,0.37,6.897,2.491,7.856
			c3.28,1.482,15.027-1.111,14.86-10.301c-1.991,4.149-6.19,5.028-7.222,4.224c-1.991-1.556-0.124-7.562,2.616-11.229
			c3.399-4.552,9.463-12.119,18.635-12.342c6.878-0.167,14.281,4.447,16.604,5.634C110.443,86.835,115.093,88.318,119.079,86.835z"
			/>
		<path fill="#FFFFFF" d="M124.308,88.244c0,0-7.952-1.377-10.833-3.446c-2.865-2.057-5.854-6.004-4.109-8.672
			c1.743-2.668,4.102-2.32,5.851-1.557c2.678,1.167,3.612,5.225,3.736,7.782C119.079,84.909,121.692,87.465,124.308,88.244z"/>
	</g>
	<path fill="#BE1622" d="M113.949,209.802c-5.355-5.691-6.694-13.556-6.694-18.406c0-4.855,2.172-12.827-1.674-16.402
		c-2.586-2.403-8.872-3.034-11.801,2.153c-3.175,5.622,1.253,15.308,3.099,18.264C98.566,198.109,104.49,206.348,113.949,209.802z"
		/>
	<path fill="#BE1622" d="M85.952,203.316c-5.356-5.689-6.694-13.551-6.694-18.406c0-4.854,2.172-12.826-1.674-16.4
		c-2.586-2.404-8.872-3.035-11.801,2.152c-3.174,5.622,1.253,15.308,3.099,18.265C70.569,191.624,76.493,199.864,85.952,203.316z"/>
	<path fill="#BE1622" d="M136.963,209.802c5.358-5.691,6.696-13.556,6.696-18.406c0-4.855-2.171-12.83,1.675-16.402
		c2.585-2.403,8.869-3.037,11.801,2.153c3.174,5.622-1.252,15.308-3.101,18.264C152.348,198.109,146.423,206.348,136.963,209.802z"
		/>
	<path fill="#BE1622" d="M164.96,203.316c5.356-5.689,6.696-13.554,6.696-18.406c0-4.854-2.171-12.826,1.675-16.4
		c2.585-2.404,8.869-3.035,11.799,2.152c3.174,5.622-1.252,15.308-3.099,18.265C180.345,191.624,174.42,199.864,164.96,203.316z"/>
	<circle fill="#BE1622" cx="125.546" cy="194.551" r="9.537"/>
</g>
<g>
</g>
<g>
</g>
<g>
</g>
<g>
</g>
<g>
</g>
<g>
</g>
</svg>
