<?xml version="1.0" encoding="utf-8"?>
<!-- Generator: Adobe Illustrator 16.0.0, SVG Export Plug-In . SVG Version: 6.00 Build 0)  -->
<!DOCTYPE svg PUBLIC "-//W3C//DTD SVG 1.1//EN" "http://www.w3.org/Graphics/SVG/1.1/DTD/svg11.dtd">
<svg version="1.1" id="Calque_1" xmlns="http://www.w3.org/2000/svg" xmlns:xlink="http://www.w3.org/1999/xlink" x="0px" y="0px"
	 width="250px" height="250px" viewBox="0 0 250 250" enable-background="new 0 0 250 250" xml:space="preserve">
<g>
	<path fill="#BE1622" d="M226.18,121.404c0,56.059-45.445,101.506-101.503,101.506c-56.062,0-101.506-45.447-101.506-101.506
		c0-56.059,45.443-101.502,101.506-101.502C180.734,19.902,226.18,65.345,226.18,121.404z"/>
	<path fill="#FFFFFF" d="M125.116,66.435c1.673-0.151,23.447-2.401,30.67-4.07c8.665-1.998,24.359-1.935,30.227,8.872
		c5.869,10.81,15.353,39.912,17.07,46.833c2.771,11.174,5.138,30.013-17.584,37.822c-15.46,5.314-47.544,6.211-60.383,6.211
		c-12.84,0-49.293-0.609-61.999-6.005c-16.019-6.805-21.889-20.574-16.7-39.547c4.234-15.474,14.437-42.151,17.068-46.916
		c4.646-8.405,14.176-10.192,27.146-7.203C96.169,63.707,125.116,66.435,125.116,66.435z"/>
	<path fill="#BE1622" d="M110.447,134.839c0,0-5.484-6.398-11.425-5.027c-5.938,1.371-12.334,6.204-19.186,2.417
		c-6.854-3.788-0.343-14.068,4.109-7.442c2.631-6.394-2.58-9.137-6.773-8.68c-4.19,0.456-12.872,7.765-8.76,18.732
		c4.114,10.965,20.889,5.817,25.131,2.795C98.91,133.81,103.592,132.098,110.447,134.839z"/>
	<path fill="#BE1622" d="M138.938,135.296c0,0,5.483-6.396,11.424-5.025c5.94,1.367,12.334,6.204,19.189,2.415
		c6.851-3.786,0.34-14.066-4.112-7.442c-2.628-6.396,2.583-9.137,6.773-8.681c4.189,0.458,12.872,7.768,8.76,18.733
		c-4.11,10.963-20.886,5.815-25.127,2.795C150.477,134.269,145.792,132.555,138.938,135.296z"/>
	<path fill="#BE1622" d="M139.573,137.634c0,0,3.198-1.995,8.223,2.345c5.028,4.338,9.997,5.025,14.45,3.655
		c-0.448,1.839-3.256,5.368-9.31,4.226C146.885,146.719,143.686,137.805,139.573,137.634z"/>
	<path fill="#BE1622" d="M110.275,137.634c0,0-3.199-1.995-8.223,2.345c-5.027,4.338-9.997,5.025-14.45,3.655
		c0.448,1.839,3.254,5.368,9.309,4.226C102.964,146.719,106.162,137.805,110.275,137.634z"/>
	<path fill="#BE1622" d="M109.079,146.719c0,0,4.161-7.758,16.04-7.758c11.879,0,15.193,7.758,15.193,7.758
		s-3.692-4.092-15.193-4.092C113.62,142.627,109.079,146.719,109.079,146.719z"/>
	<path fill="#BE1622" d="M113.752,133.011c0,0-5.519-3.199-4.587-5.939c0.933-2.741,6.11-6.549,8.397-5.482
		c2.282,1.065,4.093,5.046,4.568,7.654c-0.763-0.803-3.541-6.073-6.168-5.312c-2.628,0.759-3.831,2.063-4.34,3.276
		C110.767,129.243,113.752,133.011,113.752,133.011z"/>
	<path fill="#BE1622" d="M135.598,133.011c0,0,5.522-3.199,4.587-5.939c-0.933-2.741-6.11-6.549-8.397-5.482
		c-2.282,1.065-4.093,5.046-4.568,7.654c0.763-0.803,3.541-6.073,6.168-5.312c2.629,0.759,3.83,2.063,4.341,3.276
		C138.587,129.243,135.598,133.011,135.598,133.011z"/>
	<path fill="#BE1622" d="M109.42,104.025c0,5.637-4.569,10.206-10.203,10.206c-5.637,0-10.206-4.569-10.206-10.206
		c0-5.633,4.569-10.202,10.206-10.202C104.851,93.823,109.42,98.392,109.42,104.025z"/>
	<path fill="#BE1622" d="M99.214,123.174c-10.557,0-19.145-8.589-19.145-19.149c0-10.556,8.588-19.147,19.145-19.147
		c10.56,0,19.149,8.591,19.149,19.147C118.363,114.585,109.773,123.174,99.214,123.174z M99.214,89.447
		c-8.038,0-14.576,6.541-14.576,14.578c0,8.041,6.538,14.579,14.576,14.579c8.041,0,14.581-6.538,14.581-14.579
		C113.795,95.988,107.254,89.447,99.214,89.447z"/>
	<path fill="#BE1622" d="M160.396,104.025c0,5.637-4.566,10.206-10.202,10.206c-5.634,0-10.201-4.569-10.201-10.206
		c0-5.633,4.567-10.202,10.201-10.202C155.83,93.823,160.396,98.392,160.396,104.025z"/>
	<path fill="#BE1622" d="M150.194,123.174c-10.56,0-19.146-8.589-19.146-19.149c0-10.556,8.587-19.147,19.146-19.147
		c10.557,0,19.147,8.591,19.147,19.147C169.342,114.585,160.751,123.174,150.194,123.174z M150.194,89.447
		c-8.037,0-14.578,6.541-14.578,14.578c0,8.041,6.541,14.579,14.578,14.579c8.038,0,14.579-6.538,14.579-14.579
		C164.773,95.988,158.232,89.447,150.194,89.447z"/>
	<g>
		<path fill="#BE1622" d="M130.995,83.226c0,0,5.49,0.92,9.608-2.453c4.119-3.369,8.794-8.041,16.987-8.576
			c4.113-0.271,13.353,0.681,23.854,8.733c7.591,5.819,10.549,13.632,10.468,17.769c-0.072,3.537-0.384,7.129-2.575,8.12
			c-3.39,1.535-15.53-1.149-15.356-10.646c2.057,4.289,6.396,5.197,7.464,4.365c2.058-1.608,0.125-7.813-2.705-11.607
			c-3.513-4.703-9.78-12.522-19.261-12.753C152.37,76.007,144.72,80.773,142.32,82C139.92,83.226,135.112,84.761,130.995,83.226z"/>
		<path fill="#BE1622" d="M125.588,84.682c0,0,8.219-1.424,11.195-3.562c2.962-2.125,6.05-6.205,4.25-8.962
			c-1.803-2.758-4.241-2.397-6.05-1.608c-2.767,1.205-3.73,5.402-3.86,8.043C130.995,81.235,128.292,83.877,125.588,84.682z"/>
	</g>
	<g>
		<path fill="#BE1622" d="M118.355,83.226c0,0-5.491,0.92-9.609-2.453c-4.118-3.369-8.794-8.041-16.988-8.576
			c-4.112-0.271-13.35,0.681-23.851,8.733c-7.592,5.819-10.551,13.632-10.468,17.769c0.07,3.537,0.382,7.129,2.573,8.12
			c3.391,1.535,15.532-1.149,15.359-10.646c-2.058,4.289-6.398,5.197-7.464,4.365c-2.057-1.608-0.128-7.813,2.703-11.607
			c3.511-4.703,9.781-12.522,19.259-12.753c7.109-0.171,14.761,4.594,17.163,5.822C109.433,83.226,114.237,84.761,118.355,83.226z"
			/>
		<path fill="#BE1622" d="M123.761,84.682c0,0-8.217-1.424-11.195-3.562c-2.962-2.125-6.049-6.205-4.247-8.962
			c1.8-2.758,4.238-2.397,6.046-1.608c2.768,1.205,3.734,5.402,3.86,8.043C118.355,81.235,121.057,83.877,123.761,84.682z"/>
	</g>
	<path fill="#FFFFFF" d="M113.073,210.315c-5.535-5.883-6.916-14.011-6.916-19.028c0-5.014,2.245-13.255-1.73-16.948
		c-2.675-2.483-9.17-3.136-12.2,2.223c-3.28,5.814,1.297,15.823,3.205,18.881C97.176,198.229,103.299,206.745,113.073,210.315z"/>
	<path fill="#FFFFFF" d="M84.14,203.612c-5.535-5.881-6.918-14.008-6.918-19.026c0-5.014,2.245-13.252-1.732-16.946
		c-2.672-2.484-9.17-3.14-12.195,2.222c-3.282,5.812,1.293,15.823,3.203,18.878C68.241,191.529,74.363,200.045,84.14,203.612z"/>
	<path fill="#FFFFFF" d="M136.861,210.315c5.533-5.883,6.919-14.011,6.919-19.028c0-5.016-2.245-13.255,1.73-16.948
		c2.672-2.486,9.167-3.136,12.195,2.223c3.282,5.814-1.295,15.823-3.203,18.881C152.76,198.229,146.638,206.745,136.861,210.315z"/>
	<path fill="#FFFFFF" d="M165.799,203.612c5.533-5.881,6.918-14.008,6.918-19.026c0-5.014-2.245-13.255,1.728-16.95
		c2.675-2.48,9.17-3.136,12.197,2.226c3.283,5.812-1.294,15.823-3.202,18.878C181.694,191.526,175.574,200.045,165.799,203.612z"/>
	<circle fill="#FFFFFF" cx="125.061" cy="194.553" r="9.858"/>
</g>
<g>
</g>
<g>
</g>
<g>
</g>
<g>
</g>
<g>
</g>
<g>
</g>
</svg>
